G04 #@! TF.GenerationSoftware,KiCad,Pcbnew,5.1.5-52549c5~84~ubuntu18.04.1*
G04 #@! TF.CreationDate,2020-01-25T12:19:37+01:00*
G04 #@! TF.ProjectId,Nokolino_top,4e6f6b6f-6c69-46e6-9f5f-746f702e6b69,rev?*
G04 #@! TF.SameCoordinates,Original*
G04 #@! TF.FileFunction,Legend,Bot*
G04 #@! TF.FilePolarity,Positive*
%FSLAX46Y46*%
G04 Gerber Fmt 4.6, Leading zero omitted, Abs format (unit mm)*
G04 Created by KiCad (PCBNEW 5.1.5-52549c5~84~ubuntu18.04.1) date 2020-01-25 12:19:37*
%MOMM*%
%LPD*%
G04 APERTURE LIST*
%ADD10C,0.150000*%
G04 APERTURE END LIST*
D10*
X143350000Y-50400000D02*
X143350000Y-90400000D01*
X123350000Y-50400000D02*
X123350000Y-90400000D01*
X123350000Y-50400000D02*
X143350000Y-50400000D01*
X143350000Y-90400000D02*
X123350000Y-90400000D01*
X126350000Y-88600000D02*
G75*
G03X126350000Y-88600000I-1000000J0D01*
G01*
X142450000Y-88400000D02*
G75*
G03X142450000Y-88400000I-1100000J0D01*
G01*
X126450000Y-52400000D02*
G75*
G03X126450000Y-52400000I-1100000J0D01*
G01*
X142450000Y-52400000D02*
G75*
G03X142450000Y-52400000I-1100000J0D01*
G01*
X123950000Y-80400000D02*
X123950000Y-60400000D01*
X142750000Y-80400000D02*
X142750000Y-60400000D01*
X133350000Y-89800000D02*
G75*
G02X123950000Y-80400000I0J9400000D01*
G01*
X142750000Y-80400000D02*
G75*
G02X133350000Y-89800000I-9400000J0D01*
G01*
X123950000Y-60400000D02*
G75*
G02X133350000Y-51000000I9400000J0D01*
G01*
X133350000Y-51000000D02*
G75*
G02X142750000Y-60400000I0J-9400000D01*
G01*
X148754761Y-70052380D02*
X148754761Y-69052380D01*
X148183333Y-70052380D02*
X148611904Y-69480952D01*
X148183333Y-69052380D02*
X148754761Y-69623809D01*
X147802380Y-69147619D02*
X147754761Y-69100000D01*
X147659523Y-69052380D01*
X147421428Y-69052380D01*
X147326190Y-69100000D01*
X147278571Y-69147619D01*
X147230952Y-69242857D01*
X147230952Y-69338095D01*
X147278571Y-69480952D01*
X147850000Y-70052380D01*
X147230952Y-70052380D01*
X146611904Y-69052380D02*
X146516666Y-69052380D01*
X146421428Y-69100000D01*
X146373809Y-69147619D01*
X146326190Y-69242857D01*
X146278571Y-69433333D01*
X146278571Y-69671428D01*
X146326190Y-69861904D01*
X146373809Y-69957142D01*
X146421428Y-70004761D01*
X146516666Y-70052380D01*
X146611904Y-70052380D01*
X146707142Y-70004761D01*
X146754761Y-69957142D01*
X146802380Y-69861904D01*
X146850000Y-69671428D01*
X146850000Y-69433333D01*
X146802380Y-69242857D01*
X146754761Y-69147619D01*
X146707142Y-69100000D01*
X146611904Y-69052380D01*
X145850000Y-69957142D02*
X145802380Y-70004761D01*
X145850000Y-70052380D01*
X145897619Y-70004761D01*
X145850000Y-69957142D01*
X145850000Y-70052380D01*
X144945238Y-69385714D02*
X144945238Y-70052380D01*
X145183333Y-69004761D02*
X145421428Y-69719047D01*
X144802380Y-69719047D01*
X144230952Y-69052380D02*
X144135714Y-69052380D01*
X144040476Y-69100000D01*
X143992857Y-69147619D01*
X143945238Y-69242857D01*
X143897619Y-69433333D01*
X143897619Y-69671428D01*
X143945238Y-69861904D01*
X143992857Y-69957142D01*
X144040476Y-70004761D01*
X144135714Y-70052380D01*
X144230952Y-70052380D01*
X144326190Y-70004761D01*
X144373809Y-69957142D01*
X144421428Y-69861904D01*
X144469047Y-69671428D01*
X144469047Y-69433333D01*
X144421428Y-69242857D01*
X144373809Y-69147619D01*
X144326190Y-69100000D01*
X144230952Y-69052380D01*
M02*
