G04 #@! TF.GenerationSoftware,KiCad,Pcbnew,5.1.5-52549c5~84~ubuntu18.04.1*
G04 #@! TF.CreationDate,2020-01-25T12:19:37+01:00*
G04 #@! TF.ProjectId,Nokolino_top,4e6f6b6f-6c69-46e6-9f5f-746f702e6b69,rev?*
G04 #@! TF.SameCoordinates,Original*
G04 #@! TF.FileFunction,Legend,Top*
G04 #@! TF.FilePolarity,Positive*
%FSLAX46Y46*%
G04 Gerber Fmt 4.6, Leading zero omitted, Abs format (unit mm)*
G04 Created by KiCad (PCBNEW 5.1.5-52549c5~84~ubuntu18.04.1) date 2020-01-25 12:19:37*
%MOMM*%
%LPD*%
G04 APERTURE LIST*
%ADD10C,0.100000*%
%ADD11C,0.300000*%
%ADD12C,0.010000*%
%ADD13C,0.150000*%
G04 APERTURE END LIST*
D10*
X129608303Y-100056904D02*
X129708303Y-99256904D01*
X129670208Y-99561666D02*
X129751160Y-99523571D01*
X129903541Y-99523571D01*
X129974970Y-99561666D01*
X130008303Y-99599761D01*
X130036875Y-99675952D01*
X130008303Y-99904523D01*
X129960684Y-99980714D01*
X129917827Y-100018809D01*
X129836875Y-100056904D01*
X129684494Y-100056904D01*
X129613065Y-100018809D01*
X130322589Y-99523571D02*
X130446398Y-100056904D01*
X130703541Y-99523571D02*
X130446398Y-100056904D01*
X130346398Y-100247380D01*
X130303541Y-100285476D01*
X130222589Y-100323571D01*
X131551160Y-100056904D02*
X131651160Y-99256904D01*
X132008303Y-100056904D01*
X132108303Y-99256904D01*
X132389255Y-100056904D02*
X132455922Y-99523571D01*
X132489255Y-99256904D02*
X132446398Y-99295000D01*
X132479732Y-99333095D01*
X132522589Y-99295000D01*
X132489255Y-99256904D01*
X132479732Y-99333095D01*
X132770208Y-100056904D02*
X132870208Y-99256904D01*
X132884494Y-99752142D02*
X133074970Y-100056904D01*
X133141636Y-99523571D02*
X132798779Y-99828333D01*
X133532113Y-100056904D02*
X133460684Y-100018809D01*
X133427351Y-99980714D01*
X133398779Y-99904523D01*
X133427351Y-99675952D01*
X133474970Y-99599761D01*
X133517827Y-99561666D01*
X133598779Y-99523571D01*
X133713065Y-99523571D01*
X133784494Y-99561666D01*
X133817827Y-99599761D01*
X133846398Y-99675952D01*
X133817827Y-99904523D01*
X133770208Y-99980714D01*
X133727351Y-100018809D01*
X133646398Y-100056904D01*
X133532113Y-100056904D01*
X134255922Y-100056904D02*
X134184494Y-100018809D01*
X134155922Y-99942619D01*
X134241636Y-99256904D01*
X134903541Y-100056904D02*
X134955922Y-99637857D01*
X134927351Y-99561666D01*
X134855922Y-99523571D01*
X134703541Y-99523571D01*
X134622589Y-99561666D01*
X134908303Y-100018809D02*
X134827351Y-100056904D01*
X134636875Y-100056904D01*
X134565446Y-100018809D01*
X134536875Y-99942619D01*
X134546398Y-99866428D01*
X134594017Y-99790238D01*
X134674970Y-99752142D01*
X134865446Y-99752142D01*
X134946398Y-99714047D01*
X135284494Y-100056904D02*
X135351160Y-99523571D01*
X135384494Y-99256904D02*
X135341636Y-99295000D01*
X135374970Y-99333095D01*
X135417827Y-99295000D01*
X135384494Y-99256904D01*
X135374970Y-99333095D01*
X136732113Y-100056904D02*
X136513065Y-99675952D01*
X136274970Y-100056904D02*
X136374970Y-99256904D01*
X136679732Y-99256904D01*
X136751160Y-99295000D01*
X136784494Y-99333095D01*
X136813065Y-99409285D01*
X136798779Y-99523571D01*
X136751160Y-99599761D01*
X136708303Y-99637857D01*
X136627351Y-99675952D01*
X136322589Y-99675952D01*
X137417827Y-100056904D02*
X137470208Y-99637857D01*
X137441636Y-99561666D01*
X137370208Y-99523571D01*
X137217827Y-99523571D01*
X137136875Y-99561666D01*
X137422589Y-100018809D02*
X137341636Y-100056904D01*
X137151160Y-100056904D01*
X137079732Y-100018809D01*
X137051160Y-99942619D01*
X137060684Y-99866428D01*
X137108303Y-99790238D01*
X137189255Y-99752142D01*
X137379732Y-99752142D01*
X137460684Y-99714047D01*
X138141636Y-100056904D02*
X138241636Y-99256904D01*
X138146398Y-100018809D02*
X138065446Y-100056904D01*
X137913065Y-100056904D01*
X137841636Y-100018809D01*
X137808303Y-99980714D01*
X137779732Y-99904523D01*
X137808303Y-99675952D01*
X137855922Y-99599761D01*
X137898779Y-99561666D01*
X137979732Y-99523571D01*
X138132113Y-99523571D01*
X138203541Y-99561666D01*
X138522589Y-100056904D02*
X138622589Y-99256904D01*
X138636875Y-99752142D02*
X138827351Y-100056904D01*
X138894017Y-99523571D02*
X138551160Y-99828333D01*
X139479732Y-100018809D02*
X139398779Y-100056904D01*
X139246398Y-100056904D01*
X139174970Y-100018809D01*
X139146398Y-99942619D01*
X139184494Y-99637857D01*
X139232113Y-99561666D01*
X139313065Y-99523571D01*
X139465446Y-99523571D01*
X139536875Y-99561666D01*
X139565446Y-99637857D01*
X139555922Y-99714047D01*
X139165446Y-99790238D01*
D11*
X130243928Y-98378571D02*
X130431428Y-96878571D01*
X131101071Y-98378571D01*
X131288571Y-96878571D01*
X132029642Y-98378571D02*
X131895714Y-98307142D01*
X131833214Y-98235714D01*
X131779642Y-98092857D01*
X131833214Y-97664285D01*
X131922500Y-97521428D01*
X132002857Y-97450000D01*
X132154642Y-97378571D01*
X132368928Y-97378571D01*
X132502857Y-97450000D01*
X132565357Y-97521428D01*
X132618928Y-97664285D01*
X132565357Y-98092857D01*
X132476071Y-98235714D01*
X132395714Y-98307142D01*
X132243928Y-98378571D01*
X132029642Y-98378571D01*
X133172500Y-98378571D02*
X133360000Y-96878571D01*
X133386785Y-97807142D02*
X133743928Y-98378571D01*
X133868928Y-97378571D02*
X133226071Y-97950000D01*
X134601071Y-98378571D02*
X134467142Y-98307142D01*
X134404642Y-98235714D01*
X134351071Y-98092857D01*
X134404642Y-97664285D01*
X134493928Y-97521428D01*
X134574285Y-97450000D01*
X134726071Y-97378571D01*
X134940357Y-97378571D01*
X135074285Y-97450000D01*
X135136785Y-97521428D01*
X135190357Y-97664285D01*
X135136785Y-98092857D01*
X135047500Y-98235714D01*
X134967142Y-98307142D01*
X134815357Y-98378571D01*
X134601071Y-98378571D01*
X135958214Y-98378571D02*
X135824285Y-98307142D01*
X135770714Y-98164285D01*
X135931428Y-96878571D01*
X136529642Y-98378571D02*
X136654642Y-97378571D01*
X136717142Y-96878571D02*
X136636785Y-96950000D01*
X136699285Y-97021428D01*
X136779642Y-96950000D01*
X136717142Y-96878571D01*
X136699285Y-97021428D01*
X137368928Y-97378571D02*
X137243928Y-98378571D01*
X137351071Y-97521428D02*
X137431428Y-97450000D01*
X137583214Y-97378571D01*
X137797500Y-97378571D01*
X137931428Y-97450000D01*
X137985000Y-97592857D01*
X137886785Y-98378571D01*
X138815357Y-98378571D02*
X138681428Y-98307142D01*
X138618928Y-98235714D01*
X138565357Y-98092857D01*
X138618928Y-97664285D01*
X138708214Y-97521428D01*
X138788571Y-97450000D01*
X138940357Y-97378571D01*
X139154642Y-97378571D01*
X139288571Y-97450000D01*
X139351071Y-97521428D01*
X139404642Y-97664285D01*
X139351071Y-98092857D01*
X139261785Y-98235714D01*
X139181428Y-98307142D01*
X139029642Y-98378571D01*
X138815357Y-98378571D01*
D12*
G36*
X110075776Y-83663086D02*
G01*
X110306395Y-83836409D01*
X110501401Y-84141896D01*
X110670288Y-84593141D01*
X110779998Y-85011402D01*
X110925852Y-85630349D01*
X111044612Y-86105974D01*
X111143144Y-86460846D01*
X111228313Y-86717536D01*
X111306983Y-86898614D01*
X111386020Y-87026651D01*
X111397508Y-87041632D01*
X111560623Y-87248999D01*
X114172999Y-87249000D01*
X116785376Y-87249000D01*
X116947225Y-87043242D01*
X117035630Y-86873121D01*
X117140554Y-86584600D01*
X117245763Y-86225415D01*
X117299933Y-86006075D01*
X117457186Y-85343717D01*
X117592787Y-84827546D01*
X117713743Y-84436859D01*
X117827061Y-84150951D01*
X117939747Y-83949120D01*
X118035342Y-83833082D01*
X118322012Y-83638255D01*
X118617181Y-83610906D01*
X118910026Y-83750283D01*
X119072640Y-83905043D01*
X119213340Y-84093058D01*
X119338620Y-84325473D01*
X119449922Y-84613585D01*
X119548692Y-84968690D01*
X119636372Y-85402083D01*
X119714407Y-85925060D01*
X119784242Y-86548917D01*
X119847319Y-87284950D01*
X119905083Y-88144454D01*
X119958978Y-89138726D01*
X120010447Y-90279061D01*
X120060936Y-91576754D01*
X120063965Y-91659872D01*
X120121169Y-93234411D01*
X120554918Y-92941842D01*
X121039915Y-92639757D01*
X121579704Y-92345456D01*
X122141541Y-92072987D01*
X122692684Y-91836394D01*
X123200387Y-91649725D01*
X123631909Y-91527024D01*
X123954505Y-91482338D01*
X123957279Y-91482333D01*
X124280145Y-91537694D01*
X124484609Y-91709498D01*
X124578576Y-92006327D01*
X124587000Y-92165977D01*
X124542347Y-92406243D01*
X124417631Y-92759029D01*
X124226716Y-93195961D01*
X123983465Y-93688664D01*
X123701742Y-94208764D01*
X123395411Y-94727885D01*
X123142219Y-95123000D01*
X122861377Y-95508979D01*
X122505405Y-95946187D01*
X122102029Y-96405358D01*
X121678974Y-96857223D01*
X121263966Y-97272518D01*
X120884730Y-97621975D01*
X120568991Y-97876328D01*
X120472110Y-97941534D01*
X120264917Y-98085253D01*
X120152312Y-98227930D01*
X120094433Y-98435806D01*
X120070679Y-98608601D01*
X120048397Y-98878976D01*
X120029821Y-99263447D01*
X120017135Y-99706781D01*
X120012657Y-100076000D01*
X119986292Y-101418751D01*
X119918655Y-102658740D01*
X119811274Y-103784952D01*
X119665676Y-104786369D01*
X119483389Y-105651975D01*
X119265940Y-106370754D01*
X119078726Y-106810805D01*
X118870754Y-107116533D01*
X118558819Y-107445661D01*
X118193077Y-107751442D01*
X117823684Y-107987127D01*
X117807806Y-107995322D01*
X117410475Y-108131986D01*
X116962782Y-108183777D01*
X116532413Y-108148430D01*
X116230543Y-108048063D01*
X115922506Y-107816781D01*
X115641306Y-107478923D01*
X115440803Y-107102957D01*
X115352558Y-106799931D01*
X115265403Y-106362515D01*
X115184537Y-105825607D01*
X115115155Y-105224101D01*
X115062457Y-104592891D01*
X115058928Y-104539213D01*
X115025743Y-104101036D01*
X114989338Y-103805083D01*
X114944464Y-103624259D01*
X114885874Y-103531467D01*
X114860415Y-103514396D01*
X114726170Y-103487447D01*
X114482477Y-103470170D01*
X114179471Y-103462575D01*
X113867286Y-103464671D01*
X113596057Y-103476469D01*
X113415916Y-103497977D01*
X113373665Y-103514112D01*
X113354036Y-103607509D01*
X113325979Y-103837726D01*
X113292880Y-104172663D01*
X113258127Y-104580219D01*
X113249389Y-104692146D01*
X113184670Y-105444819D01*
X113114593Y-106052239D01*
X113033747Y-106538487D01*
X112936723Y-106927643D01*
X112818110Y-107243788D01*
X112672498Y-107511002D01*
X112588758Y-107632589D01*
X112255254Y-107949242D01*
X111827203Y-108143734D01*
X111336984Y-108205990D01*
X110917209Y-108152716D01*
X110366210Y-107935458D01*
X109872953Y-107569116D01*
X109450920Y-107068053D01*
X109113595Y-106446631D01*
X108978305Y-106087333D01*
X108827342Y-105581737D01*
X108701241Y-105054217D01*
X108597195Y-104481932D01*
X108512398Y-103842038D01*
X108444042Y-103111694D01*
X108389322Y-102268057D01*
X108345428Y-101288285D01*
X108328554Y-100799778D01*
X108305999Y-100155715D01*
X108281643Y-99567192D01*
X108256653Y-99055273D01*
X108232200Y-98641025D01*
X108209451Y-98345515D01*
X108189577Y-98189807D01*
X108182711Y-98171402D01*
X108091392Y-98101781D01*
X107897281Y-97955285D01*
X107633095Y-97756574D01*
X107453325Y-97621618D01*
X106750235Y-97015907D01*
X106051719Y-96263224D01*
X105374735Y-95385479D01*
X104736241Y-94404580D01*
X104175810Y-93387333D01*
X103907252Y-92789771D01*
X103763606Y-92305646D01*
X103756300Y-92159809D01*
X104182333Y-92159809D01*
X104226811Y-92366368D01*
X104350512Y-92685664D01*
X104538842Y-93089469D01*
X104777201Y-93549555D01*
X105050994Y-94037693D01*
X105345624Y-94525654D01*
X105633623Y-94966412D01*
X105993196Y-95452250D01*
X106418753Y-95962578D01*
X106878791Y-96464614D01*
X107341804Y-96925575D01*
X107776288Y-97312679D01*
X108150737Y-97593144D01*
X108169608Y-97605232D01*
X108643216Y-97905283D01*
X108698775Y-98813312D01*
X108724162Y-99324585D01*
X108743780Y-99902131D01*
X108754503Y-100446614D01*
X108755588Y-100618337D01*
X108789026Y-101996905D01*
X108884056Y-103273014D01*
X109038736Y-104430469D01*
X109251126Y-105453074D01*
X109397106Y-105968909D01*
X109671265Y-106599559D01*
X110054240Y-107113218D01*
X110535786Y-107496922D01*
X110658079Y-107564745D01*
X111050830Y-107702519D01*
X111454643Y-107736148D01*
X111815200Y-107665783D01*
X112004944Y-107560996D01*
X112201352Y-107371155D01*
X112362604Y-107127878D01*
X112494060Y-106811351D01*
X112601080Y-106401760D01*
X112689026Y-105879291D01*
X112763257Y-105224130D01*
X112819390Y-104550609D01*
X112854033Y-104123946D01*
X112889968Y-103751252D01*
X112923285Y-103468908D01*
X112950075Y-103313300D01*
X112953512Y-103302549D01*
X113093628Y-103164076D01*
X113381179Y-103066212D01*
X113798341Y-103012631D01*
X114327292Y-103007006D01*
X114378317Y-103008918D01*
X114770381Y-103032673D01*
X115049030Y-103083803D01*
X115235984Y-103188286D01*
X115352961Y-103372100D01*
X115421681Y-103661223D01*
X115463863Y-104081633D01*
X115480389Y-104327104D01*
X115529019Y-104937223D01*
X115594232Y-105529071D01*
X115671119Y-106071215D01*
X115754771Y-106532221D01*
X115840277Y-106880658D01*
X115906820Y-107057430D01*
X116056240Y-107272577D01*
X116262000Y-107489506D01*
X116293121Y-107516581D01*
X116631649Y-107699750D01*
X117019194Y-107743617D01*
X117430210Y-107660910D01*
X117839151Y-107464361D01*
X118220470Y-107166699D01*
X118548623Y-106780655D01*
X118798061Y-106318958D01*
X118822609Y-106256094D01*
X118979661Y-105800006D01*
X119113027Y-105325851D01*
X119225198Y-104813894D01*
X119318665Y-104244400D01*
X119395920Y-103597633D01*
X119459455Y-102853858D01*
X119511760Y-101993340D01*
X119555327Y-100996342D01*
X119580562Y-100252143D01*
X119602268Y-99569976D01*
X119621549Y-99037149D01*
X119640418Y-98633726D01*
X119660887Y-98339771D01*
X119684969Y-98135350D01*
X119714675Y-98000527D01*
X119752019Y-97915366D01*
X119799012Y-97859933D01*
X119824142Y-97839143D01*
X119973799Y-97726488D01*
X120213992Y-97548805D01*
X120498179Y-97340486D01*
X120560476Y-97295056D01*
X121149133Y-96799158D01*
X121754620Y-96164621D01*
X122356441Y-95417972D01*
X122934101Y-94585740D01*
X123467106Y-93694454D01*
X123735435Y-93185427D01*
X123955434Y-92729328D01*
X124091711Y-92397227D01*
X124148923Y-92168684D01*
X124131728Y-92023257D01*
X124044781Y-91940505D01*
X124021376Y-91930416D01*
X123839173Y-91928498D01*
X123538455Y-92002523D01*
X123145561Y-92140738D01*
X122686830Y-92331386D01*
X122188600Y-92562712D01*
X121677210Y-92822960D01*
X121178998Y-93100374D01*
X120720302Y-93383198D01*
X120625941Y-93445901D01*
X120262277Y-93679338D01*
X120009173Y-93803461D01*
X119845993Y-93816014D01*
X119752098Y-93714739D01*
X119706854Y-93497380D01*
X119696014Y-93344207D01*
X119687118Y-93149969D01*
X119672162Y-92809892D01*
X119652148Y-92347323D01*
X119628078Y-91785609D01*
X119600952Y-91148097D01*
X119571773Y-90458135D01*
X119548963Y-89916000D01*
X119497399Y-88800326D01*
X119442309Y-87840470D01*
X119382209Y-87022930D01*
X119315618Y-86334202D01*
X119241053Y-85760784D01*
X119157031Y-85289173D01*
X119062070Y-84905866D01*
X118968832Y-84632273D01*
X118801067Y-84277990D01*
X118640996Y-84088257D01*
X118482465Y-84058857D01*
X118319322Y-84185573D01*
X118318471Y-84186608D01*
X118223047Y-84323983D01*
X118138523Y-84502109D01*
X118055827Y-84749747D01*
X117965885Y-85095656D01*
X117859623Y-85568594D01*
X117812480Y-85790442D01*
X117650794Y-86446985D01*
X117472386Y-86965189D01*
X117281565Y-87334640D01*
X117088293Y-87541286D01*
X117010988Y-87578132D01*
X116891861Y-87607551D01*
X116713183Y-87630332D01*
X116457227Y-87647265D01*
X116106263Y-87659139D01*
X115642563Y-87666743D01*
X115048400Y-87670867D01*
X114306045Y-87672300D01*
X114145063Y-87672333D01*
X113388948Y-87671869D01*
X112783617Y-87669777D01*
X112310523Y-87665004D01*
X111951118Y-87656497D01*
X111686853Y-87643205D01*
X111499181Y-87624074D01*
X111369554Y-87598053D01*
X111279425Y-87564089D01*
X111210244Y-87521129D01*
X111188578Y-87504585D01*
X111036123Y-87346953D01*
X110900301Y-87116300D01*
X110772396Y-86789738D01*
X110643691Y-86344382D01*
X110505468Y-85757346D01*
X110482116Y-85649809D01*
X110384325Y-85230262D01*
X110280702Y-84843332D01*
X110184544Y-84535744D01*
X110117974Y-84370333D01*
X109955452Y-84142266D01*
X109790930Y-84075383D01*
X109628064Y-84161632D01*
X109470509Y-84392956D01*
X109321920Y-84761303D01*
X109185951Y-85258618D01*
X109066257Y-85876847D01*
X108966495Y-86607936D01*
X108926907Y-86995000D01*
X108895493Y-87394105D01*
X108861300Y-87928064D01*
X108825850Y-88562453D01*
X108790663Y-89262847D01*
X108757261Y-89994822D01*
X108727164Y-90723952D01*
X108701893Y-91415814D01*
X108682969Y-92035983D01*
X108671914Y-92550034D01*
X108669666Y-92817346D01*
X108663440Y-93262427D01*
X108641080Y-93563491D01*
X108597069Y-93745521D01*
X108525886Y-93833501D01*
X108440862Y-93852999D01*
X108319307Y-93808435D01*
X108095640Y-93688652D01*
X107807182Y-93514518D01*
X107624420Y-93396524D01*
X107120646Y-93082692D01*
X106581217Y-92779806D01*
X106035701Y-92501467D01*
X105513667Y-92261280D01*
X105044681Y-92072849D01*
X104658314Y-91949777D01*
X104384132Y-91905666D01*
X104383919Y-91905666D01*
X104239350Y-91935165D01*
X104186665Y-92057086D01*
X104182333Y-92159809D01*
X103756300Y-92159809D01*
X103744983Y-91933943D01*
X103851496Y-91673647D01*
X104083260Y-91523742D01*
X104387886Y-91482333D01*
X104725124Y-91528052D01*
X105171212Y-91656451D01*
X105695384Y-91854395D01*
X106266871Y-92108747D01*
X106854907Y-92406372D01*
X107428725Y-92734134D01*
X107662267Y-92880314D01*
X108221202Y-93240660D01*
X108279437Y-91324330D01*
X108327522Y-89943187D01*
X108383834Y-88723176D01*
X108449963Y-87656229D01*
X108527500Y-86734273D01*
X108618036Y-85949239D01*
X108723160Y-85293057D01*
X108844463Y-84757656D01*
X108983535Y-84334966D01*
X109141968Y-84016916D01*
X109321351Y-83795436D01*
X109523275Y-83662456D01*
X109749331Y-83609905D01*
X109800047Y-83608333D01*
X110075776Y-83663086D01*
G37*
X110075776Y-83663086D02*
X110306395Y-83836409D01*
X110501401Y-84141896D01*
X110670288Y-84593141D01*
X110779998Y-85011402D01*
X110925852Y-85630349D01*
X111044612Y-86105974D01*
X111143144Y-86460846D01*
X111228313Y-86717536D01*
X111306983Y-86898614D01*
X111386020Y-87026651D01*
X111397508Y-87041632D01*
X111560623Y-87248999D01*
X114172999Y-87249000D01*
X116785376Y-87249000D01*
X116947225Y-87043242D01*
X117035630Y-86873121D01*
X117140554Y-86584600D01*
X117245763Y-86225415D01*
X117299933Y-86006075D01*
X117457186Y-85343717D01*
X117592787Y-84827546D01*
X117713743Y-84436859D01*
X117827061Y-84150951D01*
X117939747Y-83949120D01*
X118035342Y-83833082D01*
X118322012Y-83638255D01*
X118617181Y-83610906D01*
X118910026Y-83750283D01*
X119072640Y-83905043D01*
X119213340Y-84093058D01*
X119338620Y-84325473D01*
X119449922Y-84613585D01*
X119548692Y-84968690D01*
X119636372Y-85402083D01*
X119714407Y-85925060D01*
X119784242Y-86548917D01*
X119847319Y-87284950D01*
X119905083Y-88144454D01*
X119958978Y-89138726D01*
X120010447Y-90279061D01*
X120060936Y-91576754D01*
X120063965Y-91659872D01*
X120121169Y-93234411D01*
X120554918Y-92941842D01*
X121039915Y-92639757D01*
X121579704Y-92345456D01*
X122141541Y-92072987D01*
X122692684Y-91836394D01*
X123200387Y-91649725D01*
X123631909Y-91527024D01*
X123954505Y-91482338D01*
X123957279Y-91482333D01*
X124280145Y-91537694D01*
X124484609Y-91709498D01*
X124578576Y-92006327D01*
X124587000Y-92165977D01*
X124542347Y-92406243D01*
X124417631Y-92759029D01*
X124226716Y-93195961D01*
X123983465Y-93688664D01*
X123701742Y-94208764D01*
X123395411Y-94727885D01*
X123142219Y-95123000D01*
X122861377Y-95508979D01*
X122505405Y-95946187D01*
X122102029Y-96405358D01*
X121678974Y-96857223D01*
X121263966Y-97272518D01*
X120884730Y-97621975D01*
X120568991Y-97876328D01*
X120472110Y-97941534D01*
X120264917Y-98085253D01*
X120152312Y-98227930D01*
X120094433Y-98435806D01*
X120070679Y-98608601D01*
X120048397Y-98878976D01*
X120029821Y-99263447D01*
X120017135Y-99706781D01*
X120012657Y-100076000D01*
X119986292Y-101418751D01*
X119918655Y-102658740D01*
X119811274Y-103784952D01*
X119665676Y-104786369D01*
X119483389Y-105651975D01*
X119265940Y-106370754D01*
X119078726Y-106810805D01*
X118870754Y-107116533D01*
X118558819Y-107445661D01*
X118193077Y-107751442D01*
X117823684Y-107987127D01*
X117807806Y-107995322D01*
X117410475Y-108131986D01*
X116962782Y-108183777D01*
X116532413Y-108148430D01*
X116230543Y-108048063D01*
X115922506Y-107816781D01*
X115641306Y-107478923D01*
X115440803Y-107102957D01*
X115352558Y-106799931D01*
X115265403Y-106362515D01*
X115184537Y-105825607D01*
X115115155Y-105224101D01*
X115062457Y-104592891D01*
X115058928Y-104539213D01*
X115025743Y-104101036D01*
X114989338Y-103805083D01*
X114944464Y-103624259D01*
X114885874Y-103531467D01*
X114860415Y-103514396D01*
X114726170Y-103487447D01*
X114482477Y-103470170D01*
X114179471Y-103462575D01*
X113867286Y-103464671D01*
X113596057Y-103476469D01*
X113415916Y-103497977D01*
X113373665Y-103514112D01*
X113354036Y-103607509D01*
X113325979Y-103837726D01*
X113292880Y-104172663D01*
X113258127Y-104580219D01*
X113249389Y-104692146D01*
X113184670Y-105444819D01*
X113114593Y-106052239D01*
X113033747Y-106538487D01*
X112936723Y-106927643D01*
X112818110Y-107243788D01*
X112672498Y-107511002D01*
X112588758Y-107632589D01*
X112255254Y-107949242D01*
X111827203Y-108143734D01*
X111336984Y-108205990D01*
X110917209Y-108152716D01*
X110366210Y-107935458D01*
X109872953Y-107569116D01*
X109450920Y-107068053D01*
X109113595Y-106446631D01*
X108978305Y-106087333D01*
X108827342Y-105581737D01*
X108701241Y-105054217D01*
X108597195Y-104481932D01*
X108512398Y-103842038D01*
X108444042Y-103111694D01*
X108389322Y-102268057D01*
X108345428Y-101288285D01*
X108328554Y-100799778D01*
X108305999Y-100155715D01*
X108281643Y-99567192D01*
X108256653Y-99055273D01*
X108232200Y-98641025D01*
X108209451Y-98345515D01*
X108189577Y-98189807D01*
X108182711Y-98171402D01*
X108091392Y-98101781D01*
X107897281Y-97955285D01*
X107633095Y-97756574D01*
X107453325Y-97621618D01*
X106750235Y-97015907D01*
X106051719Y-96263224D01*
X105374735Y-95385479D01*
X104736241Y-94404580D01*
X104175810Y-93387333D01*
X103907252Y-92789771D01*
X103763606Y-92305646D01*
X103756300Y-92159809D01*
X104182333Y-92159809D01*
X104226811Y-92366368D01*
X104350512Y-92685664D01*
X104538842Y-93089469D01*
X104777201Y-93549555D01*
X105050994Y-94037693D01*
X105345624Y-94525654D01*
X105633623Y-94966412D01*
X105993196Y-95452250D01*
X106418753Y-95962578D01*
X106878791Y-96464614D01*
X107341804Y-96925575D01*
X107776288Y-97312679D01*
X108150737Y-97593144D01*
X108169608Y-97605232D01*
X108643216Y-97905283D01*
X108698775Y-98813312D01*
X108724162Y-99324585D01*
X108743780Y-99902131D01*
X108754503Y-100446614D01*
X108755588Y-100618337D01*
X108789026Y-101996905D01*
X108884056Y-103273014D01*
X109038736Y-104430469D01*
X109251126Y-105453074D01*
X109397106Y-105968909D01*
X109671265Y-106599559D01*
X110054240Y-107113218D01*
X110535786Y-107496922D01*
X110658079Y-107564745D01*
X111050830Y-107702519D01*
X111454643Y-107736148D01*
X111815200Y-107665783D01*
X112004944Y-107560996D01*
X112201352Y-107371155D01*
X112362604Y-107127878D01*
X112494060Y-106811351D01*
X112601080Y-106401760D01*
X112689026Y-105879291D01*
X112763257Y-105224130D01*
X112819390Y-104550609D01*
X112854033Y-104123946D01*
X112889968Y-103751252D01*
X112923285Y-103468908D01*
X112950075Y-103313300D01*
X112953512Y-103302549D01*
X113093628Y-103164076D01*
X113381179Y-103066212D01*
X113798341Y-103012631D01*
X114327292Y-103007006D01*
X114378317Y-103008918D01*
X114770381Y-103032673D01*
X115049030Y-103083803D01*
X115235984Y-103188286D01*
X115352961Y-103372100D01*
X115421681Y-103661223D01*
X115463863Y-104081633D01*
X115480389Y-104327104D01*
X115529019Y-104937223D01*
X115594232Y-105529071D01*
X115671119Y-106071215D01*
X115754771Y-106532221D01*
X115840277Y-106880658D01*
X115906820Y-107057430D01*
X116056240Y-107272577D01*
X116262000Y-107489506D01*
X116293121Y-107516581D01*
X116631649Y-107699750D01*
X117019194Y-107743617D01*
X117430210Y-107660910D01*
X117839151Y-107464361D01*
X118220470Y-107166699D01*
X118548623Y-106780655D01*
X118798061Y-106318958D01*
X118822609Y-106256094D01*
X118979661Y-105800006D01*
X119113027Y-105325851D01*
X119225198Y-104813894D01*
X119318665Y-104244400D01*
X119395920Y-103597633D01*
X119459455Y-102853858D01*
X119511760Y-101993340D01*
X119555327Y-100996342D01*
X119580562Y-100252143D01*
X119602268Y-99569976D01*
X119621549Y-99037149D01*
X119640418Y-98633726D01*
X119660887Y-98339771D01*
X119684969Y-98135350D01*
X119714675Y-98000527D01*
X119752019Y-97915366D01*
X119799012Y-97859933D01*
X119824142Y-97839143D01*
X119973799Y-97726488D01*
X120213992Y-97548805D01*
X120498179Y-97340486D01*
X120560476Y-97295056D01*
X121149133Y-96799158D01*
X121754620Y-96164621D01*
X122356441Y-95417972D01*
X122934101Y-94585740D01*
X123467106Y-93694454D01*
X123735435Y-93185427D01*
X123955434Y-92729328D01*
X124091711Y-92397227D01*
X124148923Y-92168684D01*
X124131728Y-92023257D01*
X124044781Y-91940505D01*
X124021376Y-91930416D01*
X123839173Y-91928498D01*
X123538455Y-92002523D01*
X123145561Y-92140738D01*
X122686830Y-92331386D01*
X122188600Y-92562712D01*
X121677210Y-92822960D01*
X121178998Y-93100374D01*
X120720302Y-93383198D01*
X120625941Y-93445901D01*
X120262277Y-93679338D01*
X120009173Y-93803461D01*
X119845993Y-93816014D01*
X119752098Y-93714739D01*
X119706854Y-93497380D01*
X119696014Y-93344207D01*
X119687118Y-93149969D01*
X119672162Y-92809892D01*
X119652148Y-92347323D01*
X119628078Y-91785609D01*
X119600952Y-91148097D01*
X119571773Y-90458135D01*
X119548963Y-89916000D01*
X119497399Y-88800326D01*
X119442309Y-87840470D01*
X119382209Y-87022930D01*
X119315618Y-86334202D01*
X119241053Y-85760784D01*
X119157031Y-85289173D01*
X119062070Y-84905866D01*
X118968832Y-84632273D01*
X118801067Y-84277990D01*
X118640996Y-84088257D01*
X118482465Y-84058857D01*
X118319322Y-84185573D01*
X118318471Y-84186608D01*
X118223047Y-84323983D01*
X118138523Y-84502109D01*
X118055827Y-84749747D01*
X117965885Y-85095656D01*
X117859623Y-85568594D01*
X117812480Y-85790442D01*
X117650794Y-86446985D01*
X117472386Y-86965189D01*
X117281565Y-87334640D01*
X117088293Y-87541286D01*
X117010988Y-87578132D01*
X116891861Y-87607551D01*
X116713183Y-87630332D01*
X116457227Y-87647265D01*
X116106263Y-87659139D01*
X115642563Y-87666743D01*
X115048400Y-87670867D01*
X114306045Y-87672300D01*
X114145063Y-87672333D01*
X113388948Y-87671869D01*
X112783617Y-87669777D01*
X112310523Y-87665004D01*
X111951118Y-87656497D01*
X111686853Y-87643205D01*
X111499181Y-87624074D01*
X111369554Y-87598053D01*
X111279425Y-87564089D01*
X111210244Y-87521129D01*
X111188578Y-87504585D01*
X111036123Y-87346953D01*
X110900301Y-87116300D01*
X110772396Y-86789738D01*
X110643691Y-86344382D01*
X110505468Y-85757346D01*
X110482116Y-85649809D01*
X110384325Y-85230262D01*
X110280702Y-84843332D01*
X110184544Y-84535744D01*
X110117974Y-84370333D01*
X109955452Y-84142266D01*
X109790930Y-84075383D01*
X109628064Y-84161632D01*
X109470509Y-84392956D01*
X109321920Y-84761303D01*
X109185951Y-85258618D01*
X109066257Y-85876847D01*
X108966495Y-86607936D01*
X108926907Y-86995000D01*
X108895493Y-87394105D01*
X108861300Y-87928064D01*
X108825850Y-88562453D01*
X108790663Y-89262847D01*
X108757261Y-89994822D01*
X108727164Y-90723952D01*
X108701893Y-91415814D01*
X108682969Y-92035983D01*
X108671914Y-92550034D01*
X108669666Y-92817346D01*
X108663440Y-93262427D01*
X108641080Y-93563491D01*
X108597069Y-93745521D01*
X108525886Y-93833501D01*
X108440862Y-93852999D01*
X108319307Y-93808435D01*
X108095640Y-93688652D01*
X107807182Y-93514518D01*
X107624420Y-93396524D01*
X107120646Y-93082692D01*
X106581217Y-92779806D01*
X106035701Y-92501467D01*
X105513667Y-92261280D01*
X105044681Y-92072849D01*
X104658314Y-91949777D01*
X104384132Y-91905666D01*
X104383919Y-91905666D01*
X104239350Y-91935165D01*
X104186665Y-92057086D01*
X104182333Y-92159809D01*
X103756300Y-92159809D01*
X103744983Y-91933943D01*
X103851496Y-91673647D01*
X104083260Y-91523742D01*
X104387886Y-91482333D01*
X104725124Y-91528052D01*
X105171212Y-91656451D01*
X105695384Y-91854395D01*
X106266871Y-92108747D01*
X106854907Y-92406372D01*
X107428725Y-92734134D01*
X107662267Y-92880314D01*
X108221202Y-93240660D01*
X108279437Y-91324330D01*
X108327522Y-89943187D01*
X108383834Y-88723176D01*
X108449963Y-87656229D01*
X108527500Y-86734273D01*
X108618036Y-85949239D01*
X108723160Y-85293057D01*
X108844463Y-84757656D01*
X108983535Y-84334966D01*
X109141968Y-84016916D01*
X109321351Y-83795436D01*
X109523275Y-83662456D01*
X109749331Y-83609905D01*
X109800047Y-83608333D01*
X110075776Y-83663086D01*
D13*
M02*
