G04 #@! TF.GenerationSoftware,KiCad,Pcbnew,5.1.5-52549c5~84~ubuntu18.04.1*
G04 #@! TF.CreationDate,2020-02-14T10:19:46+01:00*
G04 #@! TF.ProjectId,Nokolino_top,4e6f6b6f-6c69-46e6-9f5f-746f702e6b69,rev?*
G04 #@! TF.SameCoordinates,Original*
G04 #@! TF.FileFunction,Legend,Bot*
G04 #@! TF.FilePolarity,Positive*
%FSLAX46Y46*%
G04 Gerber Fmt 4.6, Leading zero omitted, Abs format (unit mm)*
G04 Created by KiCad (PCBNEW 5.1.5-52549c5~84~ubuntu18.04.1) date 2020-02-14 10:19:46*
%MOMM*%
%LPD*%
G04 APERTURE LIST*
%ADD10C,0.150000*%
G04 APERTURE END LIST*
D10*
X163350000Y-80400000D02*
X163350000Y-120400000D01*
X143350000Y-80400000D02*
X143350000Y-120400000D01*
X143350000Y-80400000D02*
X163350000Y-80400000D01*
X163350000Y-120400000D02*
X143350000Y-120400000D01*
X146350000Y-118600000D02*
G75*
G03X146350000Y-118600000I-1000000J0D01*
G01*
X162450000Y-118400000D02*
G75*
G03X162450000Y-118400000I-1100000J0D01*
G01*
X146450000Y-82400000D02*
G75*
G03X146450000Y-82400000I-1100000J0D01*
G01*
X162450000Y-82400000D02*
G75*
G03X162450000Y-82400000I-1100000J0D01*
G01*
X143950000Y-110400000D02*
X143950000Y-90400000D01*
X162750000Y-110400000D02*
X162750000Y-90400000D01*
X153350000Y-119800000D02*
G75*
G02X143950000Y-110400000I0J9400000D01*
G01*
X162750000Y-110400000D02*
G75*
G02X153350000Y-119800000I-9400000J0D01*
G01*
X143950000Y-90400000D02*
G75*
G02X153350000Y-81000000I9400000J0D01*
G01*
X153350000Y-81000000D02*
G75*
G02X162750000Y-90400000I0J-9400000D01*
G01*
X168754761Y-100052380D02*
X168754761Y-99052380D01*
X168183333Y-100052380D02*
X168611904Y-99480952D01*
X168183333Y-99052380D02*
X168754761Y-99623809D01*
X167802380Y-99147619D02*
X167754761Y-99100000D01*
X167659523Y-99052380D01*
X167421428Y-99052380D01*
X167326190Y-99100000D01*
X167278571Y-99147619D01*
X167230952Y-99242857D01*
X167230952Y-99338095D01*
X167278571Y-99480952D01*
X167850000Y-100052380D01*
X167230952Y-100052380D01*
X166611904Y-99052380D02*
X166516666Y-99052380D01*
X166421428Y-99100000D01*
X166373809Y-99147619D01*
X166326190Y-99242857D01*
X166278571Y-99433333D01*
X166278571Y-99671428D01*
X166326190Y-99861904D01*
X166373809Y-99957142D01*
X166421428Y-100004761D01*
X166516666Y-100052380D01*
X166611904Y-100052380D01*
X166707142Y-100004761D01*
X166754761Y-99957142D01*
X166802380Y-99861904D01*
X166850000Y-99671428D01*
X166850000Y-99433333D01*
X166802380Y-99242857D01*
X166754761Y-99147619D01*
X166707142Y-99100000D01*
X166611904Y-99052380D01*
X165850000Y-99957142D02*
X165802380Y-100004761D01*
X165850000Y-100052380D01*
X165897619Y-100004761D01*
X165850000Y-99957142D01*
X165850000Y-100052380D01*
X164945238Y-99385714D02*
X164945238Y-100052380D01*
X165183333Y-99004761D02*
X165421428Y-99719047D01*
X164802380Y-99719047D01*
X164230952Y-99052380D02*
X164135714Y-99052380D01*
X164040476Y-99100000D01*
X163992857Y-99147619D01*
X163945238Y-99242857D01*
X163897619Y-99433333D01*
X163897619Y-99671428D01*
X163945238Y-99861904D01*
X163992857Y-99957142D01*
X164040476Y-100004761D01*
X164135714Y-100052380D01*
X164230952Y-100052380D01*
X164326190Y-100004761D01*
X164373809Y-99957142D01*
X164421428Y-99861904D01*
X164469047Y-99671428D01*
X164469047Y-99433333D01*
X164421428Y-99242857D01*
X164373809Y-99147619D01*
X164326190Y-99100000D01*
X164230952Y-99052380D01*
M02*
