G04 #@! TF.GenerationSoftware,KiCad,Pcbnew,5.1.5-52549c5~84~ubuntu18.04.1*
G04 #@! TF.CreationDate,2020-01-25T12:19:37+01:00*
G04 #@! TF.ProjectId,Nokolino_top,4e6f6b6f-6c69-46e6-9f5f-746f702e6b69,rev?*
G04 #@! TF.SameCoordinates,Original*
G04 #@! TF.FileFunction,Soldermask,Top*
G04 #@! TF.FilePolarity,Negative*
%FSLAX46Y46*%
G04 Gerber Fmt 4.6, Leading zero omitted, Abs format (unit mm)*
G04 Created by KiCad (PCBNEW 5.1.5-52549c5~84~ubuntu18.04.1) date 2020-01-25 12:19:37*
%MOMM*%
%LPD*%
G04 APERTURE LIST*
%ADD10C,0.100000*%
G04 APERTURE END LIST*
D10*
G36*
X145672855Y-104856030D02*
G01*
X145936679Y-104965310D01*
X145936681Y-104965311D01*
X146174117Y-105123960D01*
X146376040Y-105325883D01*
X146534689Y-105563319D01*
X146534690Y-105563321D01*
X146643970Y-105827145D01*
X146699680Y-106107218D01*
X146699680Y-106392782D01*
X146643970Y-106672855D01*
X146534690Y-106936679D01*
X146534689Y-106936681D01*
X146376040Y-107174117D01*
X146174117Y-107376040D01*
X145936681Y-107534689D01*
X145936680Y-107534690D01*
X145936679Y-107534690D01*
X145672855Y-107643970D01*
X145392782Y-107699680D01*
X145107218Y-107699680D01*
X144827145Y-107643970D01*
X144563321Y-107534690D01*
X144563320Y-107534690D01*
X144563319Y-107534689D01*
X144325883Y-107376040D01*
X144123960Y-107174117D01*
X143965311Y-106936681D01*
X143965310Y-106936679D01*
X143856030Y-106672855D01*
X143800320Y-106392782D01*
X143800320Y-106107218D01*
X143856030Y-105827145D01*
X143965310Y-105563321D01*
X143965311Y-105563319D01*
X144123960Y-105325883D01*
X144325883Y-105123960D01*
X144563319Y-104965311D01*
X144563321Y-104965310D01*
X144827145Y-104856030D01*
X145107218Y-104800320D01*
X145392782Y-104800320D01*
X145672855Y-104856030D01*
G37*
G36*
X105172855Y-104856030D02*
G01*
X105436679Y-104965310D01*
X105436681Y-104965311D01*
X105674117Y-105123960D01*
X105876040Y-105325883D01*
X106034689Y-105563319D01*
X106034690Y-105563321D01*
X106143970Y-105827145D01*
X106199680Y-106107218D01*
X106199680Y-106392782D01*
X106143970Y-106672855D01*
X106034690Y-106936679D01*
X106034689Y-106936681D01*
X105876040Y-107174117D01*
X105674117Y-107376040D01*
X105436681Y-107534689D01*
X105436680Y-107534690D01*
X105436679Y-107534690D01*
X105172855Y-107643970D01*
X104892782Y-107699680D01*
X104607218Y-107699680D01*
X104327145Y-107643970D01*
X104063321Y-107534690D01*
X104063320Y-107534690D01*
X104063319Y-107534689D01*
X103825883Y-107376040D01*
X103623960Y-107174117D01*
X103465311Y-106936681D01*
X103465310Y-106936679D01*
X103356030Y-106672855D01*
X103300320Y-106392782D01*
X103300320Y-106107218D01*
X103356030Y-105827145D01*
X103465310Y-105563321D01*
X103465311Y-105563319D01*
X103623960Y-105325883D01*
X103825883Y-105123960D01*
X104063319Y-104965311D01*
X104063321Y-104965310D01*
X104327145Y-104856030D01*
X104607218Y-104800320D01*
X104892782Y-104800320D01*
X105172855Y-104856030D01*
G37*
G36*
X145672855Y-52356030D02*
G01*
X145936679Y-52465310D01*
X145936681Y-52465311D01*
X146174117Y-52623960D01*
X146376040Y-52825883D01*
X146534689Y-53063319D01*
X146534690Y-53063321D01*
X146643970Y-53327145D01*
X146699680Y-53607218D01*
X146699680Y-53892782D01*
X146643970Y-54172855D01*
X146534690Y-54436679D01*
X146534689Y-54436681D01*
X146376040Y-54674117D01*
X146174117Y-54876040D01*
X145936681Y-55034689D01*
X145936680Y-55034690D01*
X145936679Y-55034690D01*
X145672855Y-55143970D01*
X145392782Y-55199680D01*
X145107218Y-55199680D01*
X144827145Y-55143970D01*
X144563321Y-55034690D01*
X144563320Y-55034690D01*
X144563319Y-55034689D01*
X144325883Y-54876040D01*
X144123960Y-54674117D01*
X143965311Y-54436681D01*
X143965310Y-54436679D01*
X143856030Y-54172855D01*
X143800320Y-53892782D01*
X143800320Y-53607218D01*
X143856030Y-53327145D01*
X143965310Y-53063321D01*
X143965311Y-53063319D01*
X144123960Y-52825883D01*
X144325883Y-52623960D01*
X144563319Y-52465311D01*
X144563321Y-52465310D01*
X144827145Y-52356030D01*
X145107218Y-52300320D01*
X145392782Y-52300320D01*
X145672855Y-52356030D01*
G37*
G36*
X105172855Y-52356030D02*
G01*
X105436679Y-52465310D01*
X105436681Y-52465311D01*
X105674117Y-52623960D01*
X105876040Y-52825883D01*
X106034689Y-53063319D01*
X106034690Y-53063321D01*
X106143970Y-53327145D01*
X106199680Y-53607218D01*
X106199680Y-53892782D01*
X106143970Y-54172855D01*
X106034690Y-54436679D01*
X106034689Y-54436681D01*
X105876040Y-54674117D01*
X105674117Y-54876040D01*
X105436681Y-55034689D01*
X105436680Y-55034690D01*
X105436679Y-55034690D01*
X105172855Y-55143970D01*
X104892782Y-55199680D01*
X104607218Y-55199680D01*
X104327145Y-55143970D01*
X104063321Y-55034690D01*
X104063320Y-55034690D01*
X104063319Y-55034689D01*
X103825883Y-54876040D01*
X103623960Y-54674117D01*
X103465311Y-54436681D01*
X103465310Y-54436679D01*
X103356030Y-54172855D01*
X103300320Y-53892782D01*
X103300320Y-53607218D01*
X103356030Y-53327145D01*
X103465310Y-53063321D01*
X103465311Y-53063319D01*
X103623960Y-52825883D01*
X103825883Y-52623960D01*
X104063319Y-52465311D01*
X104063321Y-52465310D01*
X104327145Y-52356030D01*
X104607218Y-52300320D01*
X104892782Y-52300320D01*
X105172855Y-52356030D01*
G37*
M02*
