G04 #@! TF.GenerationSoftware,KiCad,Pcbnew,5.1.5-52549c5~84~ubuntu18.04.1*
G04 #@! TF.CreationDate,2020-01-25T11:43:56+01:00*
G04 #@! TF.ProjectId,Nokolino,4e6f6b6f-6c69-46e6-9f2e-6b696361645f,3.0*
G04 #@! TF.SameCoordinates,Original*
G04 #@! TF.FileFunction,Copper,L2,Bot*
G04 #@! TF.FilePolarity,Positive*
%FSLAX46Y46*%
G04 Gerber Fmt 4.6, Leading zero omitted, Abs format (unit mm)*
G04 Created by KiCad (PCBNEW 5.1.5-52549c5~84~ubuntu18.04.1) date 2020-01-25 11:43:56*
%MOMM*%
%LPD*%
G04 APERTURE LIST*
%ADD10C,2.000000*%
%ADD11O,2.000000X1.800000*%
%ADD12R,2.000000X1.800000*%
%ADD13C,1.524000*%
%ADD14C,5.600000*%
%ADD15O,1.700000X1.700000*%
%ADD16R,1.700000X1.700000*%
%ADD17C,1.600000*%
%ADD18O,1.600000X1.600000*%
%ADD19C,0.600000*%
%ADD20C,0.250000*%
%ADD21C,0.254000*%
G04 APERTURE END LIST*
D10*
X170599100Y-145249900D03*
X170599100Y-131737100D03*
X147739100Y-145046700D03*
X147739100Y-131940300D03*
X147739100Y-134683500D03*
X147739100Y-142303500D03*
D11*
X135382000Y-135953500D03*
X143002000Y-128333500D03*
X135382000Y-133413500D03*
X143002000Y-130873500D03*
X135382000Y-130873500D03*
X143002000Y-133413500D03*
X135382000Y-128333500D03*
D12*
X143002000Y-135953500D03*
D13*
X172500000Y-122300000D03*
X160500000Y-122300000D03*
D10*
X145094500Y-96639800D03*
X147869500Y-96639800D03*
D12*
X138874500Y-106349800D03*
D11*
X138874500Y-108889800D03*
X138874500Y-111429800D03*
X138874500Y-113969800D03*
X138874500Y-116509800D03*
X138874500Y-119049800D03*
X138874500Y-121589800D03*
X138874500Y-124129800D03*
X154114500Y-106349800D03*
X154114500Y-108889800D03*
X154114500Y-111429800D03*
X154114500Y-113969800D03*
X154114500Y-116509800D03*
X154114500Y-119049800D03*
X154114500Y-121589800D03*
X154114500Y-124129800D03*
D14*
X176000000Y-126500000D03*
X167250000Y-126500000D03*
D15*
X172720000Y-91440000D03*
D16*
X170180000Y-91440000D03*
D15*
X181250000Y-126290000D03*
D16*
X181250000Y-123750000D03*
D15*
X180975000Y-120015000D03*
X180975000Y-117475000D03*
X180975000Y-114935000D03*
X180975000Y-112395000D03*
X180975000Y-109855000D03*
D16*
X180975000Y-107315000D03*
D17*
X135250000Y-123500000D03*
D18*
X135250000Y-115880000D03*
D10*
X139250000Y-95500000D03*
X134750000Y-95500000D03*
X139250000Y-89000000D03*
X134750000Y-89000000D03*
X177250000Y-89000000D03*
X181750000Y-89000000D03*
X177250000Y-95500000D03*
X181750000Y-95500000D03*
X181750000Y-146000000D03*
X177250000Y-146000000D03*
X181750000Y-139500000D03*
X177250000Y-139500000D03*
X134750000Y-139500000D03*
X139250000Y-139500000D03*
X134750000Y-146000000D03*
X139250000Y-146000000D03*
D19*
X150983000Y-134760300D03*
D20*
X159100000Y-108900000D02*
X172500000Y-122300000D01*
X154120000Y-108900000D02*
X159100000Y-108900000D01*
X140575400Y-90325400D02*
X139250000Y-89000000D01*
X140575400Y-94174600D02*
X140575400Y-90325400D01*
X140575400Y-94174600D02*
X139250000Y-95500000D01*
X179655500Y-141594500D02*
X181750000Y-139500000D01*
X179655500Y-143905500D02*
X179655500Y-141594500D01*
X168249000Y-143905500D02*
X179655500Y-143905500D01*
X165741700Y-146412800D02*
X168249000Y-143905500D01*
X139662800Y-146412800D02*
X165741700Y-146412800D01*
X139250000Y-146000000D02*
X139662800Y-146412800D01*
X179655500Y-143905500D02*
X181750000Y-146000000D01*
X181750000Y-92849200D02*
X181750000Y-89000000D01*
X180424600Y-94174600D02*
X181750000Y-92849200D01*
X181750000Y-95500000D02*
X180424600Y-94174600D01*
X180424600Y-94174600D02*
X140575400Y-94174600D01*
X165109300Y-116520000D02*
X154120000Y-116520000D01*
X171989000Y-123399700D02*
X165109300Y-116520000D01*
X172973800Y-123399700D02*
X171989000Y-123399700D01*
X180975000Y-123475000D02*
X181250000Y-123750000D01*
X180975000Y-120015000D02*
X180975000Y-123475000D01*
X176358500Y-120015000D02*
X180975000Y-120015000D01*
X176358500Y-120015000D02*
X172973800Y-123399700D01*
X143607415Y-132145010D02*
X146050000Y-129702425D01*
X135544990Y-132145010D02*
X143607415Y-132145010D01*
X135380000Y-133460000D02*
X135380000Y-132310000D01*
X135380000Y-132310000D02*
X135544990Y-132145010D01*
X146050000Y-129702425D02*
X146050000Y-124460000D01*
X146370000Y-124140000D02*
X154120000Y-124140000D01*
X146050000Y-124460000D02*
X146370000Y-124140000D01*
X145100000Y-121600000D02*
X154120000Y-121600000D01*
X143607415Y-129605010D02*
X144780000Y-128432425D01*
X144780000Y-128432425D02*
X144780000Y-121920000D01*
X144780000Y-121920000D02*
X145100000Y-121600000D01*
X135500490Y-129605010D02*
X135382000Y-129723500D01*
X135382000Y-129723500D02*
X135382000Y-130873500D01*
X143607415Y-129605010D02*
X135500490Y-129605010D01*
X165230000Y-96650000D02*
X147875000Y-96650000D01*
X180975000Y-112395000D02*
X165230000Y-96650000D01*
X151096600Y-102646600D02*
X145100000Y-96650000D01*
X180975000Y-114935000D02*
X168686600Y-102646600D01*
X168686600Y-102646600D02*
X151096600Y-102646600D01*
X150912700Y-134690000D02*
X150983000Y-134760300D01*
X147720000Y-134690000D02*
X150912700Y-134690000D01*
X135250000Y-96000000D02*
X134750000Y-95500000D01*
X135250000Y-115880000D02*
X135250000Y-96000000D01*
X138330000Y-117834700D02*
X138880000Y-117834700D01*
X136375300Y-115880000D02*
X138330000Y-117834700D01*
X135250000Y-115880000D02*
X136375300Y-115880000D01*
X138880000Y-119060000D02*
X138880000Y-118547200D01*
X138880000Y-118547200D02*
X138880000Y-117834700D01*
X134053600Y-138803600D02*
X134750000Y-139500000D01*
X134053600Y-127810800D02*
X134053600Y-138803600D01*
X136135700Y-125728700D02*
X134053600Y-127810800D01*
X139518600Y-125728700D02*
X136135700Y-125728700D01*
X140231600Y-125015700D02*
X139518600Y-125728700D01*
X141070400Y-119060000D02*
X140231600Y-119898800D01*
X154120000Y-119060000D02*
X141070400Y-119060000D01*
X138880000Y-118547200D02*
X140231600Y-119898800D01*
X140231600Y-119898800D02*
X140231600Y-125015700D01*
X156845000Y-119060000D02*
X157160000Y-119060000D01*
X156845000Y-119060000D02*
X154120000Y-119060000D01*
X157160000Y-119060000D02*
X158115000Y-120015000D01*
X158115000Y-130676800D02*
X156845000Y-131946800D01*
X158115000Y-120015000D02*
X158115000Y-130676800D01*
X147720000Y-131946800D02*
X156845000Y-131946800D01*
X175835787Y-95500000D02*
X175585787Y-95250000D01*
X177250000Y-95500000D02*
X175835787Y-95500000D01*
X141070400Y-98718598D02*
X141070400Y-119060000D01*
X144538998Y-95250000D02*
X141070400Y-98718598D01*
X175585787Y-95250000D02*
X144538998Y-95250000D01*
X143000000Y-122667200D02*
X140231600Y-119898800D01*
X143000000Y-128380000D02*
X143000000Y-122667200D01*
X147083999Y-133271801D02*
X146895800Y-133460000D01*
X181250000Y-126290000D02*
X174268199Y-133271801D01*
X146895800Y-133460000D02*
X143000000Y-133460000D01*
X174268199Y-133271801D02*
X147083999Y-133271801D01*
X149134213Y-145053200D02*
X147720000Y-145053200D01*
X164225802Y-145053200D02*
X149134213Y-145053200D01*
X182425001Y-118925001D02*
X182425001Y-126854001D01*
X182425001Y-126854001D02*
X164225802Y-145053200D01*
X180975000Y-117475000D02*
X182425001Y-118925001D01*
D21*
G36*
X176294192Y-144864587D02*
G01*
X177250000Y-145820395D01*
X178205808Y-144864587D01*
X178133700Y-144665500D01*
X179340699Y-144665500D01*
X180183823Y-145508625D01*
X180177832Y-145523088D01*
X180115000Y-145838967D01*
X180115000Y-146161033D01*
X180177832Y-146476912D01*
X180301082Y-146774463D01*
X180311463Y-146790000D01*
X178683889Y-146790000D01*
X178790704Y-146570429D01*
X178872384Y-146258892D01*
X178891718Y-145937405D01*
X178847961Y-145618325D01*
X178742795Y-145313912D01*
X178649814Y-145139956D01*
X178385413Y-145044192D01*
X177429605Y-146000000D01*
X177443748Y-146014143D01*
X177264143Y-146193748D01*
X177250000Y-146179605D01*
X177235858Y-146193748D01*
X177056253Y-146014143D01*
X177070395Y-146000000D01*
X176114587Y-145044192D01*
X175850186Y-145139956D01*
X175709296Y-145429571D01*
X175627616Y-145741108D01*
X175608282Y-146062595D01*
X175652039Y-146381675D01*
X175757205Y-146686088D01*
X175812747Y-146790000D01*
X171153431Y-146790000D01*
X171373563Y-146698818D01*
X171641352Y-146519887D01*
X171869087Y-146292152D01*
X172048018Y-146024363D01*
X172171268Y-145726812D01*
X172234100Y-145410933D01*
X172234100Y-145088867D01*
X172171268Y-144772988D01*
X172126745Y-144665500D01*
X176366300Y-144665500D01*
X176294192Y-144864587D01*
G37*
X176294192Y-144864587D02*
X177250000Y-145820395D01*
X178205808Y-144864587D01*
X178133700Y-144665500D01*
X179340699Y-144665500D01*
X180183823Y-145508625D01*
X180177832Y-145523088D01*
X180115000Y-145838967D01*
X180115000Y-146161033D01*
X180177832Y-146476912D01*
X180301082Y-146774463D01*
X180311463Y-146790000D01*
X178683889Y-146790000D01*
X178790704Y-146570429D01*
X178872384Y-146258892D01*
X178891718Y-145937405D01*
X178847961Y-145618325D01*
X178742795Y-145313912D01*
X178649814Y-145139956D01*
X178385413Y-145044192D01*
X177429605Y-146000000D01*
X177443748Y-146014143D01*
X177264143Y-146193748D01*
X177250000Y-146179605D01*
X177235858Y-146193748D01*
X177056253Y-146014143D01*
X177070395Y-146000000D01*
X176114587Y-145044192D01*
X175850186Y-145139956D01*
X175709296Y-145429571D01*
X175627616Y-145741108D01*
X175608282Y-146062595D01*
X175652039Y-146381675D01*
X175757205Y-146686088D01*
X175812747Y-146790000D01*
X171153431Y-146790000D01*
X171373563Y-146698818D01*
X171641352Y-146519887D01*
X171869087Y-146292152D01*
X172048018Y-146024363D01*
X172171268Y-145726812D01*
X172234100Y-145410933D01*
X172234100Y-145088867D01*
X172171268Y-144772988D01*
X172126745Y-144665500D01*
X176366300Y-144665500D01*
X176294192Y-144864587D01*
G36*
X141389210Y-133112587D02*
G01*
X141359573Y-133413500D01*
X141389210Y-133714413D01*
X141476983Y-134003761D01*
X141619519Y-134270427D01*
X141774280Y-134459005D01*
X141757820Y-134463998D01*
X141647506Y-134522963D01*
X141550815Y-134602315D01*
X141471463Y-134699006D01*
X141412498Y-134809320D01*
X141376188Y-134929018D01*
X141363928Y-135053500D01*
X141363928Y-136853500D01*
X141376188Y-136977982D01*
X141412498Y-137097680D01*
X141471463Y-137207994D01*
X141550815Y-137304685D01*
X141647506Y-137384037D01*
X141757820Y-137443002D01*
X141877518Y-137479312D01*
X142002000Y-137491572D01*
X144002000Y-137491572D01*
X144126482Y-137479312D01*
X144246180Y-137443002D01*
X144356494Y-137384037D01*
X144453185Y-137304685D01*
X144532537Y-137207994D01*
X144591502Y-137097680D01*
X144627812Y-136977982D01*
X144640072Y-136853500D01*
X144640072Y-135053500D01*
X144627812Y-134929018D01*
X144591502Y-134809320D01*
X144532537Y-134699006D01*
X144453185Y-134602315D01*
X144356494Y-134522963D01*
X144246180Y-134463998D01*
X144229720Y-134459005D01*
X144384481Y-134270427D01*
X144411435Y-134220000D01*
X146164264Y-134220000D01*
X146104100Y-134522467D01*
X146104100Y-134844533D01*
X146166932Y-135160412D01*
X146290182Y-135457963D01*
X146469113Y-135725752D01*
X146696848Y-135953487D01*
X146964637Y-136132418D01*
X147262188Y-136255668D01*
X147578067Y-136318500D01*
X147900133Y-136318500D01*
X148216012Y-136255668D01*
X148513563Y-136132418D01*
X148781352Y-135953487D01*
X149009087Y-135725752D01*
X149188018Y-135457963D01*
X149191316Y-135450000D01*
X150350410Y-135450000D01*
X150386972Y-135486562D01*
X150540111Y-135588886D01*
X150710271Y-135659368D01*
X150890911Y-135695300D01*
X151075089Y-135695300D01*
X151255729Y-135659368D01*
X151425889Y-135588886D01*
X151579028Y-135486562D01*
X151709262Y-135356328D01*
X151811586Y-135203189D01*
X151882068Y-135033029D01*
X151918000Y-134852389D01*
X151918000Y-134668211D01*
X151882068Y-134487571D01*
X151811586Y-134317411D01*
X151709262Y-134164272D01*
X151579028Y-134034038D01*
X151575680Y-134031801D01*
X174172399Y-134031801D01*
X163911001Y-144293200D01*
X149196701Y-144293200D01*
X149188018Y-144272237D01*
X149009087Y-144004448D01*
X148781352Y-143776713D01*
X148629277Y-143675100D01*
X148781352Y-143573487D01*
X149009087Y-143345752D01*
X149188018Y-143077963D01*
X149311268Y-142780412D01*
X149374100Y-142464533D01*
X149374100Y-142142467D01*
X149311268Y-141826588D01*
X149188018Y-141529037D01*
X149009087Y-141261248D01*
X148781352Y-141033513D01*
X148513563Y-140854582D01*
X148216012Y-140731332D01*
X147900133Y-140668500D01*
X147578067Y-140668500D01*
X147262188Y-140731332D01*
X146964637Y-140854582D01*
X146696848Y-141033513D01*
X146469113Y-141261248D01*
X146290182Y-141529037D01*
X146166932Y-141826588D01*
X146104100Y-142142467D01*
X146104100Y-142464533D01*
X146166932Y-142780412D01*
X146290182Y-143077963D01*
X146469113Y-143345752D01*
X146696848Y-143573487D01*
X146848923Y-143675100D01*
X146696848Y-143776713D01*
X146469113Y-144004448D01*
X146290182Y-144272237D01*
X146166932Y-144569788D01*
X146104100Y-144885667D01*
X146104100Y-145207733D01*
X146166932Y-145523612D01*
X146220444Y-145652800D01*
X140847969Y-145652800D01*
X140822168Y-145523088D01*
X140698918Y-145225537D01*
X140519987Y-144957748D01*
X140292252Y-144730013D01*
X140024463Y-144551082D01*
X139726912Y-144427832D01*
X139411033Y-144365000D01*
X139088967Y-144365000D01*
X138773088Y-144427832D01*
X138475537Y-144551082D01*
X138207748Y-144730013D01*
X137980013Y-144957748D01*
X137801082Y-145225537D01*
X137677832Y-145523088D01*
X137615000Y-145838967D01*
X137615000Y-146161033D01*
X137677832Y-146476912D01*
X137801082Y-146774463D01*
X137811463Y-146790000D01*
X136183889Y-146790000D01*
X136290704Y-146570429D01*
X136372384Y-146258892D01*
X136391718Y-145937405D01*
X136347961Y-145618325D01*
X136242795Y-145313912D01*
X136149814Y-145139956D01*
X135885413Y-145044192D01*
X134929605Y-146000000D01*
X134943748Y-146014143D01*
X134764143Y-146193748D01*
X134750000Y-146179605D01*
X134735858Y-146193748D01*
X134556253Y-146014143D01*
X134570395Y-146000000D01*
X134556253Y-145985858D01*
X134735858Y-145806253D01*
X134750000Y-145820395D01*
X135705808Y-144864587D01*
X135610044Y-144600186D01*
X135320429Y-144459296D01*
X135008892Y-144377616D01*
X134687405Y-144358282D01*
X134368325Y-144402039D01*
X134063912Y-144507205D01*
X133910000Y-144589472D01*
X133910000Y-140909565D01*
X134179571Y-141040704D01*
X134491108Y-141122384D01*
X134812595Y-141141718D01*
X135131675Y-141097961D01*
X135436088Y-140992795D01*
X135610044Y-140899814D01*
X135705808Y-140635413D01*
X134750000Y-139679605D01*
X134735858Y-139693748D01*
X134556253Y-139514143D01*
X134570395Y-139500000D01*
X134929605Y-139500000D01*
X135885413Y-140455808D01*
X136149814Y-140360044D01*
X136290704Y-140070429D01*
X136372384Y-139758892D01*
X136391718Y-139437405D01*
X136378219Y-139338967D01*
X137615000Y-139338967D01*
X137615000Y-139661033D01*
X137677832Y-139976912D01*
X137801082Y-140274463D01*
X137980013Y-140542252D01*
X138207748Y-140769987D01*
X138475537Y-140948918D01*
X138773088Y-141072168D01*
X139088967Y-141135000D01*
X139411033Y-141135000D01*
X139726912Y-141072168D01*
X140024463Y-140948918D01*
X140292252Y-140769987D01*
X140519987Y-140542252D01*
X140698918Y-140274463D01*
X140822168Y-139976912D01*
X140885000Y-139661033D01*
X140885000Y-139338967D01*
X140822168Y-139023088D01*
X140698918Y-138725537D01*
X140519987Y-138457748D01*
X140292252Y-138230013D01*
X140024463Y-138051082D01*
X139726912Y-137927832D01*
X139411033Y-137865000D01*
X139088967Y-137865000D01*
X138773088Y-137927832D01*
X138475537Y-138051082D01*
X138207748Y-138230013D01*
X137980013Y-138457748D01*
X137801082Y-138725537D01*
X137677832Y-139023088D01*
X137615000Y-139338967D01*
X136378219Y-139338967D01*
X136347961Y-139118325D01*
X136242795Y-138813912D01*
X136149814Y-138639956D01*
X135885413Y-138544192D01*
X134929605Y-139500000D01*
X134570395Y-139500000D01*
X134556253Y-139485858D01*
X134735858Y-139306253D01*
X134750000Y-139320395D01*
X135705808Y-138364587D01*
X135610044Y-138100186D01*
X135320429Y-137959296D01*
X135008892Y-137877616D01*
X134687405Y-137858282D01*
X134368325Y-137902039D01*
X134063912Y-138007205D01*
X133910000Y-138089472D01*
X133910000Y-136642949D01*
X133999519Y-136810427D01*
X134191339Y-137044161D01*
X134425073Y-137235981D01*
X134691739Y-137378517D01*
X134981087Y-137466290D01*
X135206592Y-137488500D01*
X135557408Y-137488500D01*
X135782913Y-137466290D01*
X136072261Y-137378517D01*
X136338927Y-137235981D01*
X136572661Y-137044161D01*
X136764481Y-136810427D01*
X136907017Y-136543761D01*
X136994790Y-136254413D01*
X137024427Y-135953500D01*
X136994790Y-135652587D01*
X136907017Y-135363239D01*
X136764481Y-135096573D01*
X136572661Y-134862839D01*
X136354135Y-134683500D01*
X136572661Y-134504161D01*
X136764481Y-134270427D01*
X136907017Y-134003761D01*
X136994790Y-133714413D01*
X137024427Y-133413500D01*
X136994790Y-133112587D01*
X136931822Y-132905010D01*
X141452178Y-132905010D01*
X141389210Y-133112587D01*
G37*
X141389210Y-133112587D02*
X141359573Y-133413500D01*
X141389210Y-133714413D01*
X141476983Y-134003761D01*
X141619519Y-134270427D01*
X141774280Y-134459005D01*
X141757820Y-134463998D01*
X141647506Y-134522963D01*
X141550815Y-134602315D01*
X141471463Y-134699006D01*
X141412498Y-134809320D01*
X141376188Y-134929018D01*
X141363928Y-135053500D01*
X141363928Y-136853500D01*
X141376188Y-136977982D01*
X141412498Y-137097680D01*
X141471463Y-137207994D01*
X141550815Y-137304685D01*
X141647506Y-137384037D01*
X141757820Y-137443002D01*
X141877518Y-137479312D01*
X142002000Y-137491572D01*
X144002000Y-137491572D01*
X144126482Y-137479312D01*
X144246180Y-137443002D01*
X144356494Y-137384037D01*
X144453185Y-137304685D01*
X144532537Y-137207994D01*
X144591502Y-137097680D01*
X144627812Y-136977982D01*
X144640072Y-136853500D01*
X144640072Y-135053500D01*
X144627812Y-134929018D01*
X144591502Y-134809320D01*
X144532537Y-134699006D01*
X144453185Y-134602315D01*
X144356494Y-134522963D01*
X144246180Y-134463998D01*
X144229720Y-134459005D01*
X144384481Y-134270427D01*
X144411435Y-134220000D01*
X146164264Y-134220000D01*
X146104100Y-134522467D01*
X146104100Y-134844533D01*
X146166932Y-135160412D01*
X146290182Y-135457963D01*
X146469113Y-135725752D01*
X146696848Y-135953487D01*
X146964637Y-136132418D01*
X147262188Y-136255668D01*
X147578067Y-136318500D01*
X147900133Y-136318500D01*
X148216012Y-136255668D01*
X148513563Y-136132418D01*
X148781352Y-135953487D01*
X149009087Y-135725752D01*
X149188018Y-135457963D01*
X149191316Y-135450000D01*
X150350410Y-135450000D01*
X150386972Y-135486562D01*
X150540111Y-135588886D01*
X150710271Y-135659368D01*
X150890911Y-135695300D01*
X151075089Y-135695300D01*
X151255729Y-135659368D01*
X151425889Y-135588886D01*
X151579028Y-135486562D01*
X151709262Y-135356328D01*
X151811586Y-135203189D01*
X151882068Y-135033029D01*
X151918000Y-134852389D01*
X151918000Y-134668211D01*
X151882068Y-134487571D01*
X151811586Y-134317411D01*
X151709262Y-134164272D01*
X151579028Y-134034038D01*
X151575680Y-134031801D01*
X174172399Y-134031801D01*
X163911001Y-144293200D01*
X149196701Y-144293200D01*
X149188018Y-144272237D01*
X149009087Y-144004448D01*
X148781352Y-143776713D01*
X148629277Y-143675100D01*
X148781352Y-143573487D01*
X149009087Y-143345752D01*
X149188018Y-143077963D01*
X149311268Y-142780412D01*
X149374100Y-142464533D01*
X149374100Y-142142467D01*
X149311268Y-141826588D01*
X149188018Y-141529037D01*
X149009087Y-141261248D01*
X148781352Y-141033513D01*
X148513563Y-140854582D01*
X148216012Y-140731332D01*
X147900133Y-140668500D01*
X147578067Y-140668500D01*
X147262188Y-140731332D01*
X146964637Y-140854582D01*
X146696848Y-141033513D01*
X146469113Y-141261248D01*
X146290182Y-141529037D01*
X146166932Y-141826588D01*
X146104100Y-142142467D01*
X146104100Y-142464533D01*
X146166932Y-142780412D01*
X146290182Y-143077963D01*
X146469113Y-143345752D01*
X146696848Y-143573487D01*
X146848923Y-143675100D01*
X146696848Y-143776713D01*
X146469113Y-144004448D01*
X146290182Y-144272237D01*
X146166932Y-144569788D01*
X146104100Y-144885667D01*
X146104100Y-145207733D01*
X146166932Y-145523612D01*
X146220444Y-145652800D01*
X140847969Y-145652800D01*
X140822168Y-145523088D01*
X140698918Y-145225537D01*
X140519987Y-144957748D01*
X140292252Y-144730013D01*
X140024463Y-144551082D01*
X139726912Y-144427832D01*
X139411033Y-144365000D01*
X139088967Y-144365000D01*
X138773088Y-144427832D01*
X138475537Y-144551082D01*
X138207748Y-144730013D01*
X137980013Y-144957748D01*
X137801082Y-145225537D01*
X137677832Y-145523088D01*
X137615000Y-145838967D01*
X137615000Y-146161033D01*
X137677832Y-146476912D01*
X137801082Y-146774463D01*
X137811463Y-146790000D01*
X136183889Y-146790000D01*
X136290704Y-146570429D01*
X136372384Y-146258892D01*
X136391718Y-145937405D01*
X136347961Y-145618325D01*
X136242795Y-145313912D01*
X136149814Y-145139956D01*
X135885413Y-145044192D01*
X134929605Y-146000000D01*
X134943748Y-146014143D01*
X134764143Y-146193748D01*
X134750000Y-146179605D01*
X134735858Y-146193748D01*
X134556253Y-146014143D01*
X134570395Y-146000000D01*
X134556253Y-145985858D01*
X134735858Y-145806253D01*
X134750000Y-145820395D01*
X135705808Y-144864587D01*
X135610044Y-144600186D01*
X135320429Y-144459296D01*
X135008892Y-144377616D01*
X134687405Y-144358282D01*
X134368325Y-144402039D01*
X134063912Y-144507205D01*
X133910000Y-144589472D01*
X133910000Y-140909565D01*
X134179571Y-141040704D01*
X134491108Y-141122384D01*
X134812595Y-141141718D01*
X135131675Y-141097961D01*
X135436088Y-140992795D01*
X135610044Y-140899814D01*
X135705808Y-140635413D01*
X134750000Y-139679605D01*
X134735858Y-139693748D01*
X134556253Y-139514143D01*
X134570395Y-139500000D01*
X134929605Y-139500000D01*
X135885413Y-140455808D01*
X136149814Y-140360044D01*
X136290704Y-140070429D01*
X136372384Y-139758892D01*
X136391718Y-139437405D01*
X136378219Y-139338967D01*
X137615000Y-139338967D01*
X137615000Y-139661033D01*
X137677832Y-139976912D01*
X137801082Y-140274463D01*
X137980013Y-140542252D01*
X138207748Y-140769987D01*
X138475537Y-140948918D01*
X138773088Y-141072168D01*
X139088967Y-141135000D01*
X139411033Y-141135000D01*
X139726912Y-141072168D01*
X140024463Y-140948918D01*
X140292252Y-140769987D01*
X140519987Y-140542252D01*
X140698918Y-140274463D01*
X140822168Y-139976912D01*
X140885000Y-139661033D01*
X140885000Y-139338967D01*
X140822168Y-139023088D01*
X140698918Y-138725537D01*
X140519987Y-138457748D01*
X140292252Y-138230013D01*
X140024463Y-138051082D01*
X139726912Y-137927832D01*
X139411033Y-137865000D01*
X139088967Y-137865000D01*
X138773088Y-137927832D01*
X138475537Y-138051082D01*
X138207748Y-138230013D01*
X137980013Y-138457748D01*
X137801082Y-138725537D01*
X137677832Y-139023088D01*
X137615000Y-139338967D01*
X136378219Y-139338967D01*
X136347961Y-139118325D01*
X136242795Y-138813912D01*
X136149814Y-138639956D01*
X135885413Y-138544192D01*
X134929605Y-139500000D01*
X134570395Y-139500000D01*
X134556253Y-139485858D01*
X134735858Y-139306253D01*
X134750000Y-139320395D01*
X135705808Y-138364587D01*
X135610044Y-138100186D01*
X135320429Y-137959296D01*
X135008892Y-137877616D01*
X134687405Y-137858282D01*
X134368325Y-137902039D01*
X134063912Y-138007205D01*
X133910000Y-138089472D01*
X133910000Y-136642949D01*
X133999519Y-136810427D01*
X134191339Y-137044161D01*
X134425073Y-137235981D01*
X134691739Y-137378517D01*
X134981087Y-137466290D01*
X135206592Y-137488500D01*
X135557408Y-137488500D01*
X135782913Y-137466290D01*
X136072261Y-137378517D01*
X136338927Y-137235981D01*
X136572661Y-137044161D01*
X136764481Y-136810427D01*
X136907017Y-136543761D01*
X136994790Y-136254413D01*
X137024427Y-135953500D01*
X136994790Y-135652587D01*
X136907017Y-135363239D01*
X136764481Y-135096573D01*
X136572661Y-134862839D01*
X136354135Y-134683500D01*
X136572661Y-134504161D01*
X136764481Y-134270427D01*
X136907017Y-134003761D01*
X136994790Y-133714413D01*
X137024427Y-133413500D01*
X136994790Y-133112587D01*
X136931822Y-132905010D01*
X141452178Y-132905010D01*
X141389210Y-133112587D01*
G36*
X182490000Y-138036807D02*
G01*
X182226912Y-137927832D01*
X181911033Y-137865000D01*
X181588967Y-137865000D01*
X181273088Y-137927832D01*
X180975537Y-138051082D01*
X180707748Y-138230013D01*
X180480013Y-138457748D01*
X180301082Y-138725537D01*
X180177832Y-139023088D01*
X180115000Y-139338967D01*
X180115000Y-139661033D01*
X180177832Y-139976912D01*
X180183823Y-139991375D01*
X179144498Y-141030701D01*
X179115500Y-141054499D01*
X179091702Y-141083497D01*
X179091701Y-141083498D01*
X179020526Y-141170224D01*
X178949954Y-141302254D01*
X178906498Y-141445515D01*
X178891824Y-141594500D01*
X178895501Y-141631832D01*
X178895500Y-143145500D01*
X168286325Y-143145500D01*
X168249000Y-143141824D01*
X168211675Y-143145500D01*
X168211667Y-143145500D01*
X168100014Y-143156497D01*
X167956753Y-143199954D01*
X167824724Y-143270526D01*
X167708999Y-143365499D01*
X167685201Y-143394497D01*
X165426899Y-145652800D01*
X164693181Y-145652800D01*
X164765803Y-145593201D01*
X164789606Y-145564197D01*
X169718390Y-140635413D01*
X176294192Y-140635413D01*
X176389956Y-140899814D01*
X176679571Y-141040704D01*
X176991108Y-141122384D01*
X177312595Y-141141718D01*
X177631675Y-141097961D01*
X177936088Y-140992795D01*
X178110044Y-140899814D01*
X178205808Y-140635413D01*
X177250000Y-139679605D01*
X176294192Y-140635413D01*
X169718390Y-140635413D01*
X170791208Y-139562595D01*
X175608282Y-139562595D01*
X175652039Y-139881675D01*
X175757205Y-140186088D01*
X175850186Y-140360044D01*
X176114587Y-140455808D01*
X177070395Y-139500000D01*
X177429605Y-139500000D01*
X178385413Y-140455808D01*
X178649814Y-140360044D01*
X178790704Y-140070429D01*
X178872384Y-139758892D01*
X178891718Y-139437405D01*
X178847961Y-139118325D01*
X178742795Y-138813912D01*
X178649814Y-138639956D01*
X178385413Y-138544192D01*
X177429605Y-139500000D01*
X177070395Y-139500000D01*
X176114587Y-138544192D01*
X175850186Y-138639956D01*
X175709296Y-138929571D01*
X175627616Y-139241108D01*
X175608282Y-139562595D01*
X170791208Y-139562595D01*
X171989216Y-138364587D01*
X176294192Y-138364587D01*
X177250000Y-139320395D01*
X178205808Y-138364587D01*
X178110044Y-138100186D01*
X177820429Y-137959296D01*
X177508892Y-137877616D01*
X177187405Y-137858282D01*
X176868325Y-137902039D01*
X176563912Y-138007205D01*
X176389956Y-138100186D01*
X176294192Y-138364587D01*
X171989216Y-138364587D01*
X182490000Y-127863804D01*
X182490000Y-138036807D01*
G37*
X182490000Y-138036807D02*
X182226912Y-137927832D01*
X181911033Y-137865000D01*
X181588967Y-137865000D01*
X181273088Y-137927832D01*
X180975537Y-138051082D01*
X180707748Y-138230013D01*
X180480013Y-138457748D01*
X180301082Y-138725537D01*
X180177832Y-139023088D01*
X180115000Y-139338967D01*
X180115000Y-139661033D01*
X180177832Y-139976912D01*
X180183823Y-139991375D01*
X179144498Y-141030701D01*
X179115500Y-141054499D01*
X179091702Y-141083497D01*
X179091701Y-141083498D01*
X179020526Y-141170224D01*
X178949954Y-141302254D01*
X178906498Y-141445515D01*
X178891824Y-141594500D01*
X178895501Y-141631832D01*
X178895500Y-143145500D01*
X168286325Y-143145500D01*
X168249000Y-143141824D01*
X168211675Y-143145500D01*
X168211667Y-143145500D01*
X168100014Y-143156497D01*
X167956753Y-143199954D01*
X167824724Y-143270526D01*
X167708999Y-143365499D01*
X167685201Y-143394497D01*
X165426899Y-145652800D01*
X164693181Y-145652800D01*
X164765803Y-145593201D01*
X164789606Y-145564197D01*
X169718390Y-140635413D01*
X176294192Y-140635413D01*
X176389956Y-140899814D01*
X176679571Y-141040704D01*
X176991108Y-141122384D01*
X177312595Y-141141718D01*
X177631675Y-141097961D01*
X177936088Y-140992795D01*
X178110044Y-140899814D01*
X178205808Y-140635413D01*
X177250000Y-139679605D01*
X176294192Y-140635413D01*
X169718390Y-140635413D01*
X170791208Y-139562595D01*
X175608282Y-139562595D01*
X175652039Y-139881675D01*
X175757205Y-140186088D01*
X175850186Y-140360044D01*
X176114587Y-140455808D01*
X177070395Y-139500000D01*
X177429605Y-139500000D01*
X178385413Y-140455808D01*
X178649814Y-140360044D01*
X178790704Y-140070429D01*
X178872384Y-139758892D01*
X178891718Y-139437405D01*
X178847961Y-139118325D01*
X178742795Y-138813912D01*
X178649814Y-138639956D01*
X178385413Y-138544192D01*
X177429605Y-139500000D01*
X177070395Y-139500000D01*
X176114587Y-138544192D01*
X175850186Y-138639956D01*
X175709296Y-138929571D01*
X175627616Y-139241108D01*
X175608282Y-139562595D01*
X170791208Y-139562595D01*
X171989216Y-138364587D01*
X176294192Y-138364587D01*
X177250000Y-139320395D01*
X178205808Y-138364587D01*
X178110044Y-138100186D01*
X177820429Y-137959296D01*
X177508892Y-137877616D01*
X177187405Y-137858282D01*
X176868325Y-137902039D01*
X176563912Y-138007205D01*
X176389956Y-138100186D01*
X176294192Y-138364587D01*
X171989216Y-138364587D01*
X182490000Y-127863804D01*
X182490000Y-138036807D01*
G36*
X137801082Y-88225537D02*
G01*
X137677832Y-88523088D01*
X137615000Y-88838967D01*
X137615000Y-89161033D01*
X137677832Y-89476912D01*
X137801082Y-89774463D01*
X137980013Y-90042252D01*
X138207748Y-90269987D01*
X138475537Y-90448918D01*
X138773088Y-90572168D01*
X139088967Y-90635000D01*
X139411033Y-90635000D01*
X139726912Y-90572168D01*
X139741375Y-90566177D01*
X139815401Y-90640203D01*
X139815400Y-93859798D01*
X139741375Y-93933823D01*
X139726912Y-93927832D01*
X139411033Y-93865000D01*
X139088967Y-93865000D01*
X138773088Y-93927832D01*
X138475537Y-94051082D01*
X138207748Y-94230013D01*
X137980013Y-94457748D01*
X137801082Y-94725537D01*
X137677832Y-95023088D01*
X137615000Y-95338967D01*
X137615000Y-95661033D01*
X137677832Y-95976912D01*
X137801082Y-96274463D01*
X137980013Y-96542252D01*
X138207748Y-96769987D01*
X138475537Y-96948918D01*
X138773088Y-97072168D01*
X139088967Y-97135000D01*
X139411033Y-97135000D01*
X139726912Y-97072168D01*
X140024463Y-96948918D01*
X140292252Y-96769987D01*
X140519987Y-96542252D01*
X140698918Y-96274463D01*
X140822168Y-95976912D01*
X140885000Y-95661033D01*
X140885000Y-95338967D01*
X140822168Y-95023088D01*
X140816177Y-95008625D01*
X140890202Y-94934600D01*
X175707977Y-94934600D01*
X175627616Y-95241108D01*
X175608282Y-95562595D01*
X175652039Y-95881675D01*
X175757205Y-96186088D01*
X175850186Y-96360044D01*
X176114587Y-96455808D01*
X177070395Y-95500000D01*
X177056253Y-95485858D01*
X177235858Y-95306253D01*
X177250000Y-95320395D01*
X177264143Y-95306253D01*
X177443748Y-95485858D01*
X177429605Y-95500000D01*
X178385413Y-96455808D01*
X178649814Y-96360044D01*
X178790704Y-96070429D01*
X178872384Y-95758892D01*
X178891718Y-95437405D01*
X178847961Y-95118325D01*
X178784489Y-94934600D01*
X180109799Y-94934600D01*
X180183823Y-95008624D01*
X180177832Y-95023088D01*
X180115000Y-95338967D01*
X180115000Y-95661033D01*
X180177832Y-95976912D01*
X180301082Y-96274463D01*
X180480013Y-96542252D01*
X180707748Y-96769987D01*
X180975537Y-96948918D01*
X181273088Y-97072168D01*
X181588967Y-97135000D01*
X181911033Y-97135000D01*
X182226912Y-97072168D01*
X182490001Y-96963193D01*
X182490000Y-117915199D01*
X182416210Y-117841408D01*
X182460000Y-117621260D01*
X182460000Y-117328740D01*
X182402932Y-117041842D01*
X182290990Y-116771589D01*
X182128475Y-116528368D01*
X181921632Y-116321525D01*
X181747240Y-116205000D01*
X181921632Y-116088475D01*
X182128475Y-115881632D01*
X182290990Y-115638411D01*
X182402932Y-115368158D01*
X182460000Y-115081260D01*
X182460000Y-114788740D01*
X182402932Y-114501842D01*
X182290990Y-114231589D01*
X182128475Y-113988368D01*
X181921632Y-113781525D01*
X181747240Y-113665000D01*
X181921632Y-113548475D01*
X182128475Y-113341632D01*
X182290990Y-113098411D01*
X182402932Y-112828158D01*
X182460000Y-112541260D01*
X182460000Y-112248740D01*
X182402932Y-111961842D01*
X182290990Y-111691589D01*
X182128475Y-111448368D01*
X181921632Y-111241525D01*
X181747240Y-111125000D01*
X181921632Y-111008475D01*
X182128475Y-110801632D01*
X182290990Y-110558411D01*
X182402932Y-110288158D01*
X182460000Y-110001260D01*
X182460000Y-109708740D01*
X182402932Y-109421842D01*
X182290990Y-109151589D01*
X182128475Y-108908368D01*
X181996620Y-108776513D01*
X182069180Y-108754502D01*
X182179494Y-108695537D01*
X182276185Y-108616185D01*
X182355537Y-108519494D01*
X182414502Y-108409180D01*
X182450812Y-108289482D01*
X182463072Y-108165000D01*
X182463072Y-106465000D01*
X182450812Y-106340518D01*
X182414502Y-106220820D01*
X182355537Y-106110506D01*
X182276185Y-106013815D01*
X182179494Y-105934463D01*
X182069180Y-105875498D01*
X181949482Y-105839188D01*
X181825000Y-105826928D01*
X180125000Y-105826928D01*
X180000518Y-105839188D01*
X179880820Y-105875498D01*
X179770506Y-105934463D01*
X179673815Y-106013815D01*
X179594463Y-106110506D01*
X179535498Y-106220820D01*
X179499188Y-106340518D01*
X179486928Y-106465000D01*
X179486928Y-108165000D01*
X179499188Y-108289482D01*
X179535498Y-108409180D01*
X179594463Y-108519494D01*
X179673815Y-108616185D01*
X179770506Y-108695537D01*
X179880820Y-108754502D01*
X179953380Y-108776513D01*
X179821525Y-108908368D01*
X179659010Y-109151589D01*
X179547068Y-109421842D01*
X179490000Y-109708740D01*
X179490000Y-109835198D01*
X166290215Y-96635413D01*
X176294192Y-96635413D01*
X176389956Y-96899814D01*
X176679571Y-97040704D01*
X176991108Y-97122384D01*
X177312595Y-97141718D01*
X177631675Y-97097961D01*
X177936088Y-96992795D01*
X178110044Y-96899814D01*
X178205808Y-96635413D01*
X177250000Y-95679605D01*
X176294192Y-96635413D01*
X166290215Y-96635413D01*
X165793804Y-96139003D01*
X165770001Y-96109999D01*
X165654276Y-96015026D01*
X165522247Y-95944454D01*
X165378986Y-95900997D01*
X165267333Y-95890000D01*
X165267322Y-95890000D01*
X165230000Y-95886324D01*
X165192678Y-95890000D01*
X149328634Y-95890000D01*
X149318418Y-95865337D01*
X149139487Y-95597548D01*
X148911752Y-95369813D01*
X148643963Y-95190882D01*
X148346412Y-95067632D01*
X148030533Y-95004800D01*
X147708467Y-95004800D01*
X147392588Y-95067632D01*
X147095037Y-95190882D01*
X146827248Y-95369813D01*
X146599513Y-95597548D01*
X146482000Y-95773419D01*
X146364487Y-95597548D01*
X146136752Y-95369813D01*
X145868963Y-95190882D01*
X145571412Y-95067632D01*
X145255533Y-95004800D01*
X144933467Y-95004800D01*
X144617588Y-95067632D01*
X144320037Y-95190882D01*
X144052248Y-95369813D01*
X143824513Y-95597548D01*
X143645582Y-95865337D01*
X143522332Y-96162888D01*
X143459500Y-96478767D01*
X143459500Y-96800833D01*
X143522332Y-97116712D01*
X143645582Y-97414263D01*
X143824513Y-97682052D01*
X144052248Y-97909787D01*
X144320037Y-98088718D01*
X144617588Y-98211968D01*
X144933467Y-98274800D01*
X145255533Y-98274800D01*
X145571412Y-98211968D01*
X145582552Y-98207354D01*
X150532800Y-103157602D01*
X150556599Y-103186601D01*
X150585597Y-103210399D01*
X150672323Y-103281574D01*
X150804353Y-103352146D01*
X150947614Y-103395603D01*
X151059267Y-103406600D01*
X151059276Y-103406600D01*
X151096599Y-103410276D01*
X151133922Y-103406600D01*
X168371799Y-103406600D01*
X179533790Y-114568592D01*
X179490000Y-114788740D01*
X179490000Y-115081260D01*
X179547068Y-115368158D01*
X179659010Y-115638411D01*
X179821525Y-115881632D01*
X180028368Y-116088475D01*
X180202760Y-116205000D01*
X180028368Y-116321525D01*
X179821525Y-116528368D01*
X179659010Y-116771589D01*
X179547068Y-117041842D01*
X179490000Y-117328740D01*
X179490000Y-117621260D01*
X179547068Y-117908158D01*
X179659010Y-118178411D01*
X179821525Y-118421632D01*
X180028368Y-118628475D01*
X180202760Y-118745000D01*
X180028368Y-118861525D01*
X179821525Y-119068368D01*
X179696822Y-119255000D01*
X176395825Y-119255000D01*
X176358500Y-119251324D01*
X176321175Y-119255000D01*
X176321167Y-119255000D01*
X176209514Y-119265997D01*
X176066253Y-119309454D01*
X175934224Y-119380026D01*
X175818499Y-119474999D01*
X175794701Y-119503997D01*
X173706931Y-121591768D01*
X173585120Y-121409465D01*
X173390535Y-121214880D01*
X173161727Y-121061995D01*
X172907490Y-120956686D01*
X172637592Y-120903000D01*
X172362408Y-120903000D01*
X172208430Y-120933628D01*
X159663804Y-108389003D01*
X159640001Y-108359999D01*
X159524276Y-108265026D01*
X159392247Y-108194454D01*
X159248986Y-108150997D01*
X159137333Y-108140000D01*
X159137322Y-108140000D01*
X159100000Y-108136324D01*
X159062678Y-108140000D01*
X155554242Y-108140000D01*
X155496981Y-108032873D01*
X155305161Y-107799139D01*
X155086635Y-107619800D01*
X155305161Y-107440461D01*
X155496981Y-107206727D01*
X155639517Y-106940061D01*
X155727290Y-106650713D01*
X155756927Y-106349800D01*
X155727290Y-106048887D01*
X155639517Y-105759539D01*
X155496981Y-105492873D01*
X155305161Y-105259139D01*
X155071427Y-105067319D01*
X154804761Y-104924783D01*
X154515413Y-104837010D01*
X154289908Y-104814800D01*
X153939092Y-104814800D01*
X153713587Y-104837010D01*
X153424239Y-104924783D01*
X153157573Y-105067319D01*
X152923839Y-105259139D01*
X152732019Y-105492873D01*
X152589483Y-105759539D01*
X152501710Y-106048887D01*
X152472073Y-106349800D01*
X152501710Y-106650713D01*
X152589483Y-106940061D01*
X152732019Y-107206727D01*
X152923839Y-107440461D01*
X153142365Y-107619800D01*
X152923839Y-107799139D01*
X152732019Y-108032873D01*
X152589483Y-108299539D01*
X152501710Y-108588887D01*
X152472073Y-108889800D01*
X152501710Y-109190713D01*
X152589483Y-109480061D01*
X152732019Y-109746727D01*
X152923839Y-109980461D01*
X153142365Y-110159800D01*
X152923839Y-110339139D01*
X152732019Y-110572873D01*
X152589483Y-110839539D01*
X152501710Y-111128887D01*
X152472073Y-111429800D01*
X152501710Y-111730713D01*
X152589483Y-112020061D01*
X152732019Y-112286727D01*
X152923839Y-112520461D01*
X153142365Y-112699800D01*
X152923839Y-112879139D01*
X152732019Y-113112873D01*
X152589483Y-113379539D01*
X152501710Y-113668887D01*
X152472073Y-113969800D01*
X152501710Y-114270713D01*
X152589483Y-114560061D01*
X152732019Y-114826727D01*
X152923839Y-115060461D01*
X153142365Y-115239800D01*
X152923839Y-115419139D01*
X152732019Y-115652873D01*
X152589483Y-115919539D01*
X152501710Y-116208887D01*
X152472073Y-116509800D01*
X152501710Y-116810713D01*
X152589483Y-117100061D01*
X152732019Y-117366727D01*
X152923839Y-117600461D01*
X153150879Y-117786788D01*
X152953471Y-117941762D01*
X152757691Y-118170049D01*
X152610209Y-118432144D01*
X152523464Y-118685060D01*
X152644122Y-118922800D01*
X153987500Y-118922800D01*
X153987500Y-118902800D01*
X154241500Y-118902800D01*
X154241500Y-118922800D01*
X155584878Y-118922800D01*
X155705536Y-118685060D01*
X155618791Y-118432144D01*
X155471309Y-118170049D01*
X155275529Y-117941762D01*
X155078121Y-117786788D01*
X155305161Y-117600461D01*
X155496981Y-117366727D01*
X155543338Y-117280000D01*
X164794499Y-117280000D01*
X171425201Y-123910703D01*
X171448999Y-123939701D01*
X171477997Y-123963499D01*
X171564723Y-124034674D01*
X171696753Y-124105246D01*
X171840014Y-124148703D01*
X171951667Y-124159700D01*
X171951676Y-124159700D01*
X171988999Y-124163376D01*
X172026322Y-124159700D01*
X172936478Y-124159700D01*
X172973800Y-124163376D01*
X173011122Y-124159700D01*
X173011133Y-124159700D01*
X173122786Y-124148703D01*
X173266047Y-124105246D01*
X173398076Y-124034674D01*
X173513801Y-123939701D01*
X173537604Y-123910697D01*
X176673302Y-120775000D01*
X179696822Y-120775000D01*
X179821525Y-120961632D01*
X180028368Y-121168475D01*
X180215000Y-121293179D01*
X180215001Y-122292546D01*
X180155820Y-122310498D01*
X180045506Y-122369463D01*
X179948815Y-122448815D01*
X179869463Y-122545506D01*
X179810498Y-122655820D01*
X179774188Y-122775518D01*
X179761928Y-122900000D01*
X179761928Y-124600000D01*
X179774188Y-124724482D01*
X179810498Y-124844180D01*
X179869463Y-124954494D01*
X179948815Y-125051185D01*
X180045506Y-125130537D01*
X180155820Y-125189502D01*
X180228380Y-125211513D01*
X180096525Y-125343368D01*
X179934010Y-125586589D01*
X179822068Y-125856842D01*
X179765000Y-126143740D01*
X179765000Y-126436260D01*
X179808790Y-126656408D01*
X179387355Y-127077843D01*
X179435000Y-126838318D01*
X179435000Y-126161682D01*
X179302994Y-125498048D01*
X179044057Y-124872918D01*
X178668138Y-124310315D01*
X178189685Y-123831862D01*
X177627082Y-123455943D01*
X177001952Y-123197006D01*
X176338318Y-123065000D01*
X175661682Y-123065000D01*
X174998048Y-123197006D01*
X174372918Y-123455943D01*
X173810315Y-123831862D01*
X173331862Y-124310315D01*
X172955943Y-124872918D01*
X172697006Y-125498048D01*
X172565000Y-126161682D01*
X172565000Y-126838318D01*
X172697006Y-127501952D01*
X172955943Y-128127082D01*
X173331862Y-128689685D01*
X173810315Y-129168138D01*
X174372918Y-129544057D01*
X174998048Y-129802994D01*
X175661682Y-129935000D01*
X176338318Y-129935000D01*
X176577844Y-129887355D01*
X173953398Y-132511801D01*
X172047859Y-132511801D01*
X172048018Y-132511563D01*
X172171268Y-132214012D01*
X172234100Y-131898133D01*
X172234100Y-131576067D01*
X172171268Y-131260188D01*
X172048018Y-130962637D01*
X171869087Y-130694848D01*
X171641352Y-130467113D01*
X171373563Y-130288182D01*
X171076012Y-130164932D01*
X170760133Y-130102100D01*
X170438067Y-130102100D01*
X170122188Y-130164932D01*
X169824637Y-130288182D01*
X169556848Y-130467113D01*
X169329113Y-130694848D01*
X169150182Y-130962637D01*
X169026932Y-131260188D01*
X168964100Y-131576067D01*
X168964100Y-131898133D01*
X169026932Y-132214012D01*
X169150182Y-132511563D01*
X169150341Y-132511801D01*
X149279283Y-132511801D01*
X149279804Y-132510729D01*
X149361484Y-132199192D01*
X149380818Y-131877705D01*
X149337061Y-131558625D01*
X149231895Y-131254212D01*
X149138914Y-131080256D01*
X148874513Y-130984492D01*
X147918705Y-131940300D01*
X147932848Y-131954443D01*
X147753243Y-132134048D01*
X147739100Y-132119905D01*
X147724958Y-132134048D01*
X147545353Y-131954443D01*
X147559495Y-131940300D01*
X146603687Y-130984492D01*
X146339286Y-131080256D01*
X146198396Y-131369871D01*
X146116716Y-131681408D01*
X146097382Y-132002895D01*
X146141139Y-132321975D01*
X146246305Y-132626388D01*
X146285651Y-132700000D01*
X144461144Y-132700000D01*
X144384481Y-132556573D01*
X144333173Y-132494053D01*
X146022339Y-130804887D01*
X146783292Y-130804887D01*
X147739100Y-131760695D01*
X148694908Y-130804887D01*
X148599144Y-130540486D01*
X148309529Y-130399596D01*
X147997992Y-130317916D01*
X147676505Y-130298582D01*
X147357425Y-130342339D01*
X147053012Y-130447505D01*
X146879056Y-130540486D01*
X146783292Y-130804887D01*
X146022339Y-130804887D01*
X146561004Y-130266223D01*
X146590001Y-130242426D01*
X146684974Y-130126701D01*
X146755546Y-129994672D01*
X146799003Y-129851411D01*
X146810000Y-129739758D01*
X146810000Y-129739748D01*
X146813676Y-129702425D01*
X146810000Y-129665102D01*
X146810000Y-126161682D01*
X163815000Y-126161682D01*
X163815000Y-126838318D01*
X163947006Y-127501952D01*
X164205943Y-128127082D01*
X164581862Y-128689685D01*
X165060315Y-129168138D01*
X165622918Y-129544057D01*
X166248048Y-129802994D01*
X166911682Y-129935000D01*
X167588318Y-129935000D01*
X168251952Y-129802994D01*
X168877082Y-129544057D01*
X169439685Y-129168138D01*
X169918138Y-128689685D01*
X170294057Y-128127082D01*
X170552994Y-127501952D01*
X170685000Y-126838318D01*
X170685000Y-126161682D01*
X170552994Y-125498048D01*
X170294057Y-124872918D01*
X169918138Y-124310315D01*
X169439685Y-123831862D01*
X168877082Y-123455943D01*
X168251952Y-123197006D01*
X167588318Y-123065000D01*
X166911682Y-123065000D01*
X166248048Y-123197006D01*
X165622918Y-123455943D01*
X165060315Y-123831862D01*
X164581862Y-124310315D01*
X164205943Y-124872918D01*
X163947006Y-125498048D01*
X163815000Y-126161682D01*
X146810000Y-126161682D01*
X146810000Y-124900000D01*
X152685662Y-124900000D01*
X152732019Y-124986727D01*
X152923839Y-125220461D01*
X153157573Y-125412281D01*
X153424239Y-125554817D01*
X153713587Y-125642590D01*
X153939092Y-125664800D01*
X154289908Y-125664800D01*
X154515413Y-125642590D01*
X154804761Y-125554817D01*
X155071427Y-125412281D01*
X155305161Y-125220461D01*
X155496981Y-124986727D01*
X155639517Y-124720061D01*
X155727290Y-124430713D01*
X155756927Y-124129800D01*
X155727290Y-123828887D01*
X155639517Y-123539539D01*
X155496981Y-123272873D01*
X155305161Y-123039139D01*
X155086635Y-122859800D01*
X155305161Y-122680461D01*
X155496981Y-122446727D01*
X155639517Y-122180061D01*
X155644871Y-122162408D01*
X159103000Y-122162408D01*
X159103000Y-122437592D01*
X159156686Y-122707490D01*
X159261995Y-122961727D01*
X159414880Y-123190535D01*
X159609465Y-123385120D01*
X159838273Y-123538005D01*
X160092510Y-123643314D01*
X160362408Y-123697000D01*
X160637592Y-123697000D01*
X160907490Y-123643314D01*
X161161727Y-123538005D01*
X161390535Y-123385120D01*
X161585120Y-123190535D01*
X161738005Y-122961727D01*
X161843314Y-122707490D01*
X161897000Y-122437592D01*
X161897000Y-122162408D01*
X161843314Y-121892510D01*
X161738005Y-121638273D01*
X161585120Y-121409465D01*
X161390535Y-121214880D01*
X161161727Y-121061995D01*
X160907490Y-120956686D01*
X160637592Y-120903000D01*
X160362408Y-120903000D01*
X160092510Y-120956686D01*
X159838273Y-121061995D01*
X159609465Y-121214880D01*
X159414880Y-121409465D01*
X159261995Y-121638273D01*
X159156686Y-121892510D01*
X159103000Y-122162408D01*
X155644871Y-122162408D01*
X155727290Y-121890713D01*
X155756927Y-121589800D01*
X155727290Y-121288887D01*
X155639517Y-120999539D01*
X155496981Y-120732873D01*
X155305161Y-120499139D01*
X155078121Y-120312812D01*
X155275529Y-120157838D01*
X155471309Y-119929551D01*
X155618791Y-119667456D01*
X155705536Y-119414540D01*
X155584878Y-119176800D01*
X154241500Y-119176800D01*
X154241500Y-119196800D01*
X153987500Y-119196800D01*
X153987500Y-119176800D01*
X152644122Y-119176800D01*
X152523464Y-119414540D01*
X152610209Y-119667456D01*
X152757691Y-119929551D01*
X152953471Y-120157838D01*
X153150879Y-120312812D01*
X152923839Y-120499139D01*
X152732019Y-120732873D01*
X152674758Y-120840000D01*
X145137322Y-120840000D01*
X145099999Y-120836324D01*
X145062676Y-120840000D01*
X145062667Y-120840000D01*
X144951014Y-120850997D01*
X144807753Y-120894454D01*
X144675724Y-120965026D01*
X144559999Y-121059999D01*
X144536196Y-121089003D01*
X144268998Y-121356201D01*
X144240000Y-121379999D01*
X144216202Y-121408997D01*
X144216201Y-121408998D01*
X144145026Y-121495724D01*
X144074454Y-121627754D01*
X144030998Y-121771015D01*
X144016324Y-121920000D01*
X144020001Y-121957332D01*
X144020000Y-127113178D01*
X143926474Y-127039756D01*
X143658235Y-126903768D01*
X143368620Y-126822724D01*
X143129000Y-126958366D01*
X143129000Y-128206500D01*
X143149000Y-128206500D01*
X143149000Y-128460500D01*
X143129000Y-128460500D01*
X143129000Y-128480500D01*
X142875000Y-128480500D01*
X142875000Y-128460500D01*
X141531622Y-128460500D01*
X141410964Y-128698240D01*
X141461303Y-128845010D01*
X136930906Y-128845010D01*
X136994790Y-128634413D01*
X137024427Y-128333500D01*
X136994790Y-128032587D01*
X136975429Y-127968760D01*
X141410964Y-127968760D01*
X141531622Y-128206500D01*
X142875000Y-128206500D01*
X142875000Y-126958366D01*
X142635380Y-126822724D01*
X142345765Y-126903768D01*
X142077526Y-127039756D01*
X141840971Y-127225462D01*
X141645191Y-127453749D01*
X141497709Y-127715844D01*
X141410964Y-127968760D01*
X136975429Y-127968760D01*
X136907017Y-127743239D01*
X136764481Y-127476573D01*
X136572661Y-127242839D01*
X136338927Y-127051019D01*
X136072261Y-126908483D01*
X135782913Y-126820710D01*
X135557408Y-126798500D01*
X135206592Y-126798500D01*
X134981087Y-126820710D01*
X134691739Y-126908483D01*
X134425073Y-127051019D01*
X134191339Y-127242839D01*
X133999519Y-127476573D01*
X133910000Y-127644051D01*
X133910000Y-124014788D01*
X133978320Y-124179727D01*
X134135363Y-124414759D01*
X134335241Y-124614637D01*
X134570273Y-124771680D01*
X134831426Y-124879853D01*
X135108665Y-124935000D01*
X135391335Y-124935000D01*
X135668574Y-124879853D01*
X135929727Y-124771680D01*
X136164759Y-124614637D01*
X136364637Y-124414759D01*
X136521680Y-124179727D01*
X136629853Y-123918574D01*
X136685000Y-123641335D01*
X136685000Y-123358665D01*
X136629853Y-123081426D01*
X136521680Y-122820273D01*
X136364637Y-122585241D01*
X136164759Y-122385363D01*
X135929727Y-122228320D01*
X135668574Y-122120147D01*
X135391335Y-122065000D01*
X135108665Y-122065000D01*
X134831426Y-122120147D01*
X134570273Y-122228320D01*
X134335241Y-122385363D01*
X134135363Y-122585241D01*
X133978320Y-122820273D01*
X133910000Y-122985212D01*
X133910000Y-121589800D01*
X137232073Y-121589800D01*
X137261710Y-121890713D01*
X137349483Y-122180061D01*
X137492019Y-122446727D01*
X137683839Y-122680461D01*
X137902365Y-122859800D01*
X137683839Y-123039139D01*
X137492019Y-123272873D01*
X137349483Y-123539539D01*
X137261710Y-123828887D01*
X137232073Y-124129800D01*
X137261710Y-124430713D01*
X137349483Y-124720061D01*
X137492019Y-124986727D01*
X137683839Y-125220461D01*
X137917573Y-125412281D01*
X138184239Y-125554817D01*
X138473587Y-125642590D01*
X138699092Y-125664800D01*
X139049908Y-125664800D01*
X139275413Y-125642590D01*
X139564761Y-125554817D01*
X139831427Y-125412281D01*
X140065161Y-125220461D01*
X140256981Y-124986727D01*
X140399517Y-124720061D01*
X140487290Y-124430713D01*
X140516927Y-124129800D01*
X140487290Y-123828887D01*
X140399517Y-123539539D01*
X140256981Y-123272873D01*
X140065161Y-123039139D01*
X139846635Y-122859800D01*
X140065161Y-122680461D01*
X140256981Y-122446727D01*
X140399517Y-122180061D01*
X140487290Y-121890713D01*
X140516927Y-121589800D01*
X140487290Y-121288887D01*
X140399517Y-120999539D01*
X140256981Y-120732873D01*
X140065161Y-120499139D01*
X139838121Y-120312812D01*
X140035529Y-120157838D01*
X140231309Y-119929551D01*
X140378791Y-119667456D01*
X140465536Y-119414540D01*
X140344878Y-119176800D01*
X139001500Y-119176800D01*
X139001500Y-119196800D01*
X138747500Y-119196800D01*
X138747500Y-119176800D01*
X137404122Y-119176800D01*
X137283464Y-119414540D01*
X137370209Y-119667456D01*
X137517691Y-119929551D01*
X137713471Y-120157838D01*
X137910879Y-120312812D01*
X137683839Y-120499139D01*
X137492019Y-120732873D01*
X137349483Y-120999539D01*
X137261710Y-121288887D01*
X137232073Y-121589800D01*
X133910000Y-121589800D01*
X133910000Y-116373998D01*
X133952930Y-116493881D01*
X134097615Y-116735131D01*
X134286586Y-116943519D01*
X134512580Y-117111037D01*
X134766913Y-117231246D01*
X134900961Y-117271904D01*
X135123000Y-117149915D01*
X135123000Y-116007000D01*
X135377000Y-116007000D01*
X135377000Y-117149915D01*
X135599039Y-117271904D01*
X135733087Y-117231246D01*
X135987420Y-117111037D01*
X136213414Y-116943519D01*
X136402385Y-116735131D01*
X136547070Y-116493881D01*
X136641909Y-116229040D01*
X136520624Y-116007000D01*
X135377000Y-116007000D01*
X135123000Y-116007000D01*
X135103000Y-116007000D01*
X135103000Y-115753000D01*
X135123000Y-115753000D01*
X135123000Y-114610085D01*
X135377000Y-114610085D01*
X135377000Y-115753000D01*
X136520624Y-115753000D01*
X136641909Y-115530960D01*
X136547070Y-115266119D01*
X136402385Y-115024869D01*
X136213414Y-114816481D01*
X135987420Y-114648963D01*
X135733087Y-114528754D01*
X135599039Y-114488096D01*
X135377000Y-114610085D01*
X135123000Y-114610085D01*
X134900961Y-114488096D01*
X134766913Y-114528754D01*
X134512580Y-114648963D01*
X134286586Y-114816481D01*
X134097615Y-115024869D01*
X133952930Y-115266119D01*
X133910000Y-115386002D01*
X133910000Y-108889800D01*
X137232073Y-108889800D01*
X137261710Y-109190713D01*
X137349483Y-109480061D01*
X137492019Y-109746727D01*
X137683839Y-109980461D01*
X137902365Y-110159800D01*
X137683839Y-110339139D01*
X137492019Y-110572873D01*
X137349483Y-110839539D01*
X137261710Y-111128887D01*
X137232073Y-111429800D01*
X137261710Y-111730713D01*
X137349483Y-112020061D01*
X137492019Y-112286727D01*
X137683839Y-112520461D01*
X137902365Y-112699800D01*
X137683839Y-112879139D01*
X137492019Y-113112873D01*
X137349483Y-113379539D01*
X137261710Y-113668887D01*
X137232073Y-113969800D01*
X137261710Y-114270713D01*
X137349483Y-114560061D01*
X137492019Y-114826727D01*
X137683839Y-115060461D01*
X137902365Y-115239800D01*
X137683839Y-115419139D01*
X137492019Y-115652873D01*
X137349483Y-115919539D01*
X137261710Y-116208887D01*
X137232073Y-116509800D01*
X137261710Y-116810713D01*
X137349483Y-117100061D01*
X137492019Y-117366727D01*
X137683839Y-117600461D01*
X137910879Y-117786788D01*
X137713471Y-117941762D01*
X137517691Y-118170049D01*
X137370209Y-118432144D01*
X137283464Y-118685060D01*
X137404122Y-118922800D01*
X138747500Y-118922800D01*
X138747500Y-118902800D01*
X139001500Y-118902800D01*
X139001500Y-118922800D01*
X140344878Y-118922800D01*
X140465536Y-118685060D01*
X140378791Y-118432144D01*
X140231309Y-118170049D01*
X140035529Y-117941762D01*
X139838121Y-117786788D01*
X140065161Y-117600461D01*
X140256981Y-117366727D01*
X140399517Y-117100061D01*
X140487290Y-116810713D01*
X140516927Y-116509800D01*
X140487290Y-116208887D01*
X140399517Y-115919539D01*
X140256981Y-115652873D01*
X140065161Y-115419139D01*
X139846635Y-115239800D01*
X140065161Y-115060461D01*
X140256981Y-114826727D01*
X140399517Y-114560061D01*
X140487290Y-114270713D01*
X140516927Y-113969800D01*
X140487290Y-113668887D01*
X140399517Y-113379539D01*
X140256981Y-113112873D01*
X140065161Y-112879139D01*
X139846635Y-112699800D01*
X140065161Y-112520461D01*
X140256981Y-112286727D01*
X140399517Y-112020061D01*
X140487290Y-111730713D01*
X140516927Y-111429800D01*
X140487290Y-111128887D01*
X140399517Y-110839539D01*
X140256981Y-110572873D01*
X140065161Y-110339139D01*
X139846635Y-110159800D01*
X140065161Y-109980461D01*
X140256981Y-109746727D01*
X140399517Y-109480061D01*
X140487290Y-109190713D01*
X140516927Y-108889800D01*
X140487290Y-108588887D01*
X140399517Y-108299539D01*
X140256981Y-108032873D01*
X140102220Y-107844295D01*
X140118680Y-107839302D01*
X140228994Y-107780337D01*
X140325685Y-107700985D01*
X140405037Y-107604294D01*
X140464002Y-107493980D01*
X140500312Y-107374282D01*
X140512572Y-107249800D01*
X140512572Y-105449800D01*
X140500312Y-105325318D01*
X140464002Y-105205620D01*
X140405037Y-105095306D01*
X140325685Y-104998615D01*
X140228994Y-104919263D01*
X140118680Y-104860298D01*
X139998982Y-104823988D01*
X139874500Y-104811728D01*
X137874500Y-104811728D01*
X137750018Y-104823988D01*
X137630320Y-104860298D01*
X137520006Y-104919263D01*
X137423315Y-104998615D01*
X137343963Y-105095306D01*
X137284998Y-105205620D01*
X137248688Y-105325318D01*
X137236428Y-105449800D01*
X137236428Y-107249800D01*
X137248688Y-107374282D01*
X137284998Y-107493980D01*
X137343963Y-107604294D01*
X137423315Y-107700985D01*
X137520006Y-107780337D01*
X137630320Y-107839302D01*
X137646780Y-107844295D01*
X137492019Y-108032873D01*
X137349483Y-108299539D01*
X137261710Y-108588887D01*
X137232073Y-108889800D01*
X133910000Y-108889800D01*
X133910000Y-96909565D01*
X134179571Y-97040704D01*
X134491108Y-97122384D01*
X134812595Y-97141718D01*
X135131675Y-97097961D01*
X135436088Y-96992795D01*
X135610044Y-96899814D01*
X135705808Y-96635413D01*
X134750000Y-95679605D01*
X134735858Y-95693748D01*
X134556253Y-95514143D01*
X134570395Y-95500000D01*
X134929605Y-95500000D01*
X135885413Y-96455808D01*
X136149814Y-96360044D01*
X136290704Y-96070429D01*
X136372384Y-95758892D01*
X136391718Y-95437405D01*
X136347961Y-95118325D01*
X136242795Y-94813912D01*
X136149814Y-94639956D01*
X135885413Y-94544192D01*
X134929605Y-95500000D01*
X134570395Y-95500000D01*
X134556253Y-95485858D01*
X134735858Y-95306253D01*
X134750000Y-95320395D01*
X135705808Y-94364587D01*
X135610044Y-94100186D01*
X135320429Y-93959296D01*
X135008892Y-93877616D01*
X134687405Y-93858282D01*
X134368325Y-93902039D01*
X134063912Y-94007205D01*
X133910000Y-94089472D01*
X133910000Y-90409565D01*
X134179571Y-90540704D01*
X134491108Y-90622384D01*
X134812595Y-90641718D01*
X135131675Y-90597961D01*
X135436088Y-90492795D01*
X135610044Y-90399814D01*
X135705808Y-90135413D01*
X134750000Y-89179605D01*
X134735858Y-89193748D01*
X134556253Y-89014143D01*
X134570395Y-89000000D01*
X134556253Y-88985858D01*
X134735858Y-88806253D01*
X134750000Y-88820395D01*
X134764143Y-88806253D01*
X134943748Y-88985858D01*
X134929605Y-89000000D01*
X135885413Y-89955808D01*
X136149814Y-89860044D01*
X136290704Y-89570429D01*
X136372384Y-89258892D01*
X136391718Y-88937405D01*
X136347961Y-88618325D01*
X136242795Y-88313912D01*
X136187253Y-88210000D01*
X137811463Y-88210000D01*
X137801082Y-88225537D01*
G37*
X137801082Y-88225537D02*
X137677832Y-88523088D01*
X137615000Y-88838967D01*
X137615000Y-89161033D01*
X137677832Y-89476912D01*
X137801082Y-89774463D01*
X137980013Y-90042252D01*
X138207748Y-90269987D01*
X138475537Y-90448918D01*
X138773088Y-90572168D01*
X139088967Y-90635000D01*
X139411033Y-90635000D01*
X139726912Y-90572168D01*
X139741375Y-90566177D01*
X139815401Y-90640203D01*
X139815400Y-93859798D01*
X139741375Y-93933823D01*
X139726912Y-93927832D01*
X139411033Y-93865000D01*
X139088967Y-93865000D01*
X138773088Y-93927832D01*
X138475537Y-94051082D01*
X138207748Y-94230013D01*
X137980013Y-94457748D01*
X137801082Y-94725537D01*
X137677832Y-95023088D01*
X137615000Y-95338967D01*
X137615000Y-95661033D01*
X137677832Y-95976912D01*
X137801082Y-96274463D01*
X137980013Y-96542252D01*
X138207748Y-96769987D01*
X138475537Y-96948918D01*
X138773088Y-97072168D01*
X139088967Y-97135000D01*
X139411033Y-97135000D01*
X139726912Y-97072168D01*
X140024463Y-96948918D01*
X140292252Y-96769987D01*
X140519987Y-96542252D01*
X140698918Y-96274463D01*
X140822168Y-95976912D01*
X140885000Y-95661033D01*
X140885000Y-95338967D01*
X140822168Y-95023088D01*
X140816177Y-95008625D01*
X140890202Y-94934600D01*
X175707977Y-94934600D01*
X175627616Y-95241108D01*
X175608282Y-95562595D01*
X175652039Y-95881675D01*
X175757205Y-96186088D01*
X175850186Y-96360044D01*
X176114587Y-96455808D01*
X177070395Y-95500000D01*
X177056253Y-95485858D01*
X177235858Y-95306253D01*
X177250000Y-95320395D01*
X177264143Y-95306253D01*
X177443748Y-95485858D01*
X177429605Y-95500000D01*
X178385413Y-96455808D01*
X178649814Y-96360044D01*
X178790704Y-96070429D01*
X178872384Y-95758892D01*
X178891718Y-95437405D01*
X178847961Y-95118325D01*
X178784489Y-94934600D01*
X180109799Y-94934600D01*
X180183823Y-95008624D01*
X180177832Y-95023088D01*
X180115000Y-95338967D01*
X180115000Y-95661033D01*
X180177832Y-95976912D01*
X180301082Y-96274463D01*
X180480013Y-96542252D01*
X180707748Y-96769987D01*
X180975537Y-96948918D01*
X181273088Y-97072168D01*
X181588967Y-97135000D01*
X181911033Y-97135000D01*
X182226912Y-97072168D01*
X182490001Y-96963193D01*
X182490000Y-117915199D01*
X182416210Y-117841408D01*
X182460000Y-117621260D01*
X182460000Y-117328740D01*
X182402932Y-117041842D01*
X182290990Y-116771589D01*
X182128475Y-116528368D01*
X181921632Y-116321525D01*
X181747240Y-116205000D01*
X181921632Y-116088475D01*
X182128475Y-115881632D01*
X182290990Y-115638411D01*
X182402932Y-115368158D01*
X182460000Y-115081260D01*
X182460000Y-114788740D01*
X182402932Y-114501842D01*
X182290990Y-114231589D01*
X182128475Y-113988368D01*
X181921632Y-113781525D01*
X181747240Y-113665000D01*
X181921632Y-113548475D01*
X182128475Y-113341632D01*
X182290990Y-113098411D01*
X182402932Y-112828158D01*
X182460000Y-112541260D01*
X182460000Y-112248740D01*
X182402932Y-111961842D01*
X182290990Y-111691589D01*
X182128475Y-111448368D01*
X181921632Y-111241525D01*
X181747240Y-111125000D01*
X181921632Y-111008475D01*
X182128475Y-110801632D01*
X182290990Y-110558411D01*
X182402932Y-110288158D01*
X182460000Y-110001260D01*
X182460000Y-109708740D01*
X182402932Y-109421842D01*
X182290990Y-109151589D01*
X182128475Y-108908368D01*
X181996620Y-108776513D01*
X182069180Y-108754502D01*
X182179494Y-108695537D01*
X182276185Y-108616185D01*
X182355537Y-108519494D01*
X182414502Y-108409180D01*
X182450812Y-108289482D01*
X182463072Y-108165000D01*
X182463072Y-106465000D01*
X182450812Y-106340518D01*
X182414502Y-106220820D01*
X182355537Y-106110506D01*
X182276185Y-106013815D01*
X182179494Y-105934463D01*
X182069180Y-105875498D01*
X181949482Y-105839188D01*
X181825000Y-105826928D01*
X180125000Y-105826928D01*
X180000518Y-105839188D01*
X179880820Y-105875498D01*
X179770506Y-105934463D01*
X179673815Y-106013815D01*
X179594463Y-106110506D01*
X179535498Y-106220820D01*
X179499188Y-106340518D01*
X179486928Y-106465000D01*
X179486928Y-108165000D01*
X179499188Y-108289482D01*
X179535498Y-108409180D01*
X179594463Y-108519494D01*
X179673815Y-108616185D01*
X179770506Y-108695537D01*
X179880820Y-108754502D01*
X179953380Y-108776513D01*
X179821525Y-108908368D01*
X179659010Y-109151589D01*
X179547068Y-109421842D01*
X179490000Y-109708740D01*
X179490000Y-109835198D01*
X166290215Y-96635413D01*
X176294192Y-96635413D01*
X176389956Y-96899814D01*
X176679571Y-97040704D01*
X176991108Y-97122384D01*
X177312595Y-97141718D01*
X177631675Y-97097961D01*
X177936088Y-96992795D01*
X178110044Y-96899814D01*
X178205808Y-96635413D01*
X177250000Y-95679605D01*
X176294192Y-96635413D01*
X166290215Y-96635413D01*
X165793804Y-96139003D01*
X165770001Y-96109999D01*
X165654276Y-96015026D01*
X165522247Y-95944454D01*
X165378986Y-95900997D01*
X165267333Y-95890000D01*
X165267322Y-95890000D01*
X165230000Y-95886324D01*
X165192678Y-95890000D01*
X149328634Y-95890000D01*
X149318418Y-95865337D01*
X149139487Y-95597548D01*
X148911752Y-95369813D01*
X148643963Y-95190882D01*
X148346412Y-95067632D01*
X148030533Y-95004800D01*
X147708467Y-95004800D01*
X147392588Y-95067632D01*
X147095037Y-95190882D01*
X146827248Y-95369813D01*
X146599513Y-95597548D01*
X146482000Y-95773419D01*
X146364487Y-95597548D01*
X146136752Y-95369813D01*
X145868963Y-95190882D01*
X145571412Y-95067632D01*
X145255533Y-95004800D01*
X144933467Y-95004800D01*
X144617588Y-95067632D01*
X144320037Y-95190882D01*
X144052248Y-95369813D01*
X143824513Y-95597548D01*
X143645582Y-95865337D01*
X143522332Y-96162888D01*
X143459500Y-96478767D01*
X143459500Y-96800833D01*
X143522332Y-97116712D01*
X143645582Y-97414263D01*
X143824513Y-97682052D01*
X144052248Y-97909787D01*
X144320037Y-98088718D01*
X144617588Y-98211968D01*
X144933467Y-98274800D01*
X145255533Y-98274800D01*
X145571412Y-98211968D01*
X145582552Y-98207354D01*
X150532800Y-103157602D01*
X150556599Y-103186601D01*
X150585597Y-103210399D01*
X150672323Y-103281574D01*
X150804353Y-103352146D01*
X150947614Y-103395603D01*
X151059267Y-103406600D01*
X151059276Y-103406600D01*
X151096599Y-103410276D01*
X151133922Y-103406600D01*
X168371799Y-103406600D01*
X179533790Y-114568592D01*
X179490000Y-114788740D01*
X179490000Y-115081260D01*
X179547068Y-115368158D01*
X179659010Y-115638411D01*
X179821525Y-115881632D01*
X180028368Y-116088475D01*
X180202760Y-116205000D01*
X180028368Y-116321525D01*
X179821525Y-116528368D01*
X179659010Y-116771589D01*
X179547068Y-117041842D01*
X179490000Y-117328740D01*
X179490000Y-117621260D01*
X179547068Y-117908158D01*
X179659010Y-118178411D01*
X179821525Y-118421632D01*
X180028368Y-118628475D01*
X180202760Y-118745000D01*
X180028368Y-118861525D01*
X179821525Y-119068368D01*
X179696822Y-119255000D01*
X176395825Y-119255000D01*
X176358500Y-119251324D01*
X176321175Y-119255000D01*
X176321167Y-119255000D01*
X176209514Y-119265997D01*
X176066253Y-119309454D01*
X175934224Y-119380026D01*
X175818499Y-119474999D01*
X175794701Y-119503997D01*
X173706931Y-121591768D01*
X173585120Y-121409465D01*
X173390535Y-121214880D01*
X173161727Y-121061995D01*
X172907490Y-120956686D01*
X172637592Y-120903000D01*
X172362408Y-120903000D01*
X172208430Y-120933628D01*
X159663804Y-108389003D01*
X159640001Y-108359999D01*
X159524276Y-108265026D01*
X159392247Y-108194454D01*
X159248986Y-108150997D01*
X159137333Y-108140000D01*
X159137322Y-108140000D01*
X159100000Y-108136324D01*
X159062678Y-108140000D01*
X155554242Y-108140000D01*
X155496981Y-108032873D01*
X155305161Y-107799139D01*
X155086635Y-107619800D01*
X155305161Y-107440461D01*
X155496981Y-107206727D01*
X155639517Y-106940061D01*
X155727290Y-106650713D01*
X155756927Y-106349800D01*
X155727290Y-106048887D01*
X155639517Y-105759539D01*
X155496981Y-105492873D01*
X155305161Y-105259139D01*
X155071427Y-105067319D01*
X154804761Y-104924783D01*
X154515413Y-104837010D01*
X154289908Y-104814800D01*
X153939092Y-104814800D01*
X153713587Y-104837010D01*
X153424239Y-104924783D01*
X153157573Y-105067319D01*
X152923839Y-105259139D01*
X152732019Y-105492873D01*
X152589483Y-105759539D01*
X152501710Y-106048887D01*
X152472073Y-106349800D01*
X152501710Y-106650713D01*
X152589483Y-106940061D01*
X152732019Y-107206727D01*
X152923839Y-107440461D01*
X153142365Y-107619800D01*
X152923839Y-107799139D01*
X152732019Y-108032873D01*
X152589483Y-108299539D01*
X152501710Y-108588887D01*
X152472073Y-108889800D01*
X152501710Y-109190713D01*
X152589483Y-109480061D01*
X152732019Y-109746727D01*
X152923839Y-109980461D01*
X153142365Y-110159800D01*
X152923839Y-110339139D01*
X152732019Y-110572873D01*
X152589483Y-110839539D01*
X152501710Y-111128887D01*
X152472073Y-111429800D01*
X152501710Y-111730713D01*
X152589483Y-112020061D01*
X152732019Y-112286727D01*
X152923839Y-112520461D01*
X153142365Y-112699800D01*
X152923839Y-112879139D01*
X152732019Y-113112873D01*
X152589483Y-113379539D01*
X152501710Y-113668887D01*
X152472073Y-113969800D01*
X152501710Y-114270713D01*
X152589483Y-114560061D01*
X152732019Y-114826727D01*
X152923839Y-115060461D01*
X153142365Y-115239800D01*
X152923839Y-115419139D01*
X152732019Y-115652873D01*
X152589483Y-115919539D01*
X152501710Y-116208887D01*
X152472073Y-116509800D01*
X152501710Y-116810713D01*
X152589483Y-117100061D01*
X152732019Y-117366727D01*
X152923839Y-117600461D01*
X153150879Y-117786788D01*
X152953471Y-117941762D01*
X152757691Y-118170049D01*
X152610209Y-118432144D01*
X152523464Y-118685060D01*
X152644122Y-118922800D01*
X153987500Y-118922800D01*
X153987500Y-118902800D01*
X154241500Y-118902800D01*
X154241500Y-118922800D01*
X155584878Y-118922800D01*
X155705536Y-118685060D01*
X155618791Y-118432144D01*
X155471309Y-118170049D01*
X155275529Y-117941762D01*
X155078121Y-117786788D01*
X155305161Y-117600461D01*
X155496981Y-117366727D01*
X155543338Y-117280000D01*
X164794499Y-117280000D01*
X171425201Y-123910703D01*
X171448999Y-123939701D01*
X171477997Y-123963499D01*
X171564723Y-124034674D01*
X171696753Y-124105246D01*
X171840014Y-124148703D01*
X171951667Y-124159700D01*
X171951676Y-124159700D01*
X171988999Y-124163376D01*
X172026322Y-124159700D01*
X172936478Y-124159700D01*
X172973800Y-124163376D01*
X173011122Y-124159700D01*
X173011133Y-124159700D01*
X173122786Y-124148703D01*
X173266047Y-124105246D01*
X173398076Y-124034674D01*
X173513801Y-123939701D01*
X173537604Y-123910697D01*
X176673302Y-120775000D01*
X179696822Y-120775000D01*
X179821525Y-120961632D01*
X180028368Y-121168475D01*
X180215000Y-121293179D01*
X180215001Y-122292546D01*
X180155820Y-122310498D01*
X180045506Y-122369463D01*
X179948815Y-122448815D01*
X179869463Y-122545506D01*
X179810498Y-122655820D01*
X179774188Y-122775518D01*
X179761928Y-122900000D01*
X179761928Y-124600000D01*
X179774188Y-124724482D01*
X179810498Y-124844180D01*
X179869463Y-124954494D01*
X179948815Y-125051185D01*
X180045506Y-125130537D01*
X180155820Y-125189502D01*
X180228380Y-125211513D01*
X180096525Y-125343368D01*
X179934010Y-125586589D01*
X179822068Y-125856842D01*
X179765000Y-126143740D01*
X179765000Y-126436260D01*
X179808790Y-126656408D01*
X179387355Y-127077843D01*
X179435000Y-126838318D01*
X179435000Y-126161682D01*
X179302994Y-125498048D01*
X179044057Y-124872918D01*
X178668138Y-124310315D01*
X178189685Y-123831862D01*
X177627082Y-123455943D01*
X177001952Y-123197006D01*
X176338318Y-123065000D01*
X175661682Y-123065000D01*
X174998048Y-123197006D01*
X174372918Y-123455943D01*
X173810315Y-123831862D01*
X173331862Y-124310315D01*
X172955943Y-124872918D01*
X172697006Y-125498048D01*
X172565000Y-126161682D01*
X172565000Y-126838318D01*
X172697006Y-127501952D01*
X172955943Y-128127082D01*
X173331862Y-128689685D01*
X173810315Y-129168138D01*
X174372918Y-129544057D01*
X174998048Y-129802994D01*
X175661682Y-129935000D01*
X176338318Y-129935000D01*
X176577844Y-129887355D01*
X173953398Y-132511801D01*
X172047859Y-132511801D01*
X172048018Y-132511563D01*
X172171268Y-132214012D01*
X172234100Y-131898133D01*
X172234100Y-131576067D01*
X172171268Y-131260188D01*
X172048018Y-130962637D01*
X171869087Y-130694848D01*
X171641352Y-130467113D01*
X171373563Y-130288182D01*
X171076012Y-130164932D01*
X170760133Y-130102100D01*
X170438067Y-130102100D01*
X170122188Y-130164932D01*
X169824637Y-130288182D01*
X169556848Y-130467113D01*
X169329113Y-130694848D01*
X169150182Y-130962637D01*
X169026932Y-131260188D01*
X168964100Y-131576067D01*
X168964100Y-131898133D01*
X169026932Y-132214012D01*
X169150182Y-132511563D01*
X169150341Y-132511801D01*
X149279283Y-132511801D01*
X149279804Y-132510729D01*
X149361484Y-132199192D01*
X149380818Y-131877705D01*
X149337061Y-131558625D01*
X149231895Y-131254212D01*
X149138914Y-131080256D01*
X148874513Y-130984492D01*
X147918705Y-131940300D01*
X147932848Y-131954443D01*
X147753243Y-132134048D01*
X147739100Y-132119905D01*
X147724958Y-132134048D01*
X147545353Y-131954443D01*
X147559495Y-131940300D01*
X146603687Y-130984492D01*
X146339286Y-131080256D01*
X146198396Y-131369871D01*
X146116716Y-131681408D01*
X146097382Y-132002895D01*
X146141139Y-132321975D01*
X146246305Y-132626388D01*
X146285651Y-132700000D01*
X144461144Y-132700000D01*
X144384481Y-132556573D01*
X144333173Y-132494053D01*
X146022339Y-130804887D01*
X146783292Y-130804887D01*
X147739100Y-131760695D01*
X148694908Y-130804887D01*
X148599144Y-130540486D01*
X148309529Y-130399596D01*
X147997992Y-130317916D01*
X147676505Y-130298582D01*
X147357425Y-130342339D01*
X147053012Y-130447505D01*
X146879056Y-130540486D01*
X146783292Y-130804887D01*
X146022339Y-130804887D01*
X146561004Y-130266223D01*
X146590001Y-130242426D01*
X146684974Y-130126701D01*
X146755546Y-129994672D01*
X146799003Y-129851411D01*
X146810000Y-129739758D01*
X146810000Y-129739748D01*
X146813676Y-129702425D01*
X146810000Y-129665102D01*
X146810000Y-126161682D01*
X163815000Y-126161682D01*
X163815000Y-126838318D01*
X163947006Y-127501952D01*
X164205943Y-128127082D01*
X164581862Y-128689685D01*
X165060315Y-129168138D01*
X165622918Y-129544057D01*
X166248048Y-129802994D01*
X166911682Y-129935000D01*
X167588318Y-129935000D01*
X168251952Y-129802994D01*
X168877082Y-129544057D01*
X169439685Y-129168138D01*
X169918138Y-128689685D01*
X170294057Y-128127082D01*
X170552994Y-127501952D01*
X170685000Y-126838318D01*
X170685000Y-126161682D01*
X170552994Y-125498048D01*
X170294057Y-124872918D01*
X169918138Y-124310315D01*
X169439685Y-123831862D01*
X168877082Y-123455943D01*
X168251952Y-123197006D01*
X167588318Y-123065000D01*
X166911682Y-123065000D01*
X166248048Y-123197006D01*
X165622918Y-123455943D01*
X165060315Y-123831862D01*
X164581862Y-124310315D01*
X164205943Y-124872918D01*
X163947006Y-125498048D01*
X163815000Y-126161682D01*
X146810000Y-126161682D01*
X146810000Y-124900000D01*
X152685662Y-124900000D01*
X152732019Y-124986727D01*
X152923839Y-125220461D01*
X153157573Y-125412281D01*
X153424239Y-125554817D01*
X153713587Y-125642590D01*
X153939092Y-125664800D01*
X154289908Y-125664800D01*
X154515413Y-125642590D01*
X154804761Y-125554817D01*
X155071427Y-125412281D01*
X155305161Y-125220461D01*
X155496981Y-124986727D01*
X155639517Y-124720061D01*
X155727290Y-124430713D01*
X155756927Y-124129800D01*
X155727290Y-123828887D01*
X155639517Y-123539539D01*
X155496981Y-123272873D01*
X155305161Y-123039139D01*
X155086635Y-122859800D01*
X155305161Y-122680461D01*
X155496981Y-122446727D01*
X155639517Y-122180061D01*
X155644871Y-122162408D01*
X159103000Y-122162408D01*
X159103000Y-122437592D01*
X159156686Y-122707490D01*
X159261995Y-122961727D01*
X159414880Y-123190535D01*
X159609465Y-123385120D01*
X159838273Y-123538005D01*
X160092510Y-123643314D01*
X160362408Y-123697000D01*
X160637592Y-123697000D01*
X160907490Y-123643314D01*
X161161727Y-123538005D01*
X161390535Y-123385120D01*
X161585120Y-123190535D01*
X161738005Y-122961727D01*
X161843314Y-122707490D01*
X161897000Y-122437592D01*
X161897000Y-122162408D01*
X161843314Y-121892510D01*
X161738005Y-121638273D01*
X161585120Y-121409465D01*
X161390535Y-121214880D01*
X161161727Y-121061995D01*
X160907490Y-120956686D01*
X160637592Y-120903000D01*
X160362408Y-120903000D01*
X160092510Y-120956686D01*
X159838273Y-121061995D01*
X159609465Y-121214880D01*
X159414880Y-121409465D01*
X159261995Y-121638273D01*
X159156686Y-121892510D01*
X159103000Y-122162408D01*
X155644871Y-122162408D01*
X155727290Y-121890713D01*
X155756927Y-121589800D01*
X155727290Y-121288887D01*
X155639517Y-120999539D01*
X155496981Y-120732873D01*
X155305161Y-120499139D01*
X155078121Y-120312812D01*
X155275529Y-120157838D01*
X155471309Y-119929551D01*
X155618791Y-119667456D01*
X155705536Y-119414540D01*
X155584878Y-119176800D01*
X154241500Y-119176800D01*
X154241500Y-119196800D01*
X153987500Y-119196800D01*
X153987500Y-119176800D01*
X152644122Y-119176800D01*
X152523464Y-119414540D01*
X152610209Y-119667456D01*
X152757691Y-119929551D01*
X152953471Y-120157838D01*
X153150879Y-120312812D01*
X152923839Y-120499139D01*
X152732019Y-120732873D01*
X152674758Y-120840000D01*
X145137322Y-120840000D01*
X145099999Y-120836324D01*
X145062676Y-120840000D01*
X145062667Y-120840000D01*
X144951014Y-120850997D01*
X144807753Y-120894454D01*
X144675724Y-120965026D01*
X144559999Y-121059999D01*
X144536196Y-121089003D01*
X144268998Y-121356201D01*
X144240000Y-121379999D01*
X144216202Y-121408997D01*
X144216201Y-121408998D01*
X144145026Y-121495724D01*
X144074454Y-121627754D01*
X144030998Y-121771015D01*
X144016324Y-121920000D01*
X144020001Y-121957332D01*
X144020000Y-127113178D01*
X143926474Y-127039756D01*
X143658235Y-126903768D01*
X143368620Y-126822724D01*
X143129000Y-126958366D01*
X143129000Y-128206500D01*
X143149000Y-128206500D01*
X143149000Y-128460500D01*
X143129000Y-128460500D01*
X143129000Y-128480500D01*
X142875000Y-128480500D01*
X142875000Y-128460500D01*
X141531622Y-128460500D01*
X141410964Y-128698240D01*
X141461303Y-128845010D01*
X136930906Y-128845010D01*
X136994790Y-128634413D01*
X137024427Y-128333500D01*
X136994790Y-128032587D01*
X136975429Y-127968760D01*
X141410964Y-127968760D01*
X141531622Y-128206500D01*
X142875000Y-128206500D01*
X142875000Y-126958366D01*
X142635380Y-126822724D01*
X142345765Y-126903768D01*
X142077526Y-127039756D01*
X141840971Y-127225462D01*
X141645191Y-127453749D01*
X141497709Y-127715844D01*
X141410964Y-127968760D01*
X136975429Y-127968760D01*
X136907017Y-127743239D01*
X136764481Y-127476573D01*
X136572661Y-127242839D01*
X136338927Y-127051019D01*
X136072261Y-126908483D01*
X135782913Y-126820710D01*
X135557408Y-126798500D01*
X135206592Y-126798500D01*
X134981087Y-126820710D01*
X134691739Y-126908483D01*
X134425073Y-127051019D01*
X134191339Y-127242839D01*
X133999519Y-127476573D01*
X133910000Y-127644051D01*
X133910000Y-124014788D01*
X133978320Y-124179727D01*
X134135363Y-124414759D01*
X134335241Y-124614637D01*
X134570273Y-124771680D01*
X134831426Y-124879853D01*
X135108665Y-124935000D01*
X135391335Y-124935000D01*
X135668574Y-124879853D01*
X135929727Y-124771680D01*
X136164759Y-124614637D01*
X136364637Y-124414759D01*
X136521680Y-124179727D01*
X136629853Y-123918574D01*
X136685000Y-123641335D01*
X136685000Y-123358665D01*
X136629853Y-123081426D01*
X136521680Y-122820273D01*
X136364637Y-122585241D01*
X136164759Y-122385363D01*
X135929727Y-122228320D01*
X135668574Y-122120147D01*
X135391335Y-122065000D01*
X135108665Y-122065000D01*
X134831426Y-122120147D01*
X134570273Y-122228320D01*
X134335241Y-122385363D01*
X134135363Y-122585241D01*
X133978320Y-122820273D01*
X133910000Y-122985212D01*
X133910000Y-121589800D01*
X137232073Y-121589800D01*
X137261710Y-121890713D01*
X137349483Y-122180061D01*
X137492019Y-122446727D01*
X137683839Y-122680461D01*
X137902365Y-122859800D01*
X137683839Y-123039139D01*
X137492019Y-123272873D01*
X137349483Y-123539539D01*
X137261710Y-123828887D01*
X137232073Y-124129800D01*
X137261710Y-124430713D01*
X137349483Y-124720061D01*
X137492019Y-124986727D01*
X137683839Y-125220461D01*
X137917573Y-125412281D01*
X138184239Y-125554817D01*
X138473587Y-125642590D01*
X138699092Y-125664800D01*
X139049908Y-125664800D01*
X139275413Y-125642590D01*
X139564761Y-125554817D01*
X139831427Y-125412281D01*
X140065161Y-125220461D01*
X140256981Y-124986727D01*
X140399517Y-124720061D01*
X140487290Y-124430713D01*
X140516927Y-124129800D01*
X140487290Y-123828887D01*
X140399517Y-123539539D01*
X140256981Y-123272873D01*
X140065161Y-123039139D01*
X139846635Y-122859800D01*
X140065161Y-122680461D01*
X140256981Y-122446727D01*
X140399517Y-122180061D01*
X140487290Y-121890713D01*
X140516927Y-121589800D01*
X140487290Y-121288887D01*
X140399517Y-120999539D01*
X140256981Y-120732873D01*
X140065161Y-120499139D01*
X139838121Y-120312812D01*
X140035529Y-120157838D01*
X140231309Y-119929551D01*
X140378791Y-119667456D01*
X140465536Y-119414540D01*
X140344878Y-119176800D01*
X139001500Y-119176800D01*
X139001500Y-119196800D01*
X138747500Y-119196800D01*
X138747500Y-119176800D01*
X137404122Y-119176800D01*
X137283464Y-119414540D01*
X137370209Y-119667456D01*
X137517691Y-119929551D01*
X137713471Y-120157838D01*
X137910879Y-120312812D01*
X137683839Y-120499139D01*
X137492019Y-120732873D01*
X137349483Y-120999539D01*
X137261710Y-121288887D01*
X137232073Y-121589800D01*
X133910000Y-121589800D01*
X133910000Y-116373998D01*
X133952930Y-116493881D01*
X134097615Y-116735131D01*
X134286586Y-116943519D01*
X134512580Y-117111037D01*
X134766913Y-117231246D01*
X134900961Y-117271904D01*
X135123000Y-117149915D01*
X135123000Y-116007000D01*
X135377000Y-116007000D01*
X135377000Y-117149915D01*
X135599039Y-117271904D01*
X135733087Y-117231246D01*
X135987420Y-117111037D01*
X136213414Y-116943519D01*
X136402385Y-116735131D01*
X136547070Y-116493881D01*
X136641909Y-116229040D01*
X136520624Y-116007000D01*
X135377000Y-116007000D01*
X135123000Y-116007000D01*
X135103000Y-116007000D01*
X135103000Y-115753000D01*
X135123000Y-115753000D01*
X135123000Y-114610085D01*
X135377000Y-114610085D01*
X135377000Y-115753000D01*
X136520624Y-115753000D01*
X136641909Y-115530960D01*
X136547070Y-115266119D01*
X136402385Y-115024869D01*
X136213414Y-114816481D01*
X135987420Y-114648963D01*
X135733087Y-114528754D01*
X135599039Y-114488096D01*
X135377000Y-114610085D01*
X135123000Y-114610085D01*
X134900961Y-114488096D01*
X134766913Y-114528754D01*
X134512580Y-114648963D01*
X134286586Y-114816481D01*
X134097615Y-115024869D01*
X133952930Y-115266119D01*
X133910000Y-115386002D01*
X133910000Y-108889800D01*
X137232073Y-108889800D01*
X137261710Y-109190713D01*
X137349483Y-109480061D01*
X137492019Y-109746727D01*
X137683839Y-109980461D01*
X137902365Y-110159800D01*
X137683839Y-110339139D01*
X137492019Y-110572873D01*
X137349483Y-110839539D01*
X137261710Y-111128887D01*
X137232073Y-111429800D01*
X137261710Y-111730713D01*
X137349483Y-112020061D01*
X137492019Y-112286727D01*
X137683839Y-112520461D01*
X137902365Y-112699800D01*
X137683839Y-112879139D01*
X137492019Y-113112873D01*
X137349483Y-113379539D01*
X137261710Y-113668887D01*
X137232073Y-113969800D01*
X137261710Y-114270713D01*
X137349483Y-114560061D01*
X137492019Y-114826727D01*
X137683839Y-115060461D01*
X137902365Y-115239800D01*
X137683839Y-115419139D01*
X137492019Y-115652873D01*
X137349483Y-115919539D01*
X137261710Y-116208887D01*
X137232073Y-116509800D01*
X137261710Y-116810713D01*
X137349483Y-117100061D01*
X137492019Y-117366727D01*
X137683839Y-117600461D01*
X137910879Y-117786788D01*
X137713471Y-117941762D01*
X137517691Y-118170049D01*
X137370209Y-118432144D01*
X137283464Y-118685060D01*
X137404122Y-118922800D01*
X138747500Y-118922800D01*
X138747500Y-118902800D01*
X139001500Y-118902800D01*
X139001500Y-118922800D01*
X140344878Y-118922800D01*
X140465536Y-118685060D01*
X140378791Y-118432144D01*
X140231309Y-118170049D01*
X140035529Y-117941762D01*
X139838121Y-117786788D01*
X140065161Y-117600461D01*
X140256981Y-117366727D01*
X140399517Y-117100061D01*
X140487290Y-116810713D01*
X140516927Y-116509800D01*
X140487290Y-116208887D01*
X140399517Y-115919539D01*
X140256981Y-115652873D01*
X140065161Y-115419139D01*
X139846635Y-115239800D01*
X140065161Y-115060461D01*
X140256981Y-114826727D01*
X140399517Y-114560061D01*
X140487290Y-114270713D01*
X140516927Y-113969800D01*
X140487290Y-113668887D01*
X140399517Y-113379539D01*
X140256981Y-113112873D01*
X140065161Y-112879139D01*
X139846635Y-112699800D01*
X140065161Y-112520461D01*
X140256981Y-112286727D01*
X140399517Y-112020061D01*
X140487290Y-111730713D01*
X140516927Y-111429800D01*
X140487290Y-111128887D01*
X140399517Y-110839539D01*
X140256981Y-110572873D01*
X140065161Y-110339139D01*
X139846635Y-110159800D01*
X140065161Y-109980461D01*
X140256981Y-109746727D01*
X140399517Y-109480061D01*
X140487290Y-109190713D01*
X140516927Y-108889800D01*
X140487290Y-108588887D01*
X140399517Y-108299539D01*
X140256981Y-108032873D01*
X140102220Y-107844295D01*
X140118680Y-107839302D01*
X140228994Y-107780337D01*
X140325685Y-107700985D01*
X140405037Y-107604294D01*
X140464002Y-107493980D01*
X140500312Y-107374282D01*
X140512572Y-107249800D01*
X140512572Y-105449800D01*
X140500312Y-105325318D01*
X140464002Y-105205620D01*
X140405037Y-105095306D01*
X140325685Y-104998615D01*
X140228994Y-104919263D01*
X140118680Y-104860298D01*
X139998982Y-104823988D01*
X139874500Y-104811728D01*
X137874500Y-104811728D01*
X137750018Y-104823988D01*
X137630320Y-104860298D01*
X137520006Y-104919263D01*
X137423315Y-104998615D01*
X137343963Y-105095306D01*
X137284998Y-105205620D01*
X137248688Y-105325318D01*
X137236428Y-105449800D01*
X137236428Y-107249800D01*
X137248688Y-107374282D01*
X137284998Y-107493980D01*
X137343963Y-107604294D01*
X137423315Y-107700985D01*
X137520006Y-107780337D01*
X137630320Y-107839302D01*
X137646780Y-107844295D01*
X137492019Y-108032873D01*
X137349483Y-108299539D01*
X137261710Y-108588887D01*
X137232073Y-108889800D01*
X133910000Y-108889800D01*
X133910000Y-96909565D01*
X134179571Y-97040704D01*
X134491108Y-97122384D01*
X134812595Y-97141718D01*
X135131675Y-97097961D01*
X135436088Y-96992795D01*
X135610044Y-96899814D01*
X135705808Y-96635413D01*
X134750000Y-95679605D01*
X134735858Y-95693748D01*
X134556253Y-95514143D01*
X134570395Y-95500000D01*
X134929605Y-95500000D01*
X135885413Y-96455808D01*
X136149814Y-96360044D01*
X136290704Y-96070429D01*
X136372384Y-95758892D01*
X136391718Y-95437405D01*
X136347961Y-95118325D01*
X136242795Y-94813912D01*
X136149814Y-94639956D01*
X135885413Y-94544192D01*
X134929605Y-95500000D01*
X134570395Y-95500000D01*
X134556253Y-95485858D01*
X134735858Y-95306253D01*
X134750000Y-95320395D01*
X135705808Y-94364587D01*
X135610044Y-94100186D01*
X135320429Y-93959296D01*
X135008892Y-93877616D01*
X134687405Y-93858282D01*
X134368325Y-93902039D01*
X134063912Y-94007205D01*
X133910000Y-94089472D01*
X133910000Y-90409565D01*
X134179571Y-90540704D01*
X134491108Y-90622384D01*
X134812595Y-90641718D01*
X135131675Y-90597961D01*
X135436088Y-90492795D01*
X135610044Y-90399814D01*
X135705808Y-90135413D01*
X134750000Y-89179605D01*
X134735858Y-89193748D01*
X134556253Y-89014143D01*
X134570395Y-89000000D01*
X134556253Y-88985858D01*
X134735858Y-88806253D01*
X134750000Y-88820395D01*
X134764143Y-88806253D01*
X134943748Y-88985858D01*
X134929605Y-89000000D01*
X135885413Y-89955808D01*
X136149814Y-89860044D01*
X136290704Y-89570429D01*
X136372384Y-89258892D01*
X136391718Y-88937405D01*
X136347961Y-88618325D01*
X136242795Y-88313912D01*
X136187253Y-88210000D01*
X137811463Y-88210000D01*
X137801082Y-88225537D01*
G36*
X175709296Y-88429571D02*
G01*
X175627616Y-88741108D01*
X175608282Y-89062595D01*
X175652039Y-89381675D01*
X175757205Y-89686088D01*
X175850186Y-89860044D01*
X176114587Y-89955808D01*
X177070395Y-89000000D01*
X177056253Y-88985858D01*
X177235858Y-88806253D01*
X177250000Y-88820395D01*
X177264143Y-88806253D01*
X177443748Y-88985858D01*
X177429605Y-89000000D01*
X178385413Y-89955808D01*
X178649814Y-89860044D01*
X178790704Y-89570429D01*
X178872384Y-89258892D01*
X178891718Y-88937405D01*
X178847961Y-88618325D01*
X178742795Y-88313912D01*
X178687253Y-88210000D01*
X180311463Y-88210000D01*
X180301082Y-88225537D01*
X180177832Y-88523088D01*
X180115000Y-88838967D01*
X180115000Y-89161033D01*
X180177832Y-89476912D01*
X180301082Y-89774463D01*
X180480013Y-90042252D01*
X180707748Y-90269987D01*
X180975537Y-90448918D01*
X180990001Y-90454909D01*
X180990000Y-92534398D01*
X180109799Y-93414600D01*
X141335400Y-93414600D01*
X141335400Y-90590000D01*
X168691928Y-90590000D01*
X168691928Y-92290000D01*
X168704188Y-92414482D01*
X168740498Y-92534180D01*
X168799463Y-92644494D01*
X168878815Y-92741185D01*
X168975506Y-92820537D01*
X169085820Y-92879502D01*
X169205518Y-92915812D01*
X169330000Y-92928072D01*
X171030000Y-92928072D01*
X171154482Y-92915812D01*
X171274180Y-92879502D01*
X171384494Y-92820537D01*
X171481185Y-92741185D01*
X171560537Y-92644494D01*
X171619502Y-92534180D01*
X171641513Y-92461620D01*
X171773368Y-92593475D01*
X172016589Y-92755990D01*
X172286842Y-92867932D01*
X172573740Y-92925000D01*
X172866260Y-92925000D01*
X173153158Y-92867932D01*
X173423411Y-92755990D01*
X173666632Y-92593475D01*
X173873475Y-92386632D01*
X174035990Y-92143411D01*
X174147932Y-91873158D01*
X174205000Y-91586260D01*
X174205000Y-91293740D01*
X174147932Y-91006842D01*
X174035990Y-90736589D01*
X173873475Y-90493368D01*
X173666632Y-90286525D01*
X173440477Y-90135413D01*
X176294192Y-90135413D01*
X176389956Y-90399814D01*
X176679571Y-90540704D01*
X176991108Y-90622384D01*
X177312595Y-90641718D01*
X177631675Y-90597961D01*
X177936088Y-90492795D01*
X178110044Y-90399814D01*
X178205808Y-90135413D01*
X177250000Y-89179605D01*
X176294192Y-90135413D01*
X173440477Y-90135413D01*
X173423411Y-90124010D01*
X173153158Y-90012068D01*
X172866260Y-89955000D01*
X172573740Y-89955000D01*
X172286842Y-90012068D01*
X172016589Y-90124010D01*
X171773368Y-90286525D01*
X171641513Y-90418380D01*
X171619502Y-90345820D01*
X171560537Y-90235506D01*
X171481185Y-90138815D01*
X171384494Y-90059463D01*
X171274180Y-90000498D01*
X171154482Y-89964188D01*
X171030000Y-89951928D01*
X169330000Y-89951928D01*
X169205518Y-89964188D01*
X169085820Y-90000498D01*
X168975506Y-90059463D01*
X168878815Y-90138815D01*
X168799463Y-90235506D01*
X168740498Y-90345820D01*
X168704188Y-90465518D01*
X168691928Y-90590000D01*
X141335400Y-90590000D01*
X141335400Y-90362725D01*
X141339076Y-90325400D01*
X141335400Y-90288075D01*
X141335400Y-90288067D01*
X141324403Y-90176414D01*
X141280946Y-90033153D01*
X141210374Y-89901124D01*
X141115401Y-89785399D01*
X141086403Y-89761601D01*
X140816177Y-89491375D01*
X140822168Y-89476912D01*
X140885000Y-89161033D01*
X140885000Y-88838967D01*
X140822168Y-88523088D01*
X140698918Y-88225537D01*
X140688537Y-88210000D01*
X175816111Y-88210000D01*
X175709296Y-88429571D01*
G37*
X175709296Y-88429571D02*
X175627616Y-88741108D01*
X175608282Y-89062595D01*
X175652039Y-89381675D01*
X175757205Y-89686088D01*
X175850186Y-89860044D01*
X176114587Y-89955808D01*
X177070395Y-89000000D01*
X177056253Y-88985858D01*
X177235858Y-88806253D01*
X177250000Y-88820395D01*
X177264143Y-88806253D01*
X177443748Y-88985858D01*
X177429605Y-89000000D01*
X178385413Y-89955808D01*
X178649814Y-89860044D01*
X178790704Y-89570429D01*
X178872384Y-89258892D01*
X178891718Y-88937405D01*
X178847961Y-88618325D01*
X178742795Y-88313912D01*
X178687253Y-88210000D01*
X180311463Y-88210000D01*
X180301082Y-88225537D01*
X180177832Y-88523088D01*
X180115000Y-88838967D01*
X180115000Y-89161033D01*
X180177832Y-89476912D01*
X180301082Y-89774463D01*
X180480013Y-90042252D01*
X180707748Y-90269987D01*
X180975537Y-90448918D01*
X180990001Y-90454909D01*
X180990000Y-92534398D01*
X180109799Y-93414600D01*
X141335400Y-93414600D01*
X141335400Y-90590000D01*
X168691928Y-90590000D01*
X168691928Y-92290000D01*
X168704188Y-92414482D01*
X168740498Y-92534180D01*
X168799463Y-92644494D01*
X168878815Y-92741185D01*
X168975506Y-92820537D01*
X169085820Y-92879502D01*
X169205518Y-92915812D01*
X169330000Y-92928072D01*
X171030000Y-92928072D01*
X171154482Y-92915812D01*
X171274180Y-92879502D01*
X171384494Y-92820537D01*
X171481185Y-92741185D01*
X171560537Y-92644494D01*
X171619502Y-92534180D01*
X171641513Y-92461620D01*
X171773368Y-92593475D01*
X172016589Y-92755990D01*
X172286842Y-92867932D01*
X172573740Y-92925000D01*
X172866260Y-92925000D01*
X173153158Y-92867932D01*
X173423411Y-92755990D01*
X173666632Y-92593475D01*
X173873475Y-92386632D01*
X174035990Y-92143411D01*
X174147932Y-91873158D01*
X174205000Y-91586260D01*
X174205000Y-91293740D01*
X174147932Y-91006842D01*
X174035990Y-90736589D01*
X173873475Y-90493368D01*
X173666632Y-90286525D01*
X173440477Y-90135413D01*
X176294192Y-90135413D01*
X176389956Y-90399814D01*
X176679571Y-90540704D01*
X176991108Y-90622384D01*
X177312595Y-90641718D01*
X177631675Y-90597961D01*
X177936088Y-90492795D01*
X178110044Y-90399814D01*
X178205808Y-90135413D01*
X177250000Y-89179605D01*
X176294192Y-90135413D01*
X173440477Y-90135413D01*
X173423411Y-90124010D01*
X173153158Y-90012068D01*
X172866260Y-89955000D01*
X172573740Y-89955000D01*
X172286842Y-90012068D01*
X172016589Y-90124010D01*
X171773368Y-90286525D01*
X171641513Y-90418380D01*
X171619502Y-90345820D01*
X171560537Y-90235506D01*
X171481185Y-90138815D01*
X171384494Y-90059463D01*
X171274180Y-90000498D01*
X171154482Y-89964188D01*
X171030000Y-89951928D01*
X169330000Y-89951928D01*
X169205518Y-89964188D01*
X169085820Y-90000498D01*
X168975506Y-90059463D01*
X168878815Y-90138815D01*
X168799463Y-90235506D01*
X168740498Y-90345820D01*
X168704188Y-90465518D01*
X168691928Y-90590000D01*
X141335400Y-90590000D01*
X141335400Y-90362725D01*
X141339076Y-90325400D01*
X141335400Y-90288075D01*
X141335400Y-90288067D01*
X141324403Y-90176414D01*
X141280946Y-90033153D01*
X141210374Y-89901124D01*
X141115401Y-89785399D01*
X141086403Y-89761601D01*
X140816177Y-89491375D01*
X140822168Y-89476912D01*
X140885000Y-89161033D01*
X140885000Y-88838967D01*
X140822168Y-88523088D01*
X140698918Y-88225537D01*
X140688537Y-88210000D01*
X175816111Y-88210000D01*
X175709296Y-88429571D01*
M02*
