M48
; DRILL file {KiCad 5.1.5-52549c5~84~ubuntu18.04.1} date Sa 25 Jan 2020 11:43:54 CET
; FORMAT={-:-/ absolute / inch / decimal}
; #@! TF.CreationDate,2020-01-25T11:43:54+01:00
; #@! TF.GenerationSoftware,Kicad,Pcbnew,5.1.5-52549c5~84~ubuntu18.04.1
FMAT,2
INCH
T1C0.0157
T2C0.0300
T3C0.0315
T4C0.0394
T5C0.0433
T6C0.1260
%
G90
G05
T1
X5.9442Y-5.3055
T2
X6.3189Y-4.815
X6.7913Y-4.815
T3
X5.33Y-5.0525
X5.33Y-5.1525
X5.33Y-5.2525
X5.33Y-5.3525
X5.63Y-5.0525
X5.63Y-5.1525
X5.63Y-5.2525
X5.63Y-5.3525
X5.3248Y-4.5622
X5.3248Y-4.8622
T4
X7.125Y-4.225
X7.125Y-4.325
X7.125Y-4.425
X7.125Y-4.525
X7.125Y-4.625
X7.125Y-4.725
X5.8165Y-5.1945
X5.8165Y-5.3025
X5.8165Y-5.6025
X5.8165Y-5.7105
X6.7165Y-5.1865
X6.7165Y-5.7185
X5.4675Y-4.187
X5.4675Y-4.287
X5.4675Y-4.387
X5.4675Y-4.487
X5.4675Y-4.587
X5.4675Y-4.687
X5.4675Y-4.787
X5.4675Y-4.887
X5.7124Y-3.8047
X5.8216Y-3.8047
X6.0675Y-4.187
X6.0675Y-4.287
X6.0675Y-4.387
X6.0675Y-4.487
X6.0675Y-4.587
X6.0675Y-4.687
X6.0675Y-4.787
X6.0675Y-4.887
X6.7Y-3.6
X6.8Y-3.6
X7.1358Y-4.872
X7.1358Y-4.972
T5
X5.3051Y-3.5039
X5.3051Y-3.7598
X5.4823Y-3.5039
X5.4823Y-3.7598
X6.9783Y-3.5039
X6.9783Y-3.7598
X7.1555Y-3.5039
X7.1555Y-3.7598
X6.9783Y-5.4921
X6.9783Y-5.748
X7.1555Y-5.4921
X7.1555Y-5.748
X5.3051Y-5.4921
X5.3051Y-5.748
X5.4823Y-5.4921
X5.4823Y-5.748
T6
X6.5846Y-4.9803
X6.9291Y-4.9803
T0
M30
