G04 #@! TF.GenerationSoftware,KiCad,Pcbnew,5.1.5-52549c5~84~ubuntu18.04.1*
G04 #@! TF.CreationDate,2020-01-25T11:43:56+01:00*
G04 #@! TF.ProjectId,Nokolino,4e6f6b6f-6c69-46e6-9f2e-6b696361645f,3.0*
G04 #@! TF.SameCoordinates,Original*
G04 #@! TF.FileFunction,Soldermask,Bot*
G04 #@! TF.FilePolarity,Negative*
%FSLAX46Y46*%
G04 Gerber Fmt 4.6, Leading zero omitted, Abs format (unit mm)*
G04 Created by KiCad (PCBNEW 5.1.5-52549c5~84~ubuntu18.04.1) date 2020-01-25 11:43:56*
%MOMM*%
%LPD*%
G04 APERTURE LIST*
%ADD10C,0.100000*%
G04 APERTURE END LIST*
D10*
G36*
X139600026Y-144846115D02*
G01*
X139798945Y-144928510D01*
X139818413Y-144936574D01*
X140014955Y-145067899D01*
X140182101Y-145235045D01*
X140290133Y-145396726D01*
X140313427Y-145431589D01*
X140403885Y-145649974D01*
X140450000Y-145881809D01*
X140450000Y-146118191D01*
X140403885Y-146350026D01*
X140313427Y-146568411D01*
X140313426Y-146568413D01*
X140182101Y-146764955D01*
X140014955Y-146932101D01*
X139818413Y-147063426D01*
X139818412Y-147063427D01*
X139818411Y-147063427D01*
X139600026Y-147153885D01*
X139368191Y-147200000D01*
X139131809Y-147200000D01*
X138899974Y-147153885D01*
X138681589Y-147063427D01*
X138681588Y-147063427D01*
X138681587Y-147063426D01*
X138485045Y-146932101D01*
X138317899Y-146764955D01*
X138186574Y-146568413D01*
X138186573Y-146568411D01*
X138096115Y-146350026D01*
X138050000Y-146118191D01*
X138050000Y-145881809D01*
X138096115Y-145649974D01*
X138186573Y-145431589D01*
X138209868Y-145396726D01*
X138317899Y-145235045D01*
X138485045Y-145067899D01*
X138681587Y-144936574D01*
X138701055Y-144928510D01*
X138899974Y-144846115D01*
X139131809Y-144800000D01*
X139368191Y-144800000D01*
X139600026Y-144846115D01*
G37*
G36*
X177600026Y-144846115D02*
G01*
X177798945Y-144928510D01*
X177818413Y-144936574D01*
X178014955Y-145067899D01*
X178182101Y-145235045D01*
X178290133Y-145396726D01*
X178313427Y-145431589D01*
X178403885Y-145649974D01*
X178450000Y-145881809D01*
X178450000Y-146118191D01*
X178403885Y-146350026D01*
X178313427Y-146568411D01*
X178313426Y-146568413D01*
X178182101Y-146764955D01*
X178014955Y-146932101D01*
X177818413Y-147063426D01*
X177818412Y-147063427D01*
X177818411Y-147063427D01*
X177600026Y-147153885D01*
X177368191Y-147200000D01*
X177131809Y-147200000D01*
X176899974Y-147153885D01*
X176681589Y-147063427D01*
X176681588Y-147063427D01*
X176681587Y-147063426D01*
X176485045Y-146932101D01*
X176317899Y-146764955D01*
X176186574Y-146568413D01*
X176186573Y-146568411D01*
X176096115Y-146350026D01*
X176050000Y-146118191D01*
X176050000Y-145881809D01*
X176096115Y-145649974D01*
X176186573Y-145431589D01*
X176209868Y-145396726D01*
X176317899Y-145235045D01*
X176485045Y-145067899D01*
X176681587Y-144936574D01*
X176701055Y-144928510D01*
X176899974Y-144846115D01*
X177131809Y-144800000D01*
X177368191Y-144800000D01*
X177600026Y-144846115D01*
G37*
G36*
X182100026Y-144846115D02*
G01*
X182298945Y-144928510D01*
X182318413Y-144936574D01*
X182514955Y-145067899D01*
X182682101Y-145235045D01*
X182790133Y-145396726D01*
X182813427Y-145431589D01*
X182903885Y-145649974D01*
X182950000Y-145881809D01*
X182950000Y-146118191D01*
X182903885Y-146350026D01*
X182813427Y-146568411D01*
X182813426Y-146568413D01*
X182682101Y-146764955D01*
X182514955Y-146932101D01*
X182318413Y-147063426D01*
X182318412Y-147063427D01*
X182318411Y-147063427D01*
X182100026Y-147153885D01*
X181868191Y-147200000D01*
X181631809Y-147200000D01*
X181399974Y-147153885D01*
X181181589Y-147063427D01*
X181181588Y-147063427D01*
X181181587Y-147063426D01*
X180985045Y-146932101D01*
X180817899Y-146764955D01*
X180686574Y-146568413D01*
X180686573Y-146568411D01*
X180596115Y-146350026D01*
X180550000Y-146118191D01*
X180550000Y-145881809D01*
X180596115Y-145649974D01*
X180686573Y-145431589D01*
X180709868Y-145396726D01*
X180817899Y-145235045D01*
X180985045Y-145067899D01*
X181181587Y-144936574D01*
X181201055Y-144928510D01*
X181399974Y-144846115D01*
X181631809Y-144800000D01*
X181868191Y-144800000D01*
X182100026Y-144846115D01*
G37*
G36*
X135100026Y-144846115D02*
G01*
X135298945Y-144928510D01*
X135318413Y-144936574D01*
X135514955Y-145067899D01*
X135682101Y-145235045D01*
X135790133Y-145396726D01*
X135813427Y-145431589D01*
X135903885Y-145649974D01*
X135950000Y-145881809D01*
X135950000Y-146118191D01*
X135903885Y-146350026D01*
X135813427Y-146568411D01*
X135813426Y-146568413D01*
X135682101Y-146764955D01*
X135514955Y-146932101D01*
X135318413Y-147063426D01*
X135318412Y-147063427D01*
X135318411Y-147063427D01*
X135100026Y-147153885D01*
X134868191Y-147200000D01*
X134631809Y-147200000D01*
X134399974Y-147153885D01*
X134181589Y-147063427D01*
X134181588Y-147063427D01*
X134181587Y-147063426D01*
X133985045Y-146932101D01*
X133817899Y-146764955D01*
X133686574Y-146568413D01*
X133686573Y-146568411D01*
X133596115Y-146350026D01*
X133550000Y-146118191D01*
X133550000Y-145881809D01*
X133596115Y-145649974D01*
X133686573Y-145431589D01*
X133709868Y-145396726D01*
X133817899Y-145235045D01*
X133985045Y-145067899D01*
X134181587Y-144936574D01*
X134201055Y-144928510D01*
X134399974Y-144846115D01*
X134631809Y-144800000D01*
X134868191Y-144800000D01*
X135100026Y-144846115D01*
G37*
G36*
X170949126Y-144096015D02*
G01*
X171167511Y-144186473D01*
X171167513Y-144186474D01*
X171310096Y-144281745D01*
X171364055Y-144317799D01*
X171531201Y-144484945D01*
X171662527Y-144681489D01*
X171752985Y-144899874D01*
X171799100Y-145131709D01*
X171799100Y-145368091D01*
X171752985Y-145599926D01*
X171732254Y-145649974D01*
X171662526Y-145818313D01*
X171531201Y-146014855D01*
X171364055Y-146182001D01*
X171167513Y-146313326D01*
X171167512Y-146313327D01*
X171167511Y-146313327D01*
X170949126Y-146403785D01*
X170717291Y-146449900D01*
X170480909Y-146449900D01*
X170249074Y-146403785D01*
X170030689Y-146313327D01*
X170030688Y-146313327D01*
X170030687Y-146313326D01*
X169834145Y-146182001D01*
X169666999Y-146014855D01*
X169535674Y-145818313D01*
X169465946Y-145649974D01*
X169445215Y-145599926D01*
X169399100Y-145368091D01*
X169399100Y-145131709D01*
X169445215Y-144899874D01*
X169535673Y-144681489D01*
X169666999Y-144484945D01*
X169834145Y-144317799D01*
X169888104Y-144281745D01*
X170030687Y-144186474D01*
X170030689Y-144186473D01*
X170249074Y-144096015D01*
X170480909Y-144049900D01*
X170717291Y-144049900D01*
X170949126Y-144096015D01*
G37*
G36*
X148089126Y-143892815D02*
G01*
X148307511Y-143983273D01*
X148307513Y-143983274D01*
X148504055Y-144114599D01*
X148671201Y-144281745D01*
X148802527Y-144478289D01*
X148892985Y-144696674D01*
X148939100Y-144928509D01*
X148939100Y-145164891D01*
X148892985Y-145396726D01*
X148878545Y-145431587D01*
X148802526Y-145615113D01*
X148671201Y-145811655D01*
X148504055Y-145978801D01*
X148307513Y-146110126D01*
X148307512Y-146110127D01*
X148307511Y-146110127D01*
X148089126Y-146200585D01*
X147857291Y-146246700D01*
X147620909Y-146246700D01*
X147389074Y-146200585D01*
X147170689Y-146110127D01*
X147170688Y-146110127D01*
X147170687Y-146110126D01*
X146974145Y-145978801D01*
X146806999Y-145811655D01*
X146675674Y-145615113D01*
X146599655Y-145431587D01*
X146585215Y-145396726D01*
X146539100Y-145164891D01*
X146539100Y-144928509D01*
X146585215Y-144696674D01*
X146675673Y-144478289D01*
X146806999Y-144281745D01*
X146974145Y-144114599D01*
X147170687Y-143983274D01*
X147170689Y-143983273D01*
X147389074Y-143892815D01*
X147620909Y-143846700D01*
X147857291Y-143846700D01*
X148089126Y-143892815D01*
G37*
G36*
X148089126Y-141149615D02*
G01*
X148307511Y-141240073D01*
X148307513Y-141240074D01*
X148504055Y-141371399D01*
X148671201Y-141538545D01*
X148802527Y-141735089D01*
X148892985Y-141953474D01*
X148939100Y-142185309D01*
X148939100Y-142421691D01*
X148892985Y-142653526D01*
X148802527Y-142871911D01*
X148802526Y-142871913D01*
X148671201Y-143068455D01*
X148504055Y-143235601D01*
X148307513Y-143366926D01*
X148307512Y-143366927D01*
X148307511Y-143366927D01*
X148089126Y-143457385D01*
X147857291Y-143503500D01*
X147620909Y-143503500D01*
X147389074Y-143457385D01*
X147170689Y-143366927D01*
X147170688Y-143366927D01*
X147170687Y-143366926D01*
X146974145Y-143235601D01*
X146806999Y-143068455D01*
X146675674Y-142871913D01*
X146675673Y-142871911D01*
X146585215Y-142653526D01*
X146539100Y-142421691D01*
X146539100Y-142185309D01*
X146585215Y-141953474D01*
X146675673Y-141735089D01*
X146806999Y-141538545D01*
X146974145Y-141371399D01*
X147170687Y-141240074D01*
X147170689Y-141240073D01*
X147389074Y-141149615D01*
X147620909Y-141103500D01*
X147857291Y-141103500D01*
X148089126Y-141149615D01*
G37*
G36*
X182100026Y-138346115D02*
G01*
X182318411Y-138436573D01*
X182318413Y-138436574D01*
X182514955Y-138567899D01*
X182682101Y-138735045D01*
X182813427Y-138931589D01*
X182903885Y-139149974D01*
X182950000Y-139381809D01*
X182950000Y-139618191D01*
X182903885Y-139850026D01*
X182813427Y-140068411D01*
X182813426Y-140068413D01*
X182682101Y-140264955D01*
X182514955Y-140432101D01*
X182318413Y-140563426D01*
X182318412Y-140563427D01*
X182318411Y-140563427D01*
X182100026Y-140653885D01*
X181868191Y-140700000D01*
X181631809Y-140700000D01*
X181399974Y-140653885D01*
X181181589Y-140563427D01*
X181181588Y-140563427D01*
X181181587Y-140563426D01*
X180985045Y-140432101D01*
X180817899Y-140264955D01*
X180686574Y-140068413D01*
X180686573Y-140068411D01*
X180596115Y-139850026D01*
X180550000Y-139618191D01*
X180550000Y-139381809D01*
X180596115Y-139149974D01*
X180686573Y-138931589D01*
X180817899Y-138735045D01*
X180985045Y-138567899D01*
X181181587Y-138436574D01*
X181181589Y-138436573D01*
X181399974Y-138346115D01*
X181631809Y-138300000D01*
X181868191Y-138300000D01*
X182100026Y-138346115D01*
G37*
G36*
X139600026Y-138346115D02*
G01*
X139818411Y-138436573D01*
X139818413Y-138436574D01*
X140014955Y-138567899D01*
X140182101Y-138735045D01*
X140313427Y-138931589D01*
X140403885Y-139149974D01*
X140450000Y-139381809D01*
X140450000Y-139618191D01*
X140403885Y-139850026D01*
X140313427Y-140068411D01*
X140313426Y-140068413D01*
X140182101Y-140264955D01*
X140014955Y-140432101D01*
X139818413Y-140563426D01*
X139818412Y-140563427D01*
X139818411Y-140563427D01*
X139600026Y-140653885D01*
X139368191Y-140700000D01*
X139131809Y-140700000D01*
X138899974Y-140653885D01*
X138681589Y-140563427D01*
X138681588Y-140563427D01*
X138681587Y-140563426D01*
X138485045Y-140432101D01*
X138317899Y-140264955D01*
X138186574Y-140068413D01*
X138186573Y-140068411D01*
X138096115Y-139850026D01*
X138050000Y-139618191D01*
X138050000Y-139381809D01*
X138096115Y-139149974D01*
X138186573Y-138931589D01*
X138317899Y-138735045D01*
X138485045Y-138567899D01*
X138681587Y-138436574D01*
X138681589Y-138436573D01*
X138899974Y-138346115D01*
X139131809Y-138300000D01*
X139368191Y-138300000D01*
X139600026Y-138346115D01*
G37*
G36*
X135100026Y-138346115D02*
G01*
X135318411Y-138436573D01*
X135318413Y-138436574D01*
X135514955Y-138567899D01*
X135682101Y-138735045D01*
X135813427Y-138931589D01*
X135903885Y-139149974D01*
X135950000Y-139381809D01*
X135950000Y-139618191D01*
X135903885Y-139850026D01*
X135813427Y-140068411D01*
X135813426Y-140068413D01*
X135682101Y-140264955D01*
X135514955Y-140432101D01*
X135318413Y-140563426D01*
X135318412Y-140563427D01*
X135318411Y-140563427D01*
X135100026Y-140653885D01*
X134868191Y-140700000D01*
X134631809Y-140700000D01*
X134399974Y-140653885D01*
X134181589Y-140563427D01*
X134181588Y-140563427D01*
X134181587Y-140563426D01*
X133985045Y-140432101D01*
X133817899Y-140264955D01*
X133686574Y-140068413D01*
X133686573Y-140068411D01*
X133596115Y-139850026D01*
X133550000Y-139618191D01*
X133550000Y-139381809D01*
X133596115Y-139149974D01*
X133686573Y-138931589D01*
X133817899Y-138735045D01*
X133985045Y-138567899D01*
X134181587Y-138436574D01*
X134181589Y-138436573D01*
X134399974Y-138346115D01*
X134631809Y-138300000D01*
X134868191Y-138300000D01*
X135100026Y-138346115D01*
G37*
G36*
X177600026Y-138346115D02*
G01*
X177818411Y-138436573D01*
X177818413Y-138436574D01*
X178014955Y-138567899D01*
X178182101Y-138735045D01*
X178313427Y-138931589D01*
X178403885Y-139149974D01*
X178450000Y-139381809D01*
X178450000Y-139618191D01*
X178403885Y-139850026D01*
X178313427Y-140068411D01*
X178313426Y-140068413D01*
X178182101Y-140264955D01*
X178014955Y-140432101D01*
X177818413Y-140563426D01*
X177818412Y-140563427D01*
X177818411Y-140563427D01*
X177600026Y-140653885D01*
X177368191Y-140700000D01*
X177131809Y-140700000D01*
X176899974Y-140653885D01*
X176681589Y-140563427D01*
X176681588Y-140563427D01*
X176681587Y-140563426D01*
X176485045Y-140432101D01*
X176317899Y-140264955D01*
X176186574Y-140068413D01*
X176186573Y-140068411D01*
X176096115Y-139850026D01*
X176050000Y-139618191D01*
X176050000Y-139381809D01*
X176096115Y-139149974D01*
X176186573Y-138931589D01*
X176317899Y-138735045D01*
X176485045Y-138567899D01*
X176681587Y-138436574D01*
X176681589Y-138436573D01*
X176899974Y-138346115D01*
X177131809Y-138300000D01*
X177368191Y-138300000D01*
X177600026Y-138346115D01*
G37*
G36*
X135616837Y-134861458D02*
G01*
X135697638Y-134869416D01*
X135851034Y-134915949D01*
X135904992Y-134932317D01*
X136096084Y-135034457D01*
X136263581Y-135171919D01*
X136401043Y-135339416D01*
X136503183Y-135530508D01*
X136503184Y-135530512D01*
X136566084Y-135737862D01*
X136587322Y-135953500D01*
X136566084Y-136169138D01*
X136519551Y-136322534D01*
X136503183Y-136376492D01*
X136401043Y-136567584D01*
X136263581Y-136735081D01*
X136096084Y-136872543D01*
X135904992Y-136974683D01*
X135851034Y-136991051D01*
X135697638Y-137037584D01*
X135616837Y-137045542D01*
X135536038Y-137053500D01*
X135227962Y-137053500D01*
X135147163Y-137045542D01*
X135066362Y-137037584D01*
X134912966Y-136991051D01*
X134859008Y-136974683D01*
X134667916Y-136872543D01*
X134500419Y-136735081D01*
X134362957Y-136567584D01*
X134260817Y-136376492D01*
X134244449Y-136322534D01*
X134197916Y-136169138D01*
X134176678Y-135953500D01*
X134197916Y-135737862D01*
X134260816Y-135530512D01*
X134260817Y-135530508D01*
X134362957Y-135339416D01*
X134500419Y-135171919D01*
X134667916Y-135034457D01*
X134859008Y-134932317D01*
X134912966Y-134915949D01*
X135066362Y-134869416D01*
X135147163Y-134861458D01*
X135227962Y-134853500D01*
X135536038Y-134853500D01*
X135616837Y-134861458D01*
G37*
G36*
X144202000Y-137053500D02*
G01*
X141802000Y-137053500D01*
X141802000Y-134853500D01*
X144202000Y-134853500D01*
X144202000Y-137053500D01*
G37*
G36*
X148089126Y-133529615D02*
G01*
X148307511Y-133620073D01*
X148307513Y-133620074D01*
X148321075Y-133629136D01*
X148504055Y-133751399D01*
X148671201Y-133918545D01*
X148802527Y-134115089D01*
X148892985Y-134333474D01*
X148939100Y-134565309D01*
X148939100Y-134801691D01*
X148892985Y-135033526D01*
X148802527Y-135251911D01*
X148802526Y-135251913D01*
X148671201Y-135448455D01*
X148504055Y-135615601D01*
X148307513Y-135746926D01*
X148307512Y-135746927D01*
X148307511Y-135746927D01*
X148089126Y-135837385D01*
X147857291Y-135883500D01*
X147620909Y-135883500D01*
X147389074Y-135837385D01*
X147170689Y-135746927D01*
X147170688Y-135746927D01*
X147170687Y-135746926D01*
X146974145Y-135615601D01*
X146806999Y-135448455D01*
X146675674Y-135251913D01*
X146675673Y-135251911D01*
X146585215Y-135033526D01*
X146539100Y-134801691D01*
X146539100Y-134565309D01*
X146585215Y-134333474D01*
X146675673Y-134115089D01*
X146806999Y-133918545D01*
X146974145Y-133751399D01*
X147157125Y-133629136D01*
X147170687Y-133620074D01*
X147170689Y-133620073D01*
X147389074Y-133529615D01*
X147620909Y-133483500D01*
X147857291Y-133483500D01*
X148089126Y-133529615D01*
G37*
G36*
X143236837Y-132321458D02*
G01*
X143317638Y-132329416D01*
X143471034Y-132375949D01*
X143524992Y-132392317D01*
X143716084Y-132494457D01*
X143883581Y-132631919D01*
X144021043Y-132799416D01*
X144123183Y-132990508D01*
X144127193Y-133003727D01*
X144186084Y-133197862D01*
X144207322Y-133413500D01*
X144186084Y-133629138D01*
X144148996Y-133751399D01*
X144123183Y-133836492D01*
X144021043Y-134027584D01*
X143883581Y-134195081D01*
X143716084Y-134332543D01*
X143524992Y-134434683D01*
X143471034Y-134451051D01*
X143317638Y-134497584D01*
X143236837Y-134505542D01*
X143156038Y-134513500D01*
X142847962Y-134513500D01*
X142767163Y-134505542D01*
X142686362Y-134497584D01*
X142532966Y-134451051D01*
X142479008Y-134434683D01*
X142287916Y-134332543D01*
X142120419Y-134195081D01*
X141982957Y-134027584D01*
X141880817Y-133836492D01*
X141855004Y-133751399D01*
X141817916Y-133629138D01*
X141796678Y-133413500D01*
X141817916Y-133197862D01*
X141876807Y-133003727D01*
X141880817Y-132990508D01*
X141982957Y-132799416D01*
X142120419Y-132631919D01*
X142287916Y-132494457D01*
X142479008Y-132392317D01*
X142532966Y-132375949D01*
X142686362Y-132329416D01*
X142767163Y-132321458D01*
X142847962Y-132313500D01*
X143156038Y-132313500D01*
X143236837Y-132321458D01*
G37*
G36*
X135616837Y-132321458D02*
G01*
X135697638Y-132329416D01*
X135851034Y-132375949D01*
X135904992Y-132392317D01*
X136096084Y-132494457D01*
X136263581Y-132631919D01*
X136401043Y-132799416D01*
X136503183Y-132990508D01*
X136507193Y-133003727D01*
X136566084Y-133197862D01*
X136587322Y-133413500D01*
X136566084Y-133629138D01*
X136528996Y-133751399D01*
X136503183Y-133836492D01*
X136401043Y-134027584D01*
X136263581Y-134195081D01*
X136096084Y-134332543D01*
X135904992Y-134434683D01*
X135851034Y-134451051D01*
X135697638Y-134497584D01*
X135616837Y-134505542D01*
X135536038Y-134513500D01*
X135227962Y-134513500D01*
X135147163Y-134505542D01*
X135066362Y-134497584D01*
X134912966Y-134451051D01*
X134859008Y-134434683D01*
X134667916Y-134332543D01*
X134500419Y-134195081D01*
X134362957Y-134027584D01*
X134260817Y-133836492D01*
X134235004Y-133751399D01*
X134197916Y-133629138D01*
X134176678Y-133413500D01*
X134197916Y-133197862D01*
X134256807Y-133003727D01*
X134260817Y-132990508D01*
X134362957Y-132799416D01*
X134500419Y-132631919D01*
X134667916Y-132494457D01*
X134859008Y-132392317D01*
X134912966Y-132375949D01*
X135066362Y-132329416D01*
X135147163Y-132321458D01*
X135227962Y-132313500D01*
X135536038Y-132313500D01*
X135616837Y-132321458D01*
G37*
G36*
X148089126Y-130786415D02*
G01*
X148307511Y-130876873D01*
X148307513Y-130876874D01*
X148450096Y-130972145D01*
X148504055Y-131008199D01*
X148671201Y-131175345D01*
X148802527Y-131371889D01*
X148892985Y-131590274D01*
X148939100Y-131822109D01*
X148939100Y-132058491D01*
X148892985Y-132290326D01*
X148876793Y-132329416D01*
X148802526Y-132508713D01*
X148671201Y-132705255D01*
X148504055Y-132872401D01*
X148307513Y-133003726D01*
X148307512Y-133003727D01*
X148307511Y-133003727D01*
X148089126Y-133094185D01*
X147857291Y-133140300D01*
X147620909Y-133140300D01*
X147389074Y-133094185D01*
X147170689Y-133003727D01*
X147170688Y-133003727D01*
X147170687Y-133003726D01*
X146974145Y-132872401D01*
X146806999Y-132705255D01*
X146675674Y-132508713D01*
X146601407Y-132329416D01*
X146585215Y-132290326D01*
X146539100Y-132058491D01*
X146539100Y-131822109D01*
X146585215Y-131590274D01*
X146675673Y-131371889D01*
X146806999Y-131175345D01*
X146974145Y-131008199D01*
X147028104Y-130972145D01*
X147170687Y-130876874D01*
X147170689Y-130876873D01*
X147389074Y-130786415D01*
X147620909Y-130740300D01*
X147857291Y-130740300D01*
X148089126Y-130786415D01*
G37*
G36*
X170949126Y-130583215D02*
G01*
X171167511Y-130673673D01*
X171167513Y-130673674D01*
X171364055Y-130804999D01*
X171531201Y-130972145D01*
X171662527Y-131168689D01*
X171752985Y-131387074D01*
X171799100Y-131618909D01*
X171799100Y-131855291D01*
X171752985Y-132087126D01*
X171668817Y-132290326D01*
X171662526Y-132305513D01*
X171531201Y-132502055D01*
X171364055Y-132669201D01*
X171167513Y-132800526D01*
X171167512Y-132800527D01*
X171167511Y-132800527D01*
X170949126Y-132890985D01*
X170717291Y-132937100D01*
X170480909Y-132937100D01*
X170249074Y-132890985D01*
X170030689Y-132800527D01*
X170030688Y-132800527D01*
X170030687Y-132800526D01*
X169834145Y-132669201D01*
X169666999Y-132502055D01*
X169535674Y-132305513D01*
X169529383Y-132290326D01*
X169445215Y-132087126D01*
X169399100Y-131855291D01*
X169399100Y-131618909D01*
X169445215Y-131387074D01*
X169535673Y-131168689D01*
X169666999Y-130972145D01*
X169834145Y-130804999D01*
X170030687Y-130673674D01*
X170030689Y-130673673D01*
X170249074Y-130583215D01*
X170480909Y-130537100D01*
X170717291Y-130537100D01*
X170949126Y-130583215D01*
G37*
G36*
X135616837Y-129781458D02*
G01*
X135697638Y-129789416D01*
X135851034Y-129835949D01*
X135904992Y-129852317D01*
X136096084Y-129954457D01*
X136263581Y-130091919D01*
X136401043Y-130259416D01*
X136503183Y-130450508D01*
X136503184Y-130450512D01*
X136566084Y-130657862D01*
X136587322Y-130873500D01*
X136566084Y-131089138D01*
X136541952Y-131168689D01*
X136503183Y-131296492D01*
X136401043Y-131487584D01*
X136263581Y-131655081D01*
X136096084Y-131792543D01*
X135904992Y-131894683D01*
X135851034Y-131911051D01*
X135697638Y-131957584D01*
X135616837Y-131965542D01*
X135536038Y-131973500D01*
X135227962Y-131973500D01*
X135147163Y-131965542D01*
X135066362Y-131957584D01*
X134912966Y-131911051D01*
X134859008Y-131894683D01*
X134667916Y-131792543D01*
X134500419Y-131655081D01*
X134362957Y-131487584D01*
X134260817Y-131296492D01*
X134222048Y-131168689D01*
X134197916Y-131089138D01*
X134176678Y-130873500D01*
X134197916Y-130657862D01*
X134260816Y-130450512D01*
X134260817Y-130450508D01*
X134362957Y-130259416D01*
X134500419Y-130091919D01*
X134667916Y-129954457D01*
X134859008Y-129852317D01*
X134912966Y-129835949D01*
X135066362Y-129789416D01*
X135147163Y-129781458D01*
X135227962Y-129773500D01*
X135536038Y-129773500D01*
X135616837Y-129781458D01*
G37*
G36*
X143236837Y-129781458D02*
G01*
X143317638Y-129789416D01*
X143471034Y-129835949D01*
X143524992Y-129852317D01*
X143716084Y-129954457D01*
X143883581Y-130091919D01*
X144021043Y-130259416D01*
X144123183Y-130450508D01*
X144123184Y-130450512D01*
X144186084Y-130657862D01*
X144207322Y-130873500D01*
X144186084Y-131089138D01*
X144161952Y-131168689D01*
X144123183Y-131296492D01*
X144021043Y-131487584D01*
X143883581Y-131655081D01*
X143716084Y-131792543D01*
X143524992Y-131894683D01*
X143471034Y-131911051D01*
X143317638Y-131957584D01*
X143236837Y-131965542D01*
X143156038Y-131973500D01*
X142847962Y-131973500D01*
X142767163Y-131965542D01*
X142686362Y-131957584D01*
X142532966Y-131911051D01*
X142479008Y-131894683D01*
X142287916Y-131792543D01*
X142120419Y-131655081D01*
X141982957Y-131487584D01*
X141880817Y-131296492D01*
X141842048Y-131168689D01*
X141817916Y-131089138D01*
X141796678Y-130873500D01*
X141817916Y-130657862D01*
X141880816Y-130450512D01*
X141880817Y-130450508D01*
X141982957Y-130259416D01*
X142120419Y-130091919D01*
X142287916Y-129954457D01*
X142479008Y-129852317D01*
X142532966Y-129835949D01*
X142686362Y-129789416D01*
X142767163Y-129781458D01*
X142847962Y-129773500D01*
X143156038Y-129773500D01*
X143236837Y-129781458D01*
G37*
G36*
X167931870Y-123576859D02*
G01*
X168125068Y-123615288D01*
X168511122Y-123775197D01*
X168550936Y-123791688D01*
X168671033Y-123841434D01*
X168779878Y-123914162D01*
X169162388Y-124169747D01*
X169580253Y-124587612D01*
X169722166Y-124800000D01*
X169908566Y-125078967D01*
X170132945Y-125620665D01*
X170134712Y-125624933D01*
X170246432Y-126186584D01*
X170250000Y-126204526D01*
X170250000Y-126795474D01*
X170134712Y-127375068D01*
X169908566Y-127921033D01*
X169743295Y-128168378D01*
X169580253Y-128412388D01*
X169162388Y-128830253D01*
X168918378Y-128993295D01*
X168671033Y-129158566D01*
X168125068Y-129384712D01*
X167959809Y-129417584D01*
X167545476Y-129500000D01*
X166954524Y-129500000D01*
X166540191Y-129417584D01*
X166374932Y-129384712D01*
X165828967Y-129158566D01*
X165581622Y-128993295D01*
X165337612Y-128830253D01*
X164919747Y-128412388D01*
X164756705Y-128168378D01*
X164591434Y-127921033D01*
X164365288Y-127375068D01*
X164250000Y-126795474D01*
X164250000Y-126204526D01*
X164253569Y-126186584D01*
X164365288Y-125624933D01*
X164367056Y-125620665D01*
X164591434Y-125078967D01*
X164777834Y-124800000D01*
X164919747Y-124587612D01*
X165337612Y-124169747D01*
X165720122Y-123914162D01*
X165828967Y-123841434D01*
X165949065Y-123791688D01*
X165988878Y-123775197D01*
X166374932Y-123615288D01*
X166568130Y-123576859D01*
X166954524Y-123500000D01*
X167545476Y-123500000D01*
X167931870Y-123576859D01*
G37*
G36*
X176681870Y-123576859D02*
G01*
X176875068Y-123615288D01*
X177261122Y-123775197D01*
X177300936Y-123791688D01*
X177421033Y-123841434D01*
X177529878Y-123914162D01*
X177912388Y-124169747D01*
X178330253Y-124587612D01*
X178472166Y-124800000D01*
X178658566Y-125078967D01*
X178882945Y-125620665D01*
X178884712Y-125624933D01*
X178996432Y-126186584D01*
X179000000Y-126204526D01*
X179000000Y-126795474D01*
X178884712Y-127375068D01*
X178658566Y-127921033D01*
X178493295Y-128168378D01*
X178330253Y-128412388D01*
X177912388Y-128830253D01*
X177668378Y-128993295D01*
X177421033Y-129158566D01*
X176875068Y-129384712D01*
X176709809Y-129417584D01*
X176295476Y-129500000D01*
X175704524Y-129500000D01*
X175290191Y-129417584D01*
X175124932Y-129384712D01*
X174578967Y-129158566D01*
X174331622Y-128993295D01*
X174087612Y-128830253D01*
X173669747Y-128412388D01*
X173506705Y-128168378D01*
X173341434Y-127921033D01*
X173115288Y-127375068D01*
X173000000Y-126795474D01*
X173000000Y-126204526D01*
X173003569Y-126186584D01*
X173115288Y-125624933D01*
X173117056Y-125620665D01*
X173341434Y-125078967D01*
X173527834Y-124800000D01*
X173669747Y-124587612D01*
X174087612Y-124169747D01*
X174470122Y-123914162D01*
X174578967Y-123841434D01*
X174699065Y-123791688D01*
X174738878Y-123775197D01*
X175124932Y-123615288D01*
X175318130Y-123576859D01*
X175704524Y-123500000D01*
X176295476Y-123500000D01*
X176681870Y-123576859D01*
G37*
G36*
X135616837Y-127241458D02*
G01*
X135697638Y-127249416D01*
X135851034Y-127295949D01*
X135904992Y-127312317D01*
X136096084Y-127414457D01*
X136263581Y-127551919D01*
X136401043Y-127719416D01*
X136503183Y-127910508D01*
X136503184Y-127910512D01*
X136566084Y-128117862D01*
X136587322Y-128333500D01*
X136566084Y-128549138D01*
X136519551Y-128702534D01*
X136503183Y-128756492D01*
X136401043Y-128947584D01*
X136263581Y-129115081D01*
X136096084Y-129252543D01*
X135904992Y-129354683D01*
X135851034Y-129371051D01*
X135697638Y-129417584D01*
X135616837Y-129425542D01*
X135536038Y-129433500D01*
X135227962Y-129433500D01*
X135147163Y-129425542D01*
X135066362Y-129417584D01*
X134912966Y-129371051D01*
X134859008Y-129354683D01*
X134667916Y-129252543D01*
X134500419Y-129115081D01*
X134362957Y-128947584D01*
X134260817Y-128756492D01*
X134244449Y-128702534D01*
X134197916Y-128549138D01*
X134176678Y-128333500D01*
X134197916Y-128117862D01*
X134260816Y-127910512D01*
X134260817Y-127910508D01*
X134362957Y-127719416D01*
X134500419Y-127551919D01*
X134667916Y-127414457D01*
X134859008Y-127312317D01*
X134912966Y-127295949D01*
X135066362Y-127249416D01*
X135147163Y-127241458D01*
X135227962Y-127233500D01*
X135536038Y-127233500D01*
X135616837Y-127241458D01*
G37*
G36*
X143236837Y-127241458D02*
G01*
X143317638Y-127249416D01*
X143471034Y-127295949D01*
X143524992Y-127312317D01*
X143716084Y-127414457D01*
X143883581Y-127551919D01*
X144021043Y-127719416D01*
X144123183Y-127910508D01*
X144123184Y-127910512D01*
X144186084Y-128117862D01*
X144207322Y-128333500D01*
X144186084Y-128549138D01*
X144139551Y-128702534D01*
X144123183Y-128756492D01*
X144021043Y-128947584D01*
X143883581Y-129115081D01*
X143716084Y-129252543D01*
X143524992Y-129354683D01*
X143471034Y-129371051D01*
X143317638Y-129417584D01*
X143236837Y-129425542D01*
X143156038Y-129433500D01*
X142847962Y-129433500D01*
X142767163Y-129425542D01*
X142686362Y-129417584D01*
X142532966Y-129371051D01*
X142479008Y-129354683D01*
X142287916Y-129252543D01*
X142120419Y-129115081D01*
X141982957Y-128947584D01*
X141880817Y-128756492D01*
X141864449Y-128702534D01*
X141817916Y-128549138D01*
X141796678Y-128333500D01*
X141817916Y-128117862D01*
X141880816Y-127910512D01*
X141880817Y-127910508D01*
X141982957Y-127719416D01*
X142120419Y-127551919D01*
X142287916Y-127414457D01*
X142479008Y-127312317D01*
X142532966Y-127295949D01*
X142686362Y-127249416D01*
X142767163Y-127241458D01*
X142847962Y-127233500D01*
X143156038Y-127233500D01*
X143236837Y-127241458D01*
G37*
G36*
X181378687Y-125245027D02*
G01*
X181556274Y-125280350D01*
X181747362Y-125359502D01*
X181919336Y-125474411D01*
X182065589Y-125620664D01*
X182180498Y-125792638D01*
X182259650Y-125983726D01*
X182300000Y-126186584D01*
X182300000Y-126393416D01*
X182259650Y-126596274D01*
X182180498Y-126787362D01*
X182065589Y-126959336D01*
X181919336Y-127105589D01*
X181747362Y-127220498D01*
X181556274Y-127299650D01*
X181378687Y-127334973D01*
X181353417Y-127340000D01*
X181146583Y-127340000D01*
X181121313Y-127334973D01*
X180943726Y-127299650D01*
X180752638Y-127220498D01*
X180580664Y-127105589D01*
X180434411Y-126959336D01*
X180319502Y-126787362D01*
X180240350Y-126596274D01*
X180200000Y-126393416D01*
X180200000Y-126186584D01*
X180240350Y-125983726D01*
X180319502Y-125792638D01*
X180434411Y-125620664D01*
X180580664Y-125474411D01*
X180752638Y-125359502D01*
X180943726Y-125280350D01*
X181121313Y-125245027D01*
X181146583Y-125240000D01*
X181353417Y-125240000D01*
X181378687Y-125245027D01*
G37*
G36*
X154349337Y-123037758D02*
G01*
X154430138Y-123045716D01*
X154583534Y-123092249D01*
X154637492Y-123108617D01*
X154828584Y-123210757D01*
X154996081Y-123348219D01*
X155133543Y-123515716D01*
X155235683Y-123706808D01*
X155235684Y-123706812D01*
X155298584Y-123914162D01*
X155319822Y-124129800D01*
X155298584Y-124345438D01*
X155286222Y-124386189D01*
X155235683Y-124552792D01*
X155133543Y-124743884D01*
X154996081Y-124911381D01*
X154828584Y-125048843D01*
X154637492Y-125150983D01*
X154583534Y-125167351D01*
X154430138Y-125213884D01*
X154349337Y-125221842D01*
X154268538Y-125229800D01*
X153960462Y-125229800D01*
X153879663Y-125221842D01*
X153798862Y-125213884D01*
X153645466Y-125167351D01*
X153591508Y-125150983D01*
X153400416Y-125048843D01*
X153232919Y-124911381D01*
X153095457Y-124743884D01*
X152993317Y-124552792D01*
X152942778Y-124386189D01*
X152930416Y-124345438D01*
X152909178Y-124129800D01*
X152930416Y-123914162D01*
X152993316Y-123706812D01*
X152993317Y-123706808D01*
X153095457Y-123515716D01*
X153232919Y-123348219D01*
X153400416Y-123210757D01*
X153591508Y-123108617D01*
X153645466Y-123092249D01*
X153798862Y-123045716D01*
X153879663Y-123037758D01*
X153960462Y-123029800D01*
X154268538Y-123029800D01*
X154349337Y-123037758D01*
G37*
G36*
X139109337Y-123037758D02*
G01*
X139190138Y-123045716D01*
X139343534Y-123092249D01*
X139397492Y-123108617D01*
X139588584Y-123210757D01*
X139756081Y-123348219D01*
X139893543Y-123515716D01*
X139995683Y-123706808D01*
X139995684Y-123706812D01*
X140058584Y-123914162D01*
X140079822Y-124129800D01*
X140058584Y-124345438D01*
X140046222Y-124386189D01*
X139995683Y-124552792D01*
X139893543Y-124743884D01*
X139756081Y-124911381D01*
X139588584Y-125048843D01*
X139397492Y-125150983D01*
X139343534Y-125167351D01*
X139190138Y-125213884D01*
X139109337Y-125221842D01*
X139028538Y-125229800D01*
X138720462Y-125229800D01*
X138639663Y-125221842D01*
X138558862Y-125213884D01*
X138405466Y-125167351D01*
X138351508Y-125150983D01*
X138160416Y-125048843D01*
X137992919Y-124911381D01*
X137855457Y-124743884D01*
X137753317Y-124552792D01*
X137702778Y-124386189D01*
X137690416Y-124345438D01*
X137669178Y-124129800D01*
X137690416Y-123914162D01*
X137753316Y-123706812D01*
X137753317Y-123706808D01*
X137855457Y-123515716D01*
X137992919Y-123348219D01*
X138160416Y-123210757D01*
X138351508Y-123108617D01*
X138405466Y-123092249D01*
X138558862Y-123045716D01*
X138639663Y-123037758D01*
X138720462Y-123029800D01*
X139028538Y-123029800D01*
X139109337Y-123037758D01*
G37*
G36*
X182300000Y-124800000D02*
G01*
X180200000Y-124800000D01*
X180200000Y-122700000D01*
X182300000Y-122700000D01*
X182300000Y-124800000D01*
G37*
G36*
X135477290Y-122525619D02*
G01*
X135541689Y-122538429D01*
X135723678Y-122613811D01*
X135887463Y-122723249D01*
X136026751Y-122862537D01*
X136136189Y-123026322D01*
X136211571Y-123208311D01*
X136250000Y-123401509D01*
X136250000Y-123598491D01*
X136211571Y-123791689D01*
X136136189Y-123973678D01*
X136026751Y-124137463D01*
X135887463Y-124276751D01*
X135723678Y-124386189D01*
X135541689Y-124461571D01*
X135477290Y-124474381D01*
X135348493Y-124500000D01*
X135151507Y-124500000D01*
X135022710Y-124474381D01*
X134958311Y-124461571D01*
X134776322Y-124386189D01*
X134612537Y-124276751D01*
X134473249Y-124137463D01*
X134363811Y-123973678D01*
X134288429Y-123791689D01*
X134250000Y-123598491D01*
X134250000Y-123401509D01*
X134288429Y-123208311D01*
X134363811Y-123026322D01*
X134473249Y-122862537D01*
X134612537Y-122723249D01*
X134776322Y-122613811D01*
X134958311Y-122538429D01*
X135022710Y-122525619D01*
X135151507Y-122500000D01*
X135348493Y-122500000D01*
X135477290Y-122525619D01*
G37*
G36*
X172780604Y-121374968D02*
G01*
X172955678Y-121447486D01*
X172955679Y-121447487D01*
X173113237Y-121552763D01*
X173247237Y-121686763D01*
X173326531Y-121805436D01*
X173352514Y-121844322D01*
X173425032Y-122019396D01*
X173462000Y-122205250D01*
X173462000Y-122394750D01*
X173425032Y-122580604D01*
X173412448Y-122610984D01*
X173352514Y-122755678D01*
X173352513Y-122755679D01*
X173247237Y-122913237D01*
X173113237Y-123047237D01*
X172981879Y-123135007D01*
X172955678Y-123152514D01*
X172780604Y-123225032D01*
X172594750Y-123262000D01*
X172405250Y-123262000D01*
X172219396Y-123225032D01*
X172044322Y-123152514D01*
X172018121Y-123135007D01*
X171886763Y-123047237D01*
X171752763Y-122913237D01*
X171647487Y-122755679D01*
X171647486Y-122755678D01*
X171587552Y-122610984D01*
X171574968Y-122580604D01*
X171538000Y-122394750D01*
X171538000Y-122205250D01*
X171574968Y-122019396D01*
X171647486Y-121844322D01*
X171673469Y-121805436D01*
X171752763Y-121686763D01*
X171886763Y-121552763D01*
X172044321Y-121447487D01*
X172044322Y-121447486D01*
X172219396Y-121374968D01*
X172405250Y-121338000D01*
X172594750Y-121338000D01*
X172780604Y-121374968D01*
G37*
G36*
X160780604Y-121374968D02*
G01*
X160955678Y-121447486D01*
X160955679Y-121447487D01*
X161113237Y-121552763D01*
X161247237Y-121686763D01*
X161326531Y-121805436D01*
X161352514Y-121844322D01*
X161425032Y-122019396D01*
X161462000Y-122205250D01*
X161462000Y-122394750D01*
X161425032Y-122580604D01*
X161412448Y-122610984D01*
X161352514Y-122755678D01*
X161352513Y-122755679D01*
X161247237Y-122913237D01*
X161113237Y-123047237D01*
X160981879Y-123135007D01*
X160955678Y-123152514D01*
X160780604Y-123225032D01*
X160594750Y-123262000D01*
X160405250Y-123262000D01*
X160219396Y-123225032D01*
X160044322Y-123152514D01*
X160018121Y-123135007D01*
X159886763Y-123047237D01*
X159752763Y-122913237D01*
X159647487Y-122755679D01*
X159647486Y-122755678D01*
X159587552Y-122610984D01*
X159574968Y-122580604D01*
X159538000Y-122394750D01*
X159538000Y-122205250D01*
X159574968Y-122019396D01*
X159647486Y-121844322D01*
X159673469Y-121805436D01*
X159752763Y-121686763D01*
X159886763Y-121552763D01*
X160044321Y-121447487D01*
X160044322Y-121447486D01*
X160219396Y-121374968D01*
X160405250Y-121338000D01*
X160594750Y-121338000D01*
X160780604Y-121374968D01*
G37*
G36*
X139109337Y-120497758D02*
G01*
X139190138Y-120505716D01*
X139343534Y-120552249D01*
X139397492Y-120568617D01*
X139588584Y-120670757D01*
X139756081Y-120808219D01*
X139893543Y-120975716D01*
X139995683Y-121166808D01*
X139995684Y-121166812D01*
X140058584Y-121374162D01*
X140079822Y-121589800D01*
X140058584Y-121805438D01*
X140046788Y-121844322D01*
X139995683Y-122012792D01*
X139893543Y-122203884D01*
X139756081Y-122371381D01*
X139588584Y-122508843D01*
X139397492Y-122610983D01*
X139388169Y-122613811D01*
X139190138Y-122673884D01*
X139109337Y-122681842D01*
X139028538Y-122689800D01*
X138720462Y-122689800D01*
X138639663Y-122681842D01*
X138558862Y-122673884D01*
X138360831Y-122613811D01*
X138351508Y-122610983D01*
X138160416Y-122508843D01*
X137992919Y-122371381D01*
X137855457Y-122203884D01*
X137753317Y-122012792D01*
X137702212Y-121844322D01*
X137690416Y-121805438D01*
X137669178Y-121589800D01*
X137690416Y-121374162D01*
X137753316Y-121166812D01*
X137753317Y-121166808D01*
X137855457Y-120975716D01*
X137992919Y-120808219D01*
X138160416Y-120670757D01*
X138351508Y-120568617D01*
X138405466Y-120552249D01*
X138558862Y-120505716D01*
X138639663Y-120497758D01*
X138720462Y-120489800D01*
X139028538Y-120489800D01*
X139109337Y-120497758D01*
G37*
G36*
X154349337Y-120497758D02*
G01*
X154430138Y-120505716D01*
X154583534Y-120552249D01*
X154637492Y-120568617D01*
X154828584Y-120670757D01*
X154996081Y-120808219D01*
X155133543Y-120975716D01*
X155235683Y-121166808D01*
X155235684Y-121166812D01*
X155298584Y-121374162D01*
X155319822Y-121589800D01*
X155298584Y-121805438D01*
X155286788Y-121844322D01*
X155235683Y-122012792D01*
X155133543Y-122203884D01*
X154996081Y-122371381D01*
X154828584Y-122508843D01*
X154637492Y-122610983D01*
X154628169Y-122613811D01*
X154430138Y-122673884D01*
X154349337Y-122681842D01*
X154268538Y-122689800D01*
X153960462Y-122689800D01*
X153879663Y-122681842D01*
X153798862Y-122673884D01*
X153600831Y-122613811D01*
X153591508Y-122610983D01*
X153400416Y-122508843D01*
X153232919Y-122371381D01*
X153095457Y-122203884D01*
X152993317Y-122012792D01*
X152942212Y-121844322D01*
X152930416Y-121805438D01*
X152909178Y-121589800D01*
X152930416Y-121374162D01*
X152993316Y-121166812D01*
X152993317Y-121166808D01*
X153095457Y-120975716D01*
X153232919Y-120808219D01*
X153400416Y-120670757D01*
X153591508Y-120568617D01*
X153645466Y-120552249D01*
X153798862Y-120505716D01*
X153879663Y-120497758D01*
X153960462Y-120489800D01*
X154268538Y-120489800D01*
X154349337Y-120497758D01*
G37*
G36*
X181103687Y-118970027D02*
G01*
X181281274Y-119005350D01*
X181472362Y-119084502D01*
X181644336Y-119199411D01*
X181790589Y-119345664D01*
X181905498Y-119517638D01*
X181984650Y-119708726D01*
X182025000Y-119911584D01*
X182025000Y-120118416D01*
X181984650Y-120321274D01*
X181905498Y-120512362D01*
X181790589Y-120684336D01*
X181644336Y-120830589D01*
X181472362Y-120945498D01*
X181281274Y-121024650D01*
X181103687Y-121059973D01*
X181078417Y-121065000D01*
X180871583Y-121065000D01*
X180846313Y-121059973D01*
X180668726Y-121024650D01*
X180477638Y-120945498D01*
X180305664Y-120830589D01*
X180159411Y-120684336D01*
X180044502Y-120512362D01*
X179965350Y-120321274D01*
X179925000Y-120118416D01*
X179925000Y-119911584D01*
X179965350Y-119708726D01*
X180044502Y-119517638D01*
X180159411Y-119345664D01*
X180305664Y-119199411D01*
X180477638Y-119084502D01*
X180668726Y-119005350D01*
X180846313Y-118970027D01*
X180871583Y-118965000D01*
X181078417Y-118965000D01*
X181103687Y-118970027D01*
G37*
G36*
X139109337Y-117957758D02*
G01*
X139190138Y-117965716D01*
X139343534Y-118012249D01*
X139397492Y-118028617D01*
X139588584Y-118130757D01*
X139756081Y-118268219D01*
X139893543Y-118435716D01*
X139995683Y-118626808D01*
X139995684Y-118626812D01*
X140058584Y-118834162D01*
X140079822Y-119049800D01*
X140058584Y-119265438D01*
X140034247Y-119345664D01*
X139995683Y-119472792D01*
X139893543Y-119663884D01*
X139756081Y-119831381D01*
X139588584Y-119968843D01*
X139397492Y-120070983D01*
X139343534Y-120087351D01*
X139190138Y-120133884D01*
X139109337Y-120141842D01*
X139028538Y-120149800D01*
X138720462Y-120149800D01*
X138639663Y-120141842D01*
X138558862Y-120133884D01*
X138405466Y-120087351D01*
X138351508Y-120070983D01*
X138160416Y-119968843D01*
X137992919Y-119831381D01*
X137855457Y-119663884D01*
X137753317Y-119472792D01*
X137714753Y-119345664D01*
X137690416Y-119265438D01*
X137669178Y-119049800D01*
X137690416Y-118834162D01*
X137753316Y-118626812D01*
X137753317Y-118626808D01*
X137855457Y-118435716D01*
X137992919Y-118268219D01*
X138160416Y-118130757D01*
X138351508Y-118028617D01*
X138405466Y-118012249D01*
X138558862Y-117965716D01*
X138639663Y-117957758D01*
X138720462Y-117949800D01*
X139028538Y-117949800D01*
X139109337Y-117957758D01*
G37*
G36*
X154349337Y-117957758D02*
G01*
X154430138Y-117965716D01*
X154583534Y-118012249D01*
X154637492Y-118028617D01*
X154828584Y-118130757D01*
X154996081Y-118268219D01*
X155133543Y-118435716D01*
X155235683Y-118626808D01*
X155235684Y-118626812D01*
X155298584Y-118834162D01*
X155319822Y-119049800D01*
X155298584Y-119265438D01*
X155274247Y-119345664D01*
X155235683Y-119472792D01*
X155133543Y-119663884D01*
X154996081Y-119831381D01*
X154828584Y-119968843D01*
X154637492Y-120070983D01*
X154583534Y-120087351D01*
X154430138Y-120133884D01*
X154349337Y-120141842D01*
X154268538Y-120149800D01*
X153960462Y-120149800D01*
X153879663Y-120141842D01*
X153798862Y-120133884D01*
X153645466Y-120087351D01*
X153591508Y-120070983D01*
X153400416Y-119968843D01*
X153232919Y-119831381D01*
X153095457Y-119663884D01*
X152993317Y-119472792D01*
X152954753Y-119345664D01*
X152930416Y-119265438D01*
X152909178Y-119049800D01*
X152930416Y-118834162D01*
X152993316Y-118626812D01*
X152993317Y-118626808D01*
X153095457Y-118435716D01*
X153232919Y-118268219D01*
X153400416Y-118130757D01*
X153591508Y-118028617D01*
X153645466Y-118012249D01*
X153798862Y-117965716D01*
X153879663Y-117957758D01*
X153960462Y-117949800D01*
X154268538Y-117949800D01*
X154349337Y-117957758D01*
G37*
G36*
X181103687Y-116430027D02*
G01*
X181281274Y-116465350D01*
X181472362Y-116544502D01*
X181644336Y-116659411D01*
X181790589Y-116805664D01*
X181905498Y-116977638D01*
X181984650Y-117168726D01*
X182025000Y-117371584D01*
X182025000Y-117578416D01*
X181984650Y-117781274D01*
X181905498Y-117972362D01*
X181790589Y-118144336D01*
X181644336Y-118290589D01*
X181472362Y-118405498D01*
X181281274Y-118484650D01*
X181103687Y-118519973D01*
X181078417Y-118525000D01*
X180871583Y-118525000D01*
X180846313Y-118519973D01*
X180668726Y-118484650D01*
X180477638Y-118405498D01*
X180305664Y-118290589D01*
X180159411Y-118144336D01*
X180044502Y-117972362D01*
X179965350Y-117781274D01*
X179925000Y-117578416D01*
X179925000Y-117371584D01*
X179965350Y-117168726D01*
X180044502Y-116977638D01*
X180159411Y-116805664D01*
X180305664Y-116659411D01*
X180477638Y-116544502D01*
X180668726Y-116465350D01*
X180846313Y-116430027D01*
X180871583Y-116425000D01*
X181078417Y-116425000D01*
X181103687Y-116430027D01*
G37*
G36*
X154349337Y-115417758D02*
G01*
X154430138Y-115425716D01*
X154583534Y-115472249D01*
X154637492Y-115488617D01*
X154828584Y-115590757D01*
X154996081Y-115728219D01*
X155133543Y-115895716D01*
X155235683Y-116086808D01*
X155235684Y-116086812D01*
X155298584Y-116294162D01*
X155319822Y-116509800D01*
X155298584Y-116725438D01*
X155286222Y-116766189D01*
X155235683Y-116932792D01*
X155133543Y-117123884D01*
X154996081Y-117291381D01*
X154828584Y-117428843D01*
X154637492Y-117530983D01*
X154583534Y-117547351D01*
X154430138Y-117593884D01*
X154349337Y-117601842D01*
X154268538Y-117609800D01*
X153960462Y-117609800D01*
X153879663Y-117601842D01*
X153798862Y-117593884D01*
X153645466Y-117547351D01*
X153591508Y-117530983D01*
X153400416Y-117428843D01*
X153232919Y-117291381D01*
X153095457Y-117123884D01*
X152993317Y-116932792D01*
X152942778Y-116766189D01*
X152930416Y-116725438D01*
X152909178Y-116509800D01*
X152930416Y-116294162D01*
X152993316Y-116086812D01*
X152993317Y-116086808D01*
X153095457Y-115895716D01*
X153232919Y-115728219D01*
X153400416Y-115590757D01*
X153591508Y-115488617D01*
X153645466Y-115472249D01*
X153798862Y-115425716D01*
X153879663Y-115417758D01*
X153960462Y-115409800D01*
X154268538Y-115409800D01*
X154349337Y-115417758D01*
G37*
G36*
X139109337Y-115417758D02*
G01*
X139190138Y-115425716D01*
X139343534Y-115472249D01*
X139397492Y-115488617D01*
X139588584Y-115590757D01*
X139756081Y-115728219D01*
X139893543Y-115895716D01*
X139995683Y-116086808D01*
X139995684Y-116086812D01*
X140058584Y-116294162D01*
X140079822Y-116509800D01*
X140058584Y-116725438D01*
X140046222Y-116766189D01*
X139995683Y-116932792D01*
X139893543Y-117123884D01*
X139756081Y-117291381D01*
X139588584Y-117428843D01*
X139397492Y-117530983D01*
X139343534Y-117547351D01*
X139190138Y-117593884D01*
X139109337Y-117601842D01*
X139028538Y-117609800D01*
X138720462Y-117609800D01*
X138639663Y-117601842D01*
X138558862Y-117593884D01*
X138405466Y-117547351D01*
X138351508Y-117530983D01*
X138160416Y-117428843D01*
X137992919Y-117291381D01*
X137855457Y-117123884D01*
X137753317Y-116932792D01*
X137702778Y-116766189D01*
X137690416Y-116725438D01*
X137669178Y-116509800D01*
X137690416Y-116294162D01*
X137753316Y-116086812D01*
X137753317Y-116086808D01*
X137855457Y-115895716D01*
X137992919Y-115728219D01*
X138160416Y-115590757D01*
X138351508Y-115488617D01*
X138405466Y-115472249D01*
X138558862Y-115425716D01*
X138639663Y-115417758D01*
X138720462Y-115409800D01*
X139028538Y-115409800D01*
X139109337Y-115417758D01*
G37*
G36*
X135477290Y-114905619D02*
G01*
X135541689Y-114918429D01*
X135723678Y-114993811D01*
X135887463Y-115103249D01*
X136026751Y-115242537D01*
X136136189Y-115406322D01*
X136211571Y-115588311D01*
X136224381Y-115652710D01*
X136250000Y-115781507D01*
X136250000Y-115978493D01*
X136228455Y-116086808D01*
X136211571Y-116171689D01*
X136136189Y-116353678D01*
X136026751Y-116517463D01*
X135887463Y-116656751D01*
X135723678Y-116766189D01*
X135541689Y-116841571D01*
X135477290Y-116854381D01*
X135348493Y-116880000D01*
X135151507Y-116880000D01*
X135022710Y-116854381D01*
X134958311Y-116841571D01*
X134776322Y-116766189D01*
X134612537Y-116656751D01*
X134473249Y-116517463D01*
X134363811Y-116353678D01*
X134288429Y-116171689D01*
X134271545Y-116086808D01*
X134250000Y-115978493D01*
X134250000Y-115781507D01*
X134275619Y-115652710D01*
X134288429Y-115588311D01*
X134363811Y-115406322D01*
X134473249Y-115242537D01*
X134612537Y-115103249D01*
X134776322Y-114993811D01*
X134958311Y-114918429D01*
X135022710Y-114905619D01*
X135151507Y-114880000D01*
X135348493Y-114880000D01*
X135477290Y-114905619D01*
G37*
G36*
X181103687Y-113890027D02*
G01*
X181281274Y-113925350D01*
X181472362Y-114004502D01*
X181644336Y-114119411D01*
X181790589Y-114265664D01*
X181905498Y-114437638D01*
X181984650Y-114628726D01*
X182025000Y-114831584D01*
X182025000Y-115038416D01*
X181984650Y-115241274D01*
X181905498Y-115432362D01*
X181790589Y-115604336D01*
X181644336Y-115750589D01*
X181472362Y-115865498D01*
X181281274Y-115944650D01*
X181103687Y-115979973D01*
X181078417Y-115985000D01*
X180871583Y-115985000D01*
X180846313Y-115979973D01*
X180668726Y-115944650D01*
X180477638Y-115865498D01*
X180305664Y-115750589D01*
X180159411Y-115604336D01*
X180044502Y-115432362D01*
X179965350Y-115241274D01*
X179925000Y-115038416D01*
X179925000Y-114831584D01*
X179965350Y-114628726D01*
X180044502Y-114437638D01*
X180159411Y-114265664D01*
X180305664Y-114119411D01*
X180477638Y-114004502D01*
X180668726Y-113925350D01*
X180846313Y-113890027D01*
X180871583Y-113885000D01*
X181078417Y-113885000D01*
X181103687Y-113890027D01*
G37*
G36*
X154349337Y-112877758D02*
G01*
X154430138Y-112885716D01*
X154583534Y-112932249D01*
X154637492Y-112948617D01*
X154828584Y-113050757D01*
X154996081Y-113188219D01*
X155133543Y-113355716D01*
X155235683Y-113546808D01*
X155235684Y-113546812D01*
X155298584Y-113754162D01*
X155319822Y-113969800D01*
X155298584Y-114185438D01*
X155274247Y-114265664D01*
X155235683Y-114392792D01*
X155133543Y-114583884D01*
X154996081Y-114751381D01*
X154828584Y-114888843D01*
X154637492Y-114990983D01*
X154628169Y-114993811D01*
X154430138Y-115053884D01*
X154349337Y-115061842D01*
X154268538Y-115069800D01*
X153960462Y-115069800D01*
X153879663Y-115061842D01*
X153798862Y-115053884D01*
X153600831Y-114993811D01*
X153591508Y-114990983D01*
X153400416Y-114888843D01*
X153232919Y-114751381D01*
X153095457Y-114583884D01*
X152993317Y-114392792D01*
X152954753Y-114265664D01*
X152930416Y-114185438D01*
X152909178Y-113969800D01*
X152930416Y-113754162D01*
X152993316Y-113546812D01*
X152993317Y-113546808D01*
X153095457Y-113355716D01*
X153232919Y-113188219D01*
X153400416Y-113050757D01*
X153591508Y-112948617D01*
X153645466Y-112932249D01*
X153798862Y-112885716D01*
X153879663Y-112877758D01*
X153960462Y-112869800D01*
X154268538Y-112869800D01*
X154349337Y-112877758D01*
G37*
G36*
X139109337Y-112877758D02*
G01*
X139190138Y-112885716D01*
X139343534Y-112932249D01*
X139397492Y-112948617D01*
X139588584Y-113050757D01*
X139756081Y-113188219D01*
X139893543Y-113355716D01*
X139995683Y-113546808D01*
X139995684Y-113546812D01*
X140058584Y-113754162D01*
X140079822Y-113969800D01*
X140058584Y-114185438D01*
X140034247Y-114265664D01*
X139995683Y-114392792D01*
X139893543Y-114583884D01*
X139756081Y-114751381D01*
X139588584Y-114888843D01*
X139397492Y-114990983D01*
X139388169Y-114993811D01*
X139190138Y-115053884D01*
X139109337Y-115061842D01*
X139028538Y-115069800D01*
X138720462Y-115069800D01*
X138639663Y-115061842D01*
X138558862Y-115053884D01*
X138360831Y-114993811D01*
X138351508Y-114990983D01*
X138160416Y-114888843D01*
X137992919Y-114751381D01*
X137855457Y-114583884D01*
X137753317Y-114392792D01*
X137714753Y-114265664D01*
X137690416Y-114185438D01*
X137669178Y-113969800D01*
X137690416Y-113754162D01*
X137753316Y-113546812D01*
X137753317Y-113546808D01*
X137855457Y-113355716D01*
X137992919Y-113188219D01*
X138160416Y-113050757D01*
X138351508Y-112948617D01*
X138405466Y-112932249D01*
X138558862Y-112885716D01*
X138639663Y-112877758D01*
X138720462Y-112869800D01*
X139028538Y-112869800D01*
X139109337Y-112877758D01*
G37*
G36*
X181103687Y-111350027D02*
G01*
X181281274Y-111385350D01*
X181472362Y-111464502D01*
X181644336Y-111579411D01*
X181790589Y-111725664D01*
X181905498Y-111897638D01*
X181984650Y-112088726D01*
X182025000Y-112291584D01*
X182025000Y-112498416D01*
X181984650Y-112701274D01*
X181905498Y-112892362D01*
X181790589Y-113064336D01*
X181644336Y-113210589D01*
X181472362Y-113325498D01*
X181281274Y-113404650D01*
X181103687Y-113439973D01*
X181078417Y-113445000D01*
X180871583Y-113445000D01*
X180846313Y-113439973D01*
X180668726Y-113404650D01*
X180477638Y-113325498D01*
X180305664Y-113210589D01*
X180159411Y-113064336D01*
X180044502Y-112892362D01*
X179965350Y-112701274D01*
X179925000Y-112498416D01*
X179925000Y-112291584D01*
X179965350Y-112088726D01*
X180044502Y-111897638D01*
X180159411Y-111725664D01*
X180305664Y-111579411D01*
X180477638Y-111464502D01*
X180668726Y-111385350D01*
X180846313Y-111350027D01*
X180871583Y-111345000D01*
X181078417Y-111345000D01*
X181103687Y-111350027D01*
G37*
G36*
X139109337Y-110337758D02*
G01*
X139190138Y-110345716D01*
X139343534Y-110392249D01*
X139397492Y-110408617D01*
X139588584Y-110510757D01*
X139756081Y-110648219D01*
X139893543Y-110815716D01*
X139995683Y-111006808D01*
X139995684Y-111006812D01*
X140058584Y-111214162D01*
X140079822Y-111429800D01*
X140058584Y-111645438D01*
X140034247Y-111725664D01*
X139995683Y-111852792D01*
X139893543Y-112043884D01*
X139756081Y-112211381D01*
X139588584Y-112348843D01*
X139397492Y-112450983D01*
X139343534Y-112467351D01*
X139190138Y-112513884D01*
X139109337Y-112521842D01*
X139028538Y-112529800D01*
X138720462Y-112529800D01*
X138639663Y-112521842D01*
X138558862Y-112513884D01*
X138405466Y-112467351D01*
X138351508Y-112450983D01*
X138160416Y-112348843D01*
X137992919Y-112211381D01*
X137855457Y-112043884D01*
X137753317Y-111852792D01*
X137714753Y-111725664D01*
X137690416Y-111645438D01*
X137669178Y-111429800D01*
X137690416Y-111214162D01*
X137753316Y-111006812D01*
X137753317Y-111006808D01*
X137855457Y-110815716D01*
X137992919Y-110648219D01*
X138160416Y-110510757D01*
X138351508Y-110408617D01*
X138405466Y-110392249D01*
X138558862Y-110345716D01*
X138639663Y-110337758D01*
X138720462Y-110329800D01*
X139028538Y-110329800D01*
X139109337Y-110337758D01*
G37*
G36*
X154349337Y-110337758D02*
G01*
X154430138Y-110345716D01*
X154583534Y-110392249D01*
X154637492Y-110408617D01*
X154828584Y-110510757D01*
X154996081Y-110648219D01*
X155133543Y-110815716D01*
X155235683Y-111006808D01*
X155235684Y-111006812D01*
X155298584Y-111214162D01*
X155319822Y-111429800D01*
X155298584Y-111645438D01*
X155274247Y-111725664D01*
X155235683Y-111852792D01*
X155133543Y-112043884D01*
X154996081Y-112211381D01*
X154828584Y-112348843D01*
X154637492Y-112450983D01*
X154583534Y-112467351D01*
X154430138Y-112513884D01*
X154349337Y-112521842D01*
X154268538Y-112529800D01*
X153960462Y-112529800D01*
X153879663Y-112521842D01*
X153798862Y-112513884D01*
X153645466Y-112467351D01*
X153591508Y-112450983D01*
X153400416Y-112348843D01*
X153232919Y-112211381D01*
X153095457Y-112043884D01*
X152993317Y-111852792D01*
X152954753Y-111725664D01*
X152930416Y-111645438D01*
X152909178Y-111429800D01*
X152930416Y-111214162D01*
X152993316Y-111006812D01*
X152993317Y-111006808D01*
X153095457Y-110815716D01*
X153232919Y-110648219D01*
X153400416Y-110510757D01*
X153591508Y-110408617D01*
X153645466Y-110392249D01*
X153798862Y-110345716D01*
X153879663Y-110337758D01*
X153960462Y-110329800D01*
X154268538Y-110329800D01*
X154349337Y-110337758D01*
G37*
G36*
X181103687Y-108810027D02*
G01*
X181281274Y-108845350D01*
X181472362Y-108924502D01*
X181644336Y-109039411D01*
X181790589Y-109185664D01*
X181905498Y-109357638D01*
X181984650Y-109548726D01*
X182025000Y-109751584D01*
X182025000Y-109958416D01*
X181984650Y-110161274D01*
X181905498Y-110352362D01*
X181790589Y-110524336D01*
X181644336Y-110670589D01*
X181472362Y-110785498D01*
X181281274Y-110864650D01*
X181103687Y-110899973D01*
X181078417Y-110905000D01*
X180871583Y-110905000D01*
X180846313Y-110899973D01*
X180668726Y-110864650D01*
X180477638Y-110785498D01*
X180305664Y-110670589D01*
X180159411Y-110524336D01*
X180044502Y-110352362D01*
X179965350Y-110161274D01*
X179925000Y-109958416D01*
X179925000Y-109751584D01*
X179965350Y-109548726D01*
X180044502Y-109357638D01*
X180159411Y-109185664D01*
X180305664Y-109039411D01*
X180477638Y-108924502D01*
X180668726Y-108845350D01*
X180846313Y-108810027D01*
X180871583Y-108805000D01*
X181078417Y-108805000D01*
X181103687Y-108810027D01*
G37*
G36*
X139109337Y-107797758D02*
G01*
X139190138Y-107805716D01*
X139343534Y-107852249D01*
X139397492Y-107868617D01*
X139588584Y-107970757D01*
X139756081Y-108108219D01*
X139893543Y-108275716D01*
X139995683Y-108466808D01*
X139995684Y-108466812D01*
X140058584Y-108674162D01*
X140079822Y-108889800D01*
X140058584Y-109105438D01*
X140034247Y-109185664D01*
X139995683Y-109312792D01*
X139893543Y-109503884D01*
X139756081Y-109671381D01*
X139588584Y-109808843D01*
X139397492Y-109910983D01*
X139343534Y-109927351D01*
X139190138Y-109973884D01*
X139109337Y-109981842D01*
X139028538Y-109989800D01*
X138720462Y-109989800D01*
X138639663Y-109981842D01*
X138558862Y-109973884D01*
X138405466Y-109927351D01*
X138351508Y-109910983D01*
X138160416Y-109808843D01*
X137992919Y-109671381D01*
X137855457Y-109503884D01*
X137753317Y-109312792D01*
X137714753Y-109185664D01*
X137690416Y-109105438D01*
X137669178Y-108889800D01*
X137690416Y-108674162D01*
X137753316Y-108466812D01*
X137753317Y-108466808D01*
X137855457Y-108275716D01*
X137992919Y-108108219D01*
X138160416Y-107970757D01*
X138351508Y-107868617D01*
X138405466Y-107852249D01*
X138558862Y-107805716D01*
X138639663Y-107797758D01*
X138720462Y-107789800D01*
X139028538Y-107789800D01*
X139109337Y-107797758D01*
G37*
G36*
X154349337Y-107797758D02*
G01*
X154430138Y-107805716D01*
X154583534Y-107852249D01*
X154637492Y-107868617D01*
X154828584Y-107970757D01*
X154996081Y-108108219D01*
X155133543Y-108275716D01*
X155235683Y-108466808D01*
X155235684Y-108466812D01*
X155298584Y-108674162D01*
X155319822Y-108889800D01*
X155298584Y-109105438D01*
X155274247Y-109185664D01*
X155235683Y-109312792D01*
X155133543Y-109503884D01*
X154996081Y-109671381D01*
X154828584Y-109808843D01*
X154637492Y-109910983D01*
X154583534Y-109927351D01*
X154430138Y-109973884D01*
X154349337Y-109981842D01*
X154268538Y-109989800D01*
X153960462Y-109989800D01*
X153879663Y-109981842D01*
X153798862Y-109973884D01*
X153645466Y-109927351D01*
X153591508Y-109910983D01*
X153400416Y-109808843D01*
X153232919Y-109671381D01*
X153095457Y-109503884D01*
X152993317Y-109312792D01*
X152954753Y-109185664D01*
X152930416Y-109105438D01*
X152909178Y-108889800D01*
X152930416Y-108674162D01*
X152993316Y-108466812D01*
X152993317Y-108466808D01*
X153095457Y-108275716D01*
X153232919Y-108108219D01*
X153400416Y-107970757D01*
X153591508Y-107868617D01*
X153645466Y-107852249D01*
X153798862Y-107805716D01*
X153879663Y-107797758D01*
X153960462Y-107789800D01*
X154268538Y-107789800D01*
X154349337Y-107797758D01*
G37*
G36*
X182025000Y-108365000D02*
G01*
X179925000Y-108365000D01*
X179925000Y-106265000D01*
X182025000Y-106265000D01*
X182025000Y-108365000D01*
G37*
G36*
X154349337Y-105257758D02*
G01*
X154430138Y-105265716D01*
X154583534Y-105312249D01*
X154637492Y-105328617D01*
X154828584Y-105430757D01*
X154996081Y-105568219D01*
X155133543Y-105735716D01*
X155235683Y-105926808D01*
X155235684Y-105926812D01*
X155298584Y-106134162D01*
X155319822Y-106349800D01*
X155298584Y-106565438D01*
X155252051Y-106718834D01*
X155235683Y-106772792D01*
X155133543Y-106963884D01*
X154996081Y-107131381D01*
X154828584Y-107268843D01*
X154637492Y-107370983D01*
X154583534Y-107387351D01*
X154430138Y-107433884D01*
X154349337Y-107441842D01*
X154268538Y-107449800D01*
X153960462Y-107449800D01*
X153879663Y-107441842D01*
X153798862Y-107433884D01*
X153645466Y-107387351D01*
X153591508Y-107370983D01*
X153400416Y-107268843D01*
X153232919Y-107131381D01*
X153095457Y-106963884D01*
X152993317Y-106772792D01*
X152976949Y-106718834D01*
X152930416Y-106565438D01*
X152909178Y-106349800D01*
X152930416Y-106134162D01*
X152993316Y-105926812D01*
X152993317Y-105926808D01*
X153095457Y-105735716D01*
X153232919Y-105568219D01*
X153400416Y-105430757D01*
X153591508Y-105328617D01*
X153645466Y-105312249D01*
X153798862Y-105265716D01*
X153879663Y-105257758D01*
X153960462Y-105249800D01*
X154268538Y-105249800D01*
X154349337Y-105257758D01*
G37*
G36*
X140074500Y-107449800D02*
G01*
X137674500Y-107449800D01*
X137674500Y-105249800D01*
X140074500Y-105249800D01*
X140074500Y-107449800D01*
G37*
G36*
X145444526Y-95485915D02*
G01*
X145662911Y-95576373D01*
X145662913Y-95576374D01*
X145859455Y-95707699D01*
X146026601Y-95874845D01*
X146155938Y-96068411D01*
X146157927Y-96071389D01*
X146248385Y-96289774D01*
X146294500Y-96521609D01*
X146294500Y-96757991D01*
X146248385Y-96989826D01*
X146157927Y-97208211D01*
X146157926Y-97208213D01*
X146026601Y-97404755D01*
X145859455Y-97571901D01*
X145662913Y-97703226D01*
X145662912Y-97703227D01*
X145662911Y-97703227D01*
X145444526Y-97793685D01*
X145212691Y-97839800D01*
X144976309Y-97839800D01*
X144744474Y-97793685D01*
X144526089Y-97703227D01*
X144526088Y-97703227D01*
X144526087Y-97703226D01*
X144329545Y-97571901D01*
X144162399Y-97404755D01*
X144031074Y-97208213D01*
X144031073Y-97208211D01*
X143940615Y-96989826D01*
X143894500Y-96757991D01*
X143894500Y-96521609D01*
X143940615Y-96289774D01*
X144031073Y-96071389D01*
X144033063Y-96068411D01*
X144162399Y-95874845D01*
X144329545Y-95707699D01*
X144526087Y-95576374D01*
X144526089Y-95576373D01*
X144744474Y-95485915D01*
X144976309Y-95439800D01*
X145212691Y-95439800D01*
X145444526Y-95485915D01*
G37*
G36*
X148219526Y-95485915D02*
G01*
X148437911Y-95576373D01*
X148437913Y-95576374D01*
X148634455Y-95707699D01*
X148801601Y-95874845D01*
X148930938Y-96068411D01*
X148932927Y-96071389D01*
X149023385Y-96289774D01*
X149069500Y-96521609D01*
X149069500Y-96757991D01*
X149023385Y-96989826D01*
X148932927Y-97208211D01*
X148932926Y-97208213D01*
X148801601Y-97404755D01*
X148634455Y-97571901D01*
X148437913Y-97703226D01*
X148437912Y-97703227D01*
X148437911Y-97703227D01*
X148219526Y-97793685D01*
X147987691Y-97839800D01*
X147751309Y-97839800D01*
X147519474Y-97793685D01*
X147301089Y-97703227D01*
X147301088Y-97703227D01*
X147301087Y-97703226D01*
X147104545Y-97571901D01*
X146937399Y-97404755D01*
X146806074Y-97208213D01*
X146806073Y-97208211D01*
X146715615Y-96989826D01*
X146669500Y-96757991D01*
X146669500Y-96521609D01*
X146715615Y-96289774D01*
X146806073Y-96071389D01*
X146808063Y-96068411D01*
X146937399Y-95874845D01*
X147104545Y-95707699D01*
X147301087Y-95576374D01*
X147301089Y-95576373D01*
X147519474Y-95485915D01*
X147751309Y-95439800D01*
X147987691Y-95439800D01*
X148219526Y-95485915D01*
G37*
G36*
X182100026Y-94346115D02*
G01*
X182318411Y-94436573D01*
X182318413Y-94436574D01*
X182514955Y-94567899D01*
X182682101Y-94735045D01*
X182813427Y-94931589D01*
X182903885Y-95149974D01*
X182950000Y-95381809D01*
X182950000Y-95618191D01*
X182903885Y-95850026D01*
X182813427Y-96068411D01*
X182813426Y-96068413D01*
X182682101Y-96264955D01*
X182514955Y-96432101D01*
X182318413Y-96563426D01*
X182318412Y-96563427D01*
X182318411Y-96563427D01*
X182100026Y-96653885D01*
X181868191Y-96700000D01*
X181631809Y-96700000D01*
X181399974Y-96653885D01*
X181181589Y-96563427D01*
X181181588Y-96563427D01*
X181181587Y-96563426D01*
X180985045Y-96432101D01*
X180817899Y-96264955D01*
X180686574Y-96068413D01*
X180686573Y-96068411D01*
X180596115Y-95850026D01*
X180550000Y-95618191D01*
X180550000Y-95381809D01*
X180596115Y-95149974D01*
X180686573Y-94931589D01*
X180817899Y-94735045D01*
X180985045Y-94567899D01*
X181181587Y-94436574D01*
X181181589Y-94436573D01*
X181399974Y-94346115D01*
X181631809Y-94300000D01*
X181868191Y-94300000D01*
X182100026Y-94346115D01*
G37*
G36*
X177600026Y-94346115D02*
G01*
X177818411Y-94436573D01*
X177818413Y-94436574D01*
X178014955Y-94567899D01*
X178182101Y-94735045D01*
X178313427Y-94931589D01*
X178403885Y-95149974D01*
X178450000Y-95381809D01*
X178450000Y-95618191D01*
X178403885Y-95850026D01*
X178313427Y-96068411D01*
X178313426Y-96068413D01*
X178182101Y-96264955D01*
X178014955Y-96432101D01*
X177818413Y-96563426D01*
X177818412Y-96563427D01*
X177818411Y-96563427D01*
X177600026Y-96653885D01*
X177368191Y-96700000D01*
X177131809Y-96700000D01*
X176899974Y-96653885D01*
X176681589Y-96563427D01*
X176681588Y-96563427D01*
X176681587Y-96563426D01*
X176485045Y-96432101D01*
X176317899Y-96264955D01*
X176186574Y-96068413D01*
X176186573Y-96068411D01*
X176096115Y-95850026D01*
X176050000Y-95618191D01*
X176050000Y-95381809D01*
X176096115Y-95149974D01*
X176186573Y-94931589D01*
X176317899Y-94735045D01*
X176485045Y-94567899D01*
X176681587Y-94436574D01*
X176681589Y-94436573D01*
X176899974Y-94346115D01*
X177131809Y-94300000D01*
X177368191Y-94300000D01*
X177600026Y-94346115D01*
G37*
G36*
X139600026Y-94346115D02*
G01*
X139818411Y-94436573D01*
X139818413Y-94436574D01*
X140014955Y-94567899D01*
X140182101Y-94735045D01*
X140313427Y-94931589D01*
X140403885Y-95149974D01*
X140450000Y-95381809D01*
X140450000Y-95618191D01*
X140403885Y-95850026D01*
X140313427Y-96068411D01*
X140313426Y-96068413D01*
X140182101Y-96264955D01*
X140014955Y-96432101D01*
X139818413Y-96563426D01*
X139818412Y-96563427D01*
X139818411Y-96563427D01*
X139600026Y-96653885D01*
X139368191Y-96700000D01*
X139131809Y-96700000D01*
X138899974Y-96653885D01*
X138681589Y-96563427D01*
X138681588Y-96563427D01*
X138681587Y-96563426D01*
X138485045Y-96432101D01*
X138317899Y-96264955D01*
X138186574Y-96068413D01*
X138186573Y-96068411D01*
X138096115Y-95850026D01*
X138050000Y-95618191D01*
X138050000Y-95381809D01*
X138096115Y-95149974D01*
X138186573Y-94931589D01*
X138317899Y-94735045D01*
X138485045Y-94567899D01*
X138681587Y-94436574D01*
X138681589Y-94436573D01*
X138899974Y-94346115D01*
X139131809Y-94300000D01*
X139368191Y-94300000D01*
X139600026Y-94346115D01*
G37*
G36*
X135100026Y-94346115D02*
G01*
X135318411Y-94436573D01*
X135318413Y-94436574D01*
X135514955Y-94567899D01*
X135682101Y-94735045D01*
X135813427Y-94931589D01*
X135903885Y-95149974D01*
X135950000Y-95381809D01*
X135950000Y-95618191D01*
X135903885Y-95850026D01*
X135813427Y-96068411D01*
X135813426Y-96068413D01*
X135682101Y-96264955D01*
X135514955Y-96432101D01*
X135318413Y-96563426D01*
X135318412Y-96563427D01*
X135318411Y-96563427D01*
X135100026Y-96653885D01*
X134868191Y-96700000D01*
X134631809Y-96700000D01*
X134399974Y-96653885D01*
X134181589Y-96563427D01*
X134181588Y-96563427D01*
X134181587Y-96563426D01*
X133985045Y-96432101D01*
X133817899Y-96264955D01*
X133686574Y-96068413D01*
X133686573Y-96068411D01*
X133596115Y-95850026D01*
X133550000Y-95618191D01*
X133550000Y-95381809D01*
X133596115Y-95149974D01*
X133686573Y-94931589D01*
X133817899Y-94735045D01*
X133985045Y-94567899D01*
X134181587Y-94436574D01*
X134181589Y-94436573D01*
X134399974Y-94346115D01*
X134631809Y-94300000D01*
X134868191Y-94300000D01*
X135100026Y-94346115D01*
G37*
G36*
X171230000Y-92490000D02*
G01*
X169130000Y-92490000D01*
X169130000Y-90390000D01*
X171230000Y-90390000D01*
X171230000Y-92490000D01*
G37*
G36*
X172848687Y-90395027D02*
G01*
X173026274Y-90430350D01*
X173217362Y-90509502D01*
X173389336Y-90624411D01*
X173535589Y-90770664D01*
X173650498Y-90942638D01*
X173729650Y-91133726D01*
X173770000Y-91336584D01*
X173770000Y-91543416D01*
X173729650Y-91746274D01*
X173650498Y-91937362D01*
X173535589Y-92109336D01*
X173389336Y-92255589D01*
X173217362Y-92370498D01*
X173026274Y-92449650D01*
X172848687Y-92484973D01*
X172823417Y-92490000D01*
X172616583Y-92490000D01*
X172591313Y-92484973D01*
X172413726Y-92449650D01*
X172222638Y-92370498D01*
X172050664Y-92255589D01*
X171904411Y-92109336D01*
X171789502Y-91937362D01*
X171710350Y-91746274D01*
X171670000Y-91543416D01*
X171670000Y-91336584D01*
X171710350Y-91133726D01*
X171789502Y-90942638D01*
X171904411Y-90770664D01*
X172050664Y-90624411D01*
X172222638Y-90509502D01*
X172413726Y-90430350D01*
X172591313Y-90395027D01*
X172616583Y-90390000D01*
X172823417Y-90390000D01*
X172848687Y-90395027D01*
G37*
G36*
X182100026Y-87846115D02*
G01*
X182318411Y-87936573D01*
X182318413Y-87936574D01*
X182514955Y-88067899D01*
X182682101Y-88235045D01*
X182813427Y-88431589D01*
X182903885Y-88649974D01*
X182950000Y-88881809D01*
X182950000Y-89118191D01*
X182903885Y-89350026D01*
X182813427Y-89568411D01*
X182813426Y-89568413D01*
X182682101Y-89764955D01*
X182514955Y-89932101D01*
X182318413Y-90063426D01*
X182318412Y-90063427D01*
X182318411Y-90063427D01*
X182100026Y-90153885D01*
X181868191Y-90200000D01*
X181631809Y-90200000D01*
X181399974Y-90153885D01*
X181181589Y-90063427D01*
X181181588Y-90063427D01*
X181181587Y-90063426D01*
X180985045Y-89932101D01*
X180817899Y-89764955D01*
X180686574Y-89568413D01*
X180686573Y-89568411D01*
X180596115Y-89350026D01*
X180550000Y-89118191D01*
X180550000Y-88881809D01*
X180596115Y-88649974D01*
X180686573Y-88431589D01*
X180817899Y-88235045D01*
X180985045Y-88067899D01*
X181181587Y-87936574D01*
X181181589Y-87936573D01*
X181399974Y-87846115D01*
X181631809Y-87800000D01*
X181868191Y-87800000D01*
X182100026Y-87846115D01*
G37*
G36*
X177600026Y-87846115D02*
G01*
X177818411Y-87936573D01*
X177818413Y-87936574D01*
X178014955Y-88067899D01*
X178182101Y-88235045D01*
X178313427Y-88431589D01*
X178403885Y-88649974D01*
X178450000Y-88881809D01*
X178450000Y-89118191D01*
X178403885Y-89350026D01*
X178313427Y-89568411D01*
X178313426Y-89568413D01*
X178182101Y-89764955D01*
X178014955Y-89932101D01*
X177818413Y-90063426D01*
X177818412Y-90063427D01*
X177818411Y-90063427D01*
X177600026Y-90153885D01*
X177368191Y-90200000D01*
X177131809Y-90200000D01*
X176899974Y-90153885D01*
X176681589Y-90063427D01*
X176681588Y-90063427D01*
X176681587Y-90063426D01*
X176485045Y-89932101D01*
X176317899Y-89764955D01*
X176186574Y-89568413D01*
X176186573Y-89568411D01*
X176096115Y-89350026D01*
X176050000Y-89118191D01*
X176050000Y-88881809D01*
X176096115Y-88649974D01*
X176186573Y-88431589D01*
X176317899Y-88235045D01*
X176485045Y-88067899D01*
X176681587Y-87936574D01*
X176681589Y-87936573D01*
X176899974Y-87846115D01*
X177131809Y-87800000D01*
X177368191Y-87800000D01*
X177600026Y-87846115D01*
G37*
G36*
X135100026Y-87846115D02*
G01*
X135318411Y-87936573D01*
X135318413Y-87936574D01*
X135514955Y-88067899D01*
X135682101Y-88235045D01*
X135813427Y-88431589D01*
X135903885Y-88649974D01*
X135950000Y-88881809D01*
X135950000Y-89118191D01*
X135903885Y-89350026D01*
X135813427Y-89568411D01*
X135813426Y-89568413D01*
X135682101Y-89764955D01*
X135514955Y-89932101D01*
X135318413Y-90063426D01*
X135318412Y-90063427D01*
X135318411Y-90063427D01*
X135100026Y-90153885D01*
X134868191Y-90200000D01*
X134631809Y-90200000D01*
X134399974Y-90153885D01*
X134181589Y-90063427D01*
X134181588Y-90063427D01*
X134181587Y-90063426D01*
X133985045Y-89932101D01*
X133817899Y-89764955D01*
X133686574Y-89568413D01*
X133686573Y-89568411D01*
X133596115Y-89350026D01*
X133550000Y-89118191D01*
X133550000Y-88881809D01*
X133596115Y-88649974D01*
X133686573Y-88431589D01*
X133817899Y-88235045D01*
X133985045Y-88067899D01*
X134181587Y-87936574D01*
X134181589Y-87936573D01*
X134399974Y-87846115D01*
X134631809Y-87800000D01*
X134868191Y-87800000D01*
X135100026Y-87846115D01*
G37*
G36*
X139600026Y-87846115D02*
G01*
X139818411Y-87936573D01*
X139818413Y-87936574D01*
X140014955Y-88067899D01*
X140182101Y-88235045D01*
X140313427Y-88431589D01*
X140403885Y-88649974D01*
X140450000Y-88881809D01*
X140450000Y-89118191D01*
X140403885Y-89350026D01*
X140313427Y-89568411D01*
X140313426Y-89568413D01*
X140182101Y-89764955D01*
X140014955Y-89932101D01*
X139818413Y-90063426D01*
X139818412Y-90063427D01*
X139818411Y-90063427D01*
X139600026Y-90153885D01*
X139368191Y-90200000D01*
X139131809Y-90200000D01*
X138899974Y-90153885D01*
X138681589Y-90063427D01*
X138681588Y-90063427D01*
X138681587Y-90063426D01*
X138485045Y-89932101D01*
X138317899Y-89764955D01*
X138186574Y-89568413D01*
X138186573Y-89568411D01*
X138096115Y-89350026D01*
X138050000Y-89118191D01*
X138050000Y-88881809D01*
X138096115Y-88649974D01*
X138186573Y-88431589D01*
X138317899Y-88235045D01*
X138485045Y-88067899D01*
X138681587Y-87936574D01*
X138681589Y-87936573D01*
X138899974Y-87846115D01*
X139131809Y-87800000D01*
X139368191Y-87800000D01*
X139600026Y-87846115D01*
G37*
M02*
