G04 #@! TF.FileFunction,Copper,L1,Top,Signal*
%FSLAX46Y46*%
G04 Gerber Fmt 4.6, Leading zero omitted, Abs format (unit mm)*
G04 Created by KiCad (PCBNEW 4.0.7-e2-6376~61~ubuntu18.04.1) date Tue Sep  4 16:19:30 2018*
%MOMM*%
%LPD*%
G01*
G04 APERTURE LIST*
%ADD10C,0.100000*%
%ADD11C,1.524000*%
%ADD12C,5.600000*%
%ADD13R,1.700000X1.700000*%
%ADD14O,2.000000X1.700000*%
%ADD15C,2.000000*%
%ADD16R,2.000000X1.800000*%
%ADD17O,2.000000X1.800000*%
%ADD18C,1.600000*%
%ADD19O,1.600000X1.600000*%
%ADD20O,1.700000X1.700000*%
%ADD21C,0.600000*%
%ADD22C,0.250000*%
%ADD23C,0.254000*%
G04 APERTURE END LIST*
D10*
D11*
X160500000Y-122300000D03*
X172500000Y-122300000D03*
D12*
X167250000Y-126500000D03*
X176000000Y-126500000D03*
D13*
X181250000Y-102250000D03*
D14*
X181250000Y-104790000D03*
X181250000Y-107330000D03*
X181250000Y-109870000D03*
X181250000Y-112410000D03*
X181250000Y-114950000D03*
X181250000Y-117490000D03*
X181250000Y-120030000D03*
D15*
X139250000Y-95500000D03*
X134750000Y-95500000D03*
X139250000Y-89000000D03*
X134750000Y-89000000D03*
X181750000Y-95500000D03*
X177250000Y-95500000D03*
X181750000Y-89000000D03*
X177250000Y-89000000D03*
X181750000Y-146000000D03*
X177250000Y-146000000D03*
X181750000Y-139500000D03*
X177250000Y-139500000D03*
X139250000Y-146000000D03*
X134750000Y-146000000D03*
X139250000Y-139500000D03*
X134750000Y-139500000D03*
X147720000Y-142310000D03*
X147720000Y-134690000D03*
X147720000Y-131946800D03*
X147720000Y-145053200D03*
X170580000Y-131743600D03*
X170580000Y-145256400D03*
D16*
X143000000Y-136000000D03*
D17*
X135380000Y-128380000D03*
X143000000Y-133460000D03*
X135380000Y-130920000D03*
X143000000Y-130920000D03*
X135380000Y-133460000D03*
X143000000Y-128380000D03*
X135380000Y-136000000D03*
X154120000Y-124140000D03*
X154120000Y-121600000D03*
X154120000Y-119060000D03*
X154120000Y-116520000D03*
X154120000Y-113980000D03*
X154120000Y-111440000D03*
X154120000Y-108900000D03*
X154120000Y-106360000D03*
X138880000Y-124140000D03*
X138880000Y-121600000D03*
X138880000Y-119060000D03*
X138880000Y-116520000D03*
X138880000Y-113980000D03*
X138880000Y-111440000D03*
X138880000Y-108900000D03*
D16*
X138880000Y-106360000D03*
D15*
X147875000Y-96650000D03*
X145100000Y-96650000D03*
D18*
X135250000Y-123500000D03*
D19*
X135250000Y-115880000D03*
D13*
X181250000Y-123750000D03*
D20*
X181250000Y-126290000D03*
D21*
X150983000Y-134760300D03*
D22*
X160500000Y-113429200D02*
X160500000Y-122300000D01*
X154656100Y-107585300D02*
X160500000Y-113429200D01*
X154120000Y-107585300D02*
X154656100Y-107585300D01*
X154120000Y-106360000D02*
X154120000Y-107585300D01*
X139250000Y-138019200D02*
X139250000Y-139500000D01*
X135916100Y-134685300D02*
X139250000Y-138019200D01*
X135380000Y-134685300D02*
X135916100Y-134685300D01*
X139250000Y-139500000D02*
X139250000Y-146000000D01*
X135380000Y-133972800D02*
X135380000Y-134685300D01*
X135380000Y-133972800D02*
X135380000Y-133460000D01*
X136375400Y-98374600D02*
X139250000Y-95500000D01*
X136375400Y-117191600D02*
X136375400Y-98374600D01*
X134054600Y-119512400D02*
X136375400Y-117191600D01*
X134054600Y-131445400D02*
X134054600Y-119512400D01*
X134843900Y-132234700D02*
X134054600Y-131445400D01*
X135380000Y-132234700D02*
X134843900Y-132234700D01*
X135380000Y-133460000D02*
X135380000Y-132234700D01*
X146390800Y-143724000D02*
X147720000Y-145053200D01*
X146390800Y-124938400D02*
X146390800Y-143724000D01*
X153583900Y-117745300D02*
X146390800Y-124938400D01*
X154120000Y-117745300D02*
X153583900Y-117745300D01*
X154120000Y-116520000D02*
X154120000Y-117745300D01*
X142463900Y-129694700D02*
X143000000Y-129694700D01*
X138880000Y-126110800D02*
X142463900Y-129694700D01*
X138880000Y-124140000D02*
X138880000Y-126110800D01*
X143000000Y-130920000D02*
X143000000Y-129694700D01*
X180735800Y-103425300D02*
X181250000Y-103425300D01*
X179885400Y-104275700D02*
X180735800Y-103425300D01*
X179885400Y-104945100D02*
X179885400Y-104275700D01*
X147720000Y-137110500D02*
X179885400Y-104945100D01*
X147720000Y-142310000D02*
X147720000Y-137110500D01*
X181250000Y-102250000D02*
X181250000Y-103425300D01*
X181250000Y-104790000D02*
X181250000Y-105965300D01*
X179778000Y-105965300D02*
X181250000Y-105965300D01*
X150983000Y-134760300D02*
X179778000Y-105965300D01*
X180735800Y-108505300D02*
X181250000Y-108505300D01*
X170580000Y-118661100D02*
X180735800Y-108505300D01*
X170580000Y-131743600D02*
X170580000Y-118661100D01*
X181250000Y-107330000D02*
X181250000Y-108505300D01*
X181250000Y-109870000D02*
X181250000Y-111045300D01*
X180735800Y-111045300D02*
X181250000Y-111045300D01*
X179435100Y-112346000D02*
X180735800Y-111045300D01*
X179435100Y-117526900D02*
X179435100Y-112346000D01*
X172582800Y-124379200D02*
X179435100Y-117526900D01*
X172582800Y-143253600D02*
X172582800Y-124379200D01*
X170580000Y-145256400D02*
X172582800Y-143253600D01*
X134750000Y-146000000D02*
X134750000Y-139500000D01*
X181250000Y-117490000D02*
X181250000Y-118665300D01*
X177250000Y-146000000D02*
X177250000Y-139500000D01*
X134750000Y-95500000D02*
X134750000Y-89000000D01*
X181764200Y-118665300D02*
X181250000Y-118665300D01*
X182614600Y-119515700D02*
X181764200Y-118665300D01*
X182614600Y-134135400D02*
X182614600Y-119515700D01*
X177250000Y-139500000D02*
X182614600Y-134135400D01*
X177250000Y-89000000D02*
X177250000Y-95500000D01*
X181764200Y-116314700D02*
X181250000Y-116314700D01*
X182614600Y-115464300D02*
X181764200Y-116314700D01*
X182614600Y-100864600D02*
X182614600Y-115464300D01*
X177250000Y-95500000D02*
X182614600Y-100864600D01*
X181250000Y-117490000D02*
X181250000Y-116314700D01*
X135250000Y-125020800D02*
X135250000Y-123500000D01*
X142463900Y-132234700D02*
X135250000Y-125020800D01*
X143000000Y-132234700D02*
X142463900Y-132234700D01*
X143000000Y-133460000D02*
X143000000Y-132234700D01*
D23*
G36*
X179911336Y-118382045D02*
X180339085Y-118765347D01*
X180017914Y-118979946D01*
X179696007Y-119461715D01*
X179582968Y-120030000D01*
X179696007Y-120598285D01*
X180017914Y-121080054D01*
X180499683Y-121401961D01*
X181067968Y-121515000D01*
X181432032Y-121515000D01*
X182000317Y-121401961D01*
X182482086Y-121080054D01*
X182490000Y-121068210D01*
X182490000Y-122397935D01*
X182351890Y-122303569D01*
X182100000Y-122252560D01*
X180400000Y-122252560D01*
X180164683Y-122296838D01*
X179948559Y-122435910D01*
X179803569Y-122648110D01*
X179752560Y-122900000D01*
X179752560Y-124600000D01*
X179796838Y-124835317D01*
X179935910Y-125051441D01*
X180148110Y-125196431D01*
X180215541Y-125210086D01*
X180170853Y-125239946D01*
X179848946Y-125721715D01*
X179735907Y-126290000D01*
X179848946Y-126858285D01*
X180170853Y-127340054D01*
X180652622Y-127661961D01*
X181220907Y-127775000D01*
X181279093Y-127775000D01*
X181847378Y-127661961D01*
X182329147Y-127340054D01*
X182490000Y-127099320D01*
X182490000Y-138036922D01*
X182076648Y-137865284D01*
X181426205Y-137864716D01*
X180825057Y-138113106D01*
X180364722Y-138572637D01*
X180115284Y-139173352D01*
X180114716Y-139823795D01*
X180363106Y-140424943D01*
X180822637Y-140885278D01*
X181423352Y-141134716D01*
X182073795Y-141135284D01*
X182490000Y-140963311D01*
X182490000Y-144536922D01*
X182076648Y-144365284D01*
X181426205Y-144364716D01*
X180825057Y-144613106D01*
X180364722Y-145072637D01*
X180115284Y-145673352D01*
X180114716Y-146323795D01*
X180307349Y-146790000D01*
X178700692Y-146790000D01*
X178895908Y-146264539D01*
X178871856Y-145614540D01*
X178669387Y-145125736D01*
X178402532Y-145027073D01*
X177429605Y-146000000D01*
X177443748Y-146014143D01*
X177264143Y-146193748D01*
X177250000Y-146179605D01*
X177235858Y-146193748D01*
X177056253Y-146014143D01*
X177070395Y-146000000D01*
X176097468Y-145027073D01*
X175830613Y-145125736D01*
X175604092Y-145735461D01*
X175628144Y-146385460D01*
X175795710Y-146790000D01*
X171149888Y-146790000D01*
X171504943Y-146643294D01*
X171965278Y-146183763D01*
X172214716Y-145583048D01*
X172215284Y-144932605D01*
X172180107Y-144847468D01*
X176277073Y-144847468D01*
X177250000Y-145820395D01*
X178222927Y-144847468D01*
X178124264Y-144580613D01*
X177514539Y-144354092D01*
X176864540Y-144378144D01*
X176375736Y-144580613D01*
X176277073Y-144847468D01*
X172180107Y-144847468D01*
X172146081Y-144765121D01*
X173120201Y-143791001D01*
X173284948Y-143544439D01*
X173342800Y-143253600D01*
X173342800Y-140652532D01*
X176277073Y-140652532D01*
X176375736Y-140919387D01*
X176985461Y-141145908D01*
X177635460Y-141121856D01*
X178124264Y-140919387D01*
X178222927Y-140652532D01*
X177250000Y-139679605D01*
X176277073Y-140652532D01*
X173342800Y-140652532D01*
X173342800Y-139235461D01*
X175604092Y-139235461D01*
X175628144Y-139885460D01*
X175830613Y-140374264D01*
X176097468Y-140472927D01*
X177070395Y-139500000D01*
X177429605Y-139500000D01*
X178402532Y-140472927D01*
X178669387Y-140374264D01*
X178895908Y-139764539D01*
X178871856Y-139114540D01*
X178669387Y-138625736D01*
X178402532Y-138527073D01*
X177429605Y-139500000D01*
X177070395Y-139500000D01*
X176097468Y-138527073D01*
X175830613Y-138625736D01*
X175604092Y-139235461D01*
X173342800Y-139235461D01*
X173342800Y-138347468D01*
X176277073Y-138347468D01*
X177250000Y-139320395D01*
X178222927Y-138347468D01*
X178124264Y-138080613D01*
X177514539Y-137854092D01*
X176864540Y-137878144D01*
X176375736Y-138080613D01*
X176277073Y-138347468D01*
X173342800Y-138347468D01*
X173342800Y-128700227D01*
X174051688Y-129410354D01*
X175313739Y-129934403D01*
X176680266Y-129935595D01*
X177943229Y-129413750D01*
X178910354Y-128448312D01*
X179434403Y-127186261D01*
X179435595Y-125819734D01*
X178913750Y-124556771D01*
X177948312Y-123589646D01*
X176686261Y-123065597D01*
X175319734Y-123064405D01*
X174727826Y-123308976D01*
X179828132Y-118208670D01*
X179911336Y-118382045D01*
X179911336Y-118382045D01*
G37*
X179911336Y-118382045D02*
X180339085Y-118765347D01*
X180017914Y-118979946D01*
X179696007Y-119461715D01*
X179582968Y-120030000D01*
X179696007Y-120598285D01*
X180017914Y-121080054D01*
X180499683Y-121401961D01*
X181067968Y-121515000D01*
X181432032Y-121515000D01*
X182000317Y-121401961D01*
X182482086Y-121080054D01*
X182490000Y-121068210D01*
X182490000Y-122397935D01*
X182351890Y-122303569D01*
X182100000Y-122252560D01*
X180400000Y-122252560D01*
X180164683Y-122296838D01*
X179948559Y-122435910D01*
X179803569Y-122648110D01*
X179752560Y-122900000D01*
X179752560Y-124600000D01*
X179796838Y-124835317D01*
X179935910Y-125051441D01*
X180148110Y-125196431D01*
X180215541Y-125210086D01*
X180170853Y-125239946D01*
X179848946Y-125721715D01*
X179735907Y-126290000D01*
X179848946Y-126858285D01*
X180170853Y-127340054D01*
X180652622Y-127661961D01*
X181220907Y-127775000D01*
X181279093Y-127775000D01*
X181847378Y-127661961D01*
X182329147Y-127340054D01*
X182490000Y-127099320D01*
X182490000Y-138036922D01*
X182076648Y-137865284D01*
X181426205Y-137864716D01*
X180825057Y-138113106D01*
X180364722Y-138572637D01*
X180115284Y-139173352D01*
X180114716Y-139823795D01*
X180363106Y-140424943D01*
X180822637Y-140885278D01*
X181423352Y-141134716D01*
X182073795Y-141135284D01*
X182490000Y-140963311D01*
X182490000Y-144536922D01*
X182076648Y-144365284D01*
X181426205Y-144364716D01*
X180825057Y-144613106D01*
X180364722Y-145072637D01*
X180115284Y-145673352D01*
X180114716Y-146323795D01*
X180307349Y-146790000D01*
X178700692Y-146790000D01*
X178895908Y-146264539D01*
X178871856Y-145614540D01*
X178669387Y-145125736D01*
X178402532Y-145027073D01*
X177429605Y-146000000D01*
X177443748Y-146014143D01*
X177264143Y-146193748D01*
X177250000Y-146179605D01*
X177235858Y-146193748D01*
X177056253Y-146014143D01*
X177070395Y-146000000D01*
X176097468Y-145027073D01*
X175830613Y-145125736D01*
X175604092Y-145735461D01*
X175628144Y-146385460D01*
X175795710Y-146790000D01*
X171149888Y-146790000D01*
X171504943Y-146643294D01*
X171965278Y-146183763D01*
X172214716Y-145583048D01*
X172215284Y-144932605D01*
X172180107Y-144847468D01*
X176277073Y-144847468D01*
X177250000Y-145820395D01*
X178222927Y-144847468D01*
X178124264Y-144580613D01*
X177514539Y-144354092D01*
X176864540Y-144378144D01*
X176375736Y-144580613D01*
X176277073Y-144847468D01*
X172180107Y-144847468D01*
X172146081Y-144765121D01*
X173120201Y-143791001D01*
X173284948Y-143544439D01*
X173342800Y-143253600D01*
X173342800Y-140652532D01*
X176277073Y-140652532D01*
X176375736Y-140919387D01*
X176985461Y-141145908D01*
X177635460Y-141121856D01*
X178124264Y-140919387D01*
X178222927Y-140652532D01*
X177250000Y-139679605D01*
X176277073Y-140652532D01*
X173342800Y-140652532D01*
X173342800Y-139235461D01*
X175604092Y-139235461D01*
X175628144Y-139885460D01*
X175830613Y-140374264D01*
X176097468Y-140472927D01*
X177070395Y-139500000D01*
X177429605Y-139500000D01*
X178402532Y-140472927D01*
X178669387Y-140374264D01*
X178895908Y-139764539D01*
X178871856Y-139114540D01*
X178669387Y-138625736D01*
X178402532Y-138527073D01*
X177429605Y-139500000D01*
X177070395Y-139500000D01*
X176097468Y-138527073D01*
X175830613Y-138625736D01*
X175604092Y-139235461D01*
X173342800Y-139235461D01*
X173342800Y-138347468D01*
X176277073Y-138347468D01*
X177250000Y-139320395D01*
X178222927Y-138347468D01*
X178124264Y-138080613D01*
X177514539Y-137854092D01*
X176864540Y-137878144D01*
X176375736Y-138080613D01*
X176277073Y-138347468D01*
X173342800Y-138347468D01*
X173342800Y-128700227D01*
X174051688Y-129410354D01*
X175313739Y-129934403D01*
X176680266Y-129935595D01*
X177943229Y-129413750D01*
X178910354Y-128448312D01*
X179434403Y-127186261D01*
X179435595Y-125819734D01*
X178913750Y-124556771D01*
X177948312Y-123589646D01*
X176686261Y-123065597D01*
X175319734Y-123064405D01*
X174727826Y-123308976D01*
X179828132Y-118208670D01*
X179911336Y-118382045D01*
G36*
X137615284Y-88673352D02*
X137614716Y-89323795D01*
X137863106Y-89924943D01*
X138322637Y-90385278D01*
X138923352Y-90634716D01*
X139573795Y-90635284D01*
X140174943Y-90386894D01*
X140409715Y-90152532D01*
X176277073Y-90152532D01*
X176375736Y-90419387D01*
X176985461Y-90645908D01*
X177635460Y-90621856D01*
X178124264Y-90419387D01*
X178222927Y-90152532D01*
X177250000Y-89179605D01*
X176277073Y-90152532D01*
X140409715Y-90152532D01*
X140635278Y-89927363D01*
X140884716Y-89326648D01*
X140885284Y-88676205D01*
X140692651Y-88210000D01*
X175799308Y-88210000D01*
X175604092Y-88735461D01*
X175628144Y-89385460D01*
X175830613Y-89874264D01*
X176097468Y-89972927D01*
X177070395Y-89000000D01*
X177056253Y-88985858D01*
X177235858Y-88806253D01*
X177250000Y-88820395D01*
X177264143Y-88806253D01*
X177443748Y-88985858D01*
X177429605Y-89000000D01*
X178402532Y-89972927D01*
X178669387Y-89874264D01*
X178895908Y-89264539D01*
X178871856Y-88614540D01*
X178704290Y-88210000D01*
X180307684Y-88210000D01*
X180115284Y-88673352D01*
X180114716Y-89323795D01*
X180363106Y-89924943D01*
X180822637Y-90385278D01*
X181423352Y-90634716D01*
X182073795Y-90635284D01*
X182490000Y-90463311D01*
X182490000Y-94036922D01*
X182076648Y-93865284D01*
X181426205Y-93864716D01*
X180825057Y-94113106D01*
X180364722Y-94572637D01*
X180115284Y-95173352D01*
X180114716Y-95823795D01*
X180363106Y-96424943D01*
X180822637Y-96885278D01*
X181423352Y-97134716D01*
X182073795Y-97135284D01*
X182490000Y-96963311D01*
X182490000Y-100897935D01*
X182351890Y-100803569D01*
X182100000Y-100752560D01*
X180400000Y-100752560D01*
X180164683Y-100796838D01*
X179948559Y-100935910D01*
X179803569Y-101148110D01*
X179752560Y-101400000D01*
X179752560Y-103100000D01*
X179789576Y-103296722D01*
X179347999Y-103738299D01*
X179183252Y-103984861D01*
X179125400Y-104275700D01*
X179125400Y-104630298D01*
X161849033Y-121906665D01*
X161685010Y-121509697D01*
X161292370Y-121116371D01*
X161260000Y-121102930D01*
X161260000Y-113429200D01*
X161202148Y-113138361D01*
X161037401Y-112891799D01*
X155439007Y-107293405D01*
X155670187Y-106947419D01*
X155787032Y-106360000D01*
X155670187Y-105772581D01*
X155337441Y-105274591D01*
X154839451Y-104941845D01*
X154252032Y-104825000D01*
X153987968Y-104825000D01*
X153400549Y-104941845D01*
X152902559Y-105274591D01*
X152569813Y-105772581D01*
X152452968Y-106360000D01*
X152569813Y-106947419D01*
X152902559Y-107445409D01*
X153178819Y-107630000D01*
X152902559Y-107814591D01*
X152569813Y-108312581D01*
X152452968Y-108900000D01*
X152569813Y-109487419D01*
X152902559Y-109985409D01*
X153178819Y-110170000D01*
X152902559Y-110354591D01*
X152569813Y-110852581D01*
X152452968Y-111440000D01*
X152569813Y-112027419D01*
X152902559Y-112525409D01*
X153178819Y-112710000D01*
X152902559Y-112894591D01*
X152569813Y-113392581D01*
X152452968Y-113980000D01*
X152569813Y-114567419D01*
X152902559Y-115065409D01*
X153178819Y-115250000D01*
X152902559Y-115434591D01*
X152569813Y-115932581D01*
X152452968Y-116520000D01*
X152569813Y-117107419D01*
X152800993Y-117453405D01*
X145853399Y-124400999D01*
X145688652Y-124647561D01*
X145630800Y-124938400D01*
X145630800Y-143724000D01*
X145688652Y-144014839D01*
X145853399Y-144261401D01*
X146153725Y-144561727D01*
X146085284Y-144726552D01*
X146084716Y-145376995D01*
X146333106Y-145978143D01*
X146792637Y-146438478D01*
X147393352Y-146687916D01*
X148043795Y-146688484D01*
X148644943Y-146440094D01*
X149105278Y-145980563D01*
X149354716Y-145379848D01*
X149355284Y-144729405D01*
X149106894Y-144128257D01*
X148660641Y-143681223D01*
X149105278Y-143237363D01*
X149354716Y-142636648D01*
X149355284Y-141986205D01*
X149106894Y-141385057D01*
X148647363Y-140924722D01*
X148480000Y-140855227D01*
X148480000Y-137425302D01*
X150402785Y-135502517D01*
X150452673Y-135552492D01*
X150796201Y-135695138D01*
X151168167Y-135695462D01*
X151511943Y-135553417D01*
X151775192Y-135290627D01*
X151917838Y-134947099D01*
X151917879Y-134900223D01*
X179606524Y-107211578D01*
X179582968Y-107330000D01*
X179696007Y-107898285D01*
X179925120Y-108241178D01*
X170042599Y-118123699D01*
X169877852Y-118370261D01*
X169820000Y-118661100D01*
X169820000Y-124212420D01*
X169198312Y-123589646D01*
X167936261Y-123065597D01*
X166569734Y-123064405D01*
X165306771Y-123586250D01*
X164339646Y-124551688D01*
X163815597Y-125813739D01*
X163814405Y-127180266D01*
X164336250Y-128443229D01*
X165301688Y-129410354D01*
X166563739Y-129934403D01*
X167930266Y-129935595D01*
X169193229Y-129413750D01*
X169820000Y-128788072D01*
X169820000Y-130288553D01*
X169655057Y-130356706D01*
X169194722Y-130816237D01*
X168945284Y-131416952D01*
X168944716Y-132067395D01*
X169193106Y-132668543D01*
X169652637Y-133128878D01*
X170253352Y-133378316D01*
X170903795Y-133378884D01*
X171504943Y-133130494D01*
X171822800Y-132813192D01*
X171822800Y-142938798D01*
X171071473Y-143690125D01*
X170906648Y-143621684D01*
X170256205Y-143621116D01*
X169655057Y-143869506D01*
X169194722Y-144329037D01*
X168945284Y-144929752D01*
X168944716Y-145580195D01*
X169193106Y-146181343D01*
X169652637Y-146641678D01*
X170009837Y-146790000D01*
X140692316Y-146790000D01*
X140884716Y-146326648D01*
X140885284Y-145676205D01*
X140636894Y-145075057D01*
X140177363Y-144614722D01*
X140010000Y-144545227D01*
X140010000Y-140955047D01*
X140174943Y-140886894D01*
X140635278Y-140427363D01*
X140884716Y-139826648D01*
X140885284Y-139176205D01*
X140636894Y-138575057D01*
X140177363Y-138114722D01*
X140010000Y-138045227D01*
X140010000Y-138019200D01*
X139952148Y-137728361D01*
X139787401Y-137481799D01*
X136699007Y-134393405D01*
X136930187Y-134047419D01*
X137047032Y-133460000D01*
X136930187Y-132872581D01*
X136597441Y-132374591D01*
X136321181Y-132190000D01*
X136597441Y-132005409D01*
X136930187Y-131507419D01*
X137047032Y-130920000D01*
X136930187Y-130332581D01*
X136597441Y-129834591D01*
X136321181Y-129650000D01*
X136597441Y-129465409D01*
X136930187Y-128967419D01*
X137047032Y-128380000D01*
X136930187Y-127792581D01*
X136896374Y-127741976D01*
X141680993Y-132526595D01*
X141449813Y-132872581D01*
X141332968Y-133460000D01*
X141449813Y-134047419D01*
X141754488Y-134503398D01*
X141548559Y-134635910D01*
X141403569Y-134848110D01*
X141352560Y-135100000D01*
X141352560Y-136900000D01*
X141396838Y-137135317D01*
X141535910Y-137351441D01*
X141748110Y-137496431D01*
X142000000Y-137547440D01*
X144000000Y-137547440D01*
X144235317Y-137503162D01*
X144451441Y-137364090D01*
X144596431Y-137151890D01*
X144647440Y-136900000D01*
X144647440Y-135100000D01*
X144603162Y-134864683D01*
X144464090Y-134648559D01*
X144251890Y-134503569D01*
X144246171Y-134502411D01*
X144550187Y-134047419D01*
X144667032Y-133460000D01*
X144550187Y-132872581D01*
X144217441Y-132374591D01*
X143941181Y-132190000D01*
X144217441Y-132005409D01*
X144550187Y-131507419D01*
X144667032Y-130920000D01*
X144550187Y-130332581D01*
X144217441Y-129834591D01*
X143945946Y-129653184D01*
X144356809Y-129259752D01*
X144591036Y-128744740D01*
X144470378Y-128507000D01*
X143127000Y-128507000D01*
X143127000Y-128527000D01*
X142873000Y-128527000D01*
X142873000Y-128507000D01*
X142853000Y-128507000D01*
X142853000Y-128253000D01*
X142873000Y-128253000D01*
X142873000Y-127004865D01*
X143127000Y-127004865D01*
X143127000Y-128253000D01*
X144470378Y-128253000D01*
X144591036Y-128015260D01*
X144356809Y-127500248D01*
X143924474Y-127086255D01*
X143366620Y-126869223D01*
X143127000Y-127004865D01*
X142873000Y-127004865D01*
X142633380Y-126869223D01*
X142075526Y-127086255D01*
X141643191Y-127500248D01*
X141549736Y-127705734D01*
X139640000Y-125795998D01*
X139640000Y-125531061D01*
X140097441Y-125225409D01*
X140430187Y-124727419D01*
X140547032Y-124140000D01*
X140430187Y-123552581D01*
X140097441Y-123054591D01*
X139821181Y-122870000D01*
X140097441Y-122685409D01*
X140430187Y-122187419D01*
X140547032Y-121600000D01*
X140430187Y-121012581D01*
X140097441Y-120514591D01*
X139825946Y-120333184D01*
X140236809Y-119939752D01*
X140471036Y-119424740D01*
X140350378Y-119187000D01*
X139007000Y-119187000D01*
X139007000Y-119207000D01*
X138753000Y-119207000D01*
X138753000Y-119187000D01*
X137409622Y-119187000D01*
X137288964Y-119424740D01*
X137523191Y-119939752D01*
X137934054Y-120333184D01*
X137662559Y-120514591D01*
X137329813Y-121012581D01*
X137212968Y-121600000D01*
X137329813Y-122187419D01*
X137662559Y-122685409D01*
X137938819Y-122870000D01*
X137662559Y-123054591D01*
X137329813Y-123552581D01*
X137212968Y-124140000D01*
X137329813Y-124727419D01*
X137662559Y-125225409D01*
X138120000Y-125531061D01*
X138120000Y-126110800D01*
X138177852Y-126401639D01*
X138342599Y-126648201D01*
X141680993Y-129986595D01*
X141524623Y-130220621D01*
X136033103Y-124729101D01*
X136061800Y-124717243D01*
X136465824Y-124313923D01*
X136684750Y-123786691D01*
X136685248Y-123215813D01*
X136467243Y-122688200D01*
X136063923Y-122284176D01*
X135536691Y-122065250D01*
X134965813Y-122064752D01*
X134814600Y-122127232D01*
X134814600Y-119827202D01*
X136912801Y-117729001D01*
X137077548Y-117482439D01*
X137135400Y-117191600D01*
X137135400Y-108900000D01*
X137212968Y-108900000D01*
X137329813Y-109487419D01*
X137662559Y-109985409D01*
X137938819Y-110170000D01*
X137662559Y-110354591D01*
X137329813Y-110852581D01*
X137212968Y-111440000D01*
X137329813Y-112027419D01*
X137662559Y-112525409D01*
X137938819Y-112710000D01*
X137662559Y-112894591D01*
X137329813Y-113392581D01*
X137212968Y-113980000D01*
X137329813Y-114567419D01*
X137662559Y-115065409D01*
X137938819Y-115250000D01*
X137662559Y-115434591D01*
X137329813Y-115932581D01*
X137212968Y-116520000D01*
X137329813Y-117107419D01*
X137662559Y-117605409D01*
X137934054Y-117786816D01*
X137523191Y-118180248D01*
X137288964Y-118695260D01*
X137409622Y-118933000D01*
X138753000Y-118933000D01*
X138753000Y-118913000D01*
X139007000Y-118913000D01*
X139007000Y-118933000D01*
X140350378Y-118933000D01*
X140471036Y-118695260D01*
X140236809Y-118180248D01*
X139825946Y-117786816D01*
X140097441Y-117605409D01*
X140430187Y-117107419D01*
X140547032Y-116520000D01*
X140430187Y-115932581D01*
X140097441Y-115434591D01*
X139821181Y-115250000D01*
X140097441Y-115065409D01*
X140430187Y-114567419D01*
X140547032Y-113980000D01*
X140430187Y-113392581D01*
X140097441Y-112894591D01*
X139821181Y-112710000D01*
X140097441Y-112525409D01*
X140430187Y-112027419D01*
X140547032Y-111440000D01*
X140430187Y-110852581D01*
X140097441Y-110354591D01*
X139821181Y-110170000D01*
X140097441Y-109985409D01*
X140430187Y-109487419D01*
X140547032Y-108900000D01*
X140430187Y-108312581D01*
X140125512Y-107856602D01*
X140331441Y-107724090D01*
X140476431Y-107511890D01*
X140527440Y-107260000D01*
X140527440Y-105460000D01*
X140483162Y-105224683D01*
X140344090Y-105008559D01*
X140131890Y-104863569D01*
X139880000Y-104812560D01*
X137880000Y-104812560D01*
X137644683Y-104856838D01*
X137428559Y-104995910D01*
X137283569Y-105208110D01*
X137232560Y-105460000D01*
X137232560Y-107260000D01*
X137276838Y-107495317D01*
X137415910Y-107711441D01*
X137628110Y-107856431D01*
X137633829Y-107857589D01*
X137329813Y-108312581D01*
X137212968Y-108900000D01*
X137135400Y-108900000D01*
X137135400Y-98689402D01*
X138758527Y-97066275D01*
X138923352Y-97134716D01*
X139573795Y-97135284D01*
X139964627Y-96973795D01*
X143464716Y-96973795D01*
X143713106Y-97574943D01*
X144172637Y-98035278D01*
X144773352Y-98284716D01*
X145423795Y-98285284D01*
X146024943Y-98036894D01*
X146485278Y-97577363D01*
X146487197Y-97572742D01*
X146488106Y-97574943D01*
X146947637Y-98035278D01*
X147548352Y-98284716D01*
X148198795Y-98285284D01*
X148799943Y-98036894D01*
X149260278Y-97577363D01*
X149509716Y-96976648D01*
X149509999Y-96652532D01*
X176277073Y-96652532D01*
X176375736Y-96919387D01*
X176985461Y-97145908D01*
X177635460Y-97121856D01*
X178124264Y-96919387D01*
X178222927Y-96652532D01*
X177250000Y-95679605D01*
X176277073Y-96652532D01*
X149509999Y-96652532D01*
X149510284Y-96326205D01*
X149261894Y-95725057D01*
X148802363Y-95264722D01*
X148731895Y-95235461D01*
X175604092Y-95235461D01*
X175628144Y-95885460D01*
X175830613Y-96374264D01*
X176097468Y-96472927D01*
X177070395Y-95500000D01*
X177429605Y-95500000D01*
X178402532Y-96472927D01*
X178669387Y-96374264D01*
X178895908Y-95764539D01*
X178871856Y-95114540D01*
X178669387Y-94625736D01*
X178402532Y-94527073D01*
X177429605Y-95500000D01*
X177070395Y-95500000D01*
X176097468Y-94527073D01*
X175830613Y-94625736D01*
X175604092Y-95235461D01*
X148731895Y-95235461D01*
X148201648Y-95015284D01*
X147551205Y-95014716D01*
X146950057Y-95263106D01*
X146489722Y-95722637D01*
X146487803Y-95727258D01*
X146486894Y-95725057D01*
X146027363Y-95264722D01*
X145426648Y-95015284D01*
X144776205Y-95014716D01*
X144175057Y-95263106D01*
X143714722Y-95722637D01*
X143465284Y-96323352D01*
X143464716Y-96973795D01*
X139964627Y-96973795D01*
X140174943Y-96886894D01*
X140635278Y-96427363D01*
X140884716Y-95826648D01*
X140885284Y-95176205D01*
X140636894Y-94575057D01*
X140409703Y-94347468D01*
X176277073Y-94347468D01*
X177250000Y-95320395D01*
X178222927Y-94347468D01*
X178124264Y-94080613D01*
X177514539Y-93854092D01*
X176864540Y-93878144D01*
X176375736Y-94080613D01*
X176277073Y-94347468D01*
X140409703Y-94347468D01*
X140177363Y-94114722D01*
X139576648Y-93865284D01*
X138926205Y-93864716D01*
X138325057Y-94113106D01*
X137864722Y-94572637D01*
X137615284Y-95173352D01*
X137614716Y-95823795D01*
X137683919Y-95991279D01*
X135837999Y-97837199D01*
X135673252Y-98083761D01*
X135615400Y-98374600D01*
X135615400Y-114494872D01*
X135599039Y-114488096D01*
X135377000Y-114610085D01*
X135377000Y-115753000D01*
X135397000Y-115753000D01*
X135397000Y-116007000D01*
X135377000Y-116007000D01*
X135377000Y-116027000D01*
X135123000Y-116027000D01*
X135123000Y-116007000D01*
X135103000Y-116007000D01*
X135103000Y-115753000D01*
X135123000Y-115753000D01*
X135123000Y-114610085D01*
X134900961Y-114488096D01*
X134512577Y-114648959D01*
X134097611Y-115024866D01*
X133910000Y-115421270D01*
X133910000Y-96932117D01*
X134485461Y-97145908D01*
X135135460Y-97121856D01*
X135624264Y-96919387D01*
X135722927Y-96652532D01*
X134750000Y-95679605D01*
X134735858Y-95693748D01*
X134556253Y-95514143D01*
X134570395Y-95500000D01*
X134929605Y-95500000D01*
X135902532Y-96472927D01*
X136169387Y-96374264D01*
X136395908Y-95764539D01*
X136371856Y-95114540D01*
X136169387Y-94625736D01*
X135902532Y-94527073D01*
X134929605Y-95500000D01*
X134570395Y-95500000D01*
X134556253Y-95485858D01*
X134735858Y-95306253D01*
X134750000Y-95320395D01*
X135722927Y-94347468D01*
X135624264Y-94080613D01*
X135014539Y-93854092D01*
X134364540Y-93878144D01*
X133910000Y-94066420D01*
X133910000Y-90432117D01*
X134485461Y-90645908D01*
X135135460Y-90621856D01*
X135624264Y-90419387D01*
X135722927Y-90152532D01*
X134750000Y-89179605D01*
X134735858Y-89193748D01*
X134556253Y-89014143D01*
X134570395Y-89000000D01*
X134556253Y-88985858D01*
X134735858Y-88806253D01*
X134750000Y-88820395D01*
X134764143Y-88806253D01*
X134943748Y-88985858D01*
X134929605Y-89000000D01*
X135902532Y-89972927D01*
X136169387Y-89874264D01*
X136395908Y-89264539D01*
X136371856Y-88614540D01*
X136204290Y-88210000D01*
X137807684Y-88210000D01*
X137615284Y-88673352D01*
X137615284Y-88673352D01*
G37*
X137615284Y-88673352D02*
X137614716Y-89323795D01*
X137863106Y-89924943D01*
X138322637Y-90385278D01*
X138923352Y-90634716D01*
X139573795Y-90635284D01*
X140174943Y-90386894D01*
X140409715Y-90152532D01*
X176277073Y-90152532D01*
X176375736Y-90419387D01*
X176985461Y-90645908D01*
X177635460Y-90621856D01*
X178124264Y-90419387D01*
X178222927Y-90152532D01*
X177250000Y-89179605D01*
X176277073Y-90152532D01*
X140409715Y-90152532D01*
X140635278Y-89927363D01*
X140884716Y-89326648D01*
X140885284Y-88676205D01*
X140692651Y-88210000D01*
X175799308Y-88210000D01*
X175604092Y-88735461D01*
X175628144Y-89385460D01*
X175830613Y-89874264D01*
X176097468Y-89972927D01*
X177070395Y-89000000D01*
X177056253Y-88985858D01*
X177235858Y-88806253D01*
X177250000Y-88820395D01*
X177264143Y-88806253D01*
X177443748Y-88985858D01*
X177429605Y-89000000D01*
X178402532Y-89972927D01*
X178669387Y-89874264D01*
X178895908Y-89264539D01*
X178871856Y-88614540D01*
X178704290Y-88210000D01*
X180307684Y-88210000D01*
X180115284Y-88673352D01*
X180114716Y-89323795D01*
X180363106Y-89924943D01*
X180822637Y-90385278D01*
X181423352Y-90634716D01*
X182073795Y-90635284D01*
X182490000Y-90463311D01*
X182490000Y-94036922D01*
X182076648Y-93865284D01*
X181426205Y-93864716D01*
X180825057Y-94113106D01*
X180364722Y-94572637D01*
X180115284Y-95173352D01*
X180114716Y-95823795D01*
X180363106Y-96424943D01*
X180822637Y-96885278D01*
X181423352Y-97134716D01*
X182073795Y-97135284D01*
X182490000Y-96963311D01*
X182490000Y-100897935D01*
X182351890Y-100803569D01*
X182100000Y-100752560D01*
X180400000Y-100752560D01*
X180164683Y-100796838D01*
X179948559Y-100935910D01*
X179803569Y-101148110D01*
X179752560Y-101400000D01*
X179752560Y-103100000D01*
X179789576Y-103296722D01*
X179347999Y-103738299D01*
X179183252Y-103984861D01*
X179125400Y-104275700D01*
X179125400Y-104630298D01*
X161849033Y-121906665D01*
X161685010Y-121509697D01*
X161292370Y-121116371D01*
X161260000Y-121102930D01*
X161260000Y-113429200D01*
X161202148Y-113138361D01*
X161037401Y-112891799D01*
X155439007Y-107293405D01*
X155670187Y-106947419D01*
X155787032Y-106360000D01*
X155670187Y-105772581D01*
X155337441Y-105274591D01*
X154839451Y-104941845D01*
X154252032Y-104825000D01*
X153987968Y-104825000D01*
X153400549Y-104941845D01*
X152902559Y-105274591D01*
X152569813Y-105772581D01*
X152452968Y-106360000D01*
X152569813Y-106947419D01*
X152902559Y-107445409D01*
X153178819Y-107630000D01*
X152902559Y-107814591D01*
X152569813Y-108312581D01*
X152452968Y-108900000D01*
X152569813Y-109487419D01*
X152902559Y-109985409D01*
X153178819Y-110170000D01*
X152902559Y-110354591D01*
X152569813Y-110852581D01*
X152452968Y-111440000D01*
X152569813Y-112027419D01*
X152902559Y-112525409D01*
X153178819Y-112710000D01*
X152902559Y-112894591D01*
X152569813Y-113392581D01*
X152452968Y-113980000D01*
X152569813Y-114567419D01*
X152902559Y-115065409D01*
X153178819Y-115250000D01*
X152902559Y-115434591D01*
X152569813Y-115932581D01*
X152452968Y-116520000D01*
X152569813Y-117107419D01*
X152800993Y-117453405D01*
X145853399Y-124400999D01*
X145688652Y-124647561D01*
X145630800Y-124938400D01*
X145630800Y-143724000D01*
X145688652Y-144014839D01*
X145853399Y-144261401D01*
X146153725Y-144561727D01*
X146085284Y-144726552D01*
X146084716Y-145376995D01*
X146333106Y-145978143D01*
X146792637Y-146438478D01*
X147393352Y-146687916D01*
X148043795Y-146688484D01*
X148644943Y-146440094D01*
X149105278Y-145980563D01*
X149354716Y-145379848D01*
X149355284Y-144729405D01*
X149106894Y-144128257D01*
X148660641Y-143681223D01*
X149105278Y-143237363D01*
X149354716Y-142636648D01*
X149355284Y-141986205D01*
X149106894Y-141385057D01*
X148647363Y-140924722D01*
X148480000Y-140855227D01*
X148480000Y-137425302D01*
X150402785Y-135502517D01*
X150452673Y-135552492D01*
X150796201Y-135695138D01*
X151168167Y-135695462D01*
X151511943Y-135553417D01*
X151775192Y-135290627D01*
X151917838Y-134947099D01*
X151917879Y-134900223D01*
X179606524Y-107211578D01*
X179582968Y-107330000D01*
X179696007Y-107898285D01*
X179925120Y-108241178D01*
X170042599Y-118123699D01*
X169877852Y-118370261D01*
X169820000Y-118661100D01*
X169820000Y-124212420D01*
X169198312Y-123589646D01*
X167936261Y-123065597D01*
X166569734Y-123064405D01*
X165306771Y-123586250D01*
X164339646Y-124551688D01*
X163815597Y-125813739D01*
X163814405Y-127180266D01*
X164336250Y-128443229D01*
X165301688Y-129410354D01*
X166563739Y-129934403D01*
X167930266Y-129935595D01*
X169193229Y-129413750D01*
X169820000Y-128788072D01*
X169820000Y-130288553D01*
X169655057Y-130356706D01*
X169194722Y-130816237D01*
X168945284Y-131416952D01*
X168944716Y-132067395D01*
X169193106Y-132668543D01*
X169652637Y-133128878D01*
X170253352Y-133378316D01*
X170903795Y-133378884D01*
X171504943Y-133130494D01*
X171822800Y-132813192D01*
X171822800Y-142938798D01*
X171071473Y-143690125D01*
X170906648Y-143621684D01*
X170256205Y-143621116D01*
X169655057Y-143869506D01*
X169194722Y-144329037D01*
X168945284Y-144929752D01*
X168944716Y-145580195D01*
X169193106Y-146181343D01*
X169652637Y-146641678D01*
X170009837Y-146790000D01*
X140692316Y-146790000D01*
X140884716Y-146326648D01*
X140885284Y-145676205D01*
X140636894Y-145075057D01*
X140177363Y-144614722D01*
X140010000Y-144545227D01*
X140010000Y-140955047D01*
X140174943Y-140886894D01*
X140635278Y-140427363D01*
X140884716Y-139826648D01*
X140885284Y-139176205D01*
X140636894Y-138575057D01*
X140177363Y-138114722D01*
X140010000Y-138045227D01*
X140010000Y-138019200D01*
X139952148Y-137728361D01*
X139787401Y-137481799D01*
X136699007Y-134393405D01*
X136930187Y-134047419D01*
X137047032Y-133460000D01*
X136930187Y-132872581D01*
X136597441Y-132374591D01*
X136321181Y-132190000D01*
X136597441Y-132005409D01*
X136930187Y-131507419D01*
X137047032Y-130920000D01*
X136930187Y-130332581D01*
X136597441Y-129834591D01*
X136321181Y-129650000D01*
X136597441Y-129465409D01*
X136930187Y-128967419D01*
X137047032Y-128380000D01*
X136930187Y-127792581D01*
X136896374Y-127741976D01*
X141680993Y-132526595D01*
X141449813Y-132872581D01*
X141332968Y-133460000D01*
X141449813Y-134047419D01*
X141754488Y-134503398D01*
X141548559Y-134635910D01*
X141403569Y-134848110D01*
X141352560Y-135100000D01*
X141352560Y-136900000D01*
X141396838Y-137135317D01*
X141535910Y-137351441D01*
X141748110Y-137496431D01*
X142000000Y-137547440D01*
X144000000Y-137547440D01*
X144235317Y-137503162D01*
X144451441Y-137364090D01*
X144596431Y-137151890D01*
X144647440Y-136900000D01*
X144647440Y-135100000D01*
X144603162Y-134864683D01*
X144464090Y-134648559D01*
X144251890Y-134503569D01*
X144246171Y-134502411D01*
X144550187Y-134047419D01*
X144667032Y-133460000D01*
X144550187Y-132872581D01*
X144217441Y-132374591D01*
X143941181Y-132190000D01*
X144217441Y-132005409D01*
X144550187Y-131507419D01*
X144667032Y-130920000D01*
X144550187Y-130332581D01*
X144217441Y-129834591D01*
X143945946Y-129653184D01*
X144356809Y-129259752D01*
X144591036Y-128744740D01*
X144470378Y-128507000D01*
X143127000Y-128507000D01*
X143127000Y-128527000D01*
X142873000Y-128527000D01*
X142873000Y-128507000D01*
X142853000Y-128507000D01*
X142853000Y-128253000D01*
X142873000Y-128253000D01*
X142873000Y-127004865D01*
X143127000Y-127004865D01*
X143127000Y-128253000D01*
X144470378Y-128253000D01*
X144591036Y-128015260D01*
X144356809Y-127500248D01*
X143924474Y-127086255D01*
X143366620Y-126869223D01*
X143127000Y-127004865D01*
X142873000Y-127004865D01*
X142633380Y-126869223D01*
X142075526Y-127086255D01*
X141643191Y-127500248D01*
X141549736Y-127705734D01*
X139640000Y-125795998D01*
X139640000Y-125531061D01*
X140097441Y-125225409D01*
X140430187Y-124727419D01*
X140547032Y-124140000D01*
X140430187Y-123552581D01*
X140097441Y-123054591D01*
X139821181Y-122870000D01*
X140097441Y-122685409D01*
X140430187Y-122187419D01*
X140547032Y-121600000D01*
X140430187Y-121012581D01*
X140097441Y-120514591D01*
X139825946Y-120333184D01*
X140236809Y-119939752D01*
X140471036Y-119424740D01*
X140350378Y-119187000D01*
X139007000Y-119187000D01*
X139007000Y-119207000D01*
X138753000Y-119207000D01*
X138753000Y-119187000D01*
X137409622Y-119187000D01*
X137288964Y-119424740D01*
X137523191Y-119939752D01*
X137934054Y-120333184D01*
X137662559Y-120514591D01*
X137329813Y-121012581D01*
X137212968Y-121600000D01*
X137329813Y-122187419D01*
X137662559Y-122685409D01*
X137938819Y-122870000D01*
X137662559Y-123054591D01*
X137329813Y-123552581D01*
X137212968Y-124140000D01*
X137329813Y-124727419D01*
X137662559Y-125225409D01*
X138120000Y-125531061D01*
X138120000Y-126110800D01*
X138177852Y-126401639D01*
X138342599Y-126648201D01*
X141680993Y-129986595D01*
X141524623Y-130220621D01*
X136033103Y-124729101D01*
X136061800Y-124717243D01*
X136465824Y-124313923D01*
X136684750Y-123786691D01*
X136685248Y-123215813D01*
X136467243Y-122688200D01*
X136063923Y-122284176D01*
X135536691Y-122065250D01*
X134965813Y-122064752D01*
X134814600Y-122127232D01*
X134814600Y-119827202D01*
X136912801Y-117729001D01*
X137077548Y-117482439D01*
X137135400Y-117191600D01*
X137135400Y-108900000D01*
X137212968Y-108900000D01*
X137329813Y-109487419D01*
X137662559Y-109985409D01*
X137938819Y-110170000D01*
X137662559Y-110354591D01*
X137329813Y-110852581D01*
X137212968Y-111440000D01*
X137329813Y-112027419D01*
X137662559Y-112525409D01*
X137938819Y-112710000D01*
X137662559Y-112894591D01*
X137329813Y-113392581D01*
X137212968Y-113980000D01*
X137329813Y-114567419D01*
X137662559Y-115065409D01*
X137938819Y-115250000D01*
X137662559Y-115434591D01*
X137329813Y-115932581D01*
X137212968Y-116520000D01*
X137329813Y-117107419D01*
X137662559Y-117605409D01*
X137934054Y-117786816D01*
X137523191Y-118180248D01*
X137288964Y-118695260D01*
X137409622Y-118933000D01*
X138753000Y-118933000D01*
X138753000Y-118913000D01*
X139007000Y-118913000D01*
X139007000Y-118933000D01*
X140350378Y-118933000D01*
X140471036Y-118695260D01*
X140236809Y-118180248D01*
X139825946Y-117786816D01*
X140097441Y-117605409D01*
X140430187Y-117107419D01*
X140547032Y-116520000D01*
X140430187Y-115932581D01*
X140097441Y-115434591D01*
X139821181Y-115250000D01*
X140097441Y-115065409D01*
X140430187Y-114567419D01*
X140547032Y-113980000D01*
X140430187Y-113392581D01*
X140097441Y-112894591D01*
X139821181Y-112710000D01*
X140097441Y-112525409D01*
X140430187Y-112027419D01*
X140547032Y-111440000D01*
X140430187Y-110852581D01*
X140097441Y-110354591D01*
X139821181Y-110170000D01*
X140097441Y-109985409D01*
X140430187Y-109487419D01*
X140547032Y-108900000D01*
X140430187Y-108312581D01*
X140125512Y-107856602D01*
X140331441Y-107724090D01*
X140476431Y-107511890D01*
X140527440Y-107260000D01*
X140527440Y-105460000D01*
X140483162Y-105224683D01*
X140344090Y-105008559D01*
X140131890Y-104863569D01*
X139880000Y-104812560D01*
X137880000Y-104812560D01*
X137644683Y-104856838D01*
X137428559Y-104995910D01*
X137283569Y-105208110D01*
X137232560Y-105460000D01*
X137232560Y-107260000D01*
X137276838Y-107495317D01*
X137415910Y-107711441D01*
X137628110Y-107856431D01*
X137633829Y-107857589D01*
X137329813Y-108312581D01*
X137212968Y-108900000D01*
X137135400Y-108900000D01*
X137135400Y-98689402D01*
X138758527Y-97066275D01*
X138923352Y-97134716D01*
X139573795Y-97135284D01*
X139964627Y-96973795D01*
X143464716Y-96973795D01*
X143713106Y-97574943D01*
X144172637Y-98035278D01*
X144773352Y-98284716D01*
X145423795Y-98285284D01*
X146024943Y-98036894D01*
X146485278Y-97577363D01*
X146487197Y-97572742D01*
X146488106Y-97574943D01*
X146947637Y-98035278D01*
X147548352Y-98284716D01*
X148198795Y-98285284D01*
X148799943Y-98036894D01*
X149260278Y-97577363D01*
X149509716Y-96976648D01*
X149509999Y-96652532D01*
X176277073Y-96652532D01*
X176375736Y-96919387D01*
X176985461Y-97145908D01*
X177635460Y-97121856D01*
X178124264Y-96919387D01*
X178222927Y-96652532D01*
X177250000Y-95679605D01*
X176277073Y-96652532D01*
X149509999Y-96652532D01*
X149510284Y-96326205D01*
X149261894Y-95725057D01*
X148802363Y-95264722D01*
X148731895Y-95235461D01*
X175604092Y-95235461D01*
X175628144Y-95885460D01*
X175830613Y-96374264D01*
X176097468Y-96472927D01*
X177070395Y-95500000D01*
X177429605Y-95500000D01*
X178402532Y-96472927D01*
X178669387Y-96374264D01*
X178895908Y-95764539D01*
X178871856Y-95114540D01*
X178669387Y-94625736D01*
X178402532Y-94527073D01*
X177429605Y-95500000D01*
X177070395Y-95500000D01*
X176097468Y-94527073D01*
X175830613Y-94625736D01*
X175604092Y-95235461D01*
X148731895Y-95235461D01*
X148201648Y-95015284D01*
X147551205Y-95014716D01*
X146950057Y-95263106D01*
X146489722Y-95722637D01*
X146487803Y-95727258D01*
X146486894Y-95725057D01*
X146027363Y-95264722D01*
X145426648Y-95015284D01*
X144776205Y-95014716D01*
X144175057Y-95263106D01*
X143714722Y-95722637D01*
X143465284Y-96323352D01*
X143464716Y-96973795D01*
X139964627Y-96973795D01*
X140174943Y-96886894D01*
X140635278Y-96427363D01*
X140884716Y-95826648D01*
X140885284Y-95176205D01*
X140636894Y-94575057D01*
X140409703Y-94347468D01*
X176277073Y-94347468D01*
X177250000Y-95320395D01*
X178222927Y-94347468D01*
X178124264Y-94080613D01*
X177514539Y-93854092D01*
X176864540Y-93878144D01*
X176375736Y-94080613D01*
X176277073Y-94347468D01*
X140409703Y-94347468D01*
X140177363Y-94114722D01*
X139576648Y-93865284D01*
X138926205Y-93864716D01*
X138325057Y-94113106D01*
X137864722Y-94572637D01*
X137615284Y-95173352D01*
X137614716Y-95823795D01*
X137683919Y-95991279D01*
X135837999Y-97837199D01*
X135673252Y-98083761D01*
X135615400Y-98374600D01*
X135615400Y-114494872D01*
X135599039Y-114488096D01*
X135377000Y-114610085D01*
X135377000Y-115753000D01*
X135397000Y-115753000D01*
X135397000Y-116007000D01*
X135377000Y-116007000D01*
X135377000Y-116027000D01*
X135123000Y-116027000D01*
X135123000Y-116007000D01*
X135103000Y-116007000D01*
X135103000Y-115753000D01*
X135123000Y-115753000D01*
X135123000Y-114610085D01*
X134900961Y-114488096D01*
X134512577Y-114648959D01*
X134097611Y-115024866D01*
X133910000Y-115421270D01*
X133910000Y-96932117D01*
X134485461Y-97145908D01*
X135135460Y-97121856D01*
X135624264Y-96919387D01*
X135722927Y-96652532D01*
X134750000Y-95679605D01*
X134735858Y-95693748D01*
X134556253Y-95514143D01*
X134570395Y-95500000D01*
X134929605Y-95500000D01*
X135902532Y-96472927D01*
X136169387Y-96374264D01*
X136395908Y-95764539D01*
X136371856Y-95114540D01*
X136169387Y-94625736D01*
X135902532Y-94527073D01*
X134929605Y-95500000D01*
X134570395Y-95500000D01*
X134556253Y-95485858D01*
X134735858Y-95306253D01*
X134750000Y-95320395D01*
X135722927Y-94347468D01*
X135624264Y-94080613D01*
X135014539Y-93854092D01*
X134364540Y-93878144D01*
X133910000Y-94066420D01*
X133910000Y-90432117D01*
X134485461Y-90645908D01*
X135135460Y-90621856D01*
X135624264Y-90419387D01*
X135722927Y-90152532D01*
X134750000Y-89179605D01*
X134735858Y-89193748D01*
X134556253Y-89014143D01*
X134570395Y-89000000D01*
X134556253Y-88985858D01*
X134735858Y-88806253D01*
X134750000Y-88820395D01*
X134764143Y-88806253D01*
X134943748Y-88985858D01*
X134929605Y-89000000D01*
X135902532Y-89972927D01*
X136169387Y-89874264D01*
X136395908Y-89264539D01*
X136371856Y-88614540D01*
X136204290Y-88210000D01*
X137807684Y-88210000D01*
X137615284Y-88673352D01*
G36*
X138297056Y-138141058D02*
X137864722Y-138572637D01*
X137615284Y-139173352D01*
X137614716Y-139823795D01*
X137863106Y-140424943D01*
X138322637Y-140885278D01*
X138490000Y-140954773D01*
X138490000Y-144544953D01*
X138325057Y-144613106D01*
X137864722Y-145072637D01*
X137615284Y-145673352D01*
X137614716Y-146323795D01*
X137807349Y-146790000D01*
X136200692Y-146790000D01*
X136395908Y-146264539D01*
X136371856Y-145614540D01*
X136169387Y-145125736D01*
X135902532Y-145027073D01*
X134929605Y-146000000D01*
X134943748Y-146014143D01*
X134764143Y-146193748D01*
X134750000Y-146179605D01*
X134735858Y-146193748D01*
X134556253Y-146014143D01*
X134570395Y-146000000D01*
X134556253Y-145985858D01*
X134735858Y-145806253D01*
X134750000Y-145820395D01*
X135722927Y-144847468D01*
X135624264Y-144580613D01*
X135014539Y-144354092D01*
X134364540Y-144378144D01*
X133910000Y-144566420D01*
X133910000Y-140932117D01*
X134485461Y-141145908D01*
X135135460Y-141121856D01*
X135624264Y-140919387D01*
X135722927Y-140652532D01*
X134750000Y-139679605D01*
X134735858Y-139693748D01*
X134556253Y-139514143D01*
X134570395Y-139500000D01*
X134929605Y-139500000D01*
X135902532Y-140472927D01*
X136169387Y-140374264D01*
X136395908Y-139764539D01*
X136371856Y-139114540D01*
X136169387Y-138625736D01*
X135902532Y-138527073D01*
X134929605Y-139500000D01*
X134570395Y-139500000D01*
X134556253Y-139485858D01*
X134735858Y-139306253D01*
X134750000Y-139320395D01*
X135722927Y-138347468D01*
X135624264Y-138080613D01*
X135014539Y-137854092D01*
X134364540Y-137878144D01*
X133910000Y-138066420D01*
X133910000Y-136707427D01*
X134162559Y-137085409D01*
X134660549Y-137418155D01*
X135247968Y-137535000D01*
X135512032Y-137535000D01*
X136099451Y-137418155D01*
X136597441Y-137085409D01*
X136855377Y-136699379D01*
X138297056Y-138141058D01*
X138297056Y-138141058D01*
G37*
X138297056Y-138141058D02*
X137864722Y-138572637D01*
X137615284Y-139173352D01*
X137614716Y-139823795D01*
X137863106Y-140424943D01*
X138322637Y-140885278D01*
X138490000Y-140954773D01*
X138490000Y-144544953D01*
X138325057Y-144613106D01*
X137864722Y-145072637D01*
X137615284Y-145673352D01*
X137614716Y-146323795D01*
X137807349Y-146790000D01*
X136200692Y-146790000D01*
X136395908Y-146264539D01*
X136371856Y-145614540D01*
X136169387Y-145125736D01*
X135902532Y-145027073D01*
X134929605Y-146000000D01*
X134943748Y-146014143D01*
X134764143Y-146193748D01*
X134750000Y-146179605D01*
X134735858Y-146193748D01*
X134556253Y-146014143D01*
X134570395Y-146000000D01*
X134556253Y-145985858D01*
X134735858Y-145806253D01*
X134750000Y-145820395D01*
X135722927Y-144847468D01*
X135624264Y-144580613D01*
X135014539Y-144354092D01*
X134364540Y-144378144D01*
X133910000Y-144566420D01*
X133910000Y-140932117D01*
X134485461Y-141145908D01*
X135135460Y-141121856D01*
X135624264Y-140919387D01*
X135722927Y-140652532D01*
X134750000Y-139679605D01*
X134735858Y-139693748D01*
X134556253Y-139514143D01*
X134570395Y-139500000D01*
X134929605Y-139500000D01*
X135902532Y-140472927D01*
X136169387Y-140374264D01*
X136395908Y-139764539D01*
X136371856Y-139114540D01*
X136169387Y-138625736D01*
X135902532Y-138527073D01*
X134929605Y-139500000D01*
X134570395Y-139500000D01*
X134556253Y-139485858D01*
X134735858Y-139306253D01*
X134750000Y-139320395D01*
X135722927Y-138347468D01*
X135624264Y-138080613D01*
X135014539Y-137854092D01*
X134364540Y-137878144D01*
X133910000Y-138066420D01*
X133910000Y-136707427D01*
X134162559Y-137085409D01*
X134660549Y-137418155D01*
X135247968Y-137535000D01*
X135512032Y-137535000D01*
X136099451Y-137418155D01*
X136597441Y-137085409D01*
X136855377Y-136699379D01*
X138297056Y-138141058D01*
G36*
X159740000Y-113744002D02*
X159740000Y-121102469D01*
X159709697Y-121114990D01*
X159316371Y-121507630D01*
X159103243Y-122020900D01*
X159102758Y-122576661D01*
X159314990Y-123090303D01*
X159707630Y-123483629D01*
X160106460Y-123649238D01*
X149355254Y-134400444D01*
X149355284Y-134366205D01*
X149106894Y-133765057D01*
X148660641Y-133318023D01*
X149105278Y-132874163D01*
X149354716Y-132273448D01*
X149355284Y-131623005D01*
X149106894Y-131021857D01*
X148647363Y-130561522D01*
X148046648Y-130312084D01*
X147396205Y-130311516D01*
X147150800Y-130412916D01*
X147150800Y-125253202D01*
X152669736Y-119734266D01*
X152763191Y-119939752D01*
X153174054Y-120333184D01*
X152902559Y-120514591D01*
X152569813Y-121012581D01*
X152452968Y-121600000D01*
X152569813Y-122187419D01*
X152902559Y-122685409D01*
X153178819Y-122870000D01*
X152902559Y-123054591D01*
X152569813Y-123552581D01*
X152452968Y-124140000D01*
X152569813Y-124727419D01*
X152902559Y-125225409D01*
X153400549Y-125558155D01*
X153987968Y-125675000D01*
X154252032Y-125675000D01*
X154839451Y-125558155D01*
X155337441Y-125225409D01*
X155670187Y-124727419D01*
X155787032Y-124140000D01*
X155670187Y-123552581D01*
X155337441Y-123054591D01*
X155061181Y-122870000D01*
X155337441Y-122685409D01*
X155670187Y-122187419D01*
X155787032Y-121600000D01*
X155670187Y-121012581D01*
X155337441Y-120514591D01*
X155065946Y-120333184D01*
X155476809Y-119939752D01*
X155711036Y-119424740D01*
X155590378Y-119187000D01*
X154247000Y-119187000D01*
X154247000Y-119207000D01*
X153993000Y-119207000D01*
X153993000Y-119187000D01*
X153973000Y-119187000D01*
X153973000Y-118933000D01*
X153993000Y-118933000D01*
X153993000Y-118913000D01*
X154247000Y-118913000D01*
X154247000Y-118933000D01*
X155590378Y-118933000D01*
X155711036Y-118695260D01*
X155476809Y-118180248D01*
X155065946Y-117786816D01*
X155337441Y-117605409D01*
X155670187Y-117107419D01*
X155787032Y-116520000D01*
X155670187Y-115932581D01*
X155337441Y-115434591D01*
X155061181Y-115250000D01*
X155337441Y-115065409D01*
X155670187Y-114567419D01*
X155787032Y-113980000D01*
X155670187Y-113392581D01*
X155337441Y-112894591D01*
X155061181Y-112710000D01*
X155337441Y-112525409D01*
X155670187Y-112027419D01*
X155787032Y-111440000D01*
X155670187Y-110852581D01*
X155337441Y-110354591D01*
X155061181Y-110170000D01*
X155337441Y-109985409D01*
X155595377Y-109599379D01*
X159740000Y-113744002D01*
X159740000Y-113744002D01*
G37*
X159740000Y-113744002D02*
X159740000Y-121102469D01*
X159709697Y-121114990D01*
X159316371Y-121507630D01*
X159103243Y-122020900D01*
X159102758Y-122576661D01*
X159314990Y-123090303D01*
X159707630Y-123483629D01*
X160106460Y-123649238D01*
X149355254Y-134400444D01*
X149355284Y-134366205D01*
X149106894Y-133765057D01*
X148660641Y-133318023D01*
X149105278Y-132874163D01*
X149354716Y-132273448D01*
X149355284Y-131623005D01*
X149106894Y-131021857D01*
X148647363Y-130561522D01*
X148046648Y-130312084D01*
X147396205Y-130311516D01*
X147150800Y-130412916D01*
X147150800Y-125253202D01*
X152669736Y-119734266D01*
X152763191Y-119939752D01*
X153174054Y-120333184D01*
X152902559Y-120514591D01*
X152569813Y-121012581D01*
X152452968Y-121600000D01*
X152569813Y-122187419D01*
X152902559Y-122685409D01*
X153178819Y-122870000D01*
X152902559Y-123054591D01*
X152569813Y-123552581D01*
X152452968Y-124140000D01*
X152569813Y-124727419D01*
X152902559Y-125225409D01*
X153400549Y-125558155D01*
X153987968Y-125675000D01*
X154252032Y-125675000D01*
X154839451Y-125558155D01*
X155337441Y-125225409D01*
X155670187Y-124727419D01*
X155787032Y-124140000D01*
X155670187Y-123552581D01*
X155337441Y-123054591D01*
X155061181Y-122870000D01*
X155337441Y-122685409D01*
X155670187Y-122187419D01*
X155787032Y-121600000D01*
X155670187Y-121012581D01*
X155337441Y-120514591D01*
X155065946Y-120333184D01*
X155476809Y-119939752D01*
X155711036Y-119424740D01*
X155590378Y-119187000D01*
X154247000Y-119187000D01*
X154247000Y-119207000D01*
X153993000Y-119207000D01*
X153993000Y-119187000D01*
X153973000Y-119187000D01*
X153973000Y-118933000D01*
X153993000Y-118933000D01*
X153993000Y-118913000D01*
X154247000Y-118913000D01*
X154247000Y-118933000D01*
X155590378Y-118933000D01*
X155711036Y-118695260D01*
X155476809Y-118180248D01*
X155065946Y-117786816D01*
X155337441Y-117605409D01*
X155670187Y-117107419D01*
X155787032Y-116520000D01*
X155670187Y-115932581D01*
X155337441Y-115434591D01*
X155061181Y-115250000D01*
X155337441Y-115065409D01*
X155670187Y-114567419D01*
X155787032Y-113980000D01*
X155670187Y-113392581D01*
X155337441Y-112894591D01*
X155061181Y-112710000D01*
X155337441Y-112525409D01*
X155670187Y-112027419D01*
X155787032Y-111440000D01*
X155670187Y-110852581D01*
X155337441Y-110354591D01*
X155061181Y-110170000D01*
X155337441Y-109985409D01*
X155595377Y-109599379D01*
X159740000Y-113744002D01*
G36*
X181377000Y-117363000D02*
X181397000Y-117363000D01*
X181397000Y-117617000D01*
X181377000Y-117617000D01*
X181377000Y-117637000D01*
X181123000Y-117637000D01*
X181123000Y-117617000D01*
X181103000Y-117617000D01*
X181103000Y-117363000D01*
X181123000Y-117363000D01*
X181123000Y-117343000D01*
X181377000Y-117343000D01*
X181377000Y-117363000D01*
X181377000Y-117363000D01*
G37*
X181377000Y-117363000D02*
X181397000Y-117363000D01*
X181397000Y-117617000D01*
X181377000Y-117617000D01*
X181377000Y-117637000D01*
X181123000Y-117637000D01*
X181123000Y-117617000D01*
X181103000Y-117617000D01*
X181103000Y-117363000D01*
X181123000Y-117363000D01*
X181123000Y-117343000D01*
X181377000Y-117343000D01*
X181377000Y-117363000D01*
M02*
