G04 #@! TF.FileFunction,Legend,Top*
%FSLAX46Y46*%
G04 Gerber Fmt 4.6, Leading zero omitted, Abs format (unit mm)*
G04 Created by KiCad (PCBNEW 4.0.7-e2-6376~61~ubuntu18.04.1) date Tue Sep  4 16:19:30 2018*
%MOMM*%
%LPD*%
G01*
G04 APERTURE LIST*
%ADD10C,0.100000*%
%ADD11C,0.200000*%
%ADD12C,0.250000*%
%ADD13C,0.150000*%
%ADD14C,0.120000*%
G04 APERTURE END LIST*
D10*
D11*
X177183333Y-122561905D02*
X177450000Y-123361905D01*
X177716667Y-122561905D01*
X178440476Y-123285714D02*
X178402381Y-123323810D01*
X178288095Y-123361905D01*
X178211905Y-123361905D01*
X178097619Y-123323810D01*
X178021428Y-123247619D01*
X177983333Y-123171429D01*
X177945238Y-123019048D01*
X177945238Y-122904762D01*
X177983333Y-122752381D01*
X178021428Y-122676190D01*
X178097619Y-122600000D01*
X178211905Y-122561905D01*
X178288095Y-122561905D01*
X178402381Y-122600000D01*
X178440476Y-122638095D01*
X179240476Y-123285714D02*
X179202381Y-123323810D01*
X179088095Y-123361905D01*
X179011905Y-123361905D01*
X178897619Y-123323810D01*
X178821428Y-123247619D01*
X178783333Y-123171429D01*
X178745238Y-123019048D01*
X178745238Y-122904762D01*
X178783333Y-122752381D01*
X178821428Y-122676190D01*
X178897619Y-122600000D01*
X179011905Y-122561905D01*
X179088095Y-122561905D01*
X179202381Y-122600000D01*
X179240476Y-122638095D01*
D12*
X180488096Y-128750000D02*
X180392858Y-128702381D01*
X180250001Y-128702381D01*
X180107143Y-128750000D01*
X180011905Y-128845238D01*
X179964286Y-128940476D01*
X179916667Y-129130952D01*
X179916667Y-129273810D01*
X179964286Y-129464286D01*
X180011905Y-129559524D01*
X180107143Y-129654762D01*
X180250001Y-129702381D01*
X180345239Y-129702381D01*
X180488096Y-129654762D01*
X180535715Y-129607143D01*
X180535715Y-129273810D01*
X180345239Y-129273810D01*
X180964286Y-129702381D02*
X180964286Y-128702381D01*
X181535715Y-129702381D01*
X181535715Y-128702381D01*
X182011905Y-129702381D02*
X182011905Y-128702381D01*
X182250000Y-128702381D01*
X182392858Y-128750000D01*
X182488096Y-128845238D01*
X182535715Y-128940476D01*
X182583334Y-129130952D01*
X182583334Y-129273810D01*
X182535715Y-129464286D01*
X182488096Y-129559524D01*
X182392858Y-129654762D01*
X182250000Y-129702381D01*
X182011905Y-129702381D01*
D11*
X175466667Y-116961905D02*
X175619048Y-116961905D01*
X175695239Y-117000000D01*
X175771429Y-117076190D01*
X175809524Y-117228571D01*
X175809524Y-117495238D01*
X175771429Y-117647619D01*
X175695239Y-117723810D01*
X175619048Y-117761905D01*
X175466667Y-117761905D01*
X175390477Y-117723810D01*
X175314286Y-117647619D01*
X175276191Y-117495238D01*
X175276191Y-117228571D01*
X175314286Y-117076190D01*
X175390477Y-117000000D01*
X175466667Y-116961905D01*
X176152381Y-117228571D02*
X176152381Y-117761905D01*
X176152381Y-117304762D02*
X176190476Y-117266667D01*
X176266667Y-117228571D01*
X176380953Y-117228571D01*
X176457143Y-117266667D01*
X176495238Y-117342857D01*
X176495238Y-117761905D01*
X177447620Y-116923810D02*
X176761905Y-117952381D01*
X177866667Y-116961905D02*
X178019048Y-116961905D01*
X178095239Y-117000000D01*
X178171429Y-117076190D01*
X178209524Y-117228571D01*
X178209524Y-117495238D01*
X178171429Y-117647619D01*
X178095239Y-117723810D01*
X178019048Y-117761905D01*
X177866667Y-117761905D01*
X177790477Y-117723810D01*
X177714286Y-117647619D01*
X177676191Y-117495238D01*
X177676191Y-117228571D01*
X177714286Y-117076190D01*
X177790477Y-117000000D01*
X177866667Y-116961905D01*
X178438095Y-117228571D02*
X178742857Y-117228571D01*
X178552381Y-117761905D02*
X178552381Y-117076190D01*
X178590476Y-117000000D01*
X178666667Y-116961905D01*
X178742857Y-116961905D01*
X178895238Y-117228571D02*
X179200000Y-117228571D01*
X179009524Y-117761905D02*
X179009524Y-117076190D01*
X179047619Y-117000000D01*
X179123810Y-116961905D01*
X179200000Y-116961905D01*
X175366667Y-119661905D02*
X175519048Y-119661905D01*
X175595239Y-119700000D01*
X175671429Y-119776190D01*
X175709524Y-119928571D01*
X175709524Y-120195238D01*
X175671429Y-120347619D01*
X175595239Y-120423810D01*
X175519048Y-120461905D01*
X175366667Y-120461905D01*
X175290477Y-120423810D01*
X175214286Y-120347619D01*
X175176191Y-120195238D01*
X175176191Y-119928571D01*
X175214286Y-119776190D01*
X175290477Y-119700000D01*
X175366667Y-119661905D01*
X176052381Y-119928571D02*
X176052381Y-120461905D01*
X176052381Y-120004762D02*
X176090476Y-119966667D01*
X176166667Y-119928571D01*
X176280953Y-119928571D01*
X176357143Y-119966667D01*
X176395238Y-120042857D01*
X176395238Y-120461905D01*
X177347620Y-119623810D02*
X176661905Y-120652381D01*
X177766667Y-119661905D02*
X177919048Y-119661905D01*
X177995239Y-119700000D01*
X178071429Y-119776190D01*
X178109524Y-119928571D01*
X178109524Y-120195238D01*
X178071429Y-120347619D01*
X177995239Y-120423810D01*
X177919048Y-120461905D01*
X177766667Y-120461905D01*
X177690477Y-120423810D01*
X177614286Y-120347619D01*
X177576191Y-120195238D01*
X177576191Y-119928571D01*
X177614286Y-119776190D01*
X177690477Y-119700000D01*
X177766667Y-119661905D01*
X178338095Y-119928571D02*
X178642857Y-119928571D01*
X178452381Y-120461905D02*
X178452381Y-119776190D01*
X178490476Y-119700000D01*
X178566667Y-119661905D01*
X178642857Y-119661905D01*
X178795238Y-119928571D02*
X179100000Y-119928571D01*
X178909524Y-120461905D02*
X178909524Y-119776190D01*
X178947619Y-119700000D01*
X179023810Y-119661905D01*
X179100000Y-119661905D01*
X175704762Y-102333333D02*
X176085714Y-102333333D01*
X175628571Y-102561905D02*
X175895238Y-101761905D01*
X176161905Y-102561905D01*
X176428571Y-102561905D02*
X176428571Y-101761905D01*
X176504762Y-102257143D02*
X176733333Y-102561905D01*
X176733333Y-102028571D02*
X176428571Y-102333333D01*
X177076190Y-102561905D02*
X177076190Y-101761905D01*
X177152381Y-102257143D02*
X177380952Y-102561905D01*
X177380952Y-102028571D02*
X177076190Y-102333333D01*
X178066666Y-102028571D02*
X178066666Y-102561905D01*
X177723809Y-102028571D02*
X177723809Y-102447619D01*
X177761904Y-102523810D01*
X177838095Y-102561905D01*
X177952381Y-102561905D01*
X178028571Y-102523810D01*
X178066666Y-102485714D01*
X178447619Y-102257143D02*
X179057143Y-102257143D01*
X178752381Y-102561905D02*
X178752381Y-101952381D01*
X175704762Y-104933333D02*
X176085714Y-104933333D01*
X175628571Y-105161905D02*
X175895238Y-104361905D01*
X176161905Y-105161905D01*
X176428571Y-105161905D02*
X176428571Y-104361905D01*
X176504762Y-104857143D02*
X176733333Y-105161905D01*
X176733333Y-104628571D02*
X176428571Y-104933333D01*
X177076190Y-105161905D02*
X177076190Y-104361905D01*
X177152381Y-104857143D02*
X177380952Y-105161905D01*
X177380952Y-104628571D02*
X177076190Y-104933333D01*
X178066666Y-104628571D02*
X178066666Y-105161905D01*
X177723809Y-104628571D02*
X177723809Y-105047619D01*
X177761904Y-105123810D01*
X177838095Y-105161905D01*
X177952381Y-105161905D01*
X178028571Y-105123810D01*
X178066666Y-105085714D01*
X178447619Y-104857143D02*
X179057143Y-104857143D01*
X176095238Y-106961905D02*
X176095238Y-107609524D01*
X176133333Y-107685714D01*
X176171429Y-107723810D01*
X176247619Y-107761905D01*
X176400000Y-107761905D01*
X176476191Y-107723810D01*
X176514286Y-107685714D01*
X176552381Y-107609524D01*
X176552381Y-106961905D01*
X176895238Y-107723810D02*
X177009524Y-107761905D01*
X177200000Y-107761905D01*
X177276190Y-107723810D01*
X177314286Y-107685714D01*
X177352381Y-107609524D01*
X177352381Y-107533333D01*
X177314286Y-107457143D01*
X177276190Y-107419048D01*
X177200000Y-107380952D01*
X177047619Y-107342857D01*
X176971428Y-107304762D01*
X176933333Y-107266667D01*
X176895238Y-107190476D01*
X176895238Y-107114286D01*
X176933333Y-107038095D01*
X176971428Y-107000000D01*
X177047619Y-106961905D01*
X177238095Y-106961905D01*
X177352381Y-107000000D01*
X177961905Y-107342857D02*
X178076191Y-107380952D01*
X178114286Y-107419048D01*
X178152381Y-107495238D01*
X178152381Y-107609524D01*
X178114286Y-107685714D01*
X178076191Y-107723810D01*
X178000000Y-107761905D01*
X177695238Y-107761905D01*
X177695238Y-106961905D01*
X177961905Y-106961905D01*
X178038095Y-107000000D01*
X178076191Y-107038095D01*
X178114286Y-107114286D01*
X178114286Y-107190476D01*
X178076191Y-107266667D01*
X178038095Y-107304762D01*
X177961905Y-107342857D01*
X177695238Y-107342857D01*
X178495238Y-107457143D02*
X179104762Y-107457143D01*
X176095238Y-109461905D02*
X176095238Y-110109524D01*
X176133333Y-110185714D01*
X176171429Y-110223810D01*
X176247619Y-110261905D01*
X176400000Y-110261905D01*
X176476191Y-110223810D01*
X176514286Y-110185714D01*
X176552381Y-110109524D01*
X176552381Y-109461905D01*
X176895238Y-110223810D02*
X177009524Y-110261905D01*
X177200000Y-110261905D01*
X177276190Y-110223810D01*
X177314286Y-110185714D01*
X177352381Y-110109524D01*
X177352381Y-110033333D01*
X177314286Y-109957143D01*
X177276190Y-109919048D01*
X177200000Y-109880952D01*
X177047619Y-109842857D01*
X176971428Y-109804762D01*
X176933333Y-109766667D01*
X176895238Y-109690476D01*
X176895238Y-109614286D01*
X176933333Y-109538095D01*
X176971428Y-109500000D01*
X177047619Y-109461905D01*
X177238095Y-109461905D01*
X177352381Y-109500000D01*
X177961905Y-109842857D02*
X178076191Y-109880952D01*
X178114286Y-109919048D01*
X178152381Y-109995238D01*
X178152381Y-110109524D01*
X178114286Y-110185714D01*
X178076191Y-110223810D01*
X178000000Y-110261905D01*
X177695238Y-110261905D01*
X177695238Y-109461905D01*
X177961905Y-109461905D01*
X178038095Y-109500000D01*
X178076191Y-109538095D01*
X178114286Y-109614286D01*
X178114286Y-109690476D01*
X178076191Y-109766667D01*
X178038095Y-109804762D01*
X177961905Y-109842857D01*
X177695238Y-109842857D01*
X178495238Y-109957143D02*
X179104762Y-109957143D01*
X178800000Y-110261905D02*
X178800000Y-109652381D01*
X177595238Y-112761905D02*
X177595238Y-111961905D01*
X177785714Y-111961905D01*
X177900000Y-112000000D01*
X177976191Y-112076190D01*
X178014286Y-112152381D01*
X178052381Y-112304762D01*
X178052381Y-112419048D01*
X178014286Y-112571429D01*
X177976191Y-112647619D01*
X177900000Y-112723810D01*
X177785714Y-112761905D01*
X177595238Y-112761905D01*
X178395238Y-112457143D02*
X179004762Y-112457143D01*
X177895238Y-115261905D02*
X177895238Y-114461905D01*
X178085714Y-114461905D01*
X178200000Y-114500000D01*
X178276191Y-114576190D01*
X178314286Y-114652381D01*
X178352381Y-114804762D01*
X178352381Y-114919048D01*
X178314286Y-115071429D01*
X178276191Y-115147619D01*
X178200000Y-115223810D01*
X178085714Y-115261905D01*
X177895238Y-115261905D01*
X178695238Y-114957143D02*
X179304762Y-114957143D01*
X179000000Y-115261905D02*
X179000000Y-114652381D01*
D13*
X175500000Y-97500000D02*
X175500000Y-117500000D01*
X157500000Y-97500000D02*
X157500000Y-117500000D01*
X157500000Y-117500000D02*
G75*
G03X166500000Y-126500000I9000000J0D01*
G01*
X166500000Y-88500000D02*
G75*
G03X157500000Y-97500000I0J-9000000D01*
G01*
X175500000Y-97500000D02*
G75*
G03X166500000Y-88500000I-9000000J0D01*
G01*
X166500000Y-126500000D02*
G75*
G03X175500000Y-117500000I0J9000000D01*
G01*
X175600000Y-125500000D02*
G75*
G03X175600000Y-125500000I-1100000J0D01*
G01*
X159600000Y-125500000D02*
G75*
G03X159600000Y-125500000I-1100000J0D01*
G01*
X175600000Y-89500000D02*
G75*
G03X175600000Y-89500000I-1100000J0D01*
G01*
X159500000Y-89300000D02*
G75*
G03X159500000Y-89300000I-1000000J0D01*
G01*
X176500000Y-87500000D02*
X156500000Y-87500000D01*
X156500000Y-127500000D02*
X176500000Y-127500000D01*
X156500000Y-127500000D02*
X156500000Y-87500000D01*
X176500000Y-127500000D02*
X176500000Y-87500000D01*
D14*
X179860000Y-103520000D02*
X179860000Y-121420000D01*
X179860000Y-121420000D02*
X182640000Y-121420000D01*
X182640000Y-121420000D02*
X182640000Y-103520000D01*
X182640000Y-103520000D02*
X179860000Y-103520000D01*
X179860000Y-102250000D02*
X179860000Y-100860000D01*
X179860000Y-100860000D02*
X181250000Y-100860000D01*
D13*
X140250000Y-94500000D02*
X140250000Y-90000000D01*
X136250000Y-95750000D02*
X137750000Y-95750000D01*
X133750000Y-90000000D02*
X133750000Y-94500000D01*
X137750000Y-88750000D02*
X136250000Y-88750000D01*
X182750000Y-94500000D02*
X182750000Y-90000000D01*
X178750000Y-95750000D02*
X180250000Y-95750000D01*
X176250000Y-90000000D02*
X176250000Y-94500000D01*
X180250000Y-88750000D02*
X178750000Y-88750000D01*
X182750000Y-145000000D02*
X182750000Y-140500000D01*
X178750000Y-146250000D02*
X180250000Y-146250000D01*
X176250000Y-140500000D02*
X176250000Y-145000000D01*
X180250000Y-139250000D02*
X178750000Y-139250000D01*
X140250000Y-145000000D02*
X140250000Y-140500000D01*
X136250000Y-146250000D02*
X137750000Y-146250000D01*
X133750000Y-140500000D02*
X133750000Y-145000000D01*
X137750000Y-139250000D02*
X136250000Y-139250000D01*
X173120000Y-147390000D02*
X173120000Y-129610000D01*
X145180000Y-147390000D02*
X145180000Y-129610000D01*
X173120000Y-147390000D02*
X145180000Y-147390000D01*
X145180000Y-129610000D02*
X173120000Y-129610000D01*
D14*
X138190000Y-137390000D02*
G75*
G02X140190000Y-137390000I1000000J0D01*
G01*
X140190000Y-137390000D02*
X141960000Y-137390000D01*
X141960000Y-137390000D02*
X141960000Y-126990000D01*
X141960000Y-126990000D02*
X136420000Y-126990000D01*
X136420000Y-126990000D02*
X136420000Y-137390000D01*
X136420000Y-137390000D02*
X138190000Y-137390000D01*
D13*
X137127400Y-104201000D02*
X137127400Y-126299000D01*
X142486800Y-104201000D02*
X137127400Y-104201000D01*
X142486800Y-109408000D02*
X150487800Y-109408000D01*
X150487800Y-109408000D02*
X150487800Y-104175600D01*
X150487800Y-104201000D02*
X150487800Y-103591400D01*
X150487800Y-103591400D02*
X142486800Y-103591400D01*
X142486800Y-103591400D02*
X142486800Y-109408000D01*
X137127400Y-126299000D02*
X155872600Y-126299000D01*
X155872600Y-104201000D02*
X150487800Y-104201000D01*
X155872600Y-115250000D02*
X155872600Y-104201000D01*
X155872600Y-115250000D02*
X155872600Y-126299000D01*
D14*
X134270000Y-122900000D02*
X133940000Y-122900000D01*
X133940000Y-122900000D02*
X133940000Y-116480000D01*
X133940000Y-116480000D02*
X134270000Y-116480000D01*
X136230000Y-122900000D02*
X136560000Y-122900000D01*
X136560000Y-122900000D02*
X136560000Y-116480000D01*
X136560000Y-116480000D02*
X136230000Y-116480000D01*
X179920000Y-127620000D02*
X182580000Y-127620000D01*
X179920000Y-125020000D02*
X179920000Y-127620000D01*
X182580000Y-125020000D02*
X182580000Y-127620000D01*
X179920000Y-125020000D02*
X182580000Y-125020000D01*
X179920000Y-123750000D02*
X179920000Y-122420000D01*
X179920000Y-122420000D02*
X181250000Y-122420000D01*
D13*
X165857143Y-108852381D02*
X165380952Y-108852381D01*
X165380952Y-107852381D01*
X166142857Y-108804762D02*
X166285714Y-108852381D01*
X166523810Y-108852381D01*
X166619048Y-108804762D01*
X166666667Y-108757143D01*
X166714286Y-108661905D01*
X166714286Y-108566667D01*
X166666667Y-108471429D01*
X166619048Y-108423810D01*
X166523810Y-108376190D01*
X166333333Y-108328571D01*
X166238095Y-108280952D01*
X166190476Y-108233333D01*
X166142857Y-108138095D01*
X166142857Y-108042857D01*
X166190476Y-107947619D01*
X166238095Y-107900000D01*
X166333333Y-107852381D01*
X166571429Y-107852381D01*
X166714286Y-107900000D01*
X167666667Y-108852381D02*
X167095238Y-108852381D01*
X167380952Y-108852381D02*
X167380952Y-107852381D01*
X167285714Y-107995238D01*
X167190476Y-108090476D01*
X167095238Y-108138095D01*
X163738095Y-107004762D02*
X163880952Y-107052381D01*
X164119048Y-107052381D01*
X164214286Y-107004762D01*
X164261905Y-106957143D01*
X164309524Y-106861905D01*
X164309524Y-106766667D01*
X164261905Y-106671429D01*
X164214286Y-106623810D01*
X164119048Y-106576190D01*
X163928571Y-106528571D01*
X163833333Y-106480952D01*
X163785714Y-106433333D01*
X163738095Y-106338095D01*
X163738095Y-106242857D01*
X163785714Y-106147619D01*
X163833333Y-106100000D01*
X163928571Y-106052381D01*
X164166667Y-106052381D01*
X164309524Y-106100000D01*
X164738095Y-106385714D02*
X164738095Y-107385714D01*
X164738095Y-106433333D02*
X164833333Y-106385714D01*
X165023810Y-106385714D01*
X165119048Y-106433333D01*
X165166667Y-106480952D01*
X165214286Y-106576190D01*
X165214286Y-106861905D01*
X165166667Y-106957143D01*
X165119048Y-107004762D01*
X165023810Y-107052381D01*
X164833333Y-107052381D01*
X164738095Y-107004762D01*
X166023810Y-107004762D02*
X165928572Y-107052381D01*
X165738095Y-107052381D01*
X165642857Y-107004762D01*
X165595238Y-106909524D01*
X165595238Y-106528571D01*
X165642857Y-106433333D01*
X165738095Y-106385714D01*
X165928572Y-106385714D01*
X166023810Y-106433333D01*
X166071429Y-106528571D01*
X166071429Y-106623810D01*
X165595238Y-106719048D01*
X166928572Y-107052381D02*
X166928572Y-106528571D01*
X166880953Y-106433333D01*
X166785715Y-106385714D01*
X166595238Y-106385714D01*
X166500000Y-106433333D01*
X166928572Y-107004762D02*
X166833334Y-107052381D01*
X166595238Y-107052381D01*
X166500000Y-107004762D01*
X166452381Y-106909524D01*
X166452381Y-106814286D01*
X166500000Y-106719048D01*
X166595238Y-106671429D01*
X166833334Y-106671429D01*
X166928572Y-106623810D01*
X167404762Y-107052381D02*
X167404762Y-106052381D01*
X167500000Y-106671429D02*
X167785715Y-107052381D01*
X167785715Y-106385714D02*
X167404762Y-106766667D01*
X168595239Y-107004762D02*
X168500001Y-107052381D01*
X168309524Y-107052381D01*
X168214286Y-107004762D01*
X168166667Y-106909524D01*
X168166667Y-106528571D01*
X168214286Y-106433333D01*
X168309524Y-106385714D01*
X168500001Y-106385714D01*
X168595239Y-106433333D01*
X168642858Y-106528571D01*
X168642858Y-106623810D01*
X168166667Y-106719048D01*
X169071429Y-107052381D02*
X169071429Y-106385714D01*
X169071429Y-106576190D02*
X169119048Y-106480952D01*
X169166667Y-106433333D01*
X169261905Y-106385714D01*
X169357144Y-106385714D01*
X161916667Y-128952381D02*
X161916667Y-127952381D01*
X162250001Y-128666667D01*
X162583334Y-127952381D01*
X162583334Y-128952381D01*
X163059524Y-128952381D02*
X163059524Y-127952381D01*
X163059524Y-128428571D02*
X163630953Y-128428571D01*
X163630953Y-128952381D02*
X163630953Y-127952381D01*
X164630953Y-128952381D02*
X164059524Y-128952381D01*
X164345238Y-128952381D02*
X164345238Y-127952381D01*
X164250000Y-128095238D01*
X164154762Y-128190476D01*
X164059524Y-128238095D01*
X170416667Y-128952381D02*
X170416667Y-127952381D01*
X170750001Y-128666667D01*
X171083334Y-127952381D01*
X171083334Y-128952381D01*
X171559524Y-128952381D02*
X171559524Y-127952381D01*
X171559524Y-128428571D02*
X172130953Y-128428571D01*
X172130953Y-128952381D02*
X172130953Y-127952381D01*
X172559524Y-128047619D02*
X172607143Y-128000000D01*
X172702381Y-127952381D01*
X172940477Y-127952381D01*
X173035715Y-128000000D01*
X173083334Y-128047619D01*
X173130953Y-128142857D01*
X173130953Y-128238095D01*
X173083334Y-128380952D01*
X172511905Y-128952381D01*
X173130953Y-128952381D01*
X180916667Y-99312381D02*
X180916667Y-100026667D01*
X180869047Y-100169524D01*
X180773809Y-100264762D01*
X180630952Y-100312381D01*
X180535714Y-100312381D01*
X181916667Y-100312381D02*
X181345238Y-100312381D01*
X181630952Y-100312381D02*
X181630952Y-99312381D01*
X181535714Y-99455238D01*
X181440476Y-99550476D01*
X181345238Y-99598095D01*
X137554762Y-93533333D02*
X137602381Y-93390476D01*
X137602381Y-93152380D01*
X137554762Y-93057142D01*
X137507143Y-93009523D01*
X137411905Y-92961904D01*
X137316667Y-92961904D01*
X137221429Y-93009523D01*
X137173810Y-93057142D01*
X137126190Y-93152380D01*
X137078571Y-93342857D01*
X137030952Y-93438095D01*
X136983333Y-93485714D01*
X136888095Y-93533333D01*
X136792857Y-93533333D01*
X136697619Y-93485714D01*
X136650000Y-93438095D01*
X136602381Y-93342857D01*
X136602381Y-93104761D01*
X136650000Y-92961904D01*
X136602381Y-92628571D02*
X137602381Y-92390476D01*
X136888095Y-92199999D01*
X137602381Y-92009523D01*
X136602381Y-91771428D01*
X137602381Y-90866666D02*
X137602381Y-91438095D01*
X137602381Y-91152381D02*
X136602381Y-91152381D01*
X136745238Y-91247619D01*
X136840476Y-91342857D01*
X136888095Y-91438095D01*
X179954762Y-93633333D02*
X180002381Y-93490476D01*
X180002381Y-93252380D01*
X179954762Y-93157142D01*
X179907143Y-93109523D01*
X179811905Y-93061904D01*
X179716667Y-93061904D01*
X179621429Y-93109523D01*
X179573810Y-93157142D01*
X179526190Y-93252380D01*
X179478571Y-93442857D01*
X179430952Y-93538095D01*
X179383333Y-93585714D01*
X179288095Y-93633333D01*
X179192857Y-93633333D01*
X179097619Y-93585714D01*
X179050000Y-93538095D01*
X179002381Y-93442857D01*
X179002381Y-93204761D01*
X179050000Y-93061904D01*
X179002381Y-92728571D02*
X180002381Y-92490476D01*
X179288095Y-92299999D01*
X180002381Y-92109523D01*
X179002381Y-91871428D01*
X179097619Y-91538095D02*
X179050000Y-91490476D01*
X179002381Y-91395238D01*
X179002381Y-91157142D01*
X179050000Y-91061904D01*
X179097619Y-91014285D01*
X179192857Y-90966666D01*
X179288095Y-90966666D01*
X179430952Y-91014285D01*
X180002381Y-91585714D01*
X180002381Y-90966666D01*
X180054762Y-144233333D02*
X180102381Y-144090476D01*
X180102381Y-143852380D01*
X180054762Y-143757142D01*
X180007143Y-143709523D01*
X179911905Y-143661904D01*
X179816667Y-143661904D01*
X179721429Y-143709523D01*
X179673810Y-143757142D01*
X179626190Y-143852380D01*
X179578571Y-144042857D01*
X179530952Y-144138095D01*
X179483333Y-144185714D01*
X179388095Y-144233333D01*
X179292857Y-144233333D01*
X179197619Y-144185714D01*
X179150000Y-144138095D01*
X179102381Y-144042857D01*
X179102381Y-143804761D01*
X179150000Y-143661904D01*
X179102381Y-143328571D02*
X180102381Y-143090476D01*
X179388095Y-142899999D01*
X180102381Y-142709523D01*
X179102381Y-142471428D01*
X179102381Y-142185714D02*
X179102381Y-141566666D01*
X179483333Y-141900000D01*
X179483333Y-141757142D01*
X179530952Y-141661904D01*
X179578571Y-141614285D01*
X179673810Y-141566666D01*
X179911905Y-141566666D01*
X180007143Y-141614285D01*
X180054762Y-141661904D01*
X180102381Y-141757142D01*
X180102381Y-142042857D01*
X180054762Y-142138095D01*
X180007143Y-142185714D01*
X137354762Y-144133333D02*
X137402381Y-143990476D01*
X137402381Y-143752380D01*
X137354762Y-143657142D01*
X137307143Y-143609523D01*
X137211905Y-143561904D01*
X137116667Y-143561904D01*
X137021429Y-143609523D01*
X136973810Y-143657142D01*
X136926190Y-143752380D01*
X136878571Y-143942857D01*
X136830952Y-144038095D01*
X136783333Y-144085714D01*
X136688095Y-144133333D01*
X136592857Y-144133333D01*
X136497619Y-144085714D01*
X136450000Y-144038095D01*
X136402381Y-143942857D01*
X136402381Y-143704761D01*
X136450000Y-143561904D01*
X136402381Y-143228571D02*
X137402381Y-142990476D01*
X136688095Y-142799999D01*
X137402381Y-142609523D01*
X136402381Y-142371428D01*
X136735714Y-141561904D02*
X137402381Y-141561904D01*
X136354762Y-141800000D02*
X137069048Y-142038095D01*
X137069048Y-141419047D01*
X158388095Y-132872381D02*
X158388095Y-133681905D01*
X158435714Y-133777143D01*
X158483333Y-133824762D01*
X158578571Y-133872381D01*
X158769048Y-133872381D01*
X158864286Y-133824762D01*
X158911905Y-133777143D01*
X158959524Y-133681905D01*
X158959524Y-132872381D01*
X159959524Y-133872381D02*
X159388095Y-133872381D01*
X159673809Y-133872381D02*
X159673809Y-132872381D01*
X159578571Y-133015238D01*
X159483333Y-133110476D01*
X159388095Y-133158095D01*
X156459524Y-142262381D02*
X157030953Y-142262381D01*
X156745238Y-143262381D02*
X156745238Y-142262381D01*
X157364286Y-143262381D02*
X157364286Y-142262381D01*
X157745239Y-142262381D01*
X157840477Y-142310000D01*
X157888096Y-142357619D01*
X157935715Y-142452857D01*
X157935715Y-142595714D01*
X157888096Y-142690952D01*
X157840477Y-142738571D01*
X157745239Y-142786190D01*
X157364286Y-142786190D01*
X158792858Y-142595714D02*
X158792858Y-143262381D01*
X158554762Y-142214762D02*
X158316667Y-142929048D01*
X158935715Y-142929048D01*
X159507143Y-142262381D02*
X159602382Y-142262381D01*
X159697620Y-142310000D01*
X159745239Y-142357619D01*
X159792858Y-142452857D01*
X159840477Y-142643333D01*
X159840477Y-142881429D01*
X159792858Y-143071905D01*
X159745239Y-143167143D01*
X159697620Y-143214762D01*
X159602382Y-143262381D01*
X159507143Y-143262381D01*
X159411905Y-143214762D01*
X159364286Y-143167143D01*
X159316667Y-143071905D01*
X159269048Y-142881429D01*
X159269048Y-142643333D01*
X159316667Y-142452857D01*
X159364286Y-142357619D01*
X159411905Y-142310000D01*
X159507143Y-142262381D01*
X160745239Y-142262381D02*
X160269048Y-142262381D01*
X160221429Y-142738571D01*
X160269048Y-142690952D01*
X160364286Y-142643333D01*
X160602382Y-142643333D01*
X160697620Y-142690952D01*
X160745239Y-142738571D01*
X160792858Y-142833810D01*
X160792858Y-143071905D01*
X160745239Y-143167143D01*
X160697620Y-143214762D01*
X160602382Y-143262381D01*
X160364286Y-143262381D01*
X160269048Y-143214762D01*
X160221429Y-143167143D01*
X161650001Y-142262381D02*
X161459524Y-142262381D01*
X161364286Y-142310000D01*
X161316667Y-142357619D01*
X161221429Y-142500476D01*
X161173810Y-142690952D01*
X161173810Y-143071905D01*
X161221429Y-143167143D01*
X161269048Y-143214762D01*
X161364286Y-143262381D01*
X161554763Y-143262381D01*
X161650001Y-143214762D01*
X161697620Y-143167143D01*
X161745239Y-143071905D01*
X161745239Y-142833810D01*
X161697620Y-142738571D01*
X161650001Y-142690952D01*
X161554763Y-142643333D01*
X161364286Y-142643333D01*
X161269048Y-142690952D01*
X161221429Y-142738571D01*
X161173810Y-142833810D01*
X148920352Y-131576981D02*
X149110829Y-131576981D01*
X149206067Y-131624600D01*
X149301305Y-131719838D01*
X149348924Y-131910314D01*
X149348924Y-132243648D01*
X149301305Y-132434124D01*
X149206067Y-132529362D01*
X149110829Y-132576981D01*
X148920352Y-132576981D01*
X148825114Y-132529362D01*
X148729876Y-132434124D01*
X148682257Y-132243648D01*
X148682257Y-131910314D01*
X148729876Y-131719838D01*
X148825114Y-131624600D01*
X148920352Y-131576981D01*
X149777495Y-131576981D02*
X149777495Y-132386505D01*
X149825114Y-132481743D01*
X149872733Y-132529362D01*
X149967971Y-132576981D01*
X150158448Y-132576981D01*
X150253686Y-132529362D01*
X150301305Y-132481743D01*
X150348924Y-132386505D01*
X150348924Y-131576981D01*
X150682257Y-131576981D02*
X151253686Y-131576981D01*
X150967971Y-132576981D02*
X150967971Y-131576981D01*
X151587019Y-132196029D02*
X152348924Y-132196029D01*
X149102382Y-134628571D02*
X149245239Y-134676190D01*
X149292858Y-134723810D01*
X149340477Y-134819048D01*
X149340477Y-134961905D01*
X149292858Y-135057143D01*
X149245239Y-135104762D01*
X149150001Y-135152381D01*
X148769048Y-135152381D01*
X148769048Y-134152381D01*
X149102382Y-134152381D01*
X149197620Y-134200000D01*
X149245239Y-134247619D01*
X149292858Y-134342857D01*
X149292858Y-134438095D01*
X149245239Y-134533333D01*
X149197620Y-134580952D01*
X149102382Y-134628571D01*
X148769048Y-134628571D01*
X149769048Y-134771429D02*
X150530953Y-134771429D01*
X149102382Y-142228571D02*
X149245239Y-142276190D01*
X149292858Y-142323810D01*
X149340477Y-142419048D01*
X149340477Y-142561905D01*
X149292858Y-142657143D01*
X149245239Y-142704762D01*
X149150001Y-142752381D01*
X148769048Y-142752381D01*
X148769048Y-141752381D01*
X149102382Y-141752381D01*
X149197620Y-141800000D01*
X149245239Y-141847619D01*
X149292858Y-141942857D01*
X149292858Y-142038095D01*
X149245239Y-142133333D01*
X149197620Y-142180952D01*
X149102382Y-142228571D01*
X148769048Y-142228571D01*
X149769048Y-142371429D02*
X150530953Y-142371429D01*
X150150001Y-142752381D02*
X150150001Y-141990476D01*
X148920352Y-144556381D02*
X149110829Y-144556381D01*
X149206067Y-144604000D01*
X149301305Y-144699238D01*
X149348924Y-144889714D01*
X149348924Y-145223048D01*
X149301305Y-145413524D01*
X149206067Y-145508762D01*
X149110829Y-145556381D01*
X148920352Y-145556381D01*
X148825114Y-145508762D01*
X148729876Y-145413524D01*
X148682257Y-145223048D01*
X148682257Y-144889714D01*
X148729876Y-144699238D01*
X148825114Y-144604000D01*
X148920352Y-144556381D01*
X149777495Y-144556381D02*
X149777495Y-145365905D01*
X149825114Y-145461143D01*
X149872733Y-145508762D01*
X149967971Y-145556381D01*
X150158448Y-145556381D01*
X150253686Y-145508762D01*
X150301305Y-145461143D01*
X150348924Y-145365905D01*
X150348924Y-144556381D01*
X150682257Y-144556381D02*
X151253686Y-144556381D01*
X150967971Y-145556381D02*
X150967971Y-144556381D01*
X151587019Y-145175429D02*
X152348924Y-145175429D01*
X151967972Y-145556381D02*
X151967972Y-144794476D01*
X166907143Y-132552381D02*
X166907143Y-131552381D01*
X167383333Y-132552381D02*
X167383333Y-131552381D01*
X167954762Y-132552381D01*
X167954762Y-131552381D01*
X168430952Y-132171429D02*
X169192857Y-132171429D01*
X166807143Y-145252381D02*
X166807143Y-144252381D01*
X167283333Y-145252381D02*
X167283333Y-144252381D01*
X167854762Y-145252381D01*
X167854762Y-144252381D01*
X168330952Y-144871429D02*
X169092857Y-144871429D01*
X168711905Y-145252381D02*
X168711905Y-144490476D01*
X138428095Y-137842381D02*
X138428095Y-138651905D01*
X138475714Y-138747143D01*
X138523333Y-138794762D01*
X138618571Y-138842381D01*
X138809048Y-138842381D01*
X138904286Y-138794762D01*
X138951905Y-138747143D01*
X138999524Y-138651905D01*
X138999524Y-137842381D01*
X139428095Y-137937619D02*
X139475714Y-137890000D01*
X139570952Y-137842381D01*
X139809048Y-137842381D01*
X139904286Y-137890000D01*
X139951905Y-137937619D01*
X139999524Y-138032857D01*
X139999524Y-138128095D01*
X139951905Y-138270952D01*
X139380476Y-138842381D01*
X139999524Y-138842381D01*
X137666667Y-138738095D02*
X137666667Y-138261904D01*
X137952381Y-138833333D02*
X136952381Y-138500000D01*
X137952381Y-138166666D01*
X136952381Y-137976190D02*
X136952381Y-137404761D01*
X137952381Y-137690476D02*
X136952381Y-137690476D01*
X136952381Y-137214285D02*
X136952381Y-136642856D01*
X137952381Y-136928571D02*
X136952381Y-136928571D01*
X137952381Y-136309523D02*
X136952381Y-136309523D01*
X137952381Y-135833333D02*
X136952381Y-135833333D01*
X137952381Y-135261904D01*
X136952381Y-135261904D01*
X137476190Y-134595238D02*
X137952381Y-134595238D01*
X136952381Y-134928571D02*
X137476190Y-134595238D01*
X136952381Y-134261904D01*
X137380952Y-133785714D02*
X137333333Y-133880952D01*
X137285714Y-133928571D01*
X137190476Y-133976190D01*
X137142857Y-133976190D01*
X137047619Y-133928571D01*
X137000000Y-133880952D01*
X136952381Y-133785714D01*
X136952381Y-133595237D01*
X137000000Y-133499999D01*
X137047619Y-133452380D01*
X137142857Y-133404761D01*
X137190476Y-133404761D01*
X137285714Y-133452380D01*
X137333333Y-133499999D01*
X137380952Y-133595237D01*
X137380952Y-133785714D01*
X137428571Y-133880952D01*
X137476190Y-133928571D01*
X137571429Y-133976190D01*
X137761905Y-133976190D01*
X137857143Y-133928571D01*
X137904762Y-133880952D01*
X137952381Y-133785714D01*
X137952381Y-133595237D01*
X137904762Y-133499999D01*
X137857143Y-133452380D01*
X137761905Y-133404761D01*
X137571429Y-133404761D01*
X137476190Y-133452380D01*
X137428571Y-133499999D01*
X137380952Y-133595237D01*
X136952381Y-132499999D02*
X136952381Y-132976190D01*
X137428571Y-133023809D01*
X137380952Y-132976190D01*
X137333333Y-132880952D01*
X137333333Y-132642856D01*
X137380952Y-132547618D01*
X137428571Y-132499999D01*
X137523810Y-132452380D01*
X137761905Y-132452380D01*
X137857143Y-132499999D01*
X137904762Y-132547618D01*
X137952381Y-132642856D01*
X137952381Y-132880952D01*
X137904762Y-132976190D01*
X137857143Y-133023809D01*
X137571429Y-132023809D02*
X137571429Y-131261904D01*
X137047619Y-130833333D02*
X137000000Y-130785714D01*
X136952381Y-130690476D01*
X136952381Y-130452380D01*
X137000000Y-130357142D01*
X137047619Y-130309523D01*
X137142857Y-130261904D01*
X137238095Y-130261904D01*
X137380952Y-130309523D01*
X137952381Y-130880952D01*
X137952381Y-130261904D01*
X136952381Y-129642857D02*
X136952381Y-129547618D01*
X137000000Y-129452380D01*
X137047619Y-129404761D01*
X137142857Y-129357142D01*
X137333333Y-129309523D01*
X137571429Y-129309523D01*
X137761905Y-129357142D01*
X137857143Y-129404761D01*
X137904762Y-129452380D01*
X137952381Y-129547618D01*
X137952381Y-129642857D01*
X137904762Y-129738095D01*
X137857143Y-129785714D01*
X137761905Y-129833333D01*
X137571429Y-129880952D01*
X137333333Y-129880952D01*
X137142857Y-129833333D01*
X137047619Y-129785714D01*
X137000000Y-129738095D01*
X136952381Y-129642857D01*
X137952381Y-128880952D02*
X136952381Y-128880952D01*
X136952381Y-128499999D01*
X137000000Y-128404761D01*
X137047619Y-128357142D01*
X137142857Y-128309523D01*
X137285714Y-128309523D01*
X137380952Y-128357142D01*
X137428571Y-128404761D01*
X137476190Y-128499999D01*
X137476190Y-128880952D01*
X136952381Y-127880952D02*
X137761905Y-127880952D01*
X137857143Y-127833333D01*
X137904762Y-127785714D01*
X137952381Y-127690476D01*
X137952381Y-127499999D01*
X137904762Y-127404761D01*
X137857143Y-127357142D01*
X137761905Y-127309523D01*
X136952381Y-127309523D01*
X145690476Y-123002381D02*
X145690476Y-122002381D01*
X146023810Y-122716667D01*
X146357143Y-122002381D01*
X146357143Y-123002381D01*
X147357143Y-123002381D02*
X146785714Y-123002381D01*
X147071428Y-123002381D02*
X147071428Y-122002381D01*
X146976190Y-122145238D01*
X146880952Y-122240476D01*
X146785714Y-122288095D01*
X142495238Y-96911905D02*
X142495238Y-96111905D01*
X142685714Y-96111905D01*
X142800000Y-96150000D01*
X142876191Y-96226190D01*
X142914286Y-96302381D01*
X142952381Y-96454762D01*
X142952381Y-96569048D01*
X142914286Y-96721429D01*
X142876191Y-96797619D01*
X142800000Y-96873810D01*
X142685714Y-96911905D01*
X142495238Y-96911905D01*
X143295238Y-96607143D02*
X143904762Y-96607143D01*
X143600000Y-96911905D02*
X143600000Y-96302381D01*
X149095238Y-97061905D02*
X149095238Y-96261905D01*
X149285714Y-96261905D01*
X149400000Y-96300000D01*
X149476191Y-96376190D01*
X149514286Y-96452381D01*
X149552381Y-96604762D01*
X149552381Y-96719048D01*
X149514286Y-96871429D01*
X149476191Y-96947619D01*
X149400000Y-97023810D01*
X149285714Y-97061905D01*
X149095238Y-97061905D01*
X149895238Y-96757143D02*
X150504762Y-96757143D01*
X145238095Y-105602381D02*
X145238095Y-106411905D01*
X145285714Y-106507143D01*
X145333333Y-106554762D01*
X145428571Y-106602381D01*
X145619048Y-106602381D01*
X145714286Y-106554762D01*
X145761905Y-106507143D01*
X145809524Y-106411905D01*
X145809524Y-105602381D01*
X146238095Y-106554762D02*
X146380952Y-106602381D01*
X146619048Y-106602381D01*
X146714286Y-106554762D01*
X146761905Y-106507143D01*
X146809524Y-106411905D01*
X146809524Y-106316667D01*
X146761905Y-106221429D01*
X146714286Y-106173810D01*
X146619048Y-106126190D01*
X146428571Y-106078571D01*
X146333333Y-106030952D01*
X146285714Y-105983333D01*
X146238095Y-105888095D01*
X146238095Y-105792857D01*
X146285714Y-105697619D01*
X146333333Y-105650000D01*
X146428571Y-105602381D01*
X146666667Y-105602381D01*
X146809524Y-105650000D01*
X147571429Y-106078571D02*
X147714286Y-106126190D01*
X147761905Y-106173810D01*
X147809524Y-106269048D01*
X147809524Y-106411905D01*
X147761905Y-106507143D01*
X147714286Y-106554762D01*
X147619048Y-106602381D01*
X147238095Y-106602381D01*
X147238095Y-105602381D01*
X147571429Y-105602381D01*
X147666667Y-105650000D01*
X147714286Y-105697619D01*
X147761905Y-105792857D01*
X147761905Y-105888095D01*
X147714286Y-105983333D01*
X147666667Y-106030952D01*
X147571429Y-106078571D01*
X147238095Y-106078571D01*
X135702381Y-113916666D02*
X135226190Y-114250000D01*
X135702381Y-114488095D02*
X134702381Y-114488095D01*
X134702381Y-114107142D01*
X134750000Y-114011904D01*
X134797619Y-113964285D01*
X134892857Y-113916666D01*
X135035714Y-113916666D01*
X135130952Y-113964285D01*
X135178571Y-114011904D01*
X135226190Y-114107142D01*
X135226190Y-114488095D01*
X135702381Y-112964285D02*
X135702381Y-113535714D01*
X135702381Y-113250000D02*
X134702381Y-113250000D01*
X134845238Y-113345238D01*
X134940476Y-113440476D01*
X134988095Y-113535714D01*
X134797619Y-120892857D02*
X134750000Y-120845238D01*
X134702381Y-120750000D01*
X134702381Y-120511904D01*
X134750000Y-120416666D01*
X134797619Y-120369047D01*
X134892857Y-120321428D01*
X134988095Y-120321428D01*
X135130952Y-120369047D01*
X135702381Y-120940476D01*
X135702381Y-120321428D01*
X134797619Y-119940476D02*
X134750000Y-119892857D01*
X134702381Y-119797619D01*
X134702381Y-119559523D01*
X134750000Y-119464285D01*
X134797619Y-119416666D01*
X134892857Y-119369047D01*
X134988095Y-119369047D01*
X135130952Y-119416666D01*
X135702381Y-119988095D01*
X135702381Y-119369047D01*
X134702381Y-118750000D02*
X134702381Y-118654761D01*
X134750000Y-118559523D01*
X134797619Y-118511904D01*
X134892857Y-118464285D01*
X135083333Y-118416666D01*
X135321429Y-118416666D01*
X135511905Y-118464285D01*
X135607143Y-118511904D01*
X135654762Y-118559523D01*
X135702381Y-118654761D01*
X135702381Y-118750000D01*
X135654762Y-118845238D01*
X135607143Y-118892857D01*
X135511905Y-118940476D01*
X135321429Y-118988095D01*
X135083333Y-118988095D01*
X134892857Y-118940476D01*
X134797619Y-118892857D01*
X134750000Y-118845238D01*
X134702381Y-118750000D01*
X135702381Y-117988095D02*
X134702381Y-117988095D01*
X135321429Y-117892857D02*
X135702381Y-117607142D01*
X135035714Y-117607142D02*
X135416667Y-117988095D01*
X181154762Y-121967619D02*
X181059524Y-121920000D01*
X180964286Y-121824762D01*
X180821429Y-121681905D01*
X180726190Y-121634286D01*
X180630952Y-121634286D01*
X180678571Y-121872381D02*
X180583333Y-121824762D01*
X180488095Y-121729524D01*
X180440476Y-121539048D01*
X180440476Y-121205714D01*
X180488095Y-121015238D01*
X180583333Y-120920000D01*
X180678571Y-120872381D01*
X180869048Y-120872381D01*
X180964286Y-120920000D01*
X181059524Y-121015238D01*
X181107143Y-121205714D01*
X181107143Y-121539048D01*
X181059524Y-121729524D01*
X180964286Y-121824762D01*
X180869048Y-121872381D01*
X180678571Y-121872381D01*
X182059524Y-121872381D02*
X181488095Y-121872381D01*
X181773809Y-121872381D02*
X181773809Y-120872381D01*
X181678571Y-121015238D01*
X181583333Y-121110476D01*
X181488095Y-121158095D01*
M02*
