M48
;DRILL file {KiCad 4.0.7-e2-6376~61~ubuntu18.04.1} date Tue Sep  4 16:19:19 2018
;FORMAT={-:-/ absolute / inch / decimal}
FMAT,2
INCH,TZ
T1C0.016
T2C0.030
T3C0.031
T4C0.039
T5C0.043
T6C0.126
%
G90
G05
M72
T1
X5.9442Y-5.3055
T2
X6.3189Y-4.815
X6.7913Y-4.815
T3
X5.3248Y-4.5622
X5.3248Y-4.8622
X5.3299Y-5.0543
X5.3299Y-5.1543
X5.3299Y-5.2543
X5.3299Y-5.3543
X5.6299Y-5.0543
X5.6299Y-5.1543
X5.6299Y-5.2543
X5.6299Y-5.3543
T4
X5.4677Y-4.1874
X5.4677Y-4.2874
X5.4677Y-4.3874
X5.4677Y-4.4874
X5.4677Y-4.5874
X5.4677Y-4.6874
X5.4677Y-4.7874
X5.4677Y-4.8874
X5.7126Y-3.8051
X5.8157Y-5.1948
X5.8157Y-5.3028
X5.8157Y-5.6028
X5.8157Y-5.7108
X5.8219Y-3.8051
X6.0677Y-4.1874
X6.0677Y-4.2874
X6.0677Y-4.3874
X6.0677Y-4.4874
X6.0677Y-4.5874
X6.0677Y-4.6874
X6.0677Y-4.7874
X6.0677Y-4.8874
X6.7157Y-5.1868
X6.7157Y-5.7188
X7.1358Y-4.0256
X7.1358Y-4.1256
X7.1358Y-4.2256
X7.1358Y-4.3256
X7.1358Y-4.4256
X7.1358Y-4.5256
X7.1358Y-4.6256
X7.1358Y-4.7256
X7.1358Y-4.872
X7.1358Y-4.972
T5
X5.3051Y-3.5039
X5.3051Y-3.7598
X5.3051Y-5.4921
X5.3051Y-5.748
X5.4823Y-3.5039
X5.4823Y-3.7598
X5.4823Y-5.4921
X5.4823Y-5.748
X6.9783Y-3.5039
X6.9783Y-3.7598
X6.9783Y-5.4921
X6.9783Y-5.748
X7.1555Y-3.5039
X7.1555Y-3.7598
X7.1555Y-5.4921
X7.1555Y-5.748
T6
X6.5846Y-4.9803
X6.9291Y-4.9803
T0
M30
