G04 #@! TF.FileFunction,Soldermask,Top*
%FSLAX46Y46*%
G04 Gerber Fmt 4.6, Leading zero omitted, Abs format (unit mm)*
G04 Created by KiCad (PCBNEW 4.0.7-e2-6376~61~ubuntu18.04.1) date Tue Sep  4 16:19:30 2018*
%MOMM*%
%LPD*%
G01*
G04 APERTURE LIST*
%ADD10C,0.100000*%
%ADD11C,1.924000*%
%ADD12C,6.000000*%
%ADD13R,2.100000X2.100000*%
%ADD14O,2.400000X2.100000*%
%ADD15C,2.400000*%
%ADD16R,2.400000X2.200000*%
%ADD17O,2.400000X2.200000*%
%ADD18C,2.000000*%
%ADD19O,2.000000X2.000000*%
%ADD20O,2.100000X2.100000*%
G04 APERTURE END LIST*
D10*
D11*
X160500000Y-122300000D03*
X172500000Y-122300000D03*
D12*
X167250000Y-126500000D03*
X176000000Y-126500000D03*
D13*
X181250000Y-102250000D03*
D14*
X181250000Y-104790000D03*
X181250000Y-107330000D03*
X181250000Y-109870000D03*
X181250000Y-112410000D03*
X181250000Y-114950000D03*
X181250000Y-117490000D03*
X181250000Y-120030000D03*
D15*
X139250000Y-95500000D03*
X134750000Y-95500000D03*
X139250000Y-89000000D03*
X134750000Y-89000000D03*
X181750000Y-95500000D03*
X177250000Y-95500000D03*
X181750000Y-89000000D03*
X177250000Y-89000000D03*
X181750000Y-146000000D03*
X177250000Y-146000000D03*
X181750000Y-139500000D03*
X177250000Y-139500000D03*
X139250000Y-146000000D03*
X134750000Y-146000000D03*
X139250000Y-139500000D03*
X134750000Y-139500000D03*
X147720000Y-142310000D03*
X147720000Y-134690000D03*
X147720000Y-131946800D03*
X147720000Y-145053200D03*
X170580000Y-131743600D03*
X170580000Y-145256400D03*
D16*
X143000000Y-136000000D03*
D17*
X135380000Y-128380000D03*
X143000000Y-133460000D03*
X135380000Y-130920000D03*
X143000000Y-130920000D03*
X135380000Y-133460000D03*
X143000000Y-128380000D03*
X135380000Y-136000000D03*
X154120000Y-124140000D03*
X154120000Y-121600000D03*
X154120000Y-119060000D03*
X154120000Y-116520000D03*
X154120000Y-113980000D03*
X154120000Y-111440000D03*
X154120000Y-108900000D03*
X154120000Y-106360000D03*
X138880000Y-124140000D03*
X138880000Y-121600000D03*
X138880000Y-119060000D03*
X138880000Y-116520000D03*
X138880000Y-113980000D03*
X138880000Y-111440000D03*
X138880000Y-108900000D03*
D16*
X138880000Y-106360000D03*
D15*
X147875000Y-96650000D03*
X145100000Y-96650000D03*
D18*
X135250000Y-123500000D03*
D19*
X135250000Y-115880000D03*
D13*
X181250000Y-123750000D03*
D20*
X181250000Y-126290000D03*
M02*
