G04 #@! TF.GenerationSoftware,KiCad,Pcbnew,(5.0.1-3-g963ef8bb5)*
G04 #@! TF.CreationDate,2019-04-15T21:42:43+02:00*
G04 #@! TF.ProjectId,kicad_top_pcb,6B696361645F746F705F7063622E6B69,rev?*
G04 #@! TF.SameCoordinates,Original*
G04 #@! TF.FileFunction,Profile,NP*
%FSLAX46Y46*%
G04 Gerber Fmt 4.6, Leading zero omitted, Abs format (unit mm)*
G04 Created by KiCad (PCBNEW (5.0.1-3-g963ef8bb5)) date 2019 April 15, Monday 21:42:43*
%MOMM*%
%LPD*%
G01*
G04 APERTURE LIST*
%ADD10C,0.200000*%
%ADD11C,0.150000*%
G04 APERTURE END LIST*
D10*
X135650000Y-53200000D02*
G75*
G03X136500000Y-52350000I0J850000D01*
G01*
X136500000Y-52300000D02*
G75*
G03X135650000Y-51450000I-850000J0D01*
G01*
X130200000Y-52350000D02*
G75*
G03X131050000Y-53200000I850000J0D01*
G01*
X131050000Y-51450000D02*
G75*
G03X130200000Y-52300000I0J-850000D01*
G01*
X135650000Y-51450000D02*
X131050000Y-51450000D01*
X135650000Y-87650000D02*
X131050000Y-87650000D01*
X135650000Y-89400000D02*
G75*
G03X136500000Y-88550000I0J850000D01*
G01*
X131050000Y-87650000D02*
G75*
G03X130200000Y-88500000I0J-850000D01*
G01*
X136500000Y-88500000D02*
G75*
G03X135650000Y-87650000I-850000J0D01*
G01*
X130200000Y-88550000D02*
G75*
G03X131050000Y-89400000I850000J0D01*
G01*
X135650000Y-89400000D02*
X131050000Y-89400000D01*
X135650000Y-53200000D02*
X131050000Y-53200000D01*
X141650000Y-84400000D02*
G75*
G03X140400000Y-83150000I-1250000J0D01*
G01*
X140400000Y-85650000D02*
G75*
G03X141650000Y-84400000I0J1250000D01*
G01*
X140450000Y-85650000D02*
X135800000Y-85650000D01*
X135850000Y-83150000D02*
X140450000Y-83150000D01*
X134600000Y-84400000D02*
G75*
G03X135850000Y-85650000I1250000J0D01*
G01*
X135900000Y-83150000D02*
G75*
G03X134600000Y-84350000I-50000J-1250000D01*
G01*
X130850000Y-85650000D02*
X126200000Y-85650000D01*
X126250000Y-83150000D02*
X130850000Y-83150000D01*
X130850000Y-85650000D02*
G75*
G03X132100000Y-84400000I0J1250000D01*
G01*
X126300000Y-57700000D02*
X126250000Y-57700000D01*
X135850000Y-57700000D02*
X140100000Y-57700000D01*
X140100000Y-55200000D02*
X135900000Y-55200000D01*
X130850000Y-57700000D02*
X126250000Y-57700000D01*
X126300000Y-55200000D02*
X130850000Y-55200000D01*
X132100000Y-84400000D02*
G75*
G03X130850000Y-83150000I-1250000J0D01*
G01*
X124950000Y-84400000D02*
G75*
G03X126200000Y-85650000I1250000J0D01*
G01*
X126250000Y-83150000D02*
G75*
G03X124950000Y-84350000I-50000J-1250000D01*
G01*
X134600000Y-56450000D02*
G75*
G03X135850000Y-57700000I1250000J0D01*
G01*
X135900000Y-55200000D02*
G75*
G03X134600000Y-56400000I-50000J-1250000D01*
G01*
X130850000Y-57700000D02*
G75*
G03X132100000Y-56450000I0J1250000D01*
G01*
X132100000Y-56450000D02*
G75*
G03X130850000Y-55200000I-1250000J0D01*
G01*
X140100000Y-57700000D02*
G75*
G03X141350000Y-56450000I0J1250000D01*
G01*
X141350000Y-56450000D02*
G75*
G03X140100000Y-55200000I-1250000J0D01*
G01*
X125000000Y-56450000D02*
G75*
G03X126250000Y-57700000I1250000J0D01*
G01*
X126300000Y-55200000D02*
G75*
G03X125000000Y-56400000I-50000J-1250000D01*
G01*
X130600000Y-67200000D02*
G75*
G03X131850000Y-65950000I0J1250000D01*
G01*
X131850000Y-65950000D02*
G75*
G03X130600000Y-64700000I-1250000J0D01*
G01*
X130600000Y-67200000D02*
X125200000Y-67200000D01*
X125250000Y-64700000D02*
X130600000Y-64700000D01*
X123950000Y-65950000D02*
G75*
G03X125200000Y-67200000I1250000J0D01*
G01*
X125250000Y-64700000D02*
G75*
G03X123950000Y-65900000I-50000J-1250000D01*
G01*
X134900000Y-65950000D02*
G75*
G03X136150000Y-67200000I1250000J0D01*
G01*
X136200000Y-64700000D02*
G75*
G03X134900000Y-65900000I-50000J-1250000D01*
G01*
X141500000Y-67200000D02*
G75*
G03X142750000Y-65950000I0J1250000D01*
G01*
X136150000Y-67200000D02*
X141500000Y-67200000D01*
X136200000Y-64700000D02*
X141550000Y-64700000D01*
X141500000Y-78150000D02*
X125200000Y-78150000D01*
X142750000Y-79400000D02*
G75*
G03X141500000Y-78150000I-1250000J0D01*
G01*
X134850000Y-74900000D02*
G75*
G03X136100000Y-76150000I1250000J0D01*
G01*
X136150000Y-73650000D02*
G75*
G03X134850000Y-74850000I-50000J-1250000D01*
G01*
X136150000Y-76150000D02*
X141500000Y-76150000D01*
X136150000Y-73650000D02*
X141500000Y-73650000D01*
X141500000Y-76150000D02*
G75*
G03X142750000Y-74900000I0J1250000D01*
G01*
X142750000Y-74900000D02*
G75*
G03X141500000Y-73650000I-1250000J0D01*
G01*
X130600000Y-76150000D02*
X125200000Y-76150000D01*
X125250000Y-73650000D02*
X130600000Y-73650000D01*
X130600000Y-76150000D02*
G75*
G03X131850000Y-74900000I0J1250000D01*
G01*
X131850000Y-74900000D02*
G75*
G03X130600000Y-73650000I-1250000J0D01*
G01*
X123950000Y-74900000D02*
G75*
G03X125200000Y-76150000I1250000J0D01*
G01*
X125250000Y-73650000D02*
G75*
G03X123950000Y-74850000I-50000J-1250000D01*
G01*
X125200000Y-62700000D02*
X141500000Y-62700000D01*
X141500000Y-60200000D02*
X125250000Y-60200000D01*
X141500000Y-62700000D02*
G75*
G03X142750000Y-61450000I0J1250000D01*
G01*
X142750000Y-61450000D02*
G75*
G03X141500000Y-60200000I-1250000J0D01*
G01*
X123950000Y-61450000D02*
G75*
G03X125200000Y-62700000I1250000J0D01*
G01*
X125250000Y-60200000D02*
G75*
G03X123950000Y-61400000I-50000J-1250000D01*
G01*
X141500000Y-80650000D02*
X125200000Y-80650000D01*
X142750000Y-65950000D02*
G75*
G03X141500000Y-64700000I-1250000J0D01*
G01*
X141500000Y-80650000D02*
G75*
G03X142750000Y-79400000I0J1250000D01*
G01*
X125250000Y-78150000D02*
G75*
G03X123950000Y-79350000I-50000J-1250000D01*
G01*
X123950000Y-79400000D02*
G75*
G03X125200000Y-80650000I1250000J0D01*
G01*
X125200000Y-71650000D02*
X141500000Y-71650000D01*
X141500000Y-69150000D02*
X125250000Y-69150000D01*
X142750000Y-70400000D02*
G75*
G03X141500000Y-69150000I-1250000J0D01*
G01*
X141500000Y-71650000D02*
G75*
G03X142750000Y-70400000I0J1250000D01*
G01*
X125250000Y-69150000D02*
G75*
G03X123950000Y-70350000I-50000J-1250000D01*
G01*
X123950000Y-70400000D02*
G75*
G03X125200000Y-71650000I1250000J0D01*
G01*
D11*
X150000000Y-110000000D02*
X100000000Y-110000000D01*
D10*
X126490175Y-88400000D02*
G75*
G03X126490175Y-88400000I-1140175J0D01*
G01*
X142468034Y-88400000D02*
G75*
G03X142468034Y-88400000I-1118034J0D01*
G01*
X126379563Y-52200000D02*
G75*
G03X126379563Y-52200000I-1029563J0D01*
G01*
X142490175Y-52400000D02*
G75*
G03X142490175Y-52400000I-1140175J0D01*
G01*
D11*
X150000000Y-50000000D02*
X100000000Y-50000000D01*
X150000000Y-110000000D02*
X150000000Y-50000000D01*
X100000000Y-50000000D02*
X100000000Y-110000000D01*
M02*
