G04 #@! TF.GenerationSoftware,KiCad,Pcbnew,(5.0.1-3-g963ef8bb5)*
G04 #@! TF.CreationDate,2019-04-15T21:42:43+02:00*
G04 #@! TF.ProjectId,kicad_top_pcb,6B696361645F746F705F7063622E6B69,rev?*
G04 #@! TF.SameCoordinates,Original*
G04 #@! TF.FileFunction,Copper,L2,Bot,Signal*
G04 #@! TF.FilePolarity,Positive*
%FSLAX46Y46*%
G04 Gerber Fmt 4.6, Leading zero omitted, Abs format (unit mm)*
G04 Created by KiCad (PCBNEW (5.0.1-3-g963ef8bb5)) date 2019 April 15, Monday 21:42:43*
%MOMM*%
%LPD*%
G01*
G04 APERTURE LIST*
G04 #@! TA.AperFunction,ComponentPad*
%ADD10C,2.499360*%
G04 #@! TD*
G04 #@! TA.AperFunction,NonConductor*
%ADD11C,0.254000*%
G04 #@! TD*
G04 APERTURE END LIST*
D10*
G04 #@! TO.P,,1*
G04 #@! TO.N,N/C*
X104750000Y-53750000D03*
G04 #@! TD*
G04 #@! TO.P,,1*
G04 #@! TO.N,N/C*
X104750000Y-106250000D03*
G04 #@! TD*
G04 #@! TO.P,,1*
G04 #@! TO.N,N/C*
X145250000Y-106250000D03*
G04 #@! TD*
G04 #@! TO.P,,1*
G04 #@! TO.N,N/C*
X145250000Y-53750000D03*
G04 #@! TD*
D11*
G36*
X124088123Y-50938123D02*
X123701279Y-51517077D01*
X123565437Y-52200000D01*
X123701279Y-52882923D01*
X124088123Y-53461877D01*
X124667077Y-53848721D01*
X125350000Y-53984563D01*
X126032923Y-53848721D01*
X126611877Y-53461877D01*
X126998721Y-52882923D01*
X127134563Y-52200000D01*
X127125932Y-52156609D01*
X129479123Y-52156609D01*
X129479124Y-52310089D01*
X129479123Y-52493391D01*
X129543825Y-52818672D01*
X129543825Y-52818673D01*
X129653572Y-53083625D01*
X129837829Y-53359385D01*
X130040615Y-53562171D01*
X130316375Y-53746428D01*
X130581328Y-53856175D01*
X130906610Y-53920877D01*
X130906611Y-53920877D01*
X130977612Y-53935000D01*
X135722388Y-53935000D01*
X135793389Y-53920877D01*
X135793391Y-53920877D01*
X136118672Y-53856175D01*
X136118673Y-53856175D01*
X136383625Y-53746428D01*
X136659385Y-53562171D01*
X136862171Y-53359385D01*
X137046428Y-53083625D01*
X137156175Y-52818672D01*
X137220877Y-52493390D01*
X137220877Y-52156610D01*
X137156175Y-51831328D01*
X137072419Y-51629123D01*
X137046428Y-51566375D01*
X136862171Y-51290615D01*
X136659385Y-51087829D01*
X136383625Y-50903572D01*
X136118673Y-50793825D01*
X136118672Y-50793825D01*
X135793391Y-50729123D01*
X135793389Y-50729123D01*
X135722388Y-50715000D01*
X130977612Y-50715000D01*
X130906611Y-50729123D01*
X130906610Y-50729123D01*
X130581328Y-50793825D01*
X130316375Y-50903572D01*
X130040615Y-51087829D01*
X129837829Y-51290615D01*
X129653572Y-51566375D01*
X129582122Y-51738870D01*
X129543825Y-51831328D01*
X129479123Y-52156609D01*
X127125932Y-52156609D01*
X126998721Y-51517077D01*
X126611877Y-50938123D01*
X126270466Y-50710000D01*
X140561946Y-50710000D01*
X140185822Y-50904548D01*
X139725518Y-51423913D01*
X139483045Y-52074164D01*
X139490918Y-52768108D01*
X139748081Y-53412691D01*
X140220050Y-53921480D01*
X140843537Y-54226248D01*
X141534937Y-54286130D01*
X142201538Y-54093095D01*
X142753954Y-53673028D01*
X142906296Y-53425883D01*
X143355929Y-53425883D01*
X143365320Y-53775313D01*
X143365320Y-54124886D01*
X143375367Y-54149141D01*
X143376072Y-54175384D01*
X143624141Y-54774275D01*
X143636579Y-54779764D01*
X143652245Y-54817585D01*
X144182415Y-55347755D01*
X144220236Y-55363421D01*
X144225725Y-55375859D01*
X144552140Y-55500900D01*
X144875114Y-55634680D01*
X144901368Y-55634680D01*
X144925883Y-55644071D01*
X145275313Y-55634680D01*
X145624886Y-55634680D01*
X145649141Y-55624633D01*
X145675384Y-55623928D01*
X146274275Y-55375859D01*
X146279764Y-55363421D01*
X146317585Y-55347755D01*
X146847755Y-54817585D01*
X146863421Y-54779764D01*
X146875859Y-54774275D01*
X147000900Y-54447860D01*
X147134680Y-54124886D01*
X147134680Y-54098632D01*
X147144071Y-54074117D01*
X147134680Y-53724687D01*
X147134680Y-53375114D01*
X147124633Y-53350859D01*
X147123928Y-53324616D01*
X146875859Y-52725725D01*
X146863421Y-52720236D01*
X146847755Y-52682415D01*
X146317585Y-52152245D01*
X146279764Y-52136579D01*
X146274275Y-52124141D01*
X145947860Y-51999100D01*
X145624886Y-51865320D01*
X145598632Y-51865320D01*
X145574117Y-51855929D01*
X145224687Y-51865320D01*
X144875114Y-51865320D01*
X144850859Y-51875367D01*
X144824616Y-51876072D01*
X144225725Y-52124141D01*
X144220236Y-52136579D01*
X144182415Y-52152245D01*
X143652245Y-52682415D01*
X143636579Y-52720236D01*
X143624141Y-52725725D01*
X143499100Y-53052140D01*
X143365320Y-53375114D01*
X143365320Y-53401368D01*
X143355929Y-53425883D01*
X142906296Y-53425883D01*
X143118110Y-53082257D01*
X143245175Y-52400000D01*
X143244687Y-52357004D01*
X143102177Y-51677805D01*
X142724711Y-51095448D01*
X142193213Y-50710000D01*
X149290001Y-50710000D01*
X149290000Y-109290000D01*
X100710000Y-109290000D01*
X100710000Y-105925883D01*
X102855929Y-105925883D01*
X102865320Y-106275313D01*
X102865320Y-106624886D01*
X102875367Y-106649141D01*
X102876072Y-106675384D01*
X103124141Y-107274275D01*
X103136579Y-107279764D01*
X103152245Y-107317585D01*
X103682415Y-107847755D01*
X103720236Y-107863421D01*
X103725725Y-107875859D01*
X104052140Y-108000900D01*
X104375114Y-108134680D01*
X104401368Y-108134680D01*
X104425883Y-108144071D01*
X104775313Y-108134680D01*
X105124886Y-108134680D01*
X105149141Y-108124633D01*
X105175384Y-108123928D01*
X105774275Y-107875859D01*
X105779764Y-107863421D01*
X105817585Y-107847755D01*
X106347755Y-107317585D01*
X106363421Y-107279764D01*
X106375859Y-107274275D01*
X106500900Y-106947860D01*
X106634680Y-106624886D01*
X106634680Y-106598632D01*
X106644071Y-106574117D01*
X106634680Y-106224687D01*
X106634680Y-105925883D01*
X143355929Y-105925883D01*
X143365320Y-106275313D01*
X143365320Y-106624886D01*
X143375367Y-106649141D01*
X143376072Y-106675384D01*
X143624141Y-107274275D01*
X143636579Y-107279764D01*
X143652245Y-107317585D01*
X144182415Y-107847755D01*
X144220236Y-107863421D01*
X144225725Y-107875859D01*
X144552140Y-108000900D01*
X144875114Y-108134680D01*
X144901368Y-108134680D01*
X144925883Y-108144071D01*
X145275313Y-108134680D01*
X145624886Y-108134680D01*
X145649141Y-108124633D01*
X145675384Y-108123928D01*
X146274275Y-107875859D01*
X146279764Y-107863421D01*
X146317585Y-107847755D01*
X146847755Y-107317585D01*
X146863421Y-107279764D01*
X146875859Y-107274275D01*
X147000900Y-106947860D01*
X147134680Y-106624886D01*
X147134680Y-106598632D01*
X147144071Y-106574117D01*
X147134680Y-106224687D01*
X147134680Y-105875114D01*
X147124633Y-105850859D01*
X147123928Y-105824616D01*
X146875859Y-105225725D01*
X146863421Y-105220236D01*
X146847755Y-105182415D01*
X146317585Y-104652245D01*
X146279764Y-104636579D01*
X146274275Y-104624141D01*
X145947860Y-104499100D01*
X145624886Y-104365320D01*
X145598632Y-104365320D01*
X145574117Y-104355929D01*
X145224687Y-104365320D01*
X144875114Y-104365320D01*
X144850859Y-104375367D01*
X144824616Y-104376072D01*
X144225725Y-104624141D01*
X144220236Y-104636579D01*
X144182415Y-104652245D01*
X143652245Y-105182415D01*
X143636579Y-105220236D01*
X143624141Y-105225725D01*
X143499100Y-105552140D01*
X143365320Y-105875114D01*
X143365320Y-105901368D01*
X143355929Y-105925883D01*
X106634680Y-105925883D01*
X106634680Y-105875114D01*
X106624633Y-105850859D01*
X106623928Y-105824616D01*
X106375859Y-105225725D01*
X106363421Y-105220236D01*
X106347755Y-105182415D01*
X105817585Y-104652245D01*
X105779764Y-104636579D01*
X105774275Y-104624141D01*
X105447860Y-104499100D01*
X105124886Y-104365320D01*
X105098632Y-104365320D01*
X105074117Y-104355929D01*
X104724687Y-104365320D01*
X104375114Y-104365320D01*
X104350859Y-104375367D01*
X104324616Y-104376072D01*
X103725725Y-104624141D01*
X103720236Y-104636579D01*
X103682415Y-104652245D01*
X103152245Y-105182415D01*
X103136579Y-105220236D01*
X103124141Y-105225725D01*
X102999100Y-105552140D01*
X102865320Y-105875114D01*
X102865320Y-105901368D01*
X102855929Y-105925883D01*
X100710000Y-105925883D01*
X100710000Y-88074164D01*
X123483045Y-88074164D01*
X123490918Y-88768108D01*
X123748081Y-89412691D01*
X124220050Y-89921480D01*
X124843537Y-90226248D01*
X125534937Y-90286130D01*
X126201538Y-90093095D01*
X126753954Y-89673028D01*
X127118110Y-89082257D01*
X127245175Y-88400000D01*
X127244687Y-88357004D01*
X127244605Y-88356609D01*
X129479123Y-88356609D01*
X129479124Y-88510089D01*
X129479123Y-88693391D01*
X129543825Y-89018672D01*
X129543825Y-89018673D01*
X129653572Y-89283625D01*
X129837829Y-89559385D01*
X130040615Y-89762171D01*
X130316375Y-89946428D01*
X130581328Y-90056175D01*
X130906610Y-90120877D01*
X130906611Y-90120877D01*
X130977612Y-90135000D01*
X135722388Y-90135000D01*
X135793389Y-90120877D01*
X135793391Y-90120877D01*
X136118672Y-90056175D01*
X136118673Y-90056175D01*
X136383625Y-89946428D01*
X136659385Y-89762171D01*
X136862171Y-89559385D01*
X137046428Y-89283625D01*
X137156175Y-89018672D01*
X137220877Y-88693390D01*
X137220877Y-88356610D01*
X137165453Y-88077971D01*
X139504857Y-88077971D01*
X139512638Y-88763808D01*
X139766796Y-89400860D01*
X140233251Y-89903704D01*
X140849453Y-90204913D01*
X141532776Y-90264095D01*
X142191590Y-90073315D01*
X142737552Y-89658156D01*
X143097454Y-89074286D01*
X143223034Y-88400000D01*
X143222552Y-88357506D01*
X143081706Y-87686242D01*
X142708651Y-87110688D01*
X142153410Y-86708022D01*
X141490438Y-86532238D01*
X140808634Y-86606908D01*
X140199423Y-86922019D01*
X139744497Y-87435316D01*
X139504857Y-88077971D01*
X137165453Y-88077971D01*
X137156175Y-88031328D01*
X137072419Y-87829123D01*
X137046428Y-87766375D01*
X136862171Y-87490615D01*
X136659385Y-87287829D01*
X136383625Y-87103572D01*
X136118673Y-86993825D01*
X136118672Y-86993825D01*
X135793391Y-86929123D01*
X135793389Y-86929123D01*
X135722388Y-86915000D01*
X130977612Y-86915000D01*
X130906611Y-86929123D01*
X130906610Y-86929123D01*
X130581328Y-86993825D01*
X130316375Y-87103572D01*
X130040615Y-87287829D01*
X129837829Y-87490615D01*
X129653572Y-87766375D01*
X129543825Y-88031327D01*
X129543825Y-88031328D01*
X129479123Y-88356609D01*
X127244605Y-88356609D01*
X127102177Y-87677805D01*
X126724711Y-87095448D01*
X126162907Y-86688022D01*
X125492098Y-86510160D01*
X124802234Y-86585712D01*
X124185822Y-86904548D01*
X123725518Y-87423913D01*
X123483045Y-88074164D01*
X100710000Y-88074164D01*
X100710000Y-84464059D01*
X124217797Y-84464059D01*
X124236787Y-84681118D01*
X124261641Y-84773875D01*
X124278316Y-84868445D01*
X124426794Y-85276385D01*
X124472125Y-85354900D01*
X124554425Y-85497448D01*
X124833472Y-85830005D01*
X125029015Y-85994085D01*
X125029018Y-85994086D01*
X125404973Y-86211143D01*
X125404975Y-86211145D01*
X125644844Y-86298450D01*
X126064513Y-86372449D01*
X126127612Y-86385000D01*
X130922388Y-86385000D01*
X130954030Y-86378706D01*
X131131118Y-86363213D01*
X131223875Y-86338359D01*
X131318445Y-86321684D01*
X131726385Y-86173206D01*
X131944867Y-86047065D01*
X131947448Y-86045575D01*
X132280005Y-85766528D01*
X132444085Y-85570985D01*
X132444086Y-85570982D01*
X132661143Y-85195027D01*
X132661145Y-85195025D01*
X132748450Y-84955156D01*
X132823834Y-84527631D01*
X132823834Y-84464059D01*
X133867797Y-84464059D01*
X133886787Y-84681118D01*
X133911641Y-84773875D01*
X133928316Y-84868445D01*
X134076794Y-85276385D01*
X134122125Y-85354900D01*
X134204425Y-85497448D01*
X134483472Y-85830005D01*
X134679015Y-85994085D01*
X134679018Y-85994086D01*
X135054973Y-86211143D01*
X135054975Y-86211145D01*
X135294844Y-86298450D01*
X135502240Y-86335019D01*
X135513217Y-86342354D01*
X135727612Y-86385000D01*
X140522388Y-86385000D01*
X140593288Y-86370897D01*
X140681118Y-86363213D01*
X140773875Y-86338359D01*
X140868445Y-86321684D01*
X141276385Y-86173206D01*
X141494867Y-86047065D01*
X141497448Y-86045575D01*
X141830005Y-85766528D01*
X141994085Y-85570985D01*
X141994086Y-85570982D01*
X142211143Y-85195027D01*
X142211145Y-85195025D01*
X142298450Y-84955156D01*
X142373834Y-84527631D01*
X142373834Y-84431598D01*
X142382203Y-84335941D01*
X142363213Y-84118881D01*
X142338358Y-84026121D01*
X142321684Y-83931556D01*
X142173208Y-83523619D01*
X142173207Y-83523616D01*
X142102637Y-83401385D01*
X142045575Y-83302551D01*
X142045572Y-83302549D01*
X141766528Y-82969996D01*
X141570986Y-82805916D01*
X141570985Y-82805915D01*
X141570984Y-82805915D01*
X141195026Y-82588856D01*
X141195025Y-82588855D01*
X140955156Y-82501550D01*
X140747760Y-82464981D01*
X140736783Y-82457646D01*
X140522388Y-82415000D01*
X135777612Y-82415000D01*
X135744829Y-82421521D01*
X135647436Y-82426130D01*
X135553765Y-82447256D01*
X135458602Y-82460138D01*
X135044723Y-82592298D01*
X134818734Y-82710992D01*
X134818733Y-82710993D01*
X134475016Y-82976738D01*
X134317411Y-83150000D01*
X134303253Y-83165565D01*
X134071153Y-83532842D01*
X133974331Y-83769030D01*
X133974331Y-83769031D01*
X133881846Y-84193541D01*
X133873745Y-84396075D01*
X133867797Y-84464059D01*
X132823834Y-84464059D01*
X132823834Y-84431598D01*
X132832203Y-84335941D01*
X132813213Y-84118881D01*
X132788358Y-84026121D01*
X132771684Y-83931556D01*
X132623208Y-83523619D01*
X132623207Y-83523616D01*
X132552637Y-83401385D01*
X132495575Y-83302551D01*
X132495572Y-83302549D01*
X132216528Y-82969996D01*
X132020986Y-82805916D01*
X132020985Y-82805915D01*
X132020984Y-82805915D01*
X131645026Y-82588856D01*
X131645025Y-82588855D01*
X131405156Y-82501550D01*
X130985487Y-82427551D01*
X130922388Y-82415000D01*
X126177612Y-82415000D01*
X126160438Y-82418416D01*
X125997436Y-82426130D01*
X125903765Y-82447256D01*
X125808602Y-82460138D01*
X125394723Y-82592298D01*
X125168734Y-82710992D01*
X125168733Y-82710993D01*
X124825016Y-82976738D01*
X124667411Y-83150000D01*
X124653253Y-83165565D01*
X124421153Y-83532842D01*
X124324331Y-83769030D01*
X124324331Y-83769031D01*
X124231846Y-84193541D01*
X124223745Y-84396075D01*
X124217797Y-84464059D01*
X100710000Y-84464059D01*
X100710000Y-79464059D01*
X123217797Y-79464059D01*
X123236787Y-79681118D01*
X123261641Y-79773875D01*
X123278316Y-79868445D01*
X123426794Y-80276385D01*
X123472125Y-80354900D01*
X123554425Y-80497448D01*
X123833472Y-80830005D01*
X124029015Y-80994085D01*
X124029018Y-80994086D01*
X124404973Y-81211143D01*
X124404975Y-81211145D01*
X124644844Y-81298450D01*
X125064513Y-81372449D01*
X125127612Y-81385000D01*
X141572388Y-81385000D01*
X141604030Y-81378706D01*
X141781118Y-81363213D01*
X141873875Y-81338359D01*
X141968445Y-81321684D01*
X142376385Y-81173206D01*
X142594867Y-81047065D01*
X142597448Y-81045575D01*
X142930005Y-80766528D01*
X143094085Y-80570985D01*
X143094086Y-80570982D01*
X143311143Y-80195027D01*
X143311145Y-80195025D01*
X143398450Y-79955156D01*
X143473834Y-79527631D01*
X143473834Y-79431598D01*
X143482203Y-79335941D01*
X143463213Y-79118881D01*
X143438358Y-79026121D01*
X143421684Y-78931556D01*
X143273208Y-78523619D01*
X143273207Y-78523616D01*
X143202637Y-78401385D01*
X143145575Y-78302551D01*
X143145572Y-78302549D01*
X142866528Y-77969996D01*
X142670986Y-77805916D01*
X142670985Y-77805915D01*
X142670984Y-77805915D01*
X142295026Y-77588856D01*
X142295025Y-77588855D01*
X142055156Y-77501550D01*
X141635487Y-77427551D01*
X141572388Y-77415000D01*
X125127612Y-77415000D01*
X125094829Y-77421521D01*
X124997436Y-77426130D01*
X124903765Y-77447256D01*
X124808602Y-77460138D01*
X124394723Y-77592298D01*
X124168734Y-77710992D01*
X124168733Y-77710993D01*
X123825016Y-77976738D01*
X123667411Y-78150000D01*
X123653253Y-78165565D01*
X123421153Y-78532842D01*
X123324331Y-78769030D01*
X123324331Y-78769031D01*
X123231846Y-79193541D01*
X123223745Y-79396075D01*
X123217797Y-79464059D01*
X100710000Y-79464059D01*
X100710000Y-74964059D01*
X123217797Y-74964059D01*
X123236787Y-75181118D01*
X123261641Y-75273875D01*
X123278316Y-75368445D01*
X123426794Y-75776385D01*
X123472125Y-75854900D01*
X123554425Y-75997448D01*
X123833472Y-76330005D01*
X124029015Y-76494085D01*
X124029018Y-76494086D01*
X124404973Y-76711143D01*
X124404975Y-76711145D01*
X124644844Y-76798450D01*
X125064513Y-76872449D01*
X125127612Y-76885000D01*
X130672388Y-76885000D01*
X130704030Y-76878706D01*
X130881118Y-76863213D01*
X130973875Y-76838359D01*
X131068445Y-76821684D01*
X131476385Y-76673206D01*
X131694867Y-76547065D01*
X131697448Y-76545575D01*
X132030005Y-76266528D01*
X132194085Y-76070985D01*
X132194086Y-76070982D01*
X132411143Y-75695027D01*
X132411145Y-75695025D01*
X132498450Y-75455156D01*
X132573834Y-75027631D01*
X132573834Y-74964059D01*
X134117797Y-74964059D01*
X134136787Y-75181118D01*
X134161641Y-75273875D01*
X134178316Y-75368445D01*
X134326794Y-75776385D01*
X134372125Y-75854900D01*
X134454425Y-75997448D01*
X134733472Y-76330005D01*
X134929015Y-76494085D01*
X134929018Y-76494086D01*
X135304973Y-76711143D01*
X135304975Y-76711145D01*
X135544844Y-76798450D01*
X135972369Y-76873834D01*
X136021477Y-76873834D01*
X136077612Y-76885000D01*
X141572388Y-76885000D01*
X141604030Y-76878706D01*
X141781118Y-76863213D01*
X141873875Y-76838359D01*
X141968445Y-76821684D01*
X142376385Y-76673206D01*
X142594867Y-76547065D01*
X142597448Y-76545575D01*
X142930005Y-76266528D01*
X143094085Y-76070985D01*
X143094086Y-76070982D01*
X143311143Y-75695027D01*
X143311145Y-75695025D01*
X143398450Y-75455156D01*
X143473834Y-75027631D01*
X143473834Y-74931598D01*
X143482203Y-74835941D01*
X143463213Y-74618881D01*
X143438358Y-74526121D01*
X143421684Y-74431556D01*
X143273208Y-74023619D01*
X143273207Y-74023616D01*
X143202637Y-73901385D01*
X143145575Y-73802551D01*
X143145572Y-73802549D01*
X142866528Y-73469996D01*
X142670986Y-73305916D01*
X142670985Y-73305915D01*
X142670984Y-73305915D01*
X142295026Y-73088856D01*
X142295025Y-73088855D01*
X142055156Y-73001550D01*
X141635487Y-72927551D01*
X141572388Y-72915000D01*
X136077612Y-72915000D01*
X136060438Y-72918416D01*
X135897436Y-72926130D01*
X135803765Y-72947256D01*
X135708602Y-72960138D01*
X135294723Y-73092298D01*
X135068734Y-73210992D01*
X135068733Y-73210993D01*
X134725016Y-73476738D01*
X134567411Y-73650000D01*
X134553253Y-73665565D01*
X134321153Y-74032842D01*
X134224331Y-74269030D01*
X134224331Y-74269031D01*
X134131846Y-74693541D01*
X134123745Y-74896075D01*
X134117797Y-74964059D01*
X132573834Y-74964059D01*
X132573834Y-74931598D01*
X132582203Y-74835941D01*
X132563213Y-74618881D01*
X132538358Y-74526121D01*
X132521684Y-74431556D01*
X132373208Y-74023619D01*
X132373207Y-74023616D01*
X132302637Y-73901385D01*
X132245575Y-73802551D01*
X132245572Y-73802549D01*
X131966528Y-73469996D01*
X131770986Y-73305916D01*
X131770985Y-73305915D01*
X131770984Y-73305915D01*
X131395026Y-73088856D01*
X131395025Y-73088855D01*
X131155156Y-73001550D01*
X130735487Y-72927551D01*
X130672388Y-72915000D01*
X125177612Y-72915000D01*
X125160438Y-72918416D01*
X124997436Y-72926130D01*
X124903765Y-72947256D01*
X124808602Y-72960138D01*
X124394723Y-73092298D01*
X124168734Y-73210992D01*
X124168733Y-73210993D01*
X123825016Y-73476738D01*
X123667411Y-73650000D01*
X123653253Y-73665565D01*
X123421153Y-74032842D01*
X123324331Y-74269030D01*
X123324331Y-74269031D01*
X123231846Y-74693541D01*
X123223745Y-74896075D01*
X123217797Y-74964059D01*
X100710000Y-74964059D01*
X100710000Y-70464059D01*
X123217797Y-70464059D01*
X123236787Y-70681118D01*
X123261641Y-70773875D01*
X123278316Y-70868445D01*
X123426794Y-71276385D01*
X123472125Y-71354900D01*
X123554425Y-71497448D01*
X123833472Y-71830005D01*
X124029015Y-71994085D01*
X124029018Y-71994086D01*
X124404973Y-72211143D01*
X124404975Y-72211145D01*
X124644844Y-72298450D01*
X125064513Y-72372449D01*
X125127612Y-72385000D01*
X141572388Y-72385000D01*
X141604030Y-72378706D01*
X141781118Y-72363213D01*
X141873875Y-72338359D01*
X141968445Y-72321684D01*
X142376385Y-72173206D01*
X142594867Y-72047065D01*
X142597448Y-72045575D01*
X142930005Y-71766528D01*
X143094085Y-71570985D01*
X143094086Y-71570982D01*
X143311143Y-71195027D01*
X143311145Y-71195025D01*
X143398450Y-70955156D01*
X143473834Y-70527631D01*
X143473834Y-70431598D01*
X143482203Y-70335941D01*
X143463213Y-70118881D01*
X143438358Y-70026121D01*
X143421684Y-69931556D01*
X143273208Y-69523619D01*
X143273207Y-69523616D01*
X143202637Y-69401385D01*
X143145575Y-69302551D01*
X143145572Y-69302549D01*
X142866528Y-68969996D01*
X142670986Y-68805916D01*
X142670985Y-68805915D01*
X142670984Y-68805915D01*
X142295026Y-68588856D01*
X142295025Y-68588855D01*
X142055156Y-68501550D01*
X141635487Y-68427551D01*
X141572388Y-68415000D01*
X125177612Y-68415000D01*
X125160438Y-68418416D01*
X124997436Y-68426130D01*
X124903765Y-68447256D01*
X124808602Y-68460138D01*
X124394723Y-68592298D01*
X124168734Y-68710992D01*
X124168733Y-68710993D01*
X123825016Y-68976738D01*
X123667411Y-69150000D01*
X123653253Y-69165565D01*
X123421153Y-69532842D01*
X123324331Y-69769030D01*
X123324331Y-69769031D01*
X123231846Y-70193541D01*
X123223745Y-70396075D01*
X123217797Y-70464059D01*
X100710000Y-70464059D01*
X100710000Y-66014059D01*
X123217797Y-66014059D01*
X123236787Y-66231118D01*
X123261641Y-66323875D01*
X123278316Y-66418445D01*
X123426794Y-66826385D01*
X123472125Y-66904900D01*
X123554425Y-67047448D01*
X123833472Y-67380005D01*
X124029015Y-67544085D01*
X124029018Y-67544086D01*
X124404973Y-67761143D01*
X124404975Y-67761145D01*
X124644844Y-67848450D01*
X125064513Y-67922449D01*
X125127612Y-67935000D01*
X130672388Y-67935000D01*
X130704030Y-67928706D01*
X130881118Y-67913213D01*
X130973875Y-67888359D01*
X131068445Y-67871684D01*
X131476385Y-67723206D01*
X131694867Y-67597065D01*
X131697448Y-67595575D01*
X132030005Y-67316528D01*
X132194085Y-67120985D01*
X132194086Y-67120982D01*
X132411143Y-66745027D01*
X132411145Y-66745025D01*
X132498450Y-66505156D01*
X132573834Y-66077631D01*
X132573834Y-66014059D01*
X134167797Y-66014059D01*
X134186787Y-66231118D01*
X134211641Y-66323875D01*
X134228316Y-66418445D01*
X134376794Y-66826385D01*
X134422125Y-66904900D01*
X134504425Y-67047448D01*
X134783472Y-67380005D01*
X134979015Y-67544085D01*
X134979018Y-67544086D01*
X135354973Y-67761143D01*
X135354975Y-67761145D01*
X135594844Y-67848450D01*
X136014513Y-67922449D01*
X136077612Y-67935000D01*
X141572388Y-67935000D01*
X141604030Y-67928706D01*
X141781118Y-67913213D01*
X141873875Y-67888359D01*
X141968445Y-67871684D01*
X142376385Y-67723206D01*
X142594867Y-67597065D01*
X142597448Y-67595575D01*
X142930005Y-67316528D01*
X143094085Y-67120985D01*
X143094086Y-67120982D01*
X143311143Y-66745027D01*
X143311145Y-66745025D01*
X143398450Y-66505156D01*
X143473834Y-66077631D01*
X143473834Y-65981598D01*
X143482203Y-65885941D01*
X143463213Y-65668881D01*
X143438358Y-65576121D01*
X143421684Y-65481556D01*
X143273208Y-65073619D01*
X143273207Y-65073616D01*
X143202637Y-64951385D01*
X143145575Y-64852551D01*
X143145572Y-64852549D01*
X142866528Y-64519996D01*
X142670986Y-64355916D01*
X142670985Y-64355915D01*
X142670984Y-64355915D01*
X142295026Y-64138856D01*
X142295025Y-64138855D01*
X142055156Y-64051550D01*
X141847760Y-64014981D01*
X141836783Y-64007646D01*
X141622388Y-63965000D01*
X136127612Y-63965000D01*
X136110438Y-63968416D01*
X135947436Y-63976130D01*
X135853765Y-63997256D01*
X135758602Y-64010138D01*
X135344723Y-64142298D01*
X135118734Y-64260992D01*
X135118733Y-64260993D01*
X134775016Y-64526738D01*
X134617411Y-64700000D01*
X134603253Y-64715565D01*
X134371153Y-65082842D01*
X134274331Y-65319030D01*
X134274331Y-65319031D01*
X134181846Y-65743541D01*
X134173745Y-65946075D01*
X134167797Y-66014059D01*
X132573834Y-66014059D01*
X132573834Y-65981598D01*
X132582203Y-65885941D01*
X132563213Y-65668881D01*
X132538358Y-65576121D01*
X132521684Y-65481556D01*
X132373208Y-65073619D01*
X132373207Y-65073616D01*
X132302637Y-64951385D01*
X132245575Y-64852551D01*
X132245572Y-64852549D01*
X131966528Y-64519996D01*
X131770986Y-64355916D01*
X131770985Y-64355915D01*
X131770984Y-64355915D01*
X131395026Y-64138856D01*
X131395025Y-64138855D01*
X131155156Y-64051550D01*
X130735487Y-63977551D01*
X130672388Y-63965000D01*
X125177612Y-63965000D01*
X125160438Y-63968416D01*
X124997436Y-63976130D01*
X124903765Y-63997256D01*
X124808602Y-64010138D01*
X124394723Y-64142298D01*
X124168734Y-64260992D01*
X124168733Y-64260993D01*
X123825016Y-64526738D01*
X123667411Y-64700000D01*
X123653253Y-64715565D01*
X123421153Y-65082842D01*
X123324331Y-65319030D01*
X123324331Y-65319031D01*
X123231846Y-65743541D01*
X123223745Y-65946075D01*
X123217797Y-66014059D01*
X100710000Y-66014059D01*
X100710000Y-61514059D01*
X123217797Y-61514059D01*
X123236787Y-61731118D01*
X123261641Y-61823875D01*
X123278316Y-61918445D01*
X123426794Y-62326385D01*
X123472125Y-62404900D01*
X123554425Y-62547448D01*
X123833472Y-62880005D01*
X124029015Y-63044085D01*
X124029018Y-63044086D01*
X124404973Y-63261143D01*
X124404975Y-63261145D01*
X124644844Y-63348450D01*
X125064513Y-63422449D01*
X125127612Y-63435000D01*
X141572388Y-63435000D01*
X141604030Y-63428706D01*
X141781118Y-63413213D01*
X141873875Y-63388359D01*
X141968445Y-63371684D01*
X142376385Y-63223206D01*
X142594867Y-63097065D01*
X142597448Y-63095575D01*
X142930005Y-62816528D01*
X143094085Y-62620985D01*
X143094086Y-62620982D01*
X143311143Y-62245027D01*
X143311145Y-62245025D01*
X143398450Y-62005156D01*
X143473834Y-61577631D01*
X143473834Y-61481598D01*
X143482203Y-61385941D01*
X143463213Y-61168881D01*
X143438358Y-61076121D01*
X143421684Y-60981556D01*
X143273208Y-60573619D01*
X143273207Y-60573616D01*
X143202637Y-60451385D01*
X143145575Y-60352551D01*
X143145572Y-60352549D01*
X142866528Y-60019996D01*
X142670986Y-59855916D01*
X142670985Y-59855915D01*
X142670984Y-59855915D01*
X142295026Y-59638856D01*
X142295025Y-59638855D01*
X142055156Y-59551550D01*
X141635487Y-59477551D01*
X141572388Y-59465000D01*
X125177612Y-59465000D01*
X125160438Y-59468416D01*
X124997436Y-59476130D01*
X124903765Y-59497256D01*
X124808602Y-59510138D01*
X124394723Y-59642298D01*
X124168734Y-59760992D01*
X124168733Y-59760993D01*
X123825016Y-60026738D01*
X123667411Y-60200000D01*
X123653253Y-60215565D01*
X123421153Y-60582842D01*
X123324331Y-60819030D01*
X123324331Y-60819031D01*
X123231846Y-61243541D01*
X123223745Y-61446075D01*
X123217797Y-61514059D01*
X100710000Y-61514059D01*
X100710000Y-56514059D01*
X124267797Y-56514059D01*
X124286787Y-56731118D01*
X124311641Y-56823875D01*
X124328316Y-56918445D01*
X124476794Y-57326385D01*
X124522125Y-57404900D01*
X124604425Y-57547448D01*
X124883472Y-57880005D01*
X125079015Y-58044085D01*
X125079018Y-58044086D01*
X125454973Y-58261143D01*
X125454975Y-58261145D01*
X125694844Y-58348450D01*
X126114513Y-58422449D01*
X126177612Y-58435000D01*
X130922388Y-58435000D01*
X130954030Y-58428706D01*
X131131118Y-58413213D01*
X131223875Y-58388359D01*
X131318445Y-58371684D01*
X131726385Y-58223206D01*
X131944867Y-58097065D01*
X131947448Y-58095575D01*
X132280005Y-57816528D01*
X132444085Y-57620985D01*
X132444086Y-57620982D01*
X132661143Y-57245027D01*
X132661145Y-57245025D01*
X132748450Y-57005156D01*
X132823834Y-56577631D01*
X132823834Y-56514059D01*
X133867797Y-56514059D01*
X133886787Y-56731118D01*
X133911641Y-56823875D01*
X133928316Y-56918445D01*
X134076794Y-57326385D01*
X134122125Y-57404900D01*
X134204425Y-57547448D01*
X134483472Y-57880005D01*
X134679015Y-58044085D01*
X134679018Y-58044086D01*
X135054973Y-58261143D01*
X135054975Y-58261145D01*
X135294844Y-58348450D01*
X135714513Y-58422449D01*
X135777612Y-58435000D01*
X140172388Y-58435000D01*
X140204030Y-58428706D01*
X140381118Y-58413213D01*
X140473875Y-58388359D01*
X140568445Y-58371684D01*
X140976385Y-58223206D01*
X141194867Y-58097065D01*
X141197448Y-58095575D01*
X141530005Y-57816528D01*
X141694085Y-57620985D01*
X141694086Y-57620982D01*
X141911143Y-57245027D01*
X141911145Y-57245025D01*
X141998450Y-57005156D01*
X142073834Y-56577631D01*
X142073834Y-56481598D01*
X142082203Y-56385941D01*
X142063213Y-56168881D01*
X142038358Y-56076121D01*
X142021684Y-55981556D01*
X141873208Y-55573619D01*
X141873207Y-55573616D01*
X141802637Y-55451385D01*
X141745575Y-55352551D01*
X141745572Y-55352549D01*
X141466528Y-55019996D01*
X141270986Y-54855916D01*
X141270985Y-54855915D01*
X141270984Y-54855915D01*
X140895026Y-54638856D01*
X140895025Y-54638855D01*
X140655156Y-54551550D01*
X140235487Y-54477551D01*
X140172388Y-54465000D01*
X135827612Y-54465000D01*
X135810438Y-54468416D01*
X135647436Y-54476130D01*
X135553765Y-54497256D01*
X135458602Y-54510138D01*
X135044723Y-54642298D01*
X134818734Y-54760992D01*
X134818733Y-54760993D01*
X134475016Y-55026738D01*
X134317411Y-55200000D01*
X134303253Y-55215565D01*
X134071153Y-55582842D01*
X133974331Y-55819030D01*
X133974331Y-55819031D01*
X133881846Y-56243541D01*
X133873745Y-56446075D01*
X133867797Y-56514059D01*
X132823834Y-56514059D01*
X132823834Y-56481598D01*
X132832203Y-56385941D01*
X132813213Y-56168881D01*
X132788358Y-56076121D01*
X132771684Y-55981556D01*
X132623208Y-55573619D01*
X132623207Y-55573616D01*
X132552637Y-55451385D01*
X132495575Y-55352551D01*
X132495572Y-55352549D01*
X132216528Y-55019996D01*
X132020986Y-54855916D01*
X132020985Y-54855915D01*
X132020984Y-54855915D01*
X131645026Y-54638856D01*
X131645025Y-54638855D01*
X131405156Y-54551550D01*
X130985487Y-54477551D01*
X130922388Y-54465000D01*
X126227612Y-54465000D01*
X126210438Y-54468416D01*
X126047436Y-54476130D01*
X125953765Y-54497256D01*
X125858602Y-54510138D01*
X125444723Y-54642298D01*
X125218734Y-54760992D01*
X125218733Y-54760993D01*
X124875016Y-55026738D01*
X124717411Y-55200000D01*
X124703253Y-55215565D01*
X124471153Y-55582842D01*
X124374331Y-55819030D01*
X124374331Y-55819031D01*
X124281846Y-56243541D01*
X124273745Y-56446075D01*
X124267797Y-56514059D01*
X100710000Y-56514059D01*
X100710000Y-53425883D01*
X102855929Y-53425883D01*
X102865320Y-53775313D01*
X102865320Y-54124886D01*
X102875367Y-54149141D01*
X102876072Y-54175384D01*
X103124141Y-54774275D01*
X103136579Y-54779764D01*
X103152245Y-54817585D01*
X103682415Y-55347755D01*
X103720236Y-55363421D01*
X103725725Y-55375859D01*
X104052140Y-55500900D01*
X104375114Y-55634680D01*
X104401368Y-55634680D01*
X104425883Y-55644071D01*
X104775313Y-55634680D01*
X105124886Y-55634680D01*
X105149141Y-55624633D01*
X105175384Y-55623928D01*
X105774275Y-55375859D01*
X105779764Y-55363421D01*
X105817585Y-55347755D01*
X106347755Y-54817585D01*
X106363421Y-54779764D01*
X106375859Y-54774275D01*
X106500900Y-54447860D01*
X106634680Y-54124886D01*
X106634680Y-54098632D01*
X106644071Y-54074117D01*
X106634680Y-53724687D01*
X106634680Y-53375114D01*
X106624633Y-53350859D01*
X106623928Y-53324616D01*
X106375859Y-52725725D01*
X106363421Y-52720236D01*
X106347755Y-52682415D01*
X105817585Y-52152245D01*
X105779764Y-52136579D01*
X105774275Y-52124141D01*
X105447860Y-51999100D01*
X105124886Y-51865320D01*
X105098632Y-51865320D01*
X105074117Y-51855929D01*
X104724687Y-51865320D01*
X104375114Y-51865320D01*
X104350859Y-51875367D01*
X104324616Y-51876072D01*
X103725725Y-52124141D01*
X103720236Y-52136579D01*
X103682415Y-52152245D01*
X103152245Y-52682415D01*
X103136579Y-52720236D01*
X103124141Y-52725725D01*
X102999100Y-53052140D01*
X102865320Y-53375114D01*
X102865320Y-53401368D01*
X102855929Y-53425883D01*
X100710000Y-53425883D01*
X100710000Y-50710000D01*
X124429534Y-50710000D01*
X124088123Y-50938123D01*
X124088123Y-50938123D01*
G37*
X124088123Y-50938123D02*
X123701279Y-51517077D01*
X123565437Y-52200000D01*
X123701279Y-52882923D01*
X124088123Y-53461877D01*
X124667077Y-53848721D01*
X125350000Y-53984563D01*
X126032923Y-53848721D01*
X126611877Y-53461877D01*
X126998721Y-52882923D01*
X127134563Y-52200000D01*
X127125932Y-52156609D01*
X129479123Y-52156609D01*
X129479124Y-52310089D01*
X129479123Y-52493391D01*
X129543825Y-52818672D01*
X129543825Y-52818673D01*
X129653572Y-53083625D01*
X129837829Y-53359385D01*
X130040615Y-53562171D01*
X130316375Y-53746428D01*
X130581328Y-53856175D01*
X130906610Y-53920877D01*
X130906611Y-53920877D01*
X130977612Y-53935000D01*
X135722388Y-53935000D01*
X135793389Y-53920877D01*
X135793391Y-53920877D01*
X136118672Y-53856175D01*
X136118673Y-53856175D01*
X136383625Y-53746428D01*
X136659385Y-53562171D01*
X136862171Y-53359385D01*
X137046428Y-53083625D01*
X137156175Y-52818672D01*
X137220877Y-52493390D01*
X137220877Y-52156610D01*
X137156175Y-51831328D01*
X137072419Y-51629123D01*
X137046428Y-51566375D01*
X136862171Y-51290615D01*
X136659385Y-51087829D01*
X136383625Y-50903572D01*
X136118673Y-50793825D01*
X136118672Y-50793825D01*
X135793391Y-50729123D01*
X135793389Y-50729123D01*
X135722388Y-50715000D01*
X130977612Y-50715000D01*
X130906611Y-50729123D01*
X130906610Y-50729123D01*
X130581328Y-50793825D01*
X130316375Y-50903572D01*
X130040615Y-51087829D01*
X129837829Y-51290615D01*
X129653572Y-51566375D01*
X129582122Y-51738870D01*
X129543825Y-51831328D01*
X129479123Y-52156609D01*
X127125932Y-52156609D01*
X126998721Y-51517077D01*
X126611877Y-50938123D01*
X126270466Y-50710000D01*
X140561946Y-50710000D01*
X140185822Y-50904548D01*
X139725518Y-51423913D01*
X139483045Y-52074164D01*
X139490918Y-52768108D01*
X139748081Y-53412691D01*
X140220050Y-53921480D01*
X140843537Y-54226248D01*
X141534937Y-54286130D01*
X142201538Y-54093095D01*
X142753954Y-53673028D01*
X142906296Y-53425883D01*
X143355929Y-53425883D01*
X143365320Y-53775313D01*
X143365320Y-54124886D01*
X143375367Y-54149141D01*
X143376072Y-54175384D01*
X143624141Y-54774275D01*
X143636579Y-54779764D01*
X143652245Y-54817585D01*
X144182415Y-55347755D01*
X144220236Y-55363421D01*
X144225725Y-55375859D01*
X144552140Y-55500900D01*
X144875114Y-55634680D01*
X144901368Y-55634680D01*
X144925883Y-55644071D01*
X145275313Y-55634680D01*
X145624886Y-55634680D01*
X145649141Y-55624633D01*
X145675384Y-55623928D01*
X146274275Y-55375859D01*
X146279764Y-55363421D01*
X146317585Y-55347755D01*
X146847755Y-54817585D01*
X146863421Y-54779764D01*
X146875859Y-54774275D01*
X147000900Y-54447860D01*
X147134680Y-54124886D01*
X147134680Y-54098632D01*
X147144071Y-54074117D01*
X147134680Y-53724687D01*
X147134680Y-53375114D01*
X147124633Y-53350859D01*
X147123928Y-53324616D01*
X146875859Y-52725725D01*
X146863421Y-52720236D01*
X146847755Y-52682415D01*
X146317585Y-52152245D01*
X146279764Y-52136579D01*
X146274275Y-52124141D01*
X145947860Y-51999100D01*
X145624886Y-51865320D01*
X145598632Y-51865320D01*
X145574117Y-51855929D01*
X145224687Y-51865320D01*
X144875114Y-51865320D01*
X144850859Y-51875367D01*
X144824616Y-51876072D01*
X144225725Y-52124141D01*
X144220236Y-52136579D01*
X144182415Y-52152245D01*
X143652245Y-52682415D01*
X143636579Y-52720236D01*
X143624141Y-52725725D01*
X143499100Y-53052140D01*
X143365320Y-53375114D01*
X143365320Y-53401368D01*
X143355929Y-53425883D01*
X142906296Y-53425883D01*
X143118110Y-53082257D01*
X143245175Y-52400000D01*
X143244687Y-52357004D01*
X143102177Y-51677805D01*
X142724711Y-51095448D01*
X142193213Y-50710000D01*
X149290001Y-50710000D01*
X149290000Y-109290000D01*
X100710000Y-109290000D01*
X100710000Y-105925883D01*
X102855929Y-105925883D01*
X102865320Y-106275313D01*
X102865320Y-106624886D01*
X102875367Y-106649141D01*
X102876072Y-106675384D01*
X103124141Y-107274275D01*
X103136579Y-107279764D01*
X103152245Y-107317585D01*
X103682415Y-107847755D01*
X103720236Y-107863421D01*
X103725725Y-107875859D01*
X104052140Y-108000900D01*
X104375114Y-108134680D01*
X104401368Y-108134680D01*
X104425883Y-108144071D01*
X104775313Y-108134680D01*
X105124886Y-108134680D01*
X105149141Y-108124633D01*
X105175384Y-108123928D01*
X105774275Y-107875859D01*
X105779764Y-107863421D01*
X105817585Y-107847755D01*
X106347755Y-107317585D01*
X106363421Y-107279764D01*
X106375859Y-107274275D01*
X106500900Y-106947860D01*
X106634680Y-106624886D01*
X106634680Y-106598632D01*
X106644071Y-106574117D01*
X106634680Y-106224687D01*
X106634680Y-105925883D01*
X143355929Y-105925883D01*
X143365320Y-106275313D01*
X143365320Y-106624886D01*
X143375367Y-106649141D01*
X143376072Y-106675384D01*
X143624141Y-107274275D01*
X143636579Y-107279764D01*
X143652245Y-107317585D01*
X144182415Y-107847755D01*
X144220236Y-107863421D01*
X144225725Y-107875859D01*
X144552140Y-108000900D01*
X144875114Y-108134680D01*
X144901368Y-108134680D01*
X144925883Y-108144071D01*
X145275313Y-108134680D01*
X145624886Y-108134680D01*
X145649141Y-108124633D01*
X145675384Y-108123928D01*
X146274275Y-107875859D01*
X146279764Y-107863421D01*
X146317585Y-107847755D01*
X146847755Y-107317585D01*
X146863421Y-107279764D01*
X146875859Y-107274275D01*
X147000900Y-106947860D01*
X147134680Y-106624886D01*
X147134680Y-106598632D01*
X147144071Y-106574117D01*
X147134680Y-106224687D01*
X147134680Y-105875114D01*
X147124633Y-105850859D01*
X147123928Y-105824616D01*
X146875859Y-105225725D01*
X146863421Y-105220236D01*
X146847755Y-105182415D01*
X146317585Y-104652245D01*
X146279764Y-104636579D01*
X146274275Y-104624141D01*
X145947860Y-104499100D01*
X145624886Y-104365320D01*
X145598632Y-104365320D01*
X145574117Y-104355929D01*
X145224687Y-104365320D01*
X144875114Y-104365320D01*
X144850859Y-104375367D01*
X144824616Y-104376072D01*
X144225725Y-104624141D01*
X144220236Y-104636579D01*
X144182415Y-104652245D01*
X143652245Y-105182415D01*
X143636579Y-105220236D01*
X143624141Y-105225725D01*
X143499100Y-105552140D01*
X143365320Y-105875114D01*
X143365320Y-105901368D01*
X143355929Y-105925883D01*
X106634680Y-105925883D01*
X106634680Y-105875114D01*
X106624633Y-105850859D01*
X106623928Y-105824616D01*
X106375859Y-105225725D01*
X106363421Y-105220236D01*
X106347755Y-105182415D01*
X105817585Y-104652245D01*
X105779764Y-104636579D01*
X105774275Y-104624141D01*
X105447860Y-104499100D01*
X105124886Y-104365320D01*
X105098632Y-104365320D01*
X105074117Y-104355929D01*
X104724687Y-104365320D01*
X104375114Y-104365320D01*
X104350859Y-104375367D01*
X104324616Y-104376072D01*
X103725725Y-104624141D01*
X103720236Y-104636579D01*
X103682415Y-104652245D01*
X103152245Y-105182415D01*
X103136579Y-105220236D01*
X103124141Y-105225725D01*
X102999100Y-105552140D01*
X102865320Y-105875114D01*
X102865320Y-105901368D01*
X102855929Y-105925883D01*
X100710000Y-105925883D01*
X100710000Y-88074164D01*
X123483045Y-88074164D01*
X123490918Y-88768108D01*
X123748081Y-89412691D01*
X124220050Y-89921480D01*
X124843537Y-90226248D01*
X125534937Y-90286130D01*
X126201538Y-90093095D01*
X126753954Y-89673028D01*
X127118110Y-89082257D01*
X127245175Y-88400000D01*
X127244687Y-88357004D01*
X127244605Y-88356609D01*
X129479123Y-88356609D01*
X129479124Y-88510089D01*
X129479123Y-88693391D01*
X129543825Y-89018672D01*
X129543825Y-89018673D01*
X129653572Y-89283625D01*
X129837829Y-89559385D01*
X130040615Y-89762171D01*
X130316375Y-89946428D01*
X130581328Y-90056175D01*
X130906610Y-90120877D01*
X130906611Y-90120877D01*
X130977612Y-90135000D01*
X135722388Y-90135000D01*
X135793389Y-90120877D01*
X135793391Y-90120877D01*
X136118672Y-90056175D01*
X136118673Y-90056175D01*
X136383625Y-89946428D01*
X136659385Y-89762171D01*
X136862171Y-89559385D01*
X137046428Y-89283625D01*
X137156175Y-89018672D01*
X137220877Y-88693390D01*
X137220877Y-88356610D01*
X137165453Y-88077971D01*
X139504857Y-88077971D01*
X139512638Y-88763808D01*
X139766796Y-89400860D01*
X140233251Y-89903704D01*
X140849453Y-90204913D01*
X141532776Y-90264095D01*
X142191590Y-90073315D01*
X142737552Y-89658156D01*
X143097454Y-89074286D01*
X143223034Y-88400000D01*
X143222552Y-88357506D01*
X143081706Y-87686242D01*
X142708651Y-87110688D01*
X142153410Y-86708022D01*
X141490438Y-86532238D01*
X140808634Y-86606908D01*
X140199423Y-86922019D01*
X139744497Y-87435316D01*
X139504857Y-88077971D01*
X137165453Y-88077971D01*
X137156175Y-88031328D01*
X137072419Y-87829123D01*
X137046428Y-87766375D01*
X136862171Y-87490615D01*
X136659385Y-87287829D01*
X136383625Y-87103572D01*
X136118673Y-86993825D01*
X136118672Y-86993825D01*
X135793391Y-86929123D01*
X135793389Y-86929123D01*
X135722388Y-86915000D01*
X130977612Y-86915000D01*
X130906611Y-86929123D01*
X130906610Y-86929123D01*
X130581328Y-86993825D01*
X130316375Y-87103572D01*
X130040615Y-87287829D01*
X129837829Y-87490615D01*
X129653572Y-87766375D01*
X129543825Y-88031327D01*
X129543825Y-88031328D01*
X129479123Y-88356609D01*
X127244605Y-88356609D01*
X127102177Y-87677805D01*
X126724711Y-87095448D01*
X126162907Y-86688022D01*
X125492098Y-86510160D01*
X124802234Y-86585712D01*
X124185822Y-86904548D01*
X123725518Y-87423913D01*
X123483045Y-88074164D01*
X100710000Y-88074164D01*
X100710000Y-84464059D01*
X124217797Y-84464059D01*
X124236787Y-84681118D01*
X124261641Y-84773875D01*
X124278316Y-84868445D01*
X124426794Y-85276385D01*
X124472125Y-85354900D01*
X124554425Y-85497448D01*
X124833472Y-85830005D01*
X125029015Y-85994085D01*
X125029018Y-85994086D01*
X125404973Y-86211143D01*
X125404975Y-86211145D01*
X125644844Y-86298450D01*
X126064513Y-86372449D01*
X126127612Y-86385000D01*
X130922388Y-86385000D01*
X130954030Y-86378706D01*
X131131118Y-86363213D01*
X131223875Y-86338359D01*
X131318445Y-86321684D01*
X131726385Y-86173206D01*
X131944867Y-86047065D01*
X131947448Y-86045575D01*
X132280005Y-85766528D01*
X132444085Y-85570985D01*
X132444086Y-85570982D01*
X132661143Y-85195027D01*
X132661145Y-85195025D01*
X132748450Y-84955156D01*
X132823834Y-84527631D01*
X132823834Y-84464059D01*
X133867797Y-84464059D01*
X133886787Y-84681118D01*
X133911641Y-84773875D01*
X133928316Y-84868445D01*
X134076794Y-85276385D01*
X134122125Y-85354900D01*
X134204425Y-85497448D01*
X134483472Y-85830005D01*
X134679015Y-85994085D01*
X134679018Y-85994086D01*
X135054973Y-86211143D01*
X135054975Y-86211145D01*
X135294844Y-86298450D01*
X135502240Y-86335019D01*
X135513217Y-86342354D01*
X135727612Y-86385000D01*
X140522388Y-86385000D01*
X140593288Y-86370897D01*
X140681118Y-86363213D01*
X140773875Y-86338359D01*
X140868445Y-86321684D01*
X141276385Y-86173206D01*
X141494867Y-86047065D01*
X141497448Y-86045575D01*
X141830005Y-85766528D01*
X141994085Y-85570985D01*
X141994086Y-85570982D01*
X142211143Y-85195027D01*
X142211145Y-85195025D01*
X142298450Y-84955156D01*
X142373834Y-84527631D01*
X142373834Y-84431598D01*
X142382203Y-84335941D01*
X142363213Y-84118881D01*
X142338358Y-84026121D01*
X142321684Y-83931556D01*
X142173208Y-83523619D01*
X142173207Y-83523616D01*
X142102637Y-83401385D01*
X142045575Y-83302551D01*
X142045572Y-83302549D01*
X141766528Y-82969996D01*
X141570986Y-82805916D01*
X141570985Y-82805915D01*
X141570984Y-82805915D01*
X141195026Y-82588856D01*
X141195025Y-82588855D01*
X140955156Y-82501550D01*
X140747760Y-82464981D01*
X140736783Y-82457646D01*
X140522388Y-82415000D01*
X135777612Y-82415000D01*
X135744829Y-82421521D01*
X135647436Y-82426130D01*
X135553765Y-82447256D01*
X135458602Y-82460138D01*
X135044723Y-82592298D01*
X134818734Y-82710992D01*
X134818733Y-82710993D01*
X134475016Y-82976738D01*
X134317411Y-83150000D01*
X134303253Y-83165565D01*
X134071153Y-83532842D01*
X133974331Y-83769030D01*
X133974331Y-83769031D01*
X133881846Y-84193541D01*
X133873745Y-84396075D01*
X133867797Y-84464059D01*
X132823834Y-84464059D01*
X132823834Y-84431598D01*
X132832203Y-84335941D01*
X132813213Y-84118881D01*
X132788358Y-84026121D01*
X132771684Y-83931556D01*
X132623208Y-83523619D01*
X132623207Y-83523616D01*
X132552637Y-83401385D01*
X132495575Y-83302551D01*
X132495572Y-83302549D01*
X132216528Y-82969996D01*
X132020986Y-82805916D01*
X132020985Y-82805915D01*
X132020984Y-82805915D01*
X131645026Y-82588856D01*
X131645025Y-82588855D01*
X131405156Y-82501550D01*
X130985487Y-82427551D01*
X130922388Y-82415000D01*
X126177612Y-82415000D01*
X126160438Y-82418416D01*
X125997436Y-82426130D01*
X125903765Y-82447256D01*
X125808602Y-82460138D01*
X125394723Y-82592298D01*
X125168734Y-82710992D01*
X125168733Y-82710993D01*
X124825016Y-82976738D01*
X124667411Y-83150000D01*
X124653253Y-83165565D01*
X124421153Y-83532842D01*
X124324331Y-83769030D01*
X124324331Y-83769031D01*
X124231846Y-84193541D01*
X124223745Y-84396075D01*
X124217797Y-84464059D01*
X100710000Y-84464059D01*
X100710000Y-79464059D01*
X123217797Y-79464059D01*
X123236787Y-79681118D01*
X123261641Y-79773875D01*
X123278316Y-79868445D01*
X123426794Y-80276385D01*
X123472125Y-80354900D01*
X123554425Y-80497448D01*
X123833472Y-80830005D01*
X124029015Y-80994085D01*
X124029018Y-80994086D01*
X124404973Y-81211143D01*
X124404975Y-81211145D01*
X124644844Y-81298450D01*
X125064513Y-81372449D01*
X125127612Y-81385000D01*
X141572388Y-81385000D01*
X141604030Y-81378706D01*
X141781118Y-81363213D01*
X141873875Y-81338359D01*
X141968445Y-81321684D01*
X142376385Y-81173206D01*
X142594867Y-81047065D01*
X142597448Y-81045575D01*
X142930005Y-80766528D01*
X143094085Y-80570985D01*
X143094086Y-80570982D01*
X143311143Y-80195027D01*
X143311145Y-80195025D01*
X143398450Y-79955156D01*
X143473834Y-79527631D01*
X143473834Y-79431598D01*
X143482203Y-79335941D01*
X143463213Y-79118881D01*
X143438358Y-79026121D01*
X143421684Y-78931556D01*
X143273208Y-78523619D01*
X143273207Y-78523616D01*
X143202637Y-78401385D01*
X143145575Y-78302551D01*
X143145572Y-78302549D01*
X142866528Y-77969996D01*
X142670986Y-77805916D01*
X142670985Y-77805915D01*
X142670984Y-77805915D01*
X142295026Y-77588856D01*
X142295025Y-77588855D01*
X142055156Y-77501550D01*
X141635487Y-77427551D01*
X141572388Y-77415000D01*
X125127612Y-77415000D01*
X125094829Y-77421521D01*
X124997436Y-77426130D01*
X124903765Y-77447256D01*
X124808602Y-77460138D01*
X124394723Y-77592298D01*
X124168734Y-77710992D01*
X124168733Y-77710993D01*
X123825016Y-77976738D01*
X123667411Y-78150000D01*
X123653253Y-78165565D01*
X123421153Y-78532842D01*
X123324331Y-78769030D01*
X123324331Y-78769031D01*
X123231846Y-79193541D01*
X123223745Y-79396075D01*
X123217797Y-79464059D01*
X100710000Y-79464059D01*
X100710000Y-74964059D01*
X123217797Y-74964059D01*
X123236787Y-75181118D01*
X123261641Y-75273875D01*
X123278316Y-75368445D01*
X123426794Y-75776385D01*
X123472125Y-75854900D01*
X123554425Y-75997448D01*
X123833472Y-76330005D01*
X124029015Y-76494085D01*
X124029018Y-76494086D01*
X124404973Y-76711143D01*
X124404975Y-76711145D01*
X124644844Y-76798450D01*
X125064513Y-76872449D01*
X125127612Y-76885000D01*
X130672388Y-76885000D01*
X130704030Y-76878706D01*
X130881118Y-76863213D01*
X130973875Y-76838359D01*
X131068445Y-76821684D01*
X131476385Y-76673206D01*
X131694867Y-76547065D01*
X131697448Y-76545575D01*
X132030005Y-76266528D01*
X132194085Y-76070985D01*
X132194086Y-76070982D01*
X132411143Y-75695027D01*
X132411145Y-75695025D01*
X132498450Y-75455156D01*
X132573834Y-75027631D01*
X132573834Y-74964059D01*
X134117797Y-74964059D01*
X134136787Y-75181118D01*
X134161641Y-75273875D01*
X134178316Y-75368445D01*
X134326794Y-75776385D01*
X134372125Y-75854900D01*
X134454425Y-75997448D01*
X134733472Y-76330005D01*
X134929015Y-76494085D01*
X134929018Y-76494086D01*
X135304973Y-76711143D01*
X135304975Y-76711145D01*
X135544844Y-76798450D01*
X135972369Y-76873834D01*
X136021477Y-76873834D01*
X136077612Y-76885000D01*
X141572388Y-76885000D01*
X141604030Y-76878706D01*
X141781118Y-76863213D01*
X141873875Y-76838359D01*
X141968445Y-76821684D01*
X142376385Y-76673206D01*
X142594867Y-76547065D01*
X142597448Y-76545575D01*
X142930005Y-76266528D01*
X143094085Y-76070985D01*
X143094086Y-76070982D01*
X143311143Y-75695027D01*
X143311145Y-75695025D01*
X143398450Y-75455156D01*
X143473834Y-75027631D01*
X143473834Y-74931598D01*
X143482203Y-74835941D01*
X143463213Y-74618881D01*
X143438358Y-74526121D01*
X143421684Y-74431556D01*
X143273208Y-74023619D01*
X143273207Y-74023616D01*
X143202637Y-73901385D01*
X143145575Y-73802551D01*
X143145572Y-73802549D01*
X142866528Y-73469996D01*
X142670986Y-73305916D01*
X142670985Y-73305915D01*
X142670984Y-73305915D01*
X142295026Y-73088856D01*
X142295025Y-73088855D01*
X142055156Y-73001550D01*
X141635487Y-72927551D01*
X141572388Y-72915000D01*
X136077612Y-72915000D01*
X136060438Y-72918416D01*
X135897436Y-72926130D01*
X135803765Y-72947256D01*
X135708602Y-72960138D01*
X135294723Y-73092298D01*
X135068734Y-73210992D01*
X135068733Y-73210993D01*
X134725016Y-73476738D01*
X134567411Y-73650000D01*
X134553253Y-73665565D01*
X134321153Y-74032842D01*
X134224331Y-74269030D01*
X134224331Y-74269031D01*
X134131846Y-74693541D01*
X134123745Y-74896075D01*
X134117797Y-74964059D01*
X132573834Y-74964059D01*
X132573834Y-74931598D01*
X132582203Y-74835941D01*
X132563213Y-74618881D01*
X132538358Y-74526121D01*
X132521684Y-74431556D01*
X132373208Y-74023619D01*
X132373207Y-74023616D01*
X132302637Y-73901385D01*
X132245575Y-73802551D01*
X132245572Y-73802549D01*
X131966528Y-73469996D01*
X131770986Y-73305916D01*
X131770985Y-73305915D01*
X131770984Y-73305915D01*
X131395026Y-73088856D01*
X131395025Y-73088855D01*
X131155156Y-73001550D01*
X130735487Y-72927551D01*
X130672388Y-72915000D01*
X125177612Y-72915000D01*
X125160438Y-72918416D01*
X124997436Y-72926130D01*
X124903765Y-72947256D01*
X124808602Y-72960138D01*
X124394723Y-73092298D01*
X124168734Y-73210992D01*
X124168733Y-73210993D01*
X123825016Y-73476738D01*
X123667411Y-73650000D01*
X123653253Y-73665565D01*
X123421153Y-74032842D01*
X123324331Y-74269030D01*
X123324331Y-74269031D01*
X123231846Y-74693541D01*
X123223745Y-74896075D01*
X123217797Y-74964059D01*
X100710000Y-74964059D01*
X100710000Y-70464059D01*
X123217797Y-70464059D01*
X123236787Y-70681118D01*
X123261641Y-70773875D01*
X123278316Y-70868445D01*
X123426794Y-71276385D01*
X123472125Y-71354900D01*
X123554425Y-71497448D01*
X123833472Y-71830005D01*
X124029015Y-71994085D01*
X124029018Y-71994086D01*
X124404973Y-72211143D01*
X124404975Y-72211145D01*
X124644844Y-72298450D01*
X125064513Y-72372449D01*
X125127612Y-72385000D01*
X141572388Y-72385000D01*
X141604030Y-72378706D01*
X141781118Y-72363213D01*
X141873875Y-72338359D01*
X141968445Y-72321684D01*
X142376385Y-72173206D01*
X142594867Y-72047065D01*
X142597448Y-72045575D01*
X142930005Y-71766528D01*
X143094085Y-71570985D01*
X143094086Y-71570982D01*
X143311143Y-71195027D01*
X143311145Y-71195025D01*
X143398450Y-70955156D01*
X143473834Y-70527631D01*
X143473834Y-70431598D01*
X143482203Y-70335941D01*
X143463213Y-70118881D01*
X143438358Y-70026121D01*
X143421684Y-69931556D01*
X143273208Y-69523619D01*
X143273207Y-69523616D01*
X143202637Y-69401385D01*
X143145575Y-69302551D01*
X143145572Y-69302549D01*
X142866528Y-68969996D01*
X142670986Y-68805916D01*
X142670985Y-68805915D01*
X142670984Y-68805915D01*
X142295026Y-68588856D01*
X142295025Y-68588855D01*
X142055156Y-68501550D01*
X141635487Y-68427551D01*
X141572388Y-68415000D01*
X125177612Y-68415000D01*
X125160438Y-68418416D01*
X124997436Y-68426130D01*
X124903765Y-68447256D01*
X124808602Y-68460138D01*
X124394723Y-68592298D01*
X124168734Y-68710992D01*
X124168733Y-68710993D01*
X123825016Y-68976738D01*
X123667411Y-69150000D01*
X123653253Y-69165565D01*
X123421153Y-69532842D01*
X123324331Y-69769030D01*
X123324331Y-69769031D01*
X123231846Y-70193541D01*
X123223745Y-70396075D01*
X123217797Y-70464059D01*
X100710000Y-70464059D01*
X100710000Y-66014059D01*
X123217797Y-66014059D01*
X123236787Y-66231118D01*
X123261641Y-66323875D01*
X123278316Y-66418445D01*
X123426794Y-66826385D01*
X123472125Y-66904900D01*
X123554425Y-67047448D01*
X123833472Y-67380005D01*
X124029015Y-67544085D01*
X124029018Y-67544086D01*
X124404973Y-67761143D01*
X124404975Y-67761145D01*
X124644844Y-67848450D01*
X125064513Y-67922449D01*
X125127612Y-67935000D01*
X130672388Y-67935000D01*
X130704030Y-67928706D01*
X130881118Y-67913213D01*
X130973875Y-67888359D01*
X131068445Y-67871684D01*
X131476385Y-67723206D01*
X131694867Y-67597065D01*
X131697448Y-67595575D01*
X132030005Y-67316528D01*
X132194085Y-67120985D01*
X132194086Y-67120982D01*
X132411143Y-66745027D01*
X132411145Y-66745025D01*
X132498450Y-66505156D01*
X132573834Y-66077631D01*
X132573834Y-66014059D01*
X134167797Y-66014059D01*
X134186787Y-66231118D01*
X134211641Y-66323875D01*
X134228316Y-66418445D01*
X134376794Y-66826385D01*
X134422125Y-66904900D01*
X134504425Y-67047448D01*
X134783472Y-67380005D01*
X134979015Y-67544085D01*
X134979018Y-67544086D01*
X135354973Y-67761143D01*
X135354975Y-67761145D01*
X135594844Y-67848450D01*
X136014513Y-67922449D01*
X136077612Y-67935000D01*
X141572388Y-67935000D01*
X141604030Y-67928706D01*
X141781118Y-67913213D01*
X141873875Y-67888359D01*
X141968445Y-67871684D01*
X142376385Y-67723206D01*
X142594867Y-67597065D01*
X142597448Y-67595575D01*
X142930005Y-67316528D01*
X143094085Y-67120985D01*
X143094086Y-67120982D01*
X143311143Y-66745027D01*
X143311145Y-66745025D01*
X143398450Y-66505156D01*
X143473834Y-66077631D01*
X143473834Y-65981598D01*
X143482203Y-65885941D01*
X143463213Y-65668881D01*
X143438358Y-65576121D01*
X143421684Y-65481556D01*
X143273208Y-65073619D01*
X143273207Y-65073616D01*
X143202637Y-64951385D01*
X143145575Y-64852551D01*
X143145572Y-64852549D01*
X142866528Y-64519996D01*
X142670986Y-64355916D01*
X142670985Y-64355915D01*
X142670984Y-64355915D01*
X142295026Y-64138856D01*
X142295025Y-64138855D01*
X142055156Y-64051550D01*
X141847760Y-64014981D01*
X141836783Y-64007646D01*
X141622388Y-63965000D01*
X136127612Y-63965000D01*
X136110438Y-63968416D01*
X135947436Y-63976130D01*
X135853765Y-63997256D01*
X135758602Y-64010138D01*
X135344723Y-64142298D01*
X135118734Y-64260992D01*
X135118733Y-64260993D01*
X134775016Y-64526738D01*
X134617411Y-64700000D01*
X134603253Y-64715565D01*
X134371153Y-65082842D01*
X134274331Y-65319030D01*
X134274331Y-65319031D01*
X134181846Y-65743541D01*
X134173745Y-65946075D01*
X134167797Y-66014059D01*
X132573834Y-66014059D01*
X132573834Y-65981598D01*
X132582203Y-65885941D01*
X132563213Y-65668881D01*
X132538358Y-65576121D01*
X132521684Y-65481556D01*
X132373208Y-65073619D01*
X132373207Y-65073616D01*
X132302637Y-64951385D01*
X132245575Y-64852551D01*
X132245572Y-64852549D01*
X131966528Y-64519996D01*
X131770986Y-64355916D01*
X131770985Y-64355915D01*
X131770984Y-64355915D01*
X131395026Y-64138856D01*
X131395025Y-64138855D01*
X131155156Y-64051550D01*
X130735487Y-63977551D01*
X130672388Y-63965000D01*
X125177612Y-63965000D01*
X125160438Y-63968416D01*
X124997436Y-63976130D01*
X124903765Y-63997256D01*
X124808602Y-64010138D01*
X124394723Y-64142298D01*
X124168734Y-64260992D01*
X124168733Y-64260993D01*
X123825016Y-64526738D01*
X123667411Y-64700000D01*
X123653253Y-64715565D01*
X123421153Y-65082842D01*
X123324331Y-65319030D01*
X123324331Y-65319031D01*
X123231846Y-65743541D01*
X123223745Y-65946075D01*
X123217797Y-66014059D01*
X100710000Y-66014059D01*
X100710000Y-61514059D01*
X123217797Y-61514059D01*
X123236787Y-61731118D01*
X123261641Y-61823875D01*
X123278316Y-61918445D01*
X123426794Y-62326385D01*
X123472125Y-62404900D01*
X123554425Y-62547448D01*
X123833472Y-62880005D01*
X124029015Y-63044085D01*
X124029018Y-63044086D01*
X124404973Y-63261143D01*
X124404975Y-63261145D01*
X124644844Y-63348450D01*
X125064513Y-63422449D01*
X125127612Y-63435000D01*
X141572388Y-63435000D01*
X141604030Y-63428706D01*
X141781118Y-63413213D01*
X141873875Y-63388359D01*
X141968445Y-63371684D01*
X142376385Y-63223206D01*
X142594867Y-63097065D01*
X142597448Y-63095575D01*
X142930005Y-62816528D01*
X143094085Y-62620985D01*
X143094086Y-62620982D01*
X143311143Y-62245027D01*
X143311145Y-62245025D01*
X143398450Y-62005156D01*
X143473834Y-61577631D01*
X143473834Y-61481598D01*
X143482203Y-61385941D01*
X143463213Y-61168881D01*
X143438358Y-61076121D01*
X143421684Y-60981556D01*
X143273208Y-60573619D01*
X143273207Y-60573616D01*
X143202637Y-60451385D01*
X143145575Y-60352551D01*
X143145572Y-60352549D01*
X142866528Y-60019996D01*
X142670986Y-59855916D01*
X142670985Y-59855915D01*
X142670984Y-59855915D01*
X142295026Y-59638856D01*
X142295025Y-59638855D01*
X142055156Y-59551550D01*
X141635487Y-59477551D01*
X141572388Y-59465000D01*
X125177612Y-59465000D01*
X125160438Y-59468416D01*
X124997436Y-59476130D01*
X124903765Y-59497256D01*
X124808602Y-59510138D01*
X124394723Y-59642298D01*
X124168734Y-59760992D01*
X124168733Y-59760993D01*
X123825016Y-60026738D01*
X123667411Y-60200000D01*
X123653253Y-60215565D01*
X123421153Y-60582842D01*
X123324331Y-60819030D01*
X123324331Y-60819031D01*
X123231846Y-61243541D01*
X123223745Y-61446075D01*
X123217797Y-61514059D01*
X100710000Y-61514059D01*
X100710000Y-56514059D01*
X124267797Y-56514059D01*
X124286787Y-56731118D01*
X124311641Y-56823875D01*
X124328316Y-56918445D01*
X124476794Y-57326385D01*
X124522125Y-57404900D01*
X124604425Y-57547448D01*
X124883472Y-57880005D01*
X125079015Y-58044085D01*
X125079018Y-58044086D01*
X125454973Y-58261143D01*
X125454975Y-58261145D01*
X125694844Y-58348450D01*
X126114513Y-58422449D01*
X126177612Y-58435000D01*
X130922388Y-58435000D01*
X130954030Y-58428706D01*
X131131118Y-58413213D01*
X131223875Y-58388359D01*
X131318445Y-58371684D01*
X131726385Y-58223206D01*
X131944867Y-58097065D01*
X131947448Y-58095575D01*
X132280005Y-57816528D01*
X132444085Y-57620985D01*
X132444086Y-57620982D01*
X132661143Y-57245027D01*
X132661145Y-57245025D01*
X132748450Y-57005156D01*
X132823834Y-56577631D01*
X132823834Y-56514059D01*
X133867797Y-56514059D01*
X133886787Y-56731118D01*
X133911641Y-56823875D01*
X133928316Y-56918445D01*
X134076794Y-57326385D01*
X134122125Y-57404900D01*
X134204425Y-57547448D01*
X134483472Y-57880005D01*
X134679015Y-58044085D01*
X134679018Y-58044086D01*
X135054973Y-58261143D01*
X135054975Y-58261145D01*
X135294844Y-58348450D01*
X135714513Y-58422449D01*
X135777612Y-58435000D01*
X140172388Y-58435000D01*
X140204030Y-58428706D01*
X140381118Y-58413213D01*
X140473875Y-58388359D01*
X140568445Y-58371684D01*
X140976385Y-58223206D01*
X141194867Y-58097065D01*
X141197448Y-58095575D01*
X141530005Y-57816528D01*
X141694085Y-57620985D01*
X141694086Y-57620982D01*
X141911143Y-57245027D01*
X141911145Y-57245025D01*
X141998450Y-57005156D01*
X142073834Y-56577631D01*
X142073834Y-56481598D01*
X142082203Y-56385941D01*
X142063213Y-56168881D01*
X142038358Y-56076121D01*
X142021684Y-55981556D01*
X141873208Y-55573619D01*
X141873207Y-55573616D01*
X141802637Y-55451385D01*
X141745575Y-55352551D01*
X141745572Y-55352549D01*
X141466528Y-55019996D01*
X141270986Y-54855916D01*
X141270985Y-54855915D01*
X141270984Y-54855915D01*
X140895026Y-54638856D01*
X140895025Y-54638855D01*
X140655156Y-54551550D01*
X140235487Y-54477551D01*
X140172388Y-54465000D01*
X135827612Y-54465000D01*
X135810438Y-54468416D01*
X135647436Y-54476130D01*
X135553765Y-54497256D01*
X135458602Y-54510138D01*
X135044723Y-54642298D01*
X134818734Y-54760992D01*
X134818733Y-54760993D01*
X134475016Y-55026738D01*
X134317411Y-55200000D01*
X134303253Y-55215565D01*
X134071153Y-55582842D01*
X133974331Y-55819030D01*
X133974331Y-55819031D01*
X133881846Y-56243541D01*
X133873745Y-56446075D01*
X133867797Y-56514059D01*
X132823834Y-56514059D01*
X132823834Y-56481598D01*
X132832203Y-56385941D01*
X132813213Y-56168881D01*
X132788358Y-56076121D01*
X132771684Y-55981556D01*
X132623208Y-55573619D01*
X132623207Y-55573616D01*
X132552637Y-55451385D01*
X132495575Y-55352551D01*
X132495572Y-55352549D01*
X132216528Y-55019996D01*
X132020986Y-54855916D01*
X132020985Y-54855915D01*
X132020984Y-54855915D01*
X131645026Y-54638856D01*
X131645025Y-54638855D01*
X131405156Y-54551550D01*
X130985487Y-54477551D01*
X130922388Y-54465000D01*
X126227612Y-54465000D01*
X126210438Y-54468416D01*
X126047436Y-54476130D01*
X125953765Y-54497256D01*
X125858602Y-54510138D01*
X125444723Y-54642298D01*
X125218734Y-54760992D01*
X125218733Y-54760993D01*
X124875016Y-55026738D01*
X124717411Y-55200000D01*
X124703253Y-55215565D01*
X124471153Y-55582842D01*
X124374331Y-55819030D01*
X124374331Y-55819031D01*
X124281846Y-56243541D01*
X124273745Y-56446075D01*
X124267797Y-56514059D01*
X100710000Y-56514059D01*
X100710000Y-53425883D01*
X102855929Y-53425883D01*
X102865320Y-53775313D01*
X102865320Y-54124886D01*
X102875367Y-54149141D01*
X102876072Y-54175384D01*
X103124141Y-54774275D01*
X103136579Y-54779764D01*
X103152245Y-54817585D01*
X103682415Y-55347755D01*
X103720236Y-55363421D01*
X103725725Y-55375859D01*
X104052140Y-55500900D01*
X104375114Y-55634680D01*
X104401368Y-55634680D01*
X104425883Y-55644071D01*
X104775313Y-55634680D01*
X105124886Y-55634680D01*
X105149141Y-55624633D01*
X105175384Y-55623928D01*
X105774275Y-55375859D01*
X105779764Y-55363421D01*
X105817585Y-55347755D01*
X106347755Y-54817585D01*
X106363421Y-54779764D01*
X106375859Y-54774275D01*
X106500900Y-54447860D01*
X106634680Y-54124886D01*
X106634680Y-54098632D01*
X106644071Y-54074117D01*
X106634680Y-53724687D01*
X106634680Y-53375114D01*
X106624633Y-53350859D01*
X106623928Y-53324616D01*
X106375859Y-52725725D01*
X106363421Y-52720236D01*
X106347755Y-52682415D01*
X105817585Y-52152245D01*
X105779764Y-52136579D01*
X105774275Y-52124141D01*
X105447860Y-51999100D01*
X105124886Y-51865320D01*
X105098632Y-51865320D01*
X105074117Y-51855929D01*
X104724687Y-51865320D01*
X104375114Y-51865320D01*
X104350859Y-51875367D01*
X104324616Y-51876072D01*
X103725725Y-52124141D01*
X103720236Y-52136579D01*
X103682415Y-52152245D01*
X103152245Y-52682415D01*
X103136579Y-52720236D01*
X103124141Y-52725725D01*
X102999100Y-53052140D01*
X102865320Y-53375114D01*
X102865320Y-53401368D01*
X102855929Y-53425883D01*
X100710000Y-53425883D01*
X100710000Y-50710000D01*
X124429534Y-50710000D01*
X124088123Y-50938123D01*
G36*
X125532053Y-88038028D02*
X125650156Y-88127836D01*
X125728009Y-88254138D01*
X125755175Y-88400000D01*
X125755071Y-88409192D01*
X125724603Y-88554400D01*
X125643904Y-88678904D01*
X125523794Y-88766009D01*
X125380380Y-88804034D01*
X125232892Y-88787882D01*
X125101107Y-88719717D01*
X125002697Y-88608681D01*
X124950858Y-88469661D01*
X124952541Y-88321301D01*
X125007521Y-88183494D01*
X125108425Y-88074718D01*
X125241722Y-88009561D01*
X125389538Y-87996759D01*
X125532053Y-88038028D01*
X125532053Y-88038028D01*
G37*
X125532053Y-88038028D02*
X125650156Y-88127836D01*
X125728009Y-88254138D01*
X125755175Y-88400000D01*
X125755071Y-88409192D01*
X125724603Y-88554400D01*
X125643904Y-88678904D01*
X125523794Y-88766009D01*
X125380380Y-88804034D01*
X125232892Y-88787882D01*
X125101107Y-88719717D01*
X125002697Y-88608681D01*
X124950858Y-88469661D01*
X124952541Y-88321301D01*
X125007521Y-88183494D01*
X125108425Y-88074718D01*
X125241722Y-88009561D01*
X125389538Y-87996759D01*
X125532053Y-88038028D01*
G36*
X141522104Y-88057808D02*
X141633753Y-88142708D01*
X141707353Y-88262109D01*
X141733034Y-88400000D01*
X141732935Y-88408690D01*
X141704133Y-88545963D01*
X141627843Y-88663663D01*
X141514297Y-88746008D01*
X141378719Y-88781956D01*
X141239291Y-88766686D01*
X141114708Y-88702246D01*
X141021676Y-88597277D01*
X140972670Y-88465855D01*
X140974261Y-88325602D01*
X141026236Y-88195325D01*
X141121626Y-88092494D01*
X141247639Y-88030897D01*
X141387378Y-88018794D01*
X141522104Y-88057808D01*
X141522104Y-88057808D01*
G37*
X141522104Y-88057808D02*
X141633753Y-88142708D01*
X141707353Y-88262109D01*
X141733034Y-88400000D01*
X141732935Y-88408690D01*
X141704133Y-88545963D01*
X141627843Y-88663663D01*
X141514297Y-88746008D01*
X141378719Y-88781956D01*
X141239291Y-88766686D01*
X141114708Y-88702246D01*
X141021676Y-88597277D01*
X140972670Y-88465855D01*
X140974261Y-88325602D01*
X141026236Y-88195325D01*
X141121626Y-88092494D01*
X141247639Y-88030897D01*
X141387378Y-88018794D01*
X141522104Y-88057808D01*
G36*
X135688498Y-88407057D02*
X135721136Y-88428864D01*
X135742943Y-88461501D01*
X135755574Y-88525000D01*
X135742943Y-88588499D01*
X135721136Y-88621136D01*
X135688498Y-88642943D01*
X135577611Y-88665000D01*
X131122389Y-88665000D01*
X131011501Y-88642943D01*
X130978864Y-88621136D01*
X130957057Y-88588498D01*
X130944426Y-88525000D01*
X130957057Y-88461502D01*
X130978864Y-88428864D01*
X131011501Y-88407057D01*
X131122389Y-88385000D01*
X135577611Y-88385000D01*
X135688498Y-88407057D01*
X135688498Y-88407057D01*
G37*
X135688498Y-88407057D02*
X135721136Y-88428864D01*
X135742943Y-88461501D01*
X135755574Y-88525000D01*
X135742943Y-88588499D01*
X135721136Y-88621136D01*
X135688498Y-88642943D01*
X135577611Y-88665000D01*
X131122389Y-88665000D01*
X131011501Y-88642943D01*
X130978864Y-88621136D01*
X130957057Y-88588498D01*
X130944426Y-88525000D01*
X130957057Y-88461502D01*
X130978864Y-88428864D01*
X131011501Y-88407057D01*
X131122389Y-88385000D01*
X135577611Y-88385000D01*
X135688498Y-88407057D01*
G36*
X140572264Y-83926713D02*
X140723748Y-84014172D01*
X140836184Y-84148169D01*
X140907241Y-84343396D01*
X140909363Y-84367661D01*
X140873287Y-84572264D01*
X140785827Y-84723748D01*
X140651831Y-84836184D01*
X140456604Y-84907240D01*
X140367911Y-84915000D01*
X135914305Y-84915000D01*
X135677736Y-84873287D01*
X135526252Y-84785827D01*
X135413816Y-84651831D01*
X135342760Y-84456604D01*
X135338822Y-84411594D01*
X135383050Y-84208582D01*
X135476682Y-84060417D01*
X135615339Y-83953215D01*
X135813582Y-83889912D01*
X135917374Y-83885000D01*
X140335695Y-83885000D01*
X140572264Y-83926713D01*
X140572264Y-83926713D01*
G37*
X140572264Y-83926713D02*
X140723748Y-84014172D01*
X140836184Y-84148169D01*
X140907241Y-84343396D01*
X140909363Y-84367661D01*
X140873287Y-84572264D01*
X140785827Y-84723748D01*
X140651831Y-84836184D01*
X140456604Y-84907240D01*
X140367911Y-84915000D01*
X135914305Y-84915000D01*
X135677736Y-84873287D01*
X135526252Y-84785827D01*
X135413816Y-84651831D01*
X135342760Y-84456604D01*
X135338822Y-84411594D01*
X135383050Y-84208582D01*
X135476682Y-84060417D01*
X135615339Y-83953215D01*
X135813582Y-83889912D01*
X135917374Y-83885000D01*
X140335695Y-83885000D01*
X140572264Y-83926713D01*
G36*
X131022264Y-83926713D02*
X131173748Y-84014172D01*
X131286184Y-84148169D01*
X131357241Y-84343396D01*
X131359363Y-84367661D01*
X131323287Y-84572264D01*
X131235827Y-84723748D01*
X131101831Y-84836184D01*
X130906604Y-84907240D01*
X130817911Y-84915000D01*
X126264305Y-84915000D01*
X126027736Y-84873287D01*
X125876252Y-84785827D01*
X125763816Y-84651831D01*
X125692760Y-84456604D01*
X125688822Y-84411594D01*
X125733050Y-84208582D01*
X125826682Y-84060417D01*
X125965339Y-83953215D01*
X126163582Y-83889912D01*
X126267374Y-83885000D01*
X130785695Y-83885000D01*
X131022264Y-83926713D01*
X131022264Y-83926713D01*
G37*
X131022264Y-83926713D02*
X131173748Y-84014172D01*
X131286184Y-84148169D01*
X131357241Y-84343396D01*
X131359363Y-84367661D01*
X131323287Y-84572264D01*
X131235827Y-84723748D01*
X131101831Y-84836184D01*
X130906604Y-84907240D01*
X130817911Y-84915000D01*
X126264305Y-84915000D01*
X126027736Y-84873287D01*
X125876252Y-84785827D01*
X125763816Y-84651831D01*
X125692760Y-84456604D01*
X125688822Y-84411594D01*
X125733050Y-84208582D01*
X125826682Y-84060417D01*
X125965339Y-83953215D01*
X126163582Y-83889912D01*
X126267374Y-83885000D01*
X130785695Y-83885000D01*
X131022264Y-83926713D01*
G36*
X141672264Y-78926713D02*
X141823748Y-79014172D01*
X141936184Y-79148169D01*
X142007241Y-79343396D01*
X142009363Y-79367661D01*
X141973287Y-79572264D01*
X141885827Y-79723748D01*
X141751831Y-79836184D01*
X141556604Y-79907240D01*
X141467911Y-79915000D01*
X125264305Y-79915000D01*
X125027736Y-79873287D01*
X124876252Y-79785827D01*
X124763816Y-79651831D01*
X124692760Y-79456604D01*
X124688822Y-79411594D01*
X124733050Y-79208582D01*
X124826682Y-79060417D01*
X124965339Y-78953215D01*
X125163582Y-78889912D01*
X125267374Y-78885000D01*
X141435695Y-78885000D01*
X141672264Y-78926713D01*
X141672264Y-78926713D01*
G37*
X141672264Y-78926713D02*
X141823748Y-79014172D01*
X141936184Y-79148169D01*
X142007241Y-79343396D01*
X142009363Y-79367661D01*
X141973287Y-79572264D01*
X141885827Y-79723748D01*
X141751831Y-79836184D01*
X141556604Y-79907240D01*
X141467911Y-79915000D01*
X125264305Y-79915000D01*
X125027736Y-79873287D01*
X124876252Y-79785827D01*
X124763816Y-79651831D01*
X124692760Y-79456604D01*
X124688822Y-79411594D01*
X124733050Y-79208582D01*
X124826682Y-79060417D01*
X124965339Y-78953215D01*
X125163582Y-78889912D01*
X125267374Y-78885000D01*
X141435695Y-78885000D01*
X141672264Y-78926713D01*
G36*
X130772264Y-74426713D02*
X130923748Y-74514172D01*
X131036184Y-74648169D01*
X131107241Y-74843396D01*
X131109363Y-74867661D01*
X131073287Y-75072264D01*
X130985827Y-75223748D01*
X130851831Y-75336184D01*
X130656604Y-75407240D01*
X130567911Y-75415000D01*
X125264305Y-75415000D01*
X125027736Y-75373287D01*
X124876252Y-75285827D01*
X124763816Y-75151831D01*
X124692760Y-74956604D01*
X124688822Y-74911594D01*
X124733050Y-74708582D01*
X124826682Y-74560417D01*
X124965339Y-74453215D01*
X125163582Y-74389912D01*
X125267374Y-74385000D01*
X130535695Y-74385000D01*
X130772264Y-74426713D01*
X130772264Y-74426713D01*
G37*
X130772264Y-74426713D02*
X130923748Y-74514172D01*
X131036184Y-74648169D01*
X131107241Y-74843396D01*
X131109363Y-74867661D01*
X131073287Y-75072264D01*
X130985827Y-75223748D01*
X130851831Y-75336184D01*
X130656604Y-75407240D01*
X130567911Y-75415000D01*
X125264305Y-75415000D01*
X125027736Y-75373287D01*
X124876252Y-75285827D01*
X124763816Y-75151831D01*
X124692760Y-74956604D01*
X124688822Y-74911594D01*
X124733050Y-74708582D01*
X124826682Y-74560417D01*
X124965339Y-74453215D01*
X125163582Y-74389912D01*
X125267374Y-74385000D01*
X130535695Y-74385000D01*
X130772264Y-74426713D01*
G36*
X141672264Y-74426713D02*
X141823748Y-74514172D01*
X141936184Y-74648169D01*
X142007241Y-74843396D01*
X142009363Y-74867661D01*
X141973287Y-75072264D01*
X141885827Y-75223748D01*
X141751831Y-75336184D01*
X141556604Y-75407240D01*
X141467911Y-75415000D01*
X136164305Y-75415000D01*
X135927736Y-75373287D01*
X135776252Y-75285827D01*
X135663816Y-75151831D01*
X135592760Y-74956604D01*
X135588822Y-74911594D01*
X135633050Y-74708582D01*
X135726682Y-74560417D01*
X135865339Y-74453215D01*
X136063582Y-74389912D01*
X136167374Y-74385000D01*
X141435695Y-74385000D01*
X141672264Y-74426713D01*
X141672264Y-74426713D01*
G37*
X141672264Y-74426713D02*
X141823748Y-74514172D01*
X141936184Y-74648169D01*
X142007241Y-74843396D01*
X142009363Y-74867661D01*
X141973287Y-75072264D01*
X141885827Y-75223748D01*
X141751831Y-75336184D01*
X141556604Y-75407240D01*
X141467911Y-75415000D01*
X136164305Y-75415000D01*
X135927736Y-75373287D01*
X135776252Y-75285827D01*
X135663816Y-75151831D01*
X135592760Y-74956604D01*
X135588822Y-74911594D01*
X135633050Y-74708582D01*
X135726682Y-74560417D01*
X135865339Y-74453215D01*
X136063582Y-74389912D01*
X136167374Y-74385000D01*
X141435695Y-74385000D01*
X141672264Y-74426713D01*
G36*
X141672264Y-69926713D02*
X141823748Y-70014172D01*
X141936184Y-70148169D01*
X142007241Y-70343396D01*
X142009363Y-70367661D01*
X141973287Y-70572264D01*
X141885827Y-70723748D01*
X141751831Y-70836184D01*
X141556604Y-70907240D01*
X141467911Y-70915000D01*
X125264305Y-70915000D01*
X125027736Y-70873287D01*
X124876252Y-70785827D01*
X124763816Y-70651831D01*
X124692760Y-70456604D01*
X124688822Y-70411594D01*
X124733050Y-70208582D01*
X124826682Y-70060417D01*
X124965339Y-69953215D01*
X125163582Y-69889912D01*
X125267374Y-69885000D01*
X141435695Y-69885000D01*
X141672264Y-69926713D01*
X141672264Y-69926713D01*
G37*
X141672264Y-69926713D02*
X141823748Y-70014172D01*
X141936184Y-70148169D01*
X142007241Y-70343396D01*
X142009363Y-70367661D01*
X141973287Y-70572264D01*
X141885827Y-70723748D01*
X141751831Y-70836184D01*
X141556604Y-70907240D01*
X141467911Y-70915000D01*
X125264305Y-70915000D01*
X125027736Y-70873287D01*
X124876252Y-70785827D01*
X124763816Y-70651831D01*
X124692760Y-70456604D01*
X124688822Y-70411594D01*
X124733050Y-70208582D01*
X124826682Y-70060417D01*
X124965339Y-69953215D01*
X125163582Y-69889912D01*
X125267374Y-69885000D01*
X141435695Y-69885000D01*
X141672264Y-69926713D01*
G36*
X141672264Y-65476713D02*
X141823748Y-65564172D01*
X141936184Y-65698169D01*
X142007241Y-65893396D01*
X142009363Y-65917661D01*
X141973287Y-66122264D01*
X141885827Y-66273748D01*
X141751831Y-66386184D01*
X141556604Y-66457240D01*
X141467911Y-66465000D01*
X136214305Y-66465000D01*
X135977736Y-66423287D01*
X135826252Y-66335827D01*
X135713816Y-66201831D01*
X135642760Y-66006604D01*
X135638822Y-65961594D01*
X135683050Y-65758582D01*
X135776682Y-65610417D01*
X135915339Y-65503215D01*
X136113582Y-65439912D01*
X136217374Y-65435000D01*
X141435695Y-65435000D01*
X141672264Y-65476713D01*
X141672264Y-65476713D01*
G37*
X141672264Y-65476713D02*
X141823748Y-65564172D01*
X141936184Y-65698169D01*
X142007241Y-65893396D01*
X142009363Y-65917661D01*
X141973287Y-66122264D01*
X141885827Y-66273748D01*
X141751831Y-66386184D01*
X141556604Y-66457240D01*
X141467911Y-66465000D01*
X136214305Y-66465000D01*
X135977736Y-66423287D01*
X135826252Y-66335827D01*
X135713816Y-66201831D01*
X135642760Y-66006604D01*
X135638822Y-65961594D01*
X135683050Y-65758582D01*
X135776682Y-65610417D01*
X135915339Y-65503215D01*
X136113582Y-65439912D01*
X136217374Y-65435000D01*
X141435695Y-65435000D01*
X141672264Y-65476713D01*
G36*
X130772264Y-65476713D02*
X130923748Y-65564172D01*
X131036184Y-65698169D01*
X131107241Y-65893396D01*
X131109363Y-65917661D01*
X131073287Y-66122264D01*
X130985827Y-66273748D01*
X130851831Y-66386184D01*
X130656604Y-66457240D01*
X130567911Y-66465000D01*
X125264305Y-66465000D01*
X125027736Y-66423287D01*
X124876252Y-66335827D01*
X124763816Y-66201831D01*
X124692760Y-66006604D01*
X124688822Y-65961594D01*
X124733050Y-65758582D01*
X124826682Y-65610417D01*
X124965339Y-65503215D01*
X125163582Y-65439912D01*
X125267374Y-65435000D01*
X130535695Y-65435000D01*
X130772264Y-65476713D01*
X130772264Y-65476713D01*
G37*
X130772264Y-65476713D02*
X130923748Y-65564172D01*
X131036184Y-65698169D01*
X131107241Y-65893396D01*
X131109363Y-65917661D01*
X131073287Y-66122264D01*
X130985827Y-66273748D01*
X130851831Y-66386184D01*
X130656604Y-66457240D01*
X130567911Y-66465000D01*
X125264305Y-66465000D01*
X125027736Y-66423287D01*
X124876252Y-66335827D01*
X124763816Y-66201831D01*
X124692760Y-66006604D01*
X124688822Y-65961594D01*
X124733050Y-65758582D01*
X124826682Y-65610417D01*
X124965339Y-65503215D01*
X125163582Y-65439912D01*
X125267374Y-65435000D01*
X130535695Y-65435000D01*
X130772264Y-65476713D01*
G36*
X141672264Y-60976713D02*
X141823748Y-61064172D01*
X141936184Y-61198169D01*
X142007241Y-61393396D01*
X142009363Y-61417661D01*
X141973287Y-61622264D01*
X141885827Y-61773748D01*
X141751831Y-61886184D01*
X141556604Y-61957240D01*
X141467911Y-61965000D01*
X125264305Y-61965000D01*
X125027736Y-61923287D01*
X124876252Y-61835827D01*
X124763816Y-61701831D01*
X124692760Y-61506604D01*
X124688822Y-61461594D01*
X124733050Y-61258582D01*
X124826682Y-61110417D01*
X124965339Y-61003215D01*
X125163582Y-60939912D01*
X125267374Y-60935000D01*
X141435695Y-60935000D01*
X141672264Y-60976713D01*
X141672264Y-60976713D01*
G37*
X141672264Y-60976713D02*
X141823748Y-61064172D01*
X141936184Y-61198169D01*
X142007241Y-61393396D01*
X142009363Y-61417661D01*
X141973287Y-61622264D01*
X141885827Y-61773748D01*
X141751831Y-61886184D01*
X141556604Y-61957240D01*
X141467911Y-61965000D01*
X125264305Y-61965000D01*
X125027736Y-61923287D01*
X124876252Y-61835827D01*
X124763816Y-61701831D01*
X124692760Y-61506604D01*
X124688822Y-61461594D01*
X124733050Y-61258582D01*
X124826682Y-61110417D01*
X124965339Y-61003215D01*
X125163582Y-60939912D01*
X125267374Y-60935000D01*
X141435695Y-60935000D01*
X141672264Y-60976713D01*
G36*
X131022264Y-55976713D02*
X131173748Y-56064172D01*
X131286184Y-56198169D01*
X131357241Y-56393396D01*
X131359363Y-56417661D01*
X131323287Y-56622264D01*
X131235827Y-56773748D01*
X131101831Y-56886184D01*
X130906604Y-56957240D01*
X130817911Y-56965000D01*
X126314305Y-56965000D01*
X126077736Y-56923287D01*
X125926252Y-56835827D01*
X125813816Y-56701831D01*
X125742760Y-56506604D01*
X125738822Y-56461594D01*
X125783050Y-56258582D01*
X125876682Y-56110417D01*
X126015339Y-56003215D01*
X126213582Y-55939912D01*
X126317374Y-55935000D01*
X130785695Y-55935000D01*
X131022264Y-55976713D01*
X131022264Y-55976713D01*
G37*
X131022264Y-55976713D02*
X131173748Y-56064172D01*
X131286184Y-56198169D01*
X131357241Y-56393396D01*
X131359363Y-56417661D01*
X131323287Y-56622264D01*
X131235827Y-56773748D01*
X131101831Y-56886184D01*
X130906604Y-56957240D01*
X130817911Y-56965000D01*
X126314305Y-56965000D01*
X126077736Y-56923287D01*
X125926252Y-56835827D01*
X125813816Y-56701831D01*
X125742760Y-56506604D01*
X125738822Y-56461594D01*
X125783050Y-56258582D01*
X125876682Y-56110417D01*
X126015339Y-56003215D01*
X126213582Y-55939912D01*
X126317374Y-55935000D01*
X130785695Y-55935000D01*
X131022264Y-55976713D01*
G36*
X140272264Y-55976713D02*
X140423748Y-56064172D01*
X140536184Y-56198169D01*
X140607241Y-56393396D01*
X140609363Y-56417661D01*
X140573287Y-56622264D01*
X140485827Y-56773748D01*
X140351831Y-56886184D01*
X140156604Y-56957240D01*
X140067911Y-56965000D01*
X135914305Y-56965000D01*
X135677736Y-56923287D01*
X135526252Y-56835827D01*
X135413816Y-56701831D01*
X135342760Y-56506604D01*
X135338822Y-56461594D01*
X135383050Y-56258582D01*
X135476682Y-56110417D01*
X135615339Y-56003215D01*
X135813582Y-55939912D01*
X135917374Y-55935000D01*
X140035695Y-55935000D01*
X140272264Y-55976713D01*
X140272264Y-55976713D01*
G37*
X140272264Y-55976713D02*
X140423748Y-56064172D01*
X140536184Y-56198169D01*
X140607241Y-56393396D01*
X140609363Y-56417661D01*
X140573287Y-56622264D01*
X140485827Y-56773748D01*
X140351831Y-56886184D01*
X140156604Y-56957240D01*
X140067911Y-56965000D01*
X135914305Y-56965000D01*
X135677736Y-56923287D01*
X135526252Y-56835827D01*
X135413816Y-56701831D01*
X135342760Y-56506604D01*
X135338822Y-56461594D01*
X135383050Y-56258582D01*
X135476682Y-56110417D01*
X135615339Y-56003215D01*
X135813582Y-55939912D01*
X135917374Y-55935000D01*
X140035695Y-55935000D01*
X140272264Y-55976713D01*
G36*
X135688498Y-52207057D02*
X135721136Y-52228864D01*
X135742943Y-52261501D01*
X135755574Y-52325000D01*
X135742943Y-52388499D01*
X135721136Y-52421136D01*
X135688498Y-52442943D01*
X135577611Y-52465000D01*
X131122389Y-52465000D01*
X131011501Y-52442943D01*
X130978864Y-52421136D01*
X130957057Y-52388498D01*
X130944426Y-52325000D01*
X130957057Y-52261502D01*
X130978864Y-52228864D01*
X131011501Y-52207057D01*
X131122389Y-52185000D01*
X135577611Y-52185000D01*
X135688498Y-52207057D01*
X135688498Y-52207057D01*
G37*
X135688498Y-52207057D02*
X135721136Y-52228864D01*
X135742943Y-52261501D01*
X135755574Y-52325000D01*
X135742943Y-52388499D01*
X135721136Y-52421136D01*
X135688498Y-52442943D01*
X135577611Y-52465000D01*
X131122389Y-52465000D01*
X131011501Y-52442943D01*
X130978864Y-52421136D01*
X130957057Y-52388498D01*
X130944426Y-52325000D01*
X130957057Y-52261502D01*
X130978864Y-52228864D01*
X131011501Y-52207057D01*
X131122389Y-52185000D01*
X135577611Y-52185000D01*
X135688498Y-52207057D01*
G36*
X141532053Y-52038028D02*
X141650156Y-52127836D01*
X141728009Y-52254138D01*
X141755175Y-52400000D01*
X141755071Y-52409192D01*
X141724603Y-52554400D01*
X141643904Y-52678904D01*
X141523794Y-52766009D01*
X141380380Y-52804034D01*
X141232892Y-52787882D01*
X141101107Y-52719717D01*
X141002697Y-52608681D01*
X140950858Y-52469661D01*
X140952541Y-52321301D01*
X141007521Y-52183494D01*
X141108425Y-52074718D01*
X141241722Y-52009561D01*
X141389538Y-51996759D01*
X141532053Y-52038028D01*
X141532053Y-52038028D01*
G37*
X141532053Y-52038028D02*
X141650156Y-52127836D01*
X141728009Y-52254138D01*
X141755175Y-52400000D01*
X141755071Y-52409192D01*
X141724603Y-52554400D01*
X141643904Y-52678904D01*
X141523794Y-52766009D01*
X141380380Y-52804034D01*
X141232892Y-52787882D01*
X141101107Y-52719717D01*
X141002697Y-52608681D01*
X140950858Y-52469661D01*
X140952541Y-52321301D01*
X141007521Y-52183494D01*
X141108425Y-52074718D01*
X141241722Y-52009561D01*
X141389538Y-51996759D01*
X141532053Y-52038028D01*
G36*
X125462724Y-51927859D02*
X125558287Y-51991713D01*
X125622141Y-52087276D01*
X125644563Y-52200000D01*
X125622141Y-52312724D01*
X125558287Y-52408287D01*
X125462724Y-52472141D01*
X125350000Y-52494563D01*
X125237276Y-52472141D01*
X125141713Y-52408287D01*
X125077859Y-52312724D01*
X125055437Y-52200000D01*
X125077859Y-52087276D01*
X125141713Y-51991713D01*
X125237276Y-51927859D01*
X125350000Y-51905437D01*
X125462724Y-51927859D01*
X125462724Y-51927859D01*
G37*
X125462724Y-51927859D02*
X125558287Y-51991713D01*
X125622141Y-52087276D01*
X125644563Y-52200000D01*
X125622141Y-52312724D01*
X125558287Y-52408287D01*
X125462724Y-52472141D01*
X125350000Y-52494563D01*
X125237276Y-52472141D01*
X125141713Y-52408287D01*
X125077859Y-52312724D01*
X125055437Y-52200000D01*
X125077859Y-52087276D01*
X125141713Y-51991713D01*
X125237276Y-51927859D01*
X125350000Y-51905437D01*
X125462724Y-51927859D01*
M02*
