G04 #@! TF.GenerationSoftware,KiCad,Pcbnew,5.1.5-52549c5~84~ubuntu18.04.1*
G04 #@! TF.CreationDate,2020-01-25T12:19:37+01:00*
G04 #@! TF.ProjectId,Nokolino_top,4e6f6b6f-6c69-46e6-9f5f-746f702e6b69,rev?*
G04 #@! TF.SameCoordinates,Original*
G04 #@! TF.FileFunction,Copper,L2,Bot*
G04 #@! TF.FilePolarity,Positive*
%FSLAX46Y46*%
G04 Gerber Fmt 4.6, Leading zero omitted, Abs format (unit mm)*
G04 Created by KiCad (PCBNEW 5.1.5-52549c5~84~ubuntu18.04.1) date 2020-01-25 12:19:37*
%MOMM*%
%LPD*%
G04 APERTURE LIST*
%ADD10C,2.499360*%
%ADD11C,0.254000*%
G04 APERTURE END LIST*
D10*
X104750000Y-53750000D03*
X104750000Y-106250000D03*
X145250000Y-106250000D03*
X145250000Y-53750000D03*
D11*
G36*
X124217885Y-50820514D02*
G01*
X123970514Y-51067885D01*
X123776156Y-51358763D01*
X123642280Y-51681969D01*
X123574030Y-52025082D01*
X123574030Y-52374918D01*
X123642280Y-52718031D01*
X123776156Y-53041237D01*
X123970514Y-53332115D01*
X124217885Y-53579486D01*
X124508763Y-53773844D01*
X124831969Y-53907720D01*
X125175082Y-53975970D01*
X125524918Y-53975970D01*
X125868031Y-53907720D01*
X126191237Y-53773844D01*
X126482115Y-53579486D01*
X126729486Y-53332115D01*
X126923844Y-53041237D01*
X127057720Y-52718031D01*
X127125970Y-52374918D01*
X127125970Y-52352601D01*
X129465005Y-52352601D01*
X129465026Y-52358535D01*
X129468270Y-52390458D01*
X129468046Y-52422548D01*
X129469047Y-52432761D01*
X129486387Y-52597743D01*
X129499785Y-52663013D01*
X129512265Y-52728436D01*
X129515231Y-52738260D01*
X129564286Y-52896732D01*
X129590114Y-52958174D01*
X129615057Y-53019911D01*
X129619874Y-53028972D01*
X129698776Y-53174898D01*
X129736054Y-53230164D01*
X129772506Y-53285868D01*
X129778991Y-53293821D01*
X129884734Y-53421642D01*
X129932024Y-53468603D01*
X129978612Y-53516177D01*
X129986519Y-53522719D01*
X130115075Y-53627567D01*
X130170617Y-53664469D01*
X130225529Y-53702068D01*
X130234556Y-53706950D01*
X130381029Y-53784831D01*
X130442642Y-53810226D01*
X130503848Y-53836459D01*
X130513651Y-53839494D01*
X130672462Y-53887442D01*
X130737858Y-53900391D01*
X130802972Y-53914231D01*
X130813174Y-53915304D01*
X130813178Y-53915304D01*
X130978277Y-53931492D01*
X131013895Y-53935000D01*
X135686105Y-53935000D01*
X135717397Y-53931918D01*
X135722548Y-53931954D01*
X135732761Y-53930953D01*
X135897743Y-53913613D01*
X135963013Y-53900215D01*
X136028436Y-53887735D01*
X136038260Y-53884769D01*
X136196732Y-53835714D01*
X136258174Y-53809886D01*
X136319911Y-53784943D01*
X136328972Y-53780126D01*
X136474898Y-53701224D01*
X136530164Y-53663946D01*
X136585868Y-53627494D01*
X136593821Y-53621009D01*
X136721642Y-53515266D01*
X136768603Y-53467976D01*
X136816177Y-53421388D01*
X136822719Y-53413481D01*
X136927567Y-53284925D01*
X136964469Y-53229383D01*
X137002068Y-53174471D01*
X137006950Y-53165444D01*
X137084831Y-53018971D01*
X137110226Y-52957358D01*
X137136459Y-52896152D01*
X137139494Y-52886349D01*
X137187442Y-52727538D01*
X137200391Y-52662142D01*
X137214231Y-52597028D01*
X137215304Y-52586822D01*
X137231492Y-52421723D01*
X137231492Y-52339597D01*
X137234960Y-52307661D01*
X137234995Y-52297399D01*
X137234974Y-52291465D01*
X137231730Y-52259542D01*
X137231954Y-52227452D01*
X137230953Y-52217239D01*
X137213613Y-52052257D01*
X137200215Y-51986987D01*
X137187735Y-51921564D01*
X137184769Y-51911740D01*
X137135714Y-51753268D01*
X137109886Y-51691826D01*
X137084943Y-51630089D01*
X137080125Y-51621028D01*
X137001224Y-51475102D01*
X136963936Y-51419820D01*
X136927494Y-51364132D01*
X136921009Y-51356179D01*
X136815266Y-51228358D01*
X136767976Y-51181397D01*
X136721388Y-51133823D01*
X136713487Y-51127287D01*
X136713480Y-51127280D01*
X136713472Y-51127275D01*
X136584925Y-51022433D01*
X136529368Y-50985521D01*
X136474471Y-50947932D01*
X136465444Y-50943050D01*
X136318971Y-50865169D01*
X136257358Y-50839774D01*
X136196152Y-50813541D01*
X136186349Y-50810506D01*
X136027538Y-50762558D01*
X135962155Y-50749612D01*
X135897028Y-50735769D01*
X135886824Y-50734696D01*
X135886822Y-50734696D01*
X135721723Y-50718508D01*
X135686105Y-50715000D01*
X131013895Y-50715000D01*
X130982603Y-50718082D01*
X130977452Y-50718046D01*
X130967239Y-50719047D01*
X130802257Y-50736387D01*
X130736987Y-50749785D01*
X130671564Y-50762265D01*
X130661740Y-50765231D01*
X130503268Y-50814286D01*
X130441826Y-50840114D01*
X130380089Y-50865057D01*
X130371033Y-50869872D01*
X130371029Y-50869874D01*
X130371028Y-50869875D01*
X130225102Y-50948776D01*
X130169820Y-50986064D01*
X130114132Y-51022506D01*
X130106179Y-51028991D01*
X129978358Y-51134734D01*
X129931397Y-51182024D01*
X129883823Y-51228612D01*
X129877287Y-51236513D01*
X129877280Y-51236520D01*
X129877275Y-51236528D01*
X129772433Y-51365075D01*
X129735521Y-51420632D01*
X129697932Y-51475529D01*
X129693050Y-51484556D01*
X129615169Y-51631029D01*
X129589774Y-51692642D01*
X129563541Y-51753848D01*
X129560506Y-51763651D01*
X129512558Y-51922462D01*
X129499612Y-51987845D01*
X129485769Y-52052972D01*
X129484696Y-52063178D01*
X129468508Y-52228277D01*
X129468508Y-52310403D01*
X129465040Y-52342339D01*
X129465005Y-52352601D01*
X127125970Y-52352601D01*
X127125970Y-52025082D01*
X127057720Y-51681969D01*
X126923844Y-51358763D01*
X126729486Y-51067885D01*
X126482115Y-50820514D01*
X126316719Y-50710000D01*
X140501538Y-50710000D01*
X140456621Y-50728605D01*
X140147714Y-50935010D01*
X139885010Y-51197714D01*
X139678605Y-51506621D01*
X139536431Y-51849860D01*
X139463951Y-52214240D01*
X139463951Y-52585760D01*
X139536431Y-52950140D01*
X139678605Y-53293379D01*
X139885010Y-53602286D01*
X140147714Y-53864990D01*
X140456621Y-54071395D01*
X140799860Y-54213569D01*
X141164240Y-54286049D01*
X141535760Y-54286049D01*
X141900140Y-54213569D01*
X142243379Y-54071395D01*
X142552286Y-53864990D01*
X142814990Y-53602286D01*
X142840321Y-53564375D01*
X143365320Y-53564375D01*
X143365320Y-53935625D01*
X143437747Y-54299741D01*
X143579818Y-54642731D01*
X143786074Y-54951413D01*
X144048587Y-55213926D01*
X144357269Y-55420182D01*
X144700259Y-55562253D01*
X145064375Y-55634680D01*
X145435625Y-55634680D01*
X145799741Y-55562253D01*
X146142731Y-55420182D01*
X146451413Y-55213926D01*
X146713926Y-54951413D01*
X146920182Y-54642731D01*
X147062253Y-54299741D01*
X147134680Y-53935625D01*
X147134680Y-53564375D01*
X147062253Y-53200259D01*
X146920182Y-52857269D01*
X146713926Y-52548587D01*
X146451413Y-52286074D01*
X146142731Y-52079818D01*
X145799741Y-51937747D01*
X145435625Y-51865320D01*
X145064375Y-51865320D01*
X144700259Y-51937747D01*
X144357269Y-52079818D01*
X144048587Y-52286074D01*
X143786074Y-52548587D01*
X143579818Y-52857269D01*
X143437747Y-53200259D01*
X143365320Y-53564375D01*
X142840321Y-53564375D01*
X143021395Y-53293379D01*
X143163569Y-52950140D01*
X143236049Y-52585760D01*
X143236049Y-52214240D01*
X143163569Y-51849860D01*
X143021395Y-51506621D01*
X142814990Y-51197714D01*
X142552286Y-50935010D01*
X142243379Y-50728605D01*
X142198462Y-50710000D01*
X149290001Y-50710000D01*
X149290000Y-109290000D01*
X100710000Y-109290000D01*
X100710000Y-106064375D01*
X102865320Y-106064375D01*
X102865320Y-106435625D01*
X102937747Y-106799741D01*
X103079818Y-107142731D01*
X103286074Y-107451413D01*
X103548587Y-107713926D01*
X103857269Y-107920182D01*
X104200259Y-108062253D01*
X104564375Y-108134680D01*
X104935625Y-108134680D01*
X105299741Y-108062253D01*
X105642731Y-107920182D01*
X105951413Y-107713926D01*
X106213926Y-107451413D01*
X106420182Y-107142731D01*
X106562253Y-106799741D01*
X106634680Y-106435625D01*
X106634680Y-106064375D01*
X143365320Y-106064375D01*
X143365320Y-106435625D01*
X143437747Y-106799741D01*
X143579818Y-107142731D01*
X143786074Y-107451413D01*
X144048587Y-107713926D01*
X144357269Y-107920182D01*
X144700259Y-108062253D01*
X145064375Y-108134680D01*
X145435625Y-108134680D01*
X145799741Y-108062253D01*
X146142731Y-107920182D01*
X146451413Y-107713926D01*
X146713926Y-107451413D01*
X146920182Y-107142731D01*
X147062253Y-106799741D01*
X147134680Y-106435625D01*
X147134680Y-106064375D01*
X147062253Y-105700259D01*
X146920182Y-105357269D01*
X146713926Y-105048587D01*
X146451413Y-104786074D01*
X146142731Y-104579818D01*
X145799741Y-104437747D01*
X145435625Y-104365320D01*
X145064375Y-104365320D01*
X144700259Y-104437747D01*
X144357269Y-104579818D01*
X144048587Y-104786074D01*
X143786074Y-105048587D01*
X143579818Y-105357269D01*
X143437747Y-105700259D01*
X143365320Y-106064375D01*
X106634680Y-106064375D01*
X106562253Y-105700259D01*
X106420182Y-105357269D01*
X106213926Y-105048587D01*
X105951413Y-104786074D01*
X105642731Y-104579818D01*
X105299741Y-104437747D01*
X104935625Y-104365320D01*
X104564375Y-104365320D01*
X104200259Y-104437747D01*
X103857269Y-104579818D01*
X103548587Y-104786074D01*
X103286074Y-105048587D01*
X103079818Y-105357269D01*
X102937747Y-105700259D01*
X102865320Y-106064375D01*
X100710000Y-106064375D01*
X100710000Y-88214240D01*
X123463951Y-88214240D01*
X123463951Y-88585760D01*
X123536431Y-88950140D01*
X123678605Y-89293379D01*
X123885010Y-89602286D01*
X124147714Y-89864990D01*
X124456621Y-90071395D01*
X124799860Y-90213569D01*
X125164240Y-90286049D01*
X125535760Y-90286049D01*
X125900140Y-90213569D01*
X126243379Y-90071395D01*
X126552286Y-89864990D01*
X126814990Y-89602286D01*
X127021395Y-89293379D01*
X127163569Y-88950140D01*
X127236049Y-88585760D01*
X127236049Y-88552601D01*
X129465005Y-88552601D01*
X129465026Y-88558535D01*
X129468270Y-88590458D01*
X129468046Y-88622548D01*
X129469047Y-88632761D01*
X129486387Y-88797743D01*
X129499785Y-88863013D01*
X129512265Y-88928436D01*
X129515231Y-88938260D01*
X129564286Y-89096732D01*
X129590114Y-89158174D01*
X129615057Y-89219911D01*
X129619874Y-89228972D01*
X129698776Y-89374898D01*
X129736054Y-89430164D01*
X129772506Y-89485868D01*
X129778991Y-89493821D01*
X129884734Y-89621642D01*
X129932024Y-89668603D01*
X129978612Y-89716177D01*
X129986519Y-89722719D01*
X130115075Y-89827567D01*
X130170617Y-89864469D01*
X130225529Y-89902068D01*
X130234556Y-89906950D01*
X130381029Y-89984831D01*
X130442642Y-90010226D01*
X130503848Y-90036459D01*
X130513651Y-90039494D01*
X130672462Y-90087442D01*
X130737858Y-90100391D01*
X130802972Y-90114231D01*
X130813174Y-90115304D01*
X130813178Y-90115304D01*
X130978277Y-90131492D01*
X131013895Y-90135000D01*
X135686105Y-90135000D01*
X135717397Y-90131918D01*
X135722548Y-90131954D01*
X135732761Y-90130953D01*
X135897743Y-90113613D01*
X135963013Y-90100215D01*
X136028436Y-90087735D01*
X136038260Y-90084769D01*
X136196732Y-90035714D01*
X136258174Y-90009886D01*
X136319911Y-89984943D01*
X136328972Y-89980126D01*
X136474898Y-89901224D01*
X136530164Y-89863946D01*
X136585868Y-89827494D01*
X136593821Y-89821009D01*
X136721642Y-89715266D01*
X136768603Y-89667976D01*
X136816177Y-89621388D01*
X136822719Y-89613481D01*
X136927567Y-89484925D01*
X136964469Y-89429383D01*
X137002068Y-89374471D01*
X137006950Y-89365444D01*
X137084831Y-89218971D01*
X137110226Y-89157358D01*
X137136459Y-89096152D01*
X137139494Y-89086349D01*
X137187442Y-88927538D01*
X137200391Y-88862142D01*
X137214231Y-88797028D01*
X137215304Y-88786822D01*
X137231492Y-88621723D01*
X137231492Y-88539597D01*
X137234960Y-88507661D01*
X137234995Y-88497399D01*
X137234974Y-88491465D01*
X137231730Y-88459542D01*
X137231954Y-88427452D01*
X137230953Y-88417239D01*
X137213613Y-88252257D01*
X137206255Y-88216411D01*
X139485985Y-88216411D01*
X139485985Y-88583589D01*
X139557618Y-88943713D01*
X139698131Y-89282942D01*
X139902125Y-89588240D01*
X140161760Y-89847875D01*
X140467058Y-90051869D01*
X140806287Y-90192382D01*
X141166411Y-90264015D01*
X141533589Y-90264015D01*
X141893713Y-90192382D01*
X142232942Y-90051869D01*
X142538240Y-89847875D01*
X142797875Y-89588240D01*
X143001869Y-89282942D01*
X143142382Y-88943713D01*
X143214015Y-88583589D01*
X143214015Y-88216411D01*
X143142382Y-87856287D01*
X143001869Y-87517058D01*
X142797875Y-87211760D01*
X142538240Y-86952125D01*
X142232942Y-86748131D01*
X141893713Y-86607618D01*
X141533589Y-86535985D01*
X141166411Y-86535985D01*
X140806287Y-86607618D01*
X140467058Y-86748131D01*
X140161760Y-86952125D01*
X139902125Y-87211760D01*
X139698131Y-87517058D01*
X139557618Y-87856287D01*
X139485985Y-88216411D01*
X137206255Y-88216411D01*
X137200215Y-88186987D01*
X137187735Y-88121564D01*
X137184769Y-88111740D01*
X137135714Y-87953268D01*
X137109886Y-87891826D01*
X137084943Y-87830089D01*
X137080125Y-87821028D01*
X137001224Y-87675102D01*
X136963936Y-87619820D01*
X136927494Y-87564132D01*
X136921009Y-87556179D01*
X136815266Y-87428358D01*
X136767976Y-87381397D01*
X136721388Y-87333823D01*
X136713487Y-87327287D01*
X136713480Y-87327280D01*
X136713472Y-87327275D01*
X136584925Y-87222433D01*
X136529368Y-87185521D01*
X136474471Y-87147932D01*
X136465444Y-87143050D01*
X136318971Y-87065169D01*
X136257358Y-87039774D01*
X136196152Y-87013541D01*
X136186349Y-87010506D01*
X136027538Y-86962558D01*
X135962155Y-86949612D01*
X135897028Y-86935769D01*
X135886824Y-86934696D01*
X135886822Y-86934696D01*
X135721723Y-86918508D01*
X135686105Y-86915000D01*
X131013895Y-86915000D01*
X130982603Y-86918082D01*
X130977452Y-86918046D01*
X130967239Y-86919047D01*
X130802257Y-86936387D01*
X130736987Y-86949785D01*
X130671564Y-86962265D01*
X130661740Y-86965231D01*
X130503268Y-87014286D01*
X130441826Y-87040114D01*
X130380089Y-87065057D01*
X130371033Y-87069872D01*
X130371029Y-87069874D01*
X130371028Y-87069875D01*
X130225102Y-87148776D01*
X130169820Y-87186064D01*
X130114132Y-87222506D01*
X130106179Y-87228991D01*
X129978358Y-87334734D01*
X129931397Y-87382024D01*
X129883823Y-87428612D01*
X129877287Y-87436513D01*
X129877280Y-87436520D01*
X129877275Y-87436528D01*
X129772433Y-87565075D01*
X129735521Y-87620632D01*
X129697932Y-87675529D01*
X129693050Y-87684556D01*
X129615169Y-87831029D01*
X129589774Y-87892642D01*
X129563541Y-87953848D01*
X129560506Y-87963651D01*
X129512558Y-88122462D01*
X129499612Y-88187845D01*
X129485769Y-88252972D01*
X129484696Y-88263178D01*
X129468508Y-88428277D01*
X129468508Y-88510403D01*
X129465040Y-88542339D01*
X129465005Y-88552601D01*
X127236049Y-88552601D01*
X127236049Y-88214240D01*
X127163569Y-87849860D01*
X127021395Y-87506621D01*
X126814990Y-87197714D01*
X126552286Y-86935010D01*
X126243379Y-86728605D01*
X125900140Y-86586431D01*
X125535760Y-86513951D01*
X125164240Y-86513951D01*
X124799860Y-86586431D01*
X124456621Y-86728605D01*
X124147714Y-86935010D01*
X123885010Y-87197714D01*
X123678605Y-87506621D01*
X123536431Y-87849860D01*
X123463951Y-88214240D01*
X100710000Y-88214240D01*
X100710000Y-84402527D01*
X124215004Y-84402527D01*
X124215034Y-84411254D01*
X124218280Y-84443227D01*
X124218056Y-84475344D01*
X124219057Y-84485557D01*
X124244558Y-84728177D01*
X124257954Y-84793435D01*
X124270436Y-84858868D01*
X124273401Y-84868692D01*
X124345541Y-85101739D01*
X124371385Y-85163219D01*
X124396312Y-85224916D01*
X124401129Y-85233977D01*
X124517161Y-85448575D01*
X124554431Y-85503830D01*
X124590890Y-85559545D01*
X124597376Y-85567498D01*
X124752880Y-85755470D01*
X124800186Y-85802447D01*
X124846758Y-85850005D01*
X124854665Y-85856547D01*
X125043719Y-86010736D01*
X125099242Y-86047626D01*
X125154172Y-86085237D01*
X125163194Y-86090115D01*
X125163198Y-86090118D01*
X125163202Y-86090120D01*
X125378600Y-86204649D01*
X125440218Y-86230046D01*
X125501422Y-86256278D01*
X125511217Y-86259311D01*
X125511223Y-86259313D01*
X125511229Y-86259314D01*
X125744770Y-86329824D01*
X125810130Y-86342766D01*
X125875278Y-86356613D01*
X125885484Y-86357686D01*
X126128276Y-86381492D01*
X126128277Y-86381492D01*
X126163895Y-86385000D01*
X130886105Y-86385000D01*
X130917677Y-86381890D01*
X130925344Y-86381944D01*
X130935557Y-86380943D01*
X131178177Y-86355442D01*
X131243435Y-86342046D01*
X131308868Y-86329564D01*
X131318692Y-86326599D01*
X131551739Y-86254459D01*
X131613219Y-86228615D01*
X131674916Y-86203688D01*
X131683977Y-86198871D01*
X131898575Y-86082839D01*
X131953830Y-86045569D01*
X132009545Y-86009110D01*
X132017498Y-86002624D01*
X132205470Y-85847120D01*
X132252447Y-85799814D01*
X132300005Y-85753242D01*
X132306547Y-85745335D01*
X132460736Y-85556281D01*
X132497626Y-85500758D01*
X132535237Y-85445828D01*
X132540115Y-85436806D01*
X132540118Y-85436802D01*
X132540120Y-85436798D01*
X132654649Y-85221400D01*
X132680046Y-85159782D01*
X132706278Y-85098578D01*
X132709311Y-85088783D01*
X132709313Y-85088777D01*
X132709314Y-85088771D01*
X132779824Y-84855230D01*
X132792766Y-84789870D01*
X132806613Y-84724722D01*
X132807686Y-84714516D01*
X132831492Y-84471724D01*
X132831492Y-84439634D01*
X132834959Y-84407736D01*
X132834977Y-84402527D01*
X133865004Y-84402527D01*
X133865034Y-84411254D01*
X133868280Y-84443227D01*
X133868056Y-84475344D01*
X133869057Y-84485557D01*
X133894558Y-84728177D01*
X133907954Y-84793435D01*
X133920436Y-84858868D01*
X133923401Y-84868692D01*
X133995541Y-85101739D01*
X134021385Y-85163219D01*
X134046312Y-85224916D01*
X134051129Y-85233977D01*
X134167161Y-85448575D01*
X134204431Y-85503830D01*
X134240890Y-85559545D01*
X134247376Y-85567498D01*
X134402880Y-85755470D01*
X134450186Y-85802447D01*
X134496758Y-85850005D01*
X134504665Y-85856547D01*
X134693719Y-86010736D01*
X134749242Y-86047626D01*
X134804172Y-86085237D01*
X134813194Y-86090115D01*
X134813198Y-86090118D01*
X134813202Y-86090120D01*
X135028600Y-86204649D01*
X135090218Y-86230046D01*
X135151422Y-86256278D01*
X135161217Y-86259311D01*
X135161223Y-86259313D01*
X135161229Y-86259314D01*
X135394770Y-86329824D01*
X135460130Y-86342766D01*
X135525278Y-86356613D01*
X135535484Y-86357686D01*
X135632190Y-86367168D01*
X135655915Y-86374365D01*
X135763895Y-86385000D01*
X140486105Y-86385000D01*
X140594085Y-86374365D01*
X140618445Y-86366976D01*
X140728177Y-86355442D01*
X140793435Y-86342046D01*
X140858868Y-86329564D01*
X140868692Y-86326599D01*
X141101739Y-86254459D01*
X141163219Y-86228615D01*
X141224916Y-86203688D01*
X141233977Y-86198871D01*
X141448575Y-86082839D01*
X141503830Y-86045569D01*
X141559545Y-86009110D01*
X141567498Y-86002624D01*
X141755470Y-85847120D01*
X141802447Y-85799814D01*
X141850005Y-85753242D01*
X141856547Y-85745335D01*
X142010736Y-85556281D01*
X142047626Y-85500758D01*
X142085237Y-85445828D01*
X142090115Y-85436806D01*
X142090118Y-85436802D01*
X142090120Y-85436798D01*
X142204649Y-85221400D01*
X142230046Y-85159782D01*
X142256278Y-85098578D01*
X142259311Y-85088783D01*
X142259313Y-85088777D01*
X142259314Y-85088771D01*
X142329824Y-84855230D01*
X142342766Y-84789870D01*
X142356613Y-84724722D01*
X142357686Y-84714516D01*
X142381492Y-84471724D01*
X142381492Y-84439634D01*
X142384959Y-84407736D01*
X142384996Y-84397473D01*
X142384966Y-84388746D01*
X142381720Y-84356773D01*
X142381944Y-84324656D01*
X142380943Y-84314442D01*
X142355442Y-84071823D01*
X142342045Y-84006558D01*
X142329564Y-83941132D01*
X142326599Y-83931308D01*
X142254459Y-83698261D01*
X142228641Y-83636842D01*
X142203689Y-83575084D01*
X142198871Y-83566023D01*
X142082839Y-83351426D01*
X142045565Y-83296165D01*
X142009110Y-83240455D01*
X142002624Y-83232502D01*
X141847120Y-83044530D01*
X141799814Y-82997553D01*
X141753242Y-82949995D01*
X141745335Y-82943453D01*
X141556281Y-82789264D01*
X141500773Y-82752385D01*
X141445828Y-82714763D01*
X141436801Y-82709882D01*
X141221400Y-82595351D01*
X141159810Y-82569966D01*
X141098578Y-82543722D01*
X141088775Y-82540687D01*
X140855230Y-82470176D01*
X140789863Y-82457233D01*
X140724722Y-82443387D01*
X140714516Y-82442314D01*
X140617810Y-82432832D01*
X140594085Y-82425635D01*
X140486105Y-82415000D01*
X135813895Y-82415000D01*
X135720167Y-82424231D01*
X135600079Y-82432017D01*
X135534306Y-82442799D01*
X135468458Y-82452651D01*
X135458523Y-82455221D01*
X135222590Y-82518040D01*
X135160203Y-82541377D01*
X135097482Y-82563846D01*
X135088236Y-82568298D01*
X134868998Y-82675746D01*
X134812293Y-82710781D01*
X134755169Y-82744981D01*
X134746963Y-82751144D01*
X134552770Y-82899129D01*
X134503963Y-82944499D01*
X134454557Y-82989155D01*
X134447705Y-82996794D01*
X134285955Y-83179680D01*
X134246874Y-83233687D01*
X134207100Y-83287066D01*
X134201862Y-83295891D01*
X134078715Y-83506711D01*
X134050873Y-83567269D01*
X134022219Y-83627369D01*
X134018794Y-83637043D01*
X133938941Y-83867768D01*
X133923392Y-83932579D01*
X133906957Y-83997101D01*
X133905477Y-84007256D01*
X133871959Y-84249097D01*
X133866926Y-84374917D01*
X133865041Y-84392264D01*
X133865004Y-84402527D01*
X132834977Y-84402527D01*
X132834996Y-84397473D01*
X132834966Y-84388746D01*
X132831720Y-84356773D01*
X132831944Y-84324656D01*
X132830943Y-84314442D01*
X132805442Y-84071823D01*
X132792045Y-84006558D01*
X132779564Y-83941132D01*
X132776599Y-83931308D01*
X132704459Y-83698261D01*
X132678641Y-83636842D01*
X132653689Y-83575084D01*
X132648871Y-83566023D01*
X132532839Y-83351426D01*
X132495565Y-83296165D01*
X132459110Y-83240455D01*
X132452624Y-83232502D01*
X132297120Y-83044530D01*
X132249814Y-82997553D01*
X132203242Y-82949995D01*
X132195335Y-82943453D01*
X132006281Y-82789264D01*
X131950773Y-82752385D01*
X131895828Y-82714763D01*
X131886801Y-82709882D01*
X131671400Y-82595351D01*
X131609810Y-82569966D01*
X131548578Y-82543722D01*
X131538775Y-82540687D01*
X131305230Y-82470176D01*
X131239863Y-82457233D01*
X131174722Y-82443387D01*
X131164516Y-82442314D01*
X130921723Y-82418508D01*
X130886105Y-82415000D01*
X126213895Y-82415000D01*
X126206364Y-82415742D01*
X126203965Y-82415629D01*
X126193720Y-82416221D01*
X125950079Y-82432017D01*
X125884306Y-82442799D01*
X125818458Y-82452651D01*
X125808523Y-82455221D01*
X125572590Y-82518040D01*
X125510203Y-82541377D01*
X125447482Y-82563846D01*
X125438236Y-82568298D01*
X125218998Y-82675746D01*
X125162293Y-82710781D01*
X125105169Y-82744981D01*
X125096963Y-82751144D01*
X124902770Y-82899129D01*
X124853963Y-82944499D01*
X124804557Y-82989155D01*
X124797705Y-82996794D01*
X124635955Y-83179680D01*
X124596874Y-83233687D01*
X124557100Y-83287066D01*
X124551862Y-83295891D01*
X124428715Y-83506711D01*
X124400873Y-83567269D01*
X124372219Y-83627369D01*
X124368794Y-83637043D01*
X124288941Y-83867768D01*
X124273392Y-83932579D01*
X124256957Y-83997101D01*
X124255477Y-84007256D01*
X124221959Y-84249097D01*
X124216926Y-84374917D01*
X124215041Y-84392264D01*
X124215004Y-84402527D01*
X100710000Y-84402527D01*
X100710000Y-79402527D01*
X123215004Y-79402527D01*
X123215034Y-79411254D01*
X123218280Y-79443227D01*
X123218056Y-79475344D01*
X123219057Y-79485557D01*
X123244558Y-79728177D01*
X123257954Y-79793435D01*
X123270436Y-79858868D01*
X123273401Y-79868692D01*
X123345541Y-80101739D01*
X123371385Y-80163219D01*
X123396312Y-80224916D01*
X123401129Y-80233977D01*
X123517161Y-80448575D01*
X123554431Y-80503830D01*
X123590890Y-80559545D01*
X123597376Y-80567498D01*
X123752880Y-80755470D01*
X123800186Y-80802447D01*
X123846758Y-80850005D01*
X123854665Y-80856547D01*
X124043719Y-81010736D01*
X124099242Y-81047626D01*
X124154172Y-81085237D01*
X124163194Y-81090115D01*
X124163198Y-81090118D01*
X124163202Y-81090120D01*
X124378600Y-81204649D01*
X124440218Y-81230046D01*
X124501422Y-81256278D01*
X124511217Y-81259311D01*
X124511223Y-81259313D01*
X124511229Y-81259314D01*
X124744770Y-81329824D01*
X124810130Y-81342766D01*
X124875278Y-81356613D01*
X124885484Y-81357686D01*
X125128276Y-81381492D01*
X125128277Y-81381492D01*
X125163895Y-81385000D01*
X141536105Y-81385000D01*
X141567677Y-81381890D01*
X141575344Y-81381944D01*
X141585557Y-81380943D01*
X141828177Y-81355442D01*
X141893435Y-81342046D01*
X141958868Y-81329564D01*
X141968692Y-81326599D01*
X142201739Y-81254459D01*
X142263219Y-81228615D01*
X142324916Y-81203688D01*
X142333977Y-81198871D01*
X142548575Y-81082839D01*
X142603830Y-81045569D01*
X142659545Y-81009110D01*
X142667498Y-81002624D01*
X142855470Y-80847120D01*
X142902447Y-80799814D01*
X142950005Y-80753242D01*
X142956547Y-80745335D01*
X143110736Y-80556281D01*
X143147626Y-80500758D01*
X143185237Y-80445828D01*
X143190115Y-80436806D01*
X143190118Y-80436802D01*
X143190120Y-80436798D01*
X143304649Y-80221400D01*
X143330046Y-80159782D01*
X143356278Y-80098578D01*
X143359311Y-80088783D01*
X143359313Y-80088777D01*
X143359314Y-80088771D01*
X143429824Y-79855230D01*
X143442766Y-79789870D01*
X143456613Y-79724722D01*
X143457686Y-79714516D01*
X143481492Y-79471724D01*
X143481492Y-79439634D01*
X143484959Y-79407736D01*
X143484996Y-79397473D01*
X143484966Y-79388746D01*
X143481720Y-79356773D01*
X143481944Y-79324656D01*
X143480943Y-79314442D01*
X143455442Y-79071823D01*
X143442045Y-79006558D01*
X143429564Y-78941132D01*
X143426599Y-78931308D01*
X143354459Y-78698261D01*
X143328641Y-78636842D01*
X143303689Y-78575084D01*
X143298871Y-78566023D01*
X143182839Y-78351426D01*
X143145565Y-78296165D01*
X143109110Y-78240455D01*
X143102624Y-78232502D01*
X142947120Y-78044530D01*
X142899814Y-77997553D01*
X142853242Y-77949995D01*
X142845335Y-77943453D01*
X142656281Y-77789264D01*
X142600773Y-77752385D01*
X142545828Y-77714763D01*
X142536801Y-77709882D01*
X142321400Y-77595351D01*
X142259810Y-77569966D01*
X142198578Y-77543722D01*
X142188775Y-77540687D01*
X141955230Y-77470176D01*
X141889863Y-77457233D01*
X141824722Y-77443387D01*
X141814516Y-77442314D01*
X141571723Y-77418508D01*
X141536105Y-77415000D01*
X125163895Y-77415000D01*
X125070167Y-77424231D01*
X124950079Y-77432017D01*
X124884306Y-77442799D01*
X124818458Y-77452651D01*
X124808523Y-77455221D01*
X124572590Y-77518040D01*
X124510203Y-77541377D01*
X124447482Y-77563846D01*
X124438236Y-77568298D01*
X124218998Y-77675746D01*
X124162293Y-77710781D01*
X124105169Y-77744981D01*
X124096963Y-77751144D01*
X123902770Y-77899129D01*
X123853963Y-77944499D01*
X123804557Y-77989155D01*
X123797705Y-77996794D01*
X123635955Y-78179680D01*
X123596874Y-78233687D01*
X123557100Y-78287066D01*
X123551862Y-78295891D01*
X123428715Y-78506711D01*
X123400873Y-78567269D01*
X123372219Y-78627369D01*
X123368794Y-78637043D01*
X123288941Y-78867768D01*
X123273392Y-78932579D01*
X123256957Y-78997101D01*
X123255477Y-79007256D01*
X123221959Y-79249097D01*
X123216926Y-79374917D01*
X123215041Y-79392264D01*
X123215004Y-79402527D01*
X100710000Y-79402527D01*
X100710000Y-74902527D01*
X123215004Y-74902527D01*
X123215034Y-74911254D01*
X123218280Y-74943227D01*
X123218056Y-74975344D01*
X123219057Y-74985557D01*
X123244558Y-75228177D01*
X123257954Y-75293435D01*
X123270436Y-75358868D01*
X123273401Y-75368692D01*
X123345541Y-75601739D01*
X123371385Y-75663219D01*
X123396312Y-75724916D01*
X123401129Y-75733977D01*
X123517161Y-75948575D01*
X123554431Y-76003830D01*
X123590890Y-76059545D01*
X123597376Y-76067498D01*
X123752880Y-76255470D01*
X123800186Y-76302447D01*
X123846758Y-76350005D01*
X123854665Y-76356547D01*
X124043719Y-76510736D01*
X124099242Y-76547626D01*
X124154172Y-76585237D01*
X124163194Y-76590115D01*
X124163198Y-76590118D01*
X124163202Y-76590120D01*
X124378600Y-76704649D01*
X124440218Y-76730046D01*
X124501422Y-76756278D01*
X124511217Y-76759311D01*
X124511223Y-76759313D01*
X124511229Y-76759314D01*
X124744770Y-76829824D01*
X124810130Y-76842766D01*
X124875278Y-76856613D01*
X124885484Y-76857686D01*
X125128276Y-76881492D01*
X125128277Y-76881492D01*
X125163895Y-76885000D01*
X130636105Y-76885000D01*
X130667677Y-76881890D01*
X130675344Y-76881944D01*
X130685557Y-76880943D01*
X130928177Y-76855442D01*
X130993435Y-76842046D01*
X131058868Y-76829564D01*
X131068692Y-76826599D01*
X131301739Y-76754459D01*
X131363219Y-76728615D01*
X131424916Y-76703688D01*
X131433977Y-76698871D01*
X131648575Y-76582839D01*
X131703830Y-76545569D01*
X131759545Y-76509110D01*
X131767498Y-76502624D01*
X131955470Y-76347120D01*
X132002447Y-76299814D01*
X132050005Y-76253242D01*
X132056547Y-76245335D01*
X132210736Y-76056281D01*
X132247626Y-76000758D01*
X132285237Y-75945828D01*
X132290115Y-75936806D01*
X132290118Y-75936802D01*
X132290120Y-75936798D01*
X132404649Y-75721400D01*
X132430046Y-75659782D01*
X132456278Y-75598578D01*
X132459311Y-75588783D01*
X132459313Y-75588777D01*
X132459314Y-75588771D01*
X132529824Y-75355230D01*
X132542766Y-75289870D01*
X132556613Y-75224722D01*
X132557686Y-75214516D01*
X132581492Y-74971724D01*
X132581492Y-74939634D01*
X132584959Y-74907736D01*
X132584977Y-74902527D01*
X134115004Y-74902527D01*
X134115034Y-74911254D01*
X134118280Y-74943227D01*
X134118056Y-74975344D01*
X134119057Y-74985557D01*
X134144558Y-75228177D01*
X134157954Y-75293435D01*
X134170436Y-75358868D01*
X134173401Y-75368692D01*
X134245541Y-75601739D01*
X134271385Y-75663219D01*
X134296312Y-75724916D01*
X134301129Y-75733977D01*
X134417161Y-75948575D01*
X134454431Y-76003830D01*
X134490890Y-76059545D01*
X134497376Y-76067498D01*
X134652880Y-76255470D01*
X134700186Y-76302447D01*
X134746758Y-76350005D01*
X134754665Y-76356547D01*
X134943719Y-76510736D01*
X134999242Y-76547626D01*
X135054172Y-76585237D01*
X135063194Y-76590115D01*
X135063198Y-76590118D01*
X135063202Y-76590120D01*
X135278600Y-76704649D01*
X135340218Y-76730046D01*
X135401422Y-76756278D01*
X135411217Y-76759311D01*
X135411223Y-76759313D01*
X135411229Y-76759314D01*
X135644770Y-76829824D01*
X135710130Y-76842766D01*
X135775278Y-76856613D01*
X135785484Y-76857686D01*
X136028276Y-76881492D01*
X136078277Y-76881492D01*
X136113895Y-76885000D01*
X141536105Y-76885000D01*
X141567677Y-76881890D01*
X141575344Y-76881944D01*
X141585557Y-76880943D01*
X141828177Y-76855442D01*
X141893435Y-76842046D01*
X141958868Y-76829564D01*
X141968692Y-76826599D01*
X142201739Y-76754459D01*
X142263219Y-76728615D01*
X142324916Y-76703688D01*
X142333977Y-76698871D01*
X142548575Y-76582839D01*
X142603830Y-76545569D01*
X142659545Y-76509110D01*
X142667498Y-76502624D01*
X142855470Y-76347120D01*
X142902447Y-76299814D01*
X142950005Y-76253242D01*
X142956547Y-76245335D01*
X143110736Y-76056281D01*
X143147626Y-76000758D01*
X143185237Y-75945828D01*
X143190115Y-75936806D01*
X143190118Y-75936802D01*
X143190120Y-75936798D01*
X143304649Y-75721400D01*
X143330046Y-75659782D01*
X143356278Y-75598578D01*
X143359311Y-75588783D01*
X143359313Y-75588777D01*
X143359314Y-75588771D01*
X143429824Y-75355230D01*
X143442766Y-75289870D01*
X143456613Y-75224722D01*
X143457686Y-75214516D01*
X143481492Y-74971724D01*
X143481492Y-74939634D01*
X143484959Y-74907736D01*
X143484996Y-74897473D01*
X143484966Y-74888746D01*
X143481720Y-74856773D01*
X143481944Y-74824656D01*
X143480943Y-74814442D01*
X143455442Y-74571823D01*
X143442045Y-74506558D01*
X143429564Y-74441132D01*
X143426599Y-74431308D01*
X143354459Y-74198261D01*
X143328641Y-74136842D01*
X143303689Y-74075084D01*
X143298871Y-74066023D01*
X143182839Y-73851426D01*
X143145565Y-73796165D01*
X143109110Y-73740455D01*
X143102624Y-73732502D01*
X142947120Y-73544530D01*
X142899814Y-73497553D01*
X142853242Y-73449995D01*
X142845335Y-73443453D01*
X142656281Y-73289264D01*
X142600773Y-73252385D01*
X142545828Y-73214763D01*
X142536801Y-73209882D01*
X142321400Y-73095351D01*
X142259810Y-73069966D01*
X142198578Y-73043722D01*
X142188775Y-73040687D01*
X141955230Y-72970176D01*
X141889863Y-72957233D01*
X141824722Y-72943387D01*
X141814516Y-72942314D01*
X141571723Y-72918508D01*
X141536105Y-72915000D01*
X136113895Y-72915000D01*
X136106364Y-72915742D01*
X136103965Y-72915629D01*
X136093720Y-72916221D01*
X135850079Y-72932017D01*
X135784306Y-72942799D01*
X135718458Y-72952651D01*
X135708523Y-72955221D01*
X135472590Y-73018040D01*
X135410203Y-73041377D01*
X135347482Y-73063846D01*
X135338236Y-73068298D01*
X135118998Y-73175746D01*
X135062293Y-73210781D01*
X135005169Y-73244981D01*
X134996963Y-73251144D01*
X134802770Y-73399129D01*
X134753963Y-73444499D01*
X134704557Y-73489155D01*
X134697705Y-73496794D01*
X134535955Y-73679680D01*
X134496874Y-73733687D01*
X134457100Y-73787066D01*
X134451862Y-73795891D01*
X134328715Y-74006711D01*
X134300873Y-74067269D01*
X134272219Y-74127369D01*
X134268794Y-74137043D01*
X134188941Y-74367768D01*
X134173392Y-74432579D01*
X134156957Y-74497101D01*
X134155477Y-74507256D01*
X134121959Y-74749097D01*
X134116926Y-74874917D01*
X134115041Y-74892264D01*
X134115004Y-74902527D01*
X132584977Y-74902527D01*
X132584996Y-74897473D01*
X132584966Y-74888746D01*
X132581720Y-74856773D01*
X132581944Y-74824656D01*
X132580943Y-74814442D01*
X132555442Y-74571823D01*
X132542045Y-74506558D01*
X132529564Y-74441132D01*
X132526599Y-74431308D01*
X132454459Y-74198261D01*
X132428641Y-74136842D01*
X132403689Y-74075084D01*
X132398871Y-74066023D01*
X132282839Y-73851426D01*
X132245565Y-73796165D01*
X132209110Y-73740455D01*
X132202624Y-73732502D01*
X132047120Y-73544530D01*
X131999814Y-73497553D01*
X131953242Y-73449995D01*
X131945335Y-73443453D01*
X131756281Y-73289264D01*
X131700773Y-73252385D01*
X131645828Y-73214763D01*
X131636801Y-73209882D01*
X131421400Y-73095351D01*
X131359810Y-73069966D01*
X131298578Y-73043722D01*
X131288775Y-73040687D01*
X131055230Y-72970176D01*
X130989863Y-72957233D01*
X130924722Y-72943387D01*
X130914516Y-72942314D01*
X130671723Y-72918508D01*
X130636105Y-72915000D01*
X125213895Y-72915000D01*
X125206364Y-72915742D01*
X125203965Y-72915629D01*
X125193720Y-72916221D01*
X124950079Y-72932017D01*
X124884306Y-72942799D01*
X124818458Y-72952651D01*
X124808523Y-72955221D01*
X124572590Y-73018040D01*
X124510203Y-73041377D01*
X124447482Y-73063846D01*
X124438236Y-73068298D01*
X124218998Y-73175746D01*
X124162293Y-73210781D01*
X124105169Y-73244981D01*
X124096963Y-73251144D01*
X123902770Y-73399129D01*
X123853963Y-73444499D01*
X123804557Y-73489155D01*
X123797705Y-73496794D01*
X123635955Y-73679680D01*
X123596874Y-73733687D01*
X123557100Y-73787066D01*
X123551862Y-73795891D01*
X123428715Y-74006711D01*
X123400873Y-74067269D01*
X123372219Y-74127369D01*
X123368794Y-74137043D01*
X123288941Y-74367768D01*
X123273392Y-74432579D01*
X123256957Y-74497101D01*
X123255477Y-74507256D01*
X123221959Y-74749097D01*
X123216926Y-74874917D01*
X123215041Y-74892264D01*
X123215004Y-74902527D01*
X100710000Y-74902527D01*
X100710000Y-70402527D01*
X123215004Y-70402527D01*
X123215034Y-70411254D01*
X123218280Y-70443227D01*
X123218056Y-70475344D01*
X123219057Y-70485557D01*
X123244558Y-70728177D01*
X123257954Y-70793435D01*
X123270436Y-70858868D01*
X123273401Y-70868692D01*
X123345541Y-71101739D01*
X123371385Y-71163219D01*
X123396312Y-71224916D01*
X123401129Y-71233977D01*
X123517161Y-71448575D01*
X123554431Y-71503830D01*
X123590890Y-71559545D01*
X123597376Y-71567498D01*
X123752880Y-71755470D01*
X123800186Y-71802447D01*
X123846758Y-71850005D01*
X123854665Y-71856547D01*
X124043719Y-72010736D01*
X124099242Y-72047626D01*
X124154172Y-72085237D01*
X124163194Y-72090115D01*
X124163198Y-72090118D01*
X124163202Y-72090120D01*
X124378600Y-72204649D01*
X124440218Y-72230046D01*
X124501422Y-72256278D01*
X124511217Y-72259311D01*
X124511223Y-72259313D01*
X124511229Y-72259314D01*
X124744770Y-72329824D01*
X124810130Y-72342766D01*
X124875278Y-72356613D01*
X124885484Y-72357686D01*
X125128276Y-72381492D01*
X125128277Y-72381492D01*
X125163895Y-72385000D01*
X141536105Y-72385000D01*
X141567677Y-72381890D01*
X141575344Y-72381944D01*
X141585557Y-72380943D01*
X141828177Y-72355442D01*
X141893435Y-72342046D01*
X141958868Y-72329564D01*
X141968692Y-72326599D01*
X142201739Y-72254459D01*
X142263219Y-72228615D01*
X142324916Y-72203688D01*
X142333977Y-72198871D01*
X142548575Y-72082839D01*
X142603830Y-72045569D01*
X142659545Y-72009110D01*
X142667498Y-72002624D01*
X142855470Y-71847120D01*
X142902447Y-71799814D01*
X142950005Y-71753242D01*
X142956547Y-71745335D01*
X143110736Y-71556281D01*
X143147626Y-71500758D01*
X143185237Y-71445828D01*
X143190115Y-71436806D01*
X143190118Y-71436802D01*
X143190120Y-71436798D01*
X143304649Y-71221400D01*
X143330046Y-71159782D01*
X143356278Y-71098578D01*
X143359311Y-71088783D01*
X143359313Y-71088777D01*
X143359314Y-71088771D01*
X143429824Y-70855230D01*
X143442766Y-70789870D01*
X143456613Y-70724722D01*
X143457686Y-70714516D01*
X143481492Y-70471724D01*
X143481492Y-70439634D01*
X143484959Y-70407736D01*
X143484996Y-70397473D01*
X143484966Y-70388746D01*
X143481720Y-70356773D01*
X143481944Y-70324656D01*
X143480943Y-70314442D01*
X143455442Y-70071823D01*
X143442045Y-70006558D01*
X143429564Y-69941132D01*
X143426599Y-69931308D01*
X143354459Y-69698261D01*
X143328641Y-69636842D01*
X143303689Y-69575084D01*
X143298871Y-69566023D01*
X143182839Y-69351426D01*
X143145565Y-69296165D01*
X143109110Y-69240455D01*
X143102624Y-69232502D01*
X142947120Y-69044530D01*
X142899814Y-68997553D01*
X142853242Y-68949995D01*
X142845335Y-68943453D01*
X142656281Y-68789264D01*
X142600773Y-68752385D01*
X142545828Y-68714763D01*
X142536801Y-68709882D01*
X142321400Y-68595351D01*
X142259810Y-68569966D01*
X142198578Y-68543722D01*
X142188775Y-68540687D01*
X141955230Y-68470176D01*
X141889863Y-68457233D01*
X141824722Y-68443387D01*
X141814516Y-68442314D01*
X141571723Y-68418508D01*
X141536105Y-68415000D01*
X125213895Y-68415000D01*
X125206364Y-68415742D01*
X125203965Y-68415629D01*
X125193720Y-68416221D01*
X124950079Y-68432017D01*
X124884306Y-68442799D01*
X124818458Y-68452651D01*
X124808523Y-68455221D01*
X124572590Y-68518040D01*
X124510203Y-68541377D01*
X124447482Y-68563846D01*
X124438236Y-68568298D01*
X124218998Y-68675746D01*
X124162293Y-68710781D01*
X124105169Y-68744981D01*
X124096963Y-68751144D01*
X123902770Y-68899129D01*
X123853963Y-68944499D01*
X123804557Y-68989155D01*
X123797705Y-68996794D01*
X123635955Y-69179680D01*
X123596874Y-69233687D01*
X123557100Y-69287066D01*
X123551862Y-69295891D01*
X123428715Y-69506711D01*
X123400873Y-69567269D01*
X123372219Y-69627369D01*
X123368794Y-69637043D01*
X123288941Y-69867768D01*
X123273392Y-69932579D01*
X123256957Y-69997101D01*
X123255477Y-70007256D01*
X123221959Y-70249097D01*
X123216926Y-70374917D01*
X123215041Y-70392264D01*
X123215004Y-70402527D01*
X100710000Y-70402527D01*
X100710000Y-65952527D01*
X123215004Y-65952527D01*
X123215034Y-65961254D01*
X123218280Y-65993227D01*
X123218056Y-66025344D01*
X123219057Y-66035557D01*
X123244558Y-66278177D01*
X123257954Y-66343435D01*
X123270436Y-66408868D01*
X123273401Y-66418692D01*
X123345541Y-66651739D01*
X123371385Y-66713219D01*
X123396312Y-66774916D01*
X123401129Y-66783977D01*
X123517161Y-66998575D01*
X123554431Y-67053830D01*
X123590890Y-67109545D01*
X123597376Y-67117498D01*
X123752880Y-67305470D01*
X123800186Y-67352447D01*
X123846758Y-67400005D01*
X123854665Y-67406547D01*
X124043719Y-67560736D01*
X124099242Y-67597626D01*
X124154172Y-67635237D01*
X124163194Y-67640115D01*
X124163198Y-67640118D01*
X124163202Y-67640120D01*
X124378600Y-67754649D01*
X124440218Y-67780046D01*
X124501422Y-67806278D01*
X124511217Y-67809311D01*
X124511223Y-67809313D01*
X124511229Y-67809314D01*
X124744770Y-67879824D01*
X124810130Y-67892766D01*
X124875278Y-67906613D01*
X124885484Y-67907686D01*
X125128276Y-67931492D01*
X125128277Y-67931492D01*
X125163895Y-67935000D01*
X130636105Y-67935000D01*
X130667677Y-67931890D01*
X130675344Y-67931944D01*
X130685557Y-67930943D01*
X130928177Y-67905442D01*
X130993435Y-67892046D01*
X131058868Y-67879564D01*
X131068692Y-67876599D01*
X131301739Y-67804459D01*
X131363219Y-67778615D01*
X131424916Y-67753688D01*
X131433977Y-67748871D01*
X131648575Y-67632839D01*
X131703830Y-67595569D01*
X131759545Y-67559110D01*
X131767498Y-67552624D01*
X131955470Y-67397120D01*
X132002447Y-67349814D01*
X132050005Y-67303242D01*
X132056547Y-67295335D01*
X132210736Y-67106281D01*
X132247626Y-67050758D01*
X132285237Y-66995828D01*
X132290115Y-66986806D01*
X132290118Y-66986802D01*
X132290120Y-66986798D01*
X132404649Y-66771400D01*
X132430046Y-66709782D01*
X132456278Y-66648578D01*
X132459311Y-66638783D01*
X132459313Y-66638777D01*
X132459314Y-66638771D01*
X132529824Y-66405230D01*
X132542766Y-66339870D01*
X132556613Y-66274722D01*
X132557686Y-66264516D01*
X132581492Y-66021724D01*
X132581492Y-65989634D01*
X132584959Y-65957736D01*
X132584977Y-65952527D01*
X134165004Y-65952527D01*
X134165034Y-65961254D01*
X134168280Y-65993227D01*
X134168056Y-66025344D01*
X134169057Y-66035557D01*
X134194558Y-66278177D01*
X134207954Y-66343435D01*
X134220436Y-66408868D01*
X134223401Y-66418692D01*
X134295541Y-66651739D01*
X134321385Y-66713219D01*
X134346312Y-66774916D01*
X134351129Y-66783977D01*
X134467161Y-66998575D01*
X134504431Y-67053830D01*
X134540890Y-67109545D01*
X134547376Y-67117498D01*
X134702880Y-67305470D01*
X134750186Y-67352447D01*
X134796758Y-67400005D01*
X134804665Y-67406547D01*
X134993719Y-67560736D01*
X135049242Y-67597626D01*
X135104172Y-67635237D01*
X135113194Y-67640115D01*
X135113198Y-67640118D01*
X135113202Y-67640120D01*
X135328600Y-67754649D01*
X135390218Y-67780046D01*
X135451422Y-67806278D01*
X135461217Y-67809311D01*
X135461223Y-67809313D01*
X135461229Y-67809314D01*
X135694770Y-67879824D01*
X135760130Y-67892766D01*
X135825278Y-67906613D01*
X135835484Y-67907686D01*
X136078276Y-67931492D01*
X136078277Y-67931492D01*
X136113895Y-67935000D01*
X141536105Y-67935000D01*
X141567677Y-67931890D01*
X141575344Y-67931944D01*
X141585557Y-67930943D01*
X141828177Y-67905442D01*
X141893435Y-67892046D01*
X141958868Y-67879564D01*
X141968692Y-67876599D01*
X142201739Y-67804459D01*
X142263219Y-67778615D01*
X142324916Y-67753688D01*
X142333977Y-67748871D01*
X142548575Y-67632839D01*
X142603830Y-67595569D01*
X142659545Y-67559110D01*
X142667498Y-67552624D01*
X142855470Y-67397120D01*
X142902447Y-67349814D01*
X142950005Y-67303242D01*
X142956547Y-67295335D01*
X143110736Y-67106281D01*
X143147626Y-67050758D01*
X143185237Y-66995828D01*
X143190115Y-66986806D01*
X143190118Y-66986802D01*
X143190120Y-66986798D01*
X143304649Y-66771400D01*
X143330046Y-66709782D01*
X143356278Y-66648578D01*
X143359311Y-66638783D01*
X143359313Y-66638777D01*
X143359314Y-66638771D01*
X143429824Y-66405230D01*
X143442766Y-66339870D01*
X143456613Y-66274722D01*
X143457686Y-66264516D01*
X143481492Y-66021724D01*
X143481492Y-65989634D01*
X143484959Y-65957736D01*
X143484996Y-65947473D01*
X143484966Y-65938746D01*
X143481720Y-65906773D01*
X143481944Y-65874656D01*
X143480943Y-65864442D01*
X143455442Y-65621823D01*
X143442045Y-65556558D01*
X143429564Y-65491132D01*
X143426599Y-65481308D01*
X143354459Y-65248261D01*
X143328641Y-65186842D01*
X143303689Y-65125084D01*
X143298871Y-65116023D01*
X143182839Y-64901426D01*
X143145565Y-64846165D01*
X143109110Y-64790455D01*
X143102624Y-64782502D01*
X142947120Y-64594530D01*
X142899814Y-64547553D01*
X142853242Y-64499995D01*
X142845335Y-64493453D01*
X142656281Y-64339264D01*
X142600773Y-64302385D01*
X142545828Y-64264763D01*
X142536801Y-64259882D01*
X142321400Y-64145351D01*
X142259810Y-64119966D01*
X142198578Y-64093722D01*
X142188775Y-64090687D01*
X141955230Y-64020176D01*
X141889863Y-64007233D01*
X141824722Y-63993387D01*
X141814516Y-63992314D01*
X141717810Y-63982832D01*
X141694085Y-63975635D01*
X141586105Y-63965000D01*
X136163895Y-63965000D01*
X136156364Y-63965742D01*
X136153965Y-63965629D01*
X136143720Y-63966221D01*
X135900079Y-63982017D01*
X135834306Y-63992799D01*
X135768458Y-64002651D01*
X135758523Y-64005221D01*
X135522590Y-64068040D01*
X135460203Y-64091377D01*
X135397482Y-64113846D01*
X135388236Y-64118298D01*
X135168998Y-64225746D01*
X135112293Y-64260781D01*
X135055169Y-64294981D01*
X135046963Y-64301144D01*
X134852770Y-64449129D01*
X134803963Y-64494499D01*
X134754557Y-64539155D01*
X134747705Y-64546794D01*
X134585955Y-64729680D01*
X134546874Y-64783687D01*
X134507100Y-64837066D01*
X134501862Y-64845891D01*
X134378715Y-65056711D01*
X134350873Y-65117269D01*
X134322219Y-65177369D01*
X134318794Y-65187043D01*
X134238941Y-65417768D01*
X134223392Y-65482579D01*
X134206957Y-65547101D01*
X134205477Y-65557256D01*
X134171959Y-65799097D01*
X134166926Y-65924917D01*
X134165041Y-65942264D01*
X134165004Y-65952527D01*
X132584977Y-65952527D01*
X132584996Y-65947473D01*
X132584966Y-65938746D01*
X132581720Y-65906773D01*
X132581944Y-65874656D01*
X132580943Y-65864442D01*
X132555442Y-65621823D01*
X132542045Y-65556558D01*
X132529564Y-65491132D01*
X132526599Y-65481308D01*
X132454459Y-65248261D01*
X132428641Y-65186842D01*
X132403689Y-65125084D01*
X132398871Y-65116023D01*
X132282839Y-64901426D01*
X132245565Y-64846165D01*
X132209110Y-64790455D01*
X132202624Y-64782502D01*
X132047120Y-64594530D01*
X131999814Y-64547553D01*
X131953242Y-64499995D01*
X131945335Y-64493453D01*
X131756281Y-64339264D01*
X131700773Y-64302385D01*
X131645828Y-64264763D01*
X131636801Y-64259882D01*
X131421400Y-64145351D01*
X131359810Y-64119966D01*
X131298578Y-64093722D01*
X131288775Y-64090687D01*
X131055230Y-64020176D01*
X130989863Y-64007233D01*
X130924722Y-63993387D01*
X130914516Y-63992314D01*
X130671723Y-63968508D01*
X130636105Y-63965000D01*
X125213895Y-63965000D01*
X125206364Y-63965742D01*
X125203965Y-63965629D01*
X125193720Y-63966221D01*
X124950079Y-63982017D01*
X124884306Y-63992799D01*
X124818458Y-64002651D01*
X124808523Y-64005221D01*
X124572590Y-64068040D01*
X124510203Y-64091377D01*
X124447482Y-64113846D01*
X124438236Y-64118298D01*
X124218998Y-64225746D01*
X124162293Y-64260781D01*
X124105169Y-64294981D01*
X124096963Y-64301144D01*
X123902770Y-64449129D01*
X123853963Y-64494499D01*
X123804557Y-64539155D01*
X123797705Y-64546794D01*
X123635955Y-64729680D01*
X123596874Y-64783687D01*
X123557100Y-64837066D01*
X123551862Y-64845891D01*
X123428715Y-65056711D01*
X123400873Y-65117269D01*
X123372219Y-65177369D01*
X123368794Y-65187043D01*
X123288941Y-65417768D01*
X123273392Y-65482579D01*
X123256957Y-65547101D01*
X123255477Y-65557256D01*
X123221959Y-65799097D01*
X123216926Y-65924917D01*
X123215041Y-65942264D01*
X123215004Y-65952527D01*
X100710000Y-65952527D01*
X100710000Y-61452527D01*
X123215004Y-61452527D01*
X123215034Y-61461254D01*
X123218280Y-61493227D01*
X123218056Y-61525344D01*
X123219057Y-61535557D01*
X123244558Y-61778177D01*
X123257954Y-61843435D01*
X123270436Y-61908868D01*
X123273401Y-61918692D01*
X123345541Y-62151739D01*
X123371385Y-62213219D01*
X123396312Y-62274916D01*
X123401129Y-62283977D01*
X123517161Y-62498575D01*
X123554431Y-62553830D01*
X123590890Y-62609545D01*
X123597376Y-62617498D01*
X123752880Y-62805470D01*
X123800186Y-62852447D01*
X123846758Y-62900005D01*
X123854665Y-62906547D01*
X124043719Y-63060736D01*
X124099242Y-63097626D01*
X124154172Y-63135237D01*
X124163194Y-63140115D01*
X124163198Y-63140118D01*
X124163202Y-63140120D01*
X124378600Y-63254649D01*
X124440218Y-63280046D01*
X124501422Y-63306278D01*
X124511217Y-63309311D01*
X124511223Y-63309313D01*
X124511229Y-63309314D01*
X124744770Y-63379824D01*
X124810130Y-63392766D01*
X124875278Y-63406613D01*
X124885484Y-63407686D01*
X125128276Y-63431492D01*
X125128277Y-63431492D01*
X125163895Y-63435000D01*
X141536105Y-63435000D01*
X141567677Y-63431890D01*
X141575344Y-63431944D01*
X141585557Y-63430943D01*
X141828177Y-63405442D01*
X141893435Y-63392046D01*
X141958868Y-63379564D01*
X141968692Y-63376599D01*
X142201739Y-63304459D01*
X142263219Y-63278615D01*
X142324916Y-63253688D01*
X142333977Y-63248871D01*
X142548575Y-63132839D01*
X142603830Y-63095569D01*
X142659545Y-63059110D01*
X142667498Y-63052624D01*
X142855470Y-62897120D01*
X142902447Y-62849814D01*
X142950005Y-62803242D01*
X142956547Y-62795335D01*
X143110736Y-62606281D01*
X143147626Y-62550758D01*
X143185237Y-62495828D01*
X143190115Y-62486806D01*
X143190118Y-62486802D01*
X143190120Y-62486798D01*
X143304649Y-62271400D01*
X143330046Y-62209782D01*
X143356278Y-62148578D01*
X143359311Y-62138783D01*
X143359313Y-62138777D01*
X143359314Y-62138771D01*
X143429824Y-61905230D01*
X143442766Y-61839870D01*
X143456613Y-61774722D01*
X143457686Y-61764516D01*
X143481492Y-61521724D01*
X143481492Y-61489634D01*
X143484959Y-61457736D01*
X143484996Y-61447473D01*
X143484966Y-61438746D01*
X143481720Y-61406773D01*
X143481944Y-61374656D01*
X143480943Y-61364442D01*
X143455442Y-61121823D01*
X143442045Y-61056558D01*
X143429564Y-60991132D01*
X143426599Y-60981308D01*
X143354459Y-60748261D01*
X143328641Y-60686842D01*
X143303689Y-60625084D01*
X143298871Y-60616023D01*
X143182839Y-60401426D01*
X143145565Y-60346165D01*
X143109110Y-60290455D01*
X143102624Y-60282502D01*
X142947120Y-60094530D01*
X142899814Y-60047553D01*
X142853242Y-59999995D01*
X142845335Y-59993453D01*
X142656281Y-59839264D01*
X142600773Y-59802385D01*
X142545828Y-59764763D01*
X142536801Y-59759882D01*
X142321400Y-59645351D01*
X142259810Y-59619966D01*
X142198578Y-59593722D01*
X142188775Y-59590687D01*
X141955230Y-59520176D01*
X141889863Y-59507233D01*
X141824722Y-59493387D01*
X141814516Y-59492314D01*
X141571723Y-59468508D01*
X141536105Y-59465000D01*
X125213895Y-59465000D01*
X125206364Y-59465742D01*
X125203965Y-59465629D01*
X125193720Y-59466221D01*
X124950079Y-59482017D01*
X124884306Y-59492799D01*
X124818458Y-59502651D01*
X124808523Y-59505221D01*
X124572590Y-59568040D01*
X124510203Y-59591377D01*
X124447482Y-59613846D01*
X124438236Y-59618298D01*
X124218998Y-59725746D01*
X124162293Y-59760781D01*
X124105169Y-59794981D01*
X124096963Y-59801144D01*
X123902770Y-59949129D01*
X123853963Y-59994499D01*
X123804557Y-60039155D01*
X123797705Y-60046794D01*
X123635955Y-60229680D01*
X123596874Y-60283687D01*
X123557100Y-60337066D01*
X123551862Y-60345891D01*
X123428715Y-60556711D01*
X123400873Y-60617269D01*
X123372219Y-60677369D01*
X123368794Y-60687043D01*
X123288941Y-60917768D01*
X123273392Y-60982579D01*
X123256957Y-61047101D01*
X123255477Y-61057256D01*
X123221959Y-61299097D01*
X123216926Y-61424917D01*
X123215041Y-61442264D01*
X123215004Y-61452527D01*
X100710000Y-61452527D01*
X100710000Y-56452527D01*
X124265004Y-56452527D01*
X124265034Y-56461254D01*
X124268280Y-56493227D01*
X124268056Y-56525344D01*
X124269057Y-56535557D01*
X124294558Y-56778177D01*
X124307954Y-56843435D01*
X124320436Y-56908868D01*
X124323401Y-56918692D01*
X124395541Y-57151739D01*
X124421385Y-57213219D01*
X124446312Y-57274916D01*
X124451129Y-57283977D01*
X124567161Y-57498575D01*
X124604431Y-57553830D01*
X124640890Y-57609545D01*
X124647376Y-57617498D01*
X124802880Y-57805470D01*
X124850186Y-57852447D01*
X124896758Y-57900005D01*
X124904665Y-57906547D01*
X125093719Y-58060736D01*
X125149242Y-58097626D01*
X125204172Y-58135237D01*
X125213194Y-58140115D01*
X125213198Y-58140118D01*
X125213202Y-58140120D01*
X125428600Y-58254649D01*
X125490218Y-58280046D01*
X125551422Y-58306278D01*
X125561217Y-58309311D01*
X125561223Y-58309313D01*
X125561229Y-58309314D01*
X125794770Y-58379824D01*
X125860130Y-58392766D01*
X125925278Y-58406613D01*
X125935484Y-58407686D01*
X126178276Y-58431492D01*
X126178277Y-58431492D01*
X126213895Y-58435000D01*
X130886105Y-58435000D01*
X130917677Y-58431890D01*
X130925344Y-58431944D01*
X130935557Y-58430943D01*
X131178177Y-58405442D01*
X131243435Y-58392046D01*
X131308868Y-58379564D01*
X131318692Y-58376599D01*
X131551739Y-58304459D01*
X131613219Y-58278615D01*
X131674916Y-58253688D01*
X131683977Y-58248871D01*
X131898575Y-58132839D01*
X131953830Y-58095569D01*
X132009545Y-58059110D01*
X132017498Y-58052624D01*
X132205470Y-57897120D01*
X132252447Y-57849814D01*
X132300005Y-57803242D01*
X132306547Y-57795335D01*
X132460736Y-57606281D01*
X132497626Y-57550758D01*
X132535237Y-57495828D01*
X132540115Y-57486806D01*
X132540118Y-57486802D01*
X132540120Y-57486798D01*
X132654649Y-57271400D01*
X132680046Y-57209782D01*
X132706278Y-57148578D01*
X132709311Y-57138783D01*
X132709313Y-57138777D01*
X132709314Y-57138771D01*
X132779824Y-56905230D01*
X132792766Y-56839870D01*
X132806613Y-56774722D01*
X132807686Y-56764516D01*
X132831492Y-56521724D01*
X132831492Y-56489634D01*
X132834959Y-56457736D01*
X132834977Y-56452527D01*
X133865004Y-56452527D01*
X133865034Y-56461254D01*
X133868280Y-56493227D01*
X133868056Y-56525344D01*
X133869057Y-56535557D01*
X133894558Y-56778177D01*
X133907954Y-56843435D01*
X133920436Y-56908868D01*
X133923401Y-56918692D01*
X133995541Y-57151739D01*
X134021385Y-57213219D01*
X134046312Y-57274916D01*
X134051129Y-57283977D01*
X134167161Y-57498575D01*
X134204431Y-57553830D01*
X134240890Y-57609545D01*
X134247376Y-57617498D01*
X134402880Y-57805470D01*
X134450186Y-57852447D01*
X134496758Y-57900005D01*
X134504665Y-57906547D01*
X134693719Y-58060736D01*
X134749242Y-58097626D01*
X134804172Y-58135237D01*
X134813194Y-58140115D01*
X134813198Y-58140118D01*
X134813202Y-58140120D01*
X135028600Y-58254649D01*
X135090218Y-58280046D01*
X135151422Y-58306278D01*
X135161217Y-58309311D01*
X135161223Y-58309313D01*
X135161229Y-58309314D01*
X135394770Y-58379824D01*
X135460130Y-58392766D01*
X135525278Y-58406613D01*
X135535484Y-58407686D01*
X135778276Y-58431492D01*
X135778277Y-58431492D01*
X135813895Y-58435000D01*
X140136105Y-58435000D01*
X140167677Y-58431890D01*
X140175344Y-58431944D01*
X140185557Y-58430943D01*
X140428177Y-58405442D01*
X140493435Y-58392046D01*
X140558868Y-58379564D01*
X140568692Y-58376599D01*
X140801739Y-58304459D01*
X140863219Y-58278615D01*
X140924916Y-58253688D01*
X140933977Y-58248871D01*
X141148575Y-58132839D01*
X141203830Y-58095569D01*
X141259545Y-58059110D01*
X141267498Y-58052624D01*
X141455470Y-57897120D01*
X141502447Y-57849814D01*
X141550005Y-57803242D01*
X141556547Y-57795335D01*
X141710736Y-57606281D01*
X141747626Y-57550758D01*
X141785237Y-57495828D01*
X141790115Y-57486806D01*
X141790118Y-57486802D01*
X141790120Y-57486798D01*
X141904649Y-57271400D01*
X141930046Y-57209782D01*
X141956278Y-57148578D01*
X141959311Y-57138783D01*
X141959313Y-57138777D01*
X141959314Y-57138771D01*
X142029824Y-56905230D01*
X142042766Y-56839870D01*
X142056613Y-56774722D01*
X142057686Y-56764516D01*
X142081492Y-56521724D01*
X142081492Y-56489634D01*
X142084959Y-56457736D01*
X142084996Y-56447473D01*
X142084966Y-56438746D01*
X142081720Y-56406773D01*
X142081944Y-56374656D01*
X142080943Y-56364442D01*
X142055442Y-56121823D01*
X142042045Y-56056558D01*
X142029564Y-55991132D01*
X142026599Y-55981308D01*
X141954459Y-55748261D01*
X141928641Y-55686842D01*
X141903689Y-55625084D01*
X141898871Y-55616023D01*
X141782839Y-55401426D01*
X141745565Y-55346165D01*
X141709110Y-55290455D01*
X141702624Y-55282502D01*
X141547120Y-55094530D01*
X141499814Y-55047553D01*
X141453242Y-54999995D01*
X141445335Y-54993453D01*
X141256281Y-54839264D01*
X141200773Y-54802385D01*
X141145828Y-54764763D01*
X141136801Y-54759882D01*
X140921400Y-54645351D01*
X140859810Y-54619966D01*
X140798578Y-54593722D01*
X140788775Y-54590687D01*
X140555230Y-54520176D01*
X140489863Y-54507233D01*
X140424722Y-54493387D01*
X140414516Y-54492314D01*
X140171723Y-54468508D01*
X140136105Y-54465000D01*
X135863895Y-54465000D01*
X135856364Y-54465742D01*
X135853965Y-54465629D01*
X135843720Y-54466221D01*
X135600079Y-54482017D01*
X135534306Y-54492799D01*
X135468458Y-54502651D01*
X135458523Y-54505221D01*
X135222590Y-54568040D01*
X135160203Y-54591377D01*
X135097482Y-54613846D01*
X135088236Y-54618298D01*
X134868998Y-54725746D01*
X134812293Y-54760781D01*
X134755169Y-54794981D01*
X134746963Y-54801144D01*
X134552770Y-54949129D01*
X134503963Y-54994499D01*
X134454557Y-55039155D01*
X134447705Y-55046794D01*
X134285955Y-55229680D01*
X134246874Y-55283687D01*
X134207100Y-55337066D01*
X134201862Y-55345891D01*
X134078715Y-55556711D01*
X134050873Y-55617269D01*
X134022219Y-55677369D01*
X134018794Y-55687043D01*
X133938941Y-55917768D01*
X133923392Y-55982579D01*
X133906957Y-56047101D01*
X133905477Y-56057256D01*
X133871959Y-56299097D01*
X133866926Y-56424917D01*
X133865041Y-56442264D01*
X133865004Y-56452527D01*
X132834977Y-56452527D01*
X132834996Y-56447473D01*
X132834966Y-56438746D01*
X132831720Y-56406773D01*
X132831944Y-56374656D01*
X132830943Y-56364442D01*
X132805442Y-56121823D01*
X132792045Y-56056558D01*
X132779564Y-55991132D01*
X132776599Y-55981308D01*
X132704459Y-55748261D01*
X132678641Y-55686842D01*
X132653689Y-55625084D01*
X132648871Y-55616023D01*
X132532839Y-55401426D01*
X132495565Y-55346165D01*
X132459110Y-55290455D01*
X132452624Y-55282502D01*
X132297120Y-55094530D01*
X132249814Y-55047553D01*
X132203242Y-54999995D01*
X132195335Y-54993453D01*
X132006281Y-54839264D01*
X131950773Y-54802385D01*
X131895828Y-54764763D01*
X131886801Y-54759882D01*
X131671400Y-54645351D01*
X131609810Y-54619966D01*
X131548578Y-54593722D01*
X131538775Y-54590687D01*
X131305230Y-54520176D01*
X131239863Y-54507233D01*
X131174722Y-54493387D01*
X131164516Y-54492314D01*
X130921723Y-54468508D01*
X130886105Y-54465000D01*
X126263895Y-54465000D01*
X126256364Y-54465742D01*
X126253965Y-54465629D01*
X126243720Y-54466221D01*
X126000079Y-54482017D01*
X125934306Y-54492799D01*
X125868458Y-54502651D01*
X125858523Y-54505221D01*
X125622590Y-54568040D01*
X125560203Y-54591377D01*
X125497482Y-54613846D01*
X125488236Y-54618298D01*
X125268998Y-54725746D01*
X125212293Y-54760781D01*
X125155169Y-54794981D01*
X125146963Y-54801144D01*
X124952770Y-54949129D01*
X124903963Y-54994499D01*
X124854557Y-55039155D01*
X124847705Y-55046794D01*
X124685955Y-55229680D01*
X124646874Y-55283687D01*
X124607100Y-55337066D01*
X124601862Y-55345891D01*
X124478715Y-55556711D01*
X124450873Y-55617269D01*
X124422219Y-55677369D01*
X124418794Y-55687043D01*
X124338941Y-55917768D01*
X124323392Y-55982579D01*
X124306957Y-56047101D01*
X124305477Y-56057256D01*
X124271959Y-56299097D01*
X124266926Y-56424917D01*
X124265041Y-56442264D01*
X124265004Y-56452527D01*
X100710000Y-56452527D01*
X100710000Y-53564375D01*
X102865320Y-53564375D01*
X102865320Y-53935625D01*
X102937747Y-54299741D01*
X103079818Y-54642731D01*
X103286074Y-54951413D01*
X103548587Y-55213926D01*
X103857269Y-55420182D01*
X104200259Y-55562253D01*
X104564375Y-55634680D01*
X104935625Y-55634680D01*
X105299741Y-55562253D01*
X105642731Y-55420182D01*
X105951413Y-55213926D01*
X106213926Y-54951413D01*
X106420182Y-54642731D01*
X106562253Y-54299741D01*
X106634680Y-53935625D01*
X106634680Y-53564375D01*
X106562253Y-53200259D01*
X106420182Y-52857269D01*
X106213926Y-52548587D01*
X105951413Y-52286074D01*
X105642731Y-52079818D01*
X105299741Y-51937747D01*
X104935625Y-51865320D01*
X104564375Y-51865320D01*
X104200259Y-51937747D01*
X103857269Y-52079818D01*
X103548587Y-52286074D01*
X103286074Y-52548587D01*
X103079818Y-52857269D01*
X102937747Y-53200259D01*
X102865320Y-53564375D01*
X100710000Y-53564375D01*
X100710000Y-50710000D01*
X124383281Y-50710000D01*
X124217885Y-50820514D01*
G37*
X124217885Y-50820514D02*
X123970514Y-51067885D01*
X123776156Y-51358763D01*
X123642280Y-51681969D01*
X123574030Y-52025082D01*
X123574030Y-52374918D01*
X123642280Y-52718031D01*
X123776156Y-53041237D01*
X123970514Y-53332115D01*
X124217885Y-53579486D01*
X124508763Y-53773844D01*
X124831969Y-53907720D01*
X125175082Y-53975970D01*
X125524918Y-53975970D01*
X125868031Y-53907720D01*
X126191237Y-53773844D01*
X126482115Y-53579486D01*
X126729486Y-53332115D01*
X126923844Y-53041237D01*
X127057720Y-52718031D01*
X127125970Y-52374918D01*
X127125970Y-52352601D01*
X129465005Y-52352601D01*
X129465026Y-52358535D01*
X129468270Y-52390458D01*
X129468046Y-52422548D01*
X129469047Y-52432761D01*
X129486387Y-52597743D01*
X129499785Y-52663013D01*
X129512265Y-52728436D01*
X129515231Y-52738260D01*
X129564286Y-52896732D01*
X129590114Y-52958174D01*
X129615057Y-53019911D01*
X129619874Y-53028972D01*
X129698776Y-53174898D01*
X129736054Y-53230164D01*
X129772506Y-53285868D01*
X129778991Y-53293821D01*
X129884734Y-53421642D01*
X129932024Y-53468603D01*
X129978612Y-53516177D01*
X129986519Y-53522719D01*
X130115075Y-53627567D01*
X130170617Y-53664469D01*
X130225529Y-53702068D01*
X130234556Y-53706950D01*
X130381029Y-53784831D01*
X130442642Y-53810226D01*
X130503848Y-53836459D01*
X130513651Y-53839494D01*
X130672462Y-53887442D01*
X130737858Y-53900391D01*
X130802972Y-53914231D01*
X130813174Y-53915304D01*
X130813178Y-53915304D01*
X130978277Y-53931492D01*
X131013895Y-53935000D01*
X135686105Y-53935000D01*
X135717397Y-53931918D01*
X135722548Y-53931954D01*
X135732761Y-53930953D01*
X135897743Y-53913613D01*
X135963013Y-53900215D01*
X136028436Y-53887735D01*
X136038260Y-53884769D01*
X136196732Y-53835714D01*
X136258174Y-53809886D01*
X136319911Y-53784943D01*
X136328972Y-53780126D01*
X136474898Y-53701224D01*
X136530164Y-53663946D01*
X136585868Y-53627494D01*
X136593821Y-53621009D01*
X136721642Y-53515266D01*
X136768603Y-53467976D01*
X136816177Y-53421388D01*
X136822719Y-53413481D01*
X136927567Y-53284925D01*
X136964469Y-53229383D01*
X137002068Y-53174471D01*
X137006950Y-53165444D01*
X137084831Y-53018971D01*
X137110226Y-52957358D01*
X137136459Y-52896152D01*
X137139494Y-52886349D01*
X137187442Y-52727538D01*
X137200391Y-52662142D01*
X137214231Y-52597028D01*
X137215304Y-52586822D01*
X137231492Y-52421723D01*
X137231492Y-52339597D01*
X137234960Y-52307661D01*
X137234995Y-52297399D01*
X137234974Y-52291465D01*
X137231730Y-52259542D01*
X137231954Y-52227452D01*
X137230953Y-52217239D01*
X137213613Y-52052257D01*
X137200215Y-51986987D01*
X137187735Y-51921564D01*
X137184769Y-51911740D01*
X137135714Y-51753268D01*
X137109886Y-51691826D01*
X137084943Y-51630089D01*
X137080125Y-51621028D01*
X137001224Y-51475102D01*
X136963936Y-51419820D01*
X136927494Y-51364132D01*
X136921009Y-51356179D01*
X136815266Y-51228358D01*
X136767976Y-51181397D01*
X136721388Y-51133823D01*
X136713487Y-51127287D01*
X136713480Y-51127280D01*
X136713472Y-51127275D01*
X136584925Y-51022433D01*
X136529368Y-50985521D01*
X136474471Y-50947932D01*
X136465444Y-50943050D01*
X136318971Y-50865169D01*
X136257358Y-50839774D01*
X136196152Y-50813541D01*
X136186349Y-50810506D01*
X136027538Y-50762558D01*
X135962155Y-50749612D01*
X135897028Y-50735769D01*
X135886824Y-50734696D01*
X135886822Y-50734696D01*
X135721723Y-50718508D01*
X135686105Y-50715000D01*
X131013895Y-50715000D01*
X130982603Y-50718082D01*
X130977452Y-50718046D01*
X130967239Y-50719047D01*
X130802257Y-50736387D01*
X130736987Y-50749785D01*
X130671564Y-50762265D01*
X130661740Y-50765231D01*
X130503268Y-50814286D01*
X130441826Y-50840114D01*
X130380089Y-50865057D01*
X130371033Y-50869872D01*
X130371029Y-50869874D01*
X130371028Y-50869875D01*
X130225102Y-50948776D01*
X130169820Y-50986064D01*
X130114132Y-51022506D01*
X130106179Y-51028991D01*
X129978358Y-51134734D01*
X129931397Y-51182024D01*
X129883823Y-51228612D01*
X129877287Y-51236513D01*
X129877280Y-51236520D01*
X129877275Y-51236528D01*
X129772433Y-51365075D01*
X129735521Y-51420632D01*
X129697932Y-51475529D01*
X129693050Y-51484556D01*
X129615169Y-51631029D01*
X129589774Y-51692642D01*
X129563541Y-51753848D01*
X129560506Y-51763651D01*
X129512558Y-51922462D01*
X129499612Y-51987845D01*
X129485769Y-52052972D01*
X129484696Y-52063178D01*
X129468508Y-52228277D01*
X129468508Y-52310403D01*
X129465040Y-52342339D01*
X129465005Y-52352601D01*
X127125970Y-52352601D01*
X127125970Y-52025082D01*
X127057720Y-51681969D01*
X126923844Y-51358763D01*
X126729486Y-51067885D01*
X126482115Y-50820514D01*
X126316719Y-50710000D01*
X140501538Y-50710000D01*
X140456621Y-50728605D01*
X140147714Y-50935010D01*
X139885010Y-51197714D01*
X139678605Y-51506621D01*
X139536431Y-51849860D01*
X139463951Y-52214240D01*
X139463951Y-52585760D01*
X139536431Y-52950140D01*
X139678605Y-53293379D01*
X139885010Y-53602286D01*
X140147714Y-53864990D01*
X140456621Y-54071395D01*
X140799860Y-54213569D01*
X141164240Y-54286049D01*
X141535760Y-54286049D01*
X141900140Y-54213569D01*
X142243379Y-54071395D01*
X142552286Y-53864990D01*
X142814990Y-53602286D01*
X142840321Y-53564375D01*
X143365320Y-53564375D01*
X143365320Y-53935625D01*
X143437747Y-54299741D01*
X143579818Y-54642731D01*
X143786074Y-54951413D01*
X144048587Y-55213926D01*
X144357269Y-55420182D01*
X144700259Y-55562253D01*
X145064375Y-55634680D01*
X145435625Y-55634680D01*
X145799741Y-55562253D01*
X146142731Y-55420182D01*
X146451413Y-55213926D01*
X146713926Y-54951413D01*
X146920182Y-54642731D01*
X147062253Y-54299741D01*
X147134680Y-53935625D01*
X147134680Y-53564375D01*
X147062253Y-53200259D01*
X146920182Y-52857269D01*
X146713926Y-52548587D01*
X146451413Y-52286074D01*
X146142731Y-52079818D01*
X145799741Y-51937747D01*
X145435625Y-51865320D01*
X145064375Y-51865320D01*
X144700259Y-51937747D01*
X144357269Y-52079818D01*
X144048587Y-52286074D01*
X143786074Y-52548587D01*
X143579818Y-52857269D01*
X143437747Y-53200259D01*
X143365320Y-53564375D01*
X142840321Y-53564375D01*
X143021395Y-53293379D01*
X143163569Y-52950140D01*
X143236049Y-52585760D01*
X143236049Y-52214240D01*
X143163569Y-51849860D01*
X143021395Y-51506621D01*
X142814990Y-51197714D01*
X142552286Y-50935010D01*
X142243379Y-50728605D01*
X142198462Y-50710000D01*
X149290001Y-50710000D01*
X149290000Y-109290000D01*
X100710000Y-109290000D01*
X100710000Y-106064375D01*
X102865320Y-106064375D01*
X102865320Y-106435625D01*
X102937747Y-106799741D01*
X103079818Y-107142731D01*
X103286074Y-107451413D01*
X103548587Y-107713926D01*
X103857269Y-107920182D01*
X104200259Y-108062253D01*
X104564375Y-108134680D01*
X104935625Y-108134680D01*
X105299741Y-108062253D01*
X105642731Y-107920182D01*
X105951413Y-107713926D01*
X106213926Y-107451413D01*
X106420182Y-107142731D01*
X106562253Y-106799741D01*
X106634680Y-106435625D01*
X106634680Y-106064375D01*
X143365320Y-106064375D01*
X143365320Y-106435625D01*
X143437747Y-106799741D01*
X143579818Y-107142731D01*
X143786074Y-107451413D01*
X144048587Y-107713926D01*
X144357269Y-107920182D01*
X144700259Y-108062253D01*
X145064375Y-108134680D01*
X145435625Y-108134680D01*
X145799741Y-108062253D01*
X146142731Y-107920182D01*
X146451413Y-107713926D01*
X146713926Y-107451413D01*
X146920182Y-107142731D01*
X147062253Y-106799741D01*
X147134680Y-106435625D01*
X147134680Y-106064375D01*
X147062253Y-105700259D01*
X146920182Y-105357269D01*
X146713926Y-105048587D01*
X146451413Y-104786074D01*
X146142731Y-104579818D01*
X145799741Y-104437747D01*
X145435625Y-104365320D01*
X145064375Y-104365320D01*
X144700259Y-104437747D01*
X144357269Y-104579818D01*
X144048587Y-104786074D01*
X143786074Y-105048587D01*
X143579818Y-105357269D01*
X143437747Y-105700259D01*
X143365320Y-106064375D01*
X106634680Y-106064375D01*
X106562253Y-105700259D01*
X106420182Y-105357269D01*
X106213926Y-105048587D01*
X105951413Y-104786074D01*
X105642731Y-104579818D01*
X105299741Y-104437747D01*
X104935625Y-104365320D01*
X104564375Y-104365320D01*
X104200259Y-104437747D01*
X103857269Y-104579818D01*
X103548587Y-104786074D01*
X103286074Y-105048587D01*
X103079818Y-105357269D01*
X102937747Y-105700259D01*
X102865320Y-106064375D01*
X100710000Y-106064375D01*
X100710000Y-88214240D01*
X123463951Y-88214240D01*
X123463951Y-88585760D01*
X123536431Y-88950140D01*
X123678605Y-89293379D01*
X123885010Y-89602286D01*
X124147714Y-89864990D01*
X124456621Y-90071395D01*
X124799860Y-90213569D01*
X125164240Y-90286049D01*
X125535760Y-90286049D01*
X125900140Y-90213569D01*
X126243379Y-90071395D01*
X126552286Y-89864990D01*
X126814990Y-89602286D01*
X127021395Y-89293379D01*
X127163569Y-88950140D01*
X127236049Y-88585760D01*
X127236049Y-88552601D01*
X129465005Y-88552601D01*
X129465026Y-88558535D01*
X129468270Y-88590458D01*
X129468046Y-88622548D01*
X129469047Y-88632761D01*
X129486387Y-88797743D01*
X129499785Y-88863013D01*
X129512265Y-88928436D01*
X129515231Y-88938260D01*
X129564286Y-89096732D01*
X129590114Y-89158174D01*
X129615057Y-89219911D01*
X129619874Y-89228972D01*
X129698776Y-89374898D01*
X129736054Y-89430164D01*
X129772506Y-89485868D01*
X129778991Y-89493821D01*
X129884734Y-89621642D01*
X129932024Y-89668603D01*
X129978612Y-89716177D01*
X129986519Y-89722719D01*
X130115075Y-89827567D01*
X130170617Y-89864469D01*
X130225529Y-89902068D01*
X130234556Y-89906950D01*
X130381029Y-89984831D01*
X130442642Y-90010226D01*
X130503848Y-90036459D01*
X130513651Y-90039494D01*
X130672462Y-90087442D01*
X130737858Y-90100391D01*
X130802972Y-90114231D01*
X130813174Y-90115304D01*
X130813178Y-90115304D01*
X130978277Y-90131492D01*
X131013895Y-90135000D01*
X135686105Y-90135000D01*
X135717397Y-90131918D01*
X135722548Y-90131954D01*
X135732761Y-90130953D01*
X135897743Y-90113613D01*
X135963013Y-90100215D01*
X136028436Y-90087735D01*
X136038260Y-90084769D01*
X136196732Y-90035714D01*
X136258174Y-90009886D01*
X136319911Y-89984943D01*
X136328972Y-89980126D01*
X136474898Y-89901224D01*
X136530164Y-89863946D01*
X136585868Y-89827494D01*
X136593821Y-89821009D01*
X136721642Y-89715266D01*
X136768603Y-89667976D01*
X136816177Y-89621388D01*
X136822719Y-89613481D01*
X136927567Y-89484925D01*
X136964469Y-89429383D01*
X137002068Y-89374471D01*
X137006950Y-89365444D01*
X137084831Y-89218971D01*
X137110226Y-89157358D01*
X137136459Y-89096152D01*
X137139494Y-89086349D01*
X137187442Y-88927538D01*
X137200391Y-88862142D01*
X137214231Y-88797028D01*
X137215304Y-88786822D01*
X137231492Y-88621723D01*
X137231492Y-88539597D01*
X137234960Y-88507661D01*
X137234995Y-88497399D01*
X137234974Y-88491465D01*
X137231730Y-88459542D01*
X137231954Y-88427452D01*
X137230953Y-88417239D01*
X137213613Y-88252257D01*
X137206255Y-88216411D01*
X139485985Y-88216411D01*
X139485985Y-88583589D01*
X139557618Y-88943713D01*
X139698131Y-89282942D01*
X139902125Y-89588240D01*
X140161760Y-89847875D01*
X140467058Y-90051869D01*
X140806287Y-90192382D01*
X141166411Y-90264015D01*
X141533589Y-90264015D01*
X141893713Y-90192382D01*
X142232942Y-90051869D01*
X142538240Y-89847875D01*
X142797875Y-89588240D01*
X143001869Y-89282942D01*
X143142382Y-88943713D01*
X143214015Y-88583589D01*
X143214015Y-88216411D01*
X143142382Y-87856287D01*
X143001869Y-87517058D01*
X142797875Y-87211760D01*
X142538240Y-86952125D01*
X142232942Y-86748131D01*
X141893713Y-86607618D01*
X141533589Y-86535985D01*
X141166411Y-86535985D01*
X140806287Y-86607618D01*
X140467058Y-86748131D01*
X140161760Y-86952125D01*
X139902125Y-87211760D01*
X139698131Y-87517058D01*
X139557618Y-87856287D01*
X139485985Y-88216411D01*
X137206255Y-88216411D01*
X137200215Y-88186987D01*
X137187735Y-88121564D01*
X137184769Y-88111740D01*
X137135714Y-87953268D01*
X137109886Y-87891826D01*
X137084943Y-87830089D01*
X137080125Y-87821028D01*
X137001224Y-87675102D01*
X136963936Y-87619820D01*
X136927494Y-87564132D01*
X136921009Y-87556179D01*
X136815266Y-87428358D01*
X136767976Y-87381397D01*
X136721388Y-87333823D01*
X136713487Y-87327287D01*
X136713480Y-87327280D01*
X136713472Y-87327275D01*
X136584925Y-87222433D01*
X136529368Y-87185521D01*
X136474471Y-87147932D01*
X136465444Y-87143050D01*
X136318971Y-87065169D01*
X136257358Y-87039774D01*
X136196152Y-87013541D01*
X136186349Y-87010506D01*
X136027538Y-86962558D01*
X135962155Y-86949612D01*
X135897028Y-86935769D01*
X135886824Y-86934696D01*
X135886822Y-86934696D01*
X135721723Y-86918508D01*
X135686105Y-86915000D01*
X131013895Y-86915000D01*
X130982603Y-86918082D01*
X130977452Y-86918046D01*
X130967239Y-86919047D01*
X130802257Y-86936387D01*
X130736987Y-86949785D01*
X130671564Y-86962265D01*
X130661740Y-86965231D01*
X130503268Y-87014286D01*
X130441826Y-87040114D01*
X130380089Y-87065057D01*
X130371033Y-87069872D01*
X130371029Y-87069874D01*
X130371028Y-87069875D01*
X130225102Y-87148776D01*
X130169820Y-87186064D01*
X130114132Y-87222506D01*
X130106179Y-87228991D01*
X129978358Y-87334734D01*
X129931397Y-87382024D01*
X129883823Y-87428612D01*
X129877287Y-87436513D01*
X129877280Y-87436520D01*
X129877275Y-87436528D01*
X129772433Y-87565075D01*
X129735521Y-87620632D01*
X129697932Y-87675529D01*
X129693050Y-87684556D01*
X129615169Y-87831029D01*
X129589774Y-87892642D01*
X129563541Y-87953848D01*
X129560506Y-87963651D01*
X129512558Y-88122462D01*
X129499612Y-88187845D01*
X129485769Y-88252972D01*
X129484696Y-88263178D01*
X129468508Y-88428277D01*
X129468508Y-88510403D01*
X129465040Y-88542339D01*
X129465005Y-88552601D01*
X127236049Y-88552601D01*
X127236049Y-88214240D01*
X127163569Y-87849860D01*
X127021395Y-87506621D01*
X126814990Y-87197714D01*
X126552286Y-86935010D01*
X126243379Y-86728605D01*
X125900140Y-86586431D01*
X125535760Y-86513951D01*
X125164240Y-86513951D01*
X124799860Y-86586431D01*
X124456621Y-86728605D01*
X124147714Y-86935010D01*
X123885010Y-87197714D01*
X123678605Y-87506621D01*
X123536431Y-87849860D01*
X123463951Y-88214240D01*
X100710000Y-88214240D01*
X100710000Y-84402527D01*
X124215004Y-84402527D01*
X124215034Y-84411254D01*
X124218280Y-84443227D01*
X124218056Y-84475344D01*
X124219057Y-84485557D01*
X124244558Y-84728177D01*
X124257954Y-84793435D01*
X124270436Y-84858868D01*
X124273401Y-84868692D01*
X124345541Y-85101739D01*
X124371385Y-85163219D01*
X124396312Y-85224916D01*
X124401129Y-85233977D01*
X124517161Y-85448575D01*
X124554431Y-85503830D01*
X124590890Y-85559545D01*
X124597376Y-85567498D01*
X124752880Y-85755470D01*
X124800186Y-85802447D01*
X124846758Y-85850005D01*
X124854665Y-85856547D01*
X125043719Y-86010736D01*
X125099242Y-86047626D01*
X125154172Y-86085237D01*
X125163194Y-86090115D01*
X125163198Y-86090118D01*
X125163202Y-86090120D01*
X125378600Y-86204649D01*
X125440218Y-86230046D01*
X125501422Y-86256278D01*
X125511217Y-86259311D01*
X125511223Y-86259313D01*
X125511229Y-86259314D01*
X125744770Y-86329824D01*
X125810130Y-86342766D01*
X125875278Y-86356613D01*
X125885484Y-86357686D01*
X126128276Y-86381492D01*
X126128277Y-86381492D01*
X126163895Y-86385000D01*
X130886105Y-86385000D01*
X130917677Y-86381890D01*
X130925344Y-86381944D01*
X130935557Y-86380943D01*
X131178177Y-86355442D01*
X131243435Y-86342046D01*
X131308868Y-86329564D01*
X131318692Y-86326599D01*
X131551739Y-86254459D01*
X131613219Y-86228615D01*
X131674916Y-86203688D01*
X131683977Y-86198871D01*
X131898575Y-86082839D01*
X131953830Y-86045569D01*
X132009545Y-86009110D01*
X132017498Y-86002624D01*
X132205470Y-85847120D01*
X132252447Y-85799814D01*
X132300005Y-85753242D01*
X132306547Y-85745335D01*
X132460736Y-85556281D01*
X132497626Y-85500758D01*
X132535237Y-85445828D01*
X132540115Y-85436806D01*
X132540118Y-85436802D01*
X132540120Y-85436798D01*
X132654649Y-85221400D01*
X132680046Y-85159782D01*
X132706278Y-85098578D01*
X132709311Y-85088783D01*
X132709313Y-85088777D01*
X132709314Y-85088771D01*
X132779824Y-84855230D01*
X132792766Y-84789870D01*
X132806613Y-84724722D01*
X132807686Y-84714516D01*
X132831492Y-84471724D01*
X132831492Y-84439634D01*
X132834959Y-84407736D01*
X132834977Y-84402527D01*
X133865004Y-84402527D01*
X133865034Y-84411254D01*
X133868280Y-84443227D01*
X133868056Y-84475344D01*
X133869057Y-84485557D01*
X133894558Y-84728177D01*
X133907954Y-84793435D01*
X133920436Y-84858868D01*
X133923401Y-84868692D01*
X133995541Y-85101739D01*
X134021385Y-85163219D01*
X134046312Y-85224916D01*
X134051129Y-85233977D01*
X134167161Y-85448575D01*
X134204431Y-85503830D01*
X134240890Y-85559545D01*
X134247376Y-85567498D01*
X134402880Y-85755470D01*
X134450186Y-85802447D01*
X134496758Y-85850005D01*
X134504665Y-85856547D01*
X134693719Y-86010736D01*
X134749242Y-86047626D01*
X134804172Y-86085237D01*
X134813194Y-86090115D01*
X134813198Y-86090118D01*
X134813202Y-86090120D01*
X135028600Y-86204649D01*
X135090218Y-86230046D01*
X135151422Y-86256278D01*
X135161217Y-86259311D01*
X135161223Y-86259313D01*
X135161229Y-86259314D01*
X135394770Y-86329824D01*
X135460130Y-86342766D01*
X135525278Y-86356613D01*
X135535484Y-86357686D01*
X135632190Y-86367168D01*
X135655915Y-86374365D01*
X135763895Y-86385000D01*
X140486105Y-86385000D01*
X140594085Y-86374365D01*
X140618445Y-86366976D01*
X140728177Y-86355442D01*
X140793435Y-86342046D01*
X140858868Y-86329564D01*
X140868692Y-86326599D01*
X141101739Y-86254459D01*
X141163219Y-86228615D01*
X141224916Y-86203688D01*
X141233977Y-86198871D01*
X141448575Y-86082839D01*
X141503830Y-86045569D01*
X141559545Y-86009110D01*
X141567498Y-86002624D01*
X141755470Y-85847120D01*
X141802447Y-85799814D01*
X141850005Y-85753242D01*
X141856547Y-85745335D01*
X142010736Y-85556281D01*
X142047626Y-85500758D01*
X142085237Y-85445828D01*
X142090115Y-85436806D01*
X142090118Y-85436802D01*
X142090120Y-85436798D01*
X142204649Y-85221400D01*
X142230046Y-85159782D01*
X142256278Y-85098578D01*
X142259311Y-85088783D01*
X142259313Y-85088777D01*
X142259314Y-85088771D01*
X142329824Y-84855230D01*
X142342766Y-84789870D01*
X142356613Y-84724722D01*
X142357686Y-84714516D01*
X142381492Y-84471724D01*
X142381492Y-84439634D01*
X142384959Y-84407736D01*
X142384996Y-84397473D01*
X142384966Y-84388746D01*
X142381720Y-84356773D01*
X142381944Y-84324656D01*
X142380943Y-84314442D01*
X142355442Y-84071823D01*
X142342045Y-84006558D01*
X142329564Y-83941132D01*
X142326599Y-83931308D01*
X142254459Y-83698261D01*
X142228641Y-83636842D01*
X142203689Y-83575084D01*
X142198871Y-83566023D01*
X142082839Y-83351426D01*
X142045565Y-83296165D01*
X142009110Y-83240455D01*
X142002624Y-83232502D01*
X141847120Y-83044530D01*
X141799814Y-82997553D01*
X141753242Y-82949995D01*
X141745335Y-82943453D01*
X141556281Y-82789264D01*
X141500773Y-82752385D01*
X141445828Y-82714763D01*
X141436801Y-82709882D01*
X141221400Y-82595351D01*
X141159810Y-82569966D01*
X141098578Y-82543722D01*
X141088775Y-82540687D01*
X140855230Y-82470176D01*
X140789863Y-82457233D01*
X140724722Y-82443387D01*
X140714516Y-82442314D01*
X140617810Y-82432832D01*
X140594085Y-82425635D01*
X140486105Y-82415000D01*
X135813895Y-82415000D01*
X135720167Y-82424231D01*
X135600079Y-82432017D01*
X135534306Y-82442799D01*
X135468458Y-82452651D01*
X135458523Y-82455221D01*
X135222590Y-82518040D01*
X135160203Y-82541377D01*
X135097482Y-82563846D01*
X135088236Y-82568298D01*
X134868998Y-82675746D01*
X134812293Y-82710781D01*
X134755169Y-82744981D01*
X134746963Y-82751144D01*
X134552770Y-82899129D01*
X134503963Y-82944499D01*
X134454557Y-82989155D01*
X134447705Y-82996794D01*
X134285955Y-83179680D01*
X134246874Y-83233687D01*
X134207100Y-83287066D01*
X134201862Y-83295891D01*
X134078715Y-83506711D01*
X134050873Y-83567269D01*
X134022219Y-83627369D01*
X134018794Y-83637043D01*
X133938941Y-83867768D01*
X133923392Y-83932579D01*
X133906957Y-83997101D01*
X133905477Y-84007256D01*
X133871959Y-84249097D01*
X133866926Y-84374917D01*
X133865041Y-84392264D01*
X133865004Y-84402527D01*
X132834977Y-84402527D01*
X132834996Y-84397473D01*
X132834966Y-84388746D01*
X132831720Y-84356773D01*
X132831944Y-84324656D01*
X132830943Y-84314442D01*
X132805442Y-84071823D01*
X132792045Y-84006558D01*
X132779564Y-83941132D01*
X132776599Y-83931308D01*
X132704459Y-83698261D01*
X132678641Y-83636842D01*
X132653689Y-83575084D01*
X132648871Y-83566023D01*
X132532839Y-83351426D01*
X132495565Y-83296165D01*
X132459110Y-83240455D01*
X132452624Y-83232502D01*
X132297120Y-83044530D01*
X132249814Y-82997553D01*
X132203242Y-82949995D01*
X132195335Y-82943453D01*
X132006281Y-82789264D01*
X131950773Y-82752385D01*
X131895828Y-82714763D01*
X131886801Y-82709882D01*
X131671400Y-82595351D01*
X131609810Y-82569966D01*
X131548578Y-82543722D01*
X131538775Y-82540687D01*
X131305230Y-82470176D01*
X131239863Y-82457233D01*
X131174722Y-82443387D01*
X131164516Y-82442314D01*
X130921723Y-82418508D01*
X130886105Y-82415000D01*
X126213895Y-82415000D01*
X126206364Y-82415742D01*
X126203965Y-82415629D01*
X126193720Y-82416221D01*
X125950079Y-82432017D01*
X125884306Y-82442799D01*
X125818458Y-82452651D01*
X125808523Y-82455221D01*
X125572590Y-82518040D01*
X125510203Y-82541377D01*
X125447482Y-82563846D01*
X125438236Y-82568298D01*
X125218998Y-82675746D01*
X125162293Y-82710781D01*
X125105169Y-82744981D01*
X125096963Y-82751144D01*
X124902770Y-82899129D01*
X124853963Y-82944499D01*
X124804557Y-82989155D01*
X124797705Y-82996794D01*
X124635955Y-83179680D01*
X124596874Y-83233687D01*
X124557100Y-83287066D01*
X124551862Y-83295891D01*
X124428715Y-83506711D01*
X124400873Y-83567269D01*
X124372219Y-83627369D01*
X124368794Y-83637043D01*
X124288941Y-83867768D01*
X124273392Y-83932579D01*
X124256957Y-83997101D01*
X124255477Y-84007256D01*
X124221959Y-84249097D01*
X124216926Y-84374917D01*
X124215041Y-84392264D01*
X124215004Y-84402527D01*
X100710000Y-84402527D01*
X100710000Y-79402527D01*
X123215004Y-79402527D01*
X123215034Y-79411254D01*
X123218280Y-79443227D01*
X123218056Y-79475344D01*
X123219057Y-79485557D01*
X123244558Y-79728177D01*
X123257954Y-79793435D01*
X123270436Y-79858868D01*
X123273401Y-79868692D01*
X123345541Y-80101739D01*
X123371385Y-80163219D01*
X123396312Y-80224916D01*
X123401129Y-80233977D01*
X123517161Y-80448575D01*
X123554431Y-80503830D01*
X123590890Y-80559545D01*
X123597376Y-80567498D01*
X123752880Y-80755470D01*
X123800186Y-80802447D01*
X123846758Y-80850005D01*
X123854665Y-80856547D01*
X124043719Y-81010736D01*
X124099242Y-81047626D01*
X124154172Y-81085237D01*
X124163194Y-81090115D01*
X124163198Y-81090118D01*
X124163202Y-81090120D01*
X124378600Y-81204649D01*
X124440218Y-81230046D01*
X124501422Y-81256278D01*
X124511217Y-81259311D01*
X124511223Y-81259313D01*
X124511229Y-81259314D01*
X124744770Y-81329824D01*
X124810130Y-81342766D01*
X124875278Y-81356613D01*
X124885484Y-81357686D01*
X125128276Y-81381492D01*
X125128277Y-81381492D01*
X125163895Y-81385000D01*
X141536105Y-81385000D01*
X141567677Y-81381890D01*
X141575344Y-81381944D01*
X141585557Y-81380943D01*
X141828177Y-81355442D01*
X141893435Y-81342046D01*
X141958868Y-81329564D01*
X141968692Y-81326599D01*
X142201739Y-81254459D01*
X142263219Y-81228615D01*
X142324916Y-81203688D01*
X142333977Y-81198871D01*
X142548575Y-81082839D01*
X142603830Y-81045569D01*
X142659545Y-81009110D01*
X142667498Y-81002624D01*
X142855470Y-80847120D01*
X142902447Y-80799814D01*
X142950005Y-80753242D01*
X142956547Y-80745335D01*
X143110736Y-80556281D01*
X143147626Y-80500758D01*
X143185237Y-80445828D01*
X143190115Y-80436806D01*
X143190118Y-80436802D01*
X143190120Y-80436798D01*
X143304649Y-80221400D01*
X143330046Y-80159782D01*
X143356278Y-80098578D01*
X143359311Y-80088783D01*
X143359313Y-80088777D01*
X143359314Y-80088771D01*
X143429824Y-79855230D01*
X143442766Y-79789870D01*
X143456613Y-79724722D01*
X143457686Y-79714516D01*
X143481492Y-79471724D01*
X143481492Y-79439634D01*
X143484959Y-79407736D01*
X143484996Y-79397473D01*
X143484966Y-79388746D01*
X143481720Y-79356773D01*
X143481944Y-79324656D01*
X143480943Y-79314442D01*
X143455442Y-79071823D01*
X143442045Y-79006558D01*
X143429564Y-78941132D01*
X143426599Y-78931308D01*
X143354459Y-78698261D01*
X143328641Y-78636842D01*
X143303689Y-78575084D01*
X143298871Y-78566023D01*
X143182839Y-78351426D01*
X143145565Y-78296165D01*
X143109110Y-78240455D01*
X143102624Y-78232502D01*
X142947120Y-78044530D01*
X142899814Y-77997553D01*
X142853242Y-77949995D01*
X142845335Y-77943453D01*
X142656281Y-77789264D01*
X142600773Y-77752385D01*
X142545828Y-77714763D01*
X142536801Y-77709882D01*
X142321400Y-77595351D01*
X142259810Y-77569966D01*
X142198578Y-77543722D01*
X142188775Y-77540687D01*
X141955230Y-77470176D01*
X141889863Y-77457233D01*
X141824722Y-77443387D01*
X141814516Y-77442314D01*
X141571723Y-77418508D01*
X141536105Y-77415000D01*
X125163895Y-77415000D01*
X125070167Y-77424231D01*
X124950079Y-77432017D01*
X124884306Y-77442799D01*
X124818458Y-77452651D01*
X124808523Y-77455221D01*
X124572590Y-77518040D01*
X124510203Y-77541377D01*
X124447482Y-77563846D01*
X124438236Y-77568298D01*
X124218998Y-77675746D01*
X124162293Y-77710781D01*
X124105169Y-77744981D01*
X124096963Y-77751144D01*
X123902770Y-77899129D01*
X123853963Y-77944499D01*
X123804557Y-77989155D01*
X123797705Y-77996794D01*
X123635955Y-78179680D01*
X123596874Y-78233687D01*
X123557100Y-78287066D01*
X123551862Y-78295891D01*
X123428715Y-78506711D01*
X123400873Y-78567269D01*
X123372219Y-78627369D01*
X123368794Y-78637043D01*
X123288941Y-78867768D01*
X123273392Y-78932579D01*
X123256957Y-78997101D01*
X123255477Y-79007256D01*
X123221959Y-79249097D01*
X123216926Y-79374917D01*
X123215041Y-79392264D01*
X123215004Y-79402527D01*
X100710000Y-79402527D01*
X100710000Y-74902527D01*
X123215004Y-74902527D01*
X123215034Y-74911254D01*
X123218280Y-74943227D01*
X123218056Y-74975344D01*
X123219057Y-74985557D01*
X123244558Y-75228177D01*
X123257954Y-75293435D01*
X123270436Y-75358868D01*
X123273401Y-75368692D01*
X123345541Y-75601739D01*
X123371385Y-75663219D01*
X123396312Y-75724916D01*
X123401129Y-75733977D01*
X123517161Y-75948575D01*
X123554431Y-76003830D01*
X123590890Y-76059545D01*
X123597376Y-76067498D01*
X123752880Y-76255470D01*
X123800186Y-76302447D01*
X123846758Y-76350005D01*
X123854665Y-76356547D01*
X124043719Y-76510736D01*
X124099242Y-76547626D01*
X124154172Y-76585237D01*
X124163194Y-76590115D01*
X124163198Y-76590118D01*
X124163202Y-76590120D01*
X124378600Y-76704649D01*
X124440218Y-76730046D01*
X124501422Y-76756278D01*
X124511217Y-76759311D01*
X124511223Y-76759313D01*
X124511229Y-76759314D01*
X124744770Y-76829824D01*
X124810130Y-76842766D01*
X124875278Y-76856613D01*
X124885484Y-76857686D01*
X125128276Y-76881492D01*
X125128277Y-76881492D01*
X125163895Y-76885000D01*
X130636105Y-76885000D01*
X130667677Y-76881890D01*
X130675344Y-76881944D01*
X130685557Y-76880943D01*
X130928177Y-76855442D01*
X130993435Y-76842046D01*
X131058868Y-76829564D01*
X131068692Y-76826599D01*
X131301739Y-76754459D01*
X131363219Y-76728615D01*
X131424916Y-76703688D01*
X131433977Y-76698871D01*
X131648575Y-76582839D01*
X131703830Y-76545569D01*
X131759545Y-76509110D01*
X131767498Y-76502624D01*
X131955470Y-76347120D01*
X132002447Y-76299814D01*
X132050005Y-76253242D01*
X132056547Y-76245335D01*
X132210736Y-76056281D01*
X132247626Y-76000758D01*
X132285237Y-75945828D01*
X132290115Y-75936806D01*
X132290118Y-75936802D01*
X132290120Y-75936798D01*
X132404649Y-75721400D01*
X132430046Y-75659782D01*
X132456278Y-75598578D01*
X132459311Y-75588783D01*
X132459313Y-75588777D01*
X132459314Y-75588771D01*
X132529824Y-75355230D01*
X132542766Y-75289870D01*
X132556613Y-75224722D01*
X132557686Y-75214516D01*
X132581492Y-74971724D01*
X132581492Y-74939634D01*
X132584959Y-74907736D01*
X132584977Y-74902527D01*
X134115004Y-74902527D01*
X134115034Y-74911254D01*
X134118280Y-74943227D01*
X134118056Y-74975344D01*
X134119057Y-74985557D01*
X134144558Y-75228177D01*
X134157954Y-75293435D01*
X134170436Y-75358868D01*
X134173401Y-75368692D01*
X134245541Y-75601739D01*
X134271385Y-75663219D01*
X134296312Y-75724916D01*
X134301129Y-75733977D01*
X134417161Y-75948575D01*
X134454431Y-76003830D01*
X134490890Y-76059545D01*
X134497376Y-76067498D01*
X134652880Y-76255470D01*
X134700186Y-76302447D01*
X134746758Y-76350005D01*
X134754665Y-76356547D01*
X134943719Y-76510736D01*
X134999242Y-76547626D01*
X135054172Y-76585237D01*
X135063194Y-76590115D01*
X135063198Y-76590118D01*
X135063202Y-76590120D01*
X135278600Y-76704649D01*
X135340218Y-76730046D01*
X135401422Y-76756278D01*
X135411217Y-76759311D01*
X135411223Y-76759313D01*
X135411229Y-76759314D01*
X135644770Y-76829824D01*
X135710130Y-76842766D01*
X135775278Y-76856613D01*
X135785484Y-76857686D01*
X136028276Y-76881492D01*
X136078277Y-76881492D01*
X136113895Y-76885000D01*
X141536105Y-76885000D01*
X141567677Y-76881890D01*
X141575344Y-76881944D01*
X141585557Y-76880943D01*
X141828177Y-76855442D01*
X141893435Y-76842046D01*
X141958868Y-76829564D01*
X141968692Y-76826599D01*
X142201739Y-76754459D01*
X142263219Y-76728615D01*
X142324916Y-76703688D01*
X142333977Y-76698871D01*
X142548575Y-76582839D01*
X142603830Y-76545569D01*
X142659545Y-76509110D01*
X142667498Y-76502624D01*
X142855470Y-76347120D01*
X142902447Y-76299814D01*
X142950005Y-76253242D01*
X142956547Y-76245335D01*
X143110736Y-76056281D01*
X143147626Y-76000758D01*
X143185237Y-75945828D01*
X143190115Y-75936806D01*
X143190118Y-75936802D01*
X143190120Y-75936798D01*
X143304649Y-75721400D01*
X143330046Y-75659782D01*
X143356278Y-75598578D01*
X143359311Y-75588783D01*
X143359313Y-75588777D01*
X143359314Y-75588771D01*
X143429824Y-75355230D01*
X143442766Y-75289870D01*
X143456613Y-75224722D01*
X143457686Y-75214516D01*
X143481492Y-74971724D01*
X143481492Y-74939634D01*
X143484959Y-74907736D01*
X143484996Y-74897473D01*
X143484966Y-74888746D01*
X143481720Y-74856773D01*
X143481944Y-74824656D01*
X143480943Y-74814442D01*
X143455442Y-74571823D01*
X143442045Y-74506558D01*
X143429564Y-74441132D01*
X143426599Y-74431308D01*
X143354459Y-74198261D01*
X143328641Y-74136842D01*
X143303689Y-74075084D01*
X143298871Y-74066023D01*
X143182839Y-73851426D01*
X143145565Y-73796165D01*
X143109110Y-73740455D01*
X143102624Y-73732502D01*
X142947120Y-73544530D01*
X142899814Y-73497553D01*
X142853242Y-73449995D01*
X142845335Y-73443453D01*
X142656281Y-73289264D01*
X142600773Y-73252385D01*
X142545828Y-73214763D01*
X142536801Y-73209882D01*
X142321400Y-73095351D01*
X142259810Y-73069966D01*
X142198578Y-73043722D01*
X142188775Y-73040687D01*
X141955230Y-72970176D01*
X141889863Y-72957233D01*
X141824722Y-72943387D01*
X141814516Y-72942314D01*
X141571723Y-72918508D01*
X141536105Y-72915000D01*
X136113895Y-72915000D01*
X136106364Y-72915742D01*
X136103965Y-72915629D01*
X136093720Y-72916221D01*
X135850079Y-72932017D01*
X135784306Y-72942799D01*
X135718458Y-72952651D01*
X135708523Y-72955221D01*
X135472590Y-73018040D01*
X135410203Y-73041377D01*
X135347482Y-73063846D01*
X135338236Y-73068298D01*
X135118998Y-73175746D01*
X135062293Y-73210781D01*
X135005169Y-73244981D01*
X134996963Y-73251144D01*
X134802770Y-73399129D01*
X134753963Y-73444499D01*
X134704557Y-73489155D01*
X134697705Y-73496794D01*
X134535955Y-73679680D01*
X134496874Y-73733687D01*
X134457100Y-73787066D01*
X134451862Y-73795891D01*
X134328715Y-74006711D01*
X134300873Y-74067269D01*
X134272219Y-74127369D01*
X134268794Y-74137043D01*
X134188941Y-74367768D01*
X134173392Y-74432579D01*
X134156957Y-74497101D01*
X134155477Y-74507256D01*
X134121959Y-74749097D01*
X134116926Y-74874917D01*
X134115041Y-74892264D01*
X134115004Y-74902527D01*
X132584977Y-74902527D01*
X132584996Y-74897473D01*
X132584966Y-74888746D01*
X132581720Y-74856773D01*
X132581944Y-74824656D01*
X132580943Y-74814442D01*
X132555442Y-74571823D01*
X132542045Y-74506558D01*
X132529564Y-74441132D01*
X132526599Y-74431308D01*
X132454459Y-74198261D01*
X132428641Y-74136842D01*
X132403689Y-74075084D01*
X132398871Y-74066023D01*
X132282839Y-73851426D01*
X132245565Y-73796165D01*
X132209110Y-73740455D01*
X132202624Y-73732502D01*
X132047120Y-73544530D01*
X131999814Y-73497553D01*
X131953242Y-73449995D01*
X131945335Y-73443453D01*
X131756281Y-73289264D01*
X131700773Y-73252385D01*
X131645828Y-73214763D01*
X131636801Y-73209882D01*
X131421400Y-73095351D01*
X131359810Y-73069966D01*
X131298578Y-73043722D01*
X131288775Y-73040687D01*
X131055230Y-72970176D01*
X130989863Y-72957233D01*
X130924722Y-72943387D01*
X130914516Y-72942314D01*
X130671723Y-72918508D01*
X130636105Y-72915000D01*
X125213895Y-72915000D01*
X125206364Y-72915742D01*
X125203965Y-72915629D01*
X125193720Y-72916221D01*
X124950079Y-72932017D01*
X124884306Y-72942799D01*
X124818458Y-72952651D01*
X124808523Y-72955221D01*
X124572590Y-73018040D01*
X124510203Y-73041377D01*
X124447482Y-73063846D01*
X124438236Y-73068298D01*
X124218998Y-73175746D01*
X124162293Y-73210781D01*
X124105169Y-73244981D01*
X124096963Y-73251144D01*
X123902770Y-73399129D01*
X123853963Y-73444499D01*
X123804557Y-73489155D01*
X123797705Y-73496794D01*
X123635955Y-73679680D01*
X123596874Y-73733687D01*
X123557100Y-73787066D01*
X123551862Y-73795891D01*
X123428715Y-74006711D01*
X123400873Y-74067269D01*
X123372219Y-74127369D01*
X123368794Y-74137043D01*
X123288941Y-74367768D01*
X123273392Y-74432579D01*
X123256957Y-74497101D01*
X123255477Y-74507256D01*
X123221959Y-74749097D01*
X123216926Y-74874917D01*
X123215041Y-74892264D01*
X123215004Y-74902527D01*
X100710000Y-74902527D01*
X100710000Y-70402527D01*
X123215004Y-70402527D01*
X123215034Y-70411254D01*
X123218280Y-70443227D01*
X123218056Y-70475344D01*
X123219057Y-70485557D01*
X123244558Y-70728177D01*
X123257954Y-70793435D01*
X123270436Y-70858868D01*
X123273401Y-70868692D01*
X123345541Y-71101739D01*
X123371385Y-71163219D01*
X123396312Y-71224916D01*
X123401129Y-71233977D01*
X123517161Y-71448575D01*
X123554431Y-71503830D01*
X123590890Y-71559545D01*
X123597376Y-71567498D01*
X123752880Y-71755470D01*
X123800186Y-71802447D01*
X123846758Y-71850005D01*
X123854665Y-71856547D01*
X124043719Y-72010736D01*
X124099242Y-72047626D01*
X124154172Y-72085237D01*
X124163194Y-72090115D01*
X124163198Y-72090118D01*
X124163202Y-72090120D01*
X124378600Y-72204649D01*
X124440218Y-72230046D01*
X124501422Y-72256278D01*
X124511217Y-72259311D01*
X124511223Y-72259313D01*
X124511229Y-72259314D01*
X124744770Y-72329824D01*
X124810130Y-72342766D01*
X124875278Y-72356613D01*
X124885484Y-72357686D01*
X125128276Y-72381492D01*
X125128277Y-72381492D01*
X125163895Y-72385000D01*
X141536105Y-72385000D01*
X141567677Y-72381890D01*
X141575344Y-72381944D01*
X141585557Y-72380943D01*
X141828177Y-72355442D01*
X141893435Y-72342046D01*
X141958868Y-72329564D01*
X141968692Y-72326599D01*
X142201739Y-72254459D01*
X142263219Y-72228615D01*
X142324916Y-72203688D01*
X142333977Y-72198871D01*
X142548575Y-72082839D01*
X142603830Y-72045569D01*
X142659545Y-72009110D01*
X142667498Y-72002624D01*
X142855470Y-71847120D01*
X142902447Y-71799814D01*
X142950005Y-71753242D01*
X142956547Y-71745335D01*
X143110736Y-71556281D01*
X143147626Y-71500758D01*
X143185237Y-71445828D01*
X143190115Y-71436806D01*
X143190118Y-71436802D01*
X143190120Y-71436798D01*
X143304649Y-71221400D01*
X143330046Y-71159782D01*
X143356278Y-71098578D01*
X143359311Y-71088783D01*
X143359313Y-71088777D01*
X143359314Y-71088771D01*
X143429824Y-70855230D01*
X143442766Y-70789870D01*
X143456613Y-70724722D01*
X143457686Y-70714516D01*
X143481492Y-70471724D01*
X143481492Y-70439634D01*
X143484959Y-70407736D01*
X143484996Y-70397473D01*
X143484966Y-70388746D01*
X143481720Y-70356773D01*
X143481944Y-70324656D01*
X143480943Y-70314442D01*
X143455442Y-70071823D01*
X143442045Y-70006558D01*
X143429564Y-69941132D01*
X143426599Y-69931308D01*
X143354459Y-69698261D01*
X143328641Y-69636842D01*
X143303689Y-69575084D01*
X143298871Y-69566023D01*
X143182839Y-69351426D01*
X143145565Y-69296165D01*
X143109110Y-69240455D01*
X143102624Y-69232502D01*
X142947120Y-69044530D01*
X142899814Y-68997553D01*
X142853242Y-68949995D01*
X142845335Y-68943453D01*
X142656281Y-68789264D01*
X142600773Y-68752385D01*
X142545828Y-68714763D01*
X142536801Y-68709882D01*
X142321400Y-68595351D01*
X142259810Y-68569966D01*
X142198578Y-68543722D01*
X142188775Y-68540687D01*
X141955230Y-68470176D01*
X141889863Y-68457233D01*
X141824722Y-68443387D01*
X141814516Y-68442314D01*
X141571723Y-68418508D01*
X141536105Y-68415000D01*
X125213895Y-68415000D01*
X125206364Y-68415742D01*
X125203965Y-68415629D01*
X125193720Y-68416221D01*
X124950079Y-68432017D01*
X124884306Y-68442799D01*
X124818458Y-68452651D01*
X124808523Y-68455221D01*
X124572590Y-68518040D01*
X124510203Y-68541377D01*
X124447482Y-68563846D01*
X124438236Y-68568298D01*
X124218998Y-68675746D01*
X124162293Y-68710781D01*
X124105169Y-68744981D01*
X124096963Y-68751144D01*
X123902770Y-68899129D01*
X123853963Y-68944499D01*
X123804557Y-68989155D01*
X123797705Y-68996794D01*
X123635955Y-69179680D01*
X123596874Y-69233687D01*
X123557100Y-69287066D01*
X123551862Y-69295891D01*
X123428715Y-69506711D01*
X123400873Y-69567269D01*
X123372219Y-69627369D01*
X123368794Y-69637043D01*
X123288941Y-69867768D01*
X123273392Y-69932579D01*
X123256957Y-69997101D01*
X123255477Y-70007256D01*
X123221959Y-70249097D01*
X123216926Y-70374917D01*
X123215041Y-70392264D01*
X123215004Y-70402527D01*
X100710000Y-70402527D01*
X100710000Y-65952527D01*
X123215004Y-65952527D01*
X123215034Y-65961254D01*
X123218280Y-65993227D01*
X123218056Y-66025344D01*
X123219057Y-66035557D01*
X123244558Y-66278177D01*
X123257954Y-66343435D01*
X123270436Y-66408868D01*
X123273401Y-66418692D01*
X123345541Y-66651739D01*
X123371385Y-66713219D01*
X123396312Y-66774916D01*
X123401129Y-66783977D01*
X123517161Y-66998575D01*
X123554431Y-67053830D01*
X123590890Y-67109545D01*
X123597376Y-67117498D01*
X123752880Y-67305470D01*
X123800186Y-67352447D01*
X123846758Y-67400005D01*
X123854665Y-67406547D01*
X124043719Y-67560736D01*
X124099242Y-67597626D01*
X124154172Y-67635237D01*
X124163194Y-67640115D01*
X124163198Y-67640118D01*
X124163202Y-67640120D01*
X124378600Y-67754649D01*
X124440218Y-67780046D01*
X124501422Y-67806278D01*
X124511217Y-67809311D01*
X124511223Y-67809313D01*
X124511229Y-67809314D01*
X124744770Y-67879824D01*
X124810130Y-67892766D01*
X124875278Y-67906613D01*
X124885484Y-67907686D01*
X125128276Y-67931492D01*
X125128277Y-67931492D01*
X125163895Y-67935000D01*
X130636105Y-67935000D01*
X130667677Y-67931890D01*
X130675344Y-67931944D01*
X130685557Y-67930943D01*
X130928177Y-67905442D01*
X130993435Y-67892046D01*
X131058868Y-67879564D01*
X131068692Y-67876599D01*
X131301739Y-67804459D01*
X131363219Y-67778615D01*
X131424916Y-67753688D01*
X131433977Y-67748871D01*
X131648575Y-67632839D01*
X131703830Y-67595569D01*
X131759545Y-67559110D01*
X131767498Y-67552624D01*
X131955470Y-67397120D01*
X132002447Y-67349814D01*
X132050005Y-67303242D01*
X132056547Y-67295335D01*
X132210736Y-67106281D01*
X132247626Y-67050758D01*
X132285237Y-66995828D01*
X132290115Y-66986806D01*
X132290118Y-66986802D01*
X132290120Y-66986798D01*
X132404649Y-66771400D01*
X132430046Y-66709782D01*
X132456278Y-66648578D01*
X132459311Y-66638783D01*
X132459313Y-66638777D01*
X132459314Y-66638771D01*
X132529824Y-66405230D01*
X132542766Y-66339870D01*
X132556613Y-66274722D01*
X132557686Y-66264516D01*
X132581492Y-66021724D01*
X132581492Y-65989634D01*
X132584959Y-65957736D01*
X132584977Y-65952527D01*
X134165004Y-65952527D01*
X134165034Y-65961254D01*
X134168280Y-65993227D01*
X134168056Y-66025344D01*
X134169057Y-66035557D01*
X134194558Y-66278177D01*
X134207954Y-66343435D01*
X134220436Y-66408868D01*
X134223401Y-66418692D01*
X134295541Y-66651739D01*
X134321385Y-66713219D01*
X134346312Y-66774916D01*
X134351129Y-66783977D01*
X134467161Y-66998575D01*
X134504431Y-67053830D01*
X134540890Y-67109545D01*
X134547376Y-67117498D01*
X134702880Y-67305470D01*
X134750186Y-67352447D01*
X134796758Y-67400005D01*
X134804665Y-67406547D01*
X134993719Y-67560736D01*
X135049242Y-67597626D01*
X135104172Y-67635237D01*
X135113194Y-67640115D01*
X135113198Y-67640118D01*
X135113202Y-67640120D01*
X135328600Y-67754649D01*
X135390218Y-67780046D01*
X135451422Y-67806278D01*
X135461217Y-67809311D01*
X135461223Y-67809313D01*
X135461229Y-67809314D01*
X135694770Y-67879824D01*
X135760130Y-67892766D01*
X135825278Y-67906613D01*
X135835484Y-67907686D01*
X136078276Y-67931492D01*
X136078277Y-67931492D01*
X136113895Y-67935000D01*
X141536105Y-67935000D01*
X141567677Y-67931890D01*
X141575344Y-67931944D01*
X141585557Y-67930943D01*
X141828177Y-67905442D01*
X141893435Y-67892046D01*
X141958868Y-67879564D01*
X141968692Y-67876599D01*
X142201739Y-67804459D01*
X142263219Y-67778615D01*
X142324916Y-67753688D01*
X142333977Y-67748871D01*
X142548575Y-67632839D01*
X142603830Y-67595569D01*
X142659545Y-67559110D01*
X142667498Y-67552624D01*
X142855470Y-67397120D01*
X142902447Y-67349814D01*
X142950005Y-67303242D01*
X142956547Y-67295335D01*
X143110736Y-67106281D01*
X143147626Y-67050758D01*
X143185237Y-66995828D01*
X143190115Y-66986806D01*
X143190118Y-66986802D01*
X143190120Y-66986798D01*
X143304649Y-66771400D01*
X143330046Y-66709782D01*
X143356278Y-66648578D01*
X143359311Y-66638783D01*
X143359313Y-66638777D01*
X143359314Y-66638771D01*
X143429824Y-66405230D01*
X143442766Y-66339870D01*
X143456613Y-66274722D01*
X143457686Y-66264516D01*
X143481492Y-66021724D01*
X143481492Y-65989634D01*
X143484959Y-65957736D01*
X143484996Y-65947473D01*
X143484966Y-65938746D01*
X143481720Y-65906773D01*
X143481944Y-65874656D01*
X143480943Y-65864442D01*
X143455442Y-65621823D01*
X143442045Y-65556558D01*
X143429564Y-65491132D01*
X143426599Y-65481308D01*
X143354459Y-65248261D01*
X143328641Y-65186842D01*
X143303689Y-65125084D01*
X143298871Y-65116023D01*
X143182839Y-64901426D01*
X143145565Y-64846165D01*
X143109110Y-64790455D01*
X143102624Y-64782502D01*
X142947120Y-64594530D01*
X142899814Y-64547553D01*
X142853242Y-64499995D01*
X142845335Y-64493453D01*
X142656281Y-64339264D01*
X142600773Y-64302385D01*
X142545828Y-64264763D01*
X142536801Y-64259882D01*
X142321400Y-64145351D01*
X142259810Y-64119966D01*
X142198578Y-64093722D01*
X142188775Y-64090687D01*
X141955230Y-64020176D01*
X141889863Y-64007233D01*
X141824722Y-63993387D01*
X141814516Y-63992314D01*
X141717810Y-63982832D01*
X141694085Y-63975635D01*
X141586105Y-63965000D01*
X136163895Y-63965000D01*
X136156364Y-63965742D01*
X136153965Y-63965629D01*
X136143720Y-63966221D01*
X135900079Y-63982017D01*
X135834306Y-63992799D01*
X135768458Y-64002651D01*
X135758523Y-64005221D01*
X135522590Y-64068040D01*
X135460203Y-64091377D01*
X135397482Y-64113846D01*
X135388236Y-64118298D01*
X135168998Y-64225746D01*
X135112293Y-64260781D01*
X135055169Y-64294981D01*
X135046963Y-64301144D01*
X134852770Y-64449129D01*
X134803963Y-64494499D01*
X134754557Y-64539155D01*
X134747705Y-64546794D01*
X134585955Y-64729680D01*
X134546874Y-64783687D01*
X134507100Y-64837066D01*
X134501862Y-64845891D01*
X134378715Y-65056711D01*
X134350873Y-65117269D01*
X134322219Y-65177369D01*
X134318794Y-65187043D01*
X134238941Y-65417768D01*
X134223392Y-65482579D01*
X134206957Y-65547101D01*
X134205477Y-65557256D01*
X134171959Y-65799097D01*
X134166926Y-65924917D01*
X134165041Y-65942264D01*
X134165004Y-65952527D01*
X132584977Y-65952527D01*
X132584996Y-65947473D01*
X132584966Y-65938746D01*
X132581720Y-65906773D01*
X132581944Y-65874656D01*
X132580943Y-65864442D01*
X132555442Y-65621823D01*
X132542045Y-65556558D01*
X132529564Y-65491132D01*
X132526599Y-65481308D01*
X132454459Y-65248261D01*
X132428641Y-65186842D01*
X132403689Y-65125084D01*
X132398871Y-65116023D01*
X132282839Y-64901426D01*
X132245565Y-64846165D01*
X132209110Y-64790455D01*
X132202624Y-64782502D01*
X132047120Y-64594530D01*
X131999814Y-64547553D01*
X131953242Y-64499995D01*
X131945335Y-64493453D01*
X131756281Y-64339264D01*
X131700773Y-64302385D01*
X131645828Y-64264763D01*
X131636801Y-64259882D01*
X131421400Y-64145351D01*
X131359810Y-64119966D01*
X131298578Y-64093722D01*
X131288775Y-64090687D01*
X131055230Y-64020176D01*
X130989863Y-64007233D01*
X130924722Y-63993387D01*
X130914516Y-63992314D01*
X130671723Y-63968508D01*
X130636105Y-63965000D01*
X125213895Y-63965000D01*
X125206364Y-63965742D01*
X125203965Y-63965629D01*
X125193720Y-63966221D01*
X124950079Y-63982017D01*
X124884306Y-63992799D01*
X124818458Y-64002651D01*
X124808523Y-64005221D01*
X124572590Y-64068040D01*
X124510203Y-64091377D01*
X124447482Y-64113846D01*
X124438236Y-64118298D01*
X124218998Y-64225746D01*
X124162293Y-64260781D01*
X124105169Y-64294981D01*
X124096963Y-64301144D01*
X123902770Y-64449129D01*
X123853963Y-64494499D01*
X123804557Y-64539155D01*
X123797705Y-64546794D01*
X123635955Y-64729680D01*
X123596874Y-64783687D01*
X123557100Y-64837066D01*
X123551862Y-64845891D01*
X123428715Y-65056711D01*
X123400873Y-65117269D01*
X123372219Y-65177369D01*
X123368794Y-65187043D01*
X123288941Y-65417768D01*
X123273392Y-65482579D01*
X123256957Y-65547101D01*
X123255477Y-65557256D01*
X123221959Y-65799097D01*
X123216926Y-65924917D01*
X123215041Y-65942264D01*
X123215004Y-65952527D01*
X100710000Y-65952527D01*
X100710000Y-61452527D01*
X123215004Y-61452527D01*
X123215034Y-61461254D01*
X123218280Y-61493227D01*
X123218056Y-61525344D01*
X123219057Y-61535557D01*
X123244558Y-61778177D01*
X123257954Y-61843435D01*
X123270436Y-61908868D01*
X123273401Y-61918692D01*
X123345541Y-62151739D01*
X123371385Y-62213219D01*
X123396312Y-62274916D01*
X123401129Y-62283977D01*
X123517161Y-62498575D01*
X123554431Y-62553830D01*
X123590890Y-62609545D01*
X123597376Y-62617498D01*
X123752880Y-62805470D01*
X123800186Y-62852447D01*
X123846758Y-62900005D01*
X123854665Y-62906547D01*
X124043719Y-63060736D01*
X124099242Y-63097626D01*
X124154172Y-63135237D01*
X124163194Y-63140115D01*
X124163198Y-63140118D01*
X124163202Y-63140120D01*
X124378600Y-63254649D01*
X124440218Y-63280046D01*
X124501422Y-63306278D01*
X124511217Y-63309311D01*
X124511223Y-63309313D01*
X124511229Y-63309314D01*
X124744770Y-63379824D01*
X124810130Y-63392766D01*
X124875278Y-63406613D01*
X124885484Y-63407686D01*
X125128276Y-63431492D01*
X125128277Y-63431492D01*
X125163895Y-63435000D01*
X141536105Y-63435000D01*
X141567677Y-63431890D01*
X141575344Y-63431944D01*
X141585557Y-63430943D01*
X141828177Y-63405442D01*
X141893435Y-63392046D01*
X141958868Y-63379564D01*
X141968692Y-63376599D01*
X142201739Y-63304459D01*
X142263219Y-63278615D01*
X142324916Y-63253688D01*
X142333977Y-63248871D01*
X142548575Y-63132839D01*
X142603830Y-63095569D01*
X142659545Y-63059110D01*
X142667498Y-63052624D01*
X142855470Y-62897120D01*
X142902447Y-62849814D01*
X142950005Y-62803242D01*
X142956547Y-62795335D01*
X143110736Y-62606281D01*
X143147626Y-62550758D01*
X143185237Y-62495828D01*
X143190115Y-62486806D01*
X143190118Y-62486802D01*
X143190120Y-62486798D01*
X143304649Y-62271400D01*
X143330046Y-62209782D01*
X143356278Y-62148578D01*
X143359311Y-62138783D01*
X143359313Y-62138777D01*
X143359314Y-62138771D01*
X143429824Y-61905230D01*
X143442766Y-61839870D01*
X143456613Y-61774722D01*
X143457686Y-61764516D01*
X143481492Y-61521724D01*
X143481492Y-61489634D01*
X143484959Y-61457736D01*
X143484996Y-61447473D01*
X143484966Y-61438746D01*
X143481720Y-61406773D01*
X143481944Y-61374656D01*
X143480943Y-61364442D01*
X143455442Y-61121823D01*
X143442045Y-61056558D01*
X143429564Y-60991132D01*
X143426599Y-60981308D01*
X143354459Y-60748261D01*
X143328641Y-60686842D01*
X143303689Y-60625084D01*
X143298871Y-60616023D01*
X143182839Y-60401426D01*
X143145565Y-60346165D01*
X143109110Y-60290455D01*
X143102624Y-60282502D01*
X142947120Y-60094530D01*
X142899814Y-60047553D01*
X142853242Y-59999995D01*
X142845335Y-59993453D01*
X142656281Y-59839264D01*
X142600773Y-59802385D01*
X142545828Y-59764763D01*
X142536801Y-59759882D01*
X142321400Y-59645351D01*
X142259810Y-59619966D01*
X142198578Y-59593722D01*
X142188775Y-59590687D01*
X141955230Y-59520176D01*
X141889863Y-59507233D01*
X141824722Y-59493387D01*
X141814516Y-59492314D01*
X141571723Y-59468508D01*
X141536105Y-59465000D01*
X125213895Y-59465000D01*
X125206364Y-59465742D01*
X125203965Y-59465629D01*
X125193720Y-59466221D01*
X124950079Y-59482017D01*
X124884306Y-59492799D01*
X124818458Y-59502651D01*
X124808523Y-59505221D01*
X124572590Y-59568040D01*
X124510203Y-59591377D01*
X124447482Y-59613846D01*
X124438236Y-59618298D01*
X124218998Y-59725746D01*
X124162293Y-59760781D01*
X124105169Y-59794981D01*
X124096963Y-59801144D01*
X123902770Y-59949129D01*
X123853963Y-59994499D01*
X123804557Y-60039155D01*
X123797705Y-60046794D01*
X123635955Y-60229680D01*
X123596874Y-60283687D01*
X123557100Y-60337066D01*
X123551862Y-60345891D01*
X123428715Y-60556711D01*
X123400873Y-60617269D01*
X123372219Y-60677369D01*
X123368794Y-60687043D01*
X123288941Y-60917768D01*
X123273392Y-60982579D01*
X123256957Y-61047101D01*
X123255477Y-61057256D01*
X123221959Y-61299097D01*
X123216926Y-61424917D01*
X123215041Y-61442264D01*
X123215004Y-61452527D01*
X100710000Y-61452527D01*
X100710000Y-56452527D01*
X124265004Y-56452527D01*
X124265034Y-56461254D01*
X124268280Y-56493227D01*
X124268056Y-56525344D01*
X124269057Y-56535557D01*
X124294558Y-56778177D01*
X124307954Y-56843435D01*
X124320436Y-56908868D01*
X124323401Y-56918692D01*
X124395541Y-57151739D01*
X124421385Y-57213219D01*
X124446312Y-57274916D01*
X124451129Y-57283977D01*
X124567161Y-57498575D01*
X124604431Y-57553830D01*
X124640890Y-57609545D01*
X124647376Y-57617498D01*
X124802880Y-57805470D01*
X124850186Y-57852447D01*
X124896758Y-57900005D01*
X124904665Y-57906547D01*
X125093719Y-58060736D01*
X125149242Y-58097626D01*
X125204172Y-58135237D01*
X125213194Y-58140115D01*
X125213198Y-58140118D01*
X125213202Y-58140120D01*
X125428600Y-58254649D01*
X125490218Y-58280046D01*
X125551422Y-58306278D01*
X125561217Y-58309311D01*
X125561223Y-58309313D01*
X125561229Y-58309314D01*
X125794770Y-58379824D01*
X125860130Y-58392766D01*
X125925278Y-58406613D01*
X125935484Y-58407686D01*
X126178276Y-58431492D01*
X126178277Y-58431492D01*
X126213895Y-58435000D01*
X130886105Y-58435000D01*
X130917677Y-58431890D01*
X130925344Y-58431944D01*
X130935557Y-58430943D01*
X131178177Y-58405442D01*
X131243435Y-58392046D01*
X131308868Y-58379564D01*
X131318692Y-58376599D01*
X131551739Y-58304459D01*
X131613219Y-58278615D01*
X131674916Y-58253688D01*
X131683977Y-58248871D01*
X131898575Y-58132839D01*
X131953830Y-58095569D01*
X132009545Y-58059110D01*
X132017498Y-58052624D01*
X132205470Y-57897120D01*
X132252447Y-57849814D01*
X132300005Y-57803242D01*
X132306547Y-57795335D01*
X132460736Y-57606281D01*
X132497626Y-57550758D01*
X132535237Y-57495828D01*
X132540115Y-57486806D01*
X132540118Y-57486802D01*
X132540120Y-57486798D01*
X132654649Y-57271400D01*
X132680046Y-57209782D01*
X132706278Y-57148578D01*
X132709311Y-57138783D01*
X132709313Y-57138777D01*
X132709314Y-57138771D01*
X132779824Y-56905230D01*
X132792766Y-56839870D01*
X132806613Y-56774722D01*
X132807686Y-56764516D01*
X132831492Y-56521724D01*
X132831492Y-56489634D01*
X132834959Y-56457736D01*
X132834977Y-56452527D01*
X133865004Y-56452527D01*
X133865034Y-56461254D01*
X133868280Y-56493227D01*
X133868056Y-56525344D01*
X133869057Y-56535557D01*
X133894558Y-56778177D01*
X133907954Y-56843435D01*
X133920436Y-56908868D01*
X133923401Y-56918692D01*
X133995541Y-57151739D01*
X134021385Y-57213219D01*
X134046312Y-57274916D01*
X134051129Y-57283977D01*
X134167161Y-57498575D01*
X134204431Y-57553830D01*
X134240890Y-57609545D01*
X134247376Y-57617498D01*
X134402880Y-57805470D01*
X134450186Y-57852447D01*
X134496758Y-57900005D01*
X134504665Y-57906547D01*
X134693719Y-58060736D01*
X134749242Y-58097626D01*
X134804172Y-58135237D01*
X134813194Y-58140115D01*
X134813198Y-58140118D01*
X134813202Y-58140120D01*
X135028600Y-58254649D01*
X135090218Y-58280046D01*
X135151422Y-58306278D01*
X135161217Y-58309311D01*
X135161223Y-58309313D01*
X135161229Y-58309314D01*
X135394770Y-58379824D01*
X135460130Y-58392766D01*
X135525278Y-58406613D01*
X135535484Y-58407686D01*
X135778276Y-58431492D01*
X135778277Y-58431492D01*
X135813895Y-58435000D01*
X140136105Y-58435000D01*
X140167677Y-58431890D01*
X140175344Y-58431944D01*
X140185557Y-58430943D01*
X140428177Y-58405442D01*
X140493435Y-58392046D01*
X140558868Y-58379564D01*
X140568692Y-58376599D01*
X140801739Y-58304459D01*
X140863219Y-58278615D01*
X140924916Y-58253688D01*
X140933977Y-58248871D01*
X141148575Y-58132839D01*
X141203830Y-58095569D01*
X141259545Y-58059110D01*
X141267498Y-58052624D01*
X141455470Y-57897120D01*
X141502447Y-57849814D01*
X141550005Y-57803242D01*
X141556547Y-57795335D01*
X141710736Y-57606281D01*
X141747626Y-57550758D01*
X141785237Y-57495828D01*
X141790115Y-57486806D01*
X141790118Y-57486802D01*
X141790120Y-57486798D01*
X141904649Y-57271400D01*
X141930046Y-57209782D01*
X141956278Y-57148578D01*
X141959311Y-57138783D01*
X141959313Y-57138777D01*
X141959314Y-57138771D01*
X142029824Y-56905230D01*
X142042766Y-56839870D01*
X142056613Y-56774722D01*
X142057686Y-56764516D01*
X142081492Y-56521724D01*
X142081492Y-56489634D01*
X142084959Y-56457736D01*
X142084996Y-56447473D01*
X142084966Y-56438746D01*
X142081720Y-56406773D01*
X142081944Y-56374656D01*
X142080943Y-56364442D01*
X142055442Y-56121823D01*
X142042045Y-56056558D01*
X142029564Y-55991132D01*
X142026599Y-55981308D01*
X141954459Y-55748261D01*
X141928641Y-55686842D01*
X141903689Y-55625084D01*
X141898871Y-55616023D01*
X141782839Y-55401426D01*
X141745565Y-55346165D01*
X141709110Y-55290455D01*
X141702624Y-55282502D01*
X141547120Y-55094530D01*
X141499814Y-55047553D01*
X141453242Y-54999995D01*
X141445335Y-54993453D01*
X141256281Y-54839264D01*
X141200773Y-54802385D01*
X141145828Y-54764763D01*
X141136801Y-54759882D01*
X140921400Y-54645351D01*
X140859810Y-54619966D01*
X140798578Y-54593722D01*
X140788775Y-54590687D01*
X140555230Y-54520176D01*
X140489863Y-54507233D01*
X140424722Y-54493387D01*
X140414516Y-54492314D01*
X140171723Y-54468508D01*
X140136105Y-54465000D01*
X135863895Y-54465000D01*
X135856364Y-54465742D01*
X135853965Y-54465629D01*
X135843720Y-54466221D01*
X135600079Y-54482017D01*
X135534306Y-54492799D01*
X135468458Y-54502651D01*
X135458523Y-54505221D01*
X135222590Y-54568040D01*
X135160203Y-54591377D01*
X135097482Y-54613846D01*
X135088236Y-54618298D01*
X134868998Y-54725746D01*
X134812293Y-54760781D01*
X134755169Y-54794981D01*
X134746963Y-54801144D01*
X134552770Y-54949129D01*
X134503963Y-54994499D01*
X134454557Y-55039155D01*
X134447705Y-55046794D01*
X134285955Y-55229680D01*
X134246874Y-55283687D01*
X134207100Y-55337066D01*
X134201862Y-55345891D01*
X134078715Y-55556711D01*
X134050873Y-55617269D01*
X134022219Y-55677369D01*
X134018794Y-55687043D01*
X133938941Y-55917768D01*
X133923392Y-55982579D01*
X133906957Y-56047101D01*
X133905477Y-56057256D01*
X133871959Y-56299097D01*
X133866926Y-56424917D01*
X133865041Y-56442264D01*
X133865004Y-56452527D01*
X132834977Y-56452527D01*
X132834996Y-56447473D01*
X132834966Y-56438746D01*
X132831720Y-56406773D01*
X132831944Y-56374656D01*
X132830943Y-56364442D01*
X132805442Y-56121823D01*
X132792045Y-56056558D01*
X132779564Y-55991132D01*
X132776599Y-55981308D01*
X132704459Y-55748261D01*
X132678641Y-55686842D01*
X132653689Y-55625084D01*
X132648871Y-55616023D01*
X132532839Y-55401426D01*
X132495565Y-55346165D01*
X132459110Y-55290455D01*
X132452624Y-55282502D01*
X132297120Y-55094530D01*
X132249814Y-55047553D01*
X132203242Y-54999995D01*
X132195335Y-54993453D01*
X132006281Y-54839264D01*
X131950773Y-54802385D01*
X131895828Y-54764763D01*
X131886801Y-54759882D01*
X131671400Y-54645351D01*
X131609810Y-54619966D01*
X131548578Y-54593722D01*
X131538775Y-54590687D01*
X131305230Y-54520176D01*
X131239863Y-54507233D01*
X131174722Y-54493387D01*
X131164516Y-54492314D01*
X130921723Y-54468508D01*
X130886105Y-54465000D01*
X126263895Y-54465000D01*
X126256364Y-54465742D01*
X126253965Y-54465629D01*
X126243720Y-54466221D01*
X126000079Y-54482017D01*
X125934306Y-54492799D01*
X125868458Y-54502651D01*
X125858523Y-54505221D01*
X125622590Y-54568040D01*
X125560203Y-54591377D01*
X125497482Y-54613846D01*
X125488236Y-54618298D01*
X125268998Y-54725746D01*
X125212293Y-54760781D01*
X125155169Y-54794981D01*
X125146963Y-54801144D01*
X124952770Y-54949129D01*
X124903963Y-54994499D01*
X124854557Y-55039155D01*
X124847705Y-55046794D01*
X124685955Y-55229680D01*
X124646874Y-55283687D01*
X124607100Y-55337066D01*
X124601862Y-55345891D01*
X124478715Y-55556711D01*
X124450873Y-55617269D01*
X124422219Y-55677369D01*
X124418794Y-55687043D01*
X124338941Y-55917768D01*
X124323392Y-55982579D01*
X124306957Y-56047101D01*
X124305477Y-56057256D01*
X124271959Y-56299097D01*
X124266926Y-56424917D01*
X124265041Y-56442264D01*
X124265004Y-56452527D01*
X100710000Y-56452527D01*
X100710000Y-53564375D01*
X102865320Y-53564375D01*
X102865320Y-53935625D01*
X102937747Y-54299741D01*
X103079818Y-54642731D01*
X103286074Y-54951413D01*
X103548587Y-55213926D01*
X103857269Y-55420182D01*
X104200259Y-55562253D01*
X104564375Y-55634680D01*
X104935625Y-55634680D01*
X105299741Y-55562253D01*
X105642731Y-55420182D01*
X105951413Y-55213926D01*
X106213926Y-54951413D01*
X106420182Y-54642731D01*
X106562253Y-54299741D01*
X106634680Y-53935625D01*
X106634680Y-53564375D01*
X106562253Y-53200259D01*
X106420182Y-52857269D01*
X106213926Y-52548587D01*
X105951413Y-52286074D01*
X105642731Y-52079818D01*
X105299741Y-51937747D01*
X104935625Y-51865320D01*
X104564375Y-51865320D01*
X104200259Y-51937747D01*
X103857269Y-52079818D01*
X103548587Y-52286074D01*
X103286074Y-52548587D01*
X103079818Y-52857269D01*
X102937747Y-53200259D01*
X102865320Y-53564375D01*
X100710000Y-53564375D01*
X100710000Y-50710000D01*
X124383281Y-50710000D01*
X124217885Y-50820514D01*
G36*
X125467616Y-88012272D02*
G01*
X125540998Y-88042668D01*
X125607040Y-88086795D01*
X125663205Y-88142960D01*
X125707332Y-88209002D01*
X125737728Y-88282384D01*
X125753224Y-88360286D01*
X125753224Y-88439714D01*
X125737728Y-88517616D01*
X125707332Y-88590998D01*
X125663205Y-88657040D01*
X125607040Y-88713205D01*
X125540998Y-88757332D01*
X125467616Y-88787728D01*
X125389714Y-88803224D01*
X125310286Y-88803224D01*
X125232384Y-88787728D01*
X125159002Y-88757332D01*
X125092960Y-88713205D01*
X125036795Y-88657040D01*
X124992668Y-88590998D01*
X124962272Y-88517616D01*
X124946776Y-88439714D01*
X124946776Y-88360286D01*
X124962272Y-88282384D01*
X124992668Y-88209002D01*
X125036795Y-88142960D01*
X125092960Y-88086795D01*
X125159002Y-88042668D01*
X125232384Y-88012272D01*
X125310286Y-87996776D01*
X125389714Y-87996776D01*
X125467616Y-88012272D01*
G37*
X125467616Y-88012272D02*
X125540998Y-88042668D01*
X125607040Y-88086795D01*
X125663205Y-88142960D01*
X125707332Y-88209002D01*
X125737728Y-88282384D01*
X125753224Y-88360286D01*
X125753224Y-88439714D01*
X125737728Y-88517616D01*
X125707332Y-88590998D01*
X125663205Y-88657040D01*
X125607040Y-88713205D01*
X125540998Y-88757332D01*
X125467616Y-88787728D01*
X125389714Y-88803224D01*
X125310286Y-88803224D01*
X125232384Y-88787728D01*
X125159002Y-88757332D01*
X125092960Y-88713205D01*
X125036795Y-88657040D01*
X124992668Y-88590998D01*
X124962272Y-88517616D01*
X124946776Y-88439714D01*
X124946776Y-88360286D01*
X124962272Y-88282384D01*
X124992668Y-88209002D01*
X125036795Y-88142960D01*
X125092960Y-88086795D01*
X125159002Y-88042668D01*
X125232384Y-88012272D01*
X125310286Y-87996776D01*
X125389714Y-87996776D01*
X125467616Y-88012272D01*
G36*
X141461189Y-88033459D02*
G01*
X141530561Y-88062194D01*
X141592994Y-88103911D01*
X141646089Y-88157006D01*
X141687806Y-88219439D01*
X141716541Y-88288811D01*
X141731190Y-88362456D01*
X141731190Y-88437544D01*
X141716541Y-88511189D01*
X141687806Y-88580561D01*
X141646089Y-88642994D01*
X141592994Y-88696089D01*
X141530561Y-88737806D01*
X141461189Y-88766541D01*
X141387544Y-88781190D01*
X141312456Y-88781190D01*
X141238811Y-88766541D01*
X141169439Y-88737806D01*
X141107006Y-88696089D01*
X141053911Y-88642994D01*
X141012194Y-88580561D01*
X140983459Y-88511189D01*
X140968810Y-88437544D01*
X140968810Y-88362456D01*
X140983459Y-88288811D01*
X141012194Y-88219439D01*
X141053911Y-88157006D01*
X141107006Y-88103911D01*
X141169439Y-88062194D01*
X141238811Y-88033459D01*
X141312456Y-88018810D01*
X141387544Y-88018810D01*
X141461189Y-88033459D01*
G37*
X141461189Y-88033459D02*
X141530561Y-88062194D01*
X141592994Y-88103911D01*
X141646089Y-88157006D01*
X141687806Y-88219439D01*
X141716541Y-88288811D01*
X141731190Y-88362456D01*
X141731190Y-88437544D01*
X141716541Y-88511189D01*
X141687806Y-88580561D01*
X141646089Y-88642994D01*
X141592994Y-88696089D01*
X141530561Y-88737806D01*
X141461189Y-88766541D01*
X141387544Y-88781190D01*
X141312456Y-88781190D01*
X141238811Y-88766541D01*
X141169439Y-88737806D01*
X141107006Y-88696089D01*
X141053911Y-88642994D01*
X141012194Y-88580561D01*
X140983459Y-88511189D01*
X140968810Y-88437544D01*
X140968810Y-88362456D01*
X140983459Y-88288811D01*
X141012194Y-88219439D01*
X141053911Y-88157006D01*
X141107006Y-88103911D01*
X141169439Y-88062194D01*
X141238811Y-88033459D01*
X141312456Y-88018810D01*
X141387544Y-88018810D01*
X141461189Y-88033459D01*
G36*
X135671649Y-88390647D02*
G01*
X135692481Y-88396937D01*
X135711689Y-88407150D01*
X135728550Y-88420901D01*
X135742417Y-88437663D01*
X135752766Y-88456803D01*
X135759198Y-88477582D01*
X135764050Y-88523746D01*
X135759353Y-88571649D01*
X135753063Y-88592481D01*
X135742849Y-88611691D01*
X135729101Y-88628548D01*
X135712335Y-88642418D01*
X135693198Y-88652765D01*
X135672418Y-88659198D01*
X135617213Y-88665000D01*
X131085945Y-88665000D01*
X131028351Y-88659353D01*
X131007519Y-88653063D01*
X130988309Y-88642849D01*
X130971452Y-88629101D01*
X130957582Y-88612335D01*
X130947235Y-88593198D01*
X130940802Y-88572418D01*
X130935950Y-88526254D01*
X130940647Y-88478351D01*
X130946937Y-88457519D01*
X130957150Y-88438311D01*
X130970901Y-88421450D01*
X130987663Y-88407583D01*
X131006803Y-88397234D01*
X131027582Y-88390802D01*
X131082787Y-88385000D01*
X135614055Y-88385000D01*
X135671649Y-88390647D01*
G37*
X135671649Y-88390647D02*
X135692481Y-88396937D01*
X135711689Y-88407150D01*
X135728550Y-88420901D01*
X135742417Y-88437663D01*
X135752766Y-88456803D01*
X135759198Y-88477582D01*
X135764050Y-88523746D01*
X135759353Y-88571649D01*
X135753063Y-88592481D01*
X135742849Y-88611691D01*
X135729101Y-88628548D01*
X135712335Y-88642418D01*
X135693198Y-88652765D01*
X135672418Y-88659198D01*
X135617213Y-88665000D01*
X131085945Y-88665000D01*
X131028351Y-88659353D01*
X131007519Y-88653063D01*
X130988309Y-88642849D01*
X130971452Y-88629101D01*
X130957582Y-88612335D01*
X130947235Y-88593198D01*
X130940802Y-88572418D01*
X130935950Y-88526254D01*
X130940647Y-88478351D01*
X130946937Y-88457519D01*
X130957150Y-88438311D01*
X130970901Y-88421450D01*
X130987663Y-88407583D01*
X131006803Y-88397234D01*
X131027582Y-88390802D01*
X131082787Y-88385000D01*
X135614055Y-88385000D01*
X135671649Y-88390647D01*
G36*
X140499347Y-83898266D02*
G01*
X140594908Y-83927117D01*
X140683044Y-83973979D01*
X140760403Y-84037073D01*
X140824032Y-84113987D01*
X140871510Y-84201795D01*
X140901030Y-84297158D01*
X140911651Y-84398211D01*
X140901734Y-84499347D01*
X140872883Y-84594908D01*
X140826021Y-84683044D01*
X140762927Y-84760403D01*
X140686013Y-84824033D01*
X140598206Y-84871509D01*
X140502842Y-84901029D01*
X140369925Y-84915000D01*
X135885946Y-84915000D01*
X135750653Y-84901734D01*
X135655092Y-84872883D01*
X135566956Y-84826021D01*
X135489597Y-84762927D01*
X135425967Y-84686013D01*
X135378491Y-84598206D01*
X135348971Y-84502842D01*
X135336839Y-84387422D01*
X135351665Y-84280446D01*
X135384378Y-84185929D01*
X135434823Y-84099569D01*
X135501086Y-84024648D01*
X135580641Y-83964023D01*
X135670452Y-83920007D01*
X135767098Y-83894275D01*
X135910151Y-83885000D01*
X140364054Y-83885000D01*
X140499347Y-83898266D01*
G37*
X140499347Y-83898266D02*
X140594908Y-83927117D01*
X140683044Y-83973979D01*
X140760403Y-84037073D01*
X140824032Y-84113987D01*
X140871510Y-84201795D01*
X140901030Y-84297158D01*
X140911651Y-84398211D01*
X140901734Y-84499347D01*
X140872883Y-84594908D01*
X140826021Y-84683044D01*
X140762927Y-84760403D01*
X140686013Y-84824033D01*
X140598206Y-84871509D01*
X140502842Y-84901029D01*
X140369925Y-84915000D01*
X135885946Y-84915000D01*
X135750653Y-84901734D01*
X135655092Y-84872883D01*
X135566956Y-84826021D01*
X135489597Y-84762927D01*
X135425967Y-84686013D01*
X135378491Y-84598206D01*
X135348971Y-84502842D01*
X135336839Y-84387422D01*
X135351665Y-84280446D01*
X135384378Y-84185929D01*
X135434823Y-84099569D01*
X135501086Y-84024648D01*
X135580641Y-83964023D01*
X135670452Y-83920007D01*
X135767098Y-83894275D01*
X135910151Y-83885000D01*
X140364054Y-83885000D01*
X140499347Y-83898266D01*
G36*
X130949347Y-83898266D02*
G01*
X131044908Y-83927117D01*
X131133044Y-83973979D01*
X131210403Y-84037073D01*
X131274032Y-84113987D01*
X131321510Y-84201795D01*
X131351030Y-84297158D01*
X131361651Y-84398211D01*
X131351734Y-84499347D01*
X131322883Y-84594908D01*
X131276021Y-84683044D01*
X131212927Y-84760403D01*
X131136013Y-84824033D01*
X131048206Y-84871509D01*
X130952842Y-84901029D01*
X130819925Y-84915000D01*
X126235946Y-84915000D01*
X126100653Y-84901734D01*
X126005092Y-84872883D01*
X125916956Y-84826021D01*
X125839597Y-84762927D01*
X125775967Y-84686013D01*
X125728491Y-84598206D01*
X125698971Y-84502842D01*
X125686839Y-84387422D01*
X125701665Y-84280446D01*
X125734378Y-84185929D01*
X125784823Y-84099569D01*
X125851086Y-84024648D01*
X125930641Y-83964023D01*
X126020452Y-83920007D01*
X126117098Y-83894275D01*
X126260151Y-83885000D01*
X130814054Y-83885000D01*
X130949347Y-83898266D01*
G37*
X130949347Y-83898266D02*
X131044908Y-83927117D01*
X131133044Y-83973979D01*
X131210403Y-84037073D01*
X131274032Y-84113987D01*
X131321510Y-84201795D01*
X131351030Y-84297158D01*
X131361651Y-84398211D01*
X131351734Y-84499347D01*
X131322883Y-84594908D01*
X131276021Y-84683044D01*
X131212927Y-84760403D01*
X131136013Y-84824033D01*
X131048206Y-84871509D01*
X130952842Y-84901029D01*
X130819925Y-84915000D01*
X126235946Y-84915000D01*
X126100653Y-84901734D01*
X126005092Y-84872883D01*
X125916956Y-84826021D01*
X125839597Y-84762927D01*
X125775967Y-84686013D01*
X125728491Y-84598206D01*
X125698971Y-84502842D01*
X125686839Y-84387422D01*
X125701665Y-84280446D01*
X125734378Y-84185929D01*
X125784823Y-84099569D01*
X125851086Y-84024648D01*
X125930641Y-83964023D01*
X126020452Y-83920007D01*
X126117098Y-83894275D01*
X126260151Y-83885000D01*
X130814054Y-83885000D01*
X130949347Y-83898266D01*
G36*
X141599347Y-78898266D02*
G01*
X141694908Y-78927117D01*
X141783044Y-78973979D01*
X141860403Y-79037073D01*
X141924032Y-79113987D01*
X141971510Y-79201795D01*
X142001030Y-79297158D01*
X142011651Y-79398211D01*
X142001734Y-79499347D01*
X141972883Y-79594908D01*
X141926021Y-79683044D01*
X141862927Y-79760403D01*
X141786013Y-79824033D01*
X141698206Y-79871509D01*
X141602842Y-79901029D01*
X141469925Y-79915000D01*
X125235946Y-79915000D01*
X125100653Y-79901734D01*
X125005092Y-79872883D01*
X124916956Y-79826021D01*
X124839597Y-79762927D01*
X124775967Y-79686013D01*
X124728491Y-79598206D01*
X124698971Y-79502842D01*
X124686839Y-79387422D01*
X124701665Y-79280446D01*
X124734378Y-79185929D01*
X124784823Y-79099569D01*
X124851086Y-79024648D01*
X124930641Y-78964023D01*
X125020452Y-78920007D01*
X125117098Y-78894275D01*
X125260151Y-78885000D01*
X141464054Y-78885000D01*
X141599347Y-78898266D01*
G37*
X141599347Y-78898266D02*
X141694908Y-78927117D01*
X141783044Y-78973979D01*
X141860403Y-79037073D01*
X141924032Y-79113987D01*
X141971510Y-79201795D01*
X142001030Y-79297158D01*
X142011651Y-79398211D01*
X142001734Y-79499347D01*
X141972883Y-79594908D01*
X141926021Y-79683044D01*
X141862927Y-79760403D01*
X141786013Y-79824033D01*
X141698206Y-79871509D01*
X141602842Y-79901029D01*
X141469925Y-79915000D01*
X125235946Y-79915000D01*
X125100653Y-79901734D01*
X125005092Y-79872883D01*
X124916956Y-79826021D01*
X124839597Y-79762927D01*
X124775967Y-79686013D01*
X124728491Y-79598206D01*
X124698971Y-79502842D01*
X124686839Y-79387422D01*
X124701665Y-79280446D01*
X124734378Y-79185929D01*
X124784823Y-79099569D01*
X124851086Y-79024648D01*
X124930641Y-78964023D01*
X125020452Y-78920007D01*
X125117098Y-78894275D01*
X125260151Y-78885000D01*
X141464054Y-78885000D01*
X141599347Y-78898266D01*
G36*
X141599347Y-74398266D02*
G01*
X141694908Y-74427117D01*
X141783044Y-74473979D01*
X141860403Y-74537073D01*
X141924032Y-74613987D01*
X141971510Y-74701795D01*
X142001030Y-74797158D01*
X142011651Y-74898211D01*
X142001734Y-74999347D01*
X141972883Y-75094908D01*
X141926021Y-75183044D01*
X141862927Y-75260403D01*
X141786013Y-75324033D01*
X141698206Y-75371509D01*
X141602842Y-75401029D01*
X141469925Y-75415000D01*
X136135946Y-75415000D01*
X136000653Y-75401734D01*
X135905092Y-75372883D01*
X135816956Y-75326021D01*
X135739597Y-75262927D01*
X135675967Y-75186013D01*
X135628491Y-75098206D01*
X135598971Y-75002842D01*
X135586839Y-74887422D01*
X135601665Y-74780446D01*
X135634378Y-74685929D01*
X135684823Y-74599569D01*
X135751086Y-74524648D01*
X135830641Y-74464023D01*
X135920452Y-74420007D01*
X136017098Y-74394275D01*
X136160151Y-74385000D01*
X141464054Y-74385000D01*
X141599347Y-74398266D01*
G37*
X141599347Y-74398266D02*
X141694908Y-74427117D01*
X141783044Y-74473979D01*
X141860403Y-74537073D01*
X141924032Y-74613987D01*
X141971510Y-74701795D01*
X142001030Y-74797158D01*
X142011651Y-74898211D01*
X142001734Y-74999347D01*
X141972883Y-75094908D01*
X141926021Y-75183044D01*
X141862927Y-75260403D01*
X141786013Y-75324033D01*
X141698206Y-75371509D01*
X141602842Y-75401029D01*
X141469925Y-75415000D01*
X136135946Y-75415000D01*
X136000653Y-75401734D01*
X135905092Y-75372883D01*
X135816956Y-75326021D01*
X135739597Y-75262927D01*
X135675967Y-75186013D01*
X135628491Y-75098206D01*
X135598971Y-75002842D01*
X135586839Y-74887422D01*
X135601665Y-74780446D01*
X135634378Y-74685929D01*
X135684823Y-74599569D01*
X135751086Y-74524648D01*
X135830641Y-74464023D01*
X135920452Y-74420007D01*
X136017098Y-74394275D01*
X136160151Y-74385000D01*
X141464054Y-74385000D01*
X141599347Y-74398266D01*
G36*
X130699347Y-74398266D02*
G01*
X130794908Y-74427117D01*
X130883044Y-74473979D01*
X130960403Y-74537073D01*
X131024032Y-74613987D01*
X131071510Y-74701795D01*
X131101030Y-74797158D01*
X131111651Y-74898211D01*
X131101734Y-74999347D01*
X131072883Y-75094908D01*
X131026021Y-75183044D01*
X130962927Y-75260403D01*
X130886013Y-75324033D01*
X130798206Y-75371509D01*
X130702842Y-75401029D01*
X130569925Y-75415000D01*
X125235946Y-75415000D01*
X125100653Y-75401734D01*
X125005092Y-75372883D01*
X124916956Y-75326021D01*
X124839597Y-75262927D01*
X124775967Y-75186013D01*
X124728491Y-75098206D01*
X124698971Y-75002842D01*
X124686839Y-74887422D01*
X124701665Y-74780446D01*
X124734378Y-74685929D01*
X124784823Y-74599569D01*
X124851086Y-74524648D01*
X124930641Y-74464023D01*
X125020452Y-74420007D01*
X125117098Y-74394275D01*
X125260151Y-74385000D01*
X130564054Y-74385000D01*
X130699347Y-74398266D01*
G37*
X130699347Y-74398266D02*
X130794908Y-74427117D01*
X130883044Y-74473979D01*
X130960403Y-74537073D01*
X131024032Y-74613987D01*
X131071510Y-74701795D01*
X131101030Y-74797158D01*
X131111651Y-74898211D01*
X131101734Y-74999347D01*
X131072883Y-75094908D01*
X131026021Y-75183044D01*
X130962927Y-75260403D01*
X130886013Y-75324033D01*
X130798206Y-75371509D01*
X130702842Y-75401029D01*
X130569925Y-75415000D01*
X125235946Y-75415000D01*
X125100653Y-75401734D01*
X125005092Y-75372883D01*
X124916956Y-75326021D01*
X124839597Y-75262927D01*
X124775967Y-75186013D01*
X124728491Y-75098206D01*
X124698971Y-75002842D01*
X124686839Y-74887422D01*
X124701665Y-74780446D01*
X124734378Y-74685929D01*
X124784823Y-74599569D01*
X124851086Y-74524648D01*
X124930641Y-74464023D01*
X125020452Y-74420007D01*
X125117098Y-74394275D01*
X125260151Y-74385000D01*
X130564054Y-74385000D01*
X130699347Y-74398266D01*
G36*
X141599347Y-69898266D02*
G01*
X141694908Y-69927117D01*
X141783044Y-69973979D01*
X141860403Y-70037073D01*
X141924032Y-70113987D01*
X141971510Y-70201795D01*
X142001030Y-70297158D01*
X142011651Y-70398211D01*
X142001734Y-70499347D01*
X141972883Y-70594908D01*
X141926021Y-70683044D01*
X141862927Y-70760403D01*
X141786013Y-70824033D01*
X141698206Y-70871509D01*
X141602842Y-70901029D01*
X141469925Y-70915000D01*
X125235946Y-70915000D01*
X125100653Y-70901734D01*
X125005092Y-70872883D01*
X124916956Y-70826021D01*
X124839597Y-70762927D01*
X124775967Y-70686013D01*
X124728491Y-70598206D01*
X124698971Y-70502842D01*
X124686839Y-70387422D01*
X124701665Y-70280446D01*
X124734378Y-70185929D01*
X124784823Y-70099569D01*
X124851086Y-70024648D01*
X124930641Y-69964023D01*
X125020452Y-69920007D01*
X125117098Y-69894275D01*
X125260151Y-69885000D01*
X141464054Y-69885000D01*
X141599347Y-69898266D01*
G37*
X141599347Y-69898266D02*
X141694908Y-69927117D01*
X141783044Y-69973979D01*
X141860403Y-70037073D01*
X141924032Y-70113987D01*
X141971510Y-70201795D01*
X142001030Y-70297158D01*
X142011651Y-70398211D01*
X142001734Y-70499347D01*
X141972883Y-70594908D01*
X141926021Y-70683044D01*
X141862927Y-70760403D01*
X141786013Y-70824033D01*
X141698206Y-70871509D01*
X141602842Y-70901029D01*
X141469925Y-70915000D01*
X125235946Y-70915000D01*
X125100653Y-70901734D01*
X125005092Y-70872883D01*
X124916956Y-70826021D01*
X124839597Y-70762927D01*
X124775967Y-70686013D01*
X124728491Y-70598206D01*
X124698971Y-70502842D01*
X124686839Y-70387422D01*
X124701665Y-70280446D01*
X124734378Y-70185929D01*
X124784823Y-70099569D01*
X124851086Y-70024648D01*
X124930641Y-69964023D01*
X125020452Y-69920007D01*
X125117098Y-69894275D01*
X125260151Y-69885000D01*
X141464054Y-69885000D01*
X141599347Y-69898266D01*
G36*
X130699347Y-65448266D02*
G01*
X130794908Y-65477117D01*
X130883044Y-65523979D01*
X130960403Y-65587073D01*
X131024032Y-65663987D01*
X131071510Y-65751795D01*
X131101030Y-65847158D01*
X131111651Y-65948211D01*
X131101734Y-66049347D01*
X131072883Y-66144908D01*
X131026021Y-66233044D01*
X130962927Y-66310403D01*
X130886013Y-66374033D01*
X130798206Y-66421509D01*
X130702842Y-66451029D01*
X130569925Y-66465000D01*
X125235946Y-66465000D01*
X125100653Y-66451734D01*
X125005092Y-66422883D01*
X124916956Y-66376021D01*
X124839597Y-66312927D01*
X124775967Y-66236013D01*
X124728491Y-66148206D01*
X124698971Y-66052842D01*
X124686839Y-65937422D01*
X124701665Y-65830446D01*
X124734378Y-65735929D01*
X124784823Y-65649569D01*
X124851086Y-65574648D01*
X124930641Y-65514023D01*
X125020452Y-65470007D01*
X125117098Y-65444275D01*
X125260151Y-65435000D01*
X130564054Y-65435000D01*
X130699347Y-65448266D01*
G37*
X130699347Y-65448266D02*
X130794908Y-65477117D01*
X130883044Y-65523979D01*
X130960403Y-65587073D01*
X131024032Y-65663987D01*
X131071510Y-65751795D01*
X131101030Y-65847158D01*
X131111651Y-65948211D01*
X131101734Y-66049347D01*
X131072883Y-66144908D01*
X131026021Y-66233044D01*
X130962927Y-66310403D01*
X130886013Y-66374033D01*
X130798206Y-66421509D01*
X130702842Y-66451029D01*
X130569925Y-66465000D01*
X125235946Y-66465000D01*
X125100653Y-66451734D01*
X125005092Y-66422883D01*
X124916956Y-66376021D01*
X124839597Y-66312927D01*
X124775967Y-66236013D01*
X124728491Y-66148206D01*
X124698971Y-66052842D01*
X124686839Y-65937422D01*
X124701665Y-65830446D01*
X124734378Y-65735929D01*
X124784823Y-65649569D01*
X124851086Y-65574648D01*
X124930641Y-65514023D01*
X125020452Y-65470007D01*
X125117098Y-65444275D01*
X125260151Y-65435000D01*
X130564054Y-65435000D01*
X130699347Y-65448266D01*
G36*
X141599347Y-65448266D02*
G01*
X141694908Y-65477117D01*
X141783044Y-65523979D01*
X141860403Y-65587073D01*
X141924032Y-65663987D01*
X141971510Y-65751795D01*
X142001030Y-65847158D01*
X142011651Y-65948211D01*
X142001734Y-66049347D01*
X141972883Y-66144908D01*
X141926021Y-66233044D01*
X141862927Y-66310403D01*
X141786013Y-66374033D01*
X141698206Y-66421509D01*
X141602842Y-66451029D01*
X141469925Y-66465000D01*
X136185946Y-66465000D01*
X136050653Y-66451734D01*
X135955092Y-66422883D01*
X135866956Y-66376021D01*
X135789597Y-66312927D01*
X135725967Y-66236013D01*
X135678491Y-66148206D01*
X135648971Y-66052842D01*
X135636839Y-65937422D01*
X135651665Y-65830446D01*
X135684378Y-65735929D01*
X135734823Y-65649569D01*
X135801086Y-65574648D01*
X135880641Y-65514023D01*
X135970452Y-65470007D01*
X136067098Y-65444275D01*
X136210151Y-65435000D01*
X141464054Y-65435000D01*
X141599347Y-65448266D01*
G37*
X141599347Y-65448266D02*
X141694908Y-65477117D01*
X141783044Y-65523979D01*
X141860403Y-65587073D01*
X141924032Y-65663987D01*
X141971510Y-65751795D01*
X142001030Y-65847158D01*
X142011651Y-65948211D01*
X142001734Y-66049347D01*
X141972883Y-66144908D01*
X141926021Y-66233044D01*
X141862927Y-66310403D01*
X141786013Y-66374033D01*
X141698206Y-66421509D01*
X141602842Y-66451029D01*
X141469925Y-66465000D01*
X136185946Y-66465000D01*
X136050653Y-66451734D01*
X135955092Y-66422883D01*
X135866956Y-66376021D01*
X135789597Y-66312927D01*
X135725967Y-66236013D01*
X135678491Y-66148206D01*
X135648971Y-66052842D01*
X135636839Y-65937422D01*
X135651665Y-65830446D01*
X135684378Y-65735929D01*
X135734823Y-65649569D01*
X135801086Y-65574648D01*
X135880641Y-65514023D01*
X135970452Y-65470007D01*
X136067098Y-65444275D01*
X136210151Y-65435000D01*
X141464054Y-65435000D01*
X141599347Y-65448266D01*
G36*
X141599347Y-60948266D02*
G01*
X141694908Y-60977117D01*
X141783044Y-61023979D01*
X141860403Y-61087073D01*
X141924032Y-61163987D01*
X141971510Y-61251795D01*
X142001030Y-61347158D01*
X142011651Y-61448211D01*
X142001734Y-61549347D01*
X141972883Y-61644908D01*
X141926021Y-61733044D01*
X141862927Y-61810403D01*
X141786013Y-61874033D01*
X141698206Y-61921509D01*
X141602842Y-61951029D01*
X141469925Y-61965000D01*
X125235946Y-61965000D01*
X125100653Y-61951734D01*
X125005092Y-61922883D01*
X124916956Y-61876021D01*
X124839597Y-61812927D01*
X124775967Y-61736013D01*
X124728491Y-61648206D01*
X124698971Y-61552842D01*
X124686839Y-61437422D01*
X124701665Y-61330446D01*
X124734378Y-61235929D01*
X124784823Y-61149569D01*
X124851086Y-61074648D01*
X124930641Y-61014023D01*
X125020452Y-60970007D01*
X125117098Y-60944275D01*
X125260151Y-60935000D01*
X141464054Y-60935000D01*
X141599347Y-60948266D01*
G37*
X141599347Y-60948266D02*
X141694908Y-60977117D01*
X141783044Y-61023979D01*
X141860403Y-61087073D01*
X141924032Y-61163987D01*
X141971510Y-61251795D01*
X142001030Y-61347158D01*
X142011651Y-61448211D01*
X142001734Y-61549347D01*
X141972883Y-61644908D01*
X141926021Y-61733044D01*
X141862927Y-61810403D01*
X141786013Y-61874033D01*
X141698206Y-61921509D01*
X141602842Y-61951029D01*
X141469925Y-61965000D01*
X125235946Y-61965000D01*
X125100653Y-61951734D01*
X125005092Y-61922883D01*
X124916956Y-61876021D01*
X124839597Y-61812927D01*
X124775967Y-61736013D01*
X124728491Y-61648206D01*
X124698971Y-61552842D01*
X124686839Y-61437422D01*
X124701665Y-61330446D01*
X124734378Y-61235929D01*
X124784823Y-61149569D01*
X124851086Y-61074648D01*
X124930641Y-61014023D01*
X125020452Y-60970007D01*
X125117098Y-60944275D01*
X125260151Y-60935000D01*
X141464054Y-60935000D01*
X141599347Y-60948266D01*
G36*
X140199347Y-55948266D02*
G01*
X140294908Y-55977117D01*
X140383044Y-56023979D01*
X140460403Y-56087073D01*
X140524032Y-56163987D01*
X140571510Y-56251795D01*
X140601030Y-56347158D01*
X140611651Y-56448211D01*
X140601734Y-56549347D01*
X140572883Y-56644908D01*
X140526021Y-56733044D01*
X140462927Y-56810403D01*
X140386013Y-56874033D01*
X140298206Y-56921509D01*
X140202842Y-56951029D01*
X140069925Y-56965000D01*
X135885946Y-56965000D01*
X135750653Y-56951734D01*
X135655092Y-56922883D01*
X135566956Y-56876021D01*
X135489597Y-56812927D01*
X135425967Y-56736013D01*
X135378491Y-56648206D01*
X135348971Y-56552842D01*
X135336839Y-56437422D01*
X135351665Y-56330446D01*
X135384378Y-56235929D01*
X135434823Y-56149569D01*
X135501086Y-56074648D01*
X135580641Y-56014023D01*
X135670452Y-55970007D01*
X135767098Y-55944275D01*
X135910151Y-55935000D01*
X140064054Y-55935000D01*
X140199347Y-55948266D01*
G37*
X140199347Y-55948266D02*
X140294908Y-55977117D01*
X140383044Y-56023979D01*
X140460403Y-56087073D01*
X140524032Y-56163987D01*
X140571510Y-56251795D01*
X140601030Y-56347158D01*
X140611651Y-56448211D01*
X140601734Y-56549347D01*
X140572883Y-56644908D01*
X140526021Y-56733044D01*
X140462927Y-56810403D01*
X140386013Y-56874033D01*
X140298206Y-56921509D01*
X140202842Y-56951029D01*
X140069925Y-56965000D01*
X135885946Y-56965000D01*
X135750653Y-56951734D01*
X135655092Y-56922883D01*
X135566956Y-56876021D01*
X135489597Y-56812927D01*
X135425967Y-56736013D01*
X135378491Y-56648206D01*
X135348971Y-56552842D01*
X135336839Y-56437422D01*
X135351665Y-56330446D01*
X135384378Y-56235929D01*
X135434823Y-56149569D01*
X135501086Y-56074648D01*
X135580641Y-56014023D01*
X135670452Y-55970007D01*
X135767098Y-55944275D01*
X135910151Y-55935000D01*
X140064054Y-55935000D01*
X140199347Y-55948266D01*
G36*
X130949347Y-55948266D02*
G01*
X131044908Y-55977117D01*
X131133044Y-56023979D01*
X131210403Y-56087073D01*
X131274032Y-56163987D01*
X131321510Y-56251795D01*
X131351030Y-56347158D01*
X131361651Y-56448211D01*
X131351734Y-56549347D01*
X131322883Y-56644908D01*
X131276021Y-56733044D01*
X131212927Y-56810403D01*
X131136013Y-56874033D01*
X131048206Y-56921509D01*
X130952842Y-56951029D01*
X130819925Y-56965000D01*
X126285946Y-56965000D01*
X126150653Y-56951734D01*
X126055092Y-56922883D01*
X125966956Y-56876021D01*
X125889597Y-56812927D01*
X125825967Y-56736013D01*
X125778491Y-56648206D01*
X125748971Y-56552842D01*
X125736839Y-56437422D01*
X125751665Y-56330446D01*
X125784378Y-56235929D01*
X125834823Y-56149569D01*
X125901086Y-56074648D01*
X125980641Y-56014023D01*
X126070452Y-55970007D01*
X126167098Y-55944275D01*
X126310151Y-55935000D01*
X130814054Y-55935000D01*
X130949347Y-55948266D01*
G37*
X130949347Y-55948266D02*
X131044908Y-55977117D01*
X131133044Y-56023979D01*
X131210403Y-56087073D01*
X131274032Y-56163987D01*
X131321510Y-56251795D01*
X131351030Y-56347158D01*
X131361651Y-56448211D01*
X131351734Y-56549347D01*
X131322883Y-56644908D01*
X131276021Y-56733044D01*
X131212927Y-56810403D01*
X131136013Y-56874033D01*
X131048206Y-56921509D01*
X130952842Y-56951029D01*
X130819925Y-56965000D01*
X126285946Y-56965000D01*
X126150653Y-56951734D01*
X126055092Y-56922883D01*
X125966956Y-56876021D01*
X125889597Y-56812927D01*
X125825967Y-56736013D01*
X125778491Y-56648206D01*
X125748971Y-56552842D01*
X125736839Y-56437422D01*
X125751665Y-56330446D01*
X125784378Y-56235929D01*
X125834823Y-56149569D01*
X125901086Y-56074648D01*
X125980641Y-56014023D01*
X126070452Y-55970007D01*
X126167098Y-55944275D01*
X126310151Y-55935000D01*
X130814054Y-55935000D01*
X130949347Y-55948266D01*
G36*
X135671649Y-52190647D02*
G01*
X135692481Y-52196937D01*
X135711689Y-52207150D01*
X135728550Y-52220901D01*
X135742417Y-52237663D01*
X135752766Y-52256803D01*
X135759198Y-52277582D01*
X135764050Y-52323746D01*
X135759353Y-52371649D01*
X135753063Y-52392481D01*
X135742849Y-52411691D01*
X135729101Y-52428548D01*
X135712335Y-52442418D01*
X135693198Y-52452765D01*
X135672418Y-52459198D01*
X135617213Y-52465000D01*
X131085945Y-52465000D01*
X131028351Y-52459353D01*
X131007519Y-52453063D01*
X130988309Y-52442849D01*
X130971452Y-52429101D01*
X130957582Y-52412335D01*
X130947235Y-52393198D01*
X130940802Y-52372418D01*
X130935950Y-52326254D01*
X130940647Y-52278351D01*
X130946937Y-52257519D01*
X130957150Y-52238311D01*
X130970901Y-52221450D01*
X130987663Y-52207583D01*
X131006803Y-52197234D01*
X131027582Y-52190802D01*
X131082787Y-52185000D01*
X135614055Y-52185000D01*
X135671649Y-52190647D01*
G37*
X135671649Y-52190647D02*
X135692481Y-52196937D01*
X135711689Y-52207150D01*
X135728550Y-52220901D01*
X135742417Y-52237663D01*
X135752766Y-52256803D01*
X135759198Y-52277582D01*
X135764050Y-52323746D01*
X135759353Y-52371649D01*
X135753063Y-52392481D01*
X135742849Y-52411691D01*
X135729101Y-52428548D01*
X135712335Y-52442418D01*
X135693198Y-52452765D01*
X135672418Y-52459198D01*
X135617213Y-52465000D01*
X131085945Y-52465000D01*
X131028351Y-52459353D01*
X131007519Y-52453063D01*
X130988309Y-52442849D01*
X130971452Y-52429101D01*
X130957582Y-52412335D01*
X130947235Y-52393198D01*
X130940802Y-52372418D01*
X130935950Y-52326254D01*
X130940647Y-52278351D01*
X130946937Y-52257519D01*
X130957150Y-52238311D01*
X130970901Y-52221450D01*
X130987663Y-52207583D01*
X131006803Y-52197234D01*
X131027582Y-52190802D01*
X131082787Y-52185000D01*
X135614055Y-52185000D01*
X135671649Y-52190647D01*
G36*
X141467616Y-52012272D02*
G01*
X141540998Y-52042668D01*
X141607040Y-52086795D01*
X141663205Y-52142960D01*
X141707332Y-52209002D01*
X141737728Y-52282384D01*
X141753224Y-52360286D01*
X141753224Y-52439714D01*
X141737728Y-52517616D01*
X141707332Y-52590998D01*
X141663205Y-52657040D01*
X141607040Y-52713205D01*
X141540998Y-52757332D01*
X141467616Y-52787728D01*
X141389714Y-52803224D01*
X141310286Y-52803224D01*
X141232384Y-52787728D01*
X141159002Y-52757332D01*
X141092960Y-52713205D01*
X141036795Y-52657040D01*
X140992668Y-52590998D01*
X140962272Y-52517616D01*
X140946776Y-52439714D01*
X140946776Y-52360286D01*
X140962272Y-52282384D01*
X140992668Y-52209002D01*
X141036795Y-52142960D01*
X141092960Y-52086795D01*
X141159002Y-52042668D01*
X141232384Y-52012272D01*
X141310286Y-51996776D01*
X141389714Y-51996776D01*
X141467616Y-52012272D01*
G37*
X141467616Y-52012272D02*
X141540998Y-52042668D01*
X141607040Y-52086795D01*
X141663205Y-52142960D01*
X141707332Y-52209002D01*
X141737728Y-52282384D01*
X141753224Y-52360286D01*
X141753224Y-52439714D01*
X141737728Y-52517616D01*
X141707332Y-52590998D01*
X141663205Y-52657040D01*
X141607040Y-52713205D01*
X141540998Y-52757332D01*
X141467616Y-52787728D01*
X141389714Y-52803224D01*
X141310286Y-52803224D01*
X141232384Y-52787728D01*
X141159002Y-52757332D01*
X141092960Y-52713205D01*
X141036795Y-52657040D01*
X140992668Y-52590998D01*
X140962272Y-52517616D01*
X140946776Y-52439714D01*
X140946776Y-52360286D01*
X140962272Y-52282384D01*
X140992668Y-52209002D01*
X141036795Y-52142960D01*
X141092960Y-52086795D01*
X141159002Y-52042668D01*
X141232384Y-52012272D01*
X141310286Y-51996776D01*
X141389714Y-51996776D01*
X141467616Y-52012272D01*
G36*
X125435507Y-51918121D02*
G01*
X125488856Y-51940219D01*
X125536869Y-51972300D01*
X125577700Y-52013131D01*
X125609781Y-52061144D01*
X125631879Y-52114493D01*
X125643145Y-52171128D01*
X125643145Y-52228872D01*
X125631879Y-52285507D01*
X125609781Y-52338856D01*
X125577700Y-52386869D01*
X125536869Y-52427700D01*
X125488856Y-52459781D01*
X125435507Y-52481879D01*
X125378872Y-52493145D01*
X125321128Y-52493145D01*
X125264493Y-52481879D01*
X125211144Y-52459781D01*
X125163131Y-52427700D01*
X125122300Y-52386869D01*
X125090219Y-52338856D01*
X125068121Y-52285507D01*
X125056855Y-52228872D01*
X125056855Y-52171128D01*
X125068121Y-52114493D01*
X125090219Y-52061144D01*
X125122300Y-52013131D01*
X125163131Y-51972300D01*
X125211144Y-51940219D01*
X125264493Y-51918121D01*
X125321128Y-51906855D01*
X125378872Y-51906855D01*
X125435507Y-51918121D01*
G37*
X125435507Y-51918121D02*
X125488856Y-51940219D01*
X125536869Y-51972300D01*
X125577700Y-52013131D01*
X125609781Y-52061144D01*
X125631879Y-52114493D01*
X125643145Y-52171128D01*
X125643145Y-52228872D01*
X125631879Y-52285507D01*
X125609781Y-52338856D01*
X125577700Y-52386869D01*
X125536869Y-52427700D01*
X125488856Y-52459781D01*
X125435507Y-52481879D01*
X125378872Y-52493145D01*
X125321128Y-52493145D01*
X125264493Y-52481879D01*
X125211144Y-52459781D01*
X125163131Y-52427700D01*
X125122300Y-52386869D01*
X125090219Y-52338856D01*
X125068121Y-52285507D01*
X125056855Y-52228872D01*
X125056855Y-52171128D01*
X125068121Y-52114493D01*
X125090219Y-52061144D01*
X125122300Y-52013131D01*
X125163131Y-51972300D01*
X125211144Y-51940219D01*
X125264493Y-51918121D01*
X125321128Y-51906855D01*
X125378872Y-51906855D01*
X125435507Y-51918121D01*
M02*
