G04 #@! TF.GenerationSoftware,KiCad,Pcbnew,5.1.5-52549c5~84~ubuntu18.04.1*
G04 #@! TF.CreationDate,2020-03-10T16:59:25+01:00*
G04 #@! TF.ProjectId,Nokolino,4e6f6b6f-6c69-46e6-9f2e-6b696361645f,3.0*
G04 #@! TF.SameCoordinates,Original*
G04 #@! TF.FileFunction,Soldermask,Top*
G04 #@! TF.FilePolarity,Negative*
%FSLAX46Y46*%
G04 Gerber Fmt 4.6, Leading zero omitted, Abs format (unit mm)*
G04 Created by KiCad (PCBNEW 5.1.5-52549c5~84~ubuntu18.04.1) date 2020-03-10 16:59:25*
%MOMM*%
%LPD*%
G04 APERTURE LIST*
%ADD10C,0.100000*%
G04 APERTURE END LIST*
D10*
G36*
X168900026Y-137346115D02*
G01*
X169098945Y-137428510D01*
X169118413Y-137436574D01*
X169314955Y-137567899D01*
X169482101Y-137735045D01*
X169590133Y-137896726D01*
X169613427Y-137931589D01*
X169703885Y-138149974D01*
X169750000Y-138381809D01*
X169750000Y-138618191D01*
X169703885Y-138850026D01*
X169613427Y-139068411D01*
X169613426Y-139068413D01*
X169482101Y-139264955D01*
X169314955Y-139432101D01*
X169118413Y-139563426D01*
X169118412Y-139563427D01*
X169118411Y-139563427D01*
X168900026Y-139653885D01*
X168668191Y-139700000D01*
X168431809Y-139700000D01*
X168199974Y-139653885D01*
X167981589Y-139563427D01*
X167981588Y-139563427D01*
X167981587Y-139563426D01*
X167785045Y-139432101D01*
X167617899Y-139264955D01*
X167486574Y-139068413D01*
X167486573Y-139068411D01*
X167396115Y-138850026D01*
X167350000Y-138618191D01*
X167350000Y-138381809D01*
X167396115Y-138149974D01*
X167486573Y-137931589D01*
X167509868Y-137896726D01*
X167617899Y-137735045D01*
X167785045Y-137567899D01*
X167981587Y-137436574D01*
X168001055Y-137428510D01*
X168199974Y-137346115D01*
X168431809Y-137300000D01*
X168668191Y-137300000D01*
X168900026Y-137346115D01*
G37*
G36*
X164400026Y-137346115D02*
G01*
X164598945Y-137428510D01*
X164618413Y-137436574D01*
X164814955Y-137567899D01*
X164982101Y-137735045D01*
X165090133Y-137896726D01*
X165113427Y-137931589D01*
X165203885Y-138149974D01*
X165250000Y-138381809D01*
X165250000Y-138618191D01*
X165203885Y-138850026D01*
X165113427Y-139068411D01*
X165113426Y-139068413D01*
X164982101Y-139264955D01*
X164814955Y-139432101D01*
X164618413Y-139563426D01*
X164618412Y-139563427D01*
X164618411Y-139563427D01*
X164400026Y-139653885D01*
X164168191Y-139700000D01*
X163931809Y-139700000D01*
X163699974Y-139653885D01*
X163481589Y-139563427D01*
X163481588Y-139563427D01*
X163481587Y-139563426D01*
X163285045Y-139432101D01*
X163117899Y-139264955D01*
X162986574Y-139068413D01*
X162986573Y-139068411D01*
X162896115Y-138850026D01*
X162850000Y-138618191D01*
X162850000Y-138381809D01*
X162896115Y-138149974D01*
X162986573Y-137931589D01*
X163009868Y-137896726D01*
X163117899Y-137735045D01*
X163285045Y-137567899D01*
X163481587Y-137436574D01*
X163501055Y-137428510D01*
X163699974Y-137346115D01*
X163931809Y-137300000D01*
X164168191Y-137300000D01*
X164400026Y-137346115D01*
G37*
G36*
X126400026Y-137346115D02*
G01*
X126598945Y-137428510D01*
X126618413Y-137436574D01*
X126814955Y-137567899D01*
X126982101Y-137735045D01*
X127090133Y-137896726D01*
X127113427Y-137931589D01*
X127203885Y-138149974D01*
X127250000Y-138381809D01*
X127250000Y-138618191D01*
X127203885Y-138850026D01*
X127113427Y-139068411D01*
X127113426Y-139068413D01*
X126982101Y-139264955D01*
X126814955Y-139432101D01*
X126618413Y-139563426D01*
X126618412Y-139563427D01*
X126618411Y-139563427D01*
X126400026Y-139653885D01*
X126168191Y-139700000D01*
X125931809Y-139700000D01*
X125699974Y-139653885D01*
X125481589Y-139563427D01*
X125481588Y-139563427D01*
X125481587Y-139563426D01*
X125285045Y-139432101D01*
X125117899Y-139264955D01*
X124986574Y-139068413D01*
X124986573Y-139068411D01*
X124896115Y-138850026D01*
X124850000Y-138618191D01*
X124850000Y-138381809D01*
X124896115Y-138149974D01*
X124986573Y-137931589D01*
X125009868Y-137896726D01*
X125117899Y-137735045D01*
X125285045Y-137567899D01*
X125481587Y-137436574D01*
X125501055Y-137428510D01*
X125699974Y-137346115D01*
X125931809Y-137300000D01*
X126168191Y-137300000D01*
X126400026Y-137346115D01*
G37*
G36*
X121900026Y-137346115D02*
G01*
X122098945Y-137428510D01*
X122118413Y-137436574D01*
X122314955Y-137567899D01*
X122482101Y-137735045D01*
X122590133Y-137896726D01*
X122613427Y-137931589D01*
X122703885Y-138149974D01*
X122750000Y-138381809D01*
X122750000Y-138618191D01*
X122703885Y-138850026D01*
X122613427Y-139068411D01*
X122613426Y-139068413D01*
X122482101Y-139264955D01*
X122314955Y-139432101D01*
X122118413Y-139563426D01*
X122118412Y-139563427D01*
X122118411Y-139563427D01*
X121900026Y-139653885D01*
X121668191Y-139700000D01*
X121431809Y-139700000D01*
X121199974Y-139653885D01*
X120981589Y-139563427D01*
X120981588Y-139563427D01*
X120981587Y-139563426D01*
X120785045Y-139432101D01*
X120617899Y-139264955D01*
X120486574Y-139068413D01*
X120486573Y-139068411D01*
X120396115Y-138850026D01*
X120350000Y-138618191D01*
X120350000Y-138381809D01*
X120396115Y-138149974D01*
X120486573Y-137931589D01*
X120509868Y-137896726D01*
X120617899Y-137735045D01*
X120785045Y-137567899D01*
X120981587Y-137436574D01*
X121001055Y-137428510D01*
X121199974Y-137346115D01*
X121431809Y-137300000D01*
X121668191Y-137300000D01*
X121900026Y-137346115D01*
G37*
G36*
X157749126Y-136596015D02*
G01*
X157967511Y-136686473D01*
X157967513Y-136686474D01*
X158110096Y-136781745D01*
X158164055Y-136817799D01*
X158331201Y-136984945D01*
X158462527Y-137181489D01*
X158552985Y-137399874D01*
X158599100Y-137631709D01*
X158599100Y-137868091D01*
X158552985Y-138099926D01*
X158532254Y-138149974D01*
X158462526Y-138318313D01*
X158331201Y-138514855D01*
X158164055Y-138682001D01*
X157967513Y-138813326D01*
X157967512Y-138813327D01*
X157967511Y-138813327D01*
X157749126Y-138903785D01*
X157517291Y-138949900D01*
X157280909Y-138949900D01*
X157049074Y-138903785D01*
X156830689Y-138813327D01*
X156830688Y-138813327D01*
X156830687Y-138813326D01*
X156634145Y-138682001D01*
X156466999Y-138514855D01*
X156335674Y-138318313D01*
X156265946Y-138149974D01*
X156245215Y-138099926D01*
X156199100Y-137868091D01*
X156199100Y-137631709D01*
X156245215Y-137399874D01*
X156335673Y-137181489D01*
X156466999Y-136984945D01*
X156634145Y-136817799D01*
X156688104Y-136781745D01*
X156830687Y-136686474D01*
X156830689Y-136686473D01*
X157049074Y-136596015D01*
X157280909Y-136549900D01*
X157517291Y-136549900D01*
X157749126Y-136596015D01*
G37*
G36*
X134889126Y-136392815D02*
G01*
X135107511Y-136483273D01*
X135107513Y-136483274D01*
X135304055Y-136614599D01*
X135471201Y-136781745D01*
X135602527Y-136978289D01*
X135692985Y-137196674D01*
X135739100Y-137428509D01*
X135739100Y-137664891D01*
X135692985Y-137896726D01*
X135678545Y-137931587D01*
X135602526Y-138115113D01*
X135471201Y-138311655D01*
X135304055Y-138478801D01*
X135107513Y-138610126D01*
X135107512Y-138610127D01*
X135107511Y-138610127D01*
X134889126Y-138700585D01*
X134657291Y-138746700D01*
X134420909Y-138746700D01*
X134189074Y-138700585D01*
X133970689Y-138610127D01*
X133970688Y-138610127D01*
X133970687Y-138610126D01*
X133774145Y-138478801D01*
X133606999Y-138311655D01*
X133475674Y-138115113D01*
X133399655Y-137931587D01*
X133385215Y-137896726D01*
X133339100Y-137664891D01*
X133339100Y-137428509D01*
X133385215Y-137196674D01*
X133475673Y-136978289D01*
X133606999Y-136781745D01*
X133774145Y-136614599D01*
X133970687Y-136483274D01*
X133970689Y-136483273D01*
X134189074Y-136392815D01*
X134420909Y-136346700D01*
X134657291Y-136346700D01*
X134889126Y-136392815D01*
G37*
G36*
X134889126Y-133649615D02*
G01*
X135107511Y-133740073D01*
X135107513Y-133740074D01*
X135304055Y-133871399D01*
X135471201Y-134038545D01*
X135602527Y-134235089D01*
X135692985Y-134453474D01*
X135739100Y-134685309D01*
X135739100Y-134921691D01*
X135692985Y-135153526D01*
X135602527Y-135371911D01*
X135602526Y-135371913D01*
X135471201Y-135568455D01*
X135304055Y-135735601D01*
X135107513Y-135866926D01*
X135107512Y-135866927D01*
X135107511Y-135866927D01*
X134889126Y-135957385D01*
X134657291Y-136003500D01*
X134420909Y-136003500D01*
X134189074Y-135957385D01*
X133970689Y-135866927D01*
X133970688Y-135866927D01*
X133970687Y-135866926D01*
X133774145Y-135735601D01*
X133606999Y-135568455D01*
X133475674Y-135371913D01*
X133475673Y-135371911D01*
X133385215Y-135153526D01*
X133339100Y-134921691D01*
X133339100Y-134685309D01*
X133385215Y-134453474D01*
X133475673Y-134235089D01*
X133606999Y-134038545D01*
X133774145Y-133871399D01*
X133970687Y-133740074D01*
X133970689Y-133740073D01*
X134189074Y-133649615D01*
X134420909Y-133603500D01*
X134657291Y-133603500D01*
X134889126Y-133649615D01*
G37*
G36*
X121900026Y-130846115D02*
G01*
X122118411Y-130936573D01*
X122118413Y-130936574D01*
X122314955Y-131067899D01*
X122482101Y-131235045D01*
X122613427Y-131431589D01*
X122703885Y-131649974D01*
X122750000Y-131881809D01*
X122750000Y-132118191D01*
X122703885Y-132350026D01*
X122613427Y-132568411D01*
X122613426Y-132568413D01*
X122482101Y-132764955D01*
X122314955Y-132932101D01*
X122118413Y-133063426D01*
X122118412Y-133063427D01*
X122118411Y-133063427D01*
X121900026Y-133153885D01*
X121668191Y-133200000D01*
X121431809Y-133200000D01*
X121199974Y-133153885D01*
X120981589Y-133063427D01*
X120981588Y-133063427D01*
X120981587Y-133063426D01*
X120785045Y-132932101D01*
X120617899Y-132764955D01*
X120486574Y-132568413D01*
X120486573Y-132568411D01*
X120396115Y-132350026D01*
X120350000Y-132118191D01*
X120350000Y-131881809D01*
X120396115Y-131649974D01*
X120486573Y-131431589D01*
X120617899Y-131235045D01*
X120785045Y-131067899D01*
X120981587Y-130936574D01*
X120981589Y-130936573D01*
X121199974Y-130846115D01*
X121431809Y-130800000D01*
X121668191Y-130800000D01*
X121900026Y-130846115D01*
G37*
G36*
X168900026Y-130846115D02*
G01*
X169118411Y-130936573D01*
X169118413Y-130936574D01*
X169314955Y-131067899D01*
X169482101Y-131235045D01*
X169613427Y-131431589D01*
X169703885Y-131649974D01*
X169750000Y-131881809D01*
X169750000Y-132118191D01*
X169703885Y-132350026D01*
X169613427Y-132568411D01*
X169613426Y-132568413D01*
X169482101Y-132764955D01*
X169314955Y-132932101D01*
X169118413Y-133063426D01*
X169118412Y-133063427D01*
X169118411Y-133063427D01*
X168900026Y-133153885D01*
X168668191Y-133200000D01*
X168431809Y-133200000D01*
X168199974Y-133153885D01*
X167981589Y-133063427D01*
X167981588Y-133063427D01*
X167981587Y-133063426D01*
X167785045Y-132932101D01*
X167617899Y-132764955D01*
X167486574Y-132568413D01*
X167486573Y-132568411D01*
X167396115Y-132350026D01*
X167350000Y-132118191D01*
X167350000Y-131881809D01*
X167396115Y-131649974D01*
X167486573Y-131431589D01*
X167617899Y-131235045D01*
X167785045Y-131067899D01*
X167981587Y-130936574D01*
X167981589Y-130936573D01*
X168199974Y-130846115D01*
X168431809Y-130800000D01*
X168668191Y-130800000D01*
X168900026Y-130846115D01*
G37*
G36*
X164400026Y-130846115D02*
G01*
X164618411Y-130936573D01*
X164618413Y-130936574D01*
X164814955Y-131067899D01*
X164982101Y-131235045D01*
X165113427Y-131431589D01*
X165203885Y-131649974D01*
X165250000Y-131881809D01*
X165250000Y-132118191D01*
X165203885Y-132350026D01*
X165113427Y-132568411D01*
X165113426Y-132568413D01*
X164982101Y-132764955D01*
X164814955Y-132932101D01*
X164618413Y-133063426D01*
X164618412Y-133063427D01*
X164618411Y-133063427D01*
X164400026Y-133153885D01*
X164168191Y-133200000D01*
X163931809Y-133200000D01*
X163699974Y-133153885D01*
X163481589Y-133063427D01*
X163481588Y-133063427D01*
X163481587Y-133063426D01*
X163285045Y-132932101D01*
X163117899Y-132764955D01*
X162986574Y-132568413D01*
X162986573Y-132568411D01*
X162896115Y-132350026D01*
X162850000Y-132118191D01*
X162850000Y-131881809D01*
X162896115Y-131649974D01*
X162986573Y-131431589D01*
X163117899Y-131235045D01*
X163285045Y-131067899D01*
X163481587Y-130936574D01*
X163481589Y-130936573D01*
X163699974Y-130846115D01*
X163931809Y-130800000D01*
X164168191Y-130800000D01*
X164400026Y-130846115D01*
G37*
G36*
X126400026Y-130846115D02*
G01*
X126618411Y-130936573D01*
X126618413Y-130936574D01*
X126814955Y-131067899D01*
X126982101Y-131235045D01*
X127113427Y-131431589D01*
X127203885Y-131649974D01*
X127250000Y-131881809D01*
X127250000Y-132118191D01*
X127203885Y-132350026D01*
X127113427Y-132568411D01*
X127113426Y-132568413D01*
X126982101Y-132764955D01*
X126814955Y-132932101D01*
X126618413Y-133063426D01*
X126618412Y-133063427D01*
X126618411Y-133063427D01*
X126400026Y-133153885D01*
X126168191Y-133200000D01*
X125931809Y-133200000D01*
X125699974Y-133153885D01*
X125481589Y-133063427D01*
X125481588Y-133063427D01*
X125481587Y-133063426D01*
X125285045Y-132932101D01*
X125117899Y-132764955D01*
X124986574Y-132568413D01*
X124986573Y-132568411D01*
X124896115Y-132350026D01*
X124850000Y-132118191D01*
X124850000Y-131881809D01*
X124896115Y-131649974D01*
X124986573Y-131431589D01*
X125117899Y-131235045D01*
X125285045Y-131067899D01*
X125481587Y-130936574D01*
X125481589Y-130936573D01*
X125699974Y-130846115D01*
X125931809Y-130800000D01*
X126168191Y-130800000D01*
X126400026Y-130846115D01*
G37*
G36*
X122416837Y-127361458D02*
G01*
X122497638Y-127369416D01*
X122651034Y-127415949D01*
X122704992Y-127432317D01*
X122896084Y-127534457D01*
X123063581Y-127671919D01*
X123201043Y-127839416D01*
X123303183Y-128030508D01*
X123303184Y-128030512D01*
X123366084Y-128237862D01*
X123387322Y-128453500D01*
X123366084Y-128669138D01*
X123319551Y-128822534D01*
X123303183Y-128876492D01*
X123201043Y-129067584D01*
X123063581Y-129235081D01*
X122896084Y-129372543D01*
X122704992Y-129474683D01*
X122651034Y-129491051D01*
X122497638Y-129537584D01*
X122416837Y-129545542D01*
X122336038Y-129553500D01*
X122027962Y-129553500D01*
X121947163Y-129545542D01*
X121866362Y-129537584D01*
X121712966Y-129491051D01*
X121659008Y-129474683D01*
X121467916Y-129372543D01*
X121300419Y-129235081D01*
X121162957Y-129067584D01*
X121060817Y-128876492D01*
X121044449Y-128822534D01*
X120997916Y-128669138D01*
X120976678Y-128453500D01*
X120997916Y-128237862D01*
X121060816Y-128030512D01*
X121060817Y-128030508D01*
X121162957Y-127839416D01*
X121300419Y-127671919D01*
X121467916Y-127534457D01*
X121659008Y-127432317D01*
X121712966Y-127415949D01*
X121866362Y-127369416D01*
X121947163Y-127361458D01*
X122027962Y-127353500D01*
X122336038Y-127353500D01*
X122416837Y-127361458D01*
G37*
G36*
X131002000Y-129553500D02*
G01*
X128602000Y-129553500D01*
X128602000Y-127353500D01*
X131002000Y-127353500D01*
X131002000Y-129553500D01*
G37*
G36*
X134889126Y-126029615D02*
G01*
X135107511Y-126120073D01*
X135107513Y-126120074D01*
X135121075Y-126129136D01*
X135304055Y-126251399D01*
X135471201Y-126418545D01*
X135602527Y-126615089D01*
X135692985Y-126833474D01*
X135739100Y-127065309D01*
X135739100Y-127301691D01*
X135692985Y-127533526D01*
X135602527Y-127751911D01*
X135602526Y-127751913D01*
X135471201Y-127948455D01*
X135304055Y-128115601D01*
X135107513Y-128246926D01*
X135107512Y-128246927D01*
X135107511Y-128246927D01*
X134889126Y-128337385D01*
X134657291Y-128383500D01*
X134420909Y-128383500D01*
X134189074Y-128337385D01*
X133970689Y-128246927D01*
X133970688Y-128246927D01*
X133970687Y-128246926D01*
X133774145Y-128115601D01*
X133606999Y-127948455D01*
X133475674Y-127751913D01*
X133475673Y-127751911D01*
X133385215Y-127533526D01*
X133339100Y-127301691D01*
X133339100Y-127065309D01*
X133385215Y-126833474D01*
X133475673Y-126615089D01*
X133606999Y-126418545D01*
X133774145Y-126251399D01*
X133957125Y-126129136D01*
X133970687Y-126120074D01*
X133970689Y-126120073D01*
X134189074Y-126029615D01*
X134420909Y-125983500D01*
X134657291Y-125983500D01*
X134889126Y-126029615D01*
G37*
G36*
X122416837Y-124821458D02*
G01*
X122497638Y-124829416D01*
X122651034Y-124875949D01*
X122704992Y-124892317D01*
X122896084Y-124994457D01*
X123063581Y-125131919D01*
X123201043Y-125299416D01*
X123303183Y-125490508D01*
X123307193Y-125503727D01*
X123366084Y-125697862D01*
X123387322Y-125913500D01*
X123366084Y-126129138D01*
X123328996Y-126251399D01*
X123303183Y-126336492D01*
X123201043Y-126527584D01*
X123063581Y-126695081D01*
X122896084Y-126832543D01*
X122704992Y-126934683D01*
X122651034Y-126951051D01*
X122497638Y-126997584D01*
X122416837Y-127005542D01*
X122336038Y-127013500D01*
X122027962Y-127013500D01*
X121947163Y-127005542D01*
X121866362Y-126997584D01*
X121712966Y-126951051D01*
X121659008Y-126934683D01*
X121467916Y-126832543D01*
X121300419Y-126695081D01*
X121162957Y-126527584D01*
X121060817Y-126336492D01*
X121035004Y-126251399D01*
X120997916Y-126129138D01*
X120976678Y-125913500D01*
X120997916Y-125697862D01*
X121056807Y-125503727D01*
X121060817Y-125490508D01*
X121162957Y-125299416D01*
X121300419Y-125131919D01*
X121467916Y-124994457D01*
X121659008Y-124892317D01*
X121712966Y-124875949D01*
X121866362Y-124829416D01*
X121947163Y-124821458D01*
X122027962Y-124813500D01*
X122336038Y-124813500D01*
X122416837Y-124821458D01*
G37*
G36*
X130036837Y-124821458D02*
G01*
X130117638Y-124829416D01*
X130271034Y-124875949D01*
X130324992Y-124892317D01*
X130516084Y-124994457D01*
X130683581Y-125131919D01*
X130821043Y-125299416D01*
X130923183Y-125490508D01*
X130927193Y-125503727D01*
X130986084Y-125697862D01*
X131007322Y-125913500D01*
X130986084Y-126129138D01*
X130948996Y-126251399D01*
X130923183Y-126336492D01*
X130821043Y-126527584D01*
X130683581Y-126695081D01*
X130516084Y-126832543D01*
X130324992Y-126934683D01*
X130271034Y-126951051D01*
X130117638Y-126997584D01*
X130036837Y-127005542D01*
X129956038Y-127013500D01*
X129647962Y-127013500D01*
X129567163Y-127005542D01*
X129486362Y-126997584D01*
X129332966Y-126951051D01*
X129279008Y-126934683D01*
X129087916Y-126832543D01*
X128920419Y-126695081D01*
X128782957Y-126527584D01*
X128680817Y-126336492D01*
X128655004Y-126251399D01*
X128617916Y-126129138D01*
X128596678Y-125913500D01*
X128617916Y-125697862D01*
X128676807Y-125503727D01*
X128680817Y-125490508D01*
X128782957Y-125299416D01*
X128920419Y-125131919D01*
X129087916Y-124994457D01*
X129279008Y-124892317D01*
X129332966Y-124875949D01*
X129486362Y-124829416D01*
X129567163Y-124821458D01*
X129647962Y-124813500D01*
X129956038Y-124813500D01*
X130036837Y-124821458D01*
G37*
G36*
X134889126Y-123286415D02*
G01*
X135107511Y-123376873D01*
X135107513Y-123376874D01*
X135250096Y-123472145D01*
X135304055Y-123508199D01*
X135471201Y-123675345D01*
X135602527Y-123871889D01*
X135692985Y-124090274D01*
X135739100Y-124322109D01*
X135739100Y-124558491D01*
X135692985Y-124790326D01*
X135676793Y-124829416D01*
X135602526Y-125008713D01*
X135471201Y-125205255D01*
X135304055Y-125372401D01*
X135107513Y-125503726D01*
X135107512Y-125503727D01*
X135107511Y-125503727D01*
X134889126Y-125594185D01*
X134657291Y-125640300D01*
X134420909Y-125640300D01*
X134189074Y-125594185D01*
X133970689Y-125503727D01*
X133970688Y-125503727D01*
X133970687Y-125503726D01*
X133774145Y-125372401D01*
X133606999Y-125205255D01*
X133475674Y-125008713D01*
X133401407Y-124829416D01*
X133385215Y-124790326D01*
X133339100Y-124558491D01*
X133339100Y-124322109D01*
X133385215Y-124090274D01*
X133475673Y-123871889D01*
X133606999Y-123675345D01*
X133774145Y-123508199D01*
X133828104Y-123472145D01*
X133970687Y-123376874D01*
X133970689Y-123376873D01*
X134189074Y-123286415D01*
X134420909Y-123240300D01*
X134657291Y-123240300D01*
X134889126Y-123286415D01*
G37*
G36*
X157749126Y-123083215D02*
G01*
X157967511Y-123173673D01*
X157967513Y-123173674D01*
X158164055Y-123304999D01*
X158331201Y-123472145D01*
X158462527Y-123668689D01*
X158552985Y-123887074D01*
X158599100Y-124118909D01*
X158599100Y-124355291D01*
X158552985Y-124587126D01*
X158468817Y-124790326D01*
X158462526Y-124805513D01*
X158331201Y-125002055D01*
X158164055Y-125169201D01*
X157967513Y-125300526D01*
X157967512Y-125300527D01*
X157967511Y-125300527D01*
X157749126Y-125390985D01*
X157517291Y-125437100D01*
X157280909Y-125437100D01*
X157049074Y-125390985D01*
X156830689Y-125300527D01*
X156830688Y-125300527D01*
X156830687Y-125300526D01*
X156634145Y-125169201D01*
X156466999Y-125002055D01*
X156335674Y-124805513D01*
X156329383Y-124790326D01*
X156245215Y-124587126D01*
X156199100Y-124355291D01*
X156199100Y-124118909D01*
X156245215Y-123887074D01*
X156335673Y-123668689D01*
X156466999Y-123472145D01*
X156634145Y-123304999D01*
X156830687Y-123173674D01*
X156830689Y-123173673D01*
X157049074Y-123083215D01*
X157280909Y-123037100D01*
X157517291Y-123037100D01*
X157749126Y-123083215D01*
G37*
G36*
X130036837Y-122281458D02*
G01*
X130117638Y-122289416D01*
X130271034Y-122335949D01*
X130324992Y-122352317D01*
X130516084Y-122454457D01*
X130683581Y-122591919D01*
X130821043Y-122759416D01*
X130923183Y-122950508D01*
X130923184Y-122950512D01*
X130986084Y-123157862D01*
X131007322Y-123373500D01*
X130986084Y-123589138D01*
X130961952Y-123668689D01*
X130923183Y-123796492D01*
X130821043Y-123987584D01*
X130683581Y-124155081D01*
X130516084Y-124292543D01*
X130324992Y-124394683D01*
X130271034Y-124411051D01*
X130117638Y-124457584D01*
X130036837Y-124465542D01*
X129956038Y-124473500D01*
X129647962Y-124473500D01*
X129567163Y-124465542D01*
X129486362Y-124457584D01*
X129332966Y-124411051D01*
X129279008Y-124394683D01*
X129087916Y-124292543D01*
X128920419Y-124155081D01*
X128782957Y-123987584D01*
X128680817Y-123796492D01*
X128642048Y-123668689D01*
X128617916Y-123589138D01*
X128596678Y-123373500D01*
X128617916Y-123157862D01*
X128680816Y-122950512D01*
X128680817Y-122950508D01*
X128782957Y-122759416D01*
X128920419Y-122591919D01*
X129087916Y-122454457D01*
X129279008Y-122352317D01*
X129332966Y-122335949D01*
X129486362Y-122289416D01*
X129567163Y-122281458D01*
X129647962Y-122273500D01*
X129956038Y-122273500D01*
X130036837Y-122281458D01*
G37*
G36*
X122416837Y-122281458D02*
G01*
X122497638Y-122289416D01*
X122651034Y-122335949D01*
X122704992Y-122352317D01*
X122896084Y-122454457D01*
X123063581Y-122591919D01*
X123201043Y-122759416D01*
X123303183Y-122950508D01*
X123303184Y-122950512D01*
X123366084Y-123157862D01*
X123387322Y-123373500D01*
X123366084Y-123589138D01*
X123341952Y-123668689D01*
X123303183Y-123796492D01*
X123201043Y-123987584D01*
X123063581Y-124155081D01*
X122896084Y-124292543D01*
X122704992Y-124394683D01*
X122651034Y-124411051D01*
X122497638Y-124457584D01*
X122416837Y-124465542D01*
X122336038Y-124473500D01*
X122027962Y-124473500D01*
X121947163Y-124465542D01*
X121866362Y-124457584D01*
X121712966Y-124411051D01*
X121659008Y-124394683D01*
X121467916Y-124292543D01*
X121300419Y-124155081D01*
X121162957Y-123987584D01*
X121060817Y-123796492D01*
X121022048Y-123668689D01*
X120997916Y-123589138D01*
X120976678Y-123373500D01*
X120997916Y-123157862D01*
X121060816Y-122950512D01*
X121060817Y-122950508D01*
X121162957Y-122759416D01*
X121300419Y-122591919D01*
X121467916Y-122454457D01*
X121659008Y-122352317D01*
X121712966Y-122335949D01*
X121866362Y-122289416D01*
X121947163Y-122281458D01*
X122027962Y-122273500D01*
X122336038Y-122273500D01*
X122416837Y-122281458D01*
G37*
G36*
X154731870Y-116076859D02*
G01*
X154925068Y-116115288D01*
X155311122Y-116275197D01*
X155350936Y-116291688D01*
X155471033Y-116341434D01*
X155546092Y-116391587D01*
X155914072Y-116637463D01*
X155962389Y-116669748D01*
X156380252Y-117087611D01*
X156708566Y-117578967D01*
X156932945Y-118120665D01*
X156934712Y-118124933D01*
X157046432Y-118686584D01*
X157050000Y-118704526D01*
X157050000Y-119295474D01*
X156934712Y-119875068D01*
X156708566Y-120421033D01*
X156543295Y-120668378D01*
X156380253Y-120912388D01*
X155962388Y-121330253D01*
X155718378Y-121493295D01*
X155471033Y-121658566D01*
X154925068Y-121884712D01*
X154759809Y-121917584D01*
X154345476Y-122000000D01*
X153754524Y-122000000D01*
X153340191Y-121917584D01*
X153174932Y-121884712D01*
X152628967Y-121658566D01*
X152381622Y-121493295D01*
X152137612Y-121330253D01*
X151719747Y-120912388D01*
X151556705Y-120668378D01*
X151391434Y-120421033D01*
X151165288Y-119875068D01*
X151050000Y-119295474D01*
X151050000Y-118704526D01*
X151053569Y-118686584D01*
X151165288Y-118124933D01*
X151167056Y-118120665D01*
X151391434Y-117578967D01*
X151719748Y-117087611D01*
X152137611Y-116669748D01*
X152185929Y-116637463D01*
X152553908Y-116391587D01*
X152628967Y-116341434D01*
X152749065Y-116291688D01*
X152788878Y-116275197D01*
X153174932Y-116115288D01*
X153368130Y-116076859D01*
X153754524Y-116000000D01*
X154345476Y-116000000D01*
X154731870Y-116076859D01*
G37*
G36*
X163481870Y-116076859D02*
G01*
X163675068Y-116115288D01*
X164061122Y-116275197D01*
X164100936Y-116291688D01*
X164221033Y-116341434D01*
X164296092Y-116391587D01*
X164664072Y-116637463D01*
X164712389Y-116669748D01*
X165130252Y-117087611D01*
X165458566Y-117578967D01*
X165682945Y-118120665D01*
X165684712Y-118124933D01*
X165796432Y-118686584D01*
X165800000Y-118704526D01*
X165800000Y-119295474D01*
X165684712Y-119875068D01*
X165458566Y-120421033D01*
X165293295Y-120668378D01*
X165130253Y-120912388D01*
X164712388Y-121330253D01*
X164468378Y-121493295D01*
X164221033Y-121658566D01*
X163675068Y-121884712D01*
X163509809Y-121917584D01*
X163095476Y-122000000D01*
X162504524Y-122000000D01*
X162090191Y-121917584D01*
X161924932Y-121884712D01*
X161378967Y-121658566D01*
X161131622Y-121493295D01*
X160887612Y-121330253D01*
X160469747Y-120912388D01*
X160306705Y-120668378D01*
X160141434Y-120421033D01*
X159915288Y-119875068D01*
X159800000Y-119295474D01*
X159800000Y-118704526D01*
X159803569Y-118686584D01*
X159915288Y-118124933D01*
X159917056Y-118120665D01*
X160141434Y-117578967D01*
X160469748Y-117087611D01*
X160887611Y-116669748D01*
X160935929Y-116637463D01*
X161303908Y-116391587D01*
X161378967Y-116341434D01*
X161499065Y-116291688D01*
X161538878Y-116275197D01*
X161924932Y-116115288D01*
X162118130Y-116076859D01*
X162504524Y-116000000D01*
X163095476Y-116000000D01*
X163481870Y-116076859D01*
G37*
G36*
X130036837Y-119741458D02*
G01*
X130117638Y-119749416D01*
X130271034Y-119795949D01*
X130324992Y-119812317D01*
X130516084Y-119914457D01*
X130683581Y-120051919D01*
X130821043Y-120219416D01*
X130923183Y-120410508D01*
X130923184Y-120410512D01*
X130986084Y-120617862D01*
X131007322Y-120833500D01*
X130986084Y-121049138D01*
X130939551Y-121202534D01*
X130923183Y-121256492D01*
X130821043Y-121447584D01*
X130683581Y-121615081D01*
X130516084Y-121752543D01*
X130324992Y-121854683D01*
X130271034Y-121871051D01*
X130117638Y-121917584D01*
X130036837Y-121925542D01*
X129956038Y-121933500D01*
X129647962Y-121933500D01*
X129567163Y-121925542D01*
X129486362Y-121917584D01*
X129332966Y-121871051D01*
X129279008Y-121854683D01*
X129087916Y-121752543D01*
X128920419Y-121615081D01*
X128782957Y-121447584D01*
X128680817Y-121256492D01*
X128664449Y-121202534D01*
X128617916Y-121049138D01*
X128596678Y-120833500D01*
X128617916Y-120617862D01*
X128680816Y-120410512D01*
X128680817Y-120410508D01*
X128782957Y-120219416D01*
X128920419Y-120051919D01*
X129087916Y-119914457D01*
X129279008Y-119812317D01*
X129332966Y-119795949D01*
X129486362Y-119749416D01*
X129567163Y-119741458D01*
X129647962Y-119733500D01*
X129956038Y-119733500D01*
X130036837Y-119741458D01*
G37*
G36*
X122416837Y-119741458D02*
G01*
X122497638Y-119749416D01*
X122651034Y-119795949D01*
X122704992Y-119812317D01*
X122896084Y-119914457D01*
X123063581Y-120051919D01*
X123201043Y-120219416D01*
X123303183Y-120410508D01*
X123303184Y-120410512D01*
X123366084Y-120617862D01*
X123387322Y-120833500D01*
X123366084Y-121049138D01*
X123319551Y-121202534D01*
X123303183Y-121256492D01*
X123201043Y-121447584D01*
X123063581Y-121615081D01*
X122896084Y-121752543D01*
X122704992Y-121854683D01*
X122651034Y-121871051D01*
X122497638Y-121917584D01*
X122416837Y-121925542D01*
X122336038Y-121933500D01*
X122027962Y-121933500D01*
X121947163Y-121925542D01*
X121866362Y-121917584D01*
X121712966Y-121871051D01*
X121659008Y-121854683D01*
X121467916Y-121752543D01*
X121300419Y-121615081D01*
X121162957Y-121447584D01*
X121060817Y-121256492D01*
X121044449Y-121202534D01*
X120997916Y-121049138D01*
X120976678Y-120833500D01*
X120997916Y-120617862D01*
X121060816Y-120410512D01*
X121060817Y-120410508D01*
X121162957Y-120219416D01*
X121300419Y-120051919D01*
X121467916Y-119914457D01*
X121659008Y-119812317D01*
X121712966Y-119795949D01*
X121866362Y-119749416D01*
X121947163Y-119741458D01*
X122027962Y-119733500D01*
X122336038Y-119733500D01*
X122416837Y-119741458D01*
G37*
G36*
X168178687Y-117745027D02*
G01*
X168356274Y-117780350D01*
X168547362Y-117859502D01*
X168719336Y-117974411D01*
X168865589Y-118120664D01*
X168980498Y-118292638D01*
X169059650Y-118483726D01*
X169100000Y-118686584D01*
X169100000Y-118893416D01*
X169059650Y-119096274D01*
X168980498Y-119287362D01*
X168865589Y-119459336D01*
X168719336Y-119605589D01*
X168547362Y-119720498D01*
X168356274Y-119799650D01*
X168178687Y-119834973D01*
X168153417Y-119840000D01*
X167946583Y-119840000D01*
X167921313Y-119834973D01*
X167743726Y-119799650D01*
X167552638Y-119720498D01*
X167380664Y-119605589D01*
X167234411Y-119459336D01*
X167119502Y-119287362D01*
X167040350Y-119096274D01*
X167000000Y-118893416D01*
X167000000Y-118686584D01*
X167040350Y-118483726D01*
X167119502Y-118292638D01*
X167234411Y-118120664D01*
X167380664Y-117974411D01*
X167552638Y-117859502D01*
X167743726Y-117780350D01*
X167921313Y-117745027D01*
X167946583Y-117740000D01*
X168153417Y-117740000D01*
X168178687Y-117745027D01*
G37*
G36*
X125580026Y-92946115D02*
G01*
X125798411Y-93036573D01*
X125798413Y-93036574D01*
X125994955Y-93167899D01*
X126162101Y-93335045D01*
X126293427Y-93531589D01*
X126383885Y-93749974D01*
X126430000Y-93981809D01*
X126430000Y-94218191D01*
X126383885Y-94450026D01*
X126293427Y-94668411D01*
X126293426Y-94668413D01*
X126162101Y-94864955D01*
X125994955Y-95032101D01*
X125798413Y-95163426D01*
X125798412Y-95163427D01*
X125798411Y-95163427D01*
X125578503Y-95254516D01*
X125556892Y-95266067D01*
X125537950Y-95281612D01*
X125522405Y-95300554D01*
X125510854Y-95322165D01*
X125503741Y-95345614D01*
X125501339Y-95370000D01*
X125503741Y-95394386D01*
X125510854Y-95417835D01*
X125522405Y-95439446D01*
X125537950Y-95458388D01*
X125556892Y-95473933D01*
X125578503Y-95485484D01*
X125798411Y-95576573D01*
X125798413Y-95576574D01*
X125994955Y-95707899D01*
X126162101Y-95875045D01*
X126293427Y-96071589D01*
X126383885Y-96289974D01*
X126430000Y-96521809D01*
X126430000Y-96758191D01*
X126383885Y-96990026D01*
X126293427Y-97208411D01*
X126293426Y-97208413D01*
X126162101Y-97404955D01*
X125994955Y-97572101D01*
X125798413Y-97703426D01*
X125798412Y-97703427D01*
X125798411Y-97703427D01*
X125578503Y-97794516D01*
X125556892Y-97806067D01*
X125537950Y-97821612D01*
X125522405Y-97840554D01*
X125510854Y-97862165D01*
X125503741Y-97885614D01*
X125501339Y-97910000D01*
X125503741Y-97934386D01*
X125510854Y-97957835D01*
X125522405Y-97979446D01*
X125537950Y-97998388D01*
X125556892Y-98013933D01*
X125578503Y-98025484D01*
X125798411Y-98116573D01*
X125798413Y-98116574D01*
X125994955Y-98247899D01*
X126162101Y-98415045D01*
X126293427Y-98611589D01*
X126383885Y-98829974D01*
X126430000Y-99061809D01*
X126430000Y-99298191D01*
X126383885Y-99530026D01*
X126293427Y-99748411D01*
X126293426Y-99748413D01*
X126162101Y-99944955D01*
X125994955Y-100112101D01*
X125798413Y-100243426D01*
X125798412Y-100243427D01*
X125798411Y-100243427D01*
X125578503Y-100334516D01*
X125556892Y-100346067D01*
X125537950Y-100361612D01*
X125522405Y-100380554D01*
X125510854Y-100402165D01*
X125503741Y-100425614D01*
X125501339Y-100450000D01*
X125503741Y-100474386D01*
X125510854Y-100497835D01*
X125522405Y-100519446D01*
X125537950Y-100538388D01*
X125556892Y-100553933D01*
X125578503Y-100565484D01*
X125798411Y-100656573D01*
X125798413Y-100656574D01*
X125994955Y-100787899D01*
X126162101Y-100955045D01*
X126293427Y-101151589D01*
X126383885Y-101369974D01*
X126430000Y-101601809D01*
X126430000Y-101838191D01*
X126383885Y-102070026D01*
X126308681Y-102251584D01*
X126293426Y-102288413D01*
X126162101Y-102484955D01*
X125994955Y-102652101D01*
X125798413Y-102783426D01*
X125798412Y-102783427D01*
X125798411Y-102783427D01*
X125578503Y-102874516D01*
X125556892Y-102886067D01*
X125537950Y-102901612D01*
X125522405Y-102920554D01*
X125510854Y-102942165D01*
X125503741Y-102965614D01*
X125501339Y-102990000D01*
X125503741Y-103014386D01*
X125510854Y-103037835D01*
X125522405Y-103059446D01*
X125537950Y-103078388D01*
X125556892Y-103093933D01*
X125578503Y-103105484D01*
X125798411Y-103196573D01*
X125798413Y-103196574D01*
X125931497Y-103285498D01*
X125994955Y-103327899D01*
X126162101Y-103495045D01*
X126293427Y-103691589D01*
X126383885Y-103909974D01*
X126430000Y-104141809D01*
X126430000Y-104378191D01*
X126383885Y-104610026D01*
X126308681Y-104791584D01*
X126293426Y-104828413D01*
X126162101Y-105024955D01*
X125994955Y-105192101D01*
X125798413Y-105323426D01*
X125798412Y-105323427D01*
X125798411Y-105323427D01*
X125578503Y-105414516D01*
X125556892Y-105426067D01*
X125537950Y-105441612D01*
X125522405Y-105460554D01*
X125510854Y-105482165D01*
X125503741Y-105505614D01*
X125501339Y-105530000D01*
X125503741Y-105554386D01*
X125510854Y-105577835D01*
X125522405Y-105599446D01*
X125537950Y-105618388D01*
X125556892Y-105633933D01*
X125578503Y-105645484D01*
X125798411Y-105736573D01*
X125798413Y-105736574D01*
X125931497Y-105825498D01*
X125994955Y-105867899D01*
X126162101Y-106035045D01*
X126293427Y-106231589D01*
X126383885Y-106449974D01*
X126430000Y-106681809D01*
X126430000Y-106918191D01*
X126383885Y-107150026D01*
X126308681Y-107331584D01*
X126293426Y-107368413D01*
X126162101Y-107564955D01*
X125994955Y-107732101D01*
X125798413Y-107863426D01*
X125798412Y-107863427D01*
X125798411Y-107863427D01*
X125578503Y-107954516D01*
X125556892Y-107966067D01*
X125537950Y-107981612D01*
X125522405Y-108000554D01*
X125510854Y-108022165D01*
X125503741Y-108045614D01*
X125501339Y-108070000D01*
X125503741Y-108094386D01*
X125510854Y-108117835D01*
X125522405Y-108139446D01*
X125537950Y-108158388D01*
X125556892Y-108173933D01*
X125578503Y-108185484D01*
X125798411Y-108276573D01*
X125798413Y-108276574D01*
X125931497Y-108365498D01*
X125994955Y-108407899D01*
X126162101Y-108575045D01*
X126293427Y-108771589D01*
X126383885Y-108989974D01*
X126430000Y-109221809D01*
X126430000Y-109458191D01*
X126383885Y-109690026D01*
X126308681Y-109871584D01*
X126293426Y-109908413D01*
X126162101Y-110104955D01*
X125994955Y-110272101D01*
X125798413Y-110403426D01*
X125798412Y-110403427D01*
X125798411Y-110403427D01*
X125578503Y-110494516D01*
X125556892Y-110506067D01*
X125537950Y-110521612D01*
X125522405Y-110540554D01*
X125510854Y-110562165D01*
X125503741Y-110585614D01*
X125501339Y-110610000D01*
X125503741Y-110634386D01*
X125510854Y-110657835D01*
X125522405Y-110679446D01*
X125537950Y-110698388D01*
X125556892Y-110713933D01*
X125578503Y-110725484D01*
X125798411Y-110816573D01*
X125798413Y-110816574D01*
X125931497Y-110905498D01*
X125994955Y-110947899D01*
X126162101Y-111115045D01*
X126293427Y-111311589D01*
X126383885Y-111529974D01*
X126430000Y-111761809D01*
X126430000Y-111998191D01*
X126383885Y-112230026D01*
X126308681Y-112411584D01*
X126293426Y-112448413D01*
X126162101Y-112644955D01*
X125994955Y-112812101D01*
X125798413Y-112943426D01*
X125798412Y-112943427D01*
X125798411Y-112943427D01*
X125578503Y-113034516D01*
X125556892Y-113046067D01*
X125537950Y-113061612D01*
X125522405Y-113080554D01*
X125510854Y-113102165D01*
X125503741Y-113125614D01*
X125501339Y-113150000D01*
X125503741Y-113174386D01*
X125510854Y-113197835D01*
X125522405Y-113219446D01*
X125537950Y-113238388D01*
X125556892Y-113253933D01*
X125578503Y-113265484D01*
X125798411Y-113356573D01*
X125798413Y-113356574D01*
X125931497Y-113445498D01*
X125994955Y-113487899D01*
X126162101Y-113655045D01*
X126293427Y-113851589D01*
X126383885Y-114069974D01*
X126430000Y-114301809D01*
X126430000Y-114538191D01*
X126383885Y-114770026D01*
X126293427Y-114988411D01*
X126293426Y-114988413D01*
X126162101Y-115184955D01*
X125994955Y-115352101D01*
X125798413Y-115483426D01*
X125798412Y-115483427D01*
X125798411Y-115483427D01*
X125578503Y-115574516D01*
X125556892Y-115586067D01*
X125537950Y-115601612D01*
X125522405Y-115620554D01*
X125510854Y-115642165D01*
X125503741Y-115665614D01*
X125501339Y-115690000D01*
X125503741Y-115714386D01*
X125510854Y-115737835D01*
X125522405Y-115759446D01*
X125537950Y-115778388D01*
X125556892Y-115793933D01*
X125578503Y-115805484D01*
X125798411Y-115896573D01*
X125798413Y-115896574D01*
X125953201Y-116000000D01*
X125994955Y-116027899D01*
X126162101Y-116195045D01*
X126293427Y-116391589D01*
X126383885Y-116609974D01*
X126430000Y-116841809D01*
X126430000Y-117078191D01*
X126383885Y-117310026D01*
X126293427Y-117528411D01*
X126293426Y-117528413D01*
X126162101Y-117724955D01*
X125994955Y-117892101D01*
X125798413Y-118023426D01*
X125798412Y-118023427D01*
X125798411Y-118023427D01*
X125580026Y-118113885D01*
X125348191Y-118160000D01*
X125111809Y-118160000D01*
X124879974Y-118113885D01*
X124661589Y-118023427D01*
X124661588Y-118023427D01*
X124661587Y-118023426D01*
X124465045Y-117892101D01*
X124297899Y-117724955D01*
X124166574Y-117528413D01*
X124166573Y-117528411D01*
X124076115Y-117310026D01*
X124030000Y-117078191D01*
X124030000Y-116841809D01*
X124076115Y-116609974D01*
X124166573Y-116391589D01*
X124297899Y-116195045D01*
X124465045Y-116027899D01*
X124506799Y-116000000D01*
X124661587Y-115896574D01*
X124661589Y-115896573D01*
X124881497Y-115805484D01*
X124903108Y-115793933D01*
X124922050Y-115778388D01*
X124937595Y-115759446D01*
X124949146Y-115737835D01*
X124956259Y-115714386D01*
X124958661Y-115690000D01*
X124956259Y-115665614D01*
X124949146Y-115642165D01*
X124937595Y-115620554D01*
X124922050Y-115601612D01*
X124903108Y-115586067D01*
X124881497Y-115574516D01*
X124661589Y-115483427D01*
X124661588Y-115483427D01*
X124661587Y-115483426D01*
X124465045Y-115352101D01*
X124297899Y-115184955D01*
X124166574Y-114988413D01*
X124166573Y-114988411D01*
X124076115Y-114770026D01*
X124030000Y-114538191D01*
X124030000Y-114301809D01*
X124076115Y-114069974D01*
X124166573Y-113851589D01*
X124297899Y-113655045D01*
X124465045Y-113487899D01*
X124528503Y-113445498D01*
X124661587Y-113356574D01*
X124661589Y-113356573D01*
X124881497Y-113265484D01*
X124903108Y-113253933D01*
X124922050Y-113238388D01*
X124937595Y-113219446D01*
X124949146Y-113197835D01*
X124956259Y-113174386D01*
X124958661Y-113150000D01*
X124956259Y-113125614D01*
X124949146Y-113102165D01*
X124937595Y-113080554D01*
X124922050Y-113061612D01*
X124903108Y-113046067D01*
X124881497Y-113034516D01*
X124661589Y-112943427D01*
X124661588Y-112943427D01*
X124661587Y-112943426D01*
X124465045Y-112812101D01*
X124297899Y-112644955D01*
X124166574Y-112448413D01*
X124151319Y-112411584D01*
X124076115Y-112230026D01*
X124030000Y-111998191D01*
X124030000Y-111761809D01*
X124076115Y-111529974D01*
X124166573Y-111311589D01*
X124297899Y-111115045D01*
X124465045Y-110947899D01*
X124528503Y-110905498D01*
X124661587Y-110816574D01*
X124661589Y-110816573D01*
X124881497Y-110725484D01*
X124903108Y-110713933D01*
X124922050Y-110698388D01*
X124937595Y-110679446D01*
X124949146Y-110657835D01*
X124956259Y-110634386D01*
X124958661Y-110610000D01*
X124956259Y-110585614D01*
X124949146Y-110562165D01*
X124937595Y-110540554D01*
X124922050Y-110521612D01*
X124903108Y-110506067D01*
X124881497Y-110494516D01*
X124661589Y-110403427D01*
X124661588Y-110403427D01*
X124661587Y-110403426D01*
X124465045Y-110272101D01*
X124297899Y-110104955D01*
X124166574Y-109908413D01*
X124151319Y-109871584D01*
X124076115Y-109690026D01*
X124030000Y-109458191D01*
X124030000Y-109221809D01*
X124076115Y-108989974D01*
X124166573Y-108771589D01*
X124297899Y-108575045D01*
X124465045Y-108407899D01*
X124528503Y-108365498D01*
X124661587Y-108276574D01*
X124661589Y-108276573D01*
X124881497Y-108185484D01*
X124903108Y-108173933D01*
X124922050Y-108158388D01*
X124937595Y-108139446D01*
X124949146Y-108117835D01*
X124956259Y-108094386D01*
X124958661Y-108070000D01*
X124956259Y-108045614D01*
X124949146Y-108022165D01*
X124937595Y-108000554D01*
X124922050Y-107981612D01*
X124903108Y-107966067D01*
X124881497Y-107954516D01*
X124661589Y-107863427D01*
X124661588Y-107863427D01*
X124661587Y-107863426D01*
X124465045Y-107732101D01*
X124297899Y-107564955D01*
X124166574Y-107368413D01*
X124151319Y-107331584D01*
X124076115Y-107150026D01*
X124030000Y-106918191D01*
X124030000Y-106681809D01*
X124076115Y-106449974D01*
X124166573Y-106231589D01*
X124297899Y-106035045D01*
X124465045Y-105867899D01*
X124528503Y-105825498D01*
X124661587Y-105736574D01*
X124661589Y-105736573D01*
X124881497Y-105645484D01*
X124903108Y-105633933D01*
X124922050Y-105618388D01*
X124937595Y-105599446D01*
X124949146Y-105577835D01*
X124956259Y-105554386D01*
X124958661Y-105530000D01*
X124956259Y-105505614D01*
X124949146Y-105482165D01*
X124937595Y-105460554D01*
X124922050Y-105441612D01*
X124903108Y-105426067D01*
X124881497Y-105414516D01*
X124661589Y-105323427D01*
X124661588Y-105323427D01*
X124661587Y-105323426D01*
X124465045Y-105192101D01*
X124297899Y-105024955D01*
X124166574Y-104828413D01*
X124151319Y-104791584D01*
X124076115Y-104610026D01*
X124030000Y-104378191D01*
X124030000Y-104141809D01*
X124076115Y-103909974D01*
X124166573Y-103691589D01*
X124297899Y-103495045D01*
X124465045Y-103327899D01*
X124528503Y-103285498D01*
X124661587Y-103196574D01*
X124661589Y-103196573D01*
X124881497Y-103105484D01*
X124903108Y-103093933D01*
X124922050Y-103078388D01*
X124937595Y-103059446D01*
X124949146Y-103037835D01*
X124956259Y-103014386D01*
X124958661Y-102990000D01*
X124956259Y-102965614D01*
X124949146Y-102942165D01*
X124937595Y-102920554D01*
X124922050Y-102901612D01*
X124903108Y-102886067D01*
X124881497Y-102874516D01*
X124661589Y-102783427D01*
X124661588Y-102783427D01*
X124661587Y-102783426D01*
X124465045Y-102652101D01*
X124297899Y-102484955D01*
X124166574Y-102288413D01*
X124151319Y-102251584D01*
X124076115Y-102070026D01*
X124030000Y-101838191D01*
X124030000Y-101601809D01*
X124076115Y-101369974D01*
X124166573Y-101151589D01*
X124297899Y-100955045D01*
X124465045Y-100787899D01*
X124661587Y-100656574D01*
X124661589Y-100656573D01*
X124881497Y-100565484D01*
X124903108Y-100553933D01*
X124922050Y-100538388D01*
X124937595Y-100519446D01*
X124949146Y-100497835D01*
X124956259Y-100474386D01*
X124958661Y-100450000D01*
X124956259Y-100425614D01*
X124949146Y-100402165D01*
X124937595Y-100380554D01*
X124922050Y-100361612D01*
X124903108Y-100346067D01*
X124881497Y-100334516D01*
X124661589Y-100243427D01*
X124661588Y-100243427D01*
X124661587Y-100243426D01*
X124465045Y-100112101D01*
X124297899Y-99944955D01*
X124166574Y-99748413D01*
X124166573Y-99748411D01*
X124076115Y-99530026D01*
X124030000Y-99298191D01*
X124030000Y-99061809D01*
X124076115Y-98829974D01*
X124166573Y-98611589D01*
X124297899Y-98415045D01*
X124465045Y-98247899D01*
X124661587Y-98116574D01*
X124661589Y-98116573D01*
X124881497Y-98025484D01*
X124903108Y-98013933D01*
X124922050Y-97998388D01*
X124937595Y-97979446D01*
X124949146Y-97957835D01*
X124956259Y-97934386D01*
X124958661Y-97910000D01*
X124956259Y-97885614D01*
X124949146Y-97862165D01*
X124937595Y-97840554D01*
X124922050Y-97821612D01*
X124903108Y-97806067D01*
X124881497Y-97794516D01*
X124661589Y-97703427D01*
X124661588Y-97703427D01*
X124661587Y-97703426D01*
X124465045Y-97572101D01*
X124297899Y-97404955D01*
X124166574Y-97208413D01*
X124166573Y-97208411D01*
X124076115Y-96990026D01*
X124030000Y-96758191D01*
X124030000Y-96521809D01*
X124076115Y-96289974D01*
X124166573Y-96071589D01*
X124297899Y-95875045D01*
X124465045Y-95707899D01*
X124661587Y-95576574D01*
X124661589Y-95576573D01*
X124881497Y-95485484D01*
X124903108Y-95473933D01*
X124922050Y-95458388D01*
X124937595Y-95439446D01*
X124949146Y-95417835D01*
X124956259Y-95394386D01*
X124958661Y-95370000D01*
X124956259Y-95345614D01*
X124949146Y-95322165D01*
X124937595Y-95300554D01*
X124922050Y-95281612D01*
X124903108Y-95266067D01*
X124881497Y-95254516D01*
X124661589Y-95163427D01*
X124661588Y-95163427D01*
X124661587Y-95163426D01*
X124465045Y-95032101D01*
X124297899Y-94864955D01*
X124166574Y-94668413D01*
X124166573Y-94668411D01*
X124076115Y-94450026D01*
X124030000Y-94218191D01*
X124030000Y-93981809D01*
X124076115Y-93749974D01*
X124166573Y-93531589D01*
X124297899Y-93335045D01*
X124465045Y-93167899D01*
X124661587Y-93036574D01*
X124661589Y-93036573D01*
X124879974Y-92946115D01*
X125111809Y-92900000D01*
X125348191Y-92900000D01*
X125580026Y-92946115D01*
G37*
G36*
X169100000Y-117300000D02*
G01*
X167000000Y-117300000D01*
X167000000Y-115200000D01*
X169100000Y-115200000D01*
X169100000Y-117300000D01*
G37*
G36*
X122277290Y-115025619D02*
G01*
X122341689Y-115038429D01*
X122523678Y-115113811D01*
X122687463Y-115223249D01*
X122826751Y-115362537D01*
X122936189Y-115526322D01*
X122988459Y-115652514D01*
X123011571Y-115708312D01*
X123050000Y-115901507D01*
X123050000Y-116098493D01*
X123024381Y-116227290D01*
X123011571Y-116291689D01*
X122936189Y-116473678D01*
X122826751Y-116637463D01*
X122687463Y-116776751D01*
X122523678Y-116886189D01*
X122341689Y-116961571D01*
X122277290Y-116974381D01*
X122148493Y-117000000D01*
X121951507Y-117000000D01*
X121822710Y-116974381D01*
X121758311Y-116961571D01*
X121576322Y-116886189D01*
X121412537Y-116776751D01*
X121273249Y-116637463D01*
X121163811Y-116473678D01*
X121088429Y-116291689D01*
X121075619Y-116227290D01*
X121050000Y-116098493D01*
X121050000Y-115901507D01*
X121088429Y-115708312D01*
X121111541Y-115652514D01*
X121163811Y-115526322D01*
X121273249Y-115362537D01*
X121412537Y-115223249D01*
X121576322Y-115113811D01*
X121758311Y-115038429D01*
X121822710Y-115025619D01*
X121951507Y-115000000D01*
X122148493Y-115000000D01*
X122277290Y-115025619D01*
G37*
G36*
X159580604Y-113874968D02*
G01*
X159755678Y-113947486D01*
X159755679Y-113947487D01*
X159913237Y-114052763D01*
X160047237Y-114186763D01*
X160124108Y-114301810D01*
X160152514Y-114344322D01*
X160188772Y-114431858D01*
X160225032Y-114519396D01*
X160262000Y-114705250D01*
X160262000Y-114894750D01*
X160225032Y-115080604D01*
X160211277Y-115113811D01*
X160152514Y-115255678D01*
X160152513Y-115255679D01*
X160047237Y-115413237D01*
X159913237Y-115547237D01*
X159803509Y-115620554D01*
X159755678Y-115652514D01*
X159668142Y-115688772D01*
X159580604Y-115725032D01*
X159394750Y-115762000D01*
X159205250Y-115762000D01*
X159019396Y-115725032D01*
X158931858Y-115688772D01*
X158844322Y-115652514D01*
X158796491Y-115620554D01*
X158686763Y-115547237D01*
X158552763Y-115413237D01*
X158447487Y-115255679D01*
X158447486Y-115255678D01*
X158388723Y-115113811D01*
X158374968Y-115080604D01*
X158338000Y-114894750D01*
X158338000Y-114705250D01*
X158374968Y-114519396D01*
X158411228Y-114431858D01*
X158447486Y-114344322D01*
X158475892Y-114301810D01*
X158552763Y-114186763D01*
X158686763Y-114052763D01*
X158844321Y-113947487D01*
X158844322Y-113947486D01*
X159019396Y-113874968D01*
X159205250Y-113838000D01*
X159394750Y-113838000D01*
X159580604Y-113874968D01*
G37*
G36*
X147580604Y-113874968D02*
G01*
X147755678Y-113947486D01*
X147755679Y-113947487D01*
X147913237Y-114052763D01*
X148047237Y-114186763D01*
X148124108Y-114301810D01*
X148152514Y-114344322D01*
X148188772Y-114431858D01*
X148225032Y-114519396D01*
X148262000Y-114705250D01*
X148262000Y-114894750D01*
X148225032Y-115080604D01*
X148211277Y-115113811D01*
X148152514Y-115255678D01*
X148152513Y-115255679D01*
X148047237Y-115413237D01*
X147913237Y-115547237D01*
X147803509Y-115620554D01*
X147755678Y-115652514D01*
X147668142Y-115688772D01*
X147580604Y-115725032D01*
X147394750Y-115762000D01*
X147205250Y-115762000D01*
X147019396Y-115725032D01*
X146931858Y-115688772D01*
X146844322Y-115652514D01*
X146796491Y-115620554D01*
X146686763Y-115547237D01*
X146552763Y-115413237D01*
X146447487Y-115255679D01*
X146447486Y-115255678D01*
X146388723Y-115113811D01*
X146374968Y-115080604D01*
X146338000Y-114894750D01*
X146338000Y-114705250D01*
X146374968Y-114519396D01*
X146411228Y-114431858D01*
X146447486Y-114344322D01*
X146475892Y-114301810D01*
X146552763Y-114186763D01*
X146686763Y-114052763D01*
X146844321Y-113947487D01*
X146844322Y-113947486D01*
X147019396Y-113874968D01*
X147205250Y-113838000D01*
X147394750Y-113838000D01*
X147580604Y-113874968D01*
G37*
G36*
X167903687Y-111470027D02*
G01*
X168081274Y-111505350D01*
X168272362Y-111584502D01*
X168444336Y-111699411D01*
X168590589Y-111845664D01*
X168705498Y-112017638D01*
X168784650Y-112208726D01*
X168825000Y-112411584D01*
X168825000Y-112618416D01*
X168784650Y-112821274D01*
X168705498Y-113012362D01*
X168590589Y-113184336D01*
X168444336Y-113330589D01*
X168272362Y-113445498D01*
X168081274Y-113524650D01*
X167903687Y-113559973D01*
X167878417Y-113565000D01*
X167671583Y-113565000D01*
X167646313Y-113559973D01*
X167468726Y-113524650D01*
X167277638Y-113445498D01*
X167105664Y-113330589D01*
X166959411Y-113184336D01*
X166844502Y-113012362D01*
X166765350Y-112821274D01*
X166725000Y-112618416D01*
X166725000Y-112411584D01*
X166765350Y-112208726D01*
X166844502Y-112017638D01*
X166959411Y-111845664D01*
X167105664Y-111699411D01*
X167277638Y-111584502D01*
X167468726Y-111505350D01*
X167646313Y-111470027D01*
X167671583Y-111465000D01*
X167878417Y-111465000D01*
X167903687Y-111470027D01*
G37*
G36*
X167903687Y-108930027D02*
G01*
X168081274Y-108965350D01*
X168272362Y-109044502D01*
X168444336Y-109159411D01*
X168590589Y-109305664D01*
X168705498Y-109477638D01*
X168784650Y-109668726D01*
X168825000Y-109871584D01*
X168825000Y-110078416D01*
X168784650Y-110281274D01*
X168705498Y-110472362D01*
X168590589Y-110644336D01*
X168444336Y-110790589D01*
X168272362Y-110905498D01*
X168081274Y-110984650D01*
X167903687Y-111019973D01*
X167878417Y-111025000D01*
X167671583Y-111025000D01*
X167646313Y-111019973D01*
X167468726Y-110984650D01*
X167277638Y-110905498D01*
X167105664Y-110790589D01*
X166959411Y-110644336D01*
X166844502Y-110472362D01*
X166765350Y-110281274D01*
X166725000Y-110078416D01*
X166725000Y-109871584D01*
X166765350Y-109668726D01*
X166844502Y-109477638D01*
X166959411Y-109305664D01*
X167105664Y-109159411D01*
X167277638Y-109044502D01*
X167468726Y-108965350D01*
X167646313Y-108930027D01*
X167671583Y-108925000D01*
X167878417Y-108925000D01*
X167903687Y-108930027D01*
G37*
G36*
X122277290Y-107405619D02*
G01*
X122341689Y-107418429D01*
X122523678Y-107493811D01*
X122687463Y-107603249D01*
X122826751Y-107742537D01*
X122936189Y-107906322D01*
X123011571Y-108088311D01*
X123017444Y-108117835D01*
X123050000Y-108281507D01*
X123050000Y-108478493D01*
X123024381Y-108607290D01*
X123011571Y-108671689D01*
X122936189Y-108853678D01*
X122826751Y-109017463D01*
X122687463Y-109156751D01*
X122523678Y-109266189D01*
X122341689Y-109341571D01*
X122277290Y-109354381D01*
X122148493Y-109380000D01*
X121951507Y-109380000D01*
X121822710Y-109354381D01*
X121758311Y-109341571D01*
X121576322Y-109266189D01*
X121412537Y-109156751D01*
X121273249Y-109017463D01*
X121163811Y-108853678D01*
X121088429Y-108671689D01*
X121075619Y-108607290D01*
X121050000Y-108478493D01*
X121050000Y-108281507D01*
X121082556Y-108117835D01*
X121088429Y-108088311D01*
X121163811Y-107906322D01*
X121273249Y-107742537D01*
X121412537Y-107603249D01*
X121576322Y-107493811D01*
X121758311Y-107418429D01*
X121822710Y-107405619D01*
X121951507Y-107380000D01*
X122148493Y-107380000D01*
X122277290Y-107405619D01*
G37*
G36*
X167903687Y-106390027D02*
G01*
X168081274Y-106425350D01*
X168272362Y-106504502D01*
X168444336Y-106619411D01*
X168590589Y-106765664D01*
X168705498Y-106937638D01*
X168784650Y-107128726D01*
X168825000Y-107331584D01*
X168825000Y-107538416D01*
X168784650Y-107741274D01*
X168705498Y-107932362D01*
X168590589Y-108104336D01*
X168444336Y-108250589D01*
X168272362Y-108365498D01*
X168081274Y-108444650D01*
X167903687Y-108479973D01*
X167878417Y-108485000D01*
X167671583Y-108485000D01*
X167646313Y-108479973D01*
X167468726Y-108444650D01*
X167277638Y-108365498D01*
X167105664Y-108250589D01*
X166959411Y-108104336D01*
X166844502Y-107932362D01*
X166765350Y-107741274D01*
X166725000Y-107538416D01*
X166725000Y-107331584D01*
X166765350Y-107128726D01*
X166844502Y-106937638D01*
X166959411Y-106765664D01*
X167105664Y-106619411D01*
X167277638Y-106504502D01*
X167468726Y-106425350D01*
X167646313Y-106390027D01*
X167671583Y-106385000D01*
X167878417Y-106385000D01*
X167903687Y-106390027D01*
G37*
G36*
X167903687Y-103850027D02*
G01*
X168081274Y-103885350D01*
X168272362Y-103964502D01*
X168444336Y-104079411D01*
X168590589Y-104225664D01*
X168705498Y-104397638D01*
X168784650Y-104588726D01*
X168825000Y-104791584D01*
X168825000Y-104998416D01*
X168784650Y-105201274D01*
X168705498Y-105392362D01*
X168590589Y-105564336D01*
X168444336Y-105710589D01*
X168272362Y-105825498D01*
X168081274Y-105904650D01*
X167903687Y-105939973D01*
X167878417Y-105945000D01*
X167671583Y-105945000D01*
X167646313Y-105939973D01*
X167468726Y-105904650D01*
X167277638Y-105825498D01*
X167105664Y-105710589D01*
X166959411Y-105564336D01*
X166844502Y-105392362D01*
X166765350Y-105201274D01*
X166725000Y-104998416D01*
X166725000Y-104791584D01*
X166765350Y-104588726D01*
X166844502Y-104397638D01*
X166959411Y-104225664D01*
X167105664Y-104079411D01*
X167277638Y-103964502D01*
X167468726Y-103885350D01*
X167646313Y-103850027D01*
X167671583Y-103845000D01*
X167878417Y-103845000D01*
X167903687Y-103850027D01*
G37*
G36*
X167903687Y-101310027D02*
G01*
X168081274Y-101345350D01*
X168272362Y-101424502D01*
X168444336Y-101539411D01*
X168590589Y-101685664D01*
X168705498Y-101857638D01*
X168784650Y-102048726D01*
X168825000Y-102251584D01*
X168825000Y-102458416D01*
X168784650Y-102661274D01*
X168705498Y-102852362D01*
X168590589Y-103024336D01*
X168444336Y-103170589D01*
X168272362Y-103285498D01*
X168081274Y-103364650D01*
X167903687Y-103399973D01*
X167878417Y-103405000D01*
X167671583Y-103405000D01*
X167646313Y-103399973D01*
X167468726Y-103364650D01*
X167277638Y-103285498D01*
X167105664Y-103170589D01*
X166959411Y-103024336D01*
X166844502Y-102852362D01*
X166765350Y-102661274D01*
X166725000Y-102458416D01*
X166725000Y-102251584D01*
X166765350Y-102048726D01*
X166844502Y-101857638D01*
X166959411Y-101685664D01*
X167105664Y-101539411D01*
X167277638Y-101424502D01*
X167468726Y-101345350D01*
X167646313Y-101310027D01*
X167671583Y-101305000D01*
X167878417Y-101305000D01*
X167903687Y-101310027D01*
G37*
G36*
X168825000Y-100865000D02*
G01*
X166725000Y-100865000D01*
X166725000Y-98765000D01*
X168825000Y-98765000D01*
X168825000Y-100865000D01*
G37*
G36*
X126400026Y-86846115D02*
G01*
X126618411Y-86936573D01*
X126618413Y-86936574D01*
X126814955Y-87067899D01*
X126982101Y-87235045D01*
X127107761Y-87423108D01*
X127113427Y-87431589D01*
X127203885Y-87649974D01*
X127250000Y-87881809D01*
X127250000Y-88118191D01*
X127203885Y-88350026D01*
X127135569Y-88514955D01*
X127113426Y-88568413D01*
X126982101Y-88764955D01*
X126814955Y-88932101D01*
X126618413Y-89063426D01*
X126618412Y-89063427D01*
X126618411Y-89063427D01*
X126400026Y-89153885D01*
X126168191Y-89200000D01*
X125931809Y-89200000D01*
X125699974Y-89153885D01*
X125481589Y-89063427D01*
X125481588Y-89063427D01*
X125481587Y-89063426D01*
X125285045Y-88932101D01*
X125117899Y-88764955D01*
X124986574Y-88568413D01*
X124964431Y-88514955D01*
X124896115Y-88350026D01*
X124850000Y-88118191D01*
X124850000Y-87881809D01*
X124896115Y-87649974D01*
X124986573Y-87431589D01*
X124992240Y-87423108D01*
X125117899Y-87235045D01*
X125285045Y-87067899D01*
X125481587Y-86936574D01*
X125481589Y-86936573D01*
X125699974Y-86846115D01*
X125931809Y-86800000D01*
X126168191Y-86800000D01*
X126400026Y-86846115D01*
G37*
G36*
X121900026Y-86846115D02*
G01*
X122118411Y-86936573D01*
X122118413Y-86936574D01*
X122314955Y-87067899D01*
X122482101Y-87235045D01*
X122607761Y-87423108D01*
X122613427Y-87431589D01*
X122703885Y-87649974D01*
X122750000Y-87881809D01*
X122750000Y-88118191D01*
X122703885Y-88350026D01*
X122635569Y-88514955D01*
X122613426Y-88568413D01*
X122482101Y-88764955D01*
X122314955Y-88932101D01*
X122118413Y-89063426D01*
X122118412Y-89063427D01*
X122118411Y-89063427D01*
X121900026Y-89153885D01*
X121668191Y-89200000D01*
X121431809Y-89200000D01*
X121199974Y-89153885D01*
X120981589Y-89063427D01*
X120981588Y-89063427D01*
X120981587Y-89063426D01*
X120785045Y-88932101D01*
X120617899Y-88764955D01*
X120486574Y-88568413D01*
X120464431Y-88514955D01*
X120396115Y-88350026D01*
X120350000Y-88118191D01*
X120350000Y-87881809D01*
X120396115Y-87649974D01*
X120486573Y-87431589D01*
X120492240Y-87423108D01*
X120617899Y-87235045D01*
X120785045Y-87067899D01*
X120981587Y-86936574D01*
X120981589Y-86936573D01*
X121199974Y-86846115D01*
X121431809Y-86800000D01*
X121668191Y-86800000D01*
X121900026Y-86846115D01*
G37*
G36*
X164400026Y-86846115D02*
G01*
X164618411Y-86936573D01*
X164618413Y-86936574D01*
X164814955Y-87067899D01*
X164982101Y-87235045D01*
X165107761Y-87423108D01*
X165113427Y-87431589D01*
X165203885Y-87649974D01*
X165250000Y-87881809D01*
X165250000Y-88118191D01*
X165203885Y-88350026D01*
X165135569Y-88514955D01*
X165113426Y-88568413D01*
X164982101Y-88764955D01*
X164814955Y-88932101D01*
X164618413Y-89063426D01*
X164618412Y-89063427D01*
X164618411Y-89063427D01*
X164400026Y-89153885D01*
X164168191Y-89200000D01*
X163931809Y-89200000D01*
X163699974Y-89153885D01*
X163481589Y-89063427D01*
X163481588Y-89063427D01*
X163481587Y-89063426D01*
X163285045Y-88932101D01*
X163117899Y-88764955D01*
X162986574Y-88568413D01*
X162964431Y-88514955D01*
X162896115Y-88350026D01*
X162850000Y-88118191D01*
X162850000Y-87881809D01*
X162896115Y-87649974D01*
X162986573Y-87431589D01*
X162992240Y-87423108D01*
X163117899Y-87235045D01*
X163285045Y-87067899D01*
X163481587Y-86936574D01*
X163481589Y-86936573D01*
X163699974Y-86846115D01*
X163931809Y-86800000D01*
X164168191Y-86800000D01*
X164400026Y-86846115D01*
G37*
G36*
X168900026Y-86846115D02*
G01*
X169118411Y-86936573D01*
X169118413Y-86936574D01*
X169314955Y-87067899D01*
X169482101Y-87235045D01*
X169607761Y-87423108D01*
X169613427Y-87431589D01*
X169703885Y-87649974D01*
X169750000Y-87881809D01*
X169750000Y-88118191D01*
X169703885Y-88350026D01*
X169635569Y-88514955D01*
X169613426Y-88568413D01*
X169482101Y-88764955D01*
X169314955Y-88932101D01*
X169118413Y-89063426D01*
X169118412Y-89063427D01*
X169118411Y-89063427D01*
X168900026Y-89153885D01*
X168668191Y-89200000D01*
X168431809Y-89200000D01*
X168199974Y-89153885D01*
X167981589Y-89063427D01*
X167981588Y-89063427D01*
X167981587Y-89063426D01*
X167785045Y-88932101D01*
X167617899Y-88764955D01*
X167486574Y-88568413D01*
X167464431Y-88514955D01*
X167396115Y-88350026D01*
X167350000Y-88118191D01*
X167350000Y-87881809D01*
X167396115Y-87649974D01*
X167486573Y-87431589D01*
X167492240Y-87423108D01*
X167617899Y-87235045D01*
X167785045Y-87067899D01*
X167981587Y-86936574D01*
X167981589Y-86936573D01*
X168199974Y-86846115D01*
X168431809Y-86800000D01*
X168668191Y-86800000D01*
X168900026Y-86846115D01*
G37*
G36*
X131930026Y-86596115D02*
G01*
X132148411Y-86686573D01*
X132148413Y-86686574D01*
X132318167Y-86800000D01*
X132344955Y-86817899D01*
X132512101Y-86985045D01*
X132643427Y-87181589D01*
X132734516Y-87401497D01*
X132746067Y-87423108D01*
X132761612Y-87442050D01*
X132780554Y-87457595D01*
X132802165Y-87469146D01*
X132825614Y-87476259D01*
X132850000Y-87478661D01*
X132874386Y-87476259D01*
X132897835Y-87469146D01*
X132919446Y-87457595D01*
X132938388Y-87442050D01*
X132953933Y-87423108D01*
X132965484Y-87401497D01*
X133056573Y-87181589D01*
X133187899Y-86985045D01*
X133355045Y-86817899D01*
X133381833Y-86800000D01*
X133551587Y-86686574D01*
X133551589Y-86686573D01*
X133769974Y-86596115D01*
X134001809Y-86550000D01*
X134238191Y-86550000D01*
X134470026Y-86596115D01*
X134688411Y-86686573D01*
X134688413Y-86686574D01*
X134858167Y-86800000D01*
X134884955Y-86817899D01*
X135052101Y-86985045D01*
X135183427Y-87181589D01*
X135273885Y-87399974D01*
X135320000Y-87631809D01*
X135320000Y-87868191D01*
X135273885Y-88100026D01*
X135183427Y-88318411D01*
X135183426Y-88318413D01*
X135052101Y-88514955D01*
X134884955Y-88682101D01*
X134688413Y-88813426D01*
X134688412Y-88813427D01*
X134688411Y-88813427D01*
X134470026Y-88903885D01*
X134238191Y-88950000D01*
X134001809Y-88950000D01*
X133769974Y-88903885D01*
X133551589Y-88813427D01*
X133551588Y-88813427D01*
X133551587Y-88813426D01*
X133355045Y-88682101D01*
X133187899Y-88514955D01*
X133056574Y-88318413D01*
X133056573Y-88318411D01*
X132965484Y-88098503D01*
X132953933Y-88076892D01*
X132938388Y-88057950D01*
X132919446Y-88042405D01*
X132897835Y-88030854D01*
X132874386Y-88023741D01*
X132850000Y-88021339D01*
X132825614Y-88023741D01*
X132802165Y-88030854D01*
X132780554Y-88042405D01*
X132761612Y-88057950D01*
X132746067Y-88076892D01*
X132734516Y-88098503D01*
X132643427Y-88318411D01*
X132643426Y-88318413D01*
X132512101Y-88514955D01*
X132344955Y-88682101D01*
X132148413Y-88813426D01*
X132148412Y-88813427D01*
X132148411Y-88813427D01*
X131930026Y-88903885D01*
X131698191Y-88950000D01*
X131461809Y-88950000D01*
X131229974Y-88903885D01*
X131011589Y-88813427D01*
X131011588Y-88813427D01*
X131011587Y-88813426D01*
X130815045Y-88682101D01*
X130647899Y-88514955D01*
X130516574Y-88318413D01*
X130516573Y-88318411D01*
X130426115Y-88100026D01*
X130380000Y-87868191D01*
X130380000Y-87631809D01*
X130426115Y-87399974D01*
X130516573Y-87181589D01*
X130647899Y-86985045D01*
X130815045Y-86817899D01*
X130841833Y-86800000D01*
X131011587Y-86686574D01*
X131011589Y-86686573D01*
X131229974Y-86596115D01*
X131461809Y-86550000D01*
X131698191Y-86550000D01*
X131930026Y-86596115D01*
G37*
G36*
X158030000Y-84990000D02*
G01*
X155930000Y-84990000D01*
X155930000Y-82890000D01*
X158030000Y-82890000D01*
X158030000Y-84990000D01*
G37*
G36*
X159648687Y-82895027D02*
G01*
X159826274Y-82930350D01*
X160017362Y-83009502D01*
X160189336Y-83124411D01*
X160335589Y-83270664D01*
X160450498Y-83442638D01*
X160529650Y-83633726D01*
X160570000Y-83836584D01*
X160570000Y-84043416D01*
X160529650Y-84246274D01*
X160450498Y-84437362D01*
X160335589Y-84609336D01*
X160189336Y-84755589D01*
X160017362Y-84870498D01*
X159826274Y-84949650D01*
X159648687Y-84984973D01*
X159623417Y-84990000D01*
X159416583Y-84990000D01*
X159391313Y-84984973D01*
X159213726Y-84949650D01*
X159022638Y-84870498D01*
X158850664Y-84755589D01*
X158704411Y-84609336D01*
X158589502Y-84437362D01*
X158510350Y-84246274D01*
X158470000Y-84043416D01*
X158470000Y-83836584D01*
X158510350Y-83633726D01*
X158589502Y-83442638D01*
X158704411Y-83270664D01*
X158850664Y-83124411D01*
X159022638Y-83009502D01*
X159213726Y-82930350D01*
X159391313Y-82895027D01*
X159416583Y-82890000D01*
X159623417Y-82890000D01*
X159648687Y-82895027D01*
G37*
G36*
X121900026Y-80346115D02*
G01*
X122118411Y-80436573D01*
X122118413Y-80436574D01*
X122314955Y-80567899D01*
X122482101Y-80735045D01*
X122613427Y-80931589D01*
X122703885Y-81149974D01*
X122750000Y-81381809D01*
X122750000Y-81618191D01*
X122703885Y-81850026D01*
X122613427Y-82068411D01*
X122613426Y-82068413D01*
X122482101Y-82264955D01*
X122314955Y-82432101D01*
X122118413Y-82563426D01*
X122118412Y-82563427D01*
X122118411Y-82563427D01*
X121900026Y-82653885D01*
X121668191Y-82700000D01*
X121431809Y-82700000D01*
X121199974Y-82653885D01*
X120981589Y-82563427D01*
X120981588Y-82563427D01*
X120981587Y-82563426D01*
X120785045Y-82432101D01*
X120617899Y-82264955D01*
X120486574Y-82068413D01*
X120486573Y-82068411D01*
X120396115Y-81850026D01*
X120350000Y-81618191D01*
X120350000Y-81381809D01*
X120396115Y-81149974D01*
X120486573Y-80931589D01*
X120617899Y-80735045D01*
X120785045Y-80567899D01*
X120981587Y-80436574D01*
X120981589Y-80436573D01*
X121199974Y-80346115D01*
X121431809Y-80300000D01*
X121668191Y-80300000D01*
X121900026Y-80346115D01*
G37*
G36*
X168900026Y-80346115D02*
G01*
X169118411Y-80436573D01*
X169118413Y-80436574D01*
X169314955Y-80567899D01*
X169482101Y-80735045D01*
X169613427Y-80931589D01*
X169703885Y-81149974D01*
X169750000Y-81381809D01*
X169750000Y-81618191D01*
X169703885Y-81850026D01*
X169613427Y-82068411D01*
X169613426Y-82068413D01*
X169482101Y-82264955D01*
X169314955Y-82432101D01*
X169118413Y-82563426D01*
X169118412Y-82563427D01*
X169118411Y-82563427D01*
X168900026Y-82653885D01*
X168668191Y-82700000D01*
X168431809Y-82700000D01*
X168199974Y-82653885D01*
X167981589Y-82563427D01*
X167981588Y-82563427D01*
X167981587Y-82563426D01*
X167785045Y-82432101D01*
X167617899Y-82264955D01*
X167486574Y-82068413D01*
X167486573Y-82068411D01*
X167396115Y-81850026D01*
X167350000Y-81618191D01*
X167350000Y-81381809D01*
X167396115Y-81149974D01*
X167486573Y-80931589D01*
X167617899Y-80735045D01*
X167785045Y-80567899D01*
X167981587Y-80436574D01*
X167981589Y-80436573D01*
X168199974Y-80346115D01*
X168431809Y-80300000D01*
X168668191Y-80300000D01*
X168900026Y-80346115D01*
G37*
G36*
X164400026Y-80346115D02*
G01*
X164618411Y-80436573D01*
X164618413Y-80436574D01*
X164814955Y-80567899D01*
X164982101Y-80735045D01*
X165113427Y-80931589D01*
X165203885Y-81149974D01*
X165250000Y-81381809D01*
X165250000Y-81618191D01*
X165203885Y-81850026D01*
X165113427Y-82068411D01*
X165113426Y-82068413D01*
X164982101Y-82264955D01*
X164814955Y-82432101D01*
X164618413Y-82563426D01*
X164618412Y-82563427D01*
X164618411Y-82563427D01*
X164400026Y-82653885D01*
X164168191Y-82700000D01*
X163931809Y-82700000D01*
X163699974Y-82653885D01*
X163481589Y-82563427D01*
X163481588Y-82563427D01*
X163481587Y-82563426D01*
X163285045Y-82432101D01*
X163117899Y-82264955D01*
X162986574Y-82068413D01*
X162986573Y-82068411D01*
X162896115Y-81850026D01*
X162850000Y-81618191D01*
X162850000Y-81381809D01*
X162896115Y-81149974D01*
X162986573Y-80931589D01*
X163117899Y-80735045D01*
X163285045Y-80567899D01*
X163481587Y-80436574D01*
X163481589Y-80436573D01*
X163699974Y-80346115D01*
X163931809Y-80300000D01*
X164168191Y-80300000D01*
X164400026Y-80346115D01*
G37*
G36*
X126400026Y-80346115D02*
G01*
X126618411Y-80436573D01*
X126618413Y-80436574D01*
X126814955Y-80567899D01*
X126982101Y-80735045D01*
X127113427Y-80931589D01*
X127203885Y-81149974D01*
X127250000Y-81381809D01*
X127250000Y-81618191D01*
X127203885Y-81850026D01*
X127113427Y-82068411D01*
X127113426Y-82068413D01*
X126982101Y-82264955D01*
X126814955Y-82432101D01*
X126618413Y-82563426D01*
X126618412Y-82563427D01*
X126618411Y-82563427D01*
X126400026Y-82653885D01*
X126168191Y-82700000D01*
X125931809Y-82700000D01*
X125699974Y-82653885D01*
X125481589Y-82563427D01*
X125481588Y-82563427D01*
X125481587Y-82563426D01*
X125285045Y-82432101D01*
X125117899Y-82264955D01*
X124986574Y-82068413D01*
X124986573Y-82068411D01*
X124896115Y-81850026D01*
X124850000Y-81618191D01*
X124850000Y-81381809D01*
X124896115Y-81149974D01*
X124986573Y-80931589D01*
X125117899Y-80735045D01*
X125285045Y-80567899D01*
X125481587Y-80436574D01*
X125481589Y-80436573D01*
X125699974Y-80346115D01*
X125931809Y-80300000D01*
X126168191Y-80300000D01*
X126400026Y-80346115D01*
G37*
M02*
