G04 #@! TF.GenerationSoftware,KiCad,Pcbnew,5.1.5-52549c5~84~ubuntu18.04.1*
G04 #@! TF.CreationDate,2020-01-28T15:27:20+01:00*
G04 #@! TF.ProjectId,Nokolino,4e6f6b6f-6c69-46e6-9f2e-6b696361645f,3.0*
G04 #@! TF.SameCoordinates,Original*
G04 #@! TF.FileFunction,Legend,Top*
G04 #@! TF.FilePolarity,Positive*
%FSLAX46Y46*%
G04 Gerber Fmt 4.6, Leading zero omitted, Abs format (unit mm)*
G04 Created by KiCad (PCBNEW 5.1.5-52549c5~84~ubuntu18.04.1) date 2020-01-28 15:27:20*
%MOMM*%
%LPD*%
G04 APERTURE LIST*
%ADD10C,0.300000*%
%ADD11C,0.200000*%
%ADD12C,0.250000*%
%ADD13C,0.150000*%
%ADD14C,0.120000*%
G04 APERTURE END LIST*
D10*
X160718571Y-120757142D02*
X161861428Y-120757142D01*
X161290000Y-121328571D02*
X161290000Y-120185714D01*
X170878571Y-120757142D02*
X172021428Y-120757142D01*
D11*
X177183333Y-122561904D02*
X177450000Y-123361904D01*
X177716666Y-122561904D01*
X178440476Y-123285714D02*
X178402380Y-123323809D01*
X178288095Y-123361904D01*
X178211904Y-123361904D01*
X178097619Y-123323809D01*
X178021428Y-123247619D01*
X177983333Y-123171428D01*
X177945238Y-123019047D01*
X177945238Y-122904761D01*
X177983333Y-122752380D01*
X178021428Y-122676190D01*
X178097619Y-122600000D01*
X178211904Y-122561904D01*
X178288095Y-122561904D01*
X178402380Y-122600000D01*
X178440476Y-122638095D01*
X179240476Y-123285714D02*
X179202380Y-123323809D01*
X179088095Y-123361904D01*
X179011904Y-123361904D01*
X178897619Y-123323809D01*
X178821428Y-123247619D01*
X178783333Y-123171428D01*
X178745238Y-123019047D01*
X178745238Y-122904761D01*
X178783333Y-122752380D01*
X178821428Y-122676190D01*
X178897619Y-122600000D01*
X179011904Y-122561904D01*
X179088095Y-122561904D01*
X179202380Y-122600000D01*
X179240476Y-122638095D01*
D12*
X180488095Y-128750000D02*
X180392857Y-128702380D01*
X180250000Y-128702380D01*
X180107142Y-128750000D01*
X180011904Y-128845238D01*
X179964285Y-128940476D01*
X179916666Y-129130952D01*
X179916666Y-129273809D01*
X179964285Y-129464285D01*
X180011904Y-129559523D01*
X180107142Y-129654761D01*
X180250000Y-129702380D01*
X180345238Y-129702380D01*
X180488095Y-129654761D01*
X180535714Y-129607142D01*
X180535714Y-129273809D01*
X180345238Y-129273809D01*
X180964285Y-129702380D02*
X180964285Y-128702380D01*
X181535714Y-129702380D01*
X181535714Y-128702380D01*
X182011904Y-129702380D02*
X182011904Y-128702380D01*
X182250000Y-128702380D01*
X182392857Y-128750000D01*
X182488095Y-128845238D01*
X182535714Y-128940476D01*
X182583333Y-129130952D01*
X182583333Y-129273809D01*
X182535714Y-129464285D01*
X182488095Y-129559523D01*
X182392857Y-129654761D01*
X182250000Y-129702380D01*
X182011904Y-129702380D01*
D11*
X175466666Y-116961904D02*
X175619047Y-116961904D01*
X175695238Y-117000000D01*
X175771428Y-117076190D01*
X175809523Y-117228571D01*
X175809523Y-117495238D01*
X175771428Y-117647619D01*
X175695238Y-117723809D01*
X175619047Y-117761904D01*
X175466666Y-117761904D01*
X175390476Y-117723809D01*
X175314285Y-117647619D01*
X175276190Y-117495238D01*
X175276190Y-117228571D01*
X175314285Y-117076190D01*
X175390476Y-117000000D01*
X175466666Y-116961904D01*
X176152380Y-117228571D02*
X176152380Y-117761904D01*
X176152380Y-117304761D02*
X176190476Y-117266666D01*
X176266666Y-117228571D01*
X176380952Y-117228571D01*
X176457142Y-117266666D01*
X176495238Y-117342857D01*
X176495238Y-117761904D01*
X177447619Y-116923809D02*
X176761904Y-117952380D01*
X177866666Y-116961904D02*
X178019047Y-116961904D01*
X178095238Y-117000000D01*
X178171428Y-117076190D01*
X178209523Y-117228571D01*
X178209523Y-117495238D01*
X178171428Y-117647619D01*
X178095238Y-117723809D01*
X178019047Y-117761904D01*
X177866666Y-117761904D01*
X177790476Y-117723809D01*
X177714285Y-117647619D01*
X177676190Y-117495238D01*
X177676190Y-117228571D01*
X177714285Y-117076190D01*
X177790476Y-117000000D01*
X177866666Y-116961904D01*
X178438095Y-117228571D02*
X178742857Y-117228571D01*
X178552380Y-117761904D02*
X178552380Y-117076190D01*
X178590476Y-117000000D01*
X178666666Y-116961904D01*
X178742857Y-116961904D01*
X178895238Y-117228571D02*
X179200000Y-117228571D01*
X179009523Y-117761904D02*
X179009523Y-117076190D01*
X179047619Y-117000000D01*
X179123809Y-116961904D01*
X179200000Y-116961904D01*
X175366666Y-119661904D02*
X175519047Y-119661904D01*
X175595238Y-119700000D01*
X175671428Y-119776190D01*
X175709523Y-119928571D01*
X175709523Y-120195238D01*
X175671428Y-120347619D01*
X175595238Y-120423809D01*
X175519047Y-120461904D01*
X175366666Y-120461904D01*
X175290476Y-120423809D01*
X175214285Y-120347619D01*
X175176190Y-120195238D01*
X175176190Y-119928571D01*
X175214285Y-119776190D01*
X175290476Y-119700000D01*
X175366666Y-119661904D01*
X176052380Y-119928571D02*
X176052380Y-120461904D01*
X176052380Y-120004761D02*
X176090476Y-119966666D01*
X176166666Y-119928571D01*
X176280952Y-119928571D01*
X176357142Y-119966666D01*
X176395238Y-120042857D01*
X176395238Y-120461904D01*
X177347619Y-119623809D02*
X176661904Y-120652380D01*
X177766666Y-119661904D02*
X177919047Y-119661904D01*
X177995238Y-119700000D01*
X178071428Y-119776190D01*
X178109523Y-119928571D01*
X178109523Y-120195238D01*
X178071428Y-120347619D01*
X177995238Y-120423809D01*
X177919047Y-120461904D01*
X177766666Y-120461904D01*
X177690476Y-120423809D01*
X177614285Y-120347619D01*
X177576190Y-120195238D01*
X177576190Y-119928571D01*
X177614285Y-119776190D01*
X177690476Y-119700000D01*
X177766666Y-119661904D01*
X178338095Y-119928571D02*
X178642857Y-119928571D01*
X178452380Y-120461904D02*
X178452380Y-119776190D01*
X178490476Y-119700000D01*
X178566666Y-119661904D01*
X178642857Y-119661904D01*
X178795238Y-119928571D02*
X179100000Y-119928571D01*
X178909523Y-120461904D02*
X178909523Y-119776190D01*
X178947619Y-119700000D01*
X179023809Y-119661904D01*
X179100000Y-119661904D01*
X176095238Y-106961904D02*
X176095238Y-107609523D01*
X176133333Y-107685714D01*
X176171428Y-107723809D01*
X176247619Y-107761904D01*
X176400000Y-107761904D01*
X176476190Y-107723809D01*
X176514285Y-107685714D01*
X176552380Y-107609523D01*
X176552380Y-106961904D01*
X176895238Y-107723809D02*
X177009523Y-107761904D01*
X177200000Y-107761904D01*
X177276190Y-107723809D01*
X177314285Y-107685714D01*
X177352380Y-107609523D01*
X177352380Y-107533333D01*
X177314285Y-107457142D01*
X177276190Y-107419047D01*
X177200000Y-107380952D01*
X177047619Y-107342857D01*
X176971428Y-107304761D01*
X176933333Y-107266666D01*
X176895238Y-107190476D01*
X176895238Y-107114285D01*
X176933333Y-107038095D01*
X176971428Y-107000000D01*
X177047619Y-106961904D01*
X177238095Y-106961904D01*
X177352380Y-107000000D01*
X177961904Y-107342857D02*
X178076190Y-107380952D01*
X178114285Y-107419047D01*
X178152380Y-107495238D01*
X178152380Y-107609523D01*
X178114285Y-107685714D01*
X178076190Y-107723809D01*
X178000000Y-107761904D01*
X177695238Y-107761904D01*
X177695238Y-106961904D01*
X177961904Y-106961904D01*
X178038095Y-107000000D01*
X178076190Y-107038095D01*
X178114285Y-107114285D01*
X178114285Y-107190476D01*
X178076190Y-107266666D01*
X178038095Y-107304761D01*
X177961904Y-107342857D01*
X177695238Y-107342857D01*
X178495238Y-107457142D02*
X179104761Y-107457142D01*
X176095238Y-109461904D02*
X176095238Y-110109523D01*
X176133333Y-110185714D01*
X176171428Y-110223809D01*
X176247619Y-110261904D01*
X176400000Y-110261904D01*
X176476190Y-110223809D01*
X176514285Y-110185714D01*
X176552380Y-110109523D01*
X176552380Y-109461904D01*
X176895238Y-110223809D02*
X177009523Y-110261904D01*
X177200000Y-110261904D01*
X177276190Y-110223809D01*
X177314285Y-110185714D01*
X177352380Y-110109523D01*
X177352380Y-110033333D01*
X177314285Y-109957142D01*
X177276190Y-109919047D01*
X177200000Y-109880952D01*
X177047619Y-109842857D01*
X176971428Y-109804761D01*
X176933333Y-109766666D01*
X176895238Y-109690476D01*
X176895238Y-109614285D01*
X176933333Y-109538095D01*
X176971428Y-109500000D01*
X177047619Y-109461904D01*
X177238095Y-109461904D01*
X177352380Y-109500000D01*
X177961904Y-109842857D02*
X178076190Y-109880952D01*
X178114285Y-109919047D01*
X178152380Y-109995238D01*
X178152380Y-110109523D01*
X178114285Y-110185714D01*
X178076190Y-110223809D01*
X178000000Y-110261904D01*
X177695238Y-110261904D01*
X177695238Y-109461904D01*
X177961904Y-109461904D01*
X178038095Y-109500000D01*
X178076190Y-109538095D01*
X178114285Y-109614285D01*
X178114285Y-109690476D01*
X178076190Y-109766666D01*
X178038095Y-109804761D01*
X177961904Y-109842857D01*
X177695238Y-109842857D01*
X178495238Y-109957142D02*
X179104761Y-109957142D01*
X178800000Y-110261904D02*
X178800000Y-109652380D01*
X177595238Y-112761904D02*
X177595238Y-111961904D01*
X177785714Y-111961904D01*
X177900000Y-112000000D01*
X177976190Y-112076190D01*
X178014285Y-112152380D01*
X178052380Y-112304761D01*
X178052380Y-112419047D01*
X178014285Y-112571428D01*
X177976190Y-112647619D01*
X177900000Y-112723809D01*
X177785714Y-112761904D01*
X177595238Y-112761904D01*
X178395238Y-112457142D02*
X179004761Y-112457142D01*
X177895238Y-115261904D02*
X177895238Y-114461904D01*
X178085714Y-114461904D01*
X178200000Y-114500000D01*
X178276190Y-114576190D01*
X178314285Y-114652380D01*
X178352380Y-114804761D01*
X178352380Y-114919047D01*
X178314285Y-115071428D01*
X178276190Y-115147619D01*
X178200000Y-115223809D01*
X178085714Y-115261904D01*
X177895238Y-115261904D01*
X178695238Y-114957142D02*
X179304761Y-114957142D01*
X179000000Y-115261904D02*
X179000000Y-114652380D01*
D13*
X145199100Y-129603500D02*
X173139100Y-129603500D01*
X173139100Y-147383500D02*
X145199100Y-147383500D01*
X145199100Y-147383500D02*
X145199100Y-129603500D01*
X173139100Y-147383500D02*
X173139100Y-129603500D01*
D14*
X136422000Y-137343500D02*
X138192000Y-137343500D01*
X136422000Y-126943500D02*
X136422000Y-137343500D01*
X141962000Y-126943500D02*
X136422000Y-126943500D01*
X141962000Y-137343500D02*
X141962000Y-126943500D01*
X140192000Y-137343500D02*
X141962000Y-137343500D01*
X138192000Y-137343500D02*
G75*
G02X140192000Y-137343500I1000000J0D01*
G01*
D13*
X176500000Y-127500000D02*
X176500000Y-87500000D01*
X156500000Y-127500000D02*
X156500000Y-87500000D01*
X156500000Y-127500000D02*
X176500000Y-127500000D01*
X176500000Y-87500000D02*
X156500000Y-87500000D01*
X159500000Y-89300000D02*
G75*
G03X159500000Y-89300000I-1000000J0D01*
G01*
X175600000Y-89500000D02*
G75*
G03X175600000Y-89500000I-1100000J0D01*
G01*
X159600000Y-125500000D02*
G75*
G03X159600000Y-125500000I-1100000J0D01*
G01*
X175600000Y-125500000D02*
G75*
G03X175600000Y-125500000I-1100000J0D01*
G01*
X166500000Y-126500000D02*
G75*
G03X175500000Y-117500000I0J9000000D01*
G01*
X175500000Y-97500000D02*
G75*
G03X166500000Y-88500000I-9000000J0D01*
G01*
X166500000Y-88500000D02*
G75*
G03X157500000Y-97500000I0J-9000000D01*
G01*
X157500000Y-117500000D02*
G75*
G03X166500000Y-126500000I9000000J0D01*
G01*
X157500000Y-97500000D02*
X157500000Y-117500000D01*
X175500000Y-97500000D02*
X175500000Y-117500000D01*
D14*
X179920000Y-122420000D02*
X181250000Y-122420000D01*
X179920000Y-123750000D02*
X179920000Y-122420000D01*
X179920000Y-125020000D02*
X182580000Y-125020000D01*
X182580000Y-125020000D02*
X182580000Y-127620000D01*
X179920000Y-125020000D02*
X179920000Y-127620000D01*
X179920000Y-127620000D02*
X182580000Y-127620000D01*
X179645000Y-105985000D02*
X180975000Y-105985000D01*
X179645000Y-107315000D02*
X179645000Y-105985000D01*
X179645000Y-108585000D02*
X182305000Y-108585000D01*
X182305000Y-108585000D02*
X182305000Y-121345000D01*
X179645000Y-108585000D02*
X179645000Y-121345000D01*
X179645000Y-121345000D02*
X182305000Y-121345000D01*
X134270000Y-122900000D02*
X133940000Y-122900000D01*
X133940000Y-122900000D02*
X133940000Y-116480000D01*
X133940000Y-116480000D02*
X134270000Y-116480000D01*
X136230000Y-122900000D02*
X136560000Y-122900000D01*
X136560000Y-122900000D02*
X136560000Y-116480000D01*
X136560000Y-116480000D02*
X136230000Y-116480000D01*
X140250000Y-94500000D02*
X140250000Y-90000000D01*
X136250000Y-95750000D02*
X137750000Y-95750000D01*
X133750000Y-90000000D02*
X133750000Y-94500000D01*
X137750000Y-88750000D02*
X136250000Y-88750000D01*
X180250000Y-88750000D02*
X178750000Y-88750000D01*
X176250000Y-90000000D02*
X176250000Y-94500000D01*
X178750000Y-95750000D02*
X180250000Y-95750000D01*
X182750000Y-94500000D02*
X182750000Y-90000000D01*
X182750000Y-145000000D02*
X182750000Y-140500000D01*
X178750000Y-146250000D02*
X180250000Y-146250000D01*
X176250000Y-140500000D02*
X176250000Y-145000000D01*
X180250000Y-139250000D02*
X178750000Y-139250000D01*
X137750000Y-139250000D02*
X136250000Y-139250000D01*
X133750000Y-140500000D02*
X133750000Y-145000000D01*
X136250000Y-146250000D02*
X137750000Y-146250000D01*
X140250000Y-145000000D02*
X140250000Y-140500000D01*
X137430000Y-100600000D02*
X137430000Y-125600000D01*
X155430000Y-100600000D02*
X155430000Y-125600000D01*
X137430000Y-125600000D02*
X155430000Y-125600000D01*
X137430000Y-100600000D02*
X155430000Y-100600000D01*
X143430000Y-100600000D02*
X143430000Y-105600000D01*
X143430000Y-105600000D02*
X148630000Y-105600000D01*
X148630000Y-105600000D02*
X148630000Y-100600000D01*
D13*
X156478623Y-142255880D02*
X157050052Y-142255880D01*
X156764338Y-143255880D02*
X156764338Y-142255880D01*
X157383385Y-143255880D02*
X157383385Y-142255880D01*
X157764338Y-142255880D01*
X157859576Y-142303500D01*
X157907195Y-142351119D01*
X157954814Y-142446357D01*
X157954814Y-142589214D01*
X157907195Y-142684452D01*
X157859576Y-142732071D01*
X157764338Y-142779690D01*
X157383385Y-142779690D01*
X158811957Y-142589214D02*
X158811957Y-143255880D01*
X158573861Y-142208261D02*
X158335766Y-142922547D01*
X158954814Y-142922547D01*
X159526242Y-142255880D02*
X159621480Y-142255880D01*
X159716719Y-142303500D01*
X159764338Y-142351119D01*
X159811957Y-142446357D01*
X159859576Y-142636833D01*
X159859576Y-142874928D01*
X159811957Y-143065404D01*
X159764338Y-143160642D01*
X159716719Y-143208261D01*
X159621480Y-143255880D01*
X159526242Y-143255880D01*
X159431004Y-143208261D01*
X159383385Y-143160642D01*
X159335766Y-143065404D01*
X159288147Y-142874928D01*
X159288147Y-142636833D01*
X159335766Y-142446357D01*
X159383385Y-142351119D01*
X159431004Y-142303500D01*
X159526242Y-142255880D01*
X160764338Y-142255880D02*
X160288147Y-142255880D01*
X160240528Y-142732071D01*
X160288147Y-142684452D01*
X160383385Y-142636833D01*
X160621480Y-142636833D01*
X160716719Y-142684452D01*
X160764338Y-142732071D01*
X160811957Y-142827309D01*
X160811957Y-143065404D01*
X160764338Y-143160642D01*
X160716719Y-143208261D01*
X160621480Y-143255880D01*
X160383385Y-143255880D01*
X160288147Y-143208261D01*
X160240528Y-143160642D01*
X161669100Y-142255880D02*
X161478623Y-142255880D01*
X161383385Y-142303500D01*
X161335766Y-142351119D01*
X161240528Y-142493976D01*
X161192909Y-142684452D01*
X161192909Y-143065404D01*
X161240528Y-143160642D01*
X161288147Y-143208261D01*
X161383385Y-143255880D01*
X161573861Y-143255880D01*
X161669100Y-143208261D01*
X161716719Y-143160642D01*
X161764338Y-143065404D01*
X161764338Y-142827309D01*
X161716719Y-142732071D01*
X161669100Y-142684452D01*
X161573861Y-142636833D01*
X161383385Y-142636833D01*
X161288147Y-142684452D01*
X161240528Y-142732071D01*
X161192909Y-142827309D01*
X166826242Y-145245880D02*
X166826242Y-144245880D01*
X167302433Y-145245880D02*
X167302433Y-144245880D01*
X167873861Y-145245880D01*
X167873861Y-144245880D01*
X168350052Y-144864928D02*
X169111957Y-144864928D01*
X168731004Y-145245880D02*
X168731004Y-144483976D01*
X166926242Y-132545880D02*
X166926242Y-131545880D01*
X167402433Y-132545880D02*
X167402433Y-131545880D01*
X167973861Y-132545880D01*
X167973861Y-131545880D01*
X168450052Y-132164928D02*
X169211957Y-132164928D01*
X148939452Y-144549880D02*
X149129928Y-144549880D01*
X149225166Y-144597500D01*
X149320404Y-144692738D01*
X149368023Y-144883214D01*
X149368023Y-145216547D01*
X149320404Y-145407023D01*
X149225166Y-145502261D01*
X149129928Y-145549880D01*
X148939452Y-145549880D01*
X148844214Y-145502261D01*
X148748976Y-145407023D01*
X148701357Y-145216547D01*
X148701357Y-144883214D01*
X148748976Y-144692738D01*
X148844214Y-144597500D01*
X148939452Y-144549880D01*
X149796595Y-144549880D02*
X149796595Y-145359404D01*
X149844214Y-145454642D01*
X149891833Y-145502261D01*
X149987071Y-145549880D01*
X150177547Y-145549880D01*
X150272785Y-145502261D01*
X150320404Y-145454642D01*
X150368023Y-145359404D01*
X150368023Y-144549880D01*
X150701357Y-144549880D02*
X151272785Y-144549880D01*
X150987071Y-145549880D02*
X150987071Y-144549880D01*
X151606119Y-145168928D02*
X152368023Y-145168928D01*
X151987071Y-145549880D02*
X151987071Y-144787976D01*
X149121480Y-142222071D02*
X149264338Y-142269690D01*
X149311957Y-142317309D01*
X149359576Y-142412547D01*
X149359576Y-142555404D01*
X149311957Y-142650642D01*
X149264338Y-142698261D01*
X149169100Y-142745880D01*
X148788147Y-142745880D01*
X148788147Y-141745880D01*
X149121480Y-141745880D01*
X149216719Y-141793500D01*
X149264338Y-141841119D01*
X149311957Y-141936357D01*
X149311957Y-142031595D01*
X149264338Y-142126833D01*
X149216719Y-142174452D01*
X149121480Y-142222071D01*
X148788147Y-142222071D01*
X149788147Y-142364928D02*
X150550052Y-142364928D01*
X150169100Y-142745880D02*
X150169100Y-141983976D01*
X149121480Y-134622071D02*
X149264338Y-134669690D01*
X149311957Y-134717309D01*
X149359576Y-134812547D01*
X149359576Y-134955404D01*
X149311957Y-135050642D01*
X149264338Y-135098261D01*
X149169100Y-135145880D01*
X148788147Y-135145880D01*
X148788147Y-134145880D01*
X149121480Y-134145880D01*
X149216719Y-134193500D01*
X149264338Y-134241119D01*
X149311957Y-134336357D01*
X149311957Y-134431595D01*
X149264338Y-134526833D01*
X149216719Y-134574452D01*
X149121480Y-134622071D01*
X148788147Y-134622071D01*
X149788147Y-134764928D02*
X150550052Y-134764928D01*
X148939452Y-131570480D02*
X149129928Y-131570480D01*
X149225166Y-131618100D01*
X149320404Y-131713338D01*
X149368023Y-131903814D01*
X149368023Y-132237147D01*
X149320404Y-132427623D01*
X149225166Y-132522861D01*
X149129928Y-132570480D01*
X148939452Y-132570480D01*
X148844214Y-132522861D01*
X148748976Y-132427623D01*
X148701357Y-132237147D01*
X148701357Y-131903814D01*
X148748976Y-131713338D01*
X148844214Y-131618100D01*
X148939452Y-131570480D01*
X149796595Y-131570480D02*
X149796595Y-132380004D01*
X149844214Y-132475242D01*
X149891833Y-132522861D01*
X149987071Y-132570480D01*
X150177547Y-132570480D01*
X150272785Y-132522861D01*
X150320404Y-132475242D01*
X150368023Y-132380004D01*
X150368023Y-131570480D01*
X150701357Y-131570480D02*
X151272785Y-131570480D01*
X150987071Y-132570480D02*
X150987071Y-131570480D01*
X151606119Y-132189528D02*
X152368023Y-132189528D01*
X139384066Y-134348290D02*
X139384066Y-133872100D01*
X139669780Y-134443528D02*
X138669780Y-134110195D01*
X139669780Y-133776861D01*
X138669780Y-133586385D02*
X138669780Y-133014957D01*
X139669780Y-133300671D02*
X138669780Y-133300671D01*
X139003114Y-132824480D02*
X139003114Y-132443528D01*
X138669780Y-132681623D02*
X139526923Y-132681623D01*
X139622161Y-132634004D01*
X139669780Y-132538766D01*
X139669780Y-132443528D01*
X139669780Y-132110195D02*
X139003114Y-132110195D01*
X138669780Y-132110195D02*
X138717400Y-132157814D01*
X138765019Y-132110195D01*
X138717400Y-132062576D01*
X138669780Y-132110195D01*
X138765019Y-132110195D01*
X139003114Y-131634004D02*
X139669780Y-131634004D01*
X139098352Y-131634004D02*
X139050733Y-131586385D01*
X139003114Y-131491147D01*
X139003114Y-131348290D01*
X139050733Y-131253052D01*
X139145971Y-131205433D01*
X139669780Y-131205433D01*
X139003114Y-130824480D02*
X139669780Y-130586385D01*
X139003114Y-130348290D02*
X139669780Y-130586385D01*
X139907876Y-130681623D01*
X139955495Y-130729242D01*
X140003114Y-130824480D01*
X164095238Y-107052380D02*
X164095238Y-106052380D01*
X164666666Y-107052380D02*
X164238095Y-106480952D01*
X164666666Y-106052380D02*
X164095238Y-106623809D01*
X165047619Y-106147619D02*
X165095238Y-106100000D01*
X165190476Y-106052380D01*
X165428571Y-106052380D01*
X165523809Y-106100000D01*
X165571428Y-106147619D01*
X165619047Y-106242857D01*
X165619047Y-106338095D01*
X165571428Y-106480952D01*
X165000000Y-107052380D01*
X165619047Y-107052380D01*
X166238095Y-106052380D02*
X166333333Y-106052380D01*
X166428571Y-106100000D01*
X166476190Y-106147619D01*
X166523809Y-106242857D01*
X166571428Y-106433333D01*
X166571428Y-106671428D01*
X166523809Y-106861904D01*
X166476190Y-106957142D01*
X166428571Y-107004761D01*
X166333333Y-107052380D01*
X166238095Y-107052380D01*
X166142857Y-107004761D01*
X166095238Y-106957142D01*
X166047619Y-106861904D01*
X166000000Y-106671428D01*
X166000000Y-106433333D01*
X166047619Y-106242857D01*
X166095238Y-106147619D01*
X166142857Y-106100000D01*
X166238095Y-106052380D01*
X167000000Y-106957142D02*
X167047619Y-107004761D01*
X167000000Y-107052380D01*
X166952380Y-107004761D01*
X167000000Y-106957142D01*
X167000000Y-107052380D01*
X167904761Y-106385714D02*
X167904761Y-107052380D01*
X167666666Y-106004761D02*
X167428571Y-106719047D01*
X168047619Y-106719047D01*
X168619047Y-106052380D02*
X168714285Y-106052380D01*
X168809523Y-106100000D01*
X168857142Y-106147619D01*
X168904761Y-106242857D01*
X168952380Y-106433333D01*
X168952380Y-106671428D01*
X168904761Y-106861904D01*
X168857142Y-106957142D01*
X168809523Y-107004761D01*
X168714285Y-107052380D01*
X168619047Y-107052380D01*
X168523809Y-107004761D01*
X168476190Y-106957142D01*
X168428571Y-106861904D01*
X168380952Y-106671428D01*
X168380952Y-106433333D01*
X168428571Y-106242857D01*
X168476190Y-106147619D01*
X168523809Y-106100000D01*
X168619047Y-106052380D01*
X181154761Y-121967619D02*
X181059523Y-121920000D01*
X180964285Y-121824761D01*
X180821428Y-121681904D01*
X180726190Y-121634285D01*
X180630952Y-121634285D01*
X180678571Y-121872380D02*
X180583333Y-121824761D01*
X180488095Y-121729523D01*
X180440476Y-121539047D01*
X180440476Y-121205714D01*
X180488095Y-121015238D01*
X180583333Y-120920000D01*
X180678571Y-120872380D01*
X180869047Y-120872380D01*
X180964285Y-120920000D01*
X181059523Y-121015238D01*
X181107142Y-121205714D01*
X181107142Y-121539047D01*
X181059523Y-121729523D01*
X180964285Y-121824761D01*
X180869047Y-121872380D01*
X180678571Y-121872380D01*
X182059523Y-121872380D02*
X181488095Y-121872380D01*
X181773809Y-121872380D02*
X181773809Y-120872380D01*
X181678571Y-121015238D01*
X181583333Y-121110476D01*
X181488095Y-121158095D01*
X134797619Y-120892857D02*
X134750000Y-120845238D01*
X134702380Y-120750000D01*
X134702380Y-120511904D01*
X134750000Y-120416666D01*
X134797619Y-120369047D01*
X134892857Y-120321428D01*
X134988095Y-120321428D01*
X135130952Y-120369047D01*
X135702380Y-120940476D01*
X135702380Y-120321428D01*
X134797619Y-119940476D02*
X134750000Y-119892857D01*
X134702380Y-119797619D01*
X134702380Y-119559523D01*
X134750000Y-119464285D01*
X134797619Y-119416666D01*
X134892857Y-119369047D01*
X134988095Y-119369047D01*
X135130952Y-119416666D01*
X135702380Y-119988095D01*
X135702380Y-119369047D01*
X134702380Y-118750000D02*
X134702380Y-118654761D01*
X134750000Y-118559523D01*
X134797619Y-118511904D01*
X134892857Y-118464285D01*
X135083333Y-118416666D01*
X135321428Y-118416666D01*
X135511904Y-118464285D01*
X135607142Y-118511904D01*
X135654761Y-118559523D01*
X135702380Y-118654761D01*
X135702380Y-118750000D01*
X135654761Y-118845238D01*
X135607142Y-118892857D01*
X135511904Y-118940476D01*
X135321428Y-118988095D01*
X135083333Y-118988095D01*
X134892857Y-118940476D01*
X134797619Y-118892857D01*
X134750000Y-118845238D01*
X134702380Y-118750000D01*
X135702380Y-117988095D02*
X134702380Y-117988095D01*
X135321428Y-117892857D02*
X135702380Y-117607142D01*
X135035714Y-117607142D02*
X135416666Y-117988095D01*
X137399661Y-93598833D02*
X137447280Y-93455976D01*
X137447280Y-93217880D01*
X137399661Y-93122642D01*
X137352042Y-93075023D01*
X137256804Y-93027404D01*
X137161566Y-93027404D01*
X137066328Y-93075023D01*
X137018709Y-93122642D01*
X136971090Y-93217880D01*
X136923471Y-93408357D01*
X136875852Y-93503595D01*
X136828233Y-93551214D01*
X136732995Y-93598833D01*
X136637757Y-93598833D01*
X136542519Y-93551214D01*
X136494900Y-93503595D01*
X136447280Y-93408357D01*
X136447280Y-93170261D01*
X136494900Y-93027404D01*
X136447280Y-92694071D02*
X137447280Y-92455976D01*
X136732995Y-92265500D01*
X137447280Y-92075023D01*
X136447280Y-91836928D01*
X137447280Y-90932166D02*
X137447280Y-91503595D01*
X137447280Y-91217880D02*
X136447280Y-91217880D01*
X136590138Y-91313119D01*
X136685376Y-91408357D01*
X136732995Y-91503595D01*
X179944661Y-93583333D02*
X179992280Y-93440476D01*
X179992280Y-93202380D01*
X179944661Y-93107142D01*
X179897042Y-93059523D01*
X179801804Y-93011904D01*
X179706566Y-93011904D01*
X179611328Y-93059523D01*
X179563709Y-93107142D01*
X179516090Y-93202380D01*
X179468471Y-93392857D01*
X179420852Y-93488095D01*
X179373233Y-93535714D01*
X179277995Y-93583333D01*
X179182757Y-93583333D01*
X179087519Y-93535714D01*
X179039900Y-93488095D01*
X178992280Y-93392857D01*
X178992280Y-93154761D01*
X179039900Y-93011904D01*
X178992280Y-92678571D02*
X179992280Y-92440476D01*
X179277995Y-92250000D01*
X179992280Y-92059523D01*
X178992280Y-91821428D01*
X179087519Y-91488095D02*
X179039900Y-91440476D01*
X178992280Y-91345238D01*
X178992280Y-91107142D01*
X179039900Y-91011904D01*
X179087519Y-90964285D01*
X179182757Y-90916666D01*
X179277995Y-90916666D01*
X179420852Y-90964285D01*
X179992280Y-91535714D01*
X179992280Y-90916666D01*
X179931961Y-144081333D02*
X179979580Y-143938476D01*
X179979580Y-143700380D01*
X179931961Y-143605142D01*
X179884342Y-143557523D01*
X179789104Y-143509904D01*
X179693866Y-143509904D01*
X179598628Y-143557523D01*
X179551009Y-143605142D01*
X179503390Y-143700380D01*
X179455771Y-143890857D01*
X179408152Y-143986095D01*
X179360533Y-144033714D01*
X179265295Y-144081333D01*
X179170057Y-144081333D01*
X179074819Y-144033714D01*
X179027200Y-143986095D01*
X178979580Y-143890857D01*
X178979580Y-143652761D01*
X179027200Y-143509904D01*
X178979580Y-143176571D02*
X179979580Y-142938476D01*
X179265295Y-142748000D01*
X179979580Y-142557523D01*
X178979580Y-142319428D01*
X178979580Y-142033714D02*
X178979580Y-141414666D01*
X179360533Y-141748000D01*
X179360533Y-141605142D01*
X179408152Y-141509904D01*
X179455771Y-141462285D01*
X179551009Y-141414666D01*
X179789104Y-141414666D01*
X179884342Y-141462285D01*
X179931961Y-141509904D01*
X179979580Y-141605142D01*
X179979580Y-141890857D01*
X179931961Y-141986095D01*
X179884342Y-142033714D01*
X137425061Y-144081333D02*
X137472680Y-143938476D01*
X137472680Y-143700380D01*
X137425061Y-143605142D01*
X137377442Y-143557523D01*
X137282204Y-143509904D01*
X137186966Y-143509904D01*
X137091728Y-143557523D01*
X137044109Y-143605142D01*
X136996490Y-143700380D01*
X136948871Y-143890857D01*
X136901252Y-143986095D01*
X136853633Y-144033714D01*
X136758395Y-144081333D01*
X136663157Y-144081333D01*
X136567919Y-144033714D01*
X136520300Y-143986095D01*
X136472680Y-143890857D01*
X136472680Y-143652761D01*
X136520300Y-143509904D01*
X136472680Y-143176571D02*
X137472680Y-142938476D01*
X136758395Y-142748000D01*
X137472680Y-142557523D01*
X136472680Y-142319428D01*
X136806014Y-141509904D02*
X137472680Y-141509904D01*
X136425061Y-141748000D02*
X137139347Y-141986095D01*
X137139347Y-141367047D01*
X145618295Y-108773980D02*
X145618295Y-109583504D01*
X145665914Y-109678742D01*
X145713533Y-109726361D01*
X145808771Y-109773980D01*
X145999247Y-109773980D01*
X146094485Y-109726361D01*
X146142104Y-109678742D01*
X146189723Y-109583504D01*
X146189723Y-108773980D01*
X146570676Y-108773980D02*
X147189723Y-108773980D01*
X146856390Y-109154933D01*
X146999247Y-109154933D01*
X147094485Y-109202552D01*
X147142104Y-109250171D01*
X147189723Y-109345409D01*
X147189723Y-109583504D01*
X147142104Y-109678742D01*
X147094485Y-109726361D01*
X146999247Y-109773980D01*
X146713533Y-109773980D01*
X146618295Y-109726361D01*
X146570676Y-109678742D01*
X152906480Y-114909314D02*
X153620766Y-114909314D01*
X153763623Y-114956933D01*
X153858861Y-115052171D01*
X153906480Y-115195028D01*
X153906480Y-115290266D01*
X154001719Y-113766457D02*
X153954100Y-113861695D01*
X153858861Y-113956933D01*
X153716004Y-114099790D01*
X153668385Y-114195028D01*
X153668385Y-114290266D01*
X153906480Y-114242647D02*
X153858861Y-114337885D01*
X153763623Y-114433123D01*
X153573147Y-114480742D01*
X153239814Y-114480742D01*
X153049338Y-114433123D01*
X152954100Y-114337885D01*
X152906480Y-114242647D01*
X152906480Y-114052171D01*
X152954100Y-113956933D01*
X153049338Y-113861695D01*
X153239814Y-113814076D01*
X153573147Y-113814076D01*
X153763623Y-113861695D01*
X153858861Y-113956933D01*
X153906480Y-114052171D01*
X153906480Y-114242647D01*
X153335052Y-113242647D02*
X153287433Y-113337885D01*
X153239814Y-113385504D01*
X153144576Y-113433123D01*
X153096957Y-113433123D01*
X153001719Y-113385504D01*
X152954100Y-113337885D01*
X152906480Y-113242647D01*
X152906480Y-113052171D01*
X152954100Y-112956933D01*
X153001719Y-112909314D01*
X153096957Y-112861695D01*
X153144576Y-112861695D01*
X153239814Y-112909314D01*
X153287433Y-112956933D01*
X153335052Y-113052171D01*
X153335052Y-113242647D01*
X153382671Y-113337885D01*
X153430290Y-113385504D01*
X153525528Y-113433123D01*
X153716004Y-113433123D01*
X153811242Y-113385504D01*
X153858861Y-113337885D01*
X153906480Y-113242647D01*
X153906480Y-113052171D01*
X153858861Y-112956933D01*
X153811242Y-112909314D01*
X153716004Y-112861695D01*
X153525528Y-112861695D01*
X153430290Y-112909314D01*
X153382671Y-112956933D01*
X153335052Y-113052171D01*
X153239814Y-112004552D02*
X153906480Y-112004552D01*
X152858861Y-112242647D02*
X153573147Y-112480742D01*
X153573147Y-111861695D01*
X152906480Y-111290266D02*
X152906480Y-111195028D01*
X152954100Y-111099790D01*
X153001719Y-111052171D01*
X153096957Y-111004552D01*
X153287433Y-110956933D01*
X153525528Y-110956933D01*
X153716004Y-111004552D01*
X153811242Y-111052171D01*
X153858861Y-111099790D01*
X153906480Y-111195028D01*
X153906480Y-111290266D01*
X153858861Y-111385504D01*
X153811242Y-111433123D01*
X153716004Y-111480742D01*
X153525528Y-111528361D01*
X153287433Y-111528361D01*
X153096957Y-111480742D01*
X153001719Y-111433123D01*
X152954100Y-111385504D01*
X152906480Y-111290266D01*
X152906480Y-110337885D02*
X152906480Y-110242647D01*
X152954100Y-110147409D01*
X153001719Y-110099790D01*
X153096957Y-110052171D01*
X153287433Y-110004552D01*
X153525528Y-110004552D01*
X153716004Y-110052171D01*
X153811242Y-110099790D01*
X153858861Y-110147409D01*
X153906480Y-110242647D01*
X153906480Y-110337885D01*
X153858861Y-110433123D01*
X153811242Y-110480742D01*
X153716004Y-110528361D01*
X153525528Y-110575980D01*
X153287433Y-110575980D01*
X153096957Y-110528361D01*
X153001719Y-110480742D01*
X152954100Y-110433123D01*
X152906480Y-110337885D01*
X139631800Y-101052380D02*
X139822276Y-101052380D01*
X139917514Y-101100000D01*
X140012752Y-101195238D01*
X140060371Y-101385714D01*
X140060371Y-101719047D01*
X140012752Y-101909523D01*
X139917514Y-102004761D01*
X139822276Y-102052380D01*
X139631800Y-102052380D01*
X139536561Y-102004761D01*
X139441323Y-101909523D01*
X139393704Y-101719047D01*
X139393704Y-101385714D01*
X139441323Y-101195238D01*
X139536561Y-101100000D01*
X139631800Y-101052380D01*
X140965133Y-102052380D02*
X140488942Y-102052380D01*
X140488942Y-101052380D01*
X139803333Y-104068571D02*
X139946190Y-104116190D01*
X139993809Y-104163809D01*
X140041428Y-104259047D01*
X140041428Y-104401904D01*
X139993809Y-104497142D01*
X139946190Y-104544761D01*
X139850952Y-104592380D01*
X139470000Y-104592380D01*
X139470000Y-103592380D01*
X139803333Y-103592380D01*
X139898571Y-103640000D01*
X139946190Y-103687619D01*
X139993809Y-103782857D01*
X139993809Y-103878095D01*
X139946190Y-103973333D01*
X139898571Y-104020952D01*
X139803333Y-104068571D01*
X139470000Y-104068571D01*
X140898571Y-103925714D02*
X140898571Y-104592380D01*
X140470000Y-103925714D02*
X140470000Y-104449523D01*
X140517619Y-104544761D01*
X140612857Y-104592380D01*
X140755714Y-104592380D01*
X140850952Y-104544761D01*
X140898571Y-104497142D01*
X141327142Y-104544761D02*
X141422380Y-104592380D01*
X141612857Y-104592380D01*
X141708095Y-104544761D01*
X141755714Y-104449523D01*
X141755714Y-104401904D01*
X141708095Y-104306666D01*
X141612857Y-104259047D01*
X141470000Y-104259047D01*
X141374761Y-104211428D01*
X141327142Y-104116190D01*
X141327142Y-104068571D01*
X141374761Y-103973333D01*
X141470000Y-103925714D01*
X141612857Y-103925714D01*
X141708095Y-103973333D01*
X142089047Y-103925714D02*
X142327142Y-104592380D01*
X142565238Y-103925714D02*
X142327142Y-104592380D01*
X142231904Y-104830476D01*
X142184285Y-104878095D01*
X142089047Y-104925714D01*
X144788095Y-102322380D02*
X144788095Y-103131904D01*
X144835714Y-103227142D01*
X144883333Y-103274761D01*
X144978571Y-103322380D01*
X145169047Y-103322380D01*
X145264285Y-103274761D01*
X145311904Y-103227142D01*
X145359523Y-103131904D01*
X145359523Y-102322380D01*
X145788095Y-103274761D02*
X145930952Y-103322380D01*
X146169047Y-103322380D01*
X146264285Y-103274761D01*
X146311904Y-103227142D01*
X146359523Y-103131904D01*
X146359523Y-103036666D01*
X146311904Y-102941428D01*
X146264285Y-102893809D01*
X146169047Y-102846190D01*
X145978571Y-102798571D01*
X145883333Y-102750952D01*
X145835714Y-102703333D01*
X145788095Y-102608095D01*
X145788095Y-102512857D01*
X145835714Y-102417619D01*
X145883333Y-102370000D01*
X145978571Y-102322380D01*
X146216666Y-102322380D01*
X146359523Y-102370000D01*
X147121428Y-102798571D02*
X147264285Y-102846190D01*
X147311904Y-102893809D01*
X147359523Y-102989047D01*
X147359523Y-103131904D01*
X147311904Y-103227142D01*
X147264285Y-103274761D01*
X147169047Y-103322380D01*
X146788095Y-103322380D01*
X146788095Y-102322380D01*
X147121428Y-102322380D01*
X147216666Y-102370000D01*
X147264285Y-102417619D01*
X147311904Y-102512857D01*
X147311904Y-102608095D01*
X147264285Y-102703333D01*
X147216666Y-102750952D01*
X147121428Y-102798571D01*
X146788095Y-102798571D01*
X140041333Y-107119680D02*
X139708000Y-106643490D01*
X139469904Y-107119680D02*
X139469904Y-106119680D01*
X139850857Y-106119680D01*
X139946095Y-106167300D01*
X139993714Y-106214919D01*
X140041333Y-106310157D01*
X140041333Y-106453014D01*
X139993714Y-106548252D01*
X139946095Y-106595871D01*
X139850857Y-106643490D01*
X139469904Y-106643490D01*
X140374666Y-106119680D02*
X141041333Y-107119680D01*
X141041333Y-106119680D02*
X140374666Y-107119680D01*
X139420695Y-108735880D02*
X139992123Y-108735880D01*
X139706409Y-109735880D02*
X139706409Y-108735880D01*
X140230219Y-108735880D02*
X140896885Y-109735880D01*
X140896885Y-108735880D02*
X140230219Y-109735880D01*
X140068395Y-111298100D02*
X139973157Y-111250480D01*
X139830300Y-111250480D01*
X139687442Y-111298100D01*
X139592204Y-111393338D01*
X139544585Y-111488576D01*
X139496966Y-111679052D01*
X139496966Y-111821909D01*
X139544585Y-112012385D01*
X139592204Y-112107623D01*
X139687442Y-112202861D01*
X139830300Y-112250480D01*
X139925538Y-112250480D01*
X140068395Y-112202861D01*
X140116014Y-112155242D01*
X140116014Y-111821909D01*
X139925538Y-111821909D01*
X140544585Y-112250480D02*
X140544585Y-111250480D01*
X141116014Y-112250480D01*
X141116014Y-111250480D01*
X141592204Y-112250480D02*
X141592204Y-111250480D01*
X141830300Y-111250480D01*
X141973157Y-111298100D01*
X142068395Y-111393338D01*
X142116014Y-111488576D01*
X142163633Y-111679052D01*
X142163633Y-111821909D01*
X142116014Y-112012385D01*
X142068395Y-112107623D01*
X141973157Y-112202861D01*
X141830300Y-112250480D01*
X141592204Y-112250480D01*
X139633461Y-113752380D02*
X139966795Y-114752380D01*
X140300128Y-113752380D01*
X140633461Y-114752380D02*
X140633461Y-113752380D01*
X141109652Y-114752380D02*
X141109652Y-113752380D01*
X141681080Y-114752380D01*
X141681080Y-113752380D01*
X139536776Y-117317780D02*
X139536776Y-116317780D01*
X139774871Y-116317780D01*
X139917728Y-116365400D01*
X140012966Y-116460638D01*
X140060585Y-116555876D01*
X140108204Y-116746352D01*
X140108204Y-116889209D01*
X140060585Y-117079685D01*
X140012966Y-117174923D01*
X139917728Y-117270161D01*
X139774871Y-117317780D01*
X139536776Y-117317780D01*
X140489157Y-117032066D02*
X140965347Y-117032066D01*
X140393919Y-117317780D02*
X140727252Y-116317780D01*
X141060585Y-117317780D01*
X141965347Y-117222542D02*
X141917728Y-117270161D01*
X141774871Y-117317780D01*
X141679633Y-117317780D01*
X141536776Y-117270161D01*
X141441538Y-117174923D01*
X141393919Y-117079685D01*
X141346300Y-116889209D01*
X141346300Y-116746352D01*
X141393919Y-116555876D01*
X141441538Y-116460638D01*
X141536776Y-116365400D01*
X141679633Y-116317780D01*
X141774871Y-116317780D01*
X141917728Y-116365400D01*
X141965347Y-116413019D01*
X142393919Y-116936828D02*
X143155823Y-116936828D01*
X144203442Y-117317780D02*
X143870109Y-116841590D01*
X143632014Y-117317780D02*
X143632014Y-116317780D01*
X144012966Y-116317780D01*
X144108204Y-116365400D01*
X144155823Y-116413019D01*
X144203442Y-116508257D01*
X144203442Y-116651114D01*
X144155823Y-116746352D01*
X144108204Y-116793971D01*
X144012966Y-116841590D01*
X143632014Y-116841590D01*
X139555814Y-119895880D02*
X139555814Y-118895880D01*
X139793909Y-118895880D01*
X139936766Y-118943500D01*
X140032004Y-119038738D01*
X140079623Y-119133976D01*
X140127242Y-119324452D01*
X140127242Y-119467309D01*
X140079623Y-119657785D01*
X140032004Y-119753023D01*
X139936766Y-119848261D01*
X139793909Y-119895880D01*
X139555814Y-119895880D01*
X140508195Y-119610166D02*
X140984385Y-119610166D01*
X140412957Y-119895880D02*
X140746290Y-118895880D01*
X141079623Y-119895880D01*
X141984385Y-119800642D02*
X141936766Y-119848261D01*
X141793909Y-119895880D01*
X141698671Y-119895880D01*
X141555814Y-119848261D01*
X141460576Y-119753023D01*
X141412957Y-119657785D01*
X141365338Y-119467309D01*
X141365338Y-119324452D01*
X141412957Y-119133976D01*
X141460576Y-119038738D01*
X141555814Y-118943500D01*
X141698671Y-118895880D01*
X141793909Y-118895880D01*
X141936766Y-118943500D01*
X141984385Y-118991119D01*
X142412957Y-119514928D02*
X143174861Y-119514928D01*
X144127242Y-119895880D02*
X143651052Y-119895880D01*
X143651052Y-118895880D01*
X139484385Y-122324761D02*
X139627242Y-122372380D01*
X139865338Y-122372380D01*
X139960576Y-122324761D01*
X140008195Y-122277142D01*
X140055814Y-122181904D01*
X140055814Y-122086666D01*
X140008195Y-121991428D01*
X139960576Y-121943809D01*
X139865338Y-121896190D01*
X139674861Y-121848571D01*
X139579623Y-121800952D01*
X139532004Y-121753333D01*
X139484385Y-121658095D01*
X139484385Y-121562857D01*
X139532004Y-121467619D01*
X139579623Y-121420000D01*
X139674861Y-121372380D01*
X139912957Y-121372380D01*
X140055814Y-121420000D01*
X140484385Y-122372380D02*
X140484385Y-121372380D01*
X140865338Y-121372380D01*
X140960576Y-121420000D01*
X141008195Y-121467619D01*
X141055814Y-121562857D01*
X141055814Y-121705714D01*
X141008195Y-121800952D01*
X140960576Y-121848571D01*
X140865338Y-121896190D01*
X140484385Y-121896190D01*
X141484385Y-122372380D02*
X141484385Y-121372380D01*
X142055814Y-122372380D02*
X141627242Y-121800952D01*
X142055814Y-121372380D02*
X141484385Y-121943809D01*
X143246290Y-121991428D02*
X144008195Y-121991428D01*
X139522485Y-124826661D02*
X139665342Y-124874280D01*
X139903438Y-124874280D01*
X139998676Y-124826661D01*
X140046295Y-124779042D01*
X140093914Y-124683804D01*
X140093914Y-124588566D01*
X140046295Y-124493328D01*
X139998676Y-124445709D01*
X139903438Y-124398090D01*
X139712961Y-124350471D01*
X139617723Y-124302852D01*
X139570104Y-124255233D01*
X139522485Y-124159995D01*
X139522485Y-124064757D01*
X139570104Y-123969519D01*
X139617723Y-123921900D01*
X139712961Y-123874280D01*
X139951057Y-123874280D01*
X140093914Y-123921900D01*
X140522485Y-124874280D02*
X140522485Y-123874280D01*
X140903438Y-123874280D01*
X140998676Y-123921900D01*
X141046295Y-123969519D01*
X141093914Y-124064757D01*
X141093914Y-124207614D01*
X141046295Y-124302852D01*
X140998676Y-124350471D01*
X140903438Y-124398090D01*
X140522485Y-124398090D01*
X141522485Y-124874280D02*
X141522485Y-123874280D01*
X142093914Y-124874280D02*
X141665342Y-124302852D01*
X142093914Y-123874280D02*
X141522485Y-124445709D01*
X143284390Y-124493328D02*
X144046295Y-124493328D01*
X143665342Y-124874280D02*
X143665342Y-124112376D01*
M02*
