G04 #@! TF.GenerationSoftware,KiCad,Pcbnew,5.1.5-52549c5~84~ubuntu18.04.1*
G04 #@! TF.CreationDate,2020-01-28T15:27:20+01:00*
G04 #@! TF.ProjectId,Nokolino,4e6f6b6f-6c69-46e6-9f2e-6b696361645f,3.0*
G04 #@! TF.SameCoordinates,Original*
G04 #@! TF.FileFunction,Copper,L2,Bot*
G04 #@! TF.FilePolarity,Positive*
%FSLAX46Y46*%
G04 Gerber Fmt 4.6, Leading zero omitted, Abs format (unit mm)*
G04 Created by KiCad (PCBNEW 5.1.5-52549c5~84~ubuntu18.04.1) date 2020-01-28 15:27:20*
%MOMM*%
%LPD*%
G04 APERTURE LIST*
%ADD10C,2.000000*%
%ADD11O,2.000000X1.800000*%
%ADD12R,2.000000X1.800000*%
%ADD13C,1.524000*%
%ADD14C,5.600000*%
%ADD15O,1.700000X1.700000*%
%ADD16R,1.700000X1.700000*%
%ADD17C,1.600000*%
%ADD18O,1.600000X1.600000*%
%ADD19C,0.600000*%
%ADD20C,0.250000*%
%ADD21C,0.254000*%
G04 APERTURE END LIST*
D10*
X170599100Y-145249900D03*
X170599100Y-131737100D03*
X147739100Y-145046700D03*
X147739100Y-131940300D03*
X147739100Y-134683500D03*
X147739100Y-142303500D03*
D11*
X135382000Y-135953500D03*
X143002000Y-128333500D03*
X135382000Y-133413500D03*
X143002000Y-130873500D03*
X135382000Y-130873500D03*
X143002000Y-133413500D03*
X135382000Y-128333500D03*
D12*
X143002000Y-135953500D03*
D13*
X172500000Y-122300000D03*
X160500000Y-122300000D03*
D14*
X176000000Y-126500000D03*
X167250000Y-126500000D03*
D15*
X172720000Y-91440000D03*
D16*
X170180000Y-91440000D03*
D15*
X181250000Y-126290000D03*
D16*
X181250000Y-123750000D03*
D15*
X180975000Y-120015000D03*
X180975000Y-117475000D03*
X180975000Y-114935000D03*
X180975000Y-112395000D03*
X180975000Y-109855000D03*
D16*
X180975000Y-107315000D03*
D17*
X135250000Y-123500000D03*
D18*
X135250000Y-115880000D03*
D10*
X139250000Y-95500000D03*
X134750000Y-95500000D03*
X139250000Y-89000000D03*
X134750000Y-89000000D03*
X177250000Y-89000000D03*
X181750000Y-89000000D03*
X177250000Y-95500000D03*
X181750000Y-95500000D03*
X181750000Y-146000000D03*
X177250000Y-146000000D03*
X181750000Y-139500000D03*
X177250000Y-139500000D03*
X134750000Y-139500000D03*
X139250000Y-139500000D03*
X134750000Y-146000000D03*
X139250000Y-146000000D03*
X138430000Y-101600000D03*
X138430000Y-104140000D03*
X138430000Y-106680000D03*
X138430000Y-109220000D03*
X138430000Y-111760000D03*
X138430000Y-114300000D03*
X138430000Y-116840000D03*
X138430000Y-119380000D03*
X138430000Y-121920000D03*
X138430000Y-124460000D03*
X144780000Y-95250000D03*
X147320000Y-95250000D03*
D19*
X134620000Y-109220000D03*
X134620000Y-109220000D03*
X139700000Y-128270000D03*
X139700000Y-128270000D03*
D20*
X133600010Y-125401510D02*
X133600010Y-110239990D01*
X135382000Y-128333500D02*
X135382000Y-127183500D01*
X135382000Y-127183500D02*
X133600010Y-125401510D01*
X133600010Y-110239990D02*
X134620000Y-109220000D01*
X134620000Y-109220000D02*
X134620000Y-109220000D01*
X134620000Y-109220000D02*
X134620000Y-109220000D01*
X137835787Y-139500000D02*
X139250000Y-139500000D01*
X137096075Y-139500000D02*
X137835787Y-139500000D01*
X134056990Y-136460915D02*
X137096075Y-139500000D01*
X134056990Y-128408510D02*
X134056990Y-136460915D01*
X134132000Y-128333500D02*
X134056990Y-128408510D01*
X135382000Y-128333500D02*
X134132000Y-128333500D01*
X137104999Y-115625001D02*
X137104999Y-125674999D01*
X138430000Y-114300000D02*
X137104999Y-115625001D01*
X137104999Y-125674999D02*
X139700000Y-128270000D01*
X139700000Y-128270000D02*
X139700000Y-128270000D01*
X139700000Y-128270000D02*
X139700000Y-128270000D01*
X170180000Y-90340000D02*
X170180000Y-91440000D01*
X170255001Y-90264999D02*
X170180000Y-90340000D01*
X173284001Y-90264999D02*
X170255001Y-90264999D01*
X173895001Y-90875999D02*
X173284001Y-90264999D01*
X173895001Y-110488601D02*
X173895001Y-90875999D01*
X147739100Y-136644502D02*
X173895001Y-110488601D01*
X147739100Y-142303500D02*
X147739100Y-136644502D01*
X149064101Y-115095899D02*
X171870001Y-92289999D01*
X147739100Y-134683500D02*
X149064101Y-133358499D01*
X149064101Y-133358499D02*
X149064101Y-115095899D01*
X171870001Y-92289999D02*
X172720000Y-91440000D01*
X179125001Y-108064999D02*
X179875000Y-107315000D01*
X179125001Y-128000001D02*
X179125001Y-108064999D01*
X179875000Y-107315000D02*
X180975000Y-107315000D01*
X175387902Y-131737100D02*
X179125001Y-128000001D01*
X170599100Y-131737100D02*
X175387902Y-131737100D01*
X182799990Y-131634797D02*
X182799990Y-111679990D01*
X182799990Y-111679990D02*
X181824999Y-110704999D01*
X170599100Y-143835687D02*
X182799990Y-131634797D01*
X181824999Y-110704999D02*
X180975000Y-109855000D01*
X170599100Y-145249900D02*
X170599100Y-143835687D01*
X177250000Y-89000000D02*
X177250000Y-95500000D01*
X146739101Y-132940299D02*
X147739100Y-131940300D01*
X146414099Y-133265301D02*
X146739101Y-132940299D01*
X171064223Y-147099990D02*
X147831388Y-147099990D01*
X147831388Y-147099990D02*
X146414099Y-145682701D01*
X146414099Y-145682701D02*
X146414099Y-133265301D01*
X135250000Y-114940000D02*
X135250000Y-115880000D01*
X138430000Y-111760000D02*
X135250000Y-114940000D01*
X134750000Y-108080000D02*
X134750000Y-95500000D01*
X138430000Y-111760000D02*
X134750000Y-108080000D01*
X136075001Y-90325001D02*
X135749999Y-89999999D01*
X139886001Y-90325001D02*
X136075001Y-90325001D01*
X135749999Y-89999999D02*
X134750000Y-89000000D01*
X141211002Y-89000000D02*
X139886001Y-90325001D01*
X177250000Y-89000000D02*
X141211002Y-89000000D01*
X177250000Y-140914213D02*
X177250000Y-146000000D01*
X177250000Y-139500000D02*
X177250000Y-140914213D01*
X172164213Y-146000000D02*
X171064223Y-147099990D01*
X177250000Y-146000000D02*
X172164213Y-146000000D01*
X135250000Y-125761500D02*
X135250000Y-124631370D01*
X135250000Y-124631370D02*
X135250000Y-123500000D01*
X142902000Y-133413500D02*
X135250000Y-125761500D01*
X143002000Y-133413500D02*
X142902000Y-133413500D01*
X181824999Y-118324999D02*
X180975000Y-117475000D01*
X182150001Y-120579001D02*
X182150001Y-118650001D01*
X182150001Y-118650001D02*
X181824999Y-118324999D01*
X180074999Y-122654003D02*
X182150001Y-120579001D01*
X180074999Y-132345001D02*
X180074999Y-122654003D01*
X167373300Y-145046700D02*
X180074999Y-132345001D01*
X147739100Y-145046700D02*
X167373300Y-145046700D01*
X139429999Y-105139999D02*
X138430000Y-104140000D01*
X144693801Y-110403801D02*
X139429999Y-105139999D01*
X144693801Y-130431699D02*
X144693801Y-110403801D01*
X144252000Y-130873500D02*
X144693801Y-130431699D01*
X143002000Y-130873500D02*
X144252000Y-130873500D01*
D21*
G36*
X182490000Y-138036807D02*
G01*
X182226912Y-137927832D01*
X181911033Y-137865000D01*
X181588967Y-137865000D01*
X181273088Y-137927832D01*
X180975537Y-138051082D01*
X180707748Y-138230013D01*
X180480013Y-138457748D01*
X180301082Y-138725537D01*
X180177832Y-139023088D01*
X180115000Y-139338967D01*
X180115000Y-139661033D01*
X180177832Y-139976912D01*
X180301082Y-140274463D01*
X180480013Y-140542252D01*
X180707748Y-140769987D01*
X180975537Y-140948918D01*
X181273088Y-141072168D01*
X181588967Y-141135000D01*
X181911033Y-141135000D01*
X182226912Y-141072168D01*
X182490000Y-140963193D01*
X182490000Y-144536807D01*
X182226912Y-144427832D01*
X181911033Y-144365000D01*
X181588967Y-144365000D01*
X181273088Y-144427832D01*
X180975537Y-144551082D01*
X180707748Y-144730013D01*
X180480013Y-144957748D01*
X180301082Y-145225537D01*
X180177832Y-145523088D01*
X180115000Y-145838967D01*
X180115000Y-146161033D01*
X180177832Y-146476912D01*
X180301082Y-146774463D01*
X180311463Y-146790000D01*
X178683889Y-146790000D01*
X178790704Y-146570429D01*
X178872384Y-146258892D01*
X178891718Y-145937405D01*
X178847961Y-145618325D01*
X178742795Y-145313912D01*
X178649814Y-145139956D01*
X178385413Y-145044192D01*
X177429605Y-146000000D01*
X177443748Y-146014143D01*
X177264143Y-146193748D01*
X177250000Y-146179605D01*
X177235858Y-146193748D01*
X177056253Y-146014143D01*
X177070395Y-146000000D01*
X176114587Y-145044192D01*
X175850186Y-145139956D01*
X175709296Y-145429571D01*
X175627616Y-145741108D01*
X175608282Y-146062595D01*
X175652039Y-146381675D01*
X175757205Y-146686088D01*
X175812747Y-146790000D01*
X171153431Y-146790000D01*
X171373563Y-146698818D01*
X171641352Y-146519887D01*
X171869087Y-146292152D01*
X172048018Y-146024363D01*
X172171268Y-145726812D01*
X172234100Y-145410933D01*
X172234100Y-145088867D01*
X172189489Y-144864587D01*
X176294192Y-144864587D01*
X177250000Y-145820395D01*
X178205808Y-144864587D01*
X178110044Y-144600186D01*
X177820429Y-144459296D01*
X177508892Y-144377616D01*
X177187405Y-144358282D01*
X176868325Y-144402039D01*
X176563912Y-144507205D01*
X176389956Y-144600186D01*
X176294192Y-144864587D01*
X172189489Y-144864587D01*
X172171268Y-144772988D01*
X172048018Y-144475437D01*
X171869087Y-144207648D01*
X171641352Y-143979913D01*
X171574407Y-143935181D01*
X174874175Y-140635413D01*
X176294192Y-140635413D01*
X176389956Y-140899814D01*
X176679571Y-141040704D01*
X176991108Y-141122384D01*
X177312595Y-141141718D01*
X177631675Y-141097961D01*
X177936088Y-140992795D01*
X178110044Y-140899814D01*
X178205808Y-140635413D01*
X177250000Y-139679605D01*
X176294192Y-140635413D01*
X174874175Y-140635413D01*
X175649130Y-139860459D01*
X175652039Y-139881675D01*
X175757205Y-140186088D01*
X175850186Y-140360044D01*
X176114587Y-140455808D01*
X177070395Y-139500000D01*
X177429605Y-139500000D01*
X178385413Y-140455808D01*
X178649814Y-140360044D01*
X178790704Y-140070429D01*
X178872384Y-139758892D01*
X178891718Y-139437405D01*
X178847961Y-139118325D01*
X178742795Y-138813912D01*
X178649814Y-138639956D01*
X178385413Y-138544192D01*
X177429605Y-139500000D01*
X177070395Y-139500000D01*
X177056253Y-139485858D01*
X177235858Y-139306253D01*
X177250000Y-139320395D01*
X178205808Y-138364587D01*
X178110044Y-138100186D01*
X177820429Y-137959296D01*
X177606406Y-137903183D01*
X182490000Y-133019589D01*
X182490000Y-138036807D01*
G37*
X182490000Y-138036807D02*
X182226912Y-137927832D01*
X181911033Y-137865000D01*
X181588967Y-137865000D01*
X181273088Y-137927832D01*
X180975537Y-138051082D01*
X180707748Y-138230013D01*
X180480013Y-138457748D01*
X180301082Y-138725537D01*
X180177832Y-139023088D01*
X180115000Y-139338967D01*
X180115000Y-139661033D01*
X180177832Y-139976912D01*
X180301082Y-140274463D01*
X180480013Y-140542252D01*
X180707748Y-140769987D01*
X180975537Y-140948918D01*
X181273088Y-141072168D01*
X181588967Y-141135000D01*
X181911033Y-141135000D01*
X182226912Y-141072168D01*
X182490000Y-140963193D01*
X182490000Y-144536807D01*
X182226912Y-144427832D01*
X181911033Y-144365000D01*
X181588967Y-144365000D01*
X181273088Y-144427832D01*
X180975537Y-144551082D01*
X180707748Y-144730013D01*
X180480013Y-144957748D01*
X180301082Y-145225537D01*
X180177832Y-145523088D01*
X180115000Y-145838967D01*
X180115000Y-146161033D01*
X180177832Y-146476912D01*
X180301082Y-146774463D01*
X180311463Y-146790000D01*
X178683889Y-146790000D01*
X178790704Y-146570429D01*
X178872384Y-146258892D01*
X178891718Y-145937405D01*
X178847961Y-145618325D01*
X178742795Y-145313912D01*
X178649814Y-145139956D01*
X178385413Y-145044192D01*
X177429605Y-146000000D01*
X177443748Y-146014143D01*
X177264143Y-146193748D01*
X177250000Y-146179605D01*
X177235858Y-146193748D01*
X177056253Y-146014143D01*
X177070395Y-146000000D01*
X176114587Y-145044192D01*
X175850186Y-145139956D01*
X175709296Y-145429571D01*
X175627616Y-145741108D01*
X175608282Y-146062595D01*
X175652039Y-146381675D01*
X175757205Y-146686088D01*
X175812747Y-146790000D01*
X171153431Y-146790000D01*
X171373563Y-146698818D01*
X171641352Y-146519887D01*
X171869087Y-146292152D01*
X172048018Y-146024363D01*
X172171268Y-145726812D01*
X172234100Y-145410933D01*
X172234100Y-145088867D01*
X172189489Y-144864587D01*
X176294192Y-144864587D01*
X177250000Y-145820395D01*
X178205808Y-144864587D01*
X178110044Y-144600186D01*
X177820429Y-144459296D01*
X177508892Y-144377616D01*
X177187405Y-144358282D01*
X176868325Y-144402039D01*
X176563912Y-144507205D01*
X176389956Y-144600186D01*
X176294192Y-144864587D01*
X172189489Y-144864587D01*
X172171268Y-144772988D01*
X172048018Y-144475437D01*
X171869087Y-144207648D01*
X171641352Y-143979913D01*
X171574407Y-143935181D01*
X174874175Y-140635413D01*
X176294192Y-140635413D01*
X176389956Y-140899814D01*
X176679571Y-141040704D01*
X176991108Y-141122384D01*
X177312595Y-141141718D01*
X177631675Y-141097961D01*
X177936088Y-140992795D01*
X178110044Y-140899814D01*
X178205808Y-140635413D01*
X177250000Y-139679605D01*
X176294192Y-140635413D01*
X174874175Y-140635413D01*
X175649130Y-139860459D01*
X175652039Y-139881675D01*
X175757205Y-140186088D01*
X175850186Y-140360044D01*
X176114587Y-140455808D01*
X177070395Y-139500000D01*
X177429605Y-139500000D01*
X178385413Y-140455808D01*
X178649814Y-140360044D01*
X178790704Y-140070429D01*
X178872384Y-139758892D01*
X178891718Y-139437405D01*
X178847961Y-139118325D01*
X178742795Y-138813912D01*
X178649814Y-138639956D01*
X178385413Y-138544192D01*
X177429605Y-139500000D01*
X177070395Y-139500000D01*
X177056253Y-139485858D01*
X177235858Y-139306253D01*
X177250000Y-139320395D01*
X178205808Y-138364587D01*
X178110044Y-138100186D01*
X177820429Y-137959296D01*
X177606406Y-137903183D01*
X182490000Y-133019589D01*
X182490000Y-138036807D01*
G36*
X137801082Y-88225537D02*
G01*
X137677832Y-88523088D01*
X137615000Y-88838967D01*
X137615000Y-89161033D01*
X137677832Y-89476912D01*
X137801082Y-89774463D01*
X137980013Y-90042252D01*
X138207748Y-90269987D01*
X138475537Y-90448918D01*
X138773088Y-90572168D01*
X139088967Y-90635000D01*
X139411033Y-90635000D01*
X139726912Y-90572168D01*
X140024463Y-90448918D01*
X140292252Y-90269987D01*
X140519987Y-90042252D01*
X140698918Y-89774463D01*
X140822168Y-89476912D01*
X140885000Y-89161033D01*
X140885000Y-88838967D01*
X140822168Y-88523088D01*
X140698918Y-88225537D01*
X140688537Y-88210000D01*
X175816111Y-88210000D01*
X175709296Y-88429571D01*
X175627616Y-88741108D01*
X175608282Y-89062595D01*
X175652039Y-89381675D01*
X175757205Y-89686088D01*
X175850186Y-89860044D01*
X176114587Y-89955808D01*
X177070395Y-89000000D01*
X177056253Y-88985858D01*
X177235858Y-88806253D01*
X177250000Y-88820395D01*
X177264143Y-88806253D01*
X177443748Y-88985858D01*
X177429605Y-89000000D01*
X178385413Y-89955808D01*
X178649814Y-89860044D01*
X178790704Y-89570429D01*
X178872384Y-89258892D01*
X178891718Y-88937405D01*
X178847961Y-88618325D01*
X178742795Y-88313912D01*
X178687253Y-88210000D01*
X180311463Y-88210000D01*
X180301082Y-88225537D01*
X180177832Y-88523088D01*
X180115000Y-88838967D01*
X180115000Y-89161033D01*
X180177832Y-89476912D01*
X180301082Y-89774463D01*
X180480013Y-90042252D01*
X180707748Y-90269987D01*
X180975537Y-90448918D01*
X181273088Y-90572168D01*
X181588967Y-90635000D01*
X181911033Y-90635000D01*
X182226912Y-90572168D01*
X182490001Y-90463193D01*
X182490001Y-94036807D01*
X182226912Y-93927832D01*
X181911033Y-93865000D01*
X181588967Y-93865000D01*
X181273088Y-93927832D01*
X180975537Y-94051082D01*
X180707748Y-94230013D01*
X180480013Y-94457748D01*
X180301082Y-94725537D01*
X180177832Y-95023088D01*
X180115000Y-95338967D01*
X180115000Y-95661033D01*
X180177832Y-95976912D01*
X180301082Y-96274463D01*
X180480013Y-96542252D01*
X180707748Y-96769987D01*
X180975537Y-96948918D01*
X181273088Y-97072168D01*
X181588967Y-97135000D01*
X181911033Y-97135000D01*
X182226912Y-97072168D01*
X182490001Y-96963193D01*
X182490001Y-110295199D01*
X182416209Y-110221408D01*
X182460000Y-110001260D01*
X182460000Y-109708740D01*
X182402932Y-109421842D01*
X182290990Y-109151589D01*
X182128475Y-108908368D01*
X181996620Y-108776513D01*
X182069180Y-108754502D01*
X182179494Y-108695537D01*
X182276185Y-108616185D01*
X182355537Y-108519494D01*
X182414502Y-108409180D01*
X182450812Y-108289482D01*
X182463072Y-108165000D01*
X182463072Y-106465000D01*
X182450812Y-106340518D01*
X182414502Y-106220820D01*
X182355537Y-106110506D01*
X182276185Y-106013815D01*
X182179494Y-105934463D01*
X182069180Y-105875498D01*
X181949482Y-105839188D01*
X181825000Y-105826928D01*
X180125000Y-105826928D01*
X180000518Y-105839188D01*
X179880820Y-105875498D01*
X179770506Y-105934463D01*
X179673815Y-106013815D01*
X179594463Y-106110506D01*
X179535498Y-106220820D01*
X179499188Y-106340518D01*
X179486928Y-106465000D01*
X179486928Y-106660674D01*
X179450724Y-106680026D01*
X179334999Y-106774999D01*
X179311201Y-106803998D01*
X178613999Y-107501200D01*
X178585001Y-107524998D01*
X178561203Y-107553996D01*
X178561202Y-107553997D01*
X178490027Y-107640723D01*
X178419455Y-107772753D01*
X178375999Y-107916014D01*
X178361325Y-108064999D01*
X178365002Y-108102332D01*
X178365001Y-124007178D01*
X178189685Y-123831862D01*
X177627082Y-123455943D01*
X177001952Y-123197006D01*
X176338318Y-123065000D01*
X175661682Y-123065000D01*
X174998048Y-123197006D01*
X174372918Y-123455943D01*
X173810315Y-123831862D01*
X173331862Y-124310315D01*
X172955943Y-124872918D01*
X172697006Y-125498048D01*
X172565000Y-126161682D01*
X172565000Y-126838318D01*
X172697006Y-127501952D01*
X172955943Y-128127082D01*
X173331862Y-128689685D01*
X173810315Y-129168138D01*
X174372918Y-129544057D01*
X174998048Y-129802994D01*
X175661682Y-129935000D01*
X176115201Y-129935000D01*
X175073101Y-130977100D01*
X172054009Y-130977100D01*
X172048018Y-130962637D01*
X171869087Y-130694848D01*
X171641352Y-130467113D01*
X171373563Y-130288182D01*
X171076012Y-130164932D01*
X170760133Y-130102100D01*
X170438067Y-130102100D01*
X170122188Y-130164932D01*
X169824637Y-130288182D01*
X169556848Y-130467113D01*
X169329113Y-130694848D01*
X169150182Y-130962637D01*
X169026932Y-131260188D01*
X168964100Y-131576067D01*
X168964100Y-131898133D01*
X169026932Y-132214012D01*
X169150182Y-132511563D01*
X169329113Y-132779352D01*
X169556848Y-133007087D01*
X169824637Y-133186018D01*
X170122188Y-133309268D01*
X170438067Y-133372100D01*
X170760133Y-133372100D01*
X171076012Y-133309268D01*
X171373563Y-133186018D01*
X171641352Y-133007087D01*
X171869087Y-132779352D01*
X172048018Y-132511563D01*
X172054009Y-132497100D01*
X175350580Y-132497100D01*
X175387902Y-132500776D01*
X175425224Y-132497100D01*
X175425235Y-132497100D01*
X175536888Y-132486103D01*
X175680149Y-132442646D01*
X175812178Y-132372074D01*
X175927903Y-132277101D01*
X175951706Y-132248097D01*
X179314999Y-128884805D01*
X179314999Y-132030199D01*
X167058499Y-144286700D01*
X149194009Y-144286700D01*
X149188018Y-144272237D01*
X149009087Y-144004448D01*
X148781352Y-143776713D01*
X148629277Y-143675100D01*
X148781352Y-143573487D01*
X149009087Y-143345752D01*
X149188018Y-143077963D01*
X149311268Y-142780412D01*
X149374100Y-142464533D01*
X149374100Y-142142467D01*
X149311268Y-141826588D01*
X149188018Y-141529037D01*
X149009087Y-141261248D01*
X148781352Y-141033513D01*
X148513563Y-140854582D01*
X148499100Y-140848591D01*
X148499100Y-136959303D01*
X159296721Y-126161682D01*
X163815000Y-126161682D01*
X163815000Y-126838318D01*
X163947006Y-127501952D01*
X164205943Y-128127082D01*
X164581862Y-128689685D01*
X165060315Y-129168138D01*
X165622918Y-129544057D01*
X166248048Y-129802994D01*
X166911682Y-129935000D01*
X167588318Y-129935000D01*
X168251952Y-129802994D01*
X168877082Y-129544057D01*
X169439685Y-129168138D01*
X169918138Y-128689685D01*
X170294057Y-128127082D01*
X170552994Y-127501952D01*
X170685000Y-126838318D01*
X170685000Y-126161682D01*
X170552994Y-125498048D01*
X170294057Y-124872918D01*
X169918138Y-124310315D01*
X169439685Y-123831862D01*
X168877082Y-123455943D01*
X168251952Y-123197006D01*
X167588318Y-123065000D01*
X166911682Y-123065000D01*
X166248048Y-123197006D01*
X165622918Y-123455943D01*
X165060315Y-123831862D01*
X164581862Y-124310315D01*
X164205943Y-124872918D01*
X163947006Y-125498048D01*
X163815000Y-126161682D01*
X159296721Y-126161682D01*
X163295995Y-122162408D01*
X171103000Y-122162408D01*
X171103000Y-122437592D01*
X171156686Y-122707490D01*
X171261995Y-122961727D01*
X171414880Y-123190535D01*
X171609465Y-123385120D01*
X171838273Y-123538005D01*
X172092510Y-123643314D01*
X172362408Y-123697000D01*
X172637592Y-123697000D01*
X172907490Y-123643314D01*
X173161727Y-123538005D01*
X173390535Y-123385120D01*
X173585120Y-123190535D01*
X173738005Y-122961727D01*
X173843314Y-122707490D01*
X173897000Y-122437592D01*
X173897000Y-122162408D01*
X173843314Y-121892510D01*
X173738005Y-121638273D01*
X173585120Y-121409465D01*
X173390535Y-121214880D01*
X173161727Y-121061995D01*
X172907490Y-120956686D01*
X172637592Y-120903000D01*
X172362408Y-120903000D01*
X172092510Y-120956686D01*
X171838273Y-121061995D01*
X171609465Y-121214880D01*
X171414880Y-121409465D01*
X171261995Y-121638273D01*
X171156686Y-121892510D01*
X171103000Y-122162408D01*
X163295995Y-122162408D01*
X174406005Y-111052399D01*
X174435002Y-111028602D01*
X174467509Y-110988992D01*
X174529975Y-110912878D01*
X174600547Y-110780848D01*
X174623555Y-110704998D01*
X174644004Y-110637587D01*
X174655001Y-110525934D01*
X174655001Y-110525924D01*
X174658677Y-110488601D01*
X174655001Y-110451278D01*
X174655001Y-96635413D01*
X176294192Y-96635413D01*
X176389956Y-96899814D01*
X176679571Y-97040704D01*
X176991108Y-97122384D01*
X177312595Y-97141718D01*
X177631675Y-97097961D01*
X177936088Y-96992795D01*
X178110044Y-96899814D01*
X178205808Y-96635413D01*
X177250000Y-95679605D01*
X176294192Y-96635413D01*
X174655001Y-96635413D01*
X174655001Y-95562595D01*
X175608282Y-95562595D01*
X175652039Y-95881675D01*
X175757205Y-96186088D01*
X175850186Y-96360044D01*
X176114587Y-96455808D01*
X177070395Y-95500000D01*
X177429605Y-95500000D01*
X178385413Y-96455808D01*
X178649814Y-96360044D01*
X178790704Y-96070429D01*
X178872384Y-95758892D01*
X178891718Y-95437405D01*
X178847961Y-95118325D01*
X178742795Y-94813912D01*
X178649814Y-94639956D01*
X178385413Y-94544192D01*
X177429605Y-95500000D01*
X177070395Y-95500000D01*
X176114587Y-94544192D01*
X175850186Y-94639956D01*
X175709296Y-94929571D01*
X175627616Y-95241108D01*
X175608282Y-95562595D01*
X174655001Y-95562595D01*
X174655001Y-94364587D01*
X176294192Y-94364587D01*
X177250000Y-95320395D01*
X178205808Y-94364587D01*
X178110044Y-94100186D01*
X177820429Y-93959296D01*
X177508892Y-93877616D01*
X177187405Y-93858282D01*
X176868325Y-93902039D01*
X176563912Y-94007205D01*
X176389956Y-94100186D01*
X176294192Y-94364587D01*
X174655001Y-94364587D01*
X174655001Y-90913321D01*
X174658677Y-90875998D01*
X174655001Y-90838675D01*
X174655001Y-90838666D01*
X174644004Y-90727013D01*
X174600547Y-90583752D01*
X174529975Y-90451723D01*
X174499004Y-90413985D01*
X174458800Y-90364995D01*
X174458796Y-90364991D01*
X174435002Y-90335998D01*
X174406009Y-90312204D01*
X174229218Y-90135413D01*
X176294192Y-90135413D01*
X176389956Y-90399814D01*
X176679571Y-90540704D01*
X176991108Y-90622384D01*
X177312595Y-90641718D01*
X177631675Y-90597961D01*
X177936088Y-90492795D01*
X178110044Y-90399814D01*
X178205808Y-90135413D01*
X177250000Y-89179605D01*
X176294192Y-90135413D01*
X174229218Y-90135413D01*
X173847804Y-89754001D01*
X173824002Y-89724998D01*
X173708277Y-89630025D01*
X173576248Y-89559453D01*
X173432987Y-89515996D01*
X173321334Y-89504999D01*
X173321323Y-89504999D01*
X173284001Y-89501323D01*
X173246679Y-89504999D01*
X170292323Y-89504999D01*
X170255000Y-89501323D01*
X170217678Y-89504999D01*
X170217668Y-89504999D01*
X170106015Y-89515996D01*
X169962754Y-89559453D01*
X169830725Y-89630025D01*
X169715000Y-89724998D01*
X169691200Y-89753998D01*
X169669000Y-89776198D01*
X169639999Y-89799999D01*
X169590722Y-89860044D01*
X169545026Y-89915724D01*
X169525674Y-89951928D01*
X169330000Y-89951928D01*
X169205518Y-89964188D01*
X169085820Y-90000498D01*
X168975506Y-90059463D01*
X168878815Y-90138815D01*
X168799463Y-90235506D01*
X168740498Y-90345820D01*
X168704188Y-90465518D01*
X168691928Y-90590000D01*
X168691928Y-92290000D01*
X168704188Y-92414482D01*
X168740498Y-92534180D01*
X168799463Y-92644494D01*
X168878815Y-92741185D01*
X168975506Y-92820537D01*
X169085820Y-92879502D01*
X169205518Y-92915812D01*
X169330000Y-92928072D01*
X170157126Y-92928072D01*
X148553099Y-114532100D01*
X148524101Y-114555898D01*
X148500303Y-114584896D01*
X148500302Y-114584897D01*
X148429127Y-114671623D01*
X148358555Y-114803653D01*
X148315099Y-114946914D01*
X148300425Y-115095899D01*
X148304102Y-115133232D01*
X148304101Y-130398173D01*
X147997992Y-130317916D01*
X147676505Y-130298582D01*
X147357425Y-130342339D01*
X147053012Y-130447505D01*
X146879056Y-130540486D01*
X146783292Y-130804887D01*
X147739100Y-131760695D01*
X147753243Y-131746553D01*
X147932848Y-131926158D01*
X147918705Y-131940300D01*
X147932848Y-131954443D01*
X147753243Y-132134048D01*
X147739100Y-132119905D01*
X146783292Y-133075713D01*
X146864957Y-133301186D01*
X146696848Y-133413513D01*
X146469113Y-133641248D01*
X146290182Y-133909037D01*
X146166932Y-134206588D01*
X146104100Y-134522467D01*
X146104100Y-134844533D01*
X146166932Y-135160412D01*
X146290182Y-135457963D01*
X146469113Y-135725752D01*
X146696848Y-135953487D01*
X146964637Y-136132418D01*
X147122519Y-136197815D01*
X147104126Y-136220226D01*
X147033554Y-136352256D01*
X146990098Y-136495517D01*
X146975424Y-136644502D01*
X146979101Y-136681834D01*
X146979100Y-140848591D01*
X146964637Y-140854582D01*
X146696848Y-141033513D01*
X146469113Y-141261248D01*
X146290182Y-141529037D01*
X146166932Y-141826588D01*
X146104100Y-142142467D01*
X146104100Y-142464533D01*
X146166932Y-142780412D01*
X146290182Y-143077963D01*
X146469113Y-143345752D01*
X146696848Y-143573487D01*
X146848923Y-143675100D01*
X146696848Y-143776713D01*
X146469113Y-144004448D01*
X146290182Y-144272237D01*
X146166932Y-144569788D01*
X146104100Y-144885667D01*
X146104100Y-145207733D01*
X146166932Y-145523612D01*
X146290182Y-145821163D01*
X146469113Y-146088952D01*
X146696848Y-146316687D01*
X146964637Y-146495618D01*
X147262188Y-146618868D01*
X147578067Y-146681700D01*
X147900133Y-146681700D01*
X148216012Y-146618868D01*
X148513563Y-146495618D01*
X148781352Y-146316687D01*
X149009087Y-146088952D01*
X149188018Y-145821163D01*
X149194009Y-145806700D01*
X167335978Y-145806700D01*
X167373300Y-145810376D01*
X167410622Y-145806700D01*
X167410633Y-145806700D01*
X167522286Y-145795703D01*
X167665547Y-145752246D01*
X167797576Y-145681674D01*
X167913301Y-145586701D01*
X167937104Y-145557697D01*
X169868385Y-143626416D01*
X169850098Y-143686701D01*
X169839446Y-143794848D01*
X169824637Y-143800982D01*
X169556848Y-143979913D01*
X169329113Y-144207648D01*
X169150182Y-144475437D01*
X169026932Y-144772988D01*
X168964100Y-145088867D01*
X168964100Y-145410933D01*
X169026932Y-145726812D01*
X169150182Y-146024363D01*
X169329113Y-146292152D01*
X169556848Y-146519887D01*
X169824637Y-146698818D01*
X170044769Y-146790000D01*
X140688537Y-146790000D01*
X140698918Y-146774463D01*
X140822168Y-146476912D01*
X140885000Y-146161033D01*
X140885000Y-145838967D01*
X140822168Y-145523088D01*
X140698918Y-145225537D01*
X140519987Y-144957748D01*
X140292252Y-144730013D01*
X140024463Y-144551082D01*
X139726912Y-144427832D01*
X139411033Y-144365000D01*
X139088967Y-144365000D01*
X138773088Y-144427832D01*
X138475537Y-144551082D01*
X138207748Y-144730013D01*
X137980013Y-144957748D01*
X137801082Y-145225537D01*
X137677832Y-145523088D01*
X137615000Y-145838967D01*
X137615000Y-146161033D01*
X137677832Y-146476912D01*
X137801082Y-146774463D01*
X137811463Y-146790000D01*
X136183889Y-146790000D01*
X136290704Y-146570429D01*
X136372384Y-146258892D01*
X136391718Y-145937405D01*
X136347961Y-145618325D01*
X136242795Y-145313912D01*
X136149814Y-145139956D01*
X135885413Y-145044192D01*
X134929605Y-146000000D01*
X134943748Y-146014143D01*
X134764143Y-146193748D01*
X134750000Y-146179605D01*
X134735858Y-146193748D01*
X134556253Y-146014143D01*
X134570395Y-146000000D01*
X134556253Y-145985858D01*
X134735858Y-145806253D01*
X134750000Y-145820395D01*
X135705808Y-144864587D01*
X135610044Y-144600186D01*
X135320429Y-144459296D01*
X135008892Y-144377616D01*
X134687405Y-144358282D01*
X134368325Y-144402039D01*
X134063912Y-144507205D01*
X133910000Y-144589472D01*
X133910000Y-140909565D01*
X134179571Y-141040704D01*
X134491108Y-141122384D01*
X134812595Y-141141718D01*
X135131675Y-141097961D01*
X135436088Y-140992795D01*
X135610044Y-140899814D01*
X135705808Y-140635413D01*
X134750000Y-139679605D01*
X134735858Y-139693748D01*
X134556253Y-139514143D01*
X134570395Y-139500000D01*
X134556253Y-139485858D01*
X134735858Y-139306253D01*
X134750000Y-139320395D01*
X134764143Y-139306253D01*
X134943748Y-139485858D01*
X134929605Y-139500000D01*
X135885413Y-140455808D01*
X136149814Y-140360044D01*
X136290704Y-140070429D01*
X136353228Y-139831955D01*
X136532276Y-140011003D01*
X136556074Y-140040001D01*
X136671799Y-140134974D01*
X136803828Y-140205546D01*
X136947089Y-140249003D01*
X137058742Y-140260000D01*
X137058751Y-140260000D01*
X137096074Y-140263676D01*
X137133397Y-140260000D01*
X137795091Y-140260000D01*
X137801082Y-140274463D01*
X137980013Y-140542252D01*
X138207748Y-140769987D01*
X138475537Y-140948918D01*
X138773088Y-141072168D01*
X139088967Y-141135000D01*
X139411033Y-141135000D01*
X139726912Y-141072168D01*
X140024463Y-140948918D01*
X140292252Y-140769987D01*
X140519987Y-140542252D01*
X140698918Y-140274463D01*
X140822168Y-139976912D01*
X140885000Y-139661033D01*
X140885000Y-139338967D01*
X140822168Y-139023088D01*
X140698918Y-138725537D01*
X140519987Y-138457748D01*
X140292252Y-138230013D01*
X140024463Y-138051082D01*
X139726912Y-137927832D01*
X139411033Y-137865000D01*
X139088967Y-137865000D01*
X138773088Y-137927832D01*
X138475537Y-138051082D01*
X138207748Y-138230013D01*
X137980013Y-138457748D01*
X137801082Y-138725537D01*
X137795091Y-138740000D01*
X137410877Y-138740000D01*
X136054716Y-137383839D01*
X136072261Y-137378517D01*
X136338927Y-137235981D01*
X136572661Y-137044161D01*
X136764481Y-136810427D01*
X136907017Y-136543761D01*
X136994790Y-136254413D01*
X137024427Y-135953500D01*
X136994790Y-135652587D01*
X136907017Y-135363239D01*
X136764481Y-135096573D01*
X136572661Y-134862839D01*
X136354135Y-134683500D01*
X136572661Y-134504161D01*
X136764481Y-134270427D01*
X136907017Y-134003761D01*
X136994790Y-133714413D01*
X137024427Y-133413500D01*
X136994790Y-133112587D01*
X136907017Y-132823239D01*
X136764481Y-132556573D01*
X136572661Y-132322839D01*
X136354135Y-132143500D01*
X136572661Y-131964161D01*
X136764481Y-131730427D01*
X136907017Y-131463761D01*
X136994790Y-131174413D01*
X137024427Y-130873500D01*
X136994790Y-130572587D01*
X136907017Y-130283239D01*
X136764481Y-130016573D01*
X136572661Y-129782839D01*
X136354135Y-129603500D01*
X136572661Y-129424161D01*
X136764481Y-129190427D01*
X136907017Y-128923761D01*
X136994790Y-128634413D01*
X136999571Y-128585872D01*
X141421114Y-133007415D01*
X141389210Y-133112587D01*
X141359573Y-133413500D01*
X141389210Y-133714413D01*
X141476983Y-134003761D01*
X141619519Y-134270427D01*
X141774280Y-134459005D01*
X141757820Y-134463998D01*
X141647506Y-134522963D01*
X141550815Y-134602315D01*
X141471463Y-134699006D01*
X141412498Y-134809320D01*
X141376188Y-134929018D01*
X141363928Y-135053500D01*
X141363928Y-136853500D01*
X141376188Y-136977982D01*
X141412498Y-137097680D01*
X141471463Y-137207994D01*
X141550815Y-137304685D01*
X141647506Y-137384037D01*
X141757820Y-137443002D01*
X141877518Y-137479312D01*
X142002000Y-137491572D01*
X144002000Y-137491572D01*
X144126482Y-137479312D01*
X144246180Y-137443002D01*
X144356494Y-137384037D01*
X144453185Y-137304685D01*
X144532537Y-137207994D01*
X144591502Y-137097680D01*
X144627812Y-136977982D01*
X144640072Y-136853500D01*
X144640072Y-135053500D01*
X144627812Y-134929018D01*
X144591502Y-134809320D01*
X144532537Y-134699006D01*
X144453185Y-134602315D01*
X144356494Y-134522963D01*
X144246180Y-134463998D01*
X144229720Y-134459005D01*
X144384481Y-134270427D01*
X144527017Y-134003761D01*
X144614790Y-133714413D01*
X144644427Y-133413500D01*
X144614790Y-133112587D01*
X144527017Y-132823239D01*
X144384481Y-132556573D01*
X144192661Y-132322839D01*
X143974135Y-132143500D01*
X144145463Y-132002895D01*
X146097382Y-132002895D01*
X146141139Y-132321975D01*
X146246305Y-132626388D01*
X146339286Y-132800344D01*
X146603687Y-132896108D01*
X147559495Y-131940300D01*
X146603687Y-130984492D01*
X146339286Y-131080256D01*
X146198396Y-131369871D01*
X146116716Y-131681408D01*
X146097382Y-132002895D01*
X144145463Y-132002895D01*
X144192661Y-131964161D01*
X144384481Y-131730427D01*
X144450137Y-131607593D01*
X144544247Y-131579046D01*
X144676276Y-131508474D01*
X144792001Y-131413501D01*
X144815804Y-131384497D01*
X145204799Y-130995502D01*
X145233802Y-130971700D01*
X145293832Y-130898553D01*
X145328775Y-130855976D01*
X145399347Y-130723946D01*
X145399347Y-130723945D01*
X145442804Y-130580685D01*
X145453801Y-130469032D01*
X145453801Y-130469022D01*
X145457477Y-130431699D01*
X145453801Y-130394376D01*
X145453801Y-110441123D01*
X145457477Y-110403800D01*
X145453801Y-110366477D01*
X145453801Y-110366468D01*
X145442804Y-110254815D01*
X145399347Y-110111554D01*
X145328775Y-109979525D01*
X145233802Y-109863800D01*
X145204804Y-109840002D01*
X139996177Y-104631376D01*
X140002168Y-104616912D01*
X140065000Y-104301033D01*
X140065000Y-103978967D01*
X140002168Y-103663088D01*
X139878918Y-103365537D01*
X139699987Y-103097748D01*
X139472252Y-102870013D01*
X139472233Y-102870000D01*
X139472252Y-102869987D01*
X139699987Y-102642252D01*
X139878918Y-102374463D01*
X140002168Y-102076912D01*
X140065000Y-101761033D01*
X140065000Y-101438967D01*
X140002168Y-101123088D01*
X139878918Y-100825537D01*
X139699987Y-100557748D01*
X139472252Y-100330013D01*
X139204463Y-100151082D01*
X138906912Y-100027832D01*
X138591033Y-99965000D01*
X138268967Y-99965000D01*
X137953088Y-100027832D01*
X137655537Y-100151082D01*
X137387748Y-100330013D01*
X137160013Y-100557748D01*
X136981082Y-100825537D01*
X136857832Y-101123088D01*
X136795000Y-101438967D01*
X136795000Y-101761033D01*
X136857832Y-102076912D01*
X136981082Y-102374463D01*
X137160013Y-102642252D01*
X137387748Y-102869987D01*
X137387767Y-102870000D01*
X137387748Y-102870013D01*
X137160013Y-103097748D01*
X136981082Y-103365537D01*
X136857832Y-103663088D01*
X136795000Y-103978967D01*
X136795000Y-104301033D01*
X136857832Y-104616912D01*
X136981082Y-104914463D01*
X137160013Y-105182252D01*
X137387748Y-105409987D01*
X137387767Y-105410000D01*
X137387748Y-105410013D01*
X137160013Y-105637748D01*
X136981082Y-105905537D01*
X136857832Y-106203088D01*
X136795000Y-106518967D01*
X136795000Y-106841033D01*
X136857832Y-107156912D01*
X136981082Y-107454463D01*
X137160013Y-107722252D01*
X137387748Y-107949987D01*
X137387767Y-107950000D01*
X137387748Y-107950013D01*
X137160013Y-108177748D01*
X136981082Y-108445537D01*
X136857832Y-108743088D01*
X136795000Y-109058967D01*
X136795000Y-109381033D01*
X136857832Y-109696912D01*
X136981082Y-109994463D01*
X137160013Y-110262252D01*
X137387748Y-110489987D01*
X137496600Y-110562720D01*
X137474192Y-110624587D01*
X138430000Y-111580395D01*
X139385808Y-110624587D01*
X139363400Y-110562720D01*
X139472252Y-110489987D01*
X139699987Y-110262252D01*
X139878918Y-109994463D01*
X140002168Y-109696912D01*
X140065000Y-109381033D01*
X140065000Y-109058967D01*
X140002168Y-108743088D01*
X139878918Y-108445537D01*
X139699987Y-108177748D01*
X139472252Y-107950013D01*
X139472233Y-107950000D01*
X139472252Y-107949987D01*
X139699987Y-107722252D01*
X139878918Y-107454463D01*
X140002168Y-107156912D01*
X140063545Y-106848346D01*
X143933802Y-110718604D01*
X143933801Y-127045508D01*
X143926474Y-127039756D01*
X143658235Y-126903768D01*
X143368620Y-126822724D01*
X143129000Y-126958366D01*
X143129000Y-128206500D01*
X143149000Y-128206500D01*
X143149000Y-128460500D01*
X143129000Y-128460500D01*
X143129000Y-128480500D01*
X142875000Y-128480500D01*
X142875000Y-128460500D01*
X141531622Y-128460500D01*
X141410964Y-128698240D01*
X141497709Y-128951156D01*
X141645191Y-129213251D01*
X141840971Y-129441538D01*
X142038379Y-129596512D01*
X141811339Y-129782839D01*
X141619519Y-130016573D01*
X141476983Y-130283239D01*
X141389210Y-130572587D01*
X141366497Y-130803196D01*
X139768302Y-129205000D01*
X139792089Y-129205000D01*
X139972729Y-129169068D01*
X140142889Y-129098586D01*
X140296028Y-128996262D01*
X140426262Y-128866028D01*
X140528586Y-128712889D01*
X140599068Y-128542729D01*
X140635000Y-128362089D01*
X140635000Y-128177911D01*
X140599068Y-127997271D01*
X140587259Y-127968760D01*
X141410964Y-127968760D01*
X141531622Y-128206500D01*
X142875000Y-128206500D01*
X142875000Y-126958366D01*
X142635380Y-126822724D01*
X142345765Y-126903768D01*
X142077526Y-127039756D01*
X141840971Y-127225462D01*
X141645191Y-127453749D01*
X141497709Y-127715844D01*
X141410964Y-127968760D01*
X140587259Y-127968760D01*
X140528586Y-127827111D01*
X140426262Y-127673972D01*
X140296028Y-127543738D01*
X140142889Y-127441414D01*
X139972729Y-127370932D01*
X139851649Y-127346847D01*
X138598347Y-126093545D01*
X138906912Y-126032168D01*
X139204463Y-125908918D01*
X139472252Y-125729987D01*
X139699987Y-125502252D01*
X139878918Y-125234463D01*
X140002168Y-124936912D01*
X140065000Y-124621033D01*
X140065000Y-124298967D01*
X140002168Y-123983088D01*
X139878918Y-123685537D01*
X139699987Y-123417748D01*
X139472252Y-123190013D01*
X139472233Y-123190000D01*
X139472252Y-123189987D01*
X139699987Y-122962252D01*
X139878918Y-122694463D01*
X140002168Y-122396912D01*
X140065000Y-122081033D01*
X140065000Y-121758967D01*
X140002168Y-121443088D01*
X139878918Y-121145537D01*
X139699987Y-120877748D01*
X139472252Y-120650013D01*
X139472233Y-120650000D01*
X139472252Y-120649987D01*
X139699987Y-120422252D01*
X139878918Y-120154463D01*
X140002168Y-119856912D01*
X140065000Y-119541033D01*
X140065000Y-119218967D01*
X140002168Y-118903088D01*
X139878918Y-118605537D01*
X139699987Y-118337748D01*
X139472252Y-118110013D01*
X139472233Y-118110000D01*
X139472252Y-118109987D01*
X139699987Y-117882252D01*
X139878918Y-117614463D01*
X140002168Y-117316912D01*
X140065000Y-117001033D01*
X140065000Y-116678967D01*
X140002168Y-116363088D01*
X139878918Y-116065537D01*
X139699987Y-115797748D01*
X139472252Y-115570013D01*
X139472233Y-115570000D01*
X139472252Y-115569987D01*
X139699987Y-115342252D01*
X139878918Y-115074463D01*
X140002168Y-114776912D01*
X140065000Y-114461033D01*
X140065000Y-114138967D01*
X140002168Y-113823088D01*
X139878918Y-113525537D01*
X139699987Y-113257748D01*
X139472252Y-113030013D01*
X139363400Y-112957280D01*
X139385808Y-112895413D01*
X138430000Y-111939605D01*
X137474192Y-112895413D01*
X137496600Y-112957280D01*
X137387748Y-113030013D01*
X137160013Y-113257748D01*
X136981082Y-113525537D01*
X136857832Y-113823088D01*
X136795000Y-114138967D01*
X136795000Y-114461033D01*
X136857832Y-114776912D01*
X136863823Y-114791376D01*
X136594001Y-115061198D01*
X136564998Y-115085000D01*
X136509870Y-115152175D01*
X136491880Y-115174095D01*
X136402385Y-115024869D01*
X136213414Y-114816481D01*
X135987420Y-114648963D01*
X135733087Y-114528754D01*
X135599039Y-114488096D01*
X135377000Y-114610085D01*
X135377000Y-115753000D01*
X135397000Y-115753000D01*
X135397000Y-116007000D01*
X135377000Y-116007000D01*
X135377000Y-117149915D01*
X135599039Y-117271904D01*
X135733087Y-117231246D01*
X135987420Y-117111037D01*
X136213414Y-116943519D01*
X136344999Y-116798413D01*
X136345000Y-122565604D01*
X136164759Y-122385363D01*
X135929727Y-122228320D01*
X135668574Y-122120147D01*
X135391335Y-122065000D01*
X135108665Y-122065000D01*
X134831426Y-122120147D01*
X134570273Y-122228320D01*
X134360010Y-122368813D01*
X134360010Y-116997945D01*
X134512580Y-117111037D01*
X134766913Y-117231246D01*
X134900961Y-117271904D01*
X135123000Y-117149915D01*
X135123000Y-116007000D01*
X135103000Y-116007000D01*
X135103000Y-115753000D01*
X135123000Y-115753000D01*
X135123000Y-114610085D01*
X134900961Y-114488096D01*
X134766913Y-114528754D01*
X134512580Y-114648963D01*
X134360010Y-114762055D01*
X134360010Y-111822595D01*
X136788282Y-111822595D01*
X136832039Y-112141675D01*
X136937205Y-112446088D01*
X137030186Y-112620044D01*
X137294587Y-112715808D01*
X138250395Y-111760000D01*
X138609605Y-111760000D01*
X139565413Y-112715808D01*
X139829814Y-112620044D01*
X139970704Y-112330429D01*
X140052384Y-112018892D01*
X140071718Y-111697405D01*
X140027961Y-111378325D01*
X139922795Y-111073912D01*
X139829814Y-110899956D01*
X139565413Y-110804192D01*
X138609605Y-111760000D01*
X138250395Y-111760000D01*
X137294587Y-110804192D01*
X137030186Y-110899956D01*
X136889296Y-111189571D01*
X136807616Y-111501108D01*
X136788282Y-111822595D01*
X134360010Y-111822595D01*
X134360010Y-110554791D01*
X134771649Y-110143153D01*
X134892729Y-110119068D01*
X135062889Y-110048586D01*
X135216028Y-109946262D01*
X135346262Y-109816028D01*
X135448586Y-109662889D01*
X135519068Y-109492729D01*
X135555000Y-109312089D01*
X135555000Y-109127911D01*
X135519068Y-108947271D01*
X135448586Y-108777111D01*
X135346262Y-108623972D01*
X135216028Y-108493738D01*
X135062889Y-108391414D01*
X134892729Y-108320932D01*
X134712089Y-108285000D01*
X134527911Y-108285000D01*
X134347271Y-108320932D01*
X134177111Y-108391414D01*
X134023972Y-108493738D01*
X133910000Y-108607710D01*
X133910000Y-96909565D01*
X134179571Y-97040704D01*
X134491108Y-97122384D01*
X134812595Y-97141718D01*
X135131675Y-97097961D01*
X135436088Y-96992795D01*
X135610044Y-96899814D01*
X135705808Y-96635413D01*
X134750000Y-95679605D01*
X134735858Y-95693748D01*
X134556253Y-95514143D01*
X134570395Y-95500000D01*
X134929605Y-95500000D01*
X135885413Y-96455808D01*
X136149814Y-96360044D01*
X136290704Y-96070429D01*
X136372384Y-95758892D01*
X136391718Y-95437405D01*
X136378219Y-95338967D01*
X137615000Y-95338967D01*
X137615000Y-95661033D01*
X137677832Y-95976912D01*
X137801082Y-96274463D01*
X137980013Y-96542252D01*
X138207748Y-96769987D01*
X138475537Y-96948918D01*
X138773088Y-97072168D01*
X139088967Y-97135000D01*
X139411033Y-97135000D01*
X139726912Y-97072168D01*
X140024463Y-96948918D01*
X140292252Y-96769987D01*
X140519987Y-96542252D01*
X140698918Y-96274463D01*
X140822168Y-95976912D01*
X140885000Y-95661033D01*
X140885000Y-95338967D01*
X140835273Y-95088967D01*
X143145000Y-95088967D01*
X143145000Y-95411033D01*
X143207832Y-95726912D01*
X143331082Y-96024463D01*
X143510013Y-96292252D01*
X143737748Y-96519987D01*
X144005537Y-96698918D01*
X144303088Y-96822168D01*
X144618967Y-96885000D01*
X144941033Y-96885000D01*
X145256912Y-96822168D01*
X145554463Y-96698918D01*
X145822252Y-96519987D01*
X146049987Y-96292252D01*
X146050000Y-96292233D01*
X146050013Y-96292252D01*
X146277748Y-96519987D01*
X146545537Y-96698918D01*
X146843088Y-96822168D01*
X147158967Y-96885000D01*
X147481033Y-96885000D01*
X147796912Y-96822168D01*
X148094463Y-96698918D01*
X148362252Y-96519987D01*
X148589987Y-96292252D01*
X148768918Y-96024463D01*
X148892168Y-95726912D01*
X148955000Y-95411033D01*
X148955000Y-95088967D01*
X148892168Y-94773088D01*
X148768918Y-94475537D01*
X148589987Y-94207748D01*
X148362252Y-93980013D01*
X148094463Y-93801082D01*
X147796912Y-93677832D01*
X147481033Y-93615000D01*
X147158967Y-93615000D01*
X146843088Y-93677832D01*
X146545537Y-93801082D01*
X146277748Y-93980013D01*
X146050013Y-94207748D01*
X146050000Y-94207767D01*
X146049987Y-94207748D01*
X145822252Y-93980013D01*
X145554463Y-93801082D01*
X145256912Y-93677832D01*
X144941033Y-93615000D01*
X144618967Y-93615000D01*
X144303088Y-93677832D01*
X144005537Y-93801082D01*
X143737748Y-93980013D01*
X143510013Y-94207748D01*
X143331082Y-94475537D01*
X143207832Y-94773088D01*
X143145000Y-95088967D01*
X140835273Y-95088967D01*
X140822168Y-95023088D01*
X140698918Y-94725537D01*
X140519987Y-94457748D01*
X140292252Y-94230013D01*
X140024463Y-94051082D01*
X139726912Y-93927832D01*
X139411033Y-93865000D01*
X139088967Y-93865000D01*
X138773088Y-93927832D01*
X138475537Y-94051082D01*
X138207748Y-94230013D01*
X137980013Y-94457748D01*
X137801082Y-94725537D01*
X137677832Y-95023088D01*
X137615000Y-95338967D01*
X136378219Y-95338967D01*
X136347961Y-95118325D01*
X136242795Y-94813912D01*
X136149814Y-94639956D01*
X135885413Y-94544192D01*
X134929605Y-95500000D01*
X134570395Y-95500000D01*
X134556253Y-95485858D01*
X134735858Y-95306253D01*
X134750000Y-95320395D01*
X135705808Y-94364587D01*
X135610044Y-94100186D01*
X135320429Y-93959296D01*
X135008892Y-93877616D01*
X134687405Y-93858282D01*
X134368325Y-93902039D01*
X134063912Y-94007205D01*
X133910000Y-94089472D01*
X133910000Y-90409565D01*
X134179571Y-90540704D01*
X134491108Y-90622384D01*
X134812595Y-90641718D01*
X135131675Y-90597961D01*
X135436088Y-90492795D01*
X135610044Y-90399814D01*
X135705808Y-90135413D01*
X134750000Y-89179605D01*
X134735858Y-89193748D01*
X134556253Y-89014143D01*
X134570395Y-89000000D01*
X134556253Y-88985858D01*
X134735858Y-88806253D01*
X134750000Y-88820395D01*
X134764143Y-88806253D01*
X134943748Y-88985858D01*
X134929605Y-89000000D01*
X135885413Y-89955808D01*
X136149814Y-89860044D01*
X136290704Y-89570429D01*
X136372384Y-89258892D01*
X136391718Y-88937405D01*
X136347961Y-88618325D01*
X136242795Y-88313912D01*
X136187253Y-88210000D01*
X137811463Y-88210000D01*
X137801082Y-88225537D01*
G37*
X137801082Y-88225537D02*
X137677832Y-88523088D01*
X137615000Y-88838967D01*
X137615000Y-89161033D01*
X137677832Y-89476912D01*
X137801082Y-89774463D01*
X137980013Y-90042252D01*
X138207748Y-90269987D01*
X138475537Y-90448918D01*
X138773088Y-90572168D01*
X139088967Y-90635000D01*
X139411033Y-90635000D01*
X139726912Y-90572168D01*
X140024463Y-90448918D01*
X140292252Y-90269987D01*
X140519987Y-90042252D01*
X140698918Y-89774463D01*
X140822168Y-89476912D01*
X140885000Y-89161033D01*
X140885000Y-88838967D01*
X140822168Y-88523088D01*
X140698918Y-88225537D01*
X140688537Y-88210000D01*
X175816111Y-88210000D01*
X175709296Y-88429571D01*
X175627616Y-88741108D01*
X175608282Y-89062595D01*
X175652039Y-89381675D01*
X175757205Y-89686088D01*
X175850186Y-89860044D01*
X176114587Y-89955808D01*
X177070395Y-89000000D01*
X177056253Y-88985858D01*
X177235858Y-88806253D01*
X177250000Y-88820395D01*
X177264143Y-88806253D01*
X177443748Y-88985858D01*
X177429605Y-89000000D01*
X178385413Y-89955808D01*
X178649814Y-89860044D01*
X178790704Y-89570429D01*
X178872384Y-89258892D01*
X178891718Y-88937405D01*
X178847961Y-88618325D01*
X178742795Y-88313912D01*
X178687253Y-88210000D01*
X180311463Y-88210000D01*
X180301082Y-88225537D01*
X180177832Y-88523088D01*
X180115000Y-88838967D01*
X180115000Y-89161033D01*
X180177832Y-89476912D01*
X180301082Y-89774463D01*
X180480013Y-90042252D01*
X180707748Y-90269987D01*
X180975537Y-90448918D01*
X181273088Y-90572168D01*
X181588967Y-90635000D01*
X181911033Y-90635000D01*
X182226912Y-90572168D01*
X182490001Y-90463193D01*
X182490001Y-94036807D01*
X182226912Y-93927832D01*
X181911033Y-93865000D01*
X181588967Y-93865000D01*
X181273088Y-93927832D01*
X180975537Y-94051082D01*
X180707748Y-94230013D01*
X180480013Y-94457748D01*
X180301082Y-94725537D01*
X180177832Y-95023088D01*
X180115000Y-95338967D01*
X180115000Y-95661033D01*
X180177832Y-95976912D01*
X180301082Y-96274463D01*
X180480013Y-96542252D01*
X180707748Y-96769987D01*
X180975537Y-96948918D01*
X181273088Y-97072168D01*
X181588967Y-97135000D01*
X181911033Y-97135000D01*
X182226912Y-97072168D01*
X182490001Y-96963193D01*
X182490001Y-110295199D01*
X182416209Y-110221408D01*
X182460000Y-110001260D01*
X182460000Y-109708740D01*
X182402932Y-109421842D01*
X182290990Y-109151589D01*
X182128475Y-108908368D01*
X181996620Y-108776513D01*
X182069180Y-108754502D01*
X182179494Y-108695537D01*
X182276185Y-108616185D01*
X182355537Y-108519494D01*
X182414502Y-108409180D01*
X182450812Y-108289482D01*
X182463072Y-108165000D01*
X182463072Y-106465000D01*
X182450812Y-106340518D01*
X182414502Y-106220820D01*
X182355537Y-106110506D01*
X182276185Y-106013815D01*
X182179494Y-105934463D01*
X182069180Y-105875498D01*
X181949482Y-105839188D01*
X181825000Y-105826928D01*
X180125000Y-105826928D01*
X180000518Y-105839188D01*
X179880820Y-105875498D01*
X179770506Y-105934463D01*
X179673815Y-106013815D01*
X179594463Y-106110506D01*
X179535498Y-106220820D01*
X179499188Y-106340518D01*
X179486928Y-106465000D01*
X179486928Y-106660674D01*
X179450724Y-106680026D01*
X179334999Y-106774999D01*
X179311201Y-106803998D01*
X178613999Y-107501200D01*
X178585001Y-107524998D01*
X178561203Y-107553996D01*
X178561202Y-107553997D01*
X178490027Y-107640723D01*
X178419455Y-107772753D01*
X178375999Y-107916014D01*
X178361325Y-108064999D01*
X178365002Y-108102332D01*
X178365001Y-124007178D01*
X178189685Y-123831862D01*
X177627082Y-123455943D01*
X177001952Y-123197006D01*
X176338318Y-123065000D01*
X175661682Y-123065000D01*
X174998048Y-123197006D01*
X174372918Y-123455943D01*
X173810315Y-123831862D01*
X173331862Y-124310315D01*
X172955943Y-124872918D01*
X172697006Y-125498048D01*
X172565000Y-126161682D01*
X172565000Y-126838318D01*
X172697006Y-127501952D01*
X172955943Y-128127082D01*
X173331862Y-128689685D01*
X173810315Y-129168138D01*
X174372918Y-129544057D01*
X174998048Y-129802994D01*
X175661682Y-129935000D01*
X176115201Y-129935000D01*
X175073101Y-130977100D01*
X172054009Y-130977100D01*
X172048018Y-130962637D01*
X171869087Y-130694848D01*
X171641352Y-130467113D01*
X171373563Y-130288182D01*
X171076012Y-130164932D01*
X170760133Y-130102100D01*
X170438067Y-130102100D01*
X170122188Y-130164932D01*
X169824637Y-130288182D01*
X169556848Y-130467113D01*
X169329113Y-130694848D01*
X169150182Y-130962637D01*
X169026932Y-131260188D01*
X168964100Y-131576067D01*
X168964100Y-131898133D01*
X169026932Y-132214012D01*
X169150182Y-132511563D01*
X169329113Y-132779352D01*
X169556848Y-133007087D01*
X169824637Y-133186018D01*
X170122188Y-133309268D01*
X170438067Y-133372100D01*
X170760133Y-133372100D01*
X171076012Y-133309268D01*
X171373563Y-133186018D01*
X171641352Y-133007087D01*
X171869087Y-132779352D01*
X172048018Y-132511563D01*
X172054009Y-132497100D01*
X175350580Y-132497100D01*
X175387902Y-132500776D01*
X175425224Y-132497100D01*
X175425235Y-132497100D01*
X175536888Y-132486103D01*
X175680149Y-132442646D01*
X175812178Y-132372074D01*
X175927903Y-132277101D01*
X175951706Y-132248097D01*
X179314999Y-128884805D01*
X179314999Y-132030199D01*
X167058499Y-144286700D01*
X149194009Y-144286700D01*
X149188018Y-144272237D01*
X149009087Y-144004448D01*
X148781352Y-143776713D01*
X148629277Y-143675100D01*
X148781352Y-143573487D01*
X149009087Y-143345752D01*
X149188018Y-143077963D01*
X149311268Y-142780412D01*
X149374100Y-142464533D01*
X149374100Y-142142467D01*
X149311268Y-141826588D01*
X149188018Y-141529037D01*
X149009087Y-141261248D01*
X148781352Y-141033513D01*
X148513563Y-140854582D01*
X148499100Y-140848591D01*
X148499100Y-136959303D01*
X159296721Y-126161682D01*
X163815000Y-126161682D01*
X163815000Y-126838318D01*
X163947006Y-127501952D01*
X164205943Y-128127082D01*
X164581862Y-128689685D01*
X165060315Y-129168138D01*
X165622918Y-129544057D01*
X166248048Y-129802994D01*
X166911682Y-129935000D01*
X167588318Y-129935000D01*
X168251952Y-129802994D01*
X168877082Y-129544057D01*
X169439685Y-129168138D01*
X169918138Y-128689685D01*
X170294057Y-128127082D01*
X170552994Y-127501952D01*
X170685000Y-126838318D01*
X170685000Y-126161682D01*
X170552994Y-125498048D01*
X170294057Y-124872918D01*
X169918138Y-124310315D01*
X169439685Y-123831862D01*
X168877082Y-123455943D01*
X168251952Y-123197006D01*
X167588318Y-123065000D01*
X166911682Y-123065000D01*
X166248048Y-123197006D01*
X165622918Y-123455943D01*
X165060315Y-123831862D01*
X164581862Y-124310315D01*
X164205943Y-124872918D01*
X163947006Y-125498048D01*
X163815000Y-126161682D01*
X159296721Y-126161682D01*
X163295995Y-122162408D01*
X171103000Y-122162408D01*
X171103000Y-122437592D01*
X171156686Y-122707490D01*
X171261995Y-122961727D01*
X171414880Y-123190535D01*
X171609465Y-123385120D01*
X171838273Y-123538005D01*
X172092510Y-123643314D01*
X172362408Y-123697000D01*
X172637592Y-123697000D01*
X172907490Y-123643314D01*
X173161727Y-123538005D01*
X173390535Y-123385120D01*
X173585120Y-123190535D01*
X173738005Y-122961727D01*
X173843314Y-122707490D01*
X173897000Y-122437592D01*
X173897000Y-122162408D01*
X173843314Y-121892510D01*
X173738005Y-121638273D01*
X173585120Y-121409465D01*
X173390535Y-121214880D01*
X173161727Y-121061995D01*
X172907490Y-120956686D01*
X172637592Y-120903000D01*
X172362408Y-120903000D01*
X172092510Y-120956686D01*
X171838273Y-121061995D01*
X171609465Y-121214880D01*
X171414880Y-121409465D01*
X171261995Y-121638273D01*
X171156686Y-121892510D01*
X171103000Y-122162408D01*
X163295995Y-122162408D01*
X174406005Y-111052399D01*
X174435002Y-111028602D01*
X174467509Y-110988992D01*
X174529975Y-110912878D01*
X174600547Y-110780848D01*
X174623555Y-110704998D01*
X174644004Y-110637587D01*
X174655001Y-110525934D01*
X174655001Y-110525924D01*
X174658677Y-110488601D01*
X174655001Y-110451278D01*
X174655001Y-96635413D01*
X176294192Y-96635413D01*
X176389956Y-96899814D01*
X176679571Y-97040704D01*
X176991108Y-97122384D01*
X177312595Y-97141718D01*
X177631675Y-97097961D01*
X177936088Y-96992795D01*
X178110044Y-96899814D01*
X178205808Y-96635413D01*
X177250000Y-95679605D01*
X176294192Y-96635413D01*
X174655001Y-96635413D01*
X174655001Y-95562595D01*
X175608282Y-95562595D01*
X175652039Y-95881675D01*
X175757205Y-96186088D01*
X175850186Y-96360044D01*
X176114587Y-96455808D01*
X177070395Y-95500000D01*
X177429605Y-95500000D01*
X178385413Y-96455808D01*
X178649814Y-96360044D01*
X178790704Y-96070429D01*
X178872384Y-95758892D01*
X178891718Y-95437405D01*
X178847961Y-95118325D01*
X178742795Y-94813912D01*
X178649814Y-94639956D01*
X178385413Y-94544192D01*
X177429605Y-95500000D01*
X177070395Y-95500000D01*
X176114587Y-94544192D01*
X175850186Y-94639956D01*
X175709296Y-94929571D01*
X175627616Y-95241108D01*
X175608282Y-95562595D01*
X174655001Y-95562595D01*
X174655001Y-94364587D01*
X176294192Y-94364587D01*
X177250000Y-95320395D01*
X178205808Y-94364587D01*
X178110044Y-94100186D01*
X177820429Y-93959296D01*
X177508892Y-93877616D01*
X177187405Y-93858282D01*
X176868325Y-93902039D01*
X176563912Y-94007205D01*
X176389956Y-94100186D01*
X176294192Y-94364587D01*
X174655001Y-94364587D01*
X174655001Y-90913321D01*
X174658677Y-90875998D01*
X174655001Y-90838675D01*
X174655001Y-90838666D01*
X174644004Y-90727013D01*
X174600547Y-90583752D01*
X174529975Y-90451723D01*
X174499004Y-90413985D01*
X174458800Y-90364995D01*
X174458796Y-90364991D01*
X174435002Y-90335998D01*
X174406009Y-90312204D01*
X174229218Y-90135413D01*
X176294192Y-90135413D01*
X176389956Y-90399814D01*
X176679571Y-90540704D01*
X176991108Y-90622384D01*
X177312595Y-90641718D01*
X177631675Y-90597961D01*
X177936088Y-90492795D01*
X178110044Y-90399814D01*
X178205808Y-90135413D01*
X177250000Y-89179605D01*
X176294192Y-90135413D01*
X174229218Y-90135413D01*
X173847804Y-89754001D01*
X173824002Y-89724998D01*
X173708277Y-89630025D01*
X173576248Y-89559453D01*
X173432987Y-89515996D01*
X173321334Y-89504999D01*
X173321323Y-89504999D01*
X173284001Y-89501323D01*
X173246679Y-89504999D01*
X170292323Y-89504999D01*
X170255000Y-89501323D01*
X170217678Y-89504999D01*
X170217668Y-89504999D01*
X170106015Y-89515996D01*
X169962754Y-89559453D01*
X169830725Y-89630025D01*
X169715000Y-89724998D01*
X169691200Y-89753998D01*
X169669000Y-89776198D01*
X169639999Y-89799999D01*
X169590722Y-89860044D01*
X169545026Y-89915724D01*
X169525674Y-89951928D01*
X169330000Y-89951928D01*
X169205518Y-89964188D01*
X169085820Y-90000498D01*
X168975506Y-90059463D01*
X168878815Y-90138815D01*
X168799463Y-90235506D01*
X168740498Y-90345820D01*
X168704188Y-90465518D01*
X168691928Y-90590000D01*
X168691928Y-92290000D01*
X168704188Y-92414482D01*
X168740498Y-92534180D01*
X168799463Y-92644494D01*
X168878815Y-92741185D01*
X168975506Y-92820537D01*
X169085820Y-92879502D01*
X169205518Y-92915812D01*
X169330000Y-92928072D01*
X170157126Y-92928072D01*
X148553099Y-114532100D01*
X148524101Y-114555898D01*
X148500303Y-114584896D01*
X148500302Y-114584897D01*
X148429127Y-114671623D01*
X148358555Y-114803653D01*
X148315099Y-114946914D01*
X148300425Y-115095899D01*
X148304102Y-115133232D01*
X148304101Y-130398173D01*
X147997992Y-130317916D01*
X147676505Y-130298582D01*
X147357425Y-130342339D01*
X147053012Y-130447505D01*
X146879056Y-130540486D01*
X146783292Y-130804887D01*
X147739100Y-131760695D01*
X147753243Y-131746553D01*
X147932848Y-131926158D01*
X147918705Y-131940300D01*
X147932848Y-131954443D01*
X147753243Y-132134048D01*
X147739100Y-132119905D01*
X146783292Y-133075713D01*
X146864957Y-133301186D01*
X146696848Y-133413513D01*
X146469113Y-133641248D01*
X146290182Y-133909037D01*
X146166932Y-134206588D01*
X146104100Y-134522467D01*
X146104100Y-134844533D01*
X146166932Y-135160412D01*
X146290182Y-135457963D01*
X146469113Y-135725752D01*
X146696848Y-135953487D01*
X146964637Y-136132418D01*
X147122519Y-136197815D01*
X147104126Y-136220226D01*
X147033554Y-136352256D01*
X146990098Y-136495517D01*
X146975424Y-136644502D01*
X146979101Y-136681834D01*
X146979100Y-140848591D01*
X146964637Y-140854582D01*
X146696848Y-141033513D01*
X146469113Y-141261248D01*
X146290182Y-141529037D01*
X146166932Y-141826588D01*
X146104100Y-142142467D01*
X146104100Y-142464533D01*
X146166932Y-142780412D01*
X146290182Y-143077963D01*
X146469113Y-143345752D01*
X146696848Y-143573487D01*
X146848923Y-143675100D01*
X146696848Y-143776713D01*
X146469113Y-144004448D01*
X146290182Y-144272237D01*
X146166932Y-144569788D01*
X146104100Y-144885667D01*
X146104100Y-145207733D01*
X146166932Y-145523612D01*
X146290182Y-145821163D01*
X146469113Y-146088952D01*
X146696848Y-146316687D01*
X146964637Y-146495618D01*
X147262188Y-146618868D01*
X147578067Y-146681700D01*
X147900133Y-146681700D01*
X148216012Y-146618868D01*
X148513563Y-146495618D01*
X148781352Y-146316687D01*
X149009087Y-146088952D01*
X149188018Y-145821163D01*
X149194009Y-145806700D01*
X167335978Y-145806700D01*
X167373300Y-145810376D01*
X167410622Y-145806700D01*
X167410633Y-145806700D01*
X167522286Y-145795703D01*
X167665547Y-145752246D01*
X167797576Y-145681674D01*
X167913301Y-145586701D01*
X167937104Y-145557697D01*
X169868385Y-143626416D01*
X169850098Y-143686701D01*
X169839446Y-143794848D01*
X169824637Y-143800982D01*
X169556848Y-143979913D01*
X169329113Y-144207648D01*
X169150182Y-144475437D01*
X169026932Y-144772988D01*
X168964100Y-145088867D01*
X168964100Y-145410933D01*
X169026932Y-145726812D01*
X169150182Y-146024363D01*
X169329113Y-146292152D01*
X169556848Y-146519887D01*
X169824637Y-146698818D01*
X170044769Y-146790000D01*
X140688537Y-146790000D01*
X140698918Y-146774463D01*
X140822168Y-146476912D01*
X140885000Y-146161033D01*
X140885000Y-145838967D01*
X140822168Y-145523088D01*
X140698918Y-145225537D01*
X140519987Y-144957748D01*
X140292252Y-144730013D01*
X140024463Y-144551082D01*
X139726912Y-144427832D01*
X139411033Y-144365000D01*
X139088967Y-144365000D01*
X138773088Y-144427832D01*
X138475537Y-144551082D01*
X138207748Y-144730013D01*
X137980013Y-144957748D01*
X137801082Y-145225537D01*
X137677832Y-145523088D01*
X137615000Y-145838967D01*
X137615000Y-146161033D01*
X137677832Y-146476912D01*
X137801082Y-146774463D01*
X137811463Y-146790000D01*
X136183889Y-146790000D01*
X136290704Y-146570429D01*
X136372384Y-146258892D01*
X136391718Y-145937405D01*
X136347961Y-145618325D01*
X136242795Y-145313912D01*
X136149814Y-145139956D01*
X135885413Y-145044192D01*
X134929605Y-146000000D01*
X134943748Y-146014143D01*
X134764143Y-146193748D01*
X134750000Y-146179605D01*
X134735858Y-146193748D01*
X134556253Y-146014143D01*
X134570395Y-146000000D01*
X134556253Y-145985858D01*
X134735858Y-145806253D01*
X134750000Y-145820395D01*
X135705808Y-144864587D01*
X135610044Y-144600186D01*
X135320429Y-144459296D01*
X135008892Y-144377616D01*
X134687405Y-144358282D01*
X134368325Y-144402039D01*
X134063912Y-144507205D01*
X133910000Y-144589472D01*
X133910000Y-140909565D01*
X134179571Y-141040704D01*
X134491108Y-141122384D01*
X134812595Y-141141718D01*
X135131675Y-141097961D01*
X135436088Y-140992795D01*
X135610044Y-140899814D01*
X135705808Y-140635413D01*
X134750000Y-139679605D01*
X134735858Y-139693748D01*
X134556253Y-139514143D01*
X134570395Y-139500000D01*
X134556253Y-139485858D01*
X134735858Y-139306253D01*
X134750000Y-139320395D01*
X134764143Y-139306253D01*
X134943748Y-139485858D01*
X134929605Y-139500000D01*
X135885413Y-140455808D01*
X136149814Y-140360044D01*
X136290704Y-140070429D01*
X136353228Y-139831955D01*
X136532276Y-140011003D01*
X136556074Y-140040001D01*
X136671799Y-140134974D01*
X136803828Y-140205546D01*
X136947089Y-140249003D01*
X137058742Y-140260000D01*
X137058751Y-140260000D01*
X137096074Y-140263676D01*
X137133397Y-140260000D01*
X137795091Y-140260000D01*
X137801082Y-140274463D01*
X137980013Y-140542252D01*
X138207748Y-140769987D01*
X138475537Y-140948918D01*
X138773088Y-141072168D01*
X139088967Y-141135000D01*
X139411033Y-141135000D01*
X139726912Y-141072168D01*
X140024463Y-140948918D01*
X140292252Y-140769987D01*
X140519987Y-140542252D01*
X140698918Y-140274463D01*
X140822168Y-139976912D01*
X140885000Y-139661033D01*
X140885000Y-139338967D01*
X140822168Y-139023088D01*
X140698918Y-138725537D01*
X140519987Y-138457748D01*
X140292252Y-138230013D01*
X140024463Y-138051082D01*
X139726912Y-137927832D01*
X139411033Y-137865000D01*
X139088967Y-137865000D01*
X138773088Y-137927832D01*
X138475537Y-138051082D01*
X138207748Y-138230013D01*
X137980013Y-138457748D01*
X137801082Y-138725537D01*
X137795091Y-138740000D01*
X137410877Y-138740000D01*
X136054716Y-137383839D01*
X136072261Y-137378517D01*
X136338927Y-137235981D01*
X136572661Y-137044161D01*
X136764481Y-136810427D01*
X136907017Y-136543761D01*
X136994790Y-136254413D01*
X137024427Y-135953500D01*
X136994790Y-135652587D01*
X136907017Y-135363239D01*
X136764481Y-135096573D01*
X136572661Y-134862839D01*
X136354135Y-134683500D01*
X136572661Y-134504161D01*
X136764481Y-134270427D01*
X136907017Y-134003761D01*
X136994790Y-133714413D01*
X137024427Y-133413500D01*
X136994790Y-133112587D01*
X136907017Y-132823239D01*
X136764481Y-132556573D01*
X136572661Y-132322839D01*
X136354135Y-132143500D01*
X136572661Y-131964161D01*
X136764481Y-131730427D01*
X136907017Y-131463761D01*
X136994790Y-131174413D01*
X137024427Y-130873500D01*
X136994790Y-130572587D01*
X136907017Y-130283239D01*
X136764481Y-130016573D01*
X136572661Y-129782839D01*
X136354135Y-129603500D01*
X136572661Y-129424161D01*
X136764481Y-129190427D01*
X136907017Y-128923761D01*
X136994790Y-128634413D01*
X136999571Y-128585872D01*
X141421114Y-133007415D01*
X141389210Y-133112587D01*
X141359573Y-133413500D01*
X141389210Y-133714413D01*
X141476983Y-134003761D01*
X141619519Y-134270427D01*
X141774280Y-134459005D01*
X141757820Y-134463998D01*
X141647506Y-134522963D01*
X141550815Y-134602315D01*
X141471463Y-134699006D01*
X141412498Y-134809320D01*
X141376188Y-134929018D01*
X141363928Y-135053500D01*
X141363928Y-136853500D01*
X141376188Y-136977982D01*
X141412498Y-137097680D01*
X141471463Y-137207994D01*
X141550815Y-137304685D01*
X141647506Y-137384037D01*
X141757820Y-137443002D01*
X141877518Y-137479312D01*
X142002000Y-137491572D01*
X144002000Y-137491572D01*
X144126482Y-137479312D01*
X144246180Y-137443002D01*
X144356494Y-137384037D01*
X144453185Y-137304685D01*
X144532537Y-137207994D01*
X144591502Y-137097680D01*
X144627812Y-136977982D01*
X144640072Y-136853500D01*
X144640072Y-135053500D01*
X144627812Y-134929018D01*
X144591502Y-134809320D01*
X144532537Y-134699006D01*
X144453185Y-134602315D01*
X144356494Y-134522963D01*
X144246180Y-134463998D01*
X144229720Y-134459005D01*
X144384481Y-134270427D01*
X144527017Y-134003761D01*
X144614790Y-133714413D01*
X144644427Y-133413500D01*
X144614790Y-133112587D01*
X144527017Y-132823239D01*
X144384481Y-132556573D01*
X144192661Y-132322839D01*
X143974135Y-132143500D01*
X144145463Y-132002895D01*
X146097382Y-132002895D01*
X146141139Y-132321975D01*
X146246305Y-132626388D01*
X146339286Y-132800344D01*
X146603687Y-132896108D01*
X147559495Y-131940300D01*
X146603687Y-130984492D01*
X146339286Y-131080256D01*
X146198396Y-131369871D01*
X146116716Y-131681408D01*
X146097382Y-132002895D01*
X144145463Y-132002895D01*
X144192661Y-131964161D01*
X144384481Y-131730427D01*
X144450137Y-131607593D01*
X144544247Y-131579046D01*
X144676276Y-131508474D01*
X144792001Y-131413501D01*
X144815804Y-131384497D01*
X145204799Y-130995502D01*
X145233802Y-130971700D01*
X145293832Y-130898553D01*
X145328775Y-130855976D01*
X145399347Y-130723946D01*
X145399347Y-130723945D01*
X145442804Y-130580685D01*
X145453801Y-130469032D01*
X145453801Y-130469022D01*
X145457477Y-130431699D01*
X145453801Y-130394376D01*
X145453801Y-110441123D01*
X145457477Y-110403800D01*
X145453801Y-110366477D01*
X145453801Y-110366468D01*
X145442804Y-110254815D01*
X145399347Y-110111554D01*
X145328775Y-109979525D01*
X145233802Y-109863800D01*
X145204804Y-109840002D01*
X139996177Y-104631376D01*
X140002168Y-104616912D01*
X140065000Y-104301033D01*
X140065000Y-103978967D01*
X140002168Y-103663088D01*
X139878918Y-103365537D01*
X139699987Y-103097748D01*
X139472252Y-102870013D01*
X139472233Y-102870000D01*
X139472252Y-102869987D01*
X139699987Y-102642252D01*
X139878918Y-102374463D01*
X140002168Y-102076912D01*
X140065000Y-101761033D01*
X140065000Y-101438967D01*
X140002168Y-101123088D01*
X139878918Y-100825537D01*
X139699987Y-100557748D01*
X139472252Y-100330013D01*
X139204463Y-100151082D01*
X138906912Y-100027832D01*
X138591033Y-99965000D01*
X138268967Y-99965000D01*
X137953088Y-100027832D01*
X137655537Y-100151082D01*
X137387748Y-100330013D01*
X137160013Y-100557748D01*
X136981082Y-100825537D01*
X136857832Y-101123088D01*
X136795000Y-101438967D01*
X136795000Y-101761033D01*
X136857832Y-102076912D01*
X136981082Y-102374463D01*
X137160013Y-102642252D01*
X137387748Y-102869987D01*
X137387767Y-102870000D01*
X137387748Y-102870013D01*
X137160013Y-103097748D01*
X136981082Y-103365537D01*
X136857832Y-103663088D01*
X136795000Y-103978967D01*
X136795000Y-104301033D01*
X136857832Y-104616912D01*
X136981082Y-104914463D01*
X137160013Y-105182252D01*
X137387748Y-105409987D01*
X137387767Y-105410000D01*
X137387748Y-105410013D01*
X137160013Y-105637748D01*
X136981082Y-105905537D01*
X136857832Y-106203088D01*
X136795000Y-106518967D01*
X136795000Y-106841033D01*
X136857832Y-107156912D01*
X136981082Y-107454463D01*
X137160013Y-107722252D01*
X137387748Y-107949987D01*
X137387767Y-107950000D01*
X137387748Y-107950013D01*
X137160013Y-108177748D01*
X136981082Y-108445537D01*
X136857832Y-108743088D01*
X136795000Y-109058967D01*
X136795000Y-109381033D01*
X136857832Y-109696912D01*
X136981082Y-109994463D01*
X137160013Y-110262252D01*
X137387748Y-110489987D01*
X137496600Y-110562720D01*
X137474192Y-110624587D01*
X138430000Y-111580395D01*
X139385808Y-110624587D01*
X139363400Y-110562720D01*
X139472252Y-110489987D01*
X139699987Y-110262252D01*
X139878918Y-109994463D01*
X140002168Y-109696912D01*
X140065000Y-109381033D01*
X140065000Y-109058967D01*
X140002168Y-108743088D01*
X139878918Y-108445537D01*
X139699987Y-108177748D01*
X139472252Y-107950013D01*
X139472233Y-107950000D01*
X139472252Y-107949987D01*
X139699987Y-107722252D01*
X139878918Y-107454463D01*
X140002168Y-107156912D01*
X140063545Y-106848346D01*
X143933802Y-110718604D01*
X143933801Y-127045508D01*
X143926474Y-127039756D01*
X143658235Y-126903768D01*
X143368620Y-126822724D01*
X143129000Y-126958366D01*
X143129000Y-128206500D01*
X143149000Y-128206500D01*
X143149000Y-128460500D01*
X143129000Y-128460500D01*
X143129000Y-128480500D01*
X142875000Y-128480500D01*
X142875000Y-128460500D01*
X141531622Y-128460500D01*
X141410964Y-128698240D01*
X141497709Y-128951156D01*
X141645191Y-129213251D01*
X141840971Y-129441538D01*
X142038379Y-129596512D01*
X141811339Y-129782839D01*
X141619519Y-130016573D01*
X141476983Y-130283239D01*
X141389210Y-130572587D01*
X141366497Y-130803196D01*
X139768302Y-129205000D01*
X139792089Y-129205000D01*
X139972729Y-129169068D01*
X140142889Y-129098586D01*
X140296028Y-128996262D01*
X140426262Y-128866028D01*
X140528586Y-128712889D01*
X140599068Y-128542729D01*
X140635000Y-128362089D01*
X140635000Y-128177911D01*
X140599068Y-127997271D01*
X140587259Y-127968760D01*
X141410964Y-127968760D01*
X141531622Y-128206500D01*
X142875000Y-128206500D01*
X142875000Y-126958366D01*
X142635380Y-126822724D01*
X142345765Y-126903768D01*
X142077526Y-127039756D01*
X141840971Y-127225462D01*
X141645191Y-127453749D01*
X141497709Y-127715844D01*
X141410964Y-127968760D01*
X140587259Y-127968760D01*
X140528586Y-127827111D01*
X140426262Y-127673972D01*
X140296028Y-127543738D01*
X140142889Y-127441414D01*
X139972729Y-127370932D01*
X139851649Y-127346847D01*
X138598347Y-126093545D01*
X138906912Y-126032168D01*
X139204463Y-125908918D01*
X139472252Y-125729987D01*
X139699987Y-125502252D01*
X139878918Y-125234463D01*
X140002168Y-124936912D01*
X140065000Y-124621033D01*
X140065000Y-124298967D01*
X140002168Y-123983088D01*
X139878918Y-123685537D01*
X139699987Y-123417748D01*
X139472252Y-123190013D01*
X139472233Y-123190000D01*
X139472252Y-123189987D01*
X139699987Y-122962252D01*
X139878918Y-122694463D01*
X140002168Y-122396912D01*
X140065000Y-122081033D01*
X140065000Y-121758967D01*
X140002168Y-121443088D01*
X139878918Y-121145537D01*
X139699987Y-120877748D01*
X139472252Y-120650013D01*
X139472233Y-120650000D01*
X139472252Y-120649987D01*
X139699987Y-120422252D01*
X139878918Y-120154463D01*
X140002168Y-119856912D01*
X140065000Y-119541033D01*
X140065000Y-119218967D01*
X140002168Y-118903088D01*
X139878918Y-118605537D01*
X139699987Y-118337748D01*
X139472252Y-118110013D01*
X139472233Y-118110000D01*
X139472252Y-118109987D01*
X139699987Y-117882252D01*
X139878918Y-117614463D01*
X140002168Y-117316912D01*
X140065000Y-117001033D01*
X140065000Y-116678967D01*
X140002168Y-116363088D01*
X139878918Y-116065537D01*
X139699987Y-115797748D01*
X139472252Y-115570013D01*
X139472233Y-115570000D01*
X139472252Y-115569987D01*
X139699987Y-115342252D01*
X139878918Y-115074463D01*
X140002168Y-114776912D01*
X140065000Y-114461033D01*
X140065000Y-114138967D01*
X140002168Y-113823088D01*
X139878918Y-113525537D01*
X139699987Y-113257748D01*
X139472252Y-113030013D01*
X139363400Y-112957280D01*
X139385808Y-112895413D01*
X138430000Y-111939605D01*
X137474192Y-112895413D01*
X137496600Y-112957280D01*
X137387748Y-113030013D01*
X137160013Y-113257748D01*
X136981082Y-113525537D01*
X136857832Y-113823088D01*
X136795000Y-114138967D01*
X136795000Y-114461033D01*
X136857832Y-114776912D01*
X136863823Y-114791376D01*
X136594001Y-115061198D01*
X136564998Y-115085000D01*
X136509870Y-115152175D01*
X136491880Y-115174095D01*
X136402385Y-115024869D01*
X136213414Y-114816481D01*
X135987420Y-114648963D01*
X135733087Y-114528754D01*
X135599039Y-114488096D01*
X135377000Y-114610085D01*
X135377000Y-115753000D01*
X135397000Y-115753000D01*
X135397000Y-116007000D01*
X135377000Y-116007000D01*
X135377000Y-117149915D01*
X135599039Y-117271904D01*
X135733087Y-117231246D01*
X135987420Y-117111037D01*
X136213414Y-116943519D01*
X136344999Y-116798413D01*
X136345000Y-122565604D01*
X136164759Y-122385363D01*
X135929727Y-122228320D01*
X135668574Y-122120147D01*
X135391335Y-122065000D01*
X135108665Y-122065000D01*
X134831426Y-122120147D01*
X134570273Y-122228320D01*
X134360010Y-122368813D01*
X134360010Y-116997945D01*
X134512580Y-117111037D01*
X134766913Y-117231246D01*
X134900961Y-117271904D01*
X135123000Y-117149915D01*
X135123000Y-116007000D01*
X135103000Y-116007000D01*
X135103000Y-115753000D01*
X135123000Y-115753000D01*
X135123000Y-114610085D01*
X134900961Y-114488096D01*
X134766913Y-114528754D01*
X134512580Y-114648963D01*
X134360010Y-114762055D01*
X134360010Y-111822595D01*
X136788282Y-111822595D01*
X136832039Y-112141675D01*
X136937205Y-112446088D01*
X137030186Y-112620044D01*
X137294587Y-112715808D01*
X138250395Y-111760000D01*
X138609605Y-111760000D01*
X139565413Y-112715808D01*
X139829814Y-112620044D01*
X139970704Y-112330429D01*
X140052384Y-112018892D01*
X140071718Y-111697405D01*
X140027961Y-111378325D01*
X139922795Y-111073912D01*
X139829814Y-110899956D01*
X139565413Y-110804192D01*
X138609605Y-111760000D01*
X138250395Y-111760000D01*
X137294587Y-110804192D01*
X137030186Y-110899956D01*
X136889296Y-111189571D01*
X136807616Y-111501108D01*
X136788282Y-111822595D01*
X134360010Y-111822595D01*
X134360010Y-110554791D01*
X134771649Y-110143153D01*
X134892729Y-110119068D01*
X135062889Y-110048586D01*
X135216028Y-109946262D01*
X135346262Y-109816028D01*
X135448586Y-109662889D01*
X135519068Y-109492729D01*
X135555000Y-109312089D01*
X135555000Y-109127911D01*
X135519068Y-108947271D01*
X135448586Y-108777111D01*
X135346262Y-108623972D01*
X135216028Y-108493738D01*
X135062889Y-108391414D01*
X134892729Y-108320932D01*
X134712089Y-108285000D01*
X134527911Y-108285000D01*
X134347271Y-108320932D01*
X134177111Y-108391414D01*
X134023972Y-108493738D01*
X133910000Y-108607710D01*
X133910000Y-96909565D01*
X134179571Y-97040704D01*
X134491108Y-97122384D01*
X134812595Y-97141718D01*
X135131675Y-97097961D01*
X135436088Y-96992795D01*
X135610044Y-96899814D01*
X135705808Y-96635413D01*
X134750000Y-95679605D01*
X134735858Y-95693748D01*
X134556253Y-95514143D01*
X134570395Y-95500000D01*
X134929605Y-95500000D01*
X135885413Y-96455808D01*
X136149814Y-96360044D01*
X136290704Y-96070429D01*
X136372384Y-95758892D01*
X136391718Y-95437405D01*
X136378219Y-95338967D01*
X137615000Y-95338967D01*
X137615000Y-95661033D01*
X137677832Y-95976912D01*
X137801082Y-96274463D01*
X137980013Y-96542252D01*
X138207748Y-96769987D01*
X138475537Y-96948918D01*
X138773088Y-97072168D01*
X139088967Y-97135000D01*
X139411033Y-97135000D01*
X139726912Y-97072168D01*
X140024463Y-96948918D01*
X140292252Y-96769987D01*
X140519987Y-96542252D01*
X140698918Y-96274463D01*
X140822168Y-95976912D01*
X140885000Y-95661033D01*
X140885000Y-95338967D01*
X140835273Y-95088967D01*
X143145000Y-95088967D01*
X143145000Y-95411033D01*
X143207832Y-95726912D01*
X143331082Y-96024463D01*
X143510013Y-96292252D01*
X143737748Y-96519987D01*
X144005537Y-96698918D01*
X144303088Y-96822168D01*
X144618967Y-96885000D01*
X144941033Y-96885000D01*
X145256912Y-96822168D01*
X145554463Y-96698918D01*
X145822252Y-96519987D01*
X146049987Y-96292252D01*
X146050000Y-96292233D01*
X146050013Y-96292252D01*
X146277748Y-96519987D01*
X146545537Y-96698918D01*
X146843088Y-96822168D01*
X147158967Y-96885000D01*
X147481033Y-96885000D01*
X147796912Y-96822168D01*
X148094463Y-96698918D01*
X148362252Y-96519987D01*
X148589987Y-96292252D01*
X148768918Y-96024463D01*
X148892168Y-95726912D01*
X148955000Y-95411033D01*
X148955000Y-95088967D01*
X148892168Y-94773088D01*
X148768918Y-94475537D01*
X148589987Y-94207748D01*
X148362252Y-93980013D01*
X148094463Y-93801082D01*
X147796912Y-93677832D01*
X147481033Y-93615000D01*
X147158967Y-93615000D01*
X146843088Y-93677832D01*
X146545537Y-93801082D01*
X146277748Y-93980013D01*
X146050013Y-94207748D01*
X146050000Y-94207767D01*
X146049987Y-94207748D01*
X145822252Y-93980013D01*
X145554463Y-93801082D01*
X145256912Y-93677832D01*
X144941033Y-93615000D01*
X144618967Y-93615000D01*
X144303088Y-93677832D01*
X144005537Y-93801082D01*
X143737748Y-93980013D01*
X143510013Y-94207748D01*
X143331082Y-94475537D01*
X143207832Y-94773088D01*
X143145000Y-95088967D01*
X140835273Y-95088967D01*
X140822168Y-95023088D01*
X140698918Y-94725537D01*
X140519987Y-94457748D01*
X140292252Y-94230013D01*
X140024463Y-94051082D01*
X139726912Y-93927832D01*
X139411033Y-93865000D01*
X139088967Y-93865000D01*
X138773088Y-93927832D01*
X138475537Y-94051082D01*
X138207748Y-94230013D01*
X137980013Y-94457748D01*
X137801082Y-94725537D01*
X137677832Y-95023088D01*
X137615000Y-95338967D01*
X136378219Y-95338967D01*
X136347961Y-95118325D01*
X136242795Y-94813912D01*
X136149814Y-94639956D01*
X135885413Y-94544192D01*
X134929605Y-95500000D01*
X134570395Y-95500000D01*
X134556253Y-95485858D01*
X134735858Y-95306253D01*
X134750000Y-95320395D01*
X135705808Y-94364587D01*
X135610044Y-94100186D01*
X135320429Y-93959296D01*
X135008892Y-93877616D01*
X134687405Y-93858282D01*
X134368325Y-93902039D01*
X134063912Y-94007205D01*
X133910000Y-94089472D01*
X133910000Y-90409565D01*
X134179571Y-90540704D01*
X134491108Y-90622384D01*
X134812595Y-90641718D01*
X135131675Y-90597961D01*
X135436088Y-90492795D01*
X135610044Y-90399814D01*
X135705808Y-90135413D01*
X134750000Y-89179605D01*
X134735858Y-89193748D01*
X134556253Y-89014143D01*
X134570395Y-89000000D01*
X134556253Y-88985858D01*
X134735858Y-88806253D01*
X134750000Y-88820395D01*
X134764143Y-88806253D01*
X134943748Y-88985858D01*
X134929605Y-89000000D01*
X135885413Y-89955808D01*
X136149814Y-89860044D01*
X136290704Y-89570429D01*
X136372384Y-89258892D01*
X136391718Y-88937405D01*
X136347961Y-88618325D01*
X136242795Y-88313912D01*
X136187253Y-88210000D01*
X137811463Y-88210000D01*
X137801082Y-88225537D01*
M02*
