G04 #@! TF.GenerationSoftware,KiCad,Pcbnew,5.1.5-52549c5~84~ubuntu18.04.1*
G04 #@! TF.CreationDate,2020-01-28T15:27:20+01:00*
G04 #@! TF.ProjectId,Nokolino,4e6f6b6f-6c69-46e6-9f2e-6b696361645f,3.0*
G04 #@! TF.SameCoordinates,Original*
G04 #@! TF.FileFunction,Legend,Bot*
G04 #@! TF.FilePolarity,Positive*
%FSLAX46Y46*%
G04 Gerber Fmt 4.6, Leading zero omitted, Abs format (unit mm)*
G04 Created by KiCad (PCBNEW 5.1.5-52549c5~84~ubuntu18.04.1) date 2020-01-28 15:27:20*
%MOMM*%
%LPD*%
G04 APERTURE LIST*
%ADD10C,0.100000*%
%ADD11C,0.300000*%
%ADD12C,0.200000*%
%ADD13C,0.010000*%
%ADD14C,0.120000*%
G04 APERTURE END LIST*
D10*
X164411696Y-139426904D02*
X164311696Y-138626904D01*
X164349791Y-138931666D02*
X164268839Y-138893571D01*
X164116458Y-138893571D01*
X164045029Y-138931666D01*
X164011696Y-138969761D01*
X163983125Y-139045952D01*
X164011696Y-139274523D01*
X164059315Y-139350714D01*
X164102172Y-139388809D01*
X164183125Y-139426904D01*
X164335505Y-139426904D01*
X164406934Y-139388809D01*
X163697410Y-138893571D02*
X163573601Y-139426904D01*
X163316458Y-138893571D02*
X163573601Y-139426904D01*
X163673601Y-139617380D01*
X163716458Y-139655476D01*
X163797410Y-139693571D01*
X162468839Y-139426904D02*
X162368839Y-138626904D01*
X162011696Y-139426904D01*
X161911696Y-138626904D01*
X161630744Y-139426904D02*
X161564077Y-138893571D01*
X161530744Y-138626904D02*
X161573601Y-138665000D01*
X161540267Y-138703095D01*
X161497410Y-138665000D01*
X161530744Y-138626904D01*
X161540267Y-138703095D01*
X161249791Y-139426904D02*
X161149791Y-138626904D01*
X161135505Y-139122142D02*
X160945029Y-139426904D01*
X160878363Y-138893571D02*
X161221220Y-139198333D01*
X160487886Y-139426904D02*
X160559315Y-139388809D01*
X160592648Y-139350714D01*
X160621220Y-139274523D01*
X160592648Y-139045952D01*
X160545029Y-138969761D01*
X160502172Y-138931666D01*
X160421220Y-138893571D01*
X160306934Y-138893571D01*
X160235505Y-138931666D01*
X160202172Y-138969761D01*
X160173601Y-139045952D01*
X160202172Y-139274523D01*
X160249791Y-139350714D01*
X160292648Y-139388809D01*
X160373601Y-139426904D01*
X160487886Y-139426904D01*
X159764077Y-139426904D02*
X159835505Y-139388809D01*
X159864077Y-139312619D01*
X159778363Y-138626904D01*
X159116458Y-139426904D02*
X159064077Y-139007857D01*
X159092648Y-138931666D01*
X159164077Y-138893571D01*
X159316458Y-138893571D01*
X159397410Y-138931666D01*
X159111696Y-139388809D02*
X159192648Y-139426904D01*
X159383125Y-139426904D01*
X159454553Y-139388809D01*
X159483125Y-139312619D01*
X159473601Y-139236428D01*
X159425982Y-139160238D01*
X159345029Y-139122142D01*
X159154553Y-139122142D01*
X159073601Y-139084047D01*
X158735505Y-139426904D02*
X158668839Y-138893571D01*
X158635505Y-138626904D02*
X158678363Y-138665000D01*
X158645029Y-138703095D01*
X158602172Y-138665000D01*
X158635505Y-138626904D01*
X158645029Y-138703095D01*
X157287886Y-139426904D02*
X157506934Y-139045952D01*
X157745029Y-139426904D02*
X157645029Y-138626904D01*
X157340267Y-138626904D01*
X157268839Y-138665000D01*
X157235505Y-138703095D01*
X157206934Y-138779285D01*
X157221220Y-138893571D01*
X157268839Y-138969761D01*
X157311696Y-139007857D01*
X157392648Y-139045952D01*
X157697410Y-139045952D01*
X156602172Y-139426904D02*
X156549791Y-139007857D01*
X156578363Y-138931666D01*
X156649791Y-138893571D01*
X156802172Y-138893571D01*
X156883125Y-138931666D01*
X156597410Y-139388809D02*
X156678363Y-139426904D01*
X156868839Y-139426904D01*
X156940267Y-139388809D01*
X156968839Y-139312619D01*
X156959315Y-139236428D01*
X156911696Y-139160238D01*
X156830744Y-139122142D01*
X156640267Y-139122142D01*
X156559315Y-139084047D01*
X155878363Y-139426904D02*
X155778363Y-138626904D01*
X155873601Y-139388809D02*
X155954553Y-139426904D01*
X156106934Y-139426904D01*
X156178363Y-139388809D01*
X156211696Y-139350714D01*
X156240267Y-139274523D01*
X156211696Y-139045952D01*
X156164077Y-138969761D01*
X156121220Y-138931666D01*
X156040267Y-138893571D01*
X155887886Y-138893571D01*
X155816458Y-138931666D01*
X155497410Y-139426904D02*
X155397410Y-138626904D01*
X155383125Y-139122142D02*
X155192648Y-139426904D01*
X155125982Y-138893571D02*
X155468839Y-139198333D01*
X154540267Y-139388809D02*
X154621220Y-139426904D01*
X154773601Y-139426904D01*
X154845029Y-139388809D01*
X154873601Y-139312619D01*
X154835505Y-139007857D01*
X154787886Y-138931666D01*
X154706934Y-138893571D01*
X154554553Y-138893571D01*
X154483125Y-138931666D01*
X154454553Y-139007857D01*
X154464077Y-139084047D01*
X154854553Y-139160238D01*
D11*
X164056071Y-137838571D02*
X163868571Y-136338571D01*
X163198928Y-137838571D01*
X163011428Y-136338571D01*
X162270357Y-137838571D02*
X162404285Y-137767142D01*
X162466785Y-137695714D01*
X162520357Y-137552857D01*
X162466785Y-137124285D01*
X162377500Y-136981428D01*
X162297142Y-136910000D01*
X162145357Y-136838571D01*
X161931071Y-136838571D01*
X161797142Y-136910000D01*
X161734642Y-136981428D01*
X161681071Y-137124285D01*
X161734642Y-137552857D01*
X161823928Y-137695714D01*
X161904285Y-137767142D01*
X162056071Y-137838571D01*
X162270357Y-137838571D01*
X161127500Y-137838571D02*
X160940000Y-136338571D01*
X160913214Y-137267142D02*
X160556071Y-137838571D01*
X160431071Y-136838571D02*
X161073928Y-137410000D01*
X159698928Y-137838571D02*
X159832857Y-137767142D01*
X159895357Y-137695714D01*
X159948928Y-137552857D01*
X159895357Y-137124285D01*
X159806071Y-136981428D01*
X159725714Y-136910000D01*
X159573928Y-136838571D01*
X159359642Y-136838571D01*
X159225714Y-136910000D01*
X159163214Y-136981428D01*
X159109642Y-137124285D01*
X159163214Y-137552857D01*
X159252500Y-137695714D01*
X159332857Y-137767142D01*
X159484642Y-137838571D01*
X159698928Y-137838571D01*
X158341785Y-137838571D02*
X158475714Y-137767142D01*
X158529285Y-137624285D01*
X158368571Y-136338571D01*
X157770357Y-137838571D02*
X157645357Y-136838571D01*
X157582857Y-136338571D02*
X157663214Y-136410000D01*
X157600714Y-136481428D01*
X157520357Y-136410000D01*
X157582857Y-136338571D01*
X157600714Y-136481428D01*
X156931071Y-136838571D02*
X157056071Y-137838571D01*
X156948928Y-136981428D02*
X156868571Y-136910000D01*
X156716785Y-136838571D01*
X156502500Y-136838571D01*
X156368571Y-136910000D01*
X156315000Y-137052857D01*
X156413214Y-137838571D01*
X155484642Y-137838571D02*
X155618571Y-137767142D01*
X155681071Y-137695714D01*
X155734642Y-137552857D01*
X155681071Y-137124285D01*
X155591785Y-136981428D01*
X155511428Y-136910000D01*
X155359642Y-136838571D01*
X155145357Y-136838571D01*
X155011428Y-136910000D01*
X154948928Y-136981428D01*
X154895357Y-137124285D01*
X154948928Y-137552857D01*
X155038214Y-137695714D01*
X155118571Y-137767142D01*
X155270357Y-137838571D01*
X155484642Y-137838571D01*
D12*
X170237142Y-88595238D02*
X170237142Y-89204761D01*
X170541904Y-88900000D02*
X169932380Y-88900000D01*
X172415238Y-88842857D02*
X173024761Y-88842857D01*
D13*
G36*
X162425176Y-95664586D02*
G01*
X162655795Y-95837909D01*
X162850801Y-96143396D01*
X163019688Y-96594641D01*
X163129398Y-97012902D01*
X163275252Y-97631849D01*
X163394012Y-98107474D01*
X163492544Y-98462346D01*
X163577713Y-98719036D01*
X163656383Y-98900114D01*
X163735420Y-99028151D01*
X163746908Y-99043132D01*
X163910023Y-99250499D01*
X166522399Y-99250500D01*
X169134776Y-99250500D01*
X169296625Y-99044742D01*
X169385030Y-98874621D01*
X169489954Y-98586100D01*
X169595163Y-98226915D01*
X169649333Y-98007575D01*
X169806586Y-97345217D01*
X169942187Y-96829046D01*
X170063143Y-96438359D01*
X170176461Y-96152451D01*
X170289147Y-95950620D01*
X170384742Y-95834582D01*
X170671412Y-95639755D01*
X170966581Y-95612406D01*
X171259426Y-95751783D01*
X171422040Y-95906543D01*
X171562740Y-96094558D01*
X171688020Y-96326973D01*
X171799322Y-96615085D01*
X171898092Y-96970190D01*
X171985772Y-97403583D01*
X172063807Y-97926560D01*
X172133642Y-98550417D01*
X172196719Y-99286450D01*
X172254483Y-100145954D01*
X172308378Y-101140226D01*
X172359847Y-102280561D01*
X172410336Y-103578254D01*
X172413365Y-103661372D01*
X172470569Y-105235911D01*
X172904318Y-104943342D01*
X173389315Y-104641257D01*
X173929104Y-104346956D01*
X174490941Y-104074487D01*
X175042084Y-103837894D01*
X175549787Y-103651225D01*
X175981309Y-103528524D01*
X176303905Y-103483838D01*
X176306679Y-103483833D01*
X176629545Y-103539194D01*
X176834009Y-103710998D01*
X176927976Y-104007827D01*
X176936400Y-104167477D01*
X176891747Y-104407743D01*
X176767031Y-104760529D01*
X176576116Y-105197461D01*
X176332865Y-105690164D01*
X176051142Y-106210264D01*
X175744811Y-106729385D01*
X175491619Y-107124500D01*
X175210777Y-107510479D01*
X174854805Y-107947687D01*
X174451429Y-108406858D01*
X174028374Y-108858723D01*
X173613366Y-109274018D01*
X173234130Y-109623475D01*
X172918391Y-109877828D01*
X172821510Y-109943034D01*
X172614317Y-110086753D01*
X172501712Y-110229430D01*
X172443833Y-110437306D01*
X172420079Y-110610101D01*
X172397797Y-110880476D01*
X172379221Y-111264947D01*
X172366535Y-111708281D01*
X172362057Y-112077500D01*
X172335692Y-113420251D01*
X172268055Y-114660240D01*
X172160674Y-115786452D01*
X172015076Y-116787869D01*
X171832789Y-117653475D01*
X171615340Y-118372254D01*
X171428126Y-118812305D01*
X171220154Y-119118033D01*
X170908219Y-119447161D01*
X170542477Y-119752942D01*
X170173084Y-119988627D01*
X170157206Y-119996822D01*
X169759875Y-120133486D01*
X169312182Y-120185277D01*
X168881813Y-120149930D01*
X168579943Y-120049563D01*
X168271906Y-119818281D01*
X167990706Y-119480423D01*
X167790203Y-119104457D01*
X167701958Y-118801431D01*
X167614803Y-118364015D01*
X167533937Y-117827107D01*
X167464555Y-117225601D01*
X167411857Y-116594391D01*
X167408328Y-116540713D01*
X167375143Y-116102536D01*
X167338738Y-115806583D01*
X167293864Y-115625759D01*
X167235274Y-115532967D01*
X167209815Y-115515896D01*
X167075570Y-115488947D01*
X166831877Y-115471670D01*
X166528871Y-115464075D01*
X166216686Y-115466171D01*
X165945457Y-115477969D01*
X165765316Y-115499477D01*
X165723065Y-115515612D01*
X165703436Y-115609009D01*
X165675379Y-115839226D01*
X165642280Y-116174163D01*
X165607527Y-116581719D01*
X165598789Y-116693646D01*
X165534070Y-117446319D01*
X165463993Y-118053739D01*
X165383147Y-118539987D01*
X165286123Y-118929143D01*
X165167510Y-119245288D01*
X165021898Y-119512502D01*
X164938158Y-119634089D01*
X164604654Y-119950742D01*
X164176603Y-120145234D01*
X163686384Y-120207490D01*
X163266609Y-120154216D01*
X162715610Y-119936958D01*
X162222353Y-119570616D01*
X161800320Y-119069553D01*
X161462995Y-118448131D01*
X161327705Y-118088833D01*
X161176742Y-117583237D01*
X161050641Y-117055717D01*
X160946595Y-116483432D01*
X160861798Y-115843538D01*
X160793442Y-115113194D01*
X160738722Y-114269557D01*
X160694828Y-113289785D01*
X160677954Y-112801278D01*
X160655399Y-112157215D01*
X160631043Y-111568692D01*
X160606053Y-111056773D01*
X160581600Y-110642525D01*
X160558851Y-110347015D01*
X160538977Y-110191307D01*
X160532111Y-110172902D01*
X160440792Y-110103281D01*
X160246681Y-109956785D01*
X159982495Y-109758074D01*
X159802725Y-109623118D01*
X159099635Y-109017407D01*
X158401119Y-108264724D01*
X157724135Y-107386979D01*
X157085641Y-106406080D01*
X156525210Y-105388833D01*
X156256652Y-104791271D01*
X156113006Y-104307146D01*
X156105700Y-104161309D01*
X156531733Y-104161309D01*
X156576211Y-104367868D01*
X156699912Y-104687164D01*
X156888242Y-105090969D01*
X157126601Y-105551055D01*
X157400394Y-106039193D01*
X157695024Y-106527154D01*
X157983023Y-106967912D01*
X158342596Y-107453750D01*
X158768153Y-107964078D01*
X159228191Y-108466114D01*
X159691204Y-108927075D01*
X160125688Y-109314179D01*
X160500137Y-109594644D01*
X160519008Y-109606732D01*
X160992616Y-109906783D01*
X161048175Y-110814812D01*
X161073562Y-111326085D01*
X161093180Y-111903631D01*
X161103903Y-112448114D01*
X161104988Y-112619837D01*
X161138426Y-113998405D01*
X161233456Y-115274514D01*
X161388136Y-116431969D01*
X161600526Y-117454574D01*
X161746506Y-117970409D01*
X162020665Y-118601059D01*
X162403640Y-119114718D01*
X162885186Y-119498422D01*
X163007479Y-119566245D01*
X163400230Y-119704019D01*
X163804043Y-119737648D01*
X164164600Y-119667283D01*
X164354344Y-119562496D01*
X164550752Y-119372655D01*
X164712004Y-119129378D01*
X164843460Y-118812851D01*
X164950480Y-118403260D01*
X165038426Y-117880791D01*
X165112657Y-117225630D01*
X165168790Y-116552109D01*
X165203433Y-116125446D01*
X165239368Y-115752752D01*
X165272685Y-115470408D01*
X165299475Y-115314800D01*
X165302912Y-115304049D01*
X165443028Y-115165576D01*
X165730579Y-115067712D01*
X166147741Y-115014131D01*
X166676692Y-115008506D01*
X166727717Y-115010418D01*
X167119781Y-115034173D01*
X167398430Y-115085303D01*
X167585384Y-115189786D01*
X167702361Y-115373600D01*
X167771081Y-115662723D01*
X167813263Y-116083133D01*
X167829789Y-116328604D01*
X167878419Y-116938723D01*
X167943632Y-117530571D01*
X168020519Y-118072715D01*
X168104171Y-118533721D01*
X168189677Y-118882158D01*
X168256220Y-119058930D01*
X168405640Y-119274077D01*
X168611400Y-119491006D01*
X168642521Y-119518081D01*
X168981049Y-119701250D01*
X169368594Y-119745117D01*
X169779610Y-119662410D01*
X170188551Y-119465861D01*
X170569870Y-119168199D01*
X170898023Y-118782155D01*
X171147461Y-118320458D01*
X171172009Y-118257594D01*
X171329061Y-117801506D01*
X171462427Y-117327351D01*
X171574598Y-116815394D01*
X171668065Y-116245900D01*
X171745320Y-115599133D01*
X171808855Y-114855358D01*
X171861160Y-113994840D01*
X171904727Y-112997842D01*
X171929962Y-112253643D01*
X171951668Y-111571476D01*
X171970949Y-111038649D01*
X171989818Y-110635226D01*
X172010287Y-110341271D01*
X172034369Y-110136850D01*
X172064075Y-110002027D01*
X172101419Y-109916866D01*
X172148412Y-109861433D01*
X172173542Y-109840643D01*
X172323199Y-109727988D01*
X172563392Y-109550305D01*
X172847579Y-109341986D01*
X172909876Y-109296556D01*
X173498533Y-108800658D01*
X174104020Y-108166121D01*
X174705841Y-107419472D01*
X175283501Y-106587240D01*
X175816506Y-105695954D01*
X176084835Y-105186927D01*
X176304834Y-104730828D01*
X176441111Y-104398727D01*
X176498323Y-104170184D01*
X176481128Y-104024757D01*
X176394181Y-103942005D01*
X176370776Y-103931916D01*
X176188573Y-103929998D01*
X175887855Y-104004023D01*
X175494961Y-104142238D01*
X175036230Y-104332886D01*
X174538000Y-104564212D01*
X174026610Y-104824460D01*
X173528398Y-105101874D01*
X173069702Y-105384698D01*
X172975341Y-105447401D01*
X172611677Y-105680838D01*
X172358573Y-105804961D01*
X172195393Y-105817514D01*
X172101498Y-105716239D01*
X172056254Y-105498880D01*
X172045414Y-105345707D01*
X172036518Y-105151469D01*
X172021562Y-104811392D01*
X172001548Y-104348823D01*
X171977478Y-103787109D01*
X171950352Y-103149597D01*
X171921173Y-102459635D01*
X171898363Y-101917500D01*
X171846799Y-100801826D01*
X171791709Y-99841970D01*
X171731609Y-99024430D01*
X171665018Y-98335702D01*
X171590453Y-97762284D01*
X171506431Y-97290673D01*
X171411470Y-96907366D01*
X171318232Y-96633773D01*
X171150467Y-96279490D01*
X170990396Y-96089757D01*
X170831865Y-96060357D01*
X170668722Y-96187073D01*
X170667871Y-96188108D01*
X170572447Y-96325483D01*
X170487923Y-96503609D01*
X170405227Y-96751247D01*
X170315285Y-97097156D01*
X170209023Y-97570094D01*
X170161880Y-97791942D01*
X170000194Y-98448485D01*
X169821786Y-98966689D01*
X169630965Y-99336140D01*
X169437693Y-99542786D01*
X169360388Y-99579632D01*
X169241261Y-99609051D01*
X169062583Y-99631832D01*
X168806627Y-99648765D01*
X168455663Y-99660639D01*
X167991963Y-99668243D01*
X167397800Y-99672367D01*
X166655445Y-99673800D01*
X166494463Y-99673833D01*
X165738348Y-99673369D01*
X165133017Y-99671277D01*
X164659923Y-99666504D01*
X164300518Y-99657997D01*
X164036253Y-99644705D01*
X163848581Y-99625574D01*
X163718954Y-99599553D01*
X163628825Y-99565589D01*
X163559644Y-99522629D01*
X163537978Y-99506085D01*
X163385523Y-99348453D01*
X163249701Y-99117800D01*
X163121796Y-98791238D01*
X162993091Y-98345882D01*
X162854868Y-97758846D01*
X162831516Y-97651309D01*
X162733725Y-97231762D01*
X162630102Y-96844832D01*
X162533944Y-96537244D01*
X162467374Y-96371833D01*
X162304852Y-96143766D01*
X162140330Y-96076883D01*
X161977464Y-96163132D01*
X161819909Y-96394456D01*
X161671320Y-96762803D01*
X161535351Y-97260118D01*
X161415657Y-97878347D01*
X161315895Y-98609436D01*
X161276307Y-98996500D01*
X161244893Y-99395605D01*
X161210700Y-99929564D01*
X161175250Y-100563953D01*
X161140063Y-101264347D01*
X161106661Y-101996322D01*
X161076564Y-102725452D01*
X161051293Y-103417314D01*
X161032369Y-104037483D01*
X161021314Y-104551534D01*
X161019066Y-104818846D01*
X161012840Y-105263927D01*
X160990480Y-105564991D01*
X160946469Y-105747021D01*
X160875286Y-105835001D01*
X160790262Y-105854499D01*
X160668707Y-105809935D01*
X160445040Y-105690152D01*
X160156582Y-105516018D01*
X159973820Y-105398024D01*
X159470046Y-105084192D01*
X158930617Y-104781306D01*
X158385101Y-104502967D01*
X157863067Y-104262780D01*
X157394081Y-104074349D01*
X157007714Y-103951277D01*
X156733532Y-103907166D01*
X156733319Y-103907166D01*
X156588750Y-103936665D01*
X156536065Y-104058586D01*
X156531733Y-104161309D01*
X156105700Y-104161309D01*
X156094383Y-103935443D01*
X156200896Y-103675147D01*
X156432660Y-103525242D01*
X156737286Y-103483833D01*
X157074524Y-103529552D01*
X157520612Y-103657951D01*
X158044784Y-103855895D01*
X158616271Y-104110247D01*
X159204307Y-104407872D01*
X159778125Y-104735634D01*
X160011667Y-104881814D01*
X160570602Y-105242160D01*
X160628837Y-103325830D01*
X160676922Y-101944687D01*
X160733234Y-100724676D01*
X160799363Y-99657729D01*
X160876900Y-98735773D01*
X160967436Y-97950739D01*
X161072560Y-97294557D01*
X161193863Y-96759156D01*
X161332935Y-96336466D01*
X161491368Y-96018416D01*
X161670751Y-95796936D01*
X161872675Y-95663956D01*
X162098731Y-95611405D01*
X162149447Y-95609833D01*
X162425176Y-95664586D01*
G37*
X162425176Y-95664586D02*
X162655795Y-95837909D01*
X162850801Y-96143396D01*
X163019688Y-96594641D01*
X163129398Y-97012902D01*
X163275252Y-97631849D01*
X163394012Y-98107474D01*
X163492544Y-98462346D01*
X163577713Y-98719036D01*
X163656383Y-98900114D01*
X163735420Y-99028151D01*
X163746908Y-99043132D01*
X163910023Y-99250499D01*
X166522399Y-99250500D01*
X169134776Y-99250500D01*
X169296625Y-99044742D01*
X169385030Y-98874621D01*
X169489954Y-98586100D01*
X169595163Y-98226915D01*
X169649333Y-98007575D01*
X169806586Y-97345217D01*
X169942187Y-96829046D01*
X170063143Y-96438359D01*
X170176461Y-96152451D01*
X170289147Y-95950620D01*
X170384742Y-95834582D01*
X170671412Y-95639755D01*
X170966581Y-95612406D01*
X171259426Y-95751783D01*
X171422040Y-95906543D01*
X171562740Y-96094558D01*
X171688020Y-96326973D01*
X171799322Y-96615085D01*
X171898092Y-96970190D01*
X171985772Y-97403583D01*
X172063807Y-97926560D01*
X172133642Y-98550417D01*
X172196719Y-99286450D01*
X172254483Y-100145954D01*
X172308378Y-101140226D01*
X172359847Y-102280561D01*
X172410336Y-103578254D01*
X172413365Y-103661372D01*
X172470569Y-105235911D01*
X172904318Y-104943342D01*
X173389315Y-104641257D01*
X173929104Y-104346956D01*
X174490941Y-104074487D01*
X175042084Y-103837894D01*
X175549787Y-103651225D01*
X175981309Y-103528524D01*
X176303905Y-103483838D01*
X176306679Y-103483833D01*
X176629545Y-103539194D01*
X176834009Y-103710998D01*
X176927976Y-104007827D01*
X176936400Y-104167477D01*
X176891747Y-104407743D01*
X176767031Y-104760529D01*
X176576116Y-105197461D01*
X176332865Y-105690164D01*
X176051142Y-106210264D01*
X175744811Y-106729385D01*
X175491619Y-107124500D01*
X175210777Y-107510479D01*
X174854805Y-107947687D01*
X174451429Y-108406858D01*
X174028374Y-108858723D01*
X173613366Y-109274018D01*
X173234130Y-109623475D01*
X172918391Y-109877828D01*
X172821510Y-109943034D01*
X172614317Y-110086753D01*
X172501712Y-110229430D01*
X172443833Y-110437306D01*
X172420079Y-110610101D01*
X172397797Y-110880476D01*
X172379221Y-111264947D01*
X172366535Y-111708281D01*
X172362057Y-112077500D01*
X172335692Y-113420251D01*
X172268055Y-114660240D01*
X172160674Y-115786452D01*
X172015076Y-116787869D01*
X171832789Y-117653475D01*
X171615340Y-118372254D01*
X171428126Y-118812305D01*
X171220154Y-119118033D01*
X170908219Y-119447161D01*
X170542477Y-119752942D01*
X170173084Y-119988627D01*
X170157206Y-119996822D01*
X169759875Y-120133486D01*
X169312182Y-120185277D01*
X168881813Y-120149930D01*
X168579943Y-120049563D01*
X168271906Y-119818281D01*
X167990706Y-119480423D01*
X167790203Y-119104457D01*
X167701958Y-118801431D01*
X167614803Y-118364015D01*
X167533937Y-117827107D01*
X167464555Y-117225601D01*
X167411857Y-116594391D01*
X167408328Y-116540713D01*
X167375143Y-116102536D01*
X167338738Y-115806583D01*
X167293864Y-115625759D01*
X167235274Y-115532967D01*
X167209815Y-115515896D01*
X167075570Y-115488947D01*
X166831877Y-115471670D01*
X166528871Y-115464075D01*
X166216686Y-115466171D01*
X165945457Y-115477969D01*
X165765316Y-115499477D01*
X165723065Y-115515612D01*
X165703436Y-115609009D01*
X165675379Y-115839226D01*
X165642280Y-116174163D01*
X165607527Y-116581719D01*
X165598789Y-116693646D01*
X165534070Y-117446319D01*
X165463993Y-118053739D01*
X165383147Y-118539987D01*
X165286123Y-118929143D01*
X165167510Y-119245288D01*
X165021898Y-119512502D01*
X164938158Y-119634089D01*
X164604654Y-119950742D01*
X164176603Y-120145234D01*
X163686384Y-120207490D01*
X163266609Y-120154216D01*
X162715610Y-119936958D01*
X162222353Y-119570616D01*
X161800320Y-119069553D01*
X161462995Y-118448131D01*
X161327705Y-118088833D01*
X161176742Y-117583237D01*
X161050641Y-117055717D01*
X160946595Y-116483432D01*
X160861798Y-115843538D01*
X160793442Y-115113194D01*
X160738722Y-114269557D01*
X160694828Y-113289785D01*
X160677954Y-112801278D01*
X160655399Y-112157215D01*
X160631043Y-111568692D01*
X160606053Y-111056773D01*
X160581600Y-110642525D01*
X160558851Y-110347015D01*
X160538977Y-110191307D01*
X160532111Y-110172902D01*
X160440792Y-110103281D01*
X160246681Y-109956785D01*
X159982495Y-109758074D01*
X159802725Y-109623118D01*
X159099635Y-109017407D01*
X158401119Y-108264724D01*
X157724135Y-107386979D01*
X157085641Y-106406080D01*
X156525210Y-105388833D01*
X156256652Y-104791271D01*
X156113006Y-104307146D01*
X156105700Y-104161309D01*
X156531733Y-104161309D01*
X156576211Y-104367868D01*
X156699912Y-104687164D01*
X156888242Y-105090969D01*
X157126601Y-105551055D01*
X157400394Y-106039193D01*
X157695024Y-106527154D01*
X157983023Y-106967912D01*
X158342596Y-107453750D01*
X158768153Y-107964078D01*
X159228191Y-108466114D01*
X159691204Y-108927075D01*
X160125688Y-109314179D01*
X160500137Y-109594644D01*
X160519008Y-109606732D01*
X160992616Y-109906783D01*
X161048175Y-110814812D01*
X161073562Y-111326085D01*
X161093180Y-111903631D01*
X161103903Y-112448114D01*
X161104988Y-112619837D01*
X161138426Y-113998405D01*
X161233456Y-115274514D01*
X161388136Y-116431969D01*
X161600526Y-117454574D01*
X161746506Y-117970409D01*
X162020665Y-118601059D01*
X162403640Y-119114718D01*
X162885186Y-119498422D01*
X163007479Y-119566245D01*
X163400230Y-119704019D01*
X163804043Y-119737648D01*
X164164600Y-119667283D01*
X164354344Y-119562496D01*
X164550752Y-119372655D01*
X164712004Y-119129378D01*
X164843460Y-118812851D01*
X164950480Y-118403260D01*
X165038426Y-117880791D01*
X165112657Y-117225630D01*
X165168790Y-116552109D01*
X165203433Y-116125446D01*
X165239368Y-115752752D01*
X165272685Y-115470408D01*
X165299475Y-115314800D01*
X165302912Y-115304049D01*
X165443028Y-115165576D01*
X165730579Y-115067712D01*
X166147741Y-115014131D01*
X166676692Y-115008506D01*
X166727717Y-115010418D01*
X167119781Y-115034173D01*
X167398430Y-115085303D01*
X167585384Y-115189786D01*
X167702361Y-115373600D01*
X167771081Y-115662723D01*
X167813263Y-116083133D01*
X167829789Y-116328604D01*
X167878419Y-116938723D01*
X167943632Y-117530571D01*
X168020519Y-118072715D01*
X168104171Y-118533721D01*
X168189677Y-118882158D01*
X168256220Y-119058930D01*
X168405640Y-119274077D01*
X168611400Y-119491006D01*
X168642521Y-119518081D01*
X168981049Y-119701250D01*
X169368594Y-119745117D01*
X169779610Y-119662410D01*
X170188551Y-119465861D01*
X170569870Y-119168199D01*
X170898023Y-118782155D01*
X171147461Y-118320458D01*
X171172009Y-118257594D01*
X171329061Y-117801506D01*
X171462427Y-117327351D01*
X171574598Y-116815394D01*
X171668065Y-116245900D01*
X171745320Y-115599133D01*
X171808855Y-114855358D01*
X171861160Y-113994840D01*
X171904727Y-112997842D01*
X171929962Y-112253643D01*
X171951668Y-111571476D01*
X171970949Y-111038649D01*
X171989818Y-110635226D01*
X172010287Y-110341271D01*
X172034369Y-110136850D01*
X172064075Y-110002027D01*
X172101419Y-109916866D01*
X172148412Y-109861433D01*
X172173542Y-109840643D01*
X172323199Y-109727988D01*
X172563392Y-109550305D01*
X172847579Y-109341986D01*
X172909876Y-109296556D01*
X173498533Y-108800658D01*
X174104020Y-108166121D01*
X174705841Y-107419472D01*
X175283501Y-106587240D01*
X175816506Y-105695954D01*
X176084835Y-105186927D01*
X176304834Y-104730828D01*
X176441111Y-104398727D01*
X176498323Y-104170184D01*
X176481128Y-104024757D01*
X176394181Y-103942005D01*
X176370776Y-103931916D01*
X176188573Y-103929998D01*
X175887855Y-104004023D01*
X175494961Y-104142238D01*
X175036230Y-104332886D01*
X174538000Y-104564212D01*
X174026610Y-104824460D01*
X173528398Y-105101874D01*
X173069702Y-105384698D01*
X172975341Y-105447401D01*
X172611677Y-105680838D01*
X172358573Y-105804961D01*
X172195393Y-105817514D01*
X172101498Y-105716239D01*
X172056254Y-105498880D01*
X172045414Y-105345707D01*
X172036518Y-105151469D01*
X172021562Y-104811392D01*
X172001548Y-104348823D01*
X171977478Y-103787109D01*
X171950352Y-103149597D01*
X171921173Y-102459635D01*
X171898363Y-101917500D01*
X171846799Y-100801826D01*
X171791709Y-99841970D01*
X171731609Y-99024430D01*
X171665018Y-98335702D01*
X171590453Y-97762284D01*
X171506431Y-97290673D01*
X171411470Y-96907366D01*
X171318232Y-96633773D01*
X171150467Y-96279490D01*
X170990396Y-96089757D01*
X170831865Y-96060357D01*
X170668722Y-96187073D01*
X170667871Y-96188108D01*
X170572447Y-96325483D01*
X170487923Y-96503609D01*
X170405227Y-96751247D01*
X170315285Y-97097156D01*
X170209023Y-97570094D01*
X170161880Y-97791942D01*
X170000194Y-98448485D01*
X169821786Y-98966689D01*
X169630965Y-99336140D01*
X169437693Y-99542786D01*
X169360388Y-99579632D01*
X169241261Y-99609051D01*
X169062583Y-99631832D01*
X168806627Y-99648765D01*
X168455663Y-99660639D01*
X167991963Y-99668243D01*
X167397800Y-99672367D01*
X166655445Y-99673800D01*
X166494463Y-99673833D01*
X165738348Y-99673369D01*
X165133017Y-99671277D01*
X164659923Y-99666504D01*
X164300518Y-99657997D01*
X164036253Y-99644705D01*
X163848581Y-99625574D01*
X163718954Y-99599553D01*
X163628825Y-99565589D01*
X163559644Y-99522629D01*
X163537978Y-99506085D01*
X163385523Y-99348453D01*
X163249701Y-99117800D01*
X163121796Y-98791238D01*
X162993091Y-98345882D01*
X162854868Y-97758846D01*
X162831516Y-97651309D01*
X162733725Y-97231762D01*
X162630102Y-96844832D01*
X162533944Y-96537244D01*
X162467374Y-96371833D01*
X162304852Y-96143766D01*
X162140330Y-96076883D01*
X161977464Y-96163132D01*
X161819909Y-96394456D01*
X161671320Y-96762803D01*
X161535351Y-97260118D01*
X161415657Y-97878347D01*
X161315895Y-98609436D01*
X161276307Y-98996500D01*
X161244893Y-99395605D01*
X161210700Y-99929564D01*
X161175250Y-100563953D01*
X161140063Y-101264347D01*
X161106661Y-101996322D01*
X161076564Y-102725452D01*
X161051293Y-103417314D01*
X161032369Y-104037483D01*
X161021314Y-104551534D01*
X161019066Y-104818846D01*
X161012840Y-105263927D01*
X160990480Y-105564991D01*
X160946469Y-105747021D01*
X160875286Y-105835001D01*
X160790262Y-105854499D01*
X160668707Y-105809935D01*
X160445040Y-105690152D01*
X160156582Y-105516018D01*
X159973820Y-105398024D01*
X159470046Y-105084192D01*
X158930617Y-104781306D01*
X158385101Y-104502967D01*
X157863067Y-104262780D01*
X157394081Y-104074349D01*
X157007714Y-103951277D01*
X156733532Y-103907166D01*
X156733319Y-103907166D01*
X156588750Y-103936665D01*
X156536065Y-104058586D01*
X156531733Y-104161309D01*
X156105700Y-104161309D01*
X156094383Y-103935443D01*
X156200896Y-103675147D01*
X156432660Y-103525242D01*
X156737286Y-103483833D01*
X157074524Y-103529552D01*
X157520612Y-103657951D01*
X158044784Y-103855895D01*
X158616271Y-104110247D01*
X159204307Y-104407872D01*
X159778125Y-104735634D01*
X160011667Y-104881814D01*
X160570602Y-105242160D01*
X160628837Y-103325830D01*
X160676922Y-101944687D01*
X160733234Y-100724676D01*
X160799363Y-99657729D01*
X160876900Y-98735773D01*
X160967436Y-97950739D01*
X161072560Y-97294557D01*
X161193863Y-96759156D01*
X161332935Y-96336466D01*
X161491368Y-96018416D01*
X161670751Y-95796936D01*
X161872675Y-95663956D01*
X162098731Y-95611405D01*
X162149447Y-95609833D01*
X162425176Y-95664586D01*
D14*
X168850000Y-90110000D02*
X168850000Y-91440000D01*
X170180000Y-90110000D02*
X168850000Y-90110000D01*
X171450000Y-90110000D02*
X171450000Y-92770000D01*
X171450000Y-92770000D02*
X174050000Y-92770000D01*
X171450000Y-90110000D02*
X174050000Y-90110000D01*
X174050000Y-90110000D02*
X174050000Y-92770000D01*
M02*
