G04 #@! TF.GenerationSoftware,KiCad,Pcbnew,5.1.5-52549c5~84~ubuntu18.04.1*
G04 #@! TF.CreationDate,2020-01-28T15:27:20+01:00*
G04 #@! TF.ProjectId,Nokolino,4e6f6b6f-6c69-46e6-9f2e-6b696361645f,3.0*
G04 #@! TF.SameCoordinates,Original*
G04 #@! TF.FileFunction,Copper,L1,Top*
G04 #@! TF.FilePolarity,Positive*
%FSLAX46Y46*%
G04 Gerber Fmt 4.6, Leading zero omitted, Abs format (unit mm)*
G04 Created by KiCad (PCBNEW 5.1.5-52549c5~84~ubuntu18.04.1) date 2020-01-28 15:27:20*
%MOMM*%
%LPD*%
G04 APERTURE LIST*
%ADD10C,2.000000*%
%ADD11O,2.000000X1.800000*%
%ADD12R,2.000000X1.800000*%
%ADD13C,1.524000*%
%ADD14C,5.600000*%
%ADD15O,1.700000X1.700000*%
%ADD16R,1.700000X1.700000*%
%ADD17C,1.600000*%
%ADD18O,1.600000X1.600000*%
%ADD19C,0.600000*%
%ADD20C,0.250000*%
%ADD21C,0.254000*%
G04 APERTURE END LIST*
D10*
X170599100Y-145249900D03*
X170599100Y-131737100D03*
X147739100Y-145046700D03*
X147739100Y-131940300D03*
X147739100Y-134683500D03*
X147739100Y-142303500D03*
D11*
X135382000Y-135953500D03*
X143002000Y-128333500D03*
X135382000Y-133413500D03*
X143002000Y-130873500D03*
X135382000Y-130873500D03*
X143002000Y-133413500D03*
X135382000Y-128333500D03*
D12*
X143002000Y-135953500D03*
D13*
X172500000Y-122300000D03*
X160500000Y-122300000D03*
D14*
X176000000Y-126500000D03*
X167250000Y-126500000D03*
D15*
X172720000Y-91440000D03*
D16*
X170180000Y-91440000D03*
D15*
X181250000Y-126290000D03*
D16*
X181250000Y-123750000D03*
D15*
X180975000Y-120015000D03*
X180975000Y-117475000D03*
X180975000Y-114935000D03*
X180975000Y-112395000D03*
X180975000Y-109855000D03*
D16*
X180975000Y-107315000D03*
D17*
X135250000Y-123500000D03*
D18*
X135250000Y-115880000D03*
D10*
X139250000Y-95500000D03*
X134750000Y-95500000D03*
X139250000Y-89000000D03*
X134750000Y-89000000D03*
X177250000Y-89000000D03*
X181750000Y-89000000D03*
X177250000Y-95500000D03*
X181750000Y-95500000D03*
X181750000Y-146000000D03*
X177250000Y-146000000D03*
X181750000Y-139500000D03*
X177250000Y-139500000D03*
X134750000Y-139500000D03*
X139250000Y-139500000D03*
X134750000Y-146000000D03*
X139250000Y-146000000D03*
X138430000Y-101600000D03*
X138430000Y-104140000D03*
X138430000Y-106680000D03*
X138430000Y-109220000D03*
X138430000Y-111760000D03*
X138430000Y-114300000D03*
X138430000Y-116840000D03*
X138430000Y-119380000D03*
X138430000Y-121920000D03*
X138430000Y-124460000D03*
X144780000Y-95250000D03*
X147320000Y-95250000D03*
D19*
X134620000Y-109220000D03*
X134620000Y-109220000D03*
X139700000Y-128270000D03*
X139700000Y-128270000D03*
D20*
X158340000Y-124460000D02*
X138430000Y-124460000D01*
X160500000Y-122300000D02*
X158340000Y-124460000D01*
X139429999Y-120920001D02*
X138430000Y-121920000D01*
X171120001Y-120920001D02*
X139429999Y-120920001D01*
X172500000Y-122300000D02*
X171120001Y-120920001D01*
X181750000Y-146000000D02*
X181750000Y-139500000D01*
X140249999Y-146999999D02*
X139250000Y-146000000D01*
X174250001Y-146999999D02*
X140249999Y-146999999D01*
X139250000Y-146000000D02*
X139250000Y-139500000D01*
X139250000Y-89000000D02*
X139250000Y-95500000D01*
X139250000Y-89000000D02*
X175250000Y-89000000D01*
X181750000Y-89000000D02*
X181750000Y-95500000D01*
X134620000Y-100130000D02*
X134620000Y-109220000D01*
X139250000Y-95500000D02*
X134620000Y-100130000D01*
X176613999Y-144674999D02*
X174189008Y-147099990D01*
X181750000Y-146000000D02*
X180424999Y-144674999D01*
X180424999Y-144674999D02*
X176613999Y-144674999D01*
X180750001Y-89999999D02*
X181750000Y-89000000D01*
X180424999Y-90325001D02*
X180750001Y-89999999D01*
X176575001Y-90325001D02*
X180424999Y-90325001D01*
X175250000Y-89000000D02*
X176575001Y-90325001D01*
X144145000Y-120015000D02*
X144068800Y-119938800D01*
X180975000Y-120015000D02*
X144145000Y-120015000D01*
X144068800Y-119938800D02*
X138430000Y-114300000D01*
X139700000Y-132885500D02*
X136632000Y-135953500D01*
X136632000Y-135953500D02*
X135382000Y-135953500D01*
X139700000Y-128270000D02*
X139700000Y-132885500D01*
X181250000Y-120290000D02*
X180975000Y-120015000D01*
X181250000Y-123750000D02*
X181250000Y-120290000D01*
X164465000Y-112395000D02*
X147320000Y-95250000D01*
X180975000Y-112395000D02*
X164465000Y-112395000D01*
X164465000Y-114935000D02*
X180975000Y-114935000D01*
X144780000Y-95250000D02*
X164465000Y-114935000D01*
X133750001Y-138500001D02*
X134750000Y-139500000D01*
X133606981Y-138356981D02*
X133750001Y-138500001D01*
X133606981Y-96643019D02*
X133606981Y-138356981D01*
X134750000Y-95500000D02*
X133606981Y-96643019D01*
X134750000Y-94085787D02*
X134750000Y-89000000D01*
X134750000Y-95500000D02*
X134750000Y-94085787D01*
X144132300Y-128333500D02*
X143002000Y-128333500D01*
X147739100Y-131940300D02*
X144132300Y-128333500D01*
X135749999Y-138500001D02*
X134750000Y-139500000D01*
X139521501Y-134728499D02*
X135749999Y-138500001D01*
X144950901Y-134728499D02*
X139521501Y-134728499D01*
X147739100Y-131940300D02*
X144950901Y-134728499D01*
X134750000Y-140914213D02*
X134750000Y-146000000D01*
X134750000Y-139500000D02*
X134750000Y-140914213D01*
X141752000Y-133413500D02*
X143002000Y-133413500D01*
X141676990Y-127563010D02*
X141676990Y-133338490D01*
X143609415Y-127108490D02*
X142131510Y-127108490D01*
X141676990Y-133338490D02*
X141752000Y-133413500D01*
X146125926Y-129625001D02*
X143609415Y-127108490D01*
X142131510Y-127108490D02*
X141676990Y-127563010D01*
X168750001Y-129625001D02*
X146125926Y-129625001D01*
X172160000Y-126215002D02*
X168750001Y-129625001D01*
X172160000Y-125714998D02*
X172160000Y-126215002D01*
X174499999Y-123374999D02*
X172160000Y-125714998D01*
X178334999Y-123374999D02*
X174499999Y-123374999D01*
X181250000Y-126290000D02*
X178334999Y-123374999D01*
X134056990Y-133338490D02*
X134132000Y-133413500D01*
X134132000Y-133413500D02*
X135382000Y-133413500D01*
X134056990Y-111053010D02*
X134056990Y-133338490D01*
X138430000Y-106680000D02*
X134056990Y-111053010D01*
X136632000Y-130873500D02*
X135382000Y-130873500D01*
X137104999Y-130400501D02*
X136632000Y-130873500D01*
X137104999Y-110545001D02*
X137104999Y-130400501D01*
X138430000Y-109220000D02*
X137104999Y-110545001D01*
D21*
G36*
X179821525Y-120961632D02*
G01*
X180028368Y-121168475D01*
X180271589Y-121330990D01*
X180490001Y-121421459D01*
X180490000Y-122261928D01*
X180400000Y-122261928D01*
X180275518Y-122274188D01*
X180155820Y-122310498D01*
X180045506Y-122369463D01*
X179948815Y-122448815D01*
X179869463Y-122545506D01*
X179810498Y-122655820D01*
X179774188Y-122775518D01*
X179761928Y-122900000D01*
X179761928Y-123727127D01*
X178898803Y-122864002D01*
X178875000Y-122834998D01*
X178759275Y-122740025D01*
X178627246Y-122669453D01*
X178483985Y-122625996D01*
X178372332Y-122614999D01*
X178372321Y-122614999D01*
X178334999Y-122611323D01*
X178297677Y-122614999D01*
X174537321Y-122614999D01*
X174499998Y-122611323D01*
X174462675Y-122614999D01*
X174462666Y-122614999D01*
X174351013Y-122625996D01*
X174207752Y-122669453D01*
X174075723Y-122740025D01*
X173959998Y-122834998D01*
X173936200Y-122863996D01*
X171649003Y-125151194D01*
X171619999Y-125174997D01*
X171580050Y-125223676D01*
X171525026Y-125290722D01*
X171496886Y-125343368D01*
X171454454Y-125422752D01*
X171410997Y-125566013D01*
X171400000Y-125677666D01*
X171400000Y-125677676D01*
X171396324Y-125714998D01*
X171400000Y-125752320D01*
X171400000Y-125900200D01*
X170685000Y-126615200D01*
X170685000Y-126161682D01*
X170552994Y-125498048D01*
X170294057Y-124872918D01*
X169918138Y-124310315D01*
X169439685Y-123831862D01*
X168877082Y-123455943D01*
X168251952Y-123197006D01*
X167588318Y-123065000D01*
X166911682Y-123065000D01*
X166248048Y-123197006D01*
X165622918Y-123455943D01*
X165060315Y-123831862D01*
X164581862Y-124310315D01*
X164205943Y-124872918D01*
X163947006Y-125498048D01*
X163815000Y-126161682D01*
X163815000Y-126838318D01*
X163947006Y-127501952D01*
X164205943Y-128127082D01*
X164581862Y-128689685D01*
X164757178Y-128865001D01*
X146440728Y-128865001D01*
X144173219Y-126597493D01*
X144149416Y-126568489D01*
X144033691Y-126473516D01*
X143901662Y-126402944D01*
X143758401Y-126359487D01*
X143646748Y-126348490D01*
X143646737Y-126348490D01*
X143609415Y-126344814D01*
X143572093Y-126348490D01*
X142168832Y-126348490D01*
X142131509Y-126344814D01*
X142094186Y-126348490D01*
X142094177Y-126348490D01*
X141982524Y-126359487D01*
X141839263Y-126402944D01*
X141707234Y-126473516D01*
X141591509Y-126568489D01*
X141567706Y-126597493D01*
X141165993Y-126999206D01*
X141136989Y-127023009D01*
X141081861Y-127090184D01*
X141042016Y-127138734D01*
X140995659Y-127225462D01*
X140971444Y-127270764D01*
X140927987Y-127414025D01*
X140916990Y-127525678D01*
X140916990Y-127525688D01*
X140913314Y-127563010D01*
X140916990Y-127600333D01*
X140916991Y-133301158D01*
X140913314Y-133338490D01*
X140927988Y-133487475D01*
X140971444Y-133630736D01*
X141042016Y-133762766D01*
X141103575Y-133837775D01*
X141136990Y-133878491D01*
X141165988Y-133902289D01*
X141188196Y-133924497D01*
X141211999Y-133953501D01*
X141327724Y-134048474D01*
X141459753Y-134119046D01*
X141553863Y-134147593D01*
X141619519Y-134270427D01*
X141774280Y-134459005D01*
X141757820Y-134463998D01*
X141647506Y-134522963D01*
X141550815Y-134602315D01*
X141471463Y-134699006D01*
X141412498Y-134809320D01*
X141376188Y-134929018D01*
X141363928Y-135053500D01*
X141363928Y-136853500D01*
X141376188Y-136977982D01*
X141412498Y-137097680D01*
X141471463Y-137207994D01*
X141550815Y-137304685D01*
X141647506Y-137384037D01*
X141757820Y-137443002D01*
X141877518Y-137479312D01*
X142002000Y-137491572D01*
X144002000Y-137491572D01*
X144126482Y-137479312D01*
X144246180Y-137443002D01*
X144356494Y-137384037D01*
X144453185Y-137304685D01*
X144532537Y-137207994D01*
X144591502Y-137097680D01*
X144627812Y-136977982D01*
X144640072Y-136853500D01*
X144640072Y-135053500D01*
X144627812Y-134929018D01*
X144591502Y-134809320D01*
X144532537Y-134699006D01*
X144453185Y-134602315D01*
X144356494Y-134522963D01*
X144355567Y-134522467D01*
X146104100Y-134522467D01*
X146104100Y-134844533D01*
X146166932Y-135160412D01*
X146290182Y-135457963D01*
X146469113Y-135725752D01*
X146696848Y-135953487D01*
X146964637Y-136132418D01*
X147262188Y-136255668D01*
X147578067Y-136318500D01*
X147900133Y-136318500D01*
X148216012Y-136255668D01*
X148513563Y-136132418D01*
X148781352Y-135953487D01*
X149009087Y-135725752D01*
X149188018Y-135457963D01*
X149311268Y-135160412D01*
X149374100Y-134844533D01*
X149374100Y-134522467D01*
X149311268Y-134206588D01*
X149188018Y-133909037D01*
X149009087Y-133641248D01*
X148781352Y-133413513D01*
X148613243Y-133301186D01*
X148694908Y-133075713D01*
X147739100Y-132119905D01*
X146783292Y-133075713D01*
X146864957Y-133301186D01*
X146696848Y-133413513D01*
X146469113Y-133641248D01*
X146290182Y-133909037D01*
X146166932Y-134206588D01*
X146104100Y-134522467D01*
X144355567Y-134522467D01*
X144246180Y-134463998D01*
X144229720Y-134459005D01*
X144384481Y-134270427D01*
X144527017Y-134003761D01*
X144614790Y-133714413D01*
X144644427Y-133413500D01*
X144614790Y-133112587D01*
X144527017Y-132823239D01*
X144384481Y-132556573D01*
X144192661Y-132322839D01*
X143974135Y-132143500D01*
X144145463Y-132002895D01*
X146097382Y-132002895D01*
X146141139Y-132321975D01*
X146246305Y-132626388D01*
X146339286Y-132800344D01*
X146603687Y-132896108D01*
X147559495Y-131940300D01*
X147918705Y-131940300D01*
X148874513Y-132896108D01*
X149138914Y-132800344D01*
X149279804Y-132510729D01*
X149361484Y-132199192D01*
X149380818Y-131877705D01*
X149339453Y-131576067D01*
X168964100Y-131576067D01*
X168964100Y-131898133D01*
X169026932Y-132214012D01*
X169150182Y-132511563D01*
X169329113Y-132779352D01*
X169556848Y-133007087D01*
X169824637Y-133186018D01*
X170122188Y-133309268D01*
X170438067Y-133372100D01*
X170760133Y-133372100D01*
X171076012Y-133309268D01*
X171373563Y-133186018D01*
X171641352Y-133007087D01*
X171869087Y-132779352D01*
X172048018Y-132511563D01*
X172171268Y-132214012D01*
X172234100Y-131898133D01*
X172234100Y-131576067D01*
X172171268Y-131260188D01*
X172048018Y-130962637D01*
X171869087Y-130694848D01*
X171641352Y-130467113D01*
X171373563Y-130288182D01*
X171076012Y-130164932D01*
X170760133Y-130102100D01*
X170438067Y-130102100D01*
X170122188Y-130164932D01*
X169824637Y-130288182D01*
X169556848Y-130467113D01*
X169329113Y-130694848D01*
X169150182Y-130962637D01*
X169026932Y-131260188D01*
X168964100Y-131576067D01*
X149339453Y-131576067D01*
X149337061Y-131558625D01*
X149231895Y-131254212D01*
X149138914Y-131080256D01*
X148874513Y-130984492D01*
X147918705Y-131940300D01*
X147559495Y-131940300D01*
X146603687Y-130984492D01*
X146339286Y-131080256D01*
X146198396Y-131369871D01*
X146116716Y-131681408D01*
X146097382Y-132002895D01*
X144145463Y-132002895D01*
X144192661Y-131964161D01*
X144384481Y-131730427D01*
X144527017Y-131463761D01*
X144614790Y-131174413D01*
X144644427Y-130873500D01*
X144614790Y-130572587D01*
X144527017Y-130283239D01*
X144384481Y-130016573D01*
X144192661Y-129782839D01*
X143965621Y-129596512D01*
X144163029Y-129441538D01*
X144358809Y-129213251D01*
X144459836Y-129033713D01*
X145562127Y-130136004D01*
X145585925Y-130165002D01*
X145614923Y-130188800D01*
X145701649Y-130259975D01*
X145810048Y-130317916D01*
X145833679Y-130330547D01*
X145976940Y-130374004D01*
X146088593Y-130385001D01*
X146088603Y-130385001D01*
X146125926Y-130388677D01*
X146163248Y-130385001D01*
X147233936Y-130385001D01*
X147053012Y-130447505D01*
X146879056Y-130540486D01*
X146783292Y-130804887D01*
X147739100Y-131760695D01*
X148694908Y-130804887D01*
X148599144Y-130540486D01*
X148309529Y-130399596D01*
X148253862Y-130385001D01*
X168712679Y-130385001D01*
X168750001Y-130388677D01*
X168787323Y-130385001D01*
X168787334Y-130385001D01*
X168898987Y-130374004D01*
X169042248Y-130330547D01*
X169174277Y-130259975D01*
X169290002Y-130165002D01*
X169313805Y-130135998D01*
X172572713Y-126877091D01*
X172697006Y-127501952D01*
X172955943Y-128127082D01*
X173331862Y-128689685D01*
X173810315Y-129168138D01*
X174372918Y-129544057D01*
X174998048Y-129802994D01*
X175661682Y-129935000D01*
X176338318Y-129935000D01*
X177001952Y-129802994D01*
X177627082Y-129544057D01*
X178189685Y-129168138D01*
X178668138Y-128689685D01*
X179044057Y-128127082D01*
X179302994Y-127501952D01*
X179435000Y-126838318D01*
X179435000Y-126161682D01*
X179302994Y-125498048D01*
X179246247Y-125361049D01*
X179808790Y-125923592D01*
X179765000Y-126143740D01*
X179765000Y-126436260D01*
X179822068Y-126723158D01*
X179934010Y-126993411D01*
X180096525Y-127236632D01*
X180303368Y-127443475D01*
X180546589Y-127605990D01*
X180816842Y-127717932D01*
X181103740Y-127775000D01*
X181396260Y-127775000D01*
X181683158Y-127717932D01*
X181953411Y-127605990D01*
X182196632Y-127443475D01*
X182403475Y-127236632D01*
X182490000Y-127107138D01*
X182490000Y-138036807D01*
X182226912Y-137927832D01*
X181911033Y-137865000D01*
X181588967Y-137865000D01*
X181273088Y-137927832D01*
X180975537Y-138051082D01*
X180707748Y-138230013D01*
X180480013Y-138457748D01*
X180301082Y-138725537D01*
X180177832Y-139023088D01*
X180115000Y-139338967D01*
X180115000Y-139661033D01*
X180177832Y-139976912D01*
X180301082Y-140274463D01*
X180480013Y-140542252D01*
X180707748Y-140769987D01*
X180975537Y-140948918D01*
X180990001Y-140954909D01*
X180990000Y-144165199D01*
X180988802Y-144164001D01*
X180965000Y-144134998D01*
X180849275Y-144040025D01*
X180717246Y-143969453D01*
X180573985Y-143925996D01*
X180462332Y-143914999D01*
X180462321Y-143914999D01*
X180424999Y-143911323D01*
X180387677Y-143914999D01*
X176651321Y-143914999D01*
X176613998Y-143911323D01*
X176576675Y-143914999D01*
X176576666Y-143914999D01*
X176465013Y-143925996D01*
X176321752Y-143969453D01*
X176189723Y-144040025D01*
X176073998Y-144134998D01*
X176050200Y-144163996D01*
X173974198Y-146239999D01*
X171903935Y-146239999D01*
X172048018Y-146024363D01*
X172171268Y-145726812D01*
X172234100Y-145410933D01*
X172234100Y-145088867D01*
X172171268Y-144772988D01*
X172048018Y-144475437D01*
X171869087Y-144207648D01*
X171641352Y-143979913D01*
X171373563Y-143800982D01*
X171076012Y-143677732D01*
X170760133Y-143614900D01*
X170438067Y-143614900D01*
X170122188Y-143677732D01*
X169824637Y-143800982D01*
X169556848Y-143979913D01*
X169329113Y-144207648D01*
X169150182Y-144475437D01*
X169026932Y-144772988D01*
X168964100Y-145088867D01*
X168964100Y-145410933D01*
X169026932Y-145726812D01*
X169150182Y-146024363D01*
X169294265Y-146239999D01*
X148858040Y-146239999D01*
X149009087Y-146088952D01*
X149188018Y-145821163D01*
X149311268Y-145523612D01*
X149374100Y-145207733D01*
X149374100Y-144885667D01*
X149311268Y-144569788D01*
X149188018Y-144272237D01*
X149009087Y-144004448D01*
X148781352Y-143776713D01*
X148629277Y-143675100D01*
X148781352Y-143573487D01*
X149009087Y-143345752D01*
X149188018Y-143077963D01*
X149311268Y-142780412D01*
X149374100Y-142464533D01*
X149374100Y-142142467D01*
X149311268Y-141826588D01*
X149188018Y-141529037D01*
X149009087Y-141261248D01*
X148781352Y-141033513D01*
X148513563Y-140854582D01*
X148216012Y-140731332D01*
X147900133Y-140668500D01*
X147578067Y-140668500D01*
X147262188Y-140731332D01*
X146964637Y-140854582D01*
X146696848Y-141033513D01*
X146469113Y-141261248D01*
X146290182Y-141529037D01*
X146166932Y-141826588D01*
X146104100Y-142142467D01*
X146104100Y-142464533D01*
X146166932Y-142780412D01*
X146290182Y-143077963D01*
X146469113Y-143345752D01*
X146696848Y-143573487D01*
X146848923Y-143675100D01*
X146696848Y-143776713D01*
X146469113Y-144004448D01*
X146290182Y-144272237D01*
X146166932Y-144569788D01*
X146104100Y-144885667D01*
X146104100Y-145207733D01*
X146166932Y-145523612D01*
X146290182Y-145821163D01*
X146469113Y-146088952D01*
X146620160Y-146239999D01*
X140869293Y-146239999D01*
X140885000Y-146161033D01*
X140885000Y-145838967D01*
X140822168Y-145523088D01*
X140698918Y-145225537D01*
X140519987Y-144957748D01*
X140292252Y-144730013D01*
X140024463Y-144551082D01*
X140010000Y-144545091D01*
X140010000Y-140954909D01*
X140024463Y-140948918D01*
X140292252Y-140769987D01*
X140426826Y-140635413D01*
X176294192Y-140635413D01*
X176389956Y-140899814D01*
X176679571Y-141040704D01*
X176991108Y-141122384D01*
X177312595Y-141141718D01*
X177631675Y-141097961D01*
X177936088Y-140992795D01*
X178110044Y-140899814D01*
X178205808Y-140635413D01*
X177250000Y-139679605D01*
X176294192Y-140635413D01*
X140426826Y-140635413D01*
X140519987Y-140542252D01*
X140698918Y-140274463D01*
X140822168Y-139976912D01*
X140885000Y-139661033D01*
X140885000Y-139562595D01*
X175608282Y-139562595D01*
X175652039Y-139881675D01*
X175757205Y-140186088D01*
X175850186Y-140360044D01*
X176114587Y-140455808D01*
X177070395Y-139500000D01*
X177429605Y-139500000D01*
X178385413Y-140455808D01*
X178649814Y-140360044D01*
X178790704Y-140070429D01*
X178872384Y-139758892D01*
X178891718Y-139437405D01*
X178847961Y-139118325D01*
X178742795Y-138813912D01*
X178649814Y-138639956D01*
X178385413Y-138544192D01*
X177429605Y-139500000D01*
X177070395Y-139500000D01*
X176114587Y-138544192D01*
X175850186Y-138639956D01*
X175709296Y-138929571D01*
X175627616Y-139241108D01*
X175608282Y-139562595D01*
X140885000Y-139562595D01*
X140885000Y-139338967D01*
X140822168Y-139023088D01*
X140698918Y-138725537D01*
X140519987Y-138457748D01*
X140426826Y-138364587D01*
X176294192Y-138364587D01*
X177250000Y-139320395D01*
X178205808Y-138364587D01*
X178110044Y-138100186D01*
X177820429Y-137959296D01*
X177508892Y-137877616D01*
X177187405Y-137858282D01*
X176868325Y-137902039D01*
X176563912Y-138007205D01*
X176389956Y-138100186D01*
X176294192Y-138364587D01*
X140426826Y-138364587D01*
X140292252Y-138230013D01*
X140024463Y-138051082D01*
X139726912Y-137927832D01*
X139411033Y-137865000D01*
X139088967Y-137865000D01*
X138773088Y-137927832D01*
X138475537Y-138051082D01*
X138207748Y-138230013D01*
X137980013Y-138457748D01*
X137801082Y-138725537D01*
X137677832Y-139023088D01*
X137615000Y-139338967D01*
X137615000Y-139661033D01*
X137677832Y-139976912D01*
X137801082Y-140274463D01*
X137980013Y-140542252D01*
X138207748Y-140769987D01*
X138475537Y-140948918D01*
X138490001Y-140954909D01*
X138490000Y-144545091D01*
X138475537Y-144551082D01*
X138207748Y-144730013D01*
X137980013Y-144957748D01*
X137801082Y-145225537D01*
X137677832Y-145523088D01*
X137615000Y-145838967D01*
X137615000Y-146161033D01*
X137677832Y-146476912D01*
X137801082Y-146774463D01*
X137811463Y-146790000D01*
X136183889Y-146790000D01*
X136290704Y-146570429D01*
X136372384Y-146258892D01*
X136391718Y-145937405D01*
X136347961Y-145618325D01*
X136242795Y-145313912D01*
X136149814Y-145139956D01*
X135885413Y-145044192D01*
X134929605Y-146000000D01*
X134943748Y-146014143D01*
X134764143Y-146193748D01*
X134750000Y-146179605D01*
X134735858Y-146193748D01*
X134556253Y-146014143D01*
X134570395Y-146000000D01*
X134556253Y-145985858D01*
X134735858Y-145806253D01*
X134750000Y-145820395D01*
X135705808Y-144864587D01*
X135610044Y-144600186D01*
X135320429Y-144459296D01*
X135008892Y-144377616D01*
X134687405Y-144358282D01*
X134368325Y-144402039D01*
X134063912Y-144507205D01*
X133910000Y-144589472D01*
X133910000Y-140909565D01*
X134179571Y-141040704D01*
X134491108Y-141122384D01*
X134812595Y-141141718D01*
X135131675Y-141097961D01*
X135436088Y-140992795D01*
X135610044Y-140899814D01*
X135705808Y-140635413D01*
X134750000Y-139679605D01*
X134735858Y-139693748D01*
X134556253Y-139514143D01*
X134570395Y-139500000D01*
X134929605Y-139500000D01*
X135885413Y-140455808D01*
X136149814Y-140360044D01*
X136290704Y-140070429D01*
X136372384Y-139758892D01*
X136391718Y-139437405D01*
X136347961Y-139118325D01*
X136242795Y-138813912D01*
X136149814Y-138639956D01*
X135885413Y-138544192D01*
X134929605Y-139500000D01*
X134570395Y-139500000D01*
X134556253Y-139485858D01*
X134735858Y-139306253D01*
X134750000Y-139320395D01*
X135705808Y-138364587D01*
X135610044Y-138100186D01*
X135320429Y-137959296D01*
X135008892Y-137877616D01*
X134687405Y-137858282D01*
X134368325Y-137902039D01*
X134063912Y-138007205D01*
X133910000Y-138089472D01*
X133910000Y-136642949D01*
X133999519Y-136810427D01*
X134191339Y-137044161D01*
X134425073Y-137235981D01*
X134691739Y-137378517D01*
X134981087Y-137466290D01*
X135206592Y-137488500D01*
X135557408Y-137488500D01*
X135782913Y-137466290D01*
X136072261Y-137378517D01*
X136338927Y-137235981D01*
X136572661Y-137044161D01*
X136764481Y-136810427D01*
X136830137Y-136687593D01*
X136924247Y-136659046D01*
X137056276Y-136588474D01*
X137172001Y-136493501D01*
X137195804Y-136464497D01*
X140211003Y-133449299D01*
X140240001Y-133425501D01*
X140334974Y-133309776D01*
X140405546Y-133177747D01*
X140449003Y-133034486D01*
X140460000Y-132922833D01*
X140460000Y-132922824D01*
X140463676Y-132885501D01*
X140460000Y-132848178D01*
X140460000Y-128815535D01*
X140528586Y-128712889D01*
X140599068Y-128542729D01*
X140635000Y-128362089D01*
X140635000Y-128177911D01*
X140599068Y-127997271D01*
X140528586Y-127827111D01*
X140426262Y-127673972D01*
X140296028Y-127543738D01*
X140142889Y-127441414D01*
X139972729Y-127370932D01*
X139792089Y-127335000D01*
X139607911Y-127335000D01*
X139427271Y-127370932D01*
X139257111Y-127441414D01*
X139103972Y-127543738D01*
X138973738Y-127673972D01*
X138871414Y-127827111D01*
X138800932Y-127997271D01*
X138765000Y-128177911D01*
X138765000Y-128362089D01*
X138800932Y-128542729D01*
X138871414Y-128712889D01*
X138940000Y-128815536D01*
X138940001Y-132570697D01*
X136606557Y-134904142D01*
X136572661Y-134862839D01*
X136354135Y-134683500D01*
X136572661Y-134504161D01*
X136764481Y-134270427D01*
X136907017Y-134003761D01*
X136994790Y-133714413D01*
X137024427Y-133413500D01*
X136994790Y-133112587D01*
X136907017Y-132823239D01*
X136764481Y-132556573D01*
X136572661Y-132322839D01*
X136354135Y-132143500D01*
X136572661Y-131964161D01*
X136764481Y-131730427D01*
X136830137Y-131607593D01*
X136924247Y-131579046D01*
X137056276Y-131508474D01*
X137172001Y-131413501D01*
X137195804Y-131384497D01*
X137615996Y-130964305D01*
X137645000Y-130940502D01*
X137739973Y-130824777D01*
X137810545Y-130692748D01*
X137854002Y-130549487D01*
X137864999Y-130437834D01*
X137868676Y-130400501D01*
X137864999Y-130363168D01*
X137864999Y-125995680D01*
X137953088Y-126032168D01*
X138268967Y-126095000D01*
X138591033Y-126095000D01*
X138906912Y-126032168D01*
X139204463Y-125908918D01*
X139472252Y-125729987D01*
X139699987Y-125502252D01*
X139878918Y-125234463D01*
X139884909Y-125220000D01*
X158302678Y-125220000D01*
X158340000Y-125223676D01*
X158377322Y-125220000D01*
X158377333Y-125220000D01*
X158488986Y-125209003D01*
X158632247Y-125165546D01*
X158764276Y-125094974D01*
X158880001Y-125000001D01*
X158903804Y-124970997D01*
X160208430Y-123666372D01*
X160362408Y-123697000D01*
X160637592Y-123697000D01*
X160907490Y-123643314D01*
X161161727Y-123538005D01*
X161390535Y-123385120D01*
X161585120Y-123190535D01*
X161738005Y-122961727D01*
X161843314Y-122707490D01*
X161897000Y-122437592D01*
X161897000Y-122162408D01*
X161843314Y-121892510D01*
X161755289Y-121680001D01*
X170805200Y-121680001D01*
X171133628Y-122008430D01*
X171103000Y-122162408D01*
X171103000Y-122437592D01*
X171156686Y-122707490D01*
X171261995Y-122961727D01*
X171414880Y-123190535D01*
X171609465Y-123385120D01*
X171838273Y-123538005D01*
X172092510Y-123643314D01*
X172362408Y-123697000D01*
X172637592Y-123697000D01*
X172907490Y-123643314D01*
X173161727Y-123538005D01*
X173390535Y-123385120D01*
X173585120Y-123190535D01*
X173738005Y-122961727D01*
X173843314Y-122707490D01*
X173897000Y-122437592D01*
X173897000Y-122162408D01*
X173843314Y-121892510D01*
X173738005Y-121638273D01*
X173585120Y-121409465D01*
X173390535Y-121214880D01*
X173161727Y-121061995D01*
X172907490Y-120956686D01*
X172637592Y-120903000D01*
X172362408Y-120903000D01*
X172208430Y-120933628D01*
X172049801Y-120775000D01*
X179696822Y-120775000D01*
X179821525Y-120961632D01*
G37*
X179821525Y-120961632D02*
X180028368Y-121168475D01*
X180271589Y-121330990D01*
X180490001Y-121421459D01*
X180490000Y-122261928D01*
X180400000Y-122261928D01*
X180275518Y-122274188D01*
X180155820Y-122310498D01*
X180045506Y-122369463D01*
X179948815Y-122448815D01*
X179869463Y-122545506D01*
X179810498Y-122655820D01*
X179774188Y-122775518D01*
X179761928Y-122900000D01*
X179761928Y-123727127D01*
X178898803Y-122864002D01*
X178875000Y-122834998D01*
X178759275Y-122740025D01*
X178627246Y-122669453D01*
X178483985Y-122625996D01*
X178372332Y-122614999D01*
X178372321Y-122614999D01*
X178334999Y-122611323D01*
X178297677Y-122614999D01*
X174537321Y-122614999D01*
X174499998Y-122611323D01*
X174462675Y-122614999D01*
X174462666Y-122614999D01*
X174351013Y-122625996D01*
X174207752Y-122669453D01*
X174075723Y-122740025D01*
X173959998Y-122834998D01*
X173936200Y-122863996D01*
X171649003Y-125151194D01*
X171619999Y-125174997D01*
X171580050Y-125223676D01*
X171525026Y-125290722D01*
X171496886Y-125343368D01*
X171454454Y-125422752D01*
X171410997Y-125566013D01*
X171400000Y-125677666D01*
X171400000Y-125677676D01*
X171396324Y-125714998D01*
X171400000Y-125752320D01*
X171400000Y-125900200D01*
X170685000Y-126615200D01*
X170685000Y-126161682D01*
X170552994Y-125498048D01*
X170294057Y-124872918D01*
X169918138Y-124310315D01*
X169439685Y-123831862D01*
X168877082Y-123455943D01*
X168251952Y-123197006D01*
X167588318Y-123065000D01*
X166911682Y-123065000D01*
X166248048Y-123197006D01*
X165622918Y-123455943D01*
X165060315Y-123831862D01*
X164581862Y-124310315D01*
X164205943Y-124872918D01*
X163947006Y-125498048D01*
X163815000Y-126161682D01*
X163815000Y-126838318D01*
X163947006Y-127501952D01*
X164205943Y-128127082D01*
X164581862Y-128689685D01*
X164757178Y-128865001D01*
X146440728Y-128865001D01*
X144173219Y-126597493D01*
X144149416Y-126568489D01*
X144033691Y-126473516D01*
X143901662Y-126402944D01*
X143758401Y-126359487D01*
X143646748Y-126348490D01*
X143646737Y-126348490D01*
X143609415Y-126344814D01*
X143572093Y-126348490D01*
X142168832Y-126348490D01*
X142131509Y-126344814D01*
X142094186Y-126348490D01*
X142094177Y-126348490D01*
X141982524Y-126359487D01*
X141839263Y-126402944D01*
X141707234Y-126473516D01*
X141591509Y-126568489D01*
X141567706Y-126597493D01*
X141165993Y-126999206D01*
X141136989Y-127023009D01*
X141081861Y-127090184D01*
X141042016Y-127138734D01*
X140995659Y-127225462D01*
X140971444Y-127270764D01*
X140927987Y-127414025D01*
X140916990Y-127525678D01*
X140916990Y-127525688D01*
X140913314Y-127563010D01*
X140916990Y-127600333D01*
X140916991Y-133301158D01*
X140913314Y-133338490D01*
X140927988Y-133487475D01*
X140971444Y-133630736D01*
X141042016Y-133762766D01*
X141103575Y-133837775D01*
X141136990Y-133878491D01*
X141165988Y-133902289D01*
X141188196Y-133924497D01*
X141211999Y-133953501D01*
X141327724Y-134048474D01*
X141459753Y-134119046D01*
X141553863Y-134147593D01*
X141619519Y-134270427D01*
X141774280Y-134459005D01*
X141757820Y-134463998D01*
X141647506Y-134522963D01*
X141550815Y-134602315D01*
X141471463Y-134699006D01*
X141412498Y-134809320D01*
X141376188Y-134929018D01*
X141363928Y-135053500D01*
X141363928Y-136853500D01*
X141376188Y-136977982D01*
X141412498Y-137097680D01*
X141471463Y-137207994D01*
X141550815Y-137304685D01*
X141647506Y-137384037D01*
X141757820Y-137443002D01*
X141877518Y-137479312D01*
X142002000Y-137491572D01*
X144002000Y-137491572D01*
X144126482Y-137479312D01*
X144246180Y-137443002D01*
X144356494Y-137384037D01*
X144453185Y-137304685D01*
X144532537Y-137207994D01*
X144591502Y-137097680D01*
X144627812Y-136977982D01*
X144640072Y-136853500D01*
X144640072Y-135053500D01*
X144627812Y-134929018D01*
X144591502Y-134809320D01*
X144532537Y-134699006D01*
X144453185Y-134602315D01*
X144356494Y-134522963D01*
X144355567Y-134522467D01*
X146104100Y-134522467D01*
X146104100Y-134844533D01*
X146166932Y-135160412D01*
X146290182Y-135457963D01*
X146469113Y-135725752D01*
X146696848Y-135953487D01*
X146964637Y-136132418D01*
X147262188Y-136255668D01*
X147578067Y-136318500D01*
X147900133Y-136318500D01*
X148216012Y-136255668D01*
X148513563Y-136132418D01*
X148781352Y-135953487D01*
X149009087Y-135725752D01*
X149188018Y-135457963D01*
X149311268Y-135160412D01*
X149374100Y-134844533D01*
X149374100Y-134522467D01*
X149311268Y-134206588D01*
X149188018Y-133909037D01*
X149009087Y-133641248D01*
X148781352Y-133413513D01*
X148613243Y-133301186D01*
X148694908Y-133075713D01*
X147739100Y-132119905D01*
X146783292Y-133075713D01*
X146864957Y-133301186D01*
X146696848Y-133413513D01*
X146469113Y-133641248D01*
X146290182Y-133909037D01*
X146166932Y-134206588D01*
X146104100Y-134522467D01*
X144355567Y-134522467D01*
X144246180Y-134463998D01*
X144229720Y-134459005D01*
X144384481Y-134270427D01*
X144527017Y-134003761D01*
X144614790Y-133714413D01*
X144644427Y-133413500D01*
X144614790Y-133112587D01*
X144527017Y-132823239D01*
X144384481Y-132556573D01*
X144192661Y-132322839D01*
X143974135Y-132143500D01*
X144145463Y-132002895D01*
X146097382Y-132002895D01*
X146141139Y-132321975D01*
X146246305Y-132626388D01*
X146339286Y-132800344D01*
X146603687Y-132896108D01*
X147559495Y-131940300D01*
X147918705Y-131940300D01*
X148874513Y-132896108D01*
X149138914Y-132800344D01*
X149279804Y-132510729D01*
X149361484Y-132199192D01*
X149380818Y-131877705D01*
X149339453Y-131576067D01*
X168964100Y-131576067D01*
X168964100Y-131898133D01*
X169026932Y-132214012D01*
X169150182Y-132511563D01*
X169329113Y-132779352D01*
X169556848Y-133007087D01*
X169824637Y-133186018D01*
X170122188Y-133309268D01*
X170438067Y-133372100D01*
X170760133Y-133372100D01*
X171076012Y-133309268D01*
X171373563Y-133186018D01*
X171641352Y-133007087D01*
X171869087Y-132779352D01*
X172048018Y-132511563D01*
X172171268Y-132214012D01*
X172234100Y-131898133D01*
X172234100Y-131576067D01*
X172171268Y-131260188D01*
X172048018Y-130962637D01*
X171869087Y-130694848D01*
X171641352Y-130467113D01*
X171373563Y-130288182D01*
X171076012Y-130164932D01*
X170760133Y-130102100D01*
X170438067Y-130102100D01*
X170122188Y-130164932D01*
X169824637Y-130288182D01*
X169556848Y-130467113D01*
X169329113Y-130694848D01*
X169150182Y-130962637D01*
X169026932Y-131260188D01*
X168964100Y-131576067D01*
X149339453Y-131576067D01*
X149337061Y-131558625D01*
X149231895Y-131254212D01*
X149138914Y-131080256D01*
X148874513Y-130984492D01*
X147918705Y-131940300D01*
X147559495Y-131940300D01*
X146603687Y-130984492D01*
X146339286Y-131080256D01*
X146198396Y-131369871D01*
X146116716Y-131681408D01*
X146097382Y-132002895D01*
X144145463Y-132002895D01*
X144192661Y-131964161D01*
X144384481Y-131730427D01*
X144527017Y-131463761D01*
X144614790Y-131174413D01*
X144644427Y-130873500D01*
X144614790Y-130572587D01*
X144527017Y-130283239D01*
X144384481Y-130016573D01*
X144192661Y-129782839D01*
X143965621Y-129596512D01*
X144163029Y-129441538D01*
X144358809Y-129213251D01*
X144459836Y-129033713D01*
X145562127Y-130136004D01*
X145585925Y-130165002D01*
X145614923Y-130188800D01*
X145701649Y-130259975D01*
X145810048Y-130317916D01*
X145833679Y-130330547D01*
X145976940Y-130374004D01*
X146088593Y-130385001D01*
X146088603Y-130385001D01*
X146125926Y-130388677D01*
X146163248Y-130385001D01*
X147233936Y-130385001D01*
X147053012Y-130447505D01*
X146879056Y-130540486D01*
X146783292Y-130804887D01*
X147739100Y-131760695D01*
X148694908Y-130804887D01*
X148599144Y-130540486D01*
X148309529Y-130399596D01*
X148253862Y-130385001D01*
X168712679Y-130385001D01*
X168750001Y-130388677D01*
X168787323Y-130385001D01*
X168787334Y-130385001D01*
X168898987Y-130374004D01*
X169042248Y-130330547D01*
X169174277Y-130259975D01*
X169290002Y-130165002D01*
X169313805Y-130135998D01*
X172572713Y-126877091D01*
X172697006Y-127501952D01*
X172955943Y-128127082D01*
X173331862Y-128689685D01*
X173810315Y-129168138D01*
X174372918Y-129544057D01*
X174998048Y-129802994D01*
X175661682Y-129935000D01*
X176338318Y-129935000D01*
X177001952Y-129802994D01*
X177627082Y-129544057D01*
X178189685Y-129168138D01*
X178668138Y-128689685D01*
X179044057Y-128127082D01*
X179302994Y-127501952D01*
X179435000Y-126838318D01*
X179435000Y-126161682D01*
X179302994Y-125498048D01*
X179246247Y-125361049D01*
X179808790Y-125923592D01*
X179765000Y-126143740D01*
X179765000Y-126436260D01*
X179822068Y-126723158D01*
X179934010Y-126993411D01*
X180096525Y-127236632D01*
X180303368Y-127443475D01*
X180546589Y-127605990D01*
X180816842Y-127717932D01*
X181103740Y-127775000D01*
X181396260Y-127775000D01*
X181683158Y-127717932D01*
X181953411Y-127605990D01*
X182196632Y-127443475D01*
X182403475Y-127236632D01*
X182490000Y-127107138D01*
X182490000Y-138036807D01*
X182226912Y-137927832D01*
X181911033Y-137865000D01*
X181588967Y-137865000D01*
X181273088Y-137927832D01*
X180975537Y-138051082D01*
X180707748Y-138230013D01*
X180480013Y-138457748D01*
X180301082Y-138725537D01*
X180177832Y-139023088D01*
X180115000Y-139338967D01*
X180115000Y-139661033D01*
X180177832Y-139976912D01*
X180301082Y-140274463D01*
X180480013Y-140542252D01*
X180707748Y-140769987D01*
X180975537Y-140948918D01*
X180990001Y-140954909D01*
X180990000Y-144165199D01*
X180988802Y-144164001D01*
X180965000Y-144134998D01*
X180849275Y-144040025D01*
X180717246Y-143969453D01*
X180573985Y-143925996D01*
X180462332Y-143914999D01*
X180462321Y-143914999D01*
X180424999Y-143911323D01*
X180387677Y-143914999D01*
X176651321Y-143914999D01*
X176613998Y-143911323D01*
X176576675Y-143914999D01*
X176576666Y-143914999D01*
X176465013Y-143925996D01*
X176321752Y-143969453D01*
X176189723Y-144040025D01*
X176073998Y-144134998D01*
X176050200Y-144163996D01*
X173974198Y-146239999D01*
X171903935Y-146239999D01*
X172048018Y-146024363D01*
X172171268Y-145726812D01*
X172234100Y-145410933D01*
X172234100Y-145088867D01*
X172171268Y-144772988D01*
X172048018Y-144475437D01*
X171869087Y-144207648D01*
X171641352Y-143979913D01*
X171373563Y-143800982D01*
X171076012Y-143677732D01*
X170760133Y-143614900D01*
X170438067Y-143614900D01*
X170122188Y-143677732D01*
X169824637Y-143800982D01*
X169556848Y-143979913D01*
X169329113Y-144207648D01*
X169150182Y-144475437D01*
X169026932Y-144772988D01*
X168964100Y-145088867D01*
X168964100Y-145410933D01*
X169026932Y-145726812D01*
X169150182Y-146024363D01*
X169294265Y-146239999D01*
X148858040Y-146239999D01*
X149009087Y-146088952D01*
X149188018Y-145821163D01*
X149311268Y-145523612D01*
X149374100Y-145207733D01*
X149374100Y-144885667D01*
X149311268Y-144569788D01*
X149188018Y-144272237D01*
X149009087Y-144004448D01*
X148781352Y-143776713D01*
X148629277Y-143675100D01*
X148781352Y-143573487D01*
X149009087Y-143345752D01*
X149188018Y-143077963D01*
X149311268Y-142780412D01*
X149374100Y-142464533D01*
X149374100Y-142142467D01*
X149311268Y-141826588D01*
X149188018Y-141529037D01*
X149009087Y-141261248D01*
X148781352Y-141033513D01*
X148513563Y-140854582D01*
X148216012Y-140731332D01*
X147900133Y-140668500D01*
X147578067Y-140668500D01*
X147262188Y-140731332D01*
X146964637Y-140854582D01*
X146696848Y-141033513D01*
X146469113Y-141261248D01*
X146290182Y-141529037D01*
X146166932Y-141826588D01*
X146104100Y-142142467D01*
X146104100Y-142464533D01*
X146166932Y-142780412D01*
X146290182Y-143077963D01*
X146469113Y-143345752D01*
X146696848Y-143573487D01*
X146848923Y-143675100D01*
X146696848Y-143776713D01*
X146469113Y-144004448D01*
X146290182Y-144272237D01*
X146166932Y-144569788D01*
X146104100Y-144885667D01*
X146104100Y-145207733D01*
X146166932Y-145523612D01*
X146290182Y-145821163D01*
X146469113Y-146088952D01*
X146620160Y-146239999D01*
X140869293Y-146239999D01*
X140885000Y-146161033D01*
X140885000Y-145838967D01*
X140822168Y-145523088D01*
X140698918Y-145225537D01*
X140519987Y-144957748D01*
X140292252Y-144730013D01*
X140024463Y-144551082D01*
X140010000Y-144545091D01*
X140010000Y-140954909D01*
X140024463Y-140948918D01*
X140292252Y-140769987D01*
X140426826Y-140635413D01*
X176294192Y-140635413D01*
X176389956Y-140899814D01*
X176679571Y-141040704D01*
X176991108Y-141122384D01*
X177312595Y-141141718D01*
X177631675Y-141097961D01*
X177936088Y-140992795D01*
X178110044Y-140899814D01*
X178205808Y-140635413D01*
X177250000Y-139679605D01*
X176294192Y-140635413D01*
X140426826Y-140635413D01*
X140519987Y-140542252D01*
X140698918Y-140274463D01*
X140822168Y-139976912D01*
X140885000Y-139661033D01*
X140885000Y-139562595D01*
X175608282Y-139562595D01*
X175652039Y-139881675D01*
X175757205Y-140186088D01*
X175850186Y-140360044D01*
X176114587Y-140455808D01*
X177070395Y-139500000D01*
X177429605Y-139500000D01*
X178385413Y-140455808D01*
X178649814Y-140360044D01*
X178790704Y-140070429D01*
X178872384Y-139758892D01*
X178891718Y-139437405D01*
X178847961Y-139118325D01*
X178742795Y-138813912D01*
X178649814Y-138639956D01*
X178385413Y-138544192D01*
X177429605Y-139500000D01*
X177070395Y-139500000D01*
X176114587Y-138544192D01*
X175850186Y-138639956D01*
X175709296Y-138929571D01*
X175627616Y-139241108D01*
X175608282Y-139562595D01*
X140885000Y-139562595D01*
X140885000Y-139338967D01*
X140822168Y-139023088D01*
X140698918Y-138725537D01*
X140519987Y-138457748D01*
X140426826Y-138364587D01*
X176294192Y-138364587D01*
X177250000Y-139320395D01*
X178205808Y-138364587D01*
X178110044Y-138100186D01*
X177820429Y-137959296D01*
X177508892Y-137877616D01*
X177187405Y-137858282D01*
X176868325Y-137902039D01*
X176563912Y-138007205D01*
X176389956Y-138100186D01*
X176294192Y-138364587D01*
X140426826Y-138364587D01*
X140292252Y-138230013D01*
X140024463Y-138051082D01*
X139726912Y-137927832D01*
X139411033Y-137865000D01*
X139088967Y-137865000D01*
X138773088Y-137927832D01*
X138475537Y-138051082D01*
X138207748Y-138230013D01*
X137980013Y-138457748D01*
X137801082Y-138725537D01*
X137677832Y-139023088D01*
X137615000Y-139338967D01*
X137615000Y-139661033D01*
X137677832Y-139976912D01*
X137801082Y-140274463D01*
X137980013Y-140542252D01*
X138207748Y-140769987D01*
X138475537Y-140948918D01*
X138490001Y-140954909D01*
X138490000Y-144545091D01*
X138475537Y-144551082D01*
X138207748Y-144730013D01*
X137980013Y-144957748D01*
X137801082Y-145225537D01*
X137677832Y-145523088D01*
X137615000Y-145838967D01*
X137615000Y-146161033D01*
X137677832Y-146476912D01*
X137801082Y-146774463D01*
X137811463Y-146790000D01*
X136183889Y-146790000D01*
X136290704Y-146570429D01*
X136372384Y-146258892D01*
X136391718Y-145937405D01*
X136347961Y-145618325D01*
X136242795Y-145313912D01*
X136149814Y-145139956D01*
X135885413Y-145044192D01*
X134929605Y-146000000D01*
X134943748Y-146014143D01*
X134764143Y-146193748D01*
X134750000Y-146179605D01*
X134735858Y-146193748D01*
X134556253Y-146014143D01*
X134570395Y-146000000D01*
X134556253Y-145985858D01*
X134735858Y-145806253D01*
X134750000Y-145820395D01*
X135705808Y-144864587D01*
X135610044Y-144600186D01*
X135320429Y-144459296D01*
X135008892Y-144377616D01*
X134687405Y-144358282D01*
X134368325Y-144402039D01*
X134063912Y-144507205D01*
X133910000Y-144589472D01*
X133910000Y-140909565D01*
X134179571Y-141040704D01*
X134491108Y-141122384D01*
X134812595Y-141141718D01*
X135131675Y-141097961D01*
X135436088Y-140992795D01*
X135610044Y-140899814D01*
X135705808Y-140635413D01*
X134750000Y-139679605D01*
X134735858Y-139693748D01*
X134556253Y-139514143D01*
X134570395Y-139500000D01*
X134929605Y-139500000D01*
X135885413Y-140455808D01*
X136149814Y-140360044D01*
X136290704Y-140070429D01*
X136372384Y-139758892D01*
X136391718Y-139437405D01*
X136347961Y-139118325D01*
X136242795Y-138813912D01*
X136149814Y-138639956D01*
X135885413Y-138544192D01*
X134929605Y-139500000D01*
X134570395Y-139500000D01*
X134556253Y-139485858D01*
X134735858Y-139306253D01*
X134750000Y-139320395D01*
X135705808Y-138364587D01*
X135610044Y-138100186D01*
X135320429Y-137959296D01*
X135008892Y-137877616D01*
X134687405Y-137858282D01*
X134368325Y-137902039D01*
X134063912Y-138007205D01*
X133910000Y-138089472D01*
X133910000Y-136642949D01*
X133999519Y-136810427D01*
X134191339Y-137044161D01*
X134425073Y-137235981D01*
X134691739Y-137378517D01*
X134981087Y-137466290D01*
X135206592Y-137488500D01*
X135557408Y-137488500D01*
X135782913Y-137466290D01*
X136072261Y-137378517D01*
X136338927Y-137235981D01*
X136572661Y-137044161D01*
X136764481Y-136810427D01*
X136830137Y-136687593D01*
X136924247Y-136659046D01*
X137056276Y-136588474D01*
X137172001Y-136493501D01*
X137195804Y-136464497D01*
X140211003Y-133449299D01*
X140240001Y-133425501D01*
X140334974Y-133309776D01*
X140405546Y-133177747D01*
X140449003Y-133034486D01*
X140460000Y-132922833D01*
X140460000Y-132922824D01*
X140463676Y-132885501D01*
X140460000Y-132848178D01*
X140460000Y-128815535D01*
X140528586Y-128712889D01*
X140599068Y-128542729D01*
X140635000Y-128362089D01*
X140635000Y-128177911D01*
X140599068Y-127997271D01*
X140528586Y-127827111D01*
X140426262Y-127673972D01*
X140296028Y-127543738D01*
X140142889Y-127441414D01*
X139972729Y-127370932D01*
X139792089Y-127335000D01*
X139607911Y-127335000D01*
X139427271Y-127370932D01*
X139257111Y-127441414D01*
X139103972Y-127543738D01*
X138973738Y-127673972D01*
X138871414Y-127827111D01*
X138800932Y-127997271D01*
X138765000Y-128177911D01*
X138765000Y-128362089D01*
X138800932Y-128542729D01*
X138871414Y-128712889D01*
X138940000Y-128815536D01*
X138940001Y-132570697D01*
X136606557Y-134904142D01*
X136572661Y-134862839D01*
X136354135Y-134683500D01*
X136572661Y-134504161D01*
X136764481Y-134270427D01*
X136907017Y-134003761D01*
X136994790Y-133714413D01*
X137024427Y-133413500D01*
X136994790Y-133112587D01*
X136907017Y-132823239D01*
X136764481Y-132556573D01*
X136572661Y-132322839D01*
X136354135Y-132143500D01*
X136572661Y-131964161D01*
X136764481Y-131730427D01*
X136830137Y-131607593D01*
X136924247Y-131579046D01*
X137056276Y-131508474D01*
X137172001Y-131413501D01*
X137195804Y-131384497D01*
X137615996Y-130964305D01*
X137645000Y-130940502D01*
X137739973Y-130824777D01*
X137810545Y-130692748D01*
X137854002Y-130549487D01*
X137864999Y-130437834D01*
X137868676Y-130400501D01*
X137864999Y-130363168D01*
X137864999Y-125995680D01*
X137953088Y-126032168D01*
X138268967Y-126095000D01*
X138591033Y-126095000D01*
X138906912Y-126032168D01*
X139204463Y-125908918D01*
X139472252Y-125729987D01*
X139699987Y-125502252D01*
X139878918Y-125234463D01*
X139884909Y-125220000D01*
X158302678Y-125220000D01*
X158340000Y-125223676D01*
X158377322Y-125220000D01*
X158377333Y-125220000D01*
X158488986Y-125209003D01*
X158632247Y-125165546D01*
X158764276Y-125094974D01*
X158880001Y-125000001D01*
X158903804Y-124970997D01*
X160208430Y-123666372D01*
X160362408Y-123697000D01*
X160637592Y-123697000D01*
X160907490Y-123643314D01*
X161161727Y-123538005D01*
X161390535Y-123385120D01*
X161585120Y-123190535D01*
X161738005Y-122961727D01*
X161843314Y-122707490D01*
X161897000Y-122437592D01*
X161897000Y-122162408D01*
X161843314Y-121892510D01*
X161755289Y-121680001D01*
X170805200Y-121680001D01*
X171133628Y-122008430D01*
X171103000Y-122162408D01*
X171103000Y-122437592D01*
X171156686Y-122707490D01*
X171261995Y-122961727D01*
X171414880Y-123190535D01*
X171609465Y-123385120D01*
X171838273Y-123538005D01*
X172092510Y-123643314D01*
X172362408Y-123697000D01*
X172637592Y-123697000D01*
X172907490Y-123643314D01*
X173161727Y-123538005D01*
X173390535Y-123385120D01*
X173585120Y-123190535D01*
X173738005Y-122961727D01*
X173843314Y-122707490D01*
X173897000Y-122437592D01*
X173897000Y-122162408D01*
X173843314Y-121892510D01*
X173738005Y-121638273D01*
X173585120Y-121409465D01*
X173390535Y-121214880D01*
X173161727Y-121061995D01*
X172907490Y-120956686D01*
X172637592Y-120903000D01*
X172362408Y-120903000D01*
X172208430Y-120933628D01*
X172049801Y-120775000D01*
X179696822Y-120775000D01*
X179821525Y-120961632D01*
G36*
X177443748Y-145985858D02*
G01*
X177429605Y-146000000D01*
X177443748Y-146014143D01*
X177264143Y-146193748D01*
X177250000Y-146179605D01*
X177235858Y-146193748D01*
X177056253Y-146014143D01*
X177070395Y-146000000D01*
X177056253Y-145985858D01*
X177235858Y-145806253D01*
X177250000Y-145820395D01*
X177264143Y-145806253D01*
X177443748Y-145985858D01*
G37*
X177443748Y-145985858D02*
X177429605Y-146000000D01*
X177443748Y-146014143D01*
X177264143Y-146193748D01*
X177250000Y-146179605D01*
X177235858Y-146193748D01*
X177056253Y-146014143D01*
X177070395Y-146000000D01*
X177056253Y-145985858D01*
X177235858Y-145806253D01*
X177250000Y-145820395D01*
X177264143Y-145806253D01*
X177443748Y-145985858D01*
G36*
X143129000Y-128206500D02*
G01*
X143149000Y-128206500D01*
X143149000Y-128460500D01*
X143129000Y-128460500D01*
X143129000Y-128480500D01*
X142875000Y-128480500D01*
X142875000Y-128460500D01*
X142855000Y-128460500D01*
X142855000Y-128206500D01*
X142875000Y-128206500D01*
X142875000Y-128186500D01*
X143129000Y-128186500D01*
X143129000Y-128206500D01*
G37*
X143129000Y-128206500D02*
X143149000Y-128206500D01*
X143149000Y-128460500D01*
X143129000Y-128460500D01*
X143129000Y-128480500D01*
X142875000Y-128480500D01*
X142875000Y-128460500D01*
X142855000Y-128460500D01*
X142855000Y-128206500D01*
X142875000Y-128206500D01*
X142875000Y-128186500D01*
X143129000Y-128186500D01*
X143129000Y-128206500D01*
G36*
X136857832Y-109696912D02*
G01*
X136863823Y-109711376D01*
X136594001Y-109981198D01*
X136564998Y-110005000D01*
X136509870Y-110072175D01*
X136470025Y-110120725D01*
X136460997Y-110137616D01*
X136399453Y-110252755D01*
X136355996Y-110396016D01*
X136344999Y-110507669D01*
X136344999Y-110507679D01*
X136341323Y-110545001D01*
X136344999Y-110582323D01*
X136344999Y-114961587D01*
X136213414Y-114816481D01*
X135987420Y-114648963D01*
X135733087Y-114528754D01*
X135599039Y-114488096D01*
X135377000Y-114610085D01*
X135377000Y-115753000D01*
X135397000Y-115753000D01*
X135397000Y-116007000D01*
X135377000Y-116007000D01*
X135377000Y-117149915D01*
X135599039Y-117271904D01*
X135733087Y-117231246D01*
X135987420Y-117111037D01*
X136213414Y-116943519D01*
X136344999Y-116798413D01*
X136345000Y-122565604D01*
X136164759Y-122385363D01*
X135929727Y-122228320D01*
X135668574Y-122120147D01*
X135391335Y-122065000D01*
X135108665Y-122065000D01*
X134831426Y-122120147D01*
X134816990Y-122126127D01*
X134816990Y-117246435D01*
X134900961Y-117271904D01*
X135123000Y-117149915D01*
X135123000Y-116007000D01*
X135103000Y-116007000D01*
X135103000Y-115753000D01*
X135123000Y-115753000D01*
X135123000Y-114610085D01*
X134900961Y-114488096D01*
X134816990Y-114513565D01*
X134816990Y-111367811D01*
X136796455Y-109388347D01*
X136857832Y-109696912D01*
G37*
X136857832Y-109696912D02*
X136863823Y-109711376D01*
X136594001Y-109981198D01*
X136564998Y-110005000D01*
X136509870Y-110072175D01*
X136470025Y-110120725D01*
X136460997Y-110137616D01*
X136399453Y-110252755D01*
X136355996Y-110396016D01*
X136344999Y-110507669D01*
X136344999Y-110507679D01*
X136341323Y-110545001D01*
X136344999Y-110582323D01*
X136344999Y-114961587D01*
X136213414Y-114816481D01*
X135987420Y-114648963D01*
X135733087Y-114528754D01*
X135599039Y-114488096D01*
X135377000Y-114610085D01*
X135377000Y-115753000D01*
X135397000Y-115753000D01*
X135397000Y-116007000D01*
X135377000Y-116007000D01*
X135377000Y-117149915D01*
X135599039Y-117271904D01*
X135733087Y-117231246D01*
X135987420Y-117111037D01*
X136213414Y-116943519D01*
X136344999Y-116798413D01*
X136345000Y-122565604D01*
X136164759Y-122385363D01*
X135929727Y-122228320D01*
X135668574Y-122120147D01*
X135391335Y-122065000D01*
X135108665Y-122065000D01*
X134831426Y-122120147D01*
X134816990Y-122126127D01*
X134816990Y-117246435D01*
X134900961Y-117271904D01*
X135123000Y-117149915D01*
X135123000Y-116007000D01*
X135103000Y-116007000D01*
X135103000Y-115753000D01*
X135123000Y-115753000D01*
X135123000Y-114610085D01*
X134900961Y-114488096D01*
X134816990Y-114513565D01*
X134816990Y-111367811D01*
X136796455Y-109388347D01*
X136857832Y-109696912D01*
G36*
X176011206Y-90836009D02*
G01*
X176035000Y-90865002D01*
X176063993Y-90888796D01*
X176063997Y-90888800D01*
X176134686Y-90946812D01*
X176150725Y-90959975D01*
X176282754Y-91030547D01*
X176426015Y-91074004D01*
X176537668Y-91085001D01*
X176537677Y-91085001D01*
X176575000Y-91088677D01*
X176612323Y-91085001D01*
X180387677Y-91085001D01*
X180424999Y-91088677D01*
X180462321Y-91085001D01*
X180462332Y-91085001D01*
X180573985Y-91074004D01*
X180717246Y-91030547D01*
X180849275Y-90959975D01*
X180965000Y-90865002D01*
X180988803Y-90835998D01*
X180990000Y-90834801D01*
X180990001Y-94045091D01*
X180975537Y-94051082D01*
X180707748Y-94230013D01*
X180480013Y-94457748D01*
X180301082Y-94725537D01*
X180177832Y-95023088D01*
X180115000Y-95338967D01*
X180115000Y-95661033D01*
X180177832Y-95976912D01*
X180301082Y-96274463D01*
X180480013Y-96542252D01*
X180707748Y-96769987D01*
X180975537Y-96948918D01*
X181273088Y-97072168D01*
X181588967Y-97135000D01*
X181911033Y-97135000D01*
X182226912Y-97072168D01*
X182490001Y-96963193D01*
X182490000Y-122398602D01*
X182454494Y-122369463D01*
X182344180Y-122310498D01*
X182224482Y-122274188D01*
X182100000Y-122261928D01*
X182010000Y-122261928D01*
X182010000Y-121080107D01*
X182128475Y-120961632D01*
X182290990Y-120718411D01*
X182402932Y-120448158D01*
X182460000Y-120161260D01*
X182460000Y-119868740D01*
X182402932Y-119581842D01*
X182290990Y-119311589D01*
X182128475Y-119068368D01*
X181921632Y-118861525D01*
X181747240Y-118745000D01*
X181921632Y-118628475D01*
X182128475Y-118421632D01*
X182290990Y-118178411D01*
X182402932Y-117908158D01*
X182460000Y-117621260D01*
X182460000Y-117328740D01*
X182402932Y-117041842D01*
X182290990Y-116771589D01*
X182128475Y-116528368D01*
X181921632Y-116321525D01*
X181747240Y-116205000D01*
X181921632Y-116088475D01*
X182128475Y-115881632D01*
X182290990Y-115638411D01*
X182402932Y-115368158D01*
X182460000Y-115081260D01*
X182460000Y-114788740D01*
X182402932Y-114501842D01*
X182290990Y-114231589D01*
X182128475Y-113988368D01*
X181921632Y-113781525D01*
X181747240Y-113665000D01*
X181921632Y-113548475D01*
X182128475Y-113341632D01*
X182290990Y-113098411D01*
X182402932Y-112828158D01*
X182460000Y-112541260D01*
X182460000Y-112248740D01*
X182402932Y-111961842D01*
X182290990Y-111691589D01*
X182128475Y-111448368D01*
X181921632Y-111241525D01*
X181747240Y-111125000D01*
X181921632Y-111008475D01*
X182128475Y-110801632D01*
X182290990Y-110558411D01*
X182402932Y-110288158D01*
X182460000Y-110001260D01*
X182460000Y-109708740D01*
X182402932Y-109421842D01*
X182290990Y-109151589D01*
X182128475Y-108908368D01*
X181996620Y-108776513D01*
X182069180Y-108754502D01*
X182179494Y-108695537D01*
X182276185Y-108616185D01*
X182355537Y-108519494D01*
X182414502Y-108409180D01*
X182450812Y-108289482D01*
X182463072Y-108165000D01*
X182463072Y-106465000D01*
X182450812Y-106340518D01*
X182414502Y-106220820D01*
X182355537Y-106110506D01*
X182276185Y-106013815D01*
X182179494Y-105934463D01*
X182069180Y-105875498D01*
X181949482Y-105839188D01*
X181825000Y-105826928D01*
X180125000Y-105826928D01*
X180000518Y-105839188D01*
X179880820Y-105875498D01*
X179770506Y-105934463D01*
X179673815Y-106013815D01*
X179594463Y-106110506D01*
X179535498Y-106220820D01*
X179499188Y-106340518D01*
X179486928Y-106465000D01*
X179486928Y-108165000D01*
X179499188Y-108289482D01*
X179535498Y-108409180D01*
X179594463Y-108519494D01*
X179673815Y-108616185D01*
X179770506Y-108695537D01*
X179880820Y-108754502D01*
X179953380Y-108776513D01*
X179821525Y-108908368D01*
X179659010Y-109151589D01*
X179547068Y-109421842D01*
X179490000Y-109708740D01*
X179490000Y-110001260D01*
X179547068Y-110288158D01*
X179659010Y-110558411D01*
X179821525Y-110801632D01*
X180028368Y-111008475D01*
X180202760Y-111125000D01*
X180028368Y-111241525D01*
X179821525Y-111448368D01*
X179696822Y-111635000D01*
X164779802Y-111635000D01*
X149780215Y-96635413D01*
X176294192Y-96635413D01*
X176389956Y-96899814D01*
X176679571Y-97040704D01*
X176991108Y-97122384D01*
X177312595Y-97141718D01*
X177631675Y-97097961D01*
X177936088Y-96992795D01*
X178110044Y-96899814D01*
X178205808Y-96635413D01*
X177250000Y-95679605D01*
X176294192Y-96635413D01*
X149780215Y-96635413D01*
X148886177Y-95741376D01*
X148892168Y-95726912D01*
X148924852Y-95562595D01*
X175608282Y-95562595D01*
X175652039Y-95881675D01*
X175757205Y-96186088D01*
X175850186Y-96360044D01*
X176114587Y-96455808D01*
X177070395Y-95500000D01*
X177429605Y-95500000D01*
X178385413Y-96455808D01*
X178649814Y-96360044D01*
X178790704Y-96070429D01*
X178872384Y-95758892D01*
X178891718Y-95437405D01*
X178847961Y-95118325D01*
X178742795Y-94813912D01*
X178649814Y-94639956D01*
X178385413Y-94544192D01*
X177429605Y-95500000D01*
X177070395Y-95500000D01*
X176114587Y-94544192D01*
X175850186Y-94639956D01*
X175709296Y-94929571D01*
X175627616Y-95241108D01*
X175608282Y-95562595D01*
X148924852Y-95562595D01*
X148955000Y-95411033D01*
X148955000Y-95088967D01*
X148892168Y-94773088D01*
X148768918Y-94475537D01*
X148694784Y-94364587D01*
X176294192Y-94364587D01*
X177250000Y-95320395D01*
X178205808Y-94364587D01*
X178110044Y-94100186D01*
X177820429Y-93959296D01*
X177508892Y-93877616D01*
X177187405Y-93858282D01*
X176868325Y-93902039D01*
X176563912Y-94007205D01*
X176389956Y-94100186D01*
X176294192Y-94364587D01*
X148694784Y-94364587D01*
X148589987Y-94207748D01*
X148362252Y-93980013D01*
X148094463Y-93801082D01*
X147796912Y-93677832D01*
X147481033Y-93615000D01*
X147158967Y-93615000D01*
X146843088Y-93677832D01*
X146545537Y-93801082D01*
X146277748Y-93980013D01*
X146050013Y-94207748D01*
X146050000Y-94207767D01*
X146049987Y-94207748D01*
X145822252Y-93980013D01*
X145554463Y-93801082D01*
X145256912Y-93677832D01*
X144941033Y-93615000D01*
X144618967Y-93615000D01*
X144303088Y-93677832D01*
X144005537Y-93801082D01*
X143737748Y-93980013D01*
X143510013Y-94207748D01*
X143331082Y-94475537D01*
X143207832Y-94773088D01*
X143145000Y-95088967D01*
X143145000Y-95411033D01*
X143207832Y-95726912D01*
X143331082Y-96024463D01*
X143510013Y-96292252D01*
X143737748Y-96519987D01*
X144005537Y-96698918D01*
X144303088Y-96822168D01*
X144618967Y-96885000D01*
X144941033Y-96885000D01*
X145256912Y-96822168D01*
X145271376Y-96816177D01*
X163901201Y-115446003D01*
X163924999Y-115475001D01*
X163953997Y-115498799D01*
X164040723Y-115569974D01*
X164168759Y-115638411D01*
X164172753Y-115640546D01*
X164316014Y-115684003D01*
X164427667Y-115695000D01*
X164427677Y-115695000D01*
X164465000Y-115698676D01*
X164502323Y-115695000D01*
X179696822Y-115695000D01*
X179821525Y-115881632D01*
X180028368Y-116088475D01*
X180202760Y-116205000D01*
X180028368Y-116321525D01*
X179821525Y-116528368D01*
X179659010Y-116771589D01*
X179547068Y-117041842D01*
X179490000Y-117328740D01*
X179490000Y-117621260D01*
X179547068Y-117908158D01*
X179659010Y-118178411D01*
X179821525Y-118421632D01*
X180028368Y-118628475D01*
X180202760Y-118745000D01*
X180028368Y-118861525D01*
X179821525Y-119068368D01*
X179696822Y-119255000D01*
X144459803Y-119255000D01*
X139996177Y-114791376D01*
X140002168Y-114776912D01*
X140065000Y-114461033D01*
X140065000Y-114138967D01*
X140002168Y-113823088D01*
X139878918Y-113525537D01*
X139699987Y-113257748D01*
X139472252Y-113030013D01*
X139363400Y-112957280D01*
X139385808Y-112895413D01*
X138430000Y-111939605D01*
X138415858Y-111953748D01*
X138236253Y-111774143D01*
X138250395Y-111760000D01*
X138609605Y-111760000D01*
X139565413Y-112715808D01*
X139829814Y-112620044D01*
X139970704Y-112330429D01*
X140052384Y-112018892D01*
X140071718Y-111697405D01*
X140027961Y-111378325D01*
X139922795Y-111073912D01*
X139829814Y-110899956D01*
X139565413Y-110804192D01*
X138609605Y-111760000D01*
X138250395Y-111760000D01*
X138236253Y-111745858D01*
X138415858Y-111566253D01*
X138430000Y-111580395D01*
X139385808Y-110624587D01*
X139363400Y-110562720D01*
X139472252Y-110489987D01*
X139699987Y-110262252D01*
X139878918Y-109994463D01*
X140002168Y-109696912D01*
X140065000Y-109381033D01*
X140065000Y-109058967D01*
X140002168Y-108743088D01*
X139878918Y-108445537D01*
X139699987Y-108177748D01*
X139472252Y-107950013D01*
X139472233Y-107950000D01*
X139472252Y-107949987D01*
X139699987Y-107722252D01*
X139878918Y-107454463D01*
X140002168Y-107156912D01*
X140065000Y-106841033D01*
X140065000Y-106518967D01*
X140002168Y-106203088D01*
X139878918Y-105905537D01*
X139699987Y-105637748D01*
X139472252Y-105410013D01*
X139472233Y-105410000D01*
X139472252Y-105409987D01*
X139699987Y-105182252D01*
X139878918Y-104914463D01*
X140002168Y-104616912D01*
X140065000Y-104301033D01*
X140065000Y-103978967D01*
X140002168Y-103663088D01*
X139878918Y-103365537D01*
X139699987Y-103097748D01*
X139472252Y-102870013D01*
X139472233Y-102870000D01*
X139472252Y-102869987D01*
X139699987Y-102642252D01*
X139878918Y-102374463D01*
X140002168Y-102076912D01*
X140065000Y-101761033D01*
X140065000Y-101438967D01*
X140002168Y-101123088D01*
X139878918Y-100825537D01*
X139699987Y-100557748D01*
X139472252Y-100330013D01*
X139204463Y-100151082D01*
X138906912Y-100027832D01*
X138591033Y-99965000D01*
X138268967Y-99965000D01*
X137953088Y-100027832D01*
X137655537Y-100151082D01*
X137387748Y-100330013D01*
X137160013Y-100557748D01*
X136981082Y-100825537D01*
X136857832Y-101123088D01*
X136795000Y-101438967D01*
X136795000Y-101761033D01*
X136857832Y-102076912D01*
X136981082Y-102374463D01*
X137160013Y-102642252D01*
X137387748Y-102869987D01*
X137387767Y-102870000D01*
X137387748Y-102870013D01*
X137160013Y-103097748D01*
X136981082Y-103365537D01*
X136857832Y-103663088D01*
X136795000Y-103978967D01*
X136795000Y-104301033D01*
X136857832Y-104616912D01*
X136981082Y-104914463D01*
X137160013Y-105182252D01*
X137387748Y-105409987D01*
X137387767Y-105410000D01*
X137387748Y-105410013D01*
X137160013Y-105637748D01*
X136981082Y-105905537D01*
X136857832Y-106203088D01*
X136795000Y-106518967D01*
X136795000Y-106841033D01*
X136857832Y-107156912D01*
X136863823Y-107171375D01*
X135380000Y-108655199D01*
X135380000Y-100444801D01*
X138758625Y-97066177D01*
X138773088Y-97072168D01*
X139088967Y-97135000D01*
X139411033Y-97135000D01*
X139726912Y-97072168D01*
X140024463Y-96948918D01*
X140292252Y-96769987D01*
X140519987Y-96542252D01*
X140698918Y-96274463D01*
X140822168Y-95976912D01*
X140885000Y-95661033D01*
X140885000Y-95338967D01*
X140822168Y-95023088D01*
X140698918Y-94725537D01*
X140519987Y-94457748D01*
X140292252Y-94230013D01*
X140024463Y-94051082D01*
X140010000Y-94045091D01*
X140010000Y-90590000D01*
X168691928Y-90590000D01*
X168691928Y-92290000D01*
X168704188Y-92414482D01*
X168740498Y-92534180D01*
X168799463Y-92644494D01*
X168878815Y-92741185D01*
X168975506Y-92820537D01*
X169085820Y-92879502D01*
X169205518Y-92915812D01*
X169330000Y-92928072D01*
X171030000Y-92928072D01*
X171154482Y-92915812D01*
X171274180Y-92879502D01*
X171384494Y-92820537D01*
X171481185Y-92741185D01*
X171560537Y-92644494D01*
X171619502Y-92534180D01*
X171641513Y-92461620D01*
X171773368Y-92593475D01*
X172016589Y-92755990D01*
X172286842Y-92867932D01*
X172573740Y-92925000D01*
X172866260Y-92925000D01*
X173153158Y-92867932D01*
X173423411Y-92755990D01*
X173666632Y-92593475D01*
X173873475Y-92386632D01*
X174035990Y-92143411D01*
X174147932Y-91873158D01*
X174205000Y-91586260D01*
X174205000Y-91293740D01*
X174147932Y-91006842D01*
X174035990Y-90736589D01*
X173873475Y-90493368D01*
X173666632Y-90286525D01*
X173423411Y-90124010D01*
X173153158Y-90012068D01*
X172866260Y-89955000D01*
X172573740Y-89955000D01*
X172286842Y-90012068D01*
X172016589Y-90124010D01*
X171773368Y-90286525D01*
X171641513Y-90418380D01*
X171619502Y-90345820D01*
X171560537Y-90235506D01*
X171481185Y-90138815D01*
X171384494Y-90059463D01*
X171274180Y-90000498D01*
X171154482Y-89964188D01*
X171030000Y-89951928D01*
X169330000Y-89951928D01*
X169205518Y-89964188D01*
X169085820Y-90000498D01*
X168975506Y-90059463D01*
X168878815Y-90138815D01*
X168799463Y-90235506D01*
X168740498Y-90345820D01*
X168704188Y-90465518D01*
X168691928Y-90590000D01*
X140010000Y-90590000D01*
X140010000Y-90454909D01*
X140024463Y-90448918D01*
X140292252Y-90269987D01*
X140519987Y-90042252D01*
X140698918Y-89774463D01*
X140704909Y-89760000D01*
X174935199Y-89760000D01*
X176011206Y-90836009D01*
G37*
X176011206Y-90836009D02*
X176035000Y-90865002D01*
X176063993Y-90888796D01*
X176063997Y-90888800D01*
X176134686Y-90946812D01*
X176150725Y-90959975D01*
X176282754Y-91030547D01*
X176426015Y-91074004D01*
X176537668Y-91085001D01*
X176537677Y-91085001D01*
X176575000Y-91088677D01*
X176612323Y-91085001D01*
X180387677Y-91085001D01*
X180424999Y-91088677D01*
X180462321Y-91085001D01*
X180462332Y-91085001D01*
X180573985Y-91074004D01*
X180717246Y-91030547D01*
X180849275Y-90959975D01*
X180965000Y-90865002D01*
X180988803Y-90835998D01*
X180990000Y-90834801D01*
X180990001Y-94045091D01*
X180975537Y-94051082D01*
X180707748Y-94230013D01*
X180480013Y-94457748D01*
X180301082Y-94725537D01*
X180177832Y-95023088D01*
X180115000Y-95338967D01*
X180115000Y-95661033D01*
X180177832Y-95976912D01*
X180301082Y-96274463D01*
X180480013Y-96542252D01*
X180707748Y-96769987D01*
X180975537Y-96948918D01*
X181273088Y-97072168D01*
X181588967Y-97135000D01*
X181911033Y-97135000D01*
X182226912Y-97072168D01*
X182490001Y-96963193D01*
X182490000Y-122398602D01*
X182454494Y-122369463D01*
X182344180Y-122310498D01*
X182224482Y-122274188D01*
X182100000Y-122261928D01*
X182010000Y-122261928D01*
X182010000Y-121080107D01*
X182128475Y-120961632D01*
X182290990Y-120718411D01*
X182402932Y-120448158D01*
X182460000Y-120161260D01*
X182460000Y-119868740D01*
X182402932Y-119581842D01*
X182290990Y-119311589D01*
X182128475Y-119068368D01*
X181921632Y-118861525D01*
X181747240Y-118745000D01*
X181921632Y-118628475D01*
X182128475Y-118421632D01*
X182290990Y-118178411D01*
X182402932Y-117908158D01*
X182460000Y-117621260D01*
X182460000Y-117328740D01*
X182402932Y-117041842D01*
X182290990Y-116771589D01*
X182128475Y-116528368D01*
X181921632Y-116321525D01*
X181747240Y-116205000D01*
X181921632Y-116088475D01*
X182128475Y-115881632D01*
X182290990Y-115638411D01*
X182402932Y-115368158D01*
X182460000Y-115081260D01*
X182460000Y-114788740D01*
X182402932Y-114501842D01*
X182290990Y-114231589D01*
X182128475Y-113988368D01*
X181921632Y-113781525D01*
X181747240Y-113665000D01*
X181921632Y-113548475D01*
X182128475Y-113341632D01*
X182290990Y-113098411D01*
X182402932Y-112828158D01*
X182460000Y-112541260D01*
X182460000Y-112248740D01*
X182402932Y-111961842D01*
X182290990Y-111691589D01*
X182128475Y-111448368D01*
X181921632Y-111241525D01*
X181747240Y-111125000D01*
X181921632Y-111008475D01*
X182128475Y-110801632D01*
X182290990Y-110558411D01*
X182402932Y-110288158D01*
X182460000Y-110001260D01*
X182460000Y-109708740D01*
X182402932Y-109421842D01*
X182290990Y-109151589D01*
X182128475Y-108908368D01*
X181996620Y-108776513D01*
X182069180Y-108754502D01*
X182179494Y-108695537D01*
X182276185Y-108616185D01*
X182355537Y-108519494D01*
X182414502Y-108409180D01*
X182450812Y-108289482D01*
X182463072Y-108165000D01*
X182463072Y-106465000D01*
X182450812Y-106340518D01*
X182414502Y-106220820D01*
X182355537Y-106110506D01*
X182276185Y-106013815D01*
X182179494Y-105934463D01*
X182069180Y-105875498D01*
X181949482Y-105839188D01*
X181825000Y-105826928D01*
X180125000Y-105826928D01*
X180000518Y-105839188D01*
X179880820Y-105875498D01*
X179770506Y-105934463D01*
X179673815Y-106013815D01*
X179594463Y-106110506D01*
X179535498Y-106220820D01*
X179499188Y-106340518D01*
X179486928Y-106465000D01*
X179486928Y-108165000D01*
X179499188Y-108289482D01*
X179535498Y-108409180D01*
X179594463Y-108519494D01*
X179673815Y-108616185D01*
X179770506Y-108695537D01*
X179880820Y-108754502D01*
X179953380Y-108776513D01*
X179821525Y-108908368D01*
X179659010Y-109151589D01*
X179547068Y-109421842D01*
X179490000Y-109708740D01*
X179490000Y-110001260D01*
X179547068Y-110288158D01*
X179659010Y-110558411D01*
X179821525Y-110801632D01*
X180028368Y-111008475D01*
X180202760Y-111125000D01*
X180028368Y-111241525D01*
X179821525Y-111448368D01*
X179696822Y-111635000D01*
X164779802Y-111635000D01*
X149780215Y-96635413D01*
X176294192Y-96635413D01*
X176389956Y-96899814D01*
X176679571Y-97040704D01*
X176991108Y-97122384D01*
X177312595Y-97141718D01*
X177631675Y-97097961D01*
X177936088Y-96992795D01*
X178110044Y-96899814D01*
X178205808Y-96635413D01*
X177250000Y-95679605D01*
X176294192Y-96635413D01*
X149780215Y-96635413D01*
X148886177Y-95741376D01*
X148892168Y-95726912D01*
X148924852Y-95562595D01*
X175608282Y-95562595D01*
X175652039Y-95881675D01*
X175757205Y-96186088D01*
X175850186Y-96360044D01*
X176114587Y-96455808D01*
X177070395Y-95500000D01*
X177429605Y-95500000D01*
X178385413Y-96455808D01*
X178649814Y-96360044D01*
X178790704Y-96070429D01*
X178872384Y-95758892D01*
X178891718Y-95437405D01*
X178847961Y-95118325D01*
X178742795Y-94813912D01*
X178649814Y-94639956D01*
X178385413Y-94544192D01*
X177429605Y-95500000D01*
X177070395Y-95500000D01*
X176114587Y-94544192D01*
X175850186Y-94639956D01*
X175709296Y-94929571D01*
X175627616Y-95241108D01*
X175608282Y-95562595D01*
X148924852Y-95562595D01*
X148955000Y-95411033D01*
X148955000Y-95088967D01*
X148892168Y-94773088D01*
X148768918Y-94475537D01*
X148694784Y-94364587D01*
X176294192Y-94364587D01*
X177250000Y-95320395D01*
X178205808Y-94364587D01*
X178110044Y-94100186D01*
X177820429Y-93959296D01*
X177508892Y-93877616D01*
X177187405Y-93858282D01*
X176868325Y-93902039D01*
X176563912Y-94007205D01*
X176389956Y-94100186D01*
X176294192Y-94364587D01*
X148694784Y-94364587D01*
X148589987Y-94207748D01*
X148362252Y-93980013D01*
X148094463Y-93801082D01*
X147796912Y-93677832D01*
X147481033Y-93615000D01*
X147158967Y-93615000D01*
X146843088Y-93677832D01*
X146545537Y-93801082D01*
X146277748Y-93980013D01*
X146050013Y-94207748D01*
X146050000Y-94207767D01*
X146049987Y-94207748D01*
X145822252Y-93980013D01*
X145554463Y-93801082D01*
X145256912Y-93677832D01*
X144941033Y-93615000D01*
X144618967Y-93615000D01*
X144303088Y-93677832D01*
X144005537Y-93801082D01*
X143737748Y-93980013D01*
X143510013Y-94207748D01*
X143331082Y-94475537D01*
X143207832Y-94773088D01*
X143145000Y-95088967D01*
X143145000Y-95411033D01*
X143207832Y-95726912D01*
X143331082Y-96024463D01*
X143510013Y-96292252D01*
X143737748Y-96519987D01*
X144005537Y-96698918D01*
X144303088Y-96822168D01*
X144618967Y-96885000D01*
X144941033Y-96885000D01*
X145256912Y-96822168D01*
X145271376Y-96816177D01*
X163901201Y-115446003D01*
X163924999Y-115475001D01*
X163953997Y-115498799D01*
X164040723Y-115569974D01*
X164168759Y-115638411D01*
X164172753Y-115640546D01*
X164316014Y-115684003D01*
X164427667Y-115695000D01*
X164427677Y-115695000D01*
X164465000Y-115698676D01*
X164502323Y-115695000D01*
X179696822Y-115695000D01*
X179821525Y-115881632D01*
X180028368Y-116088475D01*
X180202760Y-116205000D01*
X180028368Y-116321525D01*
X179821525Y-116528368D01*
X179659010Y-116771589D01*
X179547068Y-117041842D01*
X179490000Y-117328740D01*
X179490000Y-117621260D01*
X179547068Y-117908158D01*
X179659010Y-118178411D01*
X179821525Y-118421632D01*
X180028368Y-118628475D01*
X180202760Y-118745000D01*
X180028368Y-118861525D01*
X179821525Y-119068368D01*
X179696822Y-119255000D01*
X144459803Y-119255000D01*
X139996177Y-114791376D01*
X140002168Y-114776912D01*
X140065000Y-114461033D01*
X140065000Y-114138967D01*
X140002168Y-113823088D01*
X139878918Y-113525537D01*
X139699987Y-113257748D01*
X139472252Y-113030013D01*
X139363400Y-112957280D01*
X139385808Y-112895413D01*
X138430000Y-111939605D01*
X138415858Y-111953748D01*
X138236253Y-111774143D01*
X138250395Y-111760000D01*
X138609605Y-111760000D01*
X139565413Y-112715808D01*
X139829814Y-112620044D01*
X139970704Y-112330429D01*
X140052384Y-112018892D01*
X140071718Y-111697405D01*
X140027961Y-111378325D01*
X139922795Y-111073912D01*
X139829814Y-110899956D01*
X139565413Y-110804192D01*
X138609605Y-111760000D01*
X138250395Y-111760000D01*
X138236253Y-111745858D01*
X138415858Y-111566253D01*
X138430000Y-111580395D01*
X139385808Y-110624587D01*
X139363400Y-110562720D01*
X139472252Y-110489987D01*
X139699987Y-110262252D01*
X139878918Y-109994463D01*
X140002168Y-109696912D01*
X140065000Y-109381033D01*
X140065000Y-109058967D01*
X140002168Y-108743088D01*
X139878918Y-108445537D01*
X139699987Y-108177748D01*
X139472252Y-107950013D01*
X139472233Y-107950000D01*
X139472252Y-107949987D01*
X139699987Y-107722252D01*
X139878918Y-107454463D01*
X140002168Y-107156912D01*
X140065000Y-106841033D01*
X140065000Y-106518967D01*
X140002168Y-106203088D01*
X139878918Y-105905537D01*
X139699987Y-105637748D01*
X139472252Y-105410013D01*
X139472233Y-105410000D01*
X139472252Y-105409987D01*
X139699987Y-105182252D01*
X139878918Y-104914463D01*
X140002168Y-104616912D01*
X140065000Y-104301033D01*
X140065000Y-103978967D01*
X140002168Y-103663088D01*
X139878918Y-103365537D01*
X139699987Y-103097748D01*
X139472252Y-102870013D01*
X139472233Y-102870000D01*
X139472252Y-102869987D01*
X139699987Y-102642252D01*
X139878918Y-102374463D01*
X140002168Y-102076912D01*
X140065000Y-101761033D01*
X140065000Y-101438967D01*
X140002168Y-101123088D01*
X139878918Y-100825537D01*
X139699987Y-100557748D01*
X139472252Y-100330013D01*
X139204463Y-100151082D01*
X138906912Y-100027832D01*
X138591033Y-99965000D01*
X138268967Y-99965000D01*
X137953088Y-100027832D01*
X137655537Y-100151082D01*
X137387748Y-100330013D01*
X137160013Y-100557748D01*
X136981082Y-100825537D01*
X136857832Y-101123088D01*
X136795000Y-101438967D01*
X136795000Y-101761033D01*
X136857832Y-102076912D01*
X136981082Y-102374463D01*
X137160013Y-102642252D01*
X137387748Y-102869987D01*
X137387767Y-102870000D01*
X137387748Y-102870013D01*
X137160013Y-103097748D01*
X136981082Y-103365537D01*
X136857832Y-103663088D01*
X136795000Y-103978967D01*
X136795000Y-104301033D01*
X136857832Y-104616912D01*
X136981082Y-104914463D01*
X137160013Y-105182252D01*
X137387748Y-105409987D01*
X137387767Y-105410000D01*
X137387748Y-105410013D01*
X137160013Y-105637748D01*
X136981082Y-105905537D01*
X136857832Y-106203088D01*
X136795000Y-106518967D01*
X136795000Y-106841033D01*
X136857832Y-107156912D01*
X136863823Y-107171375D01*
X135380000Y-108655199D01*
X135380000Y-100444801D01*
X138758625Y-97066177D01*
X138773088Y-97072168D01*
X139088967Y-97135000D01*
X139411033Y-97135000D01*
X139726912Y-97072168D01*
X140024463Y-96948918D01*
X140292252Y-96769987D01*
X140519987Y-96542252D01*
X140698918Y-96274463D01*
X140822168Y-95976912D01*
X140885000Y-95661033D01*
X140885000Y-95338967D01*
X140822168Y-95023088D01*
X140698918Y-94725537D01*
X140519987Y-94457748D01*
X140292252Y-94230013D01*
X140024463Y-94051082D01*
X140010000Y-94045091D01*
X140010000Y-90590000D01*
X168691928Y-90590000D01*
X168691928Y-92290000D01*
X168704188Y-92414482D01*
X168740498Y-92534180D01*
X168799463Y-92644494D01*
X168878815Y-92741185D01*
X168975506Y-92820537D01*
X169085820Y-92879502D01*
X169205518Y-92915812D01*
X169330000Y-92928072D01*
X171030000Y-92928072D01*
X171154482Y-92915812D01*
X171274180Y-92879502D01*
X171384494Y-92820537D01*
X171481185Y-92741185D01*
X171560537Y-92644494D01*
X171619502Y-92534180D01*
X171641513Y-92461620D01*
X171773368Y-92593475D01*
X172016589Y-92755990D01*
X172286842Y-92867932D01*
X172573740Y-92925000D01*
X172866260Y-92925000D01*
X173153158Y-92867932D01*
X173423411Y-92755990D01*
X173666632Y-92593475D01*
X173873475Y-92386632D01*
X174035990Y-92143411D01*
X174147932Y-91873158D01*
X174205000Y-91586260D01*
X174205000Y-91293740D01*
X174147932Y-91006842D01*
X174035990Y-90736589D01*
X173873475Y-90493368D01*
X173666632Y-90286525D01*
X173423411Y-90124010D01*
X173153158Y-90012068D01*
X172866260Y-89955000D01*
X172573740Y-89955000D01*
X172286842Y-90012068D01*
X172016589Y-90124010D01*
X171773368Y-90286525D01*
X171641513Y-90418380D01*
X171619502Y-90345820D01*
X171560537Y-90235506D01*
X171481185Y-90138815D01*
X171384494Y-90059463D01*
X171274180Y-90000498D01*
X171154482Y-89964188D01*
X171030000Y-89951928D01*
X169330000Y-89951928D01*
X169205518Y-89964188D01*
X169085820Y-90000498D01*
X168975506Y-90059463D01*
X168878815Y-90138815D01*
X168799463Y-90235506D01*
X168740498Y-90345820D01*
X168704188Y-90465518D01*
X168691928Y-90590000D01*
X140010000Y-90590000D01*
X140010000Y-90454909D01*
X140024463Y-90448918D01*
X140292252Y-90269987D01*
X140519987Y-90042252D01*
X140698918Y-89774463D01*
X140704909Y-89760000D01*
X174935199Y-89760000D01*
X176011206Y-90836009D01*
G36*
X137801082Y-88225537D02*
G01*
X137677832Y-88523088D01*
X137615000Y-88838967D01*
X137615000Y-89161033D01*
X137677832Y-89476912D01*
X137801082Y-89774463D01*
X137980013Y-90042252D01*
X138207748Y-90269987D01*
X138475537Y-90448918D01*
X138490000Y-90454909D01*
X138490001Y-94045091D01*
X138475537Y-94051082D01*
X138207748Y-94230013D01*
X137980013Y-94457748D01*
X137801082Y-94725537D01*
X137677832Y-95023088D01*
X137615000Y-95338967D01*
X137615000Y-95661033D01*
X137677832Y-95976912D01*
X137683823Y-95991375D01*
X134109003Y-99566196D01*
X134079999Y-99589999D01*
X134024871Y-99657174D01*
X133985026Y-99705724D01*
X133914455Y-99837753D01*
X133914454Y-99837754D01*
X133910000Y-99852437D01*
X133910000Y-96909565D01*
X134179571Y-97040704D01*
X134491108Y-97122384D01*
X134812595Y-97141718D01*
X135131675Y-97097961D01*
X135436088Y-96992795D01*
X135610044Y-96899814D01*
X135705808Y-96635413D01*
X134750000Y-95679605D01*
X134735858Y-95693748D01*
X134556253Y-95514143D01*
X134570395Y-95500000D01*
X134929605Y-95500000D01*
X135885413Y-96455808D01*
X136149814Y-96360044D01*
X136290704Y-96070429D01*
X136372384Y-95758892D01*
X136391718Y-95437405D01*
X136347961Y-95118325D01*
X136242795Y-94813912D01*
X136149814Y-94639956D01*
X135885413Y-94544192D01*
X134929605Y-95500000D01*
X134570395Y-95500000D01*
X134556253Y-95485858D01*
X134735858Y-95306253D01*
X134750000Y-95320395D01*
X135705808Y-94364587D01*
X135610044Y-94100186D01*
X135320429Y-93959296D01*
X135008892Y-93877616D01*
X134687405Y-93858282D01*
X134368325Y-93902039D01*
X134063912Y-94007205D01*
X133910000Y-94089472D01*
X133910000Y-90409565D01*
X134179571Y-90540704D01*
X134491108Y-90622384D01*
X134812595Y-90641718D01*
X135131675Y-90597961D01*
X135436088Y-90492795D01*
X135610044Y-90399814D01*
X135705808Y-90135413D01*
X134750000Y-89179605D01*
X134735858Y-89193748D01*
X134556253Y-89014143D01*
X134570395Y-89000000D01*
X134556253Y-88985858D01*
X134735858Y-88806253D01*
X134750000Y-88820395D01*
X134764143Y-88806253D01*
X134943748Y-88985858D01*
X134929605Y-89000000D01*
X135885413Y-89955808D01*
X136149814Y-89860044D01*
X136290704Y-89570429D01*
X136372384Y-89258892D01*
X136391718Y-88937405D01*
X136347961Y-88618325D01*
X136242795Y-88313912D01*
X136187253Y-88210000D01*
X137811463Y-88210000D01*
X137801082Y-88225537D01*
G37*
X137801082Y-88225537D02*
X137677832Y-88523088D01*
X137615000Y-88838967D01*
X137615000Y-89161033D01*
X137677832Y-89476912D01*
X137801082Y-89774463D01*
X137980013Y-90042252D01*
X138207748Y-90269987D01*
X138475537Y-90448918D01*
X138490000Y-90454909D01*
X138490001Y-94045091D01*
X138475537Y-94051082D01*
X138207748Y-94230013D01*
X137980013Y-94457748D01*
X137801082Y-94725537D01*
X137677832Y-95023088D01*
X137615000Y-95338967D01*
X137615000Y-95661033D01*
X137677832Y-95976912D01*
X137683823Y-95991375D01*
X134109003Y-99566196D01*
X134079999Y-99589999D01*
X134024871Y-99657174D01*
X133985026Y-99705724D01*
X133914455Y-99837753D01*
X133914454Y-99837754D01*
X133910000Y-99852437D01*
X133910000Y-96909565D01*
X134179571Y-97040704D01*
X134491108Y-97122384D01*
X134812595Y-97141718D01*
X135131675Y-97097961D01*
X135436088Y-96992795D01*
X135610044Y-96899814D01*
X135705808Y-96635413D01*
X134750000Y-95679605D01*
X134735858Y-95693748D01*
X134556253Y-95514143D01*
X134570395Y-95500000D01*
X134929605Y-95500000D01*
X135885413Y-96455808D01*
X136149814Y-96360044D01*
X136290704Y-96070429D01*
X136372384Y-95758892D01*
X136391718Y-95437405D01*
X136347961Y-95118325D01*
X136242795Y-94813912D01*
X136149814Y-94639956D01*
X135885413Y-94544192D01*
X134929605Y-95500000D01*
X134570395Y-95500000D01*
X134556253Y-95485858D01*
X134735858Y-95306253D01*
X134750000Y-95320395D01*
X135705808Y-94364587D01*
X135610044Y-94100186D01*
X135320429Y-93959296D01*
X135008892Y-93877616D01*
X134687405Y-93858282D01*
X134368325Y-93902039D01*
X134063912Y-94007205D01*
X133910000Y-94089472D01*
X133910000Y-90409565D01*
X134179571Y-90540704D01*
X134491108Y-90622384D01*
X134812595Y-90641718D01*
X135131675Y-90597961D01*
X135436088Y-90492795D01*
X135610044Y-90399814D01*
X135705808Y-90135413D01*
X134750000Y-89179605D01*
X134735858Y-89193748D01*
X134556253Y-89014143D01*
X134570395Y-89000000D01*
X134556253Y-88985858D01*
X134735858Y-88806253D01*
X134750000Y-88820395D01*
X134764143Y-88806253D01*
X134943748Y-88985858D01*
X134929605Y-89000000D01*
X135885413Y-89955808D01*
X136149814Y-89860044D01*
X136290704Y-89570429D01*
X136372384Y-89258892D01*
X136391718Y-88937405D01*
X136347961Y-88618325D01*
X136242795Y-88313912D01*
X136187253Y-88210000D01*
X137811463Y-88210000D01*
X137801082Y-88225537D01*
G36*
X177443748Y-88985858D02*
G01*
X177429605Y-89000000D01*
X177443748Y-89014143D01*
X177264143Y-89193748D01*
X177250000Y-89179605D01*
X177235858Y-89193748D01*
X177056253Y-89014143D01*
X177070395Y-89000000D01*
X177056253Y-88985858D01*
X177235858Y-88806253D01*
X177250000Y-88820395D01*
X177264143Y-88806253D01*
X177443748Y-88985858D01*
G37*
X177443748Y-88985858D02*
X177429605Y-89000000D01*
X177443748Y-89014143D01*
X177264143Y-89193748D01*
X177250000Y-89179605D01*
X177235858Y-89193748D01*
X177056253Y-89014143D01*
X177070395Y-89000000D01*
X177056253Y-88985858D01*
X177235858Y-88806253D01*
X177250000Y-88820395D01*
X177264143Y-88806253D01*
X177443748Y-88985858D01*
M02*
