M48
; DRILL file {KiCad 5.1.5-52549c5~84~ubuntu18.04.1} date Di 28 Jan 2020 15:27:18 CET
; FORMAT={-:-/ absolute / inch / decimal}
; #@! TF.CreationDate,2020-01-28T15:27:18+01:00
; #@! TF.GenerationSoftware,Kicad,Pcbnew,5.1.5-52549c5~84~ubuntu18.04.1
FMAT,2
INCH
T1C0.0157
T2C0.0300
T3C0.0315
T4C0.0394
T5C0.0433
T6C0.1260
%
G90
G05
T1
X5.3Y-4.3
X5.3Y-4.3
X5.5Y-5.05
X5.5Y-5.05
T2
X6.3189Y-4.815
X6.7913Y-4.815
T3
X5.3248Y-4.5622
X5.3248Y-4.8622
X5.33Y-5.0525
X5.33Y-5.1525
X5.33Y-5.2525
X5.33Y-5.3525
X5.63Y-5.0525
X5.63Y-5.1525
X5.63Y-5.2525
X5.63Y-5.3525
T4
X6.7Y-3.6
X6.8Y-3.6
X5.8165Y-5.1945
X5.8165Y-5.3025
X5.8165Y-5.6025
X5.8165Y-5.7105
X6.7165Y-5.1865
X6.7165Y-5.7185
X5.45Y-4.0
X5.45Y-4.1
X5.45Y-4.2
X5.45Y-4.3
X5.45Y-4.4
X5.45Y-4.5
X5.45Y-4.6
X5.45Y-4.7
X5.45Y-4.8
X5.45Y-4.9
X5.7Y-3.75
X5.8Y-3.75
X7.1358Y-4.872
X7.1358Y-4.972
X7.125Y-4.225
X7.125Y-4.325
X7.125Y-4.425
X7.125Y-4.525
X7.125Y-4.625
X7.125Y-4.725
T5
X6.9783Y-3.5039
X6.9783Y-3.7598
X7.1555Y-3.5039
X7.1555Y-3.7598
X5.3051Y-3.5039
X5.3051Y-3.7598
X5.4823Y-3.5039
X5.4823Y-3.7598
X5.3051Y-5.4921
X5.3051Y-5.748
X5.4823Y-5.4921
X5.4823Y-5.748
X6.9783Y-5.4921
X6.9783Y-5.748
X7.1555Y-5.4921
X7.1555Y-5.748
T6
X6.5846Y-4.9803
X6.9291Y-4.9803
T0
M30
