G04 #@! TF.GenerationSoftware,KiCad,Pcbnew,(5.0.1-3-g963ef8bb5)*
G04 #@! TF.CreationDate,2019-04-15T21:43:45+02:00*
G04 #@! TF.ProjectId,NOKOlino,4E4F4B4F6C696E6F2E6B696361645F70,rev?*
G04 #@! TF.SameCoordinates,Original*
G04 #@! TF.FileFunction,Copper,L1,Top,Signal*
G04 #@! TF.FilePolarity,Positive*
%FSLAX46Y46*%
G04 Gerber Fmt 4.6, Leading zero omitted, Abs format (unit mm)*
G04 Created by KiCad (PCBNEW (5.0.1-3-g963ef8bb5)) date 2019 April 15, Monday 21:43:45*
%MOMM*%
%LPD*%
G01*
G04 APERTURE LIST*
G04 #@! TA.AperFunction,ComponentPad*
%ADD10C,1.524000*%
G04 #@! TD*
G04 #@! TA.AperFunction,ComponentPad*
%ADD11C,5.600000*%
G04 #@! TD*
G04 #@! TA.AperFunction,ComponentPad*
%ADD12C,2.000000*%
G04 #@! TD*
G04 #@! TA.AperFunction,ComponentPad*
%ADD13R,2.000000X1.800000*%
G04 #@! TD*
G04 #@! TA.AperFunction,ComponentPad*
%ADD14O,2.000000X1.800000*%
G04 #@! TD*
G04 #@! TA.AperFunction,ComponentPad*
%ADD15C,1.600000*%
G04 #@! TD*
G04 #@! TA.AperFunction,ComponentPad*
%ADD16O,1.600000X1.600000*%
G04 #@! TD*
G04 #@! TA.AperFunction,ComponentPad*
%ADD17R,1.700000X1.700000*%
G04 #@! TD*
G04 #@! TA.AperFunction,ComponentPad*
%ADD18O,1.700000X1.700000*%
G04 #@! TD*
G04 #@! TA.AperFunction,ViaPad*
%ADD19C,0.600000*%
G04 #@! TD*
G04 #@! TA.AperFunction,Conductor*
%ADD20C,0.250000*%
G04 #@! TD*
G04 #@! TA.AperFunction,Conductor*
%ADD21C,0.254000*%
G04 #@! TD*
G04 APERTURE END LIST*
D10*
G04 #@! TO.P,LS1,1*
G04 #@! TO.N,Net-(LS1-Pad1)*
X160500000Y-122300000D03*
G04 #@! TO.P,LS1,2*
G04 #@! TO.N,Net-(LS1-Pad2)*
X172500000Y-122300000D03*
G04 #@! TD*
D11*
G04 #@! TO.P,MH1,1*
G04 #@! TO.N,N/C*
X167250000Y-126500000D03*
G04 #@! TD*
G04 #@! TO.P,MH2,1*
G04 #@! TO.N,N/C*
X176000000Y-126500000D03*
G04 #@! TD*
D12*
G04 #@! TO.P,SW1,2*
G04 #@! TO.N,Net-(SW1-Pad2)*
X139250000Y-95500000D03*
G04 #@! TO.P,SW1,1*
G04 #@! TO.N,GND*
X134750000Y-95500000D03*
G04 #@! TO.P,SW1,2*
G04 #@! TO.N,Net-(SW1-Pad2)*
X139250000Y-89000000D03*
G04 #@! TO.P,SW1,1*
G04 #@! TO.N,GND*
X134750000Y-89000000D03*
G04 #@! TD*
G04 #@! TO.P,SW2,2*
G04 #@! TO.N,Net-(SW1-Pad2)*
X181750000Y-95500000D03*
G04 #@! TO.P,SW2,1*
G04 #@! TO.N,GND*
X177250000Y-95500000D03*
G04 #@! TO.P,SW2,2*
G04 #@! TO.N,Net-(SW1-Pad2)*
X181750000Y-89000000D03*
G04 #@! TO.P,SW2,1*
G04 #@! TO.N,GND*
X177250000Y-89000000D03*
G04 #@! TD*
G04 #@! TO.P,SW3,2*
G04 #@! TO.N,Net-(SW1-Pad2)*
X181750000Y-146000000D03*
G04 #@! TO.P,SW3,1*
G04 #@! TO.N,GND*
X177250000Y-146000000D03*
G04 #@! TO.P,SW3,2*
G04 #@! TO.N,Net-(SW1-Pad2)*
X181750000Y-139500000D03*
G04 #@! TO.P,SW3,1*
G04 #@! TO.N,GND*
X177250000Y-139500000D03*
G04 #@! TD*
G04 #@! TO.P,SW4,2*
G04 #@! TO.N,Net-(SW1-Pad2)*
X139250000Y-146000000D03*
G04 #@! TO.P,SW4,1*
G04 #@! TO.N,GND*
X134750000Y-146000000D03*
G04 #@! TO.P,SW4,2*
G04 #@! TO.N,Net-(SW1-Pad2)*
X139250000Y-139500000D03*
G04 #@! TO.P,SW4,1*
G04 #@! TO.N,GND*
X134750000Y-139500000D03*
G04 #@! TD*
G04 #@! TO.P,U1,4*
G04 #@! TO.N,Akku+*
X147720000Y-142310000D03*
G04 #@! TO.P,U1,5*
G04 #@! TO.N,Akku-*
X147720000Y-134690000D03*
G04 #@! TO.P,U1,6*
G04 #@! TO.N,GND*
X147720000Y-131946800D03*
G04 #@! TO.P,U1,3*
G04 #@! TO.N,Net-(J1-Pad5)*
X147720000Y-145053200D03*
G04 #@! TO.P,U1,2*
G04 #@! TO.N,USB-*
X170580000Y-131743600D03*
G04 #@! TO.P,U1,1*
G04 #@! TO.N,USB+*
X170580000Y-145256400D03*
G04 #@! TD*
D13*
G04 #@! TO.P,U2,1*
G04 #@! TO.N,Net-(U2-Pad1)*
X143000000Y-136000000D03*
D14*
G04 #@! TO.P,U2,5*
G04 #@! TO.N,Net-(SW1-Pad2)*
X135380000Y-128380000D03*
G04 #@! TO.P,U2,2*
G04 #@! TO.N,Net-(Q1-Pad2)*
X143000000Y-133460000D03*
G04 #@! TO.P,U2,6*
G04 #@! TO.N,Net-(M1-Pad9)*
X135380000Y-130920000D03*
G04 #@! TO.P,U2,3*
G04 #@! TO.N,Net-(M1-Pad8)*
X143000000Y-130920000D03*
G04 #@! TO.P,U2,7*
G04 #@! TO.N,D+*
X135380000Y-133460000D03*
G04 #@! TO.P,U2,4*
G04 #@! TO.N,GND*
X143000000Y-128380000D03*
G04 #@! TO.P,U2,8*
G04 #@! TO.N,VCC*
X135380000Y-136000000D03*
G04 #@! TD*
G04 #@! TO.P,M1,9*
G04 #@! TO.N,Net-(M1-Pad9)*
X154120000Y-124140000D03*
G04 #@! TO.P,M1,10*
G04 #@! TO.N,Net-(M1-Pad10)*
X154120000Y-121600000D03*
G04 #@! TO.P,M1,11*
G04 #@! TO.N,GND*
X154120000Y-119060000D03*
G04 #@! TO.P,M1,12*
G04 #@! TO.N,VCC*
X154120000Y-116520000D03*
G04 #@! TO.P,M1,13*
G04 #@! TO.N,Net-(M1-Pad13)*
X154120000Y-113980000D03*
G04 #@! TO.P,M1,14*
G04 #@! TO.N,Net-(M1-Pad14)*
X154120000Y-111440000D03*
G04 #@! TO.P,M1,15*
G04 #@! TO.N,Net-(LS1-Pad2)*
X154120000Y-108900000D03*
G04 #@! TO.P,M1,16*
G04 #@! TO.N,Net-(LS1-Pad1)*
X154120000Y-106360000D03*
G04 #@! TO.P,M1,8*
G04 #@! TO.N,Net-(M1-Pad8)*
X138880000Y-124140000D03*
G04 #@! TO.P,M1,7*
G04 #@! TO.N,Net-(M1-Pad7)*
X138880000Y-121600000D03*
G04 #@! TO.P,M1,6*
G04 #@! TO.N,GND*
X138880000Y-119060000D03*
G04 #@! TO.P,M1,5*
G04 #@! TO.N,Net-(M1-Pad5)*
X138880000Y-116520000D03*
G04 #@! TO.P,M1,4*
G04 #@! TO.N,Net-(M1-Pad4)*
X138880000Y-113980000D03*
G04 #@! TO.P,M1,3*
G04 #@! TO.N,Net-(M1-Pad3)*
X138880000Y-111440000D03*
G04 #@! TO.P,M1,2*
G04 #@! TO.N,Net-(M1-Pad2)*
X138880000Y-108900000D03*
D13*
G04 #@! TO.P,M1,1*
G04 #@! TO.N,Net-(M1-Pad1)*
X138880000Y-106360000D03*
D12*
G04 #@! TO.P,M1,17*
G04 #@! TO.N,D-*
X147875000Y-96650000D03*
G04 #@! TO.P,M1,18*
G04 #@! TO.N,D+*
X145100000Y-96650000D03*
G04 #@! TD*
D15*
G04 #@! TO.P,R1,1*
G04 #@! TO.N,Net-(Q1-Pad2)*
X135250000Y-123500000D03*
D16*
G04 #@! TO.P,R1,2*
G04 #@! TO.N,GND*
X135250000Y-115880000D03*
G04 #@! TD*
D17*
G04 #@! TO.P,Q1,1*
G04 #@! TO.N,VCC*
X181250000Y-123750000D03*
D18*
G04 #@! TO.P,Q1,2*
G04 #@! TO.N,Net-(Q1-Pad2)*
X181250000Y-126290000D03*
G04 #@! TD*
D17*
G04 #@! TO.P,J1,1*
G04 #@! TO.N,USB-*
X180975000Y-107315000D03*
D18*
G04 #@! TO.P,J1,2*
G04 #@! TO.N,USB+*
X180975000Y-109855000D03*
G04 #@! TO.P,J1,3*
G04 #@! TO.N,D-*
X180975000Y-112395000D03*
G04 #@! TO.P,J1,4*
G04 #@! TO.N,D+*
X180975000Y-114935000D03*
G04 #@! TO.P,J1,5*
G04 #@! TO.N,Net-(J1-Pad5)*
X180975000Y-117475000D03*
G04 #@! TO.P,J1,6*
G04 #@! TO.N,VCC*
X180975000Y-120015000D03*
G04 #@! TD*
G04 #@! TO.P,J2,2*
G04 #@! TO.N,Akku-*
X168275000Y-92710000D03*
D17*
G04 #@! TO.P,J2,1*
G04 #@! TO.N,Akku+*
X165735000Y-92710000D03*
G04 #@! TD*
D19*
G04 #@! TO.N,Akku-*
X150983000Y-134760300D03*
G04 #@! TD*
D20*
G04 #@! TO.N,Net-(LS1-Pad1)*
X160500000Y-113429200D02*
X160500000Y-122300000D01*
X154656100Y-107585300D02*
X160500000Y-113429200D01*
X154120000Y-107585300D02*
X154656100Y-107585300D01*
X154120000Y-106360000D02*
X154120000Y-107585300D01*
G04 #@! TO.N,Net-(SW1-Pad2)*
X139250000Y-139500000D02*
X139250000Y-146000000D01*
X135380000Y-128380000D02*
X133710010Y-128380000D01*
X133710010Y-101039990D02*
X139250000Y-95500000D01*
X133710010Y-128380000D02*
X133710010Y-101039990D01*
X137835787Y-139500000D02*
X139250000Y-139500000D01*
X134054990Y-136507415D02*
X137047575Y-139500000D01*
X137047575Y-139500000D02*
X137835787Y-139500000D01*
X134054990Y-129605010D02*
X134054990Y-136507415D01*
X135280000Y-128380000D02*
X134054990Y-129605010D01*
X135380000Y-128380000D02*
X135280000Y-128380000D01*
G04 #@! TO.N,VCC*
X146390800Y-143724000D02*
X147720000Y-145053200D01*
X146390800Y-124938400D02*
X146390800Y-143724000D01*
X153583900Y-117745300D02*
X146390800Y-124938400D01*
X154120000Y-117745300D02*
X153583900Y-117745300D01*
X154120000Y-116520000D02*
X154120000Y-117745300D01*
G04 #@! TO.N,Net-(M1-Pad8)*
X142463900Y-129694700D02*
X143000000Y-129694700D01*
X138880000Y-126110800D02*
X142463900Y-129694700D01*
X138880000Y-124140000D02*
X138880000Y-126110800D01*
X143000000Y-130920000D02*
X143000000Y-129694700D01*
G04 #@! TO.N,D+*
X135380000Y-133972800D02*
X135380000Y-133460000D01*
X136605010Y-134685010D02*
X135830010Y-133910010D01*
X143607415Y-134685010D02*
X136605010Y-134685010D01*
X145100000Y-133192425D02*
X143607415Y-134685010D01*
X145100000Y-96650000D02*
X145100000Y-133192425D01*
G04 #@! TO.N,Akku+*
X147720000Y-142310000D02*
X147720000Y-137110500D01*
X165735000Y-92710000D02*
X165735000Y-119095500D01*
X147720000Y-137110500D02*
X165735000Y-119095500D01*
G04 #@! TO.N,Akku-*
X168275000Y-92710000D02*
X168275000Y-117468300D01*
X150983000Y-134760300D02*
X168275000Y-117468300D01*
G04 #@! TO.N,USB-*
X180735800Y-108505300D02*
X181250000Y-108505300D01*
X170580000Y-118661100D02*
X180735800Y-108505300D01*
X170580000Y-131743600D02*
X170580000Y-118661100D01*
X181250000Y-107330000D02*
X181250000Y-108505300D01*
G04 #@! TO.N,USB+*
X181250000Y-109870000D02*
X181250000Y-111045300D01*
X180735800Y-111045300D02*
X181250000Y-111045300D01*
X179435100Y-112346000D02*
X180735800Y-111045300D01*
X179435100Y-117526900D02*
X179435100Y-112346000D01*
X172582800Y-124379200D02*
X179435100Y-117526900D01*
X172582800Y-143253600D02*
X172582800Y-124379200D01*
X170580000Y-145256400D02*
X172582800Y-143253600D01*
G04 #@! TO.N,GND*
X134750000Y-146000000D02*
X134750000Y-139500000D01*
X177250000Y-146000000D02*
X177250000Y-139500000D01*
X134750000Y-95500000D02*
X134750000Y-89000000D01*
X177250000Y-89000000D02*
X177250000Y-95500000D01*
G04 #@! TO.N,Net-(Q1-Pad2)*
X135250000Y-125020800D02*
X135250000Y-123500000D01*
X142463900Y-132234700D02*
X135250000Y-125020800D01*
X143000000Y-132234700D02*
X142463900Y-132234700D01*
X143000000Y-133460000D02*
X143000000Y-132234700D01*
G04 #@! TD*
D21*
G04 #@! TO.N,GND*
G36*
X137615000Y-88674778D02*
X137615000Y-89325222D01*
X137863914Y-89926153D01*
X138323847Y-90386086D01*
X138924778Y-90635000D01*
X139575222Y-90635000D01*
X140176153Y-90386086D01*
X140409707Y-90152532D01*
X176277073Y-90152532D01*
X176375736Y-90419387D01*
X176985461Y-90645908D01*
X177635460Y-90621856D01*
X178124264Y-90419387D01*
X178222927Y-90152532D01*
X177250000Y-89179605D01*
X176277073Y-90152532D01*
X140409707Y-90152532D01*
X140636086Y-89926153D01*
X140885000Y-89325222D01*
X140885000Y-88674778D01*
X140692482Y-88210000D01*
X175799308Y-88210000D01*
X175604092Y-88735461D01*
X175628144Y-89385460D01*
X175830613Y-89874264D01*
X176097468Y-89972927D01*
X177070395Y-89000000D01*
X177056253Y-88985858D01*
X177235858Y-88806253D01*
X177250000Y-88820395D01*
X177264143Y-88806253D01*
X177443748Y-88985858D01*
X177429605Y-89000000D01*
X178402532Y-89972927D01*
X178669387Y-89874264D01*
X178895908Y-89264539D01*
X178871856Y-88614540D01*
X178704290Y-88210000D01*
X180307518Y-88210000D01*
X180115000Y-88674778D01*
X180115000Y-89325222D01*
X180363914Y-89926153D01*
X180823847Y-90386086D01*
X181424778Y-90635000D01*
X182075222Y-90635000D01*
X182490001Y-90463193D01*
X182490001Y-94036807D01*
X182075222Y-93865000D01*
X181424778Y-93865000D01*
X180823847Y-94113914D01*
X180363914Y-94573847D01*
X180115000Y-95174778D01*
X180115000Y-95825222D01*
X180363914Y-96426153D01*
X180823847Y-96886086D01*
X181424778Y-97135000D01*
X182075222Y-97135000D01*
X182490001Y-96963193D01*
X182490000Y-122396882D01*
X182347765Y-122301843D01*
X182100000Y-122252560D01*
X180400000Y-122252560D01*
X180152235Y-122301843D01*
X179942191Y-122442191D01*
X179801843Y-122652235D01*
X179752560Y-122900000D01*
X179752560Y-124600000D01*
X179801843Y-124847765D01*
X179942191Y-125057809D01*
X180152235Y-125198157D01*
X180197619Y-125207184D01*
X180179375Y-125219375D01*
X179851161Y-125710582D01*
X179735908Y-126290000D01*
X179851161Y-126869418D01*
X180179375Y-127360625D01*
X180670582Y-127688839D01*
X181103744Y-127775000D01*
X181396256Y-127775000D01*
X181829418Y-127688839D01*
X182320625Y-127360625D01*
X182490000Y-127107137D01*
X182490000Y-138036807D01*
X182075222Y-137865000D01*
X181424778Y-137865000D01*
X180823847Y-138113914D01*
X180363914Y-138573847D01*
X180115000Y-139174778D01*
X180115000Y-139825222D01*
X180363914Y-140426153D01*
X180823847Y-140886086D01*
X181424778Y-141135000D01*
X182075222Y-141135000D01*
X182490000Y-140963193D01*
X182490000Y-144536807D01*
X182075222Y-144365000D01*
X181424778Y-144365000D01*
X180823847Y-144613914D01*
X180363914Y-145073847D01*
X180115000Y-145674778D01*
X180115000Y-146325222D01*
X180307518Y-146790000D01*
X178700692Y-146790000D01*
X178895908Y-146264539D01*
X178871856Y-145614540D01*
X178669387Y-145125736D01*
X178402532Y-145027073D01*
X177429605Y-146000000D01*
X177443748Y-146014143D01*
X177264143Y-146193748D01*
X177250000Y-146179605D01*
X177235858Y-146193748D01*
X177056253Y-146014143D01*
X177070395Y-146000000D01*
X176097468Y-145027073D01*
X175830613Y-145125736D01*
X175604092Y-145735461D01*
X175628144Y-146385460D01*
X175795710Y-146790000D01*
X171150023Y-146790000D01*
X171506153Y-146642486D01*
X171966086Y-146182553D01*
X172215000Y-145581622D01*
X172215000Y-144931178D01*
X172180327Y-144847468D01*
X176277073Y-144847468D01*
X177250000Y-145820395D01*
X178222927Y-144847468D01*
X178124264Y-144580613D01*
X177514539Y-144354092D01*
X176864540Y-144378144D01*
X176375736Y-144580613D01*
X176277073Y-144847468D01*
X172180327Y-144847468D01*
X172146177Y-144765025D01*
X173067273Y-143843929D01*
X173130729Y-143801529D01*
X173298704Y-143550137D01*
X173342800Y-143328452D01*
X173342800Y-143328447D01*
X173357688Y-143253600D01*
X173342800Y-143178753D01*
X173342800Y-140652532D01*
X176277073Y-140652532D01*
X176375736Y-140919387D01*
X176985461Y-141145908D01*
X177635460Y-141121856D01*
X178124264Y-140919387D01*
X178222927Y-140652532D01*
X177250000Y-139679605D01*
X176277073Y-140652532D01*
X173342800Y-140652532D01*
X173342800Y-139235461D01*
X175604092Y-139235461D01*
X175628144Y-139885460D01*
X175830613Y-140374264D01*
X176097468Y-140472927D01*
X177070395Y-139500000D01*
X177429605Y-139500000D01*
X178402532Y-140472927D01*
X178669387Y-140374264D01*
X178895908Y-139764539D01*
X178871856Y-139114540D01*
X178669387Y-138625736D01*
X178402532Y-138527073D01*
X177429605Y-139500000D01*
X177070395Y-139500000D01*
X176097468Y-138527073D01*
X175830613Y-138625736D01*
X175604092Y-139235461D01*
X173342800Y-139235461D01*
X173342800Y-138347468D01*
X176277073Y-138347468D01*
X177250000Y-139320395D01*
X178222927Y-138347468D01*
X178124264Y-138080613D01*
X177514539Y-137854092D01*
X176864540Y-137878144D01*
X176375736Y-138080613D01*
X176277073Y-138347468D01*
X173342800Y-138347468D01*
X173342800Y-128700624D01*
X174054229Y-129412053D01*
X175316736Y-129935000D01*
X176683264Y-129935000D01*
X177945771Y-129412053D01*
X178912053Y-128445771D01*
X179435000Y-127183264D01*
X179435000Y-125816736D01*
X178912053Y-124554229D01*
X177945771Y-123587947D01*
X176683264Y-123065000D01*
X175316736Y-123065000D01*
X174727896Y-123308905D01*
X179738871Y-118297931D01*
X179904375Y-118545625D01*
X180202761Y-118745000D01*
X179904375Y-118944375D01*
X179576161Y-119435582D01*
X179460908Y-120015000D01*
X179576161Y-120594418D01*
X179904375Y-121085625D01*
X180395582Y-121413839D01*
X180828744Y-121500000D01*
X181121256Y-121500000D01*
X181554418Y-121413839D01*
X182045625Y-121085625D01*
X182373839Y-120594418D01*
X182489092Y-120015000D01*
X182373839Y-119435582D01*
X182045625Y-118944375D01*
X181747239Y-118745000D01*
X182045625Y-118545625D01*
X182373839Y-118054418D01*
X182489092Y-117475000D01*
X182373839Y-116895582D01*
X182045625Y-116404375D01*
X181747239Y-116205000D01*
X182045625Y-116005625D01*
X182373839Y-115514418D01*
X182489092Y-114935000D01*
X182373839Y-114355582D01*
X182045625Y-113864375D01*
X181747239Y-113665000D01*
X182045625Y-113465625D01*
X182373839Y-112974418D01*
X182489092Y-112395000D01*
X182373839Y-111815582D01*
X182045625Y-111324375D01*
X181978323Y-111279405D01*
X182024889Y-111045300D01*
X182010000Y-110970448D01*
X182010000Y-110949429D01*
X182045625Y-110925625D01*
X182373839Y-110434418D01*
X182489092Y-109855000D01*
X182373839Y-109275582D01*
X182045625Y-108784375D01*
X182027381Y-108772184D01*
X182072765Y-108763157D01*
X182282809Y-108622809D01*
X182423157Y-108412765D01*
X182472440Y-108165000D01*
X182472440Y-106465000D01*
X182423157Y-106217235D01*
X182282809Y-106007191D01*
X182072765Y-105866843D01*
X181825000Y-105817560D01*
X180125000Y-105817560D01*
X179877235Y-105866843D01*
X179667191Y-106007191D01*
X179526843Y-106217235D01*
X179477560Y-106465000D01*
X179477560Y-108165000D01*
X179526843Y-108412765D01*
X179617643Y-108548655D01*
X170095528Y-118070771D01*
X170032072Y-118113171D01*
X169989672Y-118176627D01*
X169989671Y-118176628D01*
X169864097Y-118364563D01*
X169805112Y-118661100D01*
X169820001Y-118735952D01*
X169820001Y-124212177D01*
X169195771Y-123587947D01*
X167933264Y-123065000D01*
X166566736Y-123065000D01*
X165304229Y-123587947D01*
X164337947Y-124554229D01*
X163815000Y-125816736D01*
X163815000Y-127183264D01*
X164337947Y-128445771D01*
X165304229Y-129412053D01*
X166566736Y-129935000D01*
X167933264Y-129935000D01*
X169195771Y-129412053D01*
X169820000Y-128787824D01*
X169820000Y-130288691D01*
X169653847Y-130357514D01*
X169193914Y-130817447D01*
X168945000Y-131418378D01*
X168945000Y-132068822D01*
X169193914Y-132669753D01*
X169653847Y-133129686D01*
X170254778Y-133378600D01*
X170905222Y-133378600D01*
X171506153Y-133129686D01*
X171822801Y-132813038D01*
X171822800Y-142938798D01*
X171071375Y-143690223D01*
X170905222Y-143621400D01*
X170254778Y-143621400D01*
X169653847Y-143870314D01*
X169193914Y-144330247D01*
X168945000Y-144931178D01*
X168945000Y-145581622D01*
X169193914Y-146182553D01*
X169653847Y-146642486D01*
X170009977Y-146790000D01*
X140692482Y-146790000D01*
X140885000Y-146325222D01*
X140885000Y-145674778D01*
X140636086Y-145073847D01*
X140176153Y-144613914D01*
X140010000Y-144545091D01*
X140010000Y-140954909D01*
X140176153Y-140886086D01*
X140636086Y-140426153D01*
X140885000Y-139825222D01*
X140885000Y-139174778D01*
X140636086Y-138573847D01*
X140176153Y-138113914D01*
X139575222Y-137865000D01*
X138924778Y-137865000D01*
X138323847Y-138113914D01*
X137863914Y-138573847D01*
X137795091Y-138740000D01*
X137362378Y-138740000D01*
X136070076Y-137447699D01*
X136078927Y-137445938D01*
X136586673Y-137106673D01*
X136925938Y-136598927D01*
X137045072Y-136000000D01*
X136934678Y-135445010D01*
X141352560Y-135445010D01*
X141352560Y-136900000D01*
X141401843Y-137147765D01*
X141542191Y-137357809D01*
X141752235Y-137498157D01*
X142000000Y-137547440D01*
X144000000Y-137547440D01*
X144247765Y-137498157D01*
X144457809Y-137357809D01*
X144598157Y-137147765D01*
X144647440Y-136900000D01*
X144647440Y-135100000D01*
X144598157Y-134852235D01*
X144564845Y-134802381D01*
X145584473Y-133782754D01*
X145630800Y-133751799D01*
X145630801Y-143649148D01*
X145615912Y-143724000D01*
X145630801Y-143798852D01*
X145674897Y-144020537D01*
X145842872Y-144271929D01*
X145906328Y-144314329D01*
X146153823Y-144561824D01*
X146085000Y-144727978D01*
X146085000Y-145378422D01*
X146333914Y-145979353D01*
X146793847Y-146439286D01*
X147394778Y-146688200D01*
X148045222Y-146688200D01*
X148646153Y-146439286D01*
X149106086Y-145979353D01*
X149355000Y-145378422D01*
X149355000Y-144727978D01*
X149106086Y-144127047D01*
X148660639Y-143681600D01*
X149106086Y-143236153D01*
X149355000Y-142635222D01*
X149355000Y-141984778D01*
X149106086Y-141383847D01*
X148646153Y-140923914D01*
X148480000Y-140855091D01*
X148480000Y-137425301D01*
X150402856Y-135502446D01*
X150453365Y-135552955D01*
X150797017Y-135695300D01*
X151168983Y-135695300D01*
X151512635Y-135552955D01*
X151775655Y-135289935D01*
X151918000Y-134946283D01*
X151918000Y-134900101D01*
X168759473Y-118058629D01*
X168822929Y-118016229D01*
X168990904Y-117764837D01*
X169035000Y-117543152D01*
X169035000Y-117543147D01*
X169049888Y-117468300D01*
X169035000Y-117393453D01*
X169035000Y-96652532D01*
X176277073Y-96652532D01*
X176375736Y-96919387D01*
X176985461Y-97145908D01*
X177635460Y-97121856D01*
X178124264Y-96919387D01*
X178222927Y-96652532D01*
X177250000Y-95679605D01*
X176277073Y-96652532D01*
X169035000Y-96652532D01*
X169035000Y-95235461D01*
X175604092Y-95235461D01*
X175628144Y-95885460D01*
X175830613Y-96374264D01*
X176097468Y-96472927D01*
X177070395Y-95500000D01*
X177429605Y-95500000D01*
X178402532Y-96472927D01*
X178669387Y-96374264D01*
X178895908Y-95764539D01*
X178871856Y-95114540D01*
X178669387Y-94625736D01*
X178402532Y-94527073D01*
X177429605Y-95500000D01*
X177070395Y-95500000D01*
X176097468Y-94527073D01*
X175830613Y-94625736D01*
X175604092Y-95235461D01*
X169035000Y-95235461D01*
X169035000Y-94347468D01*
X176277073Y-94347468D01*
X177250000Y-95320395D01*
X178222927Y-94347468D01*
X178124264Y-94080613D01*
X177514539Y-93854092D01*
X176864540Y-93878144D01*
X176375736Y-94080613D01*
X176277073Y-94347468D01*
X169035000Y-94347468D01*
X169035000Y-93988178D01*
X169345625Y-93780625D01*
X169673839Y-93289418D01*
X169789092Y-92710000D01*
X169673839Y-92130582D01*
X169345625Y-91639375D01*
X168854418Y-91311161D01*
X168421256Y-91225000D01*
X168128744Y-91225000D01*
X167695582Y-91311161D01*
X167204375Y-91639375D01*
X167192184Y-91657619D01*
X167183157Y-91612235D01*
X167042809Y-91402191D01*
X166832765Y-91261843D01*
X166585000Y-91212560D01*
X164885000Y-91212560D01*
X164637235Y-91261843D01*
X164427191Y-91402191D01*
X164286843Y-91612235D01*
X164237560Y-91860000D01*
X164237560Y-93560000D01*
X164286843Y-93807765D01*
X164427191Y-94017809D01*
X164637235Y-94158157D01*
X164885000Y-94207440D01*
X164975000Y-94207440D01*
X164975001Y-118780696D01*
X161849135Y-121906562D01*
X161684320Y-121508663D01*
X161291337Y-121115680D01*
X161260000Y-121102700D01*
X161260000Y-113504048D01*
X161274888Y-113429200D01*
X161260000Y-113354352D01*
X161260000Y-113354348D01*
X161215904Y-113132663D01*
X161047929Y-112881271D01*
X160984473Y-112838871D01*
X155441069Y-107295468D01*
X155665938Y-106958927D01*
X155785072Y-106360000D01*
X155665938Y-105761073D01*
X155326673Y-105253327D01*
X154818927Y-104914062D01*
X154371182Y-104825000D01*
X153868818Y-104825000D01*
X153421073Y-104914062D01*
X152913327Y-105253327D01*
X152574062Y-105761073D01*
X152454928Y-106360000D01*
X152574062Y-106958927D01*
X152913327Y-107466673D01*
X153157763Y-107630000D01*
X152913327Y-107793327D01*
X152574062Y-108301073D01*
X152454928Y-108900000D01*
X152574062Y-109498927D01*
X152913327Y-110006673D01*
X153157763Y-110170000D01*
X152913327Y-110333327D01*
X152574062Y-110841073D01*
X152454928Y-111440000D01*
X152574062Y-112038927D01*
X152913327Y-112546673D01*
X153157763Y-112710000D01*
X152913327Y-112873327D01*
X152574062Y-113381073D01*
X152454928Y-113980000D01*
X152574062Y-114578927D01*
X152913327Y-115086673D01*
X153157763Y-115250000D01*
X152913327Y-115413327D01*
X152574062Y-115921073D01*
X152454928Y-116520000D01*
X152574062Y-117118927D01*
X152798931Y-117455467D01*
X145906330Y-124348069D01*
X145860000Y-124379026D01*
X145860000Y-98104909D01*
X146026153Y-98036086D01*
X146486086Y-97576153D01*
X146487500Y-97572739D01*
X146488914Y-97576153D01*
X146948847Y-98036086D01*
X147549778Y-98285000D01*
X148200222Y-98285000D01*
X148801153Y-98036086D01*
X149261086Y-97576153D01*
X149510000Y-96975222D01*
X149510000Y-96324778D01*
X149261086Y-95723847D01*
X148801153Y-95263914D01*
X148200222Y-95015000D01*
X147549778Y-95015000D01*
X146948847Y-95263914D01*
X146488914Y-95723847D01*
X146487500Y-95727261D01*
X146486086Y-95723847D01*
X146026153Y-95263914D01*
X145425222Y-95015000D01*
X144774778Y-95015000D01*
X144173847Y-95263914D01*
X143713914Y-95723847D01*
X143465000Y-96324778D01*
X143465000Y-96975222D01*
X143713914Y-97576153D01*
X144173847Y-98036086D01*
X144340000Y-98104909D01*
X144340001Y-127484153D01*
X143924474Y-127086255D01*
X143366620Y-126869223D01*
X143127000Y-127004865D01*
X143127000Y-128253000D01*
X143147000Y-128253000D01*
X143147000Y-128507000D01*
X143127000Y-128507000D01*
X143127000Y-128527000D01*
X142873000Y-128527000D01*
X142873000Y-128507000D01*
X142853000Y-128507000D01*
X142853000Y-128253000D01*
X142873000Y-128253000D01*
X142873000Y-127004865D01*
X142633380Y-126869223D01*
X142075526Y-127086255D01*
X141643191Y-127500248D01*
X141549736Y-127705734D01*
X139640000Y-125795999D01*
X139640000Y-125545130D01*
X140086673Y-125246673D01*
X140425938Y-124738927D01*
X140545072Y-124140000D01*
X140425938Y-123541073D01*
X140086673Y-123033327D01*
X139842237Y-122870000D01*
X140086673Y-122706673D01*
X140425938Y-122198927D01*
X140545072Y-121600000D01*
X140425938Y-121001073D01*
X140086673Y-120493327D01*
X139834600Y-120324897D01*
X140236809Y-119939752D01*
X140471036Y-119424740D01*
X140350378Y-119187000D01*
X139007000Y-119187000D01*
X139007000Y-119207000D01*
X138753000Y-119207000D01*
X138753000Y-119187000D01*
X137409622Y-119187000D01*
X137288964Y-119424740D01*
X137523191Y-119939752D01*
X137925400Y-120324897D01*
X137673327Y-120493327D01*
X137334062Y-121001073D01*
X137214928Y-121600000D01*
X137334062Y-122198927D01*
X137673327Y-122706673D01*
X137917763Y-122870000D01*
X137673327Y-123033327D01*
X137334062Y-123541073D01*
X137214928Y-124140000D01*
X137334062Y-124738927D01*
X137673327Y-125246673D01*
X138120001Y-125545131D01*
X138120001Y-126035948D01*
X138105112Y-126110800D01*
X138120001Y-126185652D01*
X138164097Y-126407337D01*
X138332072Y-126658729D01*
X138395528Y-126701129D01*
X141678931Y-129984533D01*
X141522560Y-130218558D01*
X136032932Y-124728931D01*
X136062862Y-124716534D01*
X136466534Y-124312862D01*
X136685000Y-123785439D01*
X136685000Y-123214561D01*
X136466534Y-122687138D01*
X136062862Y-122283466D01*
X135535439Y-122065000D01*
X134964561Y-122065000D01*
X134470010Y-122269850D01*
X134470010Y-117072481D01*
X134512577Y-117111041D01*
X134900961Y-117271904D01*
X135123000Y-117149915D01*
X135123000Y-116007000D01*
X135377000Y-116007000D01*
X135377000Y-117149915D01*
X135599039Y-117271904D01*
X135987423Y-117111041D01*
X136402389Y-116735134D01*
X136641914Y-116229041D01*
X136520629Y-116007000D01*
X135377000Y-116007000D01*
X135123000Y-116007000D01*
X135103000Y-116007000D01*
X135103000Y-115753000D01*
X135123000Y-115753000D01*
X135123000Y-114610085D01*
X135377000Y-114610085D01*
X135377000Y-115753000D01*
X136520629Y-115753000D01*
X136641914Y-115530959D01*
X136402389Y-115024866D01*
X135987423Y-114648959D01*
X135599039Y-114488096D01*
X135377000Y-114610085D01*
X135123000Y-114610085D01*
X134900961Y-114488096D01*
X134512577Y-114648959D01*
X134470010Y-114687519D01*
X134470010Y-108900000D01*
X137214928Y-108900000D01*
X137334062Y-109498927D01*
X137673327Y-110006673D01*
X137917763Y-110170000D01*
X137673327Y-110333327D01*
X137334062Y-110841073D01*
X137214928Y-111440000D01*
X137334062Y-112038927D01*
X137673327Y-112546673D01*
X137917763Y-112710000D01*
X137673327Y-112873327D01*
X137334062Y-113381073D01*
X137214928Y-113980000D01*
X137334062Y-114578927D01*
X137673327Y-115086673D01*
X137917763Y-115250000D01*
X137673327Y-115413327D01*
X137334062Y-115921073D01*
X137214928Y-116520000D01*
X137334062Y-117118927D01*
X137673327Y-117626673D01*
X137925400Y-117795103D01*
X137523191Y-118180248D01*
X137288964Y-118695260D01*
X137409622Y-118933000D01*
X138753000Y-118933000D01*
X138753000Y-118913000D01*
X139007000Y-118913000D01*
X139007000Y-118933000D01*
X140350378Y-118933000D01*
X140471036Y-118695260D01*
X140236809Y-118180248D01*
X139834600Y-117795103D01*
X140086673Y-117626673D01*
X140425938Y-117118927D01*
X140545072Y-116520000D01*
X140425938Y-115921073D01*
X140086673Y-115413327D01*
X139842237Y-115250000D01*
X140086673Y-115086673D01*
X140425938Y-114578927D01*
X140545072Y-113980000D01*
X140425938Y-113381073D01*
X140086673Y-112873327D01*
X139842237Y-112710000D01*
X140086673Y-112546673D01*
X140425938Y-112038927D01*
X140545072Y-111440000D01*
X140425938Y-110841073D01*
X140086673Y-110333327D01*
X139842237Y-110170000D01*
X140086673Y-110006673D01*
X140425938Y-109498927D01*
X140545072Y-108900000D01*
X140425938Y-108301073D01*
X140129304Y-107857129D01*
X140337809Y-107717809D01*
X140478157Y-107507765D01*
X140527440Y-107260000D01*
X140527440Y-105460000D01*
X140478157Y-105212235D01*
X140337809Y-105002191D01*
X140127765Y-104861843D01*
X139880000Y-104812560D01*
X137880000Y-104812560D01*
X137632235Y-104861843D01*
X137422191Y-105002191D01*
X137281843Y-105212235D01*
X137232560Y-105460000D01*
X137232560Y-107260000D01*
X137281843Y-107507765D01*
X137422191Y-107717809D01*
X137630696Y-107857129D01*
X137334062Y-108301073D01*
X137214928Y-108900000D01*
X134470010Y-108900000D01*
X134470010Y-101354791D01*
X138758625Y-97066177D01*
X138924778Y-97135000D01*
X139575222Y-97135000D01*
X140176153Y-96886086D01*
X140636086Y-96426153D01*
X140885000Y-95825222D01*
X140885000Y-95174778D01*
X140636086Y-94573847D01*
X140176153Y-94113914D01*
X139575222Y-93865000D01*
X138924778Y-93865000D01*
X138323847Y-94113914D01*
X137863914Y-94573847D01*
X137615000Y-95174778D01*
X137615000Y-95825222D01*
X137683823Y-95991375D01*
X133910000Y-99765199D01*
X133910000Y-96932117D01*
X134485461Y-97145908D01*
X135135460Y-97121856D01*
X135624264Y-96919387D01*
X135722927Y-96652532D01*
X134750000Y-95679605D01*
X134735858Y-95693748D01*
X134556253Y-95514143D01*
X134570395Y-95500000D01*
X134929605Y-95500000D01*
X135902532Y-96472927D01*
X136169387Y-96374264D01*
X136395908Y-95764539D01*
X136371856Y-95114540D01*
X136169387Y-94625736D01*
X135902532Y-94527073D01*
X134929605Y-95500000D01*
X134570395Y-95500000D01*
X134556253Y-95485858D01*
X134735858Y-95306253D01*
X134750000Y-95320395D01*
X135722927Y-94347468D01*
X135624264Y-94080613D01*
X135014539Y-93854092D01*
X134364540Y-93878144D01*
X133910000Y-94066420D01*
X133910000Y-90432117D01*
X134485461Y-90645908D01*
X135135460Y-90621856D01*
X135624264Y-90419387D01*
X135722927Y-90152532D01*
X134750000Y-89179605D01*
X134735858Y-89193748D01*
X134556253Y-89014143D01*
X134570395Y-89000000D01*
X134556253Y-88985858D01*
X134735858Y-88806253D01*
X134750000Y-88820395D01*
X134764143Y-88806253D01*
X134943748Y-88985858D01*
X134929605Y-89000000D01*
X135902532Y-89972927D01*
X136169387Y-89874264D01*
X136395908Y-89264539D01*
X136371856Y-88614540D01*
X136204290Y-88210000D01*
X137807518Y-88210000D01*
X137615000Y-88674778D01*
X137615000Y-88674778D01*
G37*
X137615000Y-88674778D02*
X137615000Y-89325222D01*
X137863914Y-89926153D01*
X138323847Y-90386086D01*
X138924778Y-90635000D01*
X139575222Y-90635000D01*
X140176153Y-90386086D01*
X140409707Y-90152532D01*
X176277073Y-90152532D01*
X176375736Y-90419387D01*
X176985461Y-90645908D01*
X177635460Y-90621856D01*
X178124264Y-90419387D01*
X178222927Y-90152532D01*
X177250000Y-89179605D01*
X176277073Y-90152532D01*
X140409707Y-90152532D01*
X140636086Y-89926153D01*
X140885000Y-89325222D01*
X140885000Y-88674778D01*
X140692482Y-88210000D01*
X175799308Y-88210000D01*
X175604092Y-88735461D01*
X175628144Y-89385460D01*
X175830613Y-89874264D01*
X176097468Y-89972927D01*
X177070395Y-89000000D01*
X177056253Y-88985858D01*
X177235858Y-88806253D01*
X177250000Y-88820395D01*
X177264143Y-88806253D01*
X177443748Y-88985858D01*
X177429605Y-89000000D01*
X178402532Y-89972927D01*
X178669387Y-89874264D01*
X178895908Y-89264539D01*
X178871856Y-88614540D01*
X178704290Y-88210000D01*
X180307518Y-88210000D01*
X180115000Y-88674778D01*
X180115000Y-89325222D01*
X180363914Y-89926153D01*
X180823847Y-90386086D01*
X181424778Y-90635000D01*
X182075222Y-90635000D01*
X182490001Y-90463193D01*
X182490001Y-94036807D01*
X182075222Y-93865000D01*
X181424778Y-93865000D01*
X180823847Y-94113914D01*
X180363914Y-94573847D01*
X180115000Y-95174778D01*
X180115000Y-95825222D01*
X180363914Y-96426153D01*
X180823847Y-96886086D01*
X181424778Y-97135000D01*
X182075222Y-97135000D01*
X182490001Y-96963193D01*
X182490000Y-122396882D01*
X182347765Y-122301843D01*
X182100000Y-122252560D01*
X180400000Y-122252560D01*
X180152235Y-122301843D01*
X179942191Y-122442191D01*
X179801843Y-122652235D01*
X179752560Y-122900000D01*
X179752560Y-124600000D01*
X179801843Y-124847765D01*
X179942191Y-125057809D01*
X180152235Y-125198157D01*
X180197619Y-125207184D01*
X180179375Y-125219375D01*
X179851161Y-125710582D01*
X179735908Y-126290000D01*
X179851161Y-126869418D01*
X180179375Y-127360625D01*
X180670582Y-127688839D01*
X181103744Y-127775000D01*
X181396256Y-127775000D01*
X181829418Y-127688839D01*
X182320625Y-127360625D01*
X182490000Y-127107137D01*
X182490000Y-138036807D01*
X182075222Y-137865000D01*
X181424778Y-137865000D01*
X180823847Y-138113914D01*
X180363914Y-138573847D01*
X180115000Y-139174778D01*
X180115000Y-139825222D01*
X180363914Y-140426153D01*
X180823847Y-140886086D01*
X181424778Y-141135000D01*
X182075222Y-141135000D01*
X182490000Y-140963193D01*
X182490000Y-144536807D01*
X182075222Y-144365000D01*
X181424778Y-144365000D01*
X180823847Y-144613914D01*
X180363914Y-145073847D01*
X180115000Y-145674778D01*
X180115000Y-146325222D01*
X180307518Y-146790000D01*
X178700692Y-146790000D01*
X178895908Y-146264539D01*
X178871856Y-145614540D01*
X178669387Y-145125736D01*
X178402532Y-145027073D01*
X177429605Y-146000000D01*
X177443748Y-146014143D01*
X177264143Y-146193748D01*
X177250000Y-146179605D01*
X177235858Y-146193748D01*
X177056253Y-146014143D01*
X177070395Y-146000000D01*
X176097468Y-145027073D01*
X175830613Y-145125736D01*
X175604092Y-145735461D01*
X175628144Y-146385460D01*
X175795710Y-146790000D01*
X171150023Y-146790000D01*
X171506153Y-146642486D01*
X171966086Y-146182553D01*
X172215000Y-145581622D01*
X172215000Y-144931178D01*
X172180327Y-144847468D01*
X176277073Y-144847468D01*
X177250000Y-145820395D01*
X178222927Y-144847468D01*
X178124264Y-144580613D01*
X177514539Y-144354092D01*
X176864540Y-144378144D01*
X176375736Y-144580613D01*
X176277073Y-144847468D01*
X172180327Y-144847468D01*
X172146177Y-144765025D01*
X173067273Y-143843929D01*
X173130729Y-143801529D01*
X173298704Y-143550137D01*
X173342800Y-143328452D01*
X173342800Y-143328447D01*
X173357688Y-143253600D01*
X173342800Y-143178753D01*
X173342800Y-140652532D01*
X176277073Y-140652532D01*
X176375736Y-140919387D01*
X176985461Y-141145908D01*
X177635460Y-141121856D01*
X178124264Y-140919387D01*
X178222927Y-140652532D01*
X177250000Y-139679605D01*
X176277073Y-140652532D01*
X173342800Y-140652532D01*
X173342800Y-139235461D01*
X175604092Y-139235461D01*
X175628144Y-139885460D01*
X175830613Y-140374264D01*
X176097468Y-140472927D01*
X177070395Y-139500000D01*
X177429605Y-139500000D01*
X178402532Y-140472927D01*
X178669387Y-140374264D01*
X178895908Y-139764539D01*
X178871856Y-139114540D01*
X178669387Y-138625736D01*
X178402532Y-138527073D01*
X177429605Y-139500000D01*
X177070395Y-139500000D01*
X176097468Y-138527073D01*
X175830613Y-138625736D01*
X175604092Y-139235461D01*
X173342800Y-139235461D01*
X173342800Y-138347468D01*
X176277073Y-138347468D01*
X177250000Y-139320395D01*
X178222927Y-138347468D01*
X178124264Y-138080613D01*
X177514539Y-137854092D01*
X176864540Y-137878144D01*
X176375736Y-138080613D01*
X176277073Y-138347468D01*
X173342800Y-138347468D01*
X173342800Y-128700624D01*
X174054229Y-129412053D01*
X175316736Y-129935000D01*
X176683264Y-129935000D01*
X177945771Y-129412053D01*
X178912053Y-128445771D01*
X179435000Y-127183264D01*
X179435000Y-125816736D01*
X178912053Y-124554229D01*
X177945771Y-123587947D01*
X176683264Y-123065000D01*
X175316736Y-123065000D01*
X174727896Y-123308905D01*
X179738871Y-118297931D01*
X179904375Y-118545625D01*
X180202761Y-118745000D01*
X179904375Y-118944375D01*
X179576161Y-119435582D01*
X179460908Y-120015000D01*
X179576161Y-120594418D01*
X179904375Y-121085625D01*
X180395582Y-121413839D01*
X180828744Y-121500000D01*
X181121256Y-121500000D01*
X181554418Y-121413839D01*
X182045625Y-121085625D01*
X182373839Y-120594418D01*
X182489092Y-120015000D01*
X182373839Y-119435582D01*
X182045625Y-118944375D01*
X181747239Y-118745000D01*
X182045625Y-118545625D01*
X182373839Y-118054418D01*
X182489092Y-117475000D01*
X182373839Y-116895582D01*
X182045625Y-116404375D01*
X181747239Y-116205000D01*
X182045625Y-116005625D01*
X182373839Y-115514418D01*
X182489092Y-114935000D01*
X182373839Y-114355582D01*
X182045625Y-113864375D01*
X181747239Y-113665000D01*
X182045625Y-113465625D01*
X182373839Y-112974418D01*
X182489092Y-112395000D01*
X182373839Y-111815582D01*
X182045625Y-111324375D01*
X181978323Y-111279405D01*
X182024889Y-111045300D01*
X182010000Y-110970448D01*
X182010000Y-110949429D01*
X182045625Y-110925625D01*
X182373839Y-110434418D01*
X182489092Y-109855000D01*
X182373839Y-109275582D01*
X182045625Y-108784375D01*
X182027381Y-108772184D01*
X182072765Y-108763157D01*
X182282809Y-108622809D01*
X182423157Y-108412765D01*
X182472440Y-108165000D01*
X182472440Y-106465000D01*
X182423157Y-106217235D01*
X182282809Y-106007191D01*
X182072765Y-105866843D01*
X181825000Y-105817560D01*
X180125000Y-105817560D01*
X179877235Y-105866843D01*
X179667191Y-106007191D01*
X179526843Y-106217235D01*
X179477560Y-106465000D01*
X179477560Y-108165000D01*
X179526843Y-108412765D01*
X179617643Y-108548655D01*
X170095528Y-118070771D01*
X170032072Y-118113171D01*
X169989672Y-118176627D01*
X169989671Y-118176628D01*
X169864097Y-118364563D01*
X169805112Y-118661100D01*
X169820001Y-118735952D01*
X169820001Y-124212177D01*
X169195771Y-123587947D01*
X167933264Y-123065000D01*
X166566736Y-123065000D01*
X165304229Y-123587947D01*
X164337947Y-124554229D01*
X163815000Y-125816736D01*
X163815000Y-127183264D01*
X164337947Y-128445771D01*
X165304229Y-129412053D01*
X166566736Y-129935000D01*
X167933264Y-129935000D01*
X169195771Y-129412053D01*
X169820000Y-128787824D01*
X169820000Y-130288691D01*
X169653847Y-130357514D01*
X169193914Y-130817447D01*
X168945000Y-131418378D01*
X168945000Y-132068822D01*
X169193914Y-132669753D01*
X169653847Y-133129686D01*
X170254778Y-133378600D01*
X170905222Y-133378600D01*
X171506153Y-133129686D01*
X171822801Y-132813038D01*
X171822800Y-142938798D01*
X171071375Y-143690223D01*
X170905222Y-143621400D01*
X170254778Y-143621400D01*
X169653847Y-143870314D01*
X169193914Y-144330247D01*
X168945000Y-144931178D01*
X168945000Y-145581622D01*
X169193914Y-146182553D01*
X169653847Y-146642486D01*
X170009977Y-146790000D01*
X140692482Y-146790000D01*
X140885000Y-146325222D01*
X140885000Y-145674778D01*
X140636086Y-145073847D01*
X140176153Y-144613914D01*
X140010000Y-144545091D01*
X140010000Y-140954909D01*
X140176153Y-140886086D01*
X140636086Y-140426153D01*
X140885000Y-139825222D01*
X140885000Y-139174778D01*
X140636086Y-138573847D01*
X140176153Y-138113914D01*
X139575222Y-137865000D01*
X138924778Y-137865000D01*
X138323847Y-138113914D01*
X137863914Y-138573847D01*
X137795091Y-138740000D01*
X137362378Y-138740000D01*
X136070076Y-137447699D01*
X136078927Y-137445938D01*
X136586673Y-137106673D01*
X136925938Y-136598927D01*
X137045072Y-136000000D01*
X136934678Y-135445010D01*
X141352560Y-135445010D01*
X141352560Y-136900000D01*
X141401843Y-137147765D01*
X141542191Y-137357809D01*
X141752235Y-137498157D01*
X142000000Y-137547440D01*
X144000000Y-137547440D01*
X144247765Y-137498157D01*
X144457809Y-137357809D01*
X144598157Y-137147765D01*
X144647440Y-136900000D01*
X144647440Y-135100000D01*
X144598157Y-134852235D01*
X144564845Y-134802381D01*
X145584473Y-133782754D01*
X145630800Y-133751799D01*
X145630801Y-143649148D01*
X145615912Y-143724000D01*
X145630801Y-143798852D01*
X145674897Y-144020537D01*
X145842872Y-144271929D01*
X145906328Y-144314329D01*
X146153823Y-144561824D01*
X146085000Y-144727978D01*
X146085000Y-145378422D01*
X146333914Y-145979353D01*
X146793847Y-146439286D01*
X147394778Y-146688200D01*
X148045222Y-146688200D01*
X148646153Y-146439286D01*
X149106086Y-145979353D01*
X149355000Y-145378422D01*
X149355000Y-144727978D01*
X149106086Y-144127047D01*
X148660639Y-143681600D01*
X149106086Y-143236153D01*
X149355000Y-142635222D01*
X149355000Y-141984778D01*
X149106086Y-141383847D01*
X148646153Y-140923914D01*
X148480000Y-140855091D01*
X148480000Y-137425301D01*
X150402856Y-135502446D01*
X150453365Y-135552955D01*
X150797017Y-135695300D01*
X151168983Y-135695300D01*
X151512635Y-135552955D01*
X151775655Y-135289935D01*
X151918000Y-134946283D01*
X151918000Y-134900101D01*
X168759473Y-118058629D01*
X168822929Y-118016229D01*
X168990904Y-117764837D01*
X169035000Y-117543152D01*
X169035000Y-117543147D01*
X169049888Y-117468300D01*
X169035000Y-117393453D01*
X169035000Y-96652532D01*
X176277073Y-96652532D01*
X176375736Y-96919387D01*
X176985461Y-97145908D01*
X177635460Y-97121856D01*
X178124264Y-96919387D01*
X178222927Y-96652532D01*
X177250000Y-95679605D01*
X176277073Y-96652532D01*
X169035000Y-96652532D01*
X169035000Y-95235461D01*
X175604092Y-95235461D01*
X175628144Y-95885460D01*
X175830613Y-96374264D01*
X176097468Y-96472927D01*
X177070395Y-95500000D01*
X177429605Y-95500000D01*
X178402532Y-96472927D01*
X178669387Y-96374264D01*
X178895908Y-95764539D01*
X178871856Y-95114540D01*
X178669387Y-94625736D01*
X178402532Y-94527073D01*
X177429605Y-95500000D01*
X177070395Y-95500000D01*
X176097468Y-94527073D01*
X175830613Y-94625736D01*
X175604092Y-95235461D01*
X169035000Y-95235461D01*
X169035000Y-94347468D01*
X176277073Y-94347468D01*
X177250000Y-95320395D01*
X178222927Y-94347468D01*
X178124264Y-94080613D01*
X177514539Y-93854092D01*
X176864540Y-93878144D01*
X176375736Y-94080613D01*
X176277073Y-94347468D01*
X169035000Y-94347468D01*
X169035000Y-93988178D01*
X169345625Y-93780625D01*
X169673839Y-93289418D01*
X169789092Y-92710000D01*
X169673839Y-92130582D01*
X169345625Y-91639375D01*
X168854418Y-91311161D01*
X168421256Y-91225000D01*
X168128744Y-91225000D01*
X167695582Y-91311161D01*
X167204375Y-91639375D01*
X167192184Y-91657619D01*
X167183157Y-91612235D01*
X167042809Y-91402191D01*
X166832765Y-91261843D01*
X166585000Y-91212560D01*
X164885000Y-91212560D01*
X164637235Y-91261843D01*
X164427191Y-91402191D01*
X164286843Y-91612235D01*
X164237560Y-91860000D01*
X164237560Y-93560000D01*
X164286843Y-93807765D01*
X164427191Y-94017809D01*
X164637235Y-94158157D01*
X164885000Y-94207440D01*
X164975000Y-94207440D01*
X164975001Y-118780696D01*
X161849135Y-121906562D01*
X161684320Y-121508663D01*
X161291337Y-121115680D01*
X161260000Y-121102700D01*
X161260000Y-113504048D01*
X161274888Y-113429200D01*
X161260000Y-113354352D01*
X161260000Y-113354348D01*
X161215904Y-113132663D01*
X161047929Y-112881271D01*
X160984473Y-112838871D01*
X155441069Y-107295468D01*
X155665938Y-106958927D01*
X155785072Y-106360000D01*
X155665938Y-105761073D01*
X155326673Y-105253327D01*
X154818927Y-104914062D01*
X154371182Y-104825000D01*
X153868818Y-104825000D01*
X153421073Y-104914062D01*
X152913327Y-105253327D01*
X152574062Y-105761073D01*
X152454928Y-106360000D01*
X152574062Y-106958927D01*
X152913327Y-107466673D01*
X153157763Y-107630000D01*
X152913327Y-107793327D01*
X152574062Y-108301073D01*
X152454928Y-108900000D01*
X152574062Y-109498927D01*
X152913327Y-110006673D01*
X153157763Y-110170000D01*
X152913327Y-110333327D01*
X152574062Y-110841073D01*
X152454928Y-111440000D01*
X152574062Y-112038927D01*
X152913327Y-112546673D01*
X153157763Y-112710000D01*
X152913327Y-112873327D01*
X152574062Y-113381073D01*
X152454928Y-113980000D01*
X152574062Y-114578927D01*
X152913327Y-115086673D01*
X153157763Y-115250000D01*
X152913327Y-115413327D01*
X152574062Y-115921073D01*
X152454928Y-116520000D01*
X152574062Y-117118927D01*
X152798931Y-117455467D01*
X145906330Y-124348069D01*
X145860000Y-124379026D01*
X145860000Y-98104909D01*
X146026153Y-98036086D01*
X146486086Y-97576153D01*
X146487500Y-97572739D01*
X146488914Y-97576153D01*
X146948847Y-98036086D01*
X147549778Y-98285000D01*
X148200222Y-98285000D01*
X148801153Y-98036086D01*
X149261086Y-97576153D01*
X149510000Y-96975222D01*
X149510000Y-96324778D01*
X149261086Y-95723847D01*
X148801153Y-95263914D01*
X148200222Y-95015000D01*
X147549778Y-95015000D01*
X146948847Y-95263914D01*
X146488914Y-95723847D01*
X146487500Y-95727261D01*
X146486086Y-95723847D01*
X146026153Y-95263914D01*
X145425222Y-95015000D01*
X144774778Y-95015000D01*
X144173847Y-95263914D01*
X143713914Y-95723847D01*
X143465000Y-96324778D01*
X143465000Y-96975222D01*
X143713914Y-97576153D01*
X144173847Y-98036086D01*
X144340000Y-98104909D01*
X144340001Y-127484153D01*
X143924474Y-127086255D01*
X143366620Y-126869223D01*
X143127000Y-127004865D01*
X143127000Y-128253000D01*
X143147000Y-128253000D01*
X143147000Y-128507000D01*
X143127000Y-128507000D01*
X143127000Y-128527000D01*
X142873000Y-128527000D01*
X142873000Y-128507000D01*
X142853000Y-128507000D01*
X142853000Y-128253000D01*
X142873000Y-128253000D01*
X142873000Y-127004865D01*
X142633380Y-126869223D01*
X142075526Y-127086255D01*
X141643191Y-127500248D01*
X141549736Y-127705734D01*
X139640000Y-125795999D01*
X139640000Y-125545130D01*
X140086673Y-125246673D01*
X140425938Y-124738927D01*
X140545072Y-124140000D01*
X140425938Y-123541073D01*
X140086673Y-123033327D01*
X139842237Y-122870000D01*
X140086673Y-122706673D01*
X140425938Y-122198927D01*
X140545072Y-121600000D01*
X140425938Y-121001073D01*
X140086673Y-120493327D01*
X139834600Y-120324897D01*
X140236809Y-119939752D01*
X140471036Y-119424740D01*
X140350378Y-119187000D01*
X139007000Y-119187000D01*
X139007000Y-119207000D01*
X138753000Y-119207000D01*
X138753000Y-119187000D01*
X137409622Y-119187000D01*
X137288964Y-119424740D01*
X137523191Y-119939752D01*
X137925400Y-120324897D01*
X137673327Y-120493327D01*
X137334062Y-121001073D01*
X137214928Y-121600000D01*
X137334062Y-122198927D01*
X137673327Y-122706673D01*
X137917763Y-122870000D01*
X137673327Y-123033327D01*
X137334062Y-123541073D01*
X137214928Y-124140000D01*
X137334062Y-124738927D01*
X137673327Y-125246673D01*
X138120001Y-125545131D01*
X138120001Y-126035948D01*
X138105112Y-126110800D01*
X138120001Y-126185652D01*
X138164097Y-126407337D01*
X138332072Y-126658729D01*
X138395528Y-126701129D01*
X141678931Y-129984533D01*
X141522560Y-130218558D01*
X136032932Y-124728931D01*
X136062862Y-124716534D01*
X136466534Y-124312862D01*
X136685000Y-123785439D01*
X136685000Y-123214561D01*
X136466534Y-122687138D01*
X136062862Y-122283466D01*
X135535439Y-122065000D01*
X134964561Y-122065000D01*
X134470010Y-122269850D01*
X134470010Y-117072481D01*
X134512577Y-117111041D01*
X134900961Y-117271904D01*
X135123000Y-117149915D01*
X135123000Y-116007000D01*
X135377000Y-116007000D01*
X135377000Y-117149915D01*
X135599039Y-117271904D01*
X135987423Y-117111041D01*
X136402389Y-116735134D01*
X136641914Y-116229041D01*
X136520629Y-116007000D01*
X135377000Y-116007000D01*
X135123000Y-116007000D01*
X135103000Y-116007000D01*
X135103000Y-115753000D01*
X135123000Y-115753000D01*
X135123000Y-114610085D01*
X135377000Y-114610085D01*
X135377000Y-115753000D01*
X136520629Y-115753000D01*
X136641914Y-115530959D01*
X136402389Y-115024866D01*
X135987423Y-114648959D01*
X135599039Y-114488096D01*
X135377000Y-114610085D01*
X135123000Y-114610085D01*
X134900961Y-114488096D01*
X134512577Y-114648959D01*
X134470010Y-114687519D01*
X134470010Y-108900000D01*
X137214928Y-108900000D01*
X137334062Y-109498927D01*
X137673327Y-110006673D01*
X137917763Y-110170000D01*
X137673327Y-110333327D01*
X137334062Y-110841073D01*
X137214928Y-111440000D01*
X137334062Y-112038927D01*
X137673327Y-112546673D01*
X137917763Y-112710000D01*
X137673327Y-112873327D01*
X137334062Y-113381073D01*
X137214928Y-113980000D01*
X137334062Y-114578927D01*
X137673327Y-115086673D01*
X137917763Y-115250000D01*
X137673327Y-115413327D01*
X137334062Y-115921073D01*
X137214928Y-116520000D01*
X137334062Y-117118927D01*
X137673327Y-117626673D01*
X137925400Y-117795103D01*
X137523191Y-118180248D01*
X137288964Y-118695260D01*
X137409622Y-118933000D01*
X138753000Y-118933000D01*
X138753000Y-118913000D01*
X139007000Y-118913000D01*
X139007000Y-118933000D01*
X140350378Y-118933000D01*
X140471036Y-118695260D01*
X140236809Y-118180248D01*
X139834600Y-117795103D01*
X140086673Y-117626673D01*
X140425938Y-117118927D01*
X140545072Y-116520000D01*
X140425938Y-115921073D01*
X140086673Y-115413327D01*
X139842237Y-115250000D01*
X140086673Y-115086673D01*
X140425938Y-114578927D01*
X140545072Y-113980000D01*
X140425938Y-113381073D01*
X140086673Y-112873327D01*
X139842237Y-112710000D01*
X140086673Y-112546673D01*
X140425938Y-112038927D01*
X140545072Y-111440000D01*
X140425938Y-110841073D01*
X140086673Y-110333327D01*
X139842237Y-110170000D01*
X140086673Y-110006673D01*
X140425938Y-109498927D01*
X140545072Y-108900000D01*
X140425938Y-108301073D01*
X140129304Y-107857129D01*
X140337809Y-107717809D01*
X140478157Y-107507765D01*
X140527440Y-107260000D01*
X140527440Y-105460000D01*
X140478157Y-105212235D01*
X140337809Y-105002191D01*
X140127765Y-104861843D01*
X139880000Y-104812560D01*
X137880000Y-104812560D01*
X137632235Y-104861843D01*
X137422191Y-105002191D01*
X137281843Y-105212235D01*
X137232560Y-105460000D01*
X137232560Y-107260000D01*
X137281843Y-107507765D01*
X137422191Y-107717809D01*
X137630696Y-107857129D01*
X137334062Y-108301073D01*
X137214928Y-108900000D01*
X134470010Y-108900000D01*
X134470010Y-101354791D01*
X138758625Y-97066177D01*
X138924778Y-97135000D01*
X139575222Y-97135000D01*
X140176153Y-96886086D01*
X140636086Y-96426153D01*
X140885000Y-95825222D01*
X140885000Y-95174778D01*
X140636086Y-94573847D01*
X140176153Y-94113914D01*
X139575222Y-93865000D01*
X138924778Y-93865000D01*
X138323847Y-94113914D01*
X137863914Y-94573847D01*
X137615000Y-95174778D01*
X137615000Y-95825222D01*
X137683823Y-95991375D01*
X133910000Y-99765199D01*
X133910000Y-96932117D01*
X134485461Y-97145908D01*
X135135460Y-97121856D01*
X135624264Y-96919387D01*
X135722927Y-96652532D01*
X134750000Y-95679605D01*
X134735858Y-95693748D01*
X134556253Y-95514143D01*
X134570395Y-95500000D01*
X134929605Y-95500000D01*
X135902532Y-96472927D01*
X136169387Y-96374264D01*
X136395908Y-95764539D01*
X136371856Y-95114540D01*
X136169387Y-94625736D01*
X135902532Y-94527073D01*
X134929605Y-95500000D01*
X134570395Y-95500000D01*
X134556253Y-95485858D01*
X134735858Y-95306253D01*
X134750000Y-95320395D01*
X135722927Y-94347468D01*
X135624264Y-94080613D01*
X135014539Y-93854092D01*
X134364540Y-93878144D01*
X133910000Y-94066420D01*
X133910000Y-90432117D01*
X134485461Y-90645908D01*
X135135460Y-90621856D01*
X135624264Y-90419387D01*
X135722927Y-90152532D01*
X134750000Y-89179605D01*
X134735858Y-89193748D01*
X134556253Y-89014143D01*
X134570395Y-89000000D01*
X134556253Y-88985858D01*
X134735858Y-88806253D01*
X134750000Y-88820395D01*
X134764143Y-88806253D01*
X134943748Y-88985858D01*
X134929605Y-89000000D01*
X135902532Y-89972927D01*
X136169387Y-89874264D01*
X136395908Y-89264539D01*
X136371856Y-88614540D01*
X136204290Y-88210000D01*
X137807518Y-88210000D01*
X137615000Y-88674778D01*
G36*
X134943748Y-139485858D02*
X134929605Y-139500000D01*
X135902532Y-140472927D01*
X136169387Y-140374264D01*
X136352948Y-139880175D01*
X136457248Y-139984476D01*
X136499646Y-140047929D01*
X136563099Y-140090327D01*
X136563101Y-140090329D01*
X136688477Y-140174102D01*
X136751038Y-140215904D01*
X136972723Y-140260000D01*
X136972727Y-140260000D01*
X137047574Y-140274888D01*
X137122421Y-140260000D01*
X137795091Y-140260000D01*
X137863914Y-140426153D01*
X138323847Y-140886086D01*
X138490000Y-140954909D01*
X138490001Y-144545091D01*
X138323847Y-144613914D01*
X137863914Y-145073847D01*
X137615000Y-145674778D01*
X137615000Y-146325222D01*
X137807518Y-146790000D01*
X136200692Y-146790000D01*
X136395908Y-146264539D01*
X136371856Y-145614540D01*
X136169387Y-145125736D01*
X135902532Y-145027073D01*
X134929605Y-146000000D01*
X134943748Y-146014143D01*
X134764143Y-146193748D01*
X134750000Y-146179605D01*
X134735858Y-146193748D01*
X134556253Y-146014143D01*
X134570395Y-146000000D01*
X134556253Y-145985858D01*
X134735858Y-145806253D01*
X134750000Y-145820395D01*
X135722927Y-144847468D01*
X135624264Y-144580613D01*
X135014539Y-144354092D01*
X134364540Y-144378144D01*
X133910000Y-144566420D01*
X133910000Y-140932117D01*
X134485461Y-141145908D01*
X135135460Y-141121856D01*
X135624264Y-140919387D01*
X135722927Y-140652532D01*
X134750000Y-139679605D01*
X134735858Y-139693748D01*
X134556253Y-139514143D01*
X134570395Y-139500000D01*
X134556253Y-139485858D01*
X134735858Y-139306253D01*
X134750000Y-139320395D01*
X134764143Y-139306253D01*
X134943748Y-139485858D01*
X134943748Y-139485858D01*
G37*
X134943748Y-139485858D02*
X134929605Y-139500000D01*
X135902532Y-140472927D01*
X136169387Y-140374264D01*
X136352948Y-139880175D01*
X136457248Y-139984476D01*
X136499646Y-140047929D01*
X136563099Y-140090327D01*
X136563101Y-140090329D01*
X136688477Y-140174102D01*
X136751038Y-140215904D01*
X136972723Y-140260000D01*
X136972727Y-140260000D01*
X137047574Y-140274888D01*
X137122421Y-140260000D01*
X137795091Y-140260000D01*
X137863914Y-140426153D01*
X138323847Y-140886086D01*
X138490000Y-140954909D01*
X138490001Y-144545091D01*
X138323847Y-144613914D01*
X137863914Y-145073847D01*
X137615000Y-145674778D01*
X137615000Y-146325222D01*
X137807518Y-146790000D01*
X136200692Y-146790000D01*
X136395908Y-146264539D01*
X136371856Y-145614540D01*
X136169387Y-145125736D01*
X135902532Y-145027073D01*
X134929605Y-146000000D01*
X134943748Y-146014143D01*
X134764143Y-146193748D01*
X134750000Y-146179605D01*
X134735858Y-146193748D01*
X134556253Y-146014143D01*
X134570395Y-146000000D01*
X134556253Y-145985858D01*
X134735858Y-145806253D01*
X134750000Y-145820395D01*
X135722927Y-144847468D01*
X135624264Y-144580613D01*
X135014539Y-144354092D01*
X134364540Y-144378144D01*
X133910000Y-144566420D01*
X133910000Y-140932117D01*
X134485461Y-141145908D01*
X135135460Y-141121856D01*
X135624264Y-140919387D01*
X135722927Y-140652532D01*
X134750000Y-139679605D01*
X134735858Y-139693748D01*
X134556253Y-139514143D01*
X134570395Y-139500000D01*
X134556253Y-139485858D01*
X134735858Y-139306253D01*
X134750000Y-139320395D01*
X134764143Y-139306253D01*
X134943748Y-139485858D01*
G36*
X159740000Y-113744002D02*
X159740001Y-121102699D01*
X159708663Y-121115680D01*
X159315680Y-121508663D01*
X159103000Y-122022119D01*
X159103000Y-122577881D01*
X159315680Y-123091337D01*
X159708663Y-123484320D01*
X160106563Y-123649135D01*
X149355000Y-134400699D01*
X149355000Y-134364778D01*
X149106086Y-133763847D01*
X148646153Y-133303914D01*
X148621121Y-133293546D01*
X148692927Y-133099332D01*
X147720000Y-132126405D01*
X147705858Y-132140548D01*
X147526253Y-131960943D01*
X147540395Y-131946800D01*
X147899605Y-131946800D01*
X148872532Y-132919727D01*
X149139387Y-132821064D01*
X149365908Y-132211339D01*
X149341856Y-131561340D01*
X149139387Y-131072536D01*
X148872532Y-130973873D01*
X147899605Y-131946800D01*
X147540395Y-131946800D01*
X147526253Y-131932658D01*
X147705858Y-131753053D01*
X147720000Y-131767195D01*
X148692927Y-130794268D01*
X148594264Y-130527413D01*
X147984539Y-130300892D01*
X147334540Y-130324944D01*
X147150800Y-130401052D01*
X147150800Y-125253201D01*
X152669736Y-119734266D01*
X152763191Y-119939752D01*
X153165400Y-120324897D01*
X152913327Y-120493327D01*
X152574062Y-121001073D01*
X152454928Y-121600000D01*
X152574062Y-122198927D01*
X152913327Y-122706673D01*
X153157763Y-122870000D01*
X152913327Y-123033327D01*
X152574062Y-123541073D01*
X152454928Y-124140000D01*
X152574062Y-124738927D01*
X152913327Y-125246673D01*
X153421073Y-125585938D01*
X153868818Y-125675000D01*
X154371182Y-125675000D01*
X154818927Y-125585938D01*
X155326673Y-125246673D01*
X155665938Y-124738927D01*
X155785072Y-124140000D01*
X155665938Y-123541073D01*
X155326673Y-123033327D01*
X155082237Y-122870000D01*
X155326673Y-122706673D01*
X155665938Y-122198927D01*
X155785072Y-121600000D01*
X155665938Y-121001073D01*
X155326673Y-120493327D01*
X155074600Y-120324897D01*
X155476809Y-119939752D01*
X155711036Y-119424740D01*
X155590378Y-119187000D01*
X154247000Y-119187000D01*
X154247000Y-119207000D01*
X153993000Y-119207000D01*
X153993000Y-119187000D01*
X153973000Y-119187000D01*
X153973000Y-118933000D01*
X153993000Y-118933000D01*
X153993000Y-118913000D01*
X154247000Y-118913000D01*
X154247000Y-118933000D01*
X155590378Y-118933000D01*
X155711036Y-118695260D01*
X155476809Y-118180248D01*
X155074600Y-117795103D01*
X155326673Y-117626673D01*
X155665938Y-117118927D01*
X155785072Y-116520000D01*
X155665938Y-115921073D01*
X155326673Y-115413327D01*
X155082237Y-115250000D01*
X155326673Y-115086673D01*
X155665938Y-114578927D01*
X155785072Y-113980000D01*
X155665938Y-113381073D01*
X155326673Y-112873327D01*
X155082237Y-112710000D01*
X155326673Y-112546673D01*
X155665938Y-112038927D01*
X155785072Y-111440000D01*
X155665938Y-110841073D01*
X155326673Y-110333327D01*
X155082237Y-110170000D01*
X155326673Y-110006673D01*
X155597440Y-109601441D01*
X159740000Y-113744002D01*
X159740000Y-113744002D01*
G37*
X159740000Y-113744002D02*
X159740001Y-121102699D01*
X159708663Y-121115680D01*
X159315680Y-121508663D01*
X159103000Y-122022119D01*
X159103000Y-122577881D01*
X159315680Y-123091337D01*
X159708663Y-123484320D01*
X160106563Y-123649135D01*
X149355000Y-134400699D01*
X149355000Y-134364778D01*
X149106086Y-133763847D01*
X148646153Y-133303914D01*
X148621121Y-133293546D01*
X148692927Y-133099332D01*
X147720000Y-132126405D01*
X147705858Y-132140548D01*
X147526253Y-131960943D01*
X147540395Y-131946800D01*
X147899605Y-131946800D01*
X148872532Y-132919727D01*
X149139387Y-132821064D01*
X149365908Y-132211339D01*
X149341856Y-131561340D01*
X149139387Y-131072536D01*
X148872532Y-130973873D01*
X147899605Y-131946800D01*
X147540395Y-131946800D01*
X147526253Y-131932658D01*
X147705858Y-131753053D01*
X147720000Y-131767195D01*
X148692927Y-130794268D01*
X148594264Y-130527413D01*
X147984539Y-130300892D01*
X147334540Y-130324944D01*
X147150800Y-130401052D01*
X147150800Y-125253201D01*
X152669736Y-119734266D01*
X152763191Y-119939752D01*
X153165400Y-120324897D01*
X152913327Y-120493327D01*
X152574062Y-121001073D01*
X152454928Y-121600000D01*
X152574062Y-122198927D01*
X152913327Y-122706673D01*
X153157763Y-122870000D01*
X152913327Y-123033327D01*
X152574062Y-123541073D01*
X152454928Y-124140000D01*
X152574062Y-124738927D01*
X152913327Y-125246673D01*
X153421073Y-125585938D01*
X153868818Y-125675000D01*
X154371182Y-125675000D01*
X154818927Y-125585938D01*
X155326673Y-125246673D01*
X155665938Y-124738927D01*
X155785072Y-124140000D01*
X155665938Y-123541073D01*
X155326673Y-123033327D01*
X155082237Y-122870000D01*
X155326673Y-122706673D01*
X155665938Y-122198927D01*
X155785072Y-121600000D01*
X155665938Y-121001073D01*
X155326673Y-120493327D01*
X155074600Y-120324897D01*
X155476809Y-119939752D01*
X155711036Y-119424740D01*
X155590378Y-119187000D01*
X154247000Y-119187000D01*
X154247000Y-119207000D01*
X153993000Y-119207000D01*
X153993000Y-119187000D01*
X153973000Y-119187000D01*
X153973000Y-118933000D01*
X153993000Y-118933000D01*
X153993000Y-118913000D01*
X154247000Y-118913000D01*
X154247000Y-118933000D01*
X155590378Y-118933000D01*
X155711036Y-118695260D01*
X155476809Y-118180248D01*
X155074600Y-117795103D01*
X155326673Y-117626673D01*
X155665938Y-117118927D01*
X155785072Y-116520000D01*
X155665938Y-115921073D01*
X155326673Y-115413327D01*
X155082237Y-115250000D01*
X155326673Y-115086673D01*
X155665938Y-114578927D01*
X155785072Y-113980000D01*
X155665938Y-113381073D01*
X155326673Y-112873327D01*
X155082237Y-112710000D01*
X155326673Y-112546673D01*
X155665938Y-112038927D01*
X155785072Y-111440000D01*
X155665938Y-110841073D01*
X155326673Y-110333327D01*
X155082237Y-110170000D01*
X155326673Y-110006673D01*
X155597440Y-109601441D01*
X159740000Y-113744002D01*
G04 #@! TD*
M02*
