G04 #@! TF.GenerationSoftware,KiCad,Pcbnew,(5.0.1-3-g963ef8bb5)*
G04 #@! TF.CreationDate,2019-04-15T21:43:45+02:00*
G04 #@! TF.ProjectId,NOKOlino,4E4F4B4F6C696E6F2E6B696361645F70,rev?*
G04 #@! TF.SameCoordinates,Original*
G04 #@! TF.FileFunction,Legend,Bot*
G04 #@! TF.FilePolarity,Positive*
%FSLAX46Y46*%
G04 Gerber Fmt 4.6, Leading zero omitted, Abs format (unit mm)*
G04 Created by KiCad (PCBNEW (5.0.1-3-g963ef8bb5)) date 2019 April 15, Monday 21:43:45*
%MOMM*%
%LPD*%
G01*
G04 APERTURE LIST*
%ADD10C,0.100000*%
%ADD11C,0.300000*%
%ADD12C,0.200000*%
%ADD13C,0.120000*%
%ADD14C,0.010000*%
G04 APERTURE END LIST*
D10*
X164411696Y-139426904D02*
X164311696Y-138626904D01*
X164349791Y-138931666D02*
X164268839Y-138893571D01*
X164116458Y-138893571D01*
X164045029Y-138931666D01*
X164011696Y-138969761D01*
X163983125Y-139045952D01*
X164011696Y-139274523D01*
X164059315Y-139350714D01*
X164102172Y-139388809D01*
X164183125Y-139426904D01*
X164335505Y-139426904D01*
X164406934Y-139388809D01*
X163697410Y-138893571D02*
X163573601Y-139426904D01*
X163316458Y-138893571D02*
X163573601Y-139426904D01*
X163673601Y-139617380D01*
X163716458Y-139655476D01*
X163797410Y-139693571D01*
X162468839Y-139426904D02*
X162368839Y-138626904D01*
X162011696Y-139426904D01*
X161911696Y-138626904D01*
X161630744Y-139426904D02*
X161564077Y-138893571D01*
X161530744Y-138626904D02*
X161573601Y-138665000D01*
X161540267Y-138703095D01*
X161497410Y-138665000D01*
X161530744Y-138626904D01*
X161540267Y-138703095D01*
X161249791Y-139426904D02*
X161149791Y-138626904D01*
X161135505Y-139122142D02*
X160945029Y-139426904D01*
X160878363Y-138893571D02*
X161221220Y-139198333D01*
X160487886Y-139426904D02*
X160559315Y-139388809D01*
X160592648Y-139350714D01*
X160621220Y-139274523D01*
X160592648Y-139045952D01*
X160545029Y-138969761D01*
X160502172Y-138931666D01*
X160421220Y-138893571D01*
X160306934Y-138893571D01*
X160235505Y-138931666D01*
X160202172Y-138969761D01*
X160173601Y-139045952D01*
X160202172Y-139274523D01*
X160249791Y-139350714D01*
X160292648Y-139388809D01*
X160373601Y-139426904D01*
X160487886Y-139426904D01*
X159764077Y-139426904D02*
X159835505Y-139388809D01*
X159864077Y-139312619D01*
X159778363Y-138626904D01*
X159116458Y-139426904D02*
X159064077Y-139007857D01*
X159092648Y-138931666D01*
X159164077Y-138893571D01*
X159316458Y-138893571D01*
X159397410Y-138931666D01*
X159111696Y-139388809D02*
X159192648Y-139426904D01*
X159383125Y-139426904D01*
X159454553Y-139388809D01*
X159483125Y-139312619D01*
X159473601Y-139236428D01*
X159425982Y-139160238D01*
X159345029Y-139122142D01*
X159154553Y-139122142D01*
X159073601Y-139084047D01*
X158735505Y-139426904D02*
X158668839Y-138893571D01*
X158635505Y-138626904D02*
X158678363Y-138665000D01*
X158645029Y-138703095D01*
X158602172Y-138665000D01*
X158635505Y-138626904D01*
X158645029Y-138703095D01*
X157287886Y-139426904D02*
X157506934Y-139045952D01*
X157745029Y-139426904D02*
X157645029Y-138626904D01*
X157340267Y-138626904D01*
X157268839Y-138665000D01*
X157235505Y-138703095D01*
X157206934Y-138779285D01*
X157221220Y-138893571D01*
X157268839Y-138969761D01*
X157311696Y-139007857D01*
X157392648Y-139045952D01*
X157697410Y-139045952D01*
X156602172Y-139426904D02*
X156549791Y-139007857D01*
X156578363Y-138931666D01*
X156649791Y-138893571D01*
X156802172Y-138893571D01*
X156883125Y-138931666D01*
X156597410Y-139388809D02*
X156678363Y-139426904D01*
X156868839Y-139426904D01*
X156940267Y-139388809D01*
X156968839Y-139312619D01*
X156959315Y-139236428D01*
X156911696Y-139160238D01*
X156830744Y-139122142D01*
X156640267Y-139122142D01*
X156559315Y-139084047D01*
X155878363Y-139426904D02*
X155778363Y-138626904D01*
X155873601Y-139388809D02*
X155954553Y-139426904D01*
X156106934Y-139426904D01*
X156178363Y-139388809D01*
X156211696Y-139350714D01*
X156240267Y-139274523D01*
X156211696Y-139045952D01*
X156164077Y-138969761D01*
X156121220Y-138931666D01*
X156040267Y-138893571D01*
X155887886Y-138893571D01*
X155816458Y-138931666D01*
X155497410Y-139426904D02*
X155397410Y-138626904D01*
X155383125Y-139122142D02*
X155192648Y-139426904D01*
X155125982Y-138893571D02*
X155468839Y-139198333D01*
X154540267Y-139388809D02*
X154621220Y-139426904D01*
X154773601Y-139426904D01*
X154845029Y-139388809D01*
X154873601Y-139312619D01*
X154835505Y-139007857D01*
X154787886Y-138931666D01*
X154706934Y-138893571D01*
X154554553Y-138893571D01*
X154483125Y-138931666D01*
X154454553Y-139007857D01*
X154464077Y-139084047D01*
X154854553Y-139160238D01*
D11*
X164056071Y-137838571D02*
X163868571Y-136338571D01*
X163198928Y-137838571D01*
X163011428Y-136338571D01*
X162270357Y-137838571D02*
X162404285Y-137767142D01*
X162466785Y-137695714D01*
X162520357Y-137552857D01*
X162466785Y-137124285D01*
X162377500Y-136981428D01*
X162297142Y-136910000D01*
X162145357Y-136838571D01*
X161931071Y-136838571D01*
X161797142Y-136910000D01*
X161734642Y-136981428D01*
X161681071Y-137124285D01*
X161734642Y-137552857D01*
X161823928Y-137695714D01*
X161904285Y-137767142D01*
X162056071Y-137838571D01*
X162270357Y-137838571D01*
X161127500Y-137838571D02*
X160940000Y-136338571D01*
X160913214Y-137267142D02*
X160556071Y-137838571D01*
X160431071Y-136838571D02*
X161073928Y-137410000D01*
X159698928Y-137838571D02*
X159832857Y-137767142D01*
X159895357Y-137695714D01*
X159948928Y-137552857D01*
X159895357Y-137124285D01*
X159806071Y-136981428D01*
X159725714Y-136910000D01*
X159573928Y-136838571D01*
X159359642Y-136838571D01*
X159225714Y-136910000D01*
X159163214Y-136981428D01*
X159109642Y-137124285D01*
X159163214Y-137552857D01*
X159252500Y-137695714D01*
X159332857Y-137767142D01*
X159484642Y-137838571D01*
X159698928Y-137838571D01*
X158341785Y-137838571D02*
X158475714Y-137767142D01*
X158529285Y-137624285D01*
X158368571Y-136338571D01*
X157770357Y-137838571D02*
X157645357Y-136838571D01*
X157582857Y-136338571D02*
X157663214Y-136410000D01*
X157600714Y-136481428D01*
X157520357Y-136410000D01*
X157582857Y-136338571D01*
X157600714Y-136481428D01*
X156931071Y-136838571D02*
X157056071Y-137838571D01*
X156948928Y-136981428D02*
X156868571Y-136910000D01*
X156716785Y-136838571D01*
X156502500Y-136838571D01*
X156368571Y-136910000D01*
X156315000Y-137052857D01*
X156413214Y-137838571D01*
X155484642Y-137838571D02*
X155618571Y-137767142D01*
X155681071Y-137695714D01*
X155734642Y-137552857D01*
X155681071Y-137124285D01*
X155591785Y-136981428D01*
X155511428Y-136910000D01*
X155359642Y-136838571D01*
X155145357Y-136838571D01*
X155011428Y-136910000D01*
X154948928Y-136981428D01*
X154895357Y-137124285D01*
X154948928Y-137552857D01*
X155038214Y-137695714D01*
X155118571Y-137767142D01*
X155270357Y-137838571D01*
X155484642Y-137838571D01*
D12*
X165868333Y-94824761D02*
X165868333Y-95205714D01*
X166096904Y-94748571D02*
X165296904Y-95015238D01*
X166096904Y-95281904D01*
X166096904Y-95548571D02*
X165296904Y-95548571D01*
X165792142Y-95624761D02*
X166096904Y-95853333D01*
X165563571Y-95853333D02*
X165868333Y-95548571D01*
X166096904Y-96196190D02*
X165296904Y-96196190D01*
X165792142Y-96272380D02*
X166096904Y-96500952D01*
X165563571Y-96500952D02*
X165868333Y-96196190D01*
X165563571Y-97186666D02*
X166096904Y-97186666D01*
X165563571Y-96843809D02*
X165982619Y-96843809D01*
X166058809Y-96881904D01*
X166096904Y-96958095D01*
X166096904Y-97072380D01*
X166058809Y-97148571D01*
X166020714Y-97186666D01*
X165792142Y-97567619D02*
X165792142Y-98177142D01*
X166096904Y-97872380D02*
X165487380Y-97872380D01*
X168408333Y-94824761D02*
X168408333Y-95205714D01*
X168636904Y-94748571D02*
X167836904Y-95015238D01*
X168636904Y-95281904D01*
X168636904Y-95548571D02*
X167836904Y-95548571D01*
X168332142Y-95624761D02*
X168636904Y-95853333D01*
X168103571Y-95853333D02*
X168408333Y-95548571D01*
X168636904Y-96196190D02*
X167836904Y-96196190D01*
X168332142Y-96272380D02*
X168636904Y-96500952D01*
X168103571Y-96500952D02*
X168408333Y-96196190D01*
X168103571Y-97186666D02*
X168636904Y-97186666D01*
X168103571Y-96843809D02*
X168522619Y-96843809D01*
X168598809Y-96881904D01*
X168636904Y-96958095D01*
X168636904Y-97072380D01*
X168598809Y-97148571D01*
X168560714Y-97186666D01*
X168332142Y-97567619D02*
X168332142Y-98177142D01*
D13*
G04 #@! TO.C,J2*
X164405000Y-91380000D02*
X164405000Y-92710000D01*
X165735000Y-91380000D02*
X164405000Y-91380000D01*
X167005000Y-91380000D02*
X167005000Y-94040000D01*
X167005000Y-94040000D02*
X169605000Y-94040000D01*
X167005000Y-91380000D02*
X169605000Y-91380000D01*
X169605000Y-91380000D02*
X169605000Y-94040000D01*
D14*
G04 #@! TO.C,G\002A\002A\002A*
G36*
X171229224Y-95728086D02*
X170998605Y-95901409D01*
X170803599Y-96206896D01*
X170634712Y-96658141D01*
X170525002Y-97076402D01*
X170379148Y-97695349D01*
X170260388Y-98170974D01*
X170161856Y-98525846D01*
X170076687Y-98782536D01*
X169998017Y-98963614D01*
X169918980Y-99091651D01*
X169907492Y-99106632D01*
X169744377Y-99313999D01*
X167132001Y-99314000D01*
X164519624Y-99314000D01*
X164357775Y-99108242D01*
X164269370Y-98938121D01*
X164164446Y-98649600D01*
X164059237Y-98290415D01*
X164005067Y-98071075D01*
X163847814Y-97408717D01*
X163712213Y-96892546D01*
X163591257Y-96501859D01*
X163477939Y-96215951D01*
X163365253Y-96014120D01*
X163269658Y-95898082D01*
X162982988Y-95703255D01*
X162687819Y-95675906D01*
X162394974Y-95815283D01*
X162232360Y-95970043D01*
X162091660Y-96158058D01*
X161966380Y-96390473D01*
X161855078Y-96678585D01*
X161756308Y-97033690D01*
X161668628Y-97467083D01*
X161590593Y-97990060D01*
X161520758Y-98613917D01*
X161457681Y-99349950D01*
X161399917Y-100209454D01*
X161346022Y-101203726D01*
X161294553Y-102344061D01*
X161244064Y-103641754D01*
X161241035Y-103724872D01*
X161183831Y-105299411D01*
X160750082Y-105006842D01*
X160265085Y-104704757D01*
X159725296Y-104410456D01*
X159163459Y-104137987D01*
X158612316Y-103901394D01*
X158104613Y-103714725D01*
X157673091Y-103592024D01*
X157350495Y-103547338D01*
X157347721Y-103547333D01*
X157024855Y-103602694D01*
X156820391Y-103774498D01*
X156726424Y-104071327D01*
X156718000Y-104230977D01*
X156762653Y-104471243D01*
X156887369Y-104824029D01*
X157078284Y-105260961D01*
X157321535Y-105753664D01*
X157603258Y-106273764D01*
X157909589Y-106792885D01*
X158162781Y-107188000D01*
X158443623Y-107573979D01*
X158799595Y-108011187D01*
X159202971Y-108470358D01*
X159626026Y-108922223D01*
X160041034Y-109337518D01*
X160420270Y-109686975D01*
X160736009Y-109941328D01*
X160832890Y-110006534D01*
X161040083Y-110150253D01*
X161152688Y-110292930D01*
X161210567Y-110500806D01*
X161234321Y-110673601D01*
X161256603Y-110943976D01*
X161275179Y-111328447D01*
X161287865Y-111771781D01*
X161292343Y-112141000D01*
X161318708Y-113483751D01*
X161386345Y-114723740D01*
X161493726Y-115849952D01*
X161639324Y-116851369D01*
X161821611Y-117716975D01*
X162039060Y-118435754D01*
X162226274Y-118875805D01*
X162434246Y-119181533D01*
X162746181Y-119510661D01*
X163111923Y-119816442D01*
X163481316Y-120052127D01*
X163497194Y-120060322D01*
X163894525Y-120196986D01*
X164342218Y-120248777D01*
X164772587Y-120213430D01*
X165074457Y-120113063D01*
X165382494Y-119881781D01*
X165663694Y-119543923D01*
X165864197Y-119167957D01*
X165952442Y-118864931D01*
X166039597Y-118427515D01*
X166120463Y-117890607D01*
X166189845Y-117289101D01*
X166242543Y-116657891D01*
X166246072Y-116604213D01*
X166279257Y-116166036D01*
X166315662Y-115870083D01*
X166360536Y-115689259D01*
X166419126Y-115596467D01*
X166444585Y-115579396D01*
X166578830Y-115552447D01*
X166822523Y-115535170D01*
X167125529Y-115527575D01*
X167437714Y-115529671D01*
X167708943Y-115541469D01*
X167889084Y-115562977D01*
X167931335Y-115579112D01*
X167950964Y-115672509D01*
X167979021Y-115902726D01*
X168012120Y-116237663D01*
X168046873Y-116645219D01*
X168055611Y-116757146D01*
X168120330Y-117509819D01*
X168190407Y-118117239D01*
X168271253Y-118603487D01*
X168368277Y-118992643D01*
X168486890Y-119308788D01*
X168632502Y-119576002D01*
X168716242Y-119697589D01*
X169049746Y-120014242D01*
X169477797Y-120208734D01*
X169968016Y-120270990D01*
X170387791Y-120217716D01*
X170938790Y-120000458D01*
X171432047Y-119634116D01*
X171854080Y-119133053D01*
X172191405Y-118511631D01*
X172326695Y-118152333D01*
X172477658Y-117646737D01*
X172603759Y-117119217D01*
X172707805Y-116546932D01*
X172792602Y-115907038D01*
X172860958Y-115176694D01*
X172915678Y-114333057D01*
X172959572Y-113353285D01*
X172976446Y-112864778D01*
X172999001Y-112220715D01*
X173023357Y-111632192D01*
X173048347Y-111120273D01*
X173072800Y-110706025D01*
X173095549Y-110410515D01*
X173115423Y-110254807D01*
X173122289Y-110236402D01*
X173213608Y-110166781D01*
X173407719Y-110020285D01*
X173671905Y-109821574D01*
X173851675Y-109686618D01*
X174554765Y-109080907D01*
X175253281Y-108328224D01*
X175930265Y-107450479D01*
X176568759Y-106469580D01*
X177129190Y-105452333D01*
X177397748Y-104854771D01*
X177541394Y-104370646D01*
X177548700Y-104224809D01*
X177122667Y-104224809D01*
X177078189Y-104431368D01*
X176954488Y-104750664D01*
X176766158Y-105154469D01*
X176527799Y-105614555D01*
X176254006Y-106102693D01*
X175959376Y-106590654D01*
X175671377Y-107031412D01*
X175311804Y-107517250D01*
X174886247Y-108027578D01*
X174426209Y-108529614D01*
X173963196Y-108990575D01*
X173528712Y-109377679D01*
X173154263Y-109658144D01*
X173135392Y-109670232D01*
X172661784Y-109970283D01*
X172606225Y-110878312D01*
X172580838Y-111389585D01*
X172561220Y-111967131D01*
X172550497Y-112511614D01*
X172549412Y-112683337D01*
X172515974Y-114061905D01*
X172420944Y-115338014D01*
X172266264Y-116495469D01*
X172053874Y-117518074D01*
X171907894Y-118033909D01*
X171633735Y-118664559D01*
X171250760Y-119178218D01*
X170769214Y-119561922D01*
X170646921Y-119629745D01*
X170254170Y-119767519D01*
X169850357Y-119801148D01*
X169489800Y-119730783D01*
X169300056Y-119625996D01*
X169103648Y-119436155D01*
X168942396Y-119192878D01*
X168810940Y-118876351D01*
X168703920Y-118466760D01*
X168615974Y-117944291D01*
X168541743Y-117289130D01*
X168485610Y-116615609D01*
X168450967Y-116188946D01*
X168415032Y-115816252D01*
X168381715Y-115533908D01*
X168354925Y-115378300D01*
X168351488Y-115367549D01*
X168211372Y-115229076D01*
X167923821Y-115131212D01*
X167506659Y-115077631D01*
X166977708Y-115072006D01*
X166926683Y-115073918D01*
X166534619Y-115097673D01*
X166255970Y-115148803D01*
X166069016Y-115253286D01*
X165952039Y-115437100D01*
X165883319Y-115726223D01*
X165841137Y-116146633D01*
X165824611Y-116392104D01*
X165775981Y-117002223D01*
X165710768Y-117594071D01*
X165633881Y-118136215D01*
X165550229Y-118597221D01*
X165464723Y-118945658D01*
X165398180Y-119122430D01*
X165248760Y-119337577D01*
X165043000Y-119554506D01*
X165011879Y-119581581D01*
X164673351Y-119764750D01*
X164285806Y-119808617D01*
X163874790Y-119725910D01*
X163465849Y-119529361D01*
X163084530Y-119231699D01*
X162756377Y-118845655D01*
X162506939Y-118383958D01*
X162482391Y-118321094D01*
X162325339Y-117865006D01*
X162191973Y-117390851D01*
X162079802Y-116878894D01*
X161986335Y-116309400D01*
X161909080Y-115662633D01*
X161845545Y-114918858D01*
X161793240Y-114058340D01*
X161749673Y-113061342D01*
X161724438Y-112317143D01*
X161702732Y-111634976D01*
X161683451Y-111102149D01*
X161664582Y-110698726D01*
X161644113Y-110404771D01*
X161620031Y-110200350D01*
X161590325Y-110065527D01*
X161552981Y-109980366D01*
X161505988Y-109924933D01*
X161480858Y-109904143D01*
X161331201Y-109791488D01*
X161091008Y-109613805D01*
X160806821Y-109405486D01*
X160744524Y-109360056D01*
X160155867Y-108864158D01*
X159550380Y-108229621D01*
X158948559Y-107482972D01*
X158370899Y-106650740D01*
X157837894Y-105759454D01*
X157569565Y-105250427D01*
X157349566Y-104794328D01*
X157213289Y-104462227D01*
X157156077Y-104233684D01*
X157173272Y-104088257D01*
X157260219Y-104005505D01*
X157283624Y-103995416D01*
X157465827Y-103993498D01*
X157766545Y-104067523D01*
X158159439Y-104205738D01*
X158618170Y-104396386D01*
X159116400Y-104627712D01*
X159627790Y-104887960D01*
X160126002Y-105165374D01*
X160584698Y-105448198D01*
X160679059Y-105510901D01*
X161042723Y-105744338D01*
X161295827Y-105868461D01*
X161459007Y-105881014D01*
X161552902Y-105779739D01*
X161598146Y-105562380D01*
X161608986Y-105409207D01*
X161617882Y-105214969D01*
X161632838Y-104874892D01*
X161652852Y-104412323D01*
X161676922Y-103850609D01*
X161704048Y-103213097D01*
X161733227Y-102523135D01*
X161756037Y-101981000D01*
X161807601Y-100865326D01*
X161862691Y-99905470D01*
X161922791Y-99087930D01*
X161989382Y-98399202D01*
X162063947Y-97825784D01*
X162147969Y-97354173D01*
X162242930Y-96970866D01*
X162336168Y-96697273D01*
X162503933Y-96342990D01*
X162664004Y-96153257D01*
X162822535Y-96123857D01*
X162985678Y-96250573D01*
X162986529Y-96251608D01*
X163081953Y-96388983D01*
X163166477Y-96567109D01*
X163249173Y-96814747D01*
X163339115Y-97160656D01*
X163445377Y-97633594D01*
X163492520Y-97855442D01*
X163654206Y-98511985D01*
X163832614Y-99030189D01*
X164023435Y-99399640D01*
X164216707Y-99606286D01*
X164294012Y-99643132D01*
X164413139Y-99672551D01*
X164591817Y-99695332D01*
X164847773Y-99712265D01*
X165198737Y-99724139D01*
X165662437Y-99731743D01*
X166256600Y-99735867D01*
X166998955Y-99737300D01*
X167159937Y-99737333D01*
X167916052Y-99736869D01*
X168521383Y-99734777D01*
X168994477Y-99730004D01*
X169353882Y-99721497D01*
X169618147Y-99708205D01*
X169805819Y-99689074D01*
X169935446Y-99663053D01*
X170025575Y-99629089D01*
X170094756Y-99586129D01*
X170116422Y-99569585D01*
X170268877Y-99411953D01*
X170404699Y-99181300D01*
X170532604Y-98854738D01*
X170661309Y-98409382D01*
X170799532Y-97822346D01*
X170822884Y-97714809D01*
X170920675Y-97295262D01*
X171024298Y-96908332D01*
X171120456Y-96600744D01*
X171187026Y-96435333D01*
X171349548Y-96207266D01*
X171514070Y-96140383D01*
X171676936Y-96226632D01*
X171834491Y-96457956D01*
X171983080Y-96826303D01*
X172119049Y-97323618D01*
X172238743Y-97941847D01*
X172338505Y-98672936D01*
X172378093Y-99060000D01*
X172409507Y-99459105D01*
X172443700Y-99993064D01*
X172479150Y-100627453D01*
X172514337Y-101327847D01*
X172547739Y-102059822D01*
X172577836Y-102788952D01*
X172603107Y-103480814D01*
X172622031Y-104100983D01*
X172633086Y-104615034D01*
X172635334Y-104882346D01*
X172641560Y-105327427D01*
X172663920Y-105628491D01*
X172707931Y-105810521D01*
X172779114Y-105898501D01*
X172864138Y-105917999D01*
X172985693Y-105873435D01*
X173209360Y-105753652D01*
X173497818Y-105579518D01*
X173680580Y-105461524D01*
X174184354Y-105147692D01*
X174723783Y-104844806D01*
X175269299Y-104566467D01*
X175791333Y-104326280D01*
X176260319Y-104137849D01*
X176646686Y-104014777D01*
X176920868Y-103970666D01*
X176921081Y-103970666D01*
X177065650Y-104000165D01*
X177118335Y-104122086D01*
X177122667Y-104224809D01*
X177548700Y-104224809D01*
X177560017Y-103998943D01*
X177453504Y-103738647D01*
X177221740Y-103588742D01*
X176917114Y-103547333D01*
X176579876Y-103593052D01*
X176133788Y-103721451D01*
X175609616Y-103919395D01*
X175038129Y-104173747D01*
X174450093Y-104471372D01*
X173876275Y-104799134D01*
X173642733Y-104945314D01*
X173083798Y-105305660D01*
X173025563Y-103389330D01*
X172977478Y-102008187D01*
X172921166Y-100788176D01*
X172855037Y-99721229D01*
X172777500Y-98799273D01*
X172686964Y-98014239D01*
X172581840Y-97358057D01*
X172460537Y-96822656D01*
X172321465Y-96399966D01*
X172163032Y-96081916D01*
X171983649Y-95860436D01*
X171781725Y-95727456D01*
X171555669Y-95674905D01*
X171504953Y-95673333D01*
X171229224Y-95728086D01*
X171229224Y-95728086D01*
G37*
X171229224Y-95728086D02*
X170998605Y-95901409D01*
X170803599Y-96206896D01*
X170634712Y-96658141D01*
X170525002Y-97076402D01*
X170379148Y-97695349D01*
X170260388Y-98170974D01*
X170161856Y-98525846D01*
X170076687Y-98782536D01*
X169998017Y-98963614D01*
X169918980Y-99091651D01*
X169907492Y-99106632D01*
X169744377Y-99313999D01*
X167132001Y-99314000D01*
X164519624Y-99314000D01*
X164357775Y-99108242D01*
X164269370Y-98938121D01*
X164164446Y-98649600D01*
X164059237Y-98290415D01*
X164005067Y-98071075D01*
X163847814Y-97408717D01*
X163712213Y-96892546D01*
X163591257Y-96501859D01*
X163477939Y-96215951D01*
X163365253Y-96014120D01*
X163269658Y-95898082D01*
X162982988Y-95703255D01*
X162687819Y-95675906D01*
X162394974Y-95815283D01*
X162232360Y-95970043D01*
X162091660Y-96158058D01*
X161966380Y-96390473D01*
X161855078Y-96678585D01*
X161756308Y-97033690D01*
X161668628Y-97467083D01*
X161590593Y-97990060D01*
X161520758Y-98613917D01*
X161457681Y-99349950D01*
X161399917Y-100209454D01*
X161346022Y-101203726D01*
X161294553Y-102344061D01*
X161244064Y-103641754D01*
X161241035Y-103724872D01*
X161183831Y-105299411D01*
X160750082Y-105006842D01*
X160265085Y-104704757D01*
X159725296Y-104410456D01*
X159163459Y-104137987D01*
X158612316Y-103901394D01*
X158104613Y-103714725D01*
X157673091Y-103592024D01*
X157350495Y-103547338D01*
X157347721Y-103547333D01*
X157024855Y-103602694D01*
X156820391Y-103774498D01*
X156726424Y-104071327D01*
X156718000Y-104230977D01*
X156762653Y-104471243D01*
X156887369Y-104824029D01*
X157078284Y-105260961D01*
X157321535Y-105753664D01*
X157603258Y-106273764D01*
X157909589Y-106792885D01*
X158162781Y-107188000D01*
X158443623Y-107573979D01*
X158799595Y-108011187D01*
X159202971Y-108470358D01*
X159626026Y-108922223D01*
X160041034Y-109337518D01*
X160420270Y-109686975D01*
X160736009Y-109941328D01*
X160832890Y-110006534D01*
X161040083Y-110150253D01*
X161152688Y-110292930D01*
X161210567Y-110500806D01*
X161234321Y-110673601D01*
X161256603Y-110943976D01*
X161275179Y-111328447D01*
X161287865Y-111771781D01*
X161292343Y-112141000D01*
X161318708Y-113483751D01*
X161386345Y-114723740D01*
X161493726Y-115849952D01*
X161639324Y-116851369D01*
X161821611Y-117716975D01*
X162039060Y-118435754D01*
X162226274Y-118875805D01*
X162434246Y-119181533D01*
X162746181Y-119510661D01*
X163111923Y-119816442D01*
X163481316Y-120052127D01*
X163497194Y-120060322D01*
X163894525Y-120196986D01*
X164342218Y-120248777D01*
X164772587Y-120213430D01*
X165074457Y-120113063D01*
X165382494Y-119881781D01*
X165663694Y-119543923D01*
X165864197Y-119167957D01*
X165952442Y-118864931D01*
X166039597Y-118427515D01*
X166120463Y-117890607D01*
X166189845Y-117289101D01*
X166242543Y-116657891D01*
X166246072Y-116604213D01*
X166279257Y-116166036D01*
X166315662Y-115870083D01*
X166360536Y-115689259D01*
X166419126Y-115596467D01*
X166444585Y-115579396D01*
X166578830Y-115552447D01*
X166822523Y-115535170D01*
X167125529Y-115527575D01*
X167437714Y-115529671D01*
X167708943Y-115541469D01*
X167889084Y-115562977D01*
X167931335Y-115579112D01*
X167950964Y-115672509D01*
X167979021Y-115902726D01*
X168012120Y-116237663D01*
X168046873Y-116645219D01*
X168055611Y-116757146D01*
X168120330Y-117509819D01*
X168190407Y-118117239D01*
X168271253Y-118603487D01*
X168368277Y-118992643D01*
X168486890Y-119308788D01*
X168632502Y-119576002D01*
X168716242Y-119697589D01*
X169049746Y-120014242D01*
X169477797Y-120208734D01*
X169968016Y-120270990D01*
X170387791Y-120217716D01*
X170938790Y-120000458D01*
X171432047Y-119634116D01*
X171854080Y-119133053D01*
X172191405Y-118511631D01*
X172326695Y-118152333D01*
X172477658Y-117646737D01*
X172603759Y-117119217D01*
X172707805Y-116546932D01*
X172792602Y-115907038D01*
X172860958Y-115176694D01*
X172915678Y-114333057D01*
X172959572Y-113353285D01*
X172976446Y-112864778D01*
X172999001Y-112220715D01*
X173023357Y-111632192D01*
X173048347Y-111120273D01*
X173072800Y-110706025D01*
X173095549Y-110410515D01*
X173115423Y-110254807D01*
X173122289Y-110236402D01*
X173213608Y-110166781D01*
X173407719Y-110020285D01*
X173671905Y-109821574D01*
X173851675Y-109686618D01*
X174554765Y-109080907D01*
X175253281Y-108328224D01*
X175930265Y-107450479D01*
X176568759Y-106469580D01*
X177129190Y-105452333D01*
X177397748Y-104854771D01*
X177541394Y-104370646D01*
X177548700Y-104224809D01*
X177122667Y-104224809D01*
X177078189Y-104431368D01*
X176954488Y-104750664D01*
X176766158Y-105154469D01*
X176527799Y-105614555D01*
X176254006Y-106102693D01*
X175959376Y-106590654D01*
X175671377Y-107031412D01*
X175311804Y-107517250D01*
X174886247Y-108027578D01*
X174426209Y-108529614D01*
X173963196Y-108990575D01*
X173528712Y-109377679D01*
X173154263Y-109658144D01*
X173135392Y-109670232D01*
X172661784Y-109970283D01*
X172606225Y-110878312D01*
X172580838Y-111389585D01*
X172561220Y-111967131D01*
X172550497Y-112511614D01*
X172549412Y-112683337D01*
X172515974Y-114061905D01*
X172420944Y-115338014D01*
X172266264Y-116495469D01*
X172053874Y-117518074D01*
X171907894Y-118033909D01*
X171633735Y-118664559D01*
X171250760Y-119178218D01*
X170769214Y-119561922D01*
X170646921Y-119629745D01*
X170254170Y-119767519D01*
X169850357Y-119801148D01*
X169489800Y-119730783D01*
X169300056Y-119625996D01*
X169103648Y-119436155D01*
X168942396Y-119192878D01*
X168810940Y-118876351D01*
X168703920Y-118466760D01*
X168615974Y-117944291D01*
X168541743Y-117289130D01*
X168485610Y-116615609D01*
X168450967Y-116188946D01*
X168415032Y-115816252D01*
X168381715Y-115533908D01*
X168354925Y-115378300D01*
X168351488Y-115367549D01*
X168211372Y-115229076D01*
X167923821Y-115131212D01*
X167506659Y-115077631D01*
X166977708Y-115072006D01*
X166926683Y-115073918D01*
X166534619Y-115097673D01*
X166255970Y-115148803D01*
X166069016Y-115253286D01*
X165952039Y-115437100D01*
X165883319Y-115726223D01*
X165841137Y-116146633D01*
X165824611Y-116392104D01*
X165775981Y-117002223D01*
X165710768Y-117594071D01*
X165633881Y-118136215D01*
X165550229Y-118597221D01*
X165464723Y-118945658D01*
X165398180Y-119122430D01*
X165248760Y-119337577D01*
X165043000Y-119554506D01*
X165011879Y-119581581D01*
X164673351Y-119764750D01*
X164285806Y-119808617D01*
X163874790Y-119725910D01*
X163465849Y-119529361D01*
X163084530Y-119231699D01*
X162756377Y-118845655D01*
X162506939Y-118383958D01*
X162482391Y-118321094D01*
X162325339Y-117865006D01*
X162191973Y-117390851D01*
X162079802Y-116878894D01*
X161986335Y-116309400D01*
X161909080Y-115662633D01*
X161845545Y-114918858D01*
X161793240Y-114058340D01*
X161749673Y-113061342D01*
X161724438Y-112317143D01*
X161702732Y-111634976D01*
X161683451Y-111102149D01*
X161664582Y-110698726D01*
X161644113Y-110404771D01*
X161620031Y-110200350D01*
X161590325Y-110065527D01*
X161552981Y-109980366D01*
X161505988Y-109924933D01*
X161480858Y-109904143D01*
X161331201Y-109791488D01*
X161091008Y-109613805D01*
X160806821Y-109405486D01*
X160744524Y-109360056D01*
X160155867Y-108864158D01*
X159550380Y-108229621D01*
X158948559Y-107482972D01*
X158370899Y-106650740D01*
X157837894Y-105759454D01*
X157569565Y-105250427D01*
X157349566Y-104794328D01*
X157213289Y-104462227D01*
X157156077Y-104233684D01*
X157173272Y-104088257D01*
X157260219Y-104005505D01*
X157283624Y-103995416D01*
X157465827Y-103993498D01*
X157766545Y-104067523D01*
X158159439Y-104205738D01*
X158618170Y-104396386D01*
X159116400Y-104627712D01*
X159627790Y-104887960D01*
X160126002Y-105165374D01*
X160584698Y-105448198D01*
X160679059Y-105510901D01*
X161042723Y-105744338D01*
X161295827Y-105868461D01*
X161459007Y-105881014D01*
X161552902Y-105779739D01*
X161598146Y-105562380D01*
X161608986Y-105409207D01*
X161617882Y-105214969D01*
X161632838Y-104874892D01*
X161652852Y-104412323D01*
X161676922Y-103850609D01*
X161704048Y-103213097D01*
X161733227Y-102523135D01*
X161756037Y-101981000D01*
X161807601Y-100865326D01*
X161862691Y-99905470D01*
X161922791Y-99087930D01*
X161989382Y-98399202D01*
X162063947Y-97825784D01*
X162147969Y-97354173D01*
X162242930Y-96970866D01*
X162336168Y-96697273D01*
X162503933Y-96342990D01*
X162664004Y-96153257D01*
X162822535Y-96123857D01*
X162985678Y-96250573D01*
X162986529Y-96251608D01*
X163081953Y-96388983D01*
X163166477Y-96567109D01*
X163249173Y-96814747D01*
X163339115Y-97160656D01*
X163445377Y-97633594D01*
X163492520Y-97855442D01*
X163654206Y-98511985D01*
X163832614Y-99030189D01*
X164023435Y-99399640D01*
X164216707Y-99606286D01*
X164294012Y-99643132D01*
X164413139Y-99672551D01*
X164591817Y-99695332D01*
X164847773Y-99712265D01*
X165198737Y-99724139D01*
X165662437Y-99731743D01*
X166256600Y-99735867D01*
X166998955Y-99737300D01*
X167159937Y-99737333D01*
X167916052Y-99736869D01*
X168521383Y-99734777D01*
X168994477Y-99730004D01*
X169353882Y-99721497D01*
X169618147Y-99708205D01*
X169805819Y-99689074D01*
X169935446Y-99663053D01*
X170025575Y-99629089D01*
X170094756Y-99586129D01*
X170116422Y-99569585D01*
X170268877Y-99411953D01*
X170404699Y-99181300D01*
X170532604Y-98854738D01*
X170661309Y-98409382D01*
X170799532Y-97822346D01*
X170822884Y-97714809D01*
X170920675Y-97295262D01*
X171024298Y-96908332D01*
X171120456Y-96600744D01*
X171187026Y-96435333D01*
X171349548Y-96207266D01*
X171514070Y-96140383D01*
X171676936Y-96226632D01*
X171834491Y-96457956D01*
X171983080Y-96826303D01*
X172119049Y-97323618D01*
X172238743Y-97941847D01*
X172338505Y-98672936D01*
X172378093Y-99060000D01*
X172409507Y-99459105D01*
X172443700Y-99993064D01*
X172479150Y-100627453D01*
X172514337Y-101327847D01*
X172547739Y-102059822D01*
X172577836Y-102788952D01*
X172603107Y-103480814D01*
X172622031Y-104100983D01*
X172633086Y-104615034D01*
X172635334Y-104882346D01*
X172641560Y-105327427D01*
X172663920Y-105628491D01*
X172707931Y-105810521D01*
X172779114Y-105898501D01*
X172864138Y-105917999D01*
X172985693Y-105873435D01*
X173209360Y-105753652D01*
X173497818Y-105579518D01*
X173680580Y-105461524D01*
X174184354Y-105147692D01*
X174723783Y-104844806D01*
X175269299Y-104566467D01*
X175791333Y-104326280D01*
X176260319Y-104137849D01*
X176646686Y-104014777D01*
X176920868Y-103970666D01*
X176921081Y-103970666D01*
X177065650Y-104000165D01*
X177118335Y-104122086D01*
X177122667Y-104224809D01*
X177548700Y-104224809D01*
X177560017Y-103998943D01*
X177453504Y-103738647D01*
X177221740Y-103588742D01*
X176917114Y-103547333D01*
X176579876Y-103593052D01*
X176133788Y-103721451D01*
X175609616Y-103919395D01*
X175038129Y-104173747D01*
X174450093Y-104471372D01*
X173876275Y-104799134D01*
X173642733Y-104945314D01*
X173083798Y-105305660D01*
X173025563Y-103389330D01*
X172977478Y-102008187D01*
X172921166Y-100788176D01*
X172855037Y-99721229D01*
X172777500Y-98799273D01*
X172686964Y-98014239D01*
X172581840Y-97358057D01*
X172460537Y-96822656D01*
X172321465Y-96399966D01*
X172163032Y-96081916D01*
X171983649Y-95860436D01*
X171781725Y-95727456D01*
X171555669Y-95674905D01*
X171504953Y-95673333D01*
X171229224Y-95728086D01*
G04 #@! TD*
M02*
