M48
; DRILL file {KiCad 5.1.5-52549c5~84~ubuntu18.04.1} date Do 02 Jan 2020 11:32:35 CET
; FORMAT={-:-/ absolute / inch / decimal}
; #@! TF.CreationDate,2020-01-02T11:32:35+01:00
; #@! TF.GenerationSoftware,Kicad,Pcbnew,5.1.5-52549c5~84~ubuntu18.04.1
FMAT,2
INCH
T1C0.0157
T2C0.0300
T3C0.0315
T4C0.0394
T5C0.0433
T6C0.1260
%
G90
G05
T1
X5.9442Y-5.3055
T2
X6.3189Y-4.815
X6.7913Y-4.815
T3
X5.3299Y-5.0543
X5.3299Y-5.1543
X5.3299Y-5.2543
X5.3299Y-5.3543
X5.6299Y-5.0543
X5.6299Y-5.1543
X5.6299Y-5.2543
X5.6299Y-5.3543
X5.3248Y-4.5622
X5.3248Y-4.8622
T4
X5.8157Y-5.1948
X5.8157Y-5.3028
X5.8157Y-5.6028
X5.8157Y-5.7108
X6.7157Y-5.1868
X6.7157Y-5.7188
X7.1358Y-4.872
X7.1358Y-4.972
X7.125Y-4.225
X7.125Y-4.325
X7.125Y-4.425
X7.125Y-4.525
X7.125Y-4.625
X7.125Y-4.725
X5.4677Y-4.1874
X5.4677Y-4.2874
X5.4677Y-4.3874
X5.4677Y-4.4874
X5.4677Y-4.5874
X5.4677Y-4.6874
X5.4677Y-4.7874
X5.4677Y-4.8874
X5.7126Y-3.8051
X5.8219Y-3.8051
X6.0677Y-4.1874
X6.0677Y-4.2874
X6.0677Y-4.3874
X6.0677Y-4.4874
X6.0677Y-4.5874
X6.0677Y-4.6874
X6.0677Y-4.7874
X6.0677Y-4.8874
X6.7Y-3.6
X6.8Y-3.6
T5
X6.9783Y-3.5039
X6.9783Y-3.7598
X7.1555Y-3.5039
X7.1555Y-3.7598
X5.3051Y-5.4921
X5.3051Y-5.748
X5.4823Y-5.4921
X5.4823Y-5.748
X6.9783Y-5.4921
X6.9783Y-5.748
X7.1555Y-5.4921
X7.1555Y-5.748
X5.3051Y-3.5039
X5.3051Y-3.7598
X5.4823Y-3.5039
X5.4823Y-3.7598
T6
X6.9291Y-4.9803
X6.5846Y-4.9803
T0
M30
