G04 #@! TF.GenerationSoftware,KiCad,Pcbnew,5.1.5-52549c5~84~ubuntu18.04.1*
G04 #@! TF.CreationDate,2020-01-01T22:03:35+01:00*
G04 #@! TF.ProjectId,NOKOlino,4e4f4b4f-6c69-46e6-9f2e-6b696361645f,3.0*
G04 #@! TF.SameCoordinates,Original*
G04 #@! TF.FileFunction,Legend,Bot*
G04 #@! TF.FilePolarity,Positive*
%FSLAX46Y46*%
G04 Gerber Fmt 4.6, Leading zero omitted, Abs format (unit mm)*
G04 Created by KiCad (PCBNEW 5.1.5-52549c5~84~ubuntu18.04.1) date 2020-01-01 22:03:35*
%MOMM*%
%LPD*%
G04 APERTURE LIST*
%ADD10C,0.100000*%
%ADD11C,0.300000*%
%ADD12C,0.200000*%
%ADD13C,0.120000*%
%ADD14C,0.010000*%
G04 APERTURE END LIST*
D10*
X164411696Y-139426904D02*
X164311696Y-138626904D01*
X164349791Y-138931666D02*
X164268839Y-138893571D01*
X164116458Y-138893571D01*
X164045029Y-138931666D01*
X164011696Y-138969761D01*
X163983125Y-139045952D01*
X164011696Y-139274523D01*
X164059315Y-139350714D01*
X164102172Y-139388809D01*
X164183125Y-139426904D01*
X164335505Y-139426904D01*
X164406934Y-139388809D01*
X163697410Y-138893571D02*
X163573601Y-139426904D01*
X163316458Y-138893571D02*
X163573601Y-139426904D01*
X163673601Y-139617380D01*
X163716458Y-139655476D01*
X163797410Y-139693571D01*
X162468839Y-139426904D02*
X162368839Y-138626904D01*
X162011696Y-139426904D01*
X161911696Y-138626904D01*
X161630744Y-139426904D02*
X161564077Y-138893571D01*
X161530744Y-138626904D02*
X161573601Y-138665000D01*
X161540267Y-138703095D01*
X161497410Y-138665000D01*
X161530744Y-138626904D01*
X161540267Y-138703095D01*
X161249791Y-139426904D02*
X161149791Y-138626904D01*
X161135505Y-139122142D02*
X160945029Y-139426904D01*
X160878363Y-138893571D02*
X161221220Y-139198333D01*
X160487886Y-139426904D02*
X160559315Y-139388809D01*
X160592648Y-139350714D01*
X160621220Y-139274523D01*
X160592648Y-139045952D01*
X160545029Y-138969761D01*
X160502172Y-138931666D01*
X160421220Y-138893571D01*
X160306934Y-138893571D01*
X160235505Y-138931666D01*
X160202172Y-138969761D01*
X160173601Y-139045952D01*
X160202172Y-139274523D01*
X160249791Y-139350714D01*
X160292648Y-139388809D01*
X160373601Y-139426904D01*
X160487886Y-139426904D01*
X159764077Y-139426904D02*
X159835505Y-139388809D01*
X159864077Y-139312619D01*
X159778363Y-138626904D01*
X159116458Y-139426904D02*
X159064077Y-139007857D01*
X159092648Y-138931666D01*
X159164077Y-138893571D01*
X159316458Y-138893571D01*
X159397410Y-138931666D01*
X159111696Y-139388809D02*
X159192648Y-139426904D01*
X159383125Y-139426904D01*
X159454553Y-139388809D01*
X159483125Y-139312619D01*
X159473601Y-139236428D01*
X159425982Y-139160238D01*
X159345029Y-139122142D01*
X159154553Y-139122142D01*
X159073601Y-139084047D01*
X158735505Y-139426904D02*
X158668839Y-138893571D01*
X158635505Y-138626904D02*
X158678363Y-138665000D01*
X158645029Y-138703095D01*
X158602172Y-138665000D01*
X158635505Y-138626904D01*
X158645029Y-138703095D01*
X157287886Y-139426904D02*
X157506934Y-139045952D01*
X157745029Y-139426904D02*
X157645029Y-138626904D01*
X157340267Y-138626904D01*
X157268839Y-138665000D01*
X157235505Y-138703095D01*
X157206934Y-138779285D01*
X157221220Y-138893571D01*
X157268839Y-138969761D01*
X157311696Y-139007857D01*
X157392648Y-139045952D01*
X157697410Y-139045952D01*
X156602172Y-139426904D02*
X156549791Y-139007857D01*
X156578363Y-138931666D01*
X156649791Y-138893571D01*
X156802172Y-138893571D01*
X156883125Y-138931666D01*
X156597410Y-139388809D02*
X156678363Y-139426904D01*
X156868839Y-139426904D01*
X156940267Y-139388809D01*
X156968839Y-139312619D01*
X156959315Y-139236428D01*
X156911696Y-139160238D01*
X156830744Y-139122142D01*
X156640267Y-139122142D01*
X156559315Y-139084047D01*
X155878363Y-139426904D02*
X155778363Y-138626904D01*
X155873601Y-139388809D02*
X155954553Y-139426904D01*
X156106934Y-139426904D01*
X156178363Y-139388809D01*
X156211696Y-139350714D01*
X156240267Y-139274523D01*
X156211696Y-139045952D01*
X156164077Y-138969761D01*
X156121220Y-138931666D01*
X156040267Y-138893571D01*
X155887886Y-138893571D01*
X155816458Y-138931666D01*
X155497410Y-139426904D02*
X155397410Y-138626904D01*
X155383125Y-139122142D02*
X155192648Y-139426904D01*
X155125982Y-138893571D02*
X155468839Y-139198333D01*
X154540267Y-139388809D02*
X154621220Y-139426904D01*
X154773601Y-139426904D01*
X154845029Y-139388809D01*
X154873601Y-139312619D01*
X154835505Y-139007857D01*
X154787886Y-138931666D01*
X154706934Y-138893571D01*
X154554553Y-138893571D01*
X154483125Y-138931666D01*
X154454553Y-139007857D01*
X154464077Y-139084047D01*
X154854553Y-139160238D01*
D11*
X164056071Y-137838571D02*
X163868571Y-136338571D01*
X163198928Y-137838571D01*
X163011428Y-136338571D01*
X162270357Y-137838571D02*
X162404285Y-137767142D01*
X162466785Y-137695714D01*
X162520357Y-137552857D01*
X162466785Y-137124285D01*
X162377500Y-136981428D01*
X162297142Y-136910000D01*
X162145357Y-136838571D01*
X161931071Y-136838571D01*
X161797142Y-136910000D01*
X161734642Y-136981428D01*
X161681071Y-137124285D01*
X161734642Y-137552857D01*
X161823928Y-137695714D01*
X161904285Y-137767142D01*
X162056071Y-137838571D01*
X162270357Y-137838571D01*
X161127500Y-137838571D02*
X160940000Y-136338571D01*
X160913214Y-137267142D02*
X160556071Y-137838571D01*
X160431071Y-136838571D02*
X161073928Y-137410000D01*
X159698928Y-137838571D02*
X159832857Y-137767142D01*
X159895357Y-137695714D01*
X159948928Y-137552857D01*
X159895357Y-137124285D01*
X159806071Y-136981428D01*
X159725714Y-136910000D01*
X159573928Y-136838571D01*
X159359642Y-136838571D01*
X159225714Y-136910000D01*
X159163214Y-136981428D01*
X159109642Y-137124285D01*
X159163214Y-137552857D01*
X159252500Y-137695714D01*
X159332857Y-137767142D01*
X159484642Y-137838571D01*
X159698928Y-137838571D01*
X158341785Y-137838571D02*
X158475714Y-137767142D01*
X158529285Y-137624285D01*
X158368571Y-136338571D01*
X157770357Y-137838571D02*
X157645357Y-136838571D01*
X157582857Y-136338571D02*
X157663214Y-136410000D01*
X157600714Y-136481428D01*
X157520357Y-136410000D01*
X157582857Y-136338571D01*
X157600714Y-136481428D01*
X156931071Y-136838571D02*
X157056071Y-137838571D01*
X156948928Y-136981428D02*
X156868571Y-136910000D01*
X156716785Y-136838571D01*
X156502500Y-136838571D01*
X156368571Y-136910000D01*
X156315000Y-137052857D01*
X156413214Y-137838571D01*
X155484642Y-137838571D02*
X155618571Y-137767142D01*
X155681071Y-137695714D01*
X155734642Y-137552857D01*
X155681071Y-137124285D01*
X155591785Y-136981428D01*
X155511428Y-136910000D01*
X155359642Y-136838571D01*
X155145357Y-136838571D01*
X155011428Y-136910000D01*
X154948928Y-136981428D01*
X154895357Y-137124285D01*
X154948928Y-137552857D01*
X155038214Y-137695714D01*
X155118571Y-137767142D01*
X155270357Y-137838571D01*
X155484642Y-137838571D01*
D12*
X170313333Y-98634761D02*
X170313333Y-99015714D01*
X170541904Y-98558571D02*
X169741904Y-98825238D01*
X170541904Y-99091904D01*
X170541904Y-99358571D02*
X169741904Y-99358571D01*
X170237142Y-99434761D02*
X170541904Y-99663333D01*
X170008571Y-99663333D02*
X170313333Y-99358571D01*
X170541904Y-100006190D02*
X169741904Y-100006190D01*
X170237142Y-100082380D02*
X170541904Y-100310952D01*
X170008571Y-100310952D02*
X170313333Y-100006190D01*
X170008571Y-100996666D02*
X170541904Y-100996666D01*
X170008571Y-100653809D02*
X170427619Y-100653809D01*
X170503809Y-100691904D01*
X170541904Y-100768095D01*
X170541904Y-100882380D01*
X170503809Y-100958571D01*
X170465714Y-100996666D01*
X170237142Y-101377619D02*
X170237142Y-101987142D01*
X170541904Y-101682380D02*
X169932380Y-101682380D01*
X172853333Y-98634761D02*
X172853333Y-99015714D01*
X173081904Y-98558571D02*
X172281904Y-98825238D01*
X173081904Y-99091904D01*
X173081904Y-99358571D02*
X172281904Y-99358571D01*
X172777142Y-99434761D02*
X173081904Y-99663333D01*
X172548571Y-99663333D02*
X172853333Y-99358571D01*
X173081904Y-100006190D02*
X172281904Y-100006190D01*
X172777142Y-100082380D02*
X173081904Y-100310952D01*
X172548571Y-100310952D02*
X172853333Y-100006190D01*
X172548571Y-100996666D02*
X173081904Y-100996666D01*
X172548571Y-100653809D02*
X172967619Y-100653809D01*
X173043809Y-100691904D01*
X173081904Y-100768095D01*
X173081904Y-100882380D01*
X173043809Y-100958571D01*
X173005714Y-100996666D01*
X172777142Y-101377619D02*
X172777142Y-101987142D01*
D13*
X168850000Y-90110000D02*
X168850000Y-91440000D01*
X170180000Y-90110000D02*
X168850000Y-90110000D01*
X171450000Y-90110000D02*
X171450000Y-92770000D01*
X171450000Y-92770000D02*
X174050000Y-92770000D01*
X171450000Y-90110000D02*
X174050000Y-90110000D01*
X174050000Y-90110000D02*
X174050000Y-92770000D01*
D14*
G36*
X175039224Y-93188086D02*
G01*
X174808605Y-93361409D01*
X174613599Y-93666896D01*
X174444712Y-94118141D01*
X174335002Y-94536402D01*
X174189148Y-95155349D01*
X174070388Y-95630974D01*
X173971856Y-95985846D01*
X173886687Y-96242536D01*
X173808017Y-96423614D01*
X173728980Y-96551651D01*
X173717492Y-96566632D01*
X173554377Y-96773999D01*
X170942001Y-96774000D01*
X168329624Y-96774000D01*
X168167775Y-96568242D01*
X168079370Y-96398121D01*
X167974446Y-96109600D01*
X167869237Y-95750415D01*
X167815067Y-95531075D01*
X167657814Y-94868717D01*
X167522213Y-94352546D01*
X167401257Y-93961859D01*
X167287939Y-93675951D01*
X167175253Y-93474120D01*
X167079658Y-93358082D01*
X166792988Y-93163255D01*
X166497819Y-93135906D01*
X166204974Y-93275283D01*
X166042360Y-93430043D01*
X165901660Y-93618058D01*
X165776380Y-93850473D01*
X165665078Y-94138585D01*
X165566308Y-94493690D01*
X165478628Y-94927083D01*
X165400593Y-95450060D01*
X165330758Y-96073917D01*
X165267681Y-96809950D01*
X165209917Y-97669454D01*
X165156022Y-98663726D01*
X165104553Y-99804061D01*
X165054064Y-101101754D01*
X165051035Y-101184872D01*
X164993831Y-102759411D01*
X164560082Y-102466842D01*
X164075085Y-102164757D01*
X163535296Y-101870456D01*
X162973459Y-101597987D01*
X162422316Y-101361394D01*
X161914613Y-101174725D01*
X161483091Y-101052024D01*
X161160495Y-101007338D01*
X161157721Y-101007333D01*
X160834855Y-101062694D01*
X160630391Y-101234498D01*
X160536424Y-101531327D01*
X160528000Y-101690977D01*
X160572653Y-101931243D01*
X160697369Y-102284029D01*
X160888284Y-102720961D01*
X161131535Y-103213664D01*
X161413258Y-103733764D01*
X161719589Y-104252885D01*
X161972781Y-104648000D01*
X162253623Y-105033979D01*
X162609595Y-105471187D01*
X163012971Y-105930358D01*
X163436026Y-106382223D01*
X163851034Y-106797518D01*
X164230270Y-107146975D01*
X164546009Y-107401328D01*
X164642890Y-107466534D01*
X164850083Y-107610253D01*
X164962688Y-107752930D01*
X165020567Y-107960806D01*
X165044321Y-108133601D01*
X165066603Y-108403976D01*
X165085179Y-108788447D01*
X165097865Y-109231781D01*
X165102343Y-109601000D01*
X165128708Y-110943751D01*
X165196345Y-112183740D01*
X165303726Y-113309952D01*
X165449324Y-114311369D01*
X165631611Y-115176975D01*
X165849060Y-115895754D01*
X166036274Y-116335805D01*
X166244246Y-116641533D01*
X166556181Y-116970661D01*
X166921923Y-117276442D01*
X167291316Y-117512127D01*
X167307194Y-117520322D01*
X167704525Y-117656986D01*
X168152218Y-117708777D01*
X168582587Y-117673430D01*
X168884457Y-117573063D01*
X169192494Y-117341781D01*
X169473694Y-117003923D01*
X169674197Y-116627957D01*
X169762442Y-116324931D01*
X169849597Y-115887515D01*
X169930463Y-115350607D01*
X169999845Y-114749101D01*
X170052543Y-114117891D01*
X170056072Y-114064213D01*
X170089257Y-113626036D01*
X170125662Y-113330083D01*
X170170536Y-113149259D01*
X170229126Y-113056467D01*
X170254585Y-113039396D01*
X170388830Y-113012447D01*
X170632523Y-112995170D01*
X170935529Y-112987575D01*
X171247714Y-112989671D01*
X171518943Y-113001469D01*
X171699084Y-113022977D01*
X171741335Y-113039112D01*
X171760964Y-113132509D01*
X171789021Y-113362726D01*
X171822120Y-113697663D01*
X171856873Y-114105219D01*
X171865611Y-114217146D01*
X171930330Y-114969819D01*
X172000407Y-115577239D01*
X172081253Y-116063487D01*
X172178277Y-116452643D01*
X172296890Y-116768788D01*
X172442502Y-117036002D01*
X172526242Y-117157589D01*
X172859746Y-117474242D01*
X173287797Y-117668734D01*
X173778016Y-117730990D01*
X174197791Y-117677716D01*
X174748790Y-117460458D01*
X175242047Y-117094116D01*
X175664080Y-116593053D01*
X176001405Y-115971631D01*
X176136695Y-115612333D01*
X176287658Y-115106737D01*
X176413759Y-114579217D01*
X176517805Y-114006932D01*
X176602602Y-113367038D01*
X176670958Y-112636694D01*
X176725678Y-111793057D01*
X176769572Y-110813285D01*
X176786446Y-110324778D01*
X176809001Y-109680715D01*
X176833357Y-109092192D01*
X176858347Y-108580273D01*
X176882800Y-108166025D01*
X176905549Y-107870515D01*
X176925423Y-107714807D01*
X176932289Y-107696402D01*
X177023608Y-107626781D01*
X177217719Y-107480285D01*
X177481905Y-107281574D01*
X177661675Y-107146618D01*
X178364765Y-106540907D01*
X179063281Y-105788224D01*
X179740265Y-104910479D01*
X180378759Y-103929580D01*
X180939190Y-102912333D01*
X181207748Y-102314771D01*
X181351394Y-101830646D01*
X181358700Y-101684809D01*
X180932667Y-101684809D01*
X180888189Y-101891368D01*
X180764488Y-102210664D01*
X180576158Y-102614469D01*
X180337799Y-103074555D01*
X180064006Y-103562693D01*
X179769376Y-104050654D01*
X179481377Y-104491412D01*
X179121804Y-104977250D01*
X178696247Y-105487578D01*
X178236209Y-105989614D01*
X177773196Y-106450575D01*
X177338712Y-106837679D01*
X176964263Y-107118144D01*
X176945392Y-107130232D01*
X176471784Y-107430283D01*
X176416225Y-108338312D01*
X176390838Y-108849585D01*
X176371220Y-109427131D01*
X176360497Y-109971614D01*
X176359412Y-110143337D01*
X176325974Y-111521905D01*
X176230944Y-112798014D01*
X176076264Y-113955469D01*
X175863874Y-114978074D01*
X175717894Y-115493909D01*
X175443735Y-116124559D01*
X175060760Y-116638218D01*
X174579214Y-117021922D01*
X174456921Y-117089745D01*
X174064170Y-117227519D01*
X173660357Y-117261148D01*
X173299800Y-117190783D01*
X173110056Y-117085996D01*
X172913648Y-116896155D01*
X172752396Y-116652878D01*
X172620940Y-116336351D01*
X172513920Y-115926760D01*
X172425974Y-115404291D01*
X172351743Y-114749130D01*
X172295610Y-114075609D01*
X172260967Y-113648946D01*
X172225032Y-113276252D01*
X172191715Y-112993908D01*
X172164925Y-112838300D01*
X172161488Y-112827549D01*
X172021372Y-112689076D01*
X171733821Y-112591212D01*
X171316659Y-112537631D01*
X170787708Y-112532006D01*
X170736683Y-112533918D01*
X170344619Y-112557673D01*
X170065970Y-112608803D01*
X169879016Y-112713286D01*
X169762039Y-112897100D01*
X169693319Y-113186223D01*
X169651137Y-113606633D01*
X169634611Y-113852104D01*
X169585981Y-114462223D01*
X169520768Y-115054071D01*
X169443881Y-115596215D01*
X169360229Y-116057221D01*
X169274723Y-116405658D01*
X169208180Y-116582430D01*
X169058760Y-116797577D01*
X168853000Y-117014506D01*
X168821879Y-117041581D01*
X168483351Y-117224750D01*
X168095806Y-117268617D01*
X167684790Y-117185910D01*
X167275849Y-116989361D01*
X166894530Y-116691699D01*
X166566377Y-116305655D01*
X166316939Y-115843958D01*
X166292391Y-115781094D01*
X166135339Y-115325006D01*
X166001973Y-114850851D01*
X165889802Y-114338894D01*
X165796335Y-113769400D01*
X165719080Y-113122633D01*
X165655545Y-112378858D01*
X165603240Y-111518340D01*
X165559673Y-110521342D01*
X165534438Y-109777143D01*
X165512732Y-109094976D01*
X165493451Y-108562149D01*
X165474582Y-108158726D01*
X165454113Y-107864771D01*
X165430031Y-107660350D01*
X165400325Y-107525527D01*
X165362981Y-107440366D01*
X165315988Y-107384933D01*
X165290858Y-107364143D01*
X165141201Y-107251488D01*
X164901008Y-107073805D01*
X164616821Y-106865486D01*
X164554524Y-106820056D01*
X163965867Y-106324158D01*
X163360380Y-105689621D01*
X162758559Y-104942972D01*
X162180899Y-104110740D01*
X161647894Y-103219454D01*
X161379565Y-102710427D01*
X161159566Y-102254328D01*
X161023289Y-101922227D01*
X160966077Y-101693684D01*
X160983272Y-101548257D01*
X161070219Y-101465505D01*
X161093624Y-101455416D01*
X161275827Y-101453498D01*
X161576545Y-101527523D01*
X161969439Y-101665738D01*
X162428170Y-101856386D01*
X162926400Y-102087712D01*
X163437790Y-102347960D01*
X163936002Y-102625374D01*
X164394698Y-102908198D01*
X164489059Y-102970901D01*
X164852723Y-103204338D01*
X165105827Y-103328461D01*
X165269007Y-103341014D01*
X165362902Y-103239739D01*
X165408146Y-103022380D01*
X165418986Y-102869207D01*
X165427882Y-102674969D01*
X165442838Y-102334892D01*
X165462852Y-101872323D01*
X165486922Y-101310609D01*
X165514048Y-100673097D01*
X165543227Y-99983135D01*
X165566037Y-99441000D01*
X165617601Y-98325326D01*
X165672691Y-97365470D01*
X165732791Y-96547930D01*
X165799382Y-95859202D01*
X165873947Y-95285784D01*
X165957969Y-94814173D01*
X166052930Y-94430866D01*
X166146168Y-94157273D01*
X166313933Y-93802990D01*
X166474004Y-93613257D01*
X166632535Y-93583857D01*
X166795678Y-93710573D01*
X166796529Y-93711608D01*
X166891953Y-93848983D01*
X166976477Y-94027109D01*
X167059173Y-94274747D01*
X167149115Y-94620656D01*
X167255377Y-95093594D01*
X167302520Y-95315442D01*
X167464206Y-95971985D01*
X167642614Y-96490189D01*
X167833435Y-96859640D01*
X168026707Y-97066286D01*
X168104012Y-97103132D01*
X168223139Y-97132551D01*
X168401817Y-97155332D01*
X168657773Y-97172265D01*
X169008737Y-97184139D01*
X169472437Y-97191743D01*
X170066600Y-97195867D01*
X170808955Y-97197300D01*
X170969937Y-97197333D01*
X171726052Y-97196869D01*
X172331383Y-97194777D01*
X172804477Y-97190004D01*
X173163882Y-97181497D01*
X173428147Y-97168205D01*
X173615819Y-97149074D01*
X173745446Y-97123053D01*
X173835575Y-97089089D01*
X173904756Y-97046129D01*
X173926422Y-97029585D01*
X174078877Y-96871953D01*
X174214699Y-96641300D01*
X174342604Y-96314738D01*
X174471309Y-95869382D01*
X174609532Y-95282346D01*
X174632884Y-95174809D01*
X174730675Y-94755262D01*
X174834298Y-94368332D01*
X174930456Y-94060744D01*
X174997026Y-93895333D01*
X175159548Y-93667266D01*
X175324070Y-93600383D01*
X175486936Y-93686632D01*
X175644491Y-93917956D01*
X175793080Y-94286303D01*
X175929049Y-94783618D01*
X176048743Y-95401847D01*
X176148505Y-96132936D01*
X176188093Y-96520000D01*
X176219507Y-96919105D01*
X176253700Y-97453064D01*
X176289150Y-98087453D01*
X176324337Y-98787847D01*
X176357739Y-99519822D01*
X176387836Y-100248952D01*
X176413107Y-100940814D01*
X176432031Y-101560983D01*
X176443086Y-102075034D01*
X176445334Y-102342346D01*
X176451560Y-102787427D01*
X176473920Y-103088491D01*
X176517931Y-103270521D01*
X176589114Y-103358501D01*
X176674138Y-103377999D01*
X176795693Y-103333435D01*
X177019360Y-103213652D01*
X177307818Y-103039518D01*
X177490580Y-102921524D01*
X177994354Y-102607692D01*
X178533783Y-102304806D01*
X179079299Y-102026467D01*
X179601333Y-101786280D01*
X180070319Y-101597849D01*
X180456686Y-101474777D01*
X180730868Y-101430666D01*
X180731081Y-101430666D01*
X180875650Y-101460165D01*
X180928335Y-101582086D01*
X180932667Y-101684809D01*
X181358700Y-101684809D01*
X181370017Y-101458943D01*
X181263504Y-101198647D01*
X181031740Y-101048742D01*
X180727114Y-101007333D01*
X180389876Y-101053052D01*
X179943788Y-101181451D01*
X179419616Y-101379395D01*
X178848129Y-101633747D01*
X178260093Y-101931372D01*
X177686275Y-102259134D01*
X177452733Y-102405314D01*
X176893798Y-102765660D01*
X176835563Y-100849330D01*
X176787478Y-99468187D01*
X176731166Y-98248176D01*
X176665037Y-97181229D01*
X176587500Y-96259273D01*
X176496964Y-95474239D01*
X176391840Y-94818057D01*
X176270537Y-94282656D01*
X176131465Y-93859966D01*
X175973032Y-93541916D01*
X175793649Y-93320436D01*
X175591725Y-93187456D01*
X175365669Y-93134905D01*
X175314953Y-93133333D01*
X175039224Y-93188086D01*
G37*
X175039224Y-93188086D02*
X174808605Y-93361409D01*
X174613599Y-93666896D01*
X174444712Y-94118141D01*
X174335002Y-94536402D01*
X174189148Y-95155349D01*
X174070388Y-95630974D01*
X173971856Y-95985846D01*
X173886687Y-96242536D01*
X173808017Y-96423614D01*
X173728980Y-96551651D01*
X173717492Y-96566632D01*
X173554377Y-96773999D01*
X170942001Y-96774000D01*
X168329624Y-96774000D01*
X168167775Y-96568242D01*
X168079370Y-96398121D01*
X167974446Y-96109600D01*
X167869237Y-95750415D01*
X167815067Y-95531075D01*
X167657814Y-94868717D01*
X167522213Y-94352546D01*
X167401257Y-93961859D01*
X167287939Y-93675951D01*
X167175253Y-93474120D01*
X167079658Y-93358082D01*
X166792988Y-93163255D01*
X166497819Y-93135906D01*
X166204974Y-93275283D01*
X166042360Y-93430043D01*
X165901660Y-93618058D01*
X165776380Y-93850473D01*
X165665078Y-94138585D01*
X165566308Y-94493690D01*
X165478628Y-94927083D01*
X165400593Y-95450060D01*
X165330758Y-96073917D01*
X165267681Y-96809950D01*
X165209917Y-97669454D01*
X165156022Y-98663726D01*
X165104553Y-99804061D01*
X165054064Y-101101754D01*
X165051035Y-101184872D01*
X164993831Y-102759411D01*
X164560082Y-102466842D01*
X164075085Y-102164757D01*
X163535296Y-101870456D01*
X162973459Y-101597987D01*
X162422316Y-101361394D01*
X161914613Y-101174725D01*
X161483091Y-101052024D01*
X161160495Y-101007338D01*
X161157721Y-101007333D01*
X160834855Y-101062694D01*
X160630391Y-101234498D01*
X160536424Y-101531327D01*
X160528000Y-101690977D01*
X160572653Y-101931243D01*
X160697369Y-102284029D01*
X160888284Y-102720961D01*
X161131535Y-103213664D01*
X161413258Y-103733764D01*
X161719589Y-104252885D01*
X161972781Y-104648000D01*
X162253623Y-105033979D01*
X162609595Y-105471187D01*
X163012971Y-105930358D01*
X163436026Y-106382223D01*
X163851034Y-106797518D01*
X164230270Y-107146975D01*
X164546009Y-107401328D01*
X164642890Y-107466534D01*
X164850083Y-107610253D01*
X164962688Y-107752930D01*
X165020567Y-107960806D01*
X165044321Y-108133601D01*
X165066603Y-108403976D01*
X165085179Y-108788447D01*
X165097865Y-109231781D01*
X165102343Y-109601000D01*
X165128708Y-110943751D01*
X165196345Y-112183740D01*
X165303726Y-113309952D01*
X165449324Y-114311369D01*
X165631611Y-115176975D01*
X165849060Y-115895754D01*
X166036274Y-116335805D01*
X166244246Y-116641533D01*
X166556181Y-116970661D01*
X166921923Y-117276442D01*
X167291316Y-117512127D01*
X167307194Y-117520322D01*
X167704525Y-117656986D01*
X168152218Y-117708777D01*
X168582587Y-117673430D01*
X168884457Y-117573063D01*
X169192494Y-117341781D01*
X169473694Y-117003923D01*
X169674197Y-116627957D01*
X169762442Y-116324931D01*
X169849597Y-115887515D01*
X169930463Y-115350607D01*
X169999845Y-114749101D01*
X170052543Y-114117891D01*
X170056072Y-114064213D01*
X170089257Y-113626036D01*
X170125662Y-113330083D01*
X170170536Y-113149259D01*
X170229126Y-113056467D01*
X170254585Y-113039396D01*
X170388830Y-113012447D01*
X170632523Y-112995170D01*
X170935529Y-112987575D01*
X171247714Y-112989671D01*
X171518943Y-113001469D01*
X171699084Y-113022977D01*
X171741335Y-113039112D01*
X171760964Y-113132509D01*
X171789021Y-113362726D01*
X171822120Y-113697663D01*
X171856873Y-114105219D01*
X171865611Y-114217146D01*
X171930330Y-114969819D01*
X172000407Y-115577239D01*
X172081253Y-116063487D01*
X172178277Y-116452643D01*
X172296890Y-116768788D01*
X172442502Y-117036002D01*
X172526242Y-117157589D01*
X172859746Y-117474242D01*
X173287797Y-117668734D01*
X173778016Y-117730990D01*
X174197791Y-117677716D01*
X174748790Y-117460458D01*
X175242047Y-117094116D01*
X175664080Y-116593053D01*
X176001405Y-115971631D01*
X176136695Y-115612333D01*
X176287658Y-115106737D01*
X176413759Y-114579217D01*
X176517805Y-114006932D01*
X176602602Y-113367038D01*
X176670958Y-112636694D01*
X176725678Y-111793057D01*
X176769572Y-110813285D01*
X176786446Y-110324778D01*
X176809001Y-109680715D01*
X176833357Y-109092192D01*
X176858347Y-108580273D01*
X176882800Y-108166025D01*
X176905549Y-107870515D01*
X176925423Y-107714807D01*
X176932289Y-107696402D01*
X177023608Y-107626781D01*
X177217719Y-107480285D01*
X177481905Y-107281574D01*
X177661675Y-107146618D01*
X178364765Y-106540907D01*
X179063281Y-105788224D01*
X179740265Y-104910479D01*
X180378759Y-103929580D01*
X180939190Y-102912333D01*
X181207748Y-102314771D01*
X181351394Y-101830646D01*
X181358700Y-101684809D01*
X180932667Y-101684809D01*
X180888189Y-101891368D01*
X180764488Y-102210664D01*
X180576158Y-102614469D01*
X180337799Y-103074555D01*
X180064006Y-103562693D01*
X179769376Y-104050654D01*
X179481377Y-104491412D01*
X179121804Y-104977250D01*
X178696247Y-105487578D01*
X178236209Y-105989614D01*
X177773196Y-106450575D01*
X177338712Y-106837679D01*
X176964263Y-107118144D01*
X176945392Y-107130232D01*
X176471784Y-107430283D01*
X176416225Y-108338312D01*
X176390838Y-108849585D01*
X176371220Y-109427131D01*
X176360497Y-109971614D01*
X176359412Y-110143337D01*
X176325974Y-111521905D01*
X176230944Y-112798014D01*
X176076264Y-113955469D01*
X175863874Y-114978074D01*
X175717894Y-115493909D01*
X175443735Y-116124559D01*
X175060760Y-116638218D01*
X174579214Y-117021922D01*
X174456921Y-117089745D01*
X174064170Y-117227519D01*
X173660357Y-117261148D01*
X173299800Y-117190783D01*
X173110056Y-117085996D01*
X172913648Y-116896155D01*
X172752396Y-116652878D01*
X172620940Y-116336351D01*
X172513920Y-115926760D01*
X172425974Y-115404291D01*
X172351743Y-114749130D01*
X172295610Y-114075609D01*
X172260967Y-113648946D01*
X172225032Y-113276252D01*
X172191715Y-112993908D01*
X172164925Y-112838300D01*
X172161488Y-112827549D01*
X172021372Y-112689076D01*
X171733821Y-112591212D01*
X171316659Y-112537631D01*
X170787708Y-112532006D01*
X170736683Y-112533918D01*
X170344619Y-112557673D01*
X170065970Y-112608803D01*
X169879016Y-112713286D01*
X169762039Y-112897100D01*
X169693319Y-113186223D01*
X169651137Y-113606633D01*
X169634611Y-113852104D01*
X169585981Y-114462223D01*
X169520768Y-115054071D01*
X169443881Y-115596215D01*
X169360229Y-116057221D01*
X169274723Y-116405658D01*
X169208180Y-116582430D01*
X169058760Y-116797577D01*
X168853000Y-117014506D01*
X168821879Y-117041581D01*
X168483351Y-117224750D01*
X168095806Y-117268617D01*
X167684790Y-117185910D01*
X167275849Y-116989361D01*
X166894530Y-116691699D01*
X166566377Y-116305655D01*
X166316939Y-115843958D01*
X166292391Y-115781094D01*
X166135339Y-115325006D01*
X166001973Y-114850851D01*
X165889802Y-114338894D01*
X165796335Y-113769400D01*
X165719080Y-113122633D01*
X165655545Y-112378858D01*
X165603240Y-111518340D01*
X165559673Y-110521342D01*
X165534438Y-109777143D01*
X165512732Y-109094976D01*
X165493451Y-108562149D01*
X165474582Y-108158726D01*
X165454113Y-107864771D01*
X165430031Y-107660350D01*
X165400325Y-107525527D01*
X165362981Y-107440366D01*
X165315988Y-107384933D01*
X165290858Y-107364143D01*
X165141201Y-107251488D01*
X164901008Y-107073805D01*
X164616821Y-106865486D01*
X164554524Y-106820056D01*
X163965867Y-106324158D01*
X163360380Y-105689621D01*
X162758559Y-104942972D01*
X162180899Y-104110740D01*
X161647894Y-103219454D01*
X161379565Y-102710427D01*
X161159566Y-102254328D01*
X161023289Y-101922227D01*
X160966077Y-101693684D01*
X160983272Y-101548257D01*
X161070219Y-101465505D01*
X161093624Y-101455416D01*
X161275827Y-101453498D01*
X161576545Y-101527523D01*
X161969439Y-101665738D01*
X162428170Y-101856386D01*
X162926400Y-102087712D01*
X163437790Y-102347960D01*
X163936002Y-102625374D01*
X164394698Y-102908198D01*
X164489059Y-102970901D01*
X164852723Y-103204338D01*
X165105827Y-103328461D01*
X165269007Y-103341014D01*
X165362902Y-103239739D01*
X165408146Y-103022380D01*
X165418986Y-102869207D01*
X165427882Y-102674969D01*
X165442838Y-102334892D01*
X165462852Y-101872323D01*
X165486922Y-101310609D01*
X165514048Y-100673097D01*
X165543227Y-99983135D01*
X165566037Y-99441000D01*
X165617601Y-98325326D01*
X165672691Y-97365470D01*
X165732791Y-96547930D01*
X165799382Y-95859202D01*
X165873947Y-95285784D01*
X165957969Y-94814173D01*
X166052930Y-94430866D01*
X166146168Y-94157273D01*
X166313933Y-93802990D01*
X166474004Y-93613257D01*
X166632535Y-93583857D01*
X166795678Y-93710573D01*
X166796529Y-93711608D01*
X166891953Y-93848983D01*
X166976477Y-94027109D01*
X167059173Y-94274747D01*
X167149115Y-94620656D01*
X167255377Y-95093594D01*
X167302520Y-95315442D01*
X167464206Y-95971985D01*
X167642614Y-96490189D01*
X167833435Y-96859640D01*
X168026707Y-97066286D01*
X168104012Y-97103132D01*
X168223139Y-97132551D01*
X168401817Y-97155332D01*
X168657773Y-97172265D01*
X169008737Y-97184139D01*
X169472437Y-97191743D01*
X170066600Y-97195867D01*
X170808955Y-97197300D01*
X170969937Y-97197333D01*
X171726052Y-97196869D01*
X172331383Y-97194777D01*
X172804477Y-97190004D01*
X173163882Y-97181497D01*
X173428147Y-97168205D01*
X173615819Y-97149074D01*
X173745446Y-97123053D01*
X173835575Y-97089089D01*
X173904756Y-97046129D01*
X173926422Y-97029585D01*
X174078877Y-96871953D01*
X174214699Y-96641300D01*
X174342604Y-96314738D01*
X174471309Y-95869382D01*
X174609532Y-95282346D01*
X174632884Y-95174809D01*
X174730675Y-94755262D01*
X174834298Y-94368332D01*
X174930456Y-94060744D01*
X174997026Y-93895333D01*
X175159548Y-93667266D01*
X175324070Y-93600383D01*
X175486936Y-93686632D01*
X175644491Y-93917956D01*
X175793080Y-94286303D01*
X175929049Y-94783618D01*
X176048743Y-95401847D01*
X176148505Y-96132936D01*
X176188093Y-96520000D01*
X176219507Y-96919105D01*
X176253700Y-97453064D01*
X176289150Y-98087453D01*
X176324337Y-98787847D01*
X176357739Y-99519822D01*
X176387836Y-100248952D01*
X176413107Y-100940814D01*
X176432031Y-101560983D01*
X176443086Y-102075034D01*
X176445334Y-102342346D01*
X176451560Y-102787427D01*
X176473920Y-103088491D01*
X176517931Y-103270521D01*
X176589114Y-103358501D01*
X176674138Y-103377999D01*
X176795693Y-103333435D01*
X177019360Y-103213652D01*
X177307818Y-103039518D01*
X177490580Y-102921524D01*
X177994354Y-102607692D01*
X178533783Y-102304806D01*
X179079299Y-102026467D01*
X179601333Y-101786280D01*
X180070319Y-101597849D01*
X180456686Y-101474777D01*
X180730868Y-101430666D01*
X180731081Y-101430666D01*
X180875650Y-101460165D01*
X180928335Y-101582086D01*
X180932667Y-101684809D01*
X181358700Y-101684809D01*
X181370017Y-101458943D01*
X181263504Y-101198647D01*
X181031740Y-101048742D01*
X180727114Y-101007333D01*
X180389876Y-101053052D01*
X179943788Y-101181451D01*
X179419616Y-101379395D01*
X178848129Y-101633747D01*
X178260093Y-101931372D01*
X177686275Y-102259134D01*
X177452733Y-102405314D01*
X176893798Y-102765660D01*
X176835563Y-100849330D01*
X176787478Y-99468187D01*
X176731166Y-98248176D01*
X176665037Y-97181229D01*
X176587500Y-96259273D01*
X176496964Y-95474239D01*
X176391840Y-94818057D01*
X176270537Y-94282656D01*
X176131465Y-93859966D01*
X175973032Y-93541916D01*
X175793649Y-93320436D01*
X175591725Y-93187456D01*
X175365669Y-93134905D01*
X175314953Y-93133333D01*
X175039224Y-93188086D01*
M02*
