G04 #@! TF.GenerationSoftware,KiCad,Pcbnew,5.1.5-52549c5~84~ubuntu18.04.1*
G04 #@! TF.CreationDate,2020-01-01T22:03:35+01:00*
G04 #@! TF.ProjectId,NOKOlino,4e4f4b4f-6c69-46e6-9f2e-6b696361645f,3.0*
G04 #@! TF.SameCoordinates,Original*
G04 #@! TF.FileFunction,Soldermask,Top*
G04 #@! TF.FilePolarity,Negative*
%FSLAX46Y46*%
G04 Gerber Fmt 4.6, Leading zero omitted, Abs format (unit mm)*
G04 Created by KiCad (PCBNEW 5.1.5-52549c5~84~ubuntu18.04.1) date 2020-01-01 22:03:35*
%MOMM*%
%LPD*%
G04 APERTURE LIST*
%ADD10C,0.100000*%
G04 APERTURE END LIST*
D10*
G36*
X182100026Y-144846115D02*
G01*
X182318411Y-144936573D01*
X182318413Y-144936574D01*
X182514955Y-145067899D01*
X182682101Y-145235045D01*
X182775343Y-145374591D01*
X182813427Y-145431589D01*
X182903885Y-145649974D01*
X182950000Y-145881809D01*
X182950000Y-146118191D01*
X182903885Y-146350026D01*
X182859823Y-146456400D01*
X182813426Y-146568413D01*
X182682101Y-146764955D01*
X182514955Y-146932101D01*
X182318413Y-147063426D01*
X182318412Y-147063427D01*
X182318411Y-147063427D01*
X182100026Y-147153885D01*
X181868191Y-147200000D01*
X181631809Y-147200000D01*
X181399974Y-147153885D01*
X181181589Y-147063427D01*
X181181588Y-147063427D01*
X181181587Y-147063426D01*
X180985045Y-146932101D01*
X180817899Y-146764955D01*
X180686574Y-146568413D01*
X180640177Y-146456400D01*
X180596115Y-146350026D01*
X180550000Y-146118191D01*
X180550000Y-145881809D01*
X180596115Y-145649974D01*
X180686573Y-145431589D01*
X180724658Y-145374591D01*
X180817899Y-145235045D01*
X180985045Y-145067899D01*
X181181587Y-144936574D01*
X181181589Y-144936573D01*
X181399974Y-144846115D01*
X181631809Y-144800000D01*
X181868191Y-144800000D01*
X182100026Y-144846115D01*
G37*
G36*
X177600026Y-144846115D02*
G01*
X177818411Y-144936573D01*
X177818413Y-144936574D01*
X178014955Y-145067899D01*
X178182101Y-145235045D01*
X178275343Y-145374591D01*
X178313427Y-145431589D01*
X178403885Y-145649974D01*
X178450000Y-145881809D01*
X178450000Y-146118191D01*
X178403885Y-146350026D01*
X178359823Y-146456400D01*
X178313426Y-146568413D01*
X178182101Y-146764955D01*
X178014955Y-146932101D01*
X177818413Y-147063426D01*
X177818412Y-147063427D01*
X177818411Y-147063427D01*
X177600026Y-147153885D01*
X177368191Y-147200000D01*
X177131809Y-147200000D01*
X176899974Y-147153885D01*
X176681589Y-147063427D01*
X176681588Y-147063427D01*
X176681587Y-147063426D01*
X176485045Y-146932101D01*
X176317899Y-146764955D01*
X176186574Y-146568413D01*
X176140177Y-146456400D01*
X176096115Y-146350026D01*
X176050000Y-146118191D01*
X176050000Y-145881809D01*
X176096115Y-145649974D01*
X176186573Y-145431589D01*
X176224658Y-145374591D01*
X176317899Y-145235045D01*
X176485045Y-145067899D01*
X176681587Y-144936574D01*
X176681589Y-144936573D01*
X176899974Y-144846115D01*
X177131809Y-144800000D01*
X177368191Y-144800000D01*
X177600026Y-144846115D01*
G37*
G36*
X135100026Y-144846115D02*
G01*
X135318411Y-144936573D01*
X135318413Y-144936574D01*
X135514955Y-145067899D01*
X135682101Y-145235045D01*
X135775343Y-145374591D01*
X135813427Y-145431589D01*
X135903885Y-145649974D01*
X135950000Y-145881809D01*
X135950000Y-146118191D01*
X135903885Y-146350026D01*
X135859823Y-146456400D01*
X135813426Y-146568413D01*
X135682101Y-146764955D01*
X135514955Y-146932101D01*
X135318413Y-147063426D01*
X135318412Y-147063427D01*
X135318411Y-147063427D01*
X135100026Y-147153885D01*
X134868191Y-147200000D01*
X134631809Y-147200000D01*
X134399974Y-147153885D01*
X134181589Y-147063427D01*
X134181588Y-147063427D01*
X134181587Y-147063426D01*
X133985045Y-146932101D01*
X133817899Y-146764955D01*
X133686574Y-146568413D01*
X133640177Y-146456400D01*
X133596115Y-146350026D01*
X133550000Y-146118191D01*
X133550000Y-145881809D01*
X133596115Y-145649974D01*
X133686573Y-145431589D01*
X133724658Y-145374591D01*
X133817899Y-145235045D01*
X133985045Y-145067899D01*
X134181587Y-144936574D01*
X134181589Y-144936573D01*
X134399974Y-144846115D01*
X134631809Y-144800000D01*
X134868191Y-144800000D01*
X135100026Y-144846115D01*
G37*
G36*
X139600026Y-144846115D02*
G01*
X139818411Y-144936573D01*
X139818413Y-144936574D01*
X140014955Y-145067899D01*
X140182101Y-145235045D01*
X140275343Y-145374591D01*
X140313427Y-145431589D01*
X140403885Y-145649974D01*
X140450000Y-145881809D01*
X140450000Y-146118191D01*
X140403885Y-146350026D01*
X140359823Y-146456400D01*
X140313426Y-146568413D01*
X140182101Y-146764955D01*
X140014955Y-146932101D01*
X139818413Y-147063426D01*
X139818412Y-147063427D01*
X139818411Y-147063427D01*
X139600026Y-147153885D01*
X139368191Y-147200000D01*
X139131809Y-147200000D01*
X138899974Y-147153885D01*
X138681589Y-147063427D01*
X138681588Y-147063427D01*
X138681587Y-147063426D01*
X138485045Y-146932101D01*
X138317899Y-146764955D01*
X138186574Y-146568413D01*
X138140177Y-146456400D01*
X138096115Y-146350026D01*
X138050000Y-146118191D01*
X138050000Y-145881809D01*
X138096115Y-145649974D01*
X138186573Y-145431589D01*
X138224658Y-145374591D01*
X138317899Y-145235045D01*
X138485045Y-145067899D01*
X138681587Y-144936574D01*
X138681589Y-144936573D01*
X138899974Y-144846115D01*
X139131809Y-144800000D01*
X139368191Y-144800000D01*
X139600026Y-144846115D01*
G37*
G36*
X170930026Y-144102515D02*
G01*
X171148411Y-144192973D01*
X171148413Y-144192974D01*
X171290996Y-144288245D01*
X171344955Y-144324299D01*
X171512101Y-144491445D01*
X171643427Y-144687989D01*
X171733885Y-144906374D01*
X171780000Y-145138209D01*
X171780000Y-145374591D01*
X171733885Y-145606426D01*
X171646184Y-145818155D01*
X171643426Y-145824813D01*
X171512101Y-146021355D01*
X171344955Y-146188501D01*
X171148413Y-146319826D01*
X171148412Y-146319827D01*
X171148411Y-146319827D01*
X170930026Y-146410285D01*
X170698191Y-146456400D01*
X170461809Y-146456400D01*
X170229974Y-146410285D01*
X170011589Y-146319827D01*
X170011588Y-146319827D01*
X170011587Y-146319826D01*
X169815045Y-146188501D01*
X169647899Y-146021355D01*
X169516574Y-145824813D01*
X169513816Y-145818155D01*
X169426115Y-145606426D01*
X169380000Y-145374591D01*
X169380000Y-145138209D01*
X169426115Y-144906374D01*
X169516573Y-144687989D01*
X169647899Y-144491445D01*
X169815045Y-144324299D01*
X169869004Y-144288245D01*
X170011587Y-144192974D01*
X170011589Y-144192973D01*
X170229974Y-144102515D01*
X170461809Y-144056400D01*
X170698191Y-144056400D01*
X170930026Y-144102515D01*
G37*
G36*
X148070026Y-143899315D02*
G01*
X148288411Y-143989773D01*
X148288413Y-143989774D01*
X148484955Y-144121099D01*
X148652101Y-144288245D01*
X148783427Y-144484789D01*
X148873885Y-144703174D01*
X148920000Y-144935009D01*
X148920000Y-145171391D01*
X148873885Y-145403226D01*
X148789717Y-145606426D01*
X148783426Y-145621613D01*
X148652101Y-145818155D01*
X148484955Y-145985301D01*
X148288413Y-146116626D01*
X148288412Y-146116627D01*
X148288411Y-146116627D01*
X148070026Y-146207085D01*
X147838191Y-146253200D01*
X147601809Y-146253200D01*
X147369974Y-146207085D01*
X147151589Y-146116627D01*
X147151588Y-146116627D01*
X147151587Y-146116626D01*
X146955045Y-145985301D01*
X146787899Y-145818155D01*
X146656574Y-145621613D01*
X146650283Y-145606426D01*
X146566115Y-145403226D01*
X146520000Y-145171391D01*
X146520000Y-144935009D01*
X146566115Y-144703174D01*
X146656573Y-144484789D01*
X146787899Y-144288245D01*
X146955045Y-144121099D01*
X147151587Y-143989774D01*
X147151589Y-143989773D01*
X147369974Y-143899315D01*
X147601809Y-143853200D01*
X147838191Y-143853200D01*
X148070026Y-143899315D01*
G37*
G36*
X148070026Y-141156115D02*
G01*
X148288411Y-141246573D01*
X148288413Y-141246574D01*
X148484955Y-141377899D01*
X148652101Y-141545045D01*
X148783427Y-141741589D01*
X148873885Y-141959974D01*
X148920000Y-142191809D01*
X148920000Y-142428191D01*
X148873885Y-142660026D01*
X148783427Y-142878411D01*
X148783426Y-142878413D01*
X148652101Y-143074955D01*
X148484955Y-143242101D01*
X148288413Y-143373426D01*
X148288412Y-143373427D01*
X148288411Y-143373427D01*
X148070026Y-143463885D01*
X147838191Y-143510000D01*
X147601809Y-143510000D01*
X147369974Y-143463885D01*
X147151589Y-143373427D01*
X147151588Y-143373427D01*
X147151587Y-143373426D01*
X146955045Y-143242101D01*
X146787899Y-143074955D01*
X146656574Y-142878413D01*
X146656573Y-142878411D01*
X146566115Y-142660026D01*
X146520000Y-142428191D01*
X146520000Y-142191809D01*
X146566115Y-141959974D01*
X146656573Y-141741589D01*
X146787899Y-141545045D01*
X146955045Y-141377899D01*
X147151587Y-141246574D01*
X147151589Y-141246573D01*
X147369974Y-141156115D01*
X147601809Y-141110000D01*
X147838191Y-141110000D01*
X148070026Y-141156115D01*
G37*
G36*
X182100026Y-138346115D02*
G01*
X182318411Y-138436573D01*
X182318413Y-138436574D01*
X182514955Y-138567899D01*
X182682101Y-138735045D01*
X182813427Y-138931589D01*
X182903885Y-139149974D01*
X182950000Y-139381809D01*
X182950000Y-139618191D01*
X182903885Y-139850026D01*
X182813427Y-140068411D01*
X182813426Y-140068413D01*
X182682101Y-140264955D01*
X182514955Y-140432101D01*
X182318413Y-140563426D01*
X182318412Y-140563427D01*
X182318411Y-140563427D01*
X182100026Y-140653885D01*
X181868191Y-140700000D01*
X181631809Y-140700000D01*
X181399974Y-140653885D01*
X181181589Y-140563427D01*
X181181588Y-140563427D01*
X181181587Y-140563426D01*
X180985045Y-140432101D01*
X180817899Y-140264955D01*
X180686574Y-140068413D01*
X180686573Y-140068411D01*
X180596115Y-139850026D01*
X180550000Y-139618191D01*
X180550000Y-139381809D01*
X180596115Y-139149974D01*
X180686573Y-138931589D01*
X180817899Y-138735045D01*
X180985045Y-138567899D01*
X181181587Y-138436574D01*
X181181589Y-138436573D01*
X181399974Y-138346115D01*
X181631809Y-138300000D01*
X181868191Y-138300000D01*
X182100026Y-138346115D01*
G37*
G36*
X177600026Y-138346115D02*
G01*
X177818411Y-138436573D01*
X177818413Y-138436574D01*
X178014955Y-138567899D01*
X178182101Y-138735045D01*
X178313427Y-138931589D01*
X178403885Y-139149974D01*
X178450000Y-139381809D01*
X178450000Y-139618191D01*
X178403885Y-139850026D01*
X178313427Y-140068411D01*
X178313426Y-140068413D01*
X178182101Y-140264955D01*
X178014955Y-140432101D01*
X177818413Y-140563426D01*
X177818412Y-140563427D01*
X177818411Y-140563427D01*
X177600026Y-140653885D01*
X177368191Y-140700000D01*
X177131809Y-140700000D01*
X176899974Y-140653885D01*
X176681589Y-140563427D01*
X176681588Y-140563427D01*
X176681587Y-140563426D01*
X176485045Y-140432101D01*
X176317899Y-140264955D01*
X176186574Y-140068413D01*
X176186573Y-140068411D01*
X176096115Y-139850026D01*
X176050000Y-139618191D01*
X176050000Y-139381809D01*
X176096115Y-139149974D01*
X176186573Y-138931589D01*
X176317899Y-138735045D01*
X176485045Y-138567899D01*
X176681587Y-138436574D01*
X176681589Y-138436573D01*
X176899974Y-138346115D01*
X177131809Y-138300000D01*
X177368191Y-138300000D01*
X177600026Y-138346115D01*
G37*
G36*
X139600026Y-138346115D02*
G01*
X139818411Y-138436573D01*
X139818413Y-138436574D01*
X140014955Y-138567899D01*
X140182101Y-138735045D01*
X140313427Y-138931589D01*
X140403885Y-139149974D01*
X140450000Y-139381809D01*
X140450000Y-139618191D01*
X140403885Y-139850026D01*
X140313427Y-140068411D01*
X140313426Y-140068413D01*
X140182101Y-140264955D01*
X140014955Y-140432101D01*
X139818413Y-140563426D01*
X139818412Y-140563427D01*
X139818411Y-140563427D01*
X139600026Y-140653885D01*
X139368191Y-140700000D01*
X139131809Y-140700000D01*
X138899974Y-140653885D01*
X138681589Y-140563427D01*
X138681588Y-140563427D01*
X138681587Y-140563426D01*
X138485045Y-140432101D01*
X138317899Y-140264955D01*
X138186574Y-140068413D01*
X138186573Y-140068411D01*
X138096115Y-139850026D01*
X138050000Y-139618191D01*
X138050000Y-139381809D01*
X138096115Y-139149974D01*
X138186573Y-138931589D01*
X138317899Y-138735045D01*
X138485045Y-138567899D01*
X138681587Y-138436574D01*
X138681589Y-138436573D01*
X138899974Y-138346115D01*
X139131809Y-138300000D01*
X139368191Y-138300000D01*
X139600026Y-138346115D01*
G37*
G36*
X135100026Y-138346115D02*
G01*
X135318411Y-138436573D01*
X135318413Y-138436574D01*
X135514955Y-138567899D01*
X135682101Y-138735045D01*
X135813427Y-138931589D01*
X135903885Y-139149974D01*
X135950000Y-139381809D01*
X135950000Y-139618191D01*
X135903885Y-139850026D01*
X135813427Y-140068411D01*
X135813426Y-140068413D01*
X135682101Y-140264955D01*
X135514955Y-140432101D01*
X135318413Y-140563426D01*
X135318412Y-140563427D01*
X135318411Y-140563427D01*
X135100026Y-140653885D01*
X134868191Y-140700000D01*
X134631809Y-140700000D01*
X134399974Y-140653885D01*
X134181589Y-140563427D01*
X134181588Y-140563427D01*
X134181587Y-140563426D01*
X133985045Y-140432101D01*
X133817899Y-140264955D01*
X133686574Y-140068413D01*
X133686573Y-140068411D01*
X133596115Y-139850026D01*
X133550000Y-139618191D01*
X133550000Y-139381809D01*
X133596115Y-139149974D01*
X133686573Y-138931589D01*
X133817899Y-138735045D01*
X133985045Y-138567899D01*
X134181587Y-138436574D01*
X134181589Y-138436573D01*
X134399974Y-138346115D01*
X134631809Y-138300000D01*
X134868191Y-138300000D01*
X135100026Y-138346115D01*
G37*
G36*
X144200000Y-137100000D02*
G01*
X141800000Y-137100000D01*
X141800000Y-134900000D01*
X144200000Y-134900000D01*
X144200000Y-137100000D01*
G37*
G36*
X135614837Y-134907958D02*
G01*
X135695638Y-134915916D01*
X135849034Y-134962449D01*
X135902992Y-134978817D01*
X136094084Y-135080957D01*
X136261581Y-135218419D01*
X136399043Y-135385916D01*
X136501183Y-135577008D01*
X136501184Y-135577012D01*
X136564084Y-135784362D01*
X136585322Y-136000000D01*
X136564084Y-136215638D01*
X136517551Y-136369034D01*
X136501183Y-136422992D01*
X136399043Y-136614084D01*
X136261581Y-136781581D01*
X136094084Y-136919043D01*
X135902992Y-137021183D01*
X135849034Y-137037551D01*
X135695638Y-137084084D01*
X135614837Y-137092042D01*
X135534038Y-137100000D01*
X135225962Y-137100000D01*
X135145163Y-137092042D01*
X135064362Y-137084084D01*
X134910966Y-137037551D01*
X134857008Y-137021183D01*
X134665916Y-136919043D01*
X134498419Y-136781581D01*
X134360957Y-136614084D01*
X134258817Y-136422992D01*
X134242449Y-136369034D01*
X134195916Y-136215638D01*
X134174678Y-136000000D01*
X134195916Y-135784362D01*
X134258816Y-135577012D01*
X134258817Y-135577008D01*
X134360957Y-135385916D01*
X134498419Y-135218419D01*
X134665916Y-135080957D01*
X134857008Y-134978817D01*
X134910966Y-134962449D01*
X135064362Y-134915916D01*
X135145163Y-134907958D01*
X135225962Y-134900000D01*
X135534038Y-134900000D01*
X135614837Y-134907958D01*
G37*
G36*
X148070026Y-133536115D02*
G01*
X148288411Y-133626573D01*
X148288413Y-133626574D01*
X148484955Y-133757899D01*
X148652101Y-133925045D01*
X148751686Y-134074084D01*
X148783427Y-134121589D01*
X148873885Y-134339974D01*
X148920000Y-134571809D01*
X148920000Y-134808191D01*
X148873885Y-135040026D01*
X148856930Y-135080958D01*
X148783426Y-135258413D01*
X148652101Y-135454955D01*
X148484955Y-135622101D01*
X148288413Y-135753426D01*
X148288412Y-135753427D01*
X148288411Y-135753427D01*
X148070026Y-135843885D01*
X147838191Y-135890000D01*
X147601809Y-135890000D01*
X147369974Y-135843885D01*
X147151589Y-135753427D01*
X147151588Y-135753427D01*
X147151587Y-135753426D01*
X146955045Y-135622101D01*
X146787899Y-135454955D01*
X146656574Y-135258413D01*
X146583070Y-135080958D01*
X146566115Y-135040026D01*
X146520000Y-134808191D01*
X146520000Y-134571809D01*
X146566115Y-134339974D01*
X146656573Y-134121589D01*
X146688315Y-134074084D01*
X146787899Y-133925045D01*
X146955045Y-133757899D01*
X147151587Y-133626574D01*
X147151589Y-133626573D01*
X147369974Y-133536115D01*
X147601809Y-133490000D01*
X147838191Y-133490000D01*
X148070026Y-133536115D01*
G37*
G36*
X135614837Y-132367958D02*
G01*
X135695638Y-132375916D01*
X135849034Y-132422449D01*
X135902992Y-132438817D01*
X136094084Y-132540957D01*
X136261581Y-132678419D01*
X136399043Y-132845916D01*
X136501183Y-133037008D01*
X136501184Y-133037012D01*
X136564084Y-133244362D01*
X136585322Y-133460000D01*
X136564084Y-133675638D01*
X136539130Y-133757899D01*
X136501183Y-133882992D01*
X136399043Y-134074084D01*
X136261581Y-134241581D01*
X136094084Y-134379043D01*
X135902992Y-134481183D01*
X135849034Y-134497551D01*
X135695638Y-134544084D01*
X135614837Y-134552042D01*
X135534038Y-134560000D01*
X135225962Y-134560000D01*
X135145163Y-134552042D01*
X135064362Y-134544084D01*
X134910966Y-134497551D01*
X134857008Y-134481183D01*
X134665916Y-134379043D01*
X134498419Y-134241581D01*
X134360957Y-134074084D01*
X134258817Y-133882992D01*
X134220870Y-133757899D01*
X134195916Y-133675638D01*
X134174678Y-133460000D01*
X134195916Y-133244362D01*
X134258816Y-133037012D01*
X134258817Y-133037008D01*
X134360957Y-132845916D01*
X134498419Y-132678419D01*
X134665916Y-132540957D01*
X134857008Y-132438817D01*
X134910966Y-132422449D01*
X135064362Y-132375916D01*
X135145163Y-132367958D01*
X135225962Y-132360000D01*
X135534038Y-132360000D01*
X135614837Y-132367958D01*
G37*
G36*
X143234837Y-132367958D02*
G01*
X143315638Y-132375916D01*
X143469034Y-132422449D01*
X143522992Y-132438817D01*
X143714084Y-132540957D01*
X143881581Y-132678419D01*
X144019043Y-132845916D01*
X144121183Y-133037008D01*
X144121184Y-133037012D01*
X144184084Y-133244362D01*
X144205322Y-133460000D01*
X144184084Y-133675638D01*
X144159130Y-133757899D01*
X144121183Y-133882992D01*
X144019043Y-134074084D01*
X143881581Y-134241581D01*
X143714084Y-134379043D01*
X143522992Y-134481183D01*
X143469034Y-134497551D01*
X143315638Y-134544084D01*
X143234837Y-134552042D01*
X143154038Y-134560000D01*
X142845962Y-134560000D01*
X142765163Y-134552042D01*
X142684362Y-134544084D01*
X142530966Y-134497551D01*
X142477008Y-134481183D01*
X142285916Y-134379043D01*
X142118419Y-134241581D01*
X141980957Y-134074084D01*
X141878817Y-133882992D01*
X141840870Y-133757899D01*
X141815916Y-133675638D01*
X141794678Y-133460000D01*
X141815916Y-133244362D01*
X141878816Y-133037012D01*
X141878817Y-133037008D01*
X141980957Y-132845916D01*
X142118419Y-132678419D01*
X142285916Y-132540957D01*
X142477008Y-132438817D01*
X142530966Y-132422449D01*
X142684362Y-132375916D01*
X142765163Y-132367958D01*
X142845962Y-132360000D01*
X143154038Y-132360000D01*
X143234837Y-132367958D01*
G37*
G36*
X148070026Y-130792915D02*
G01*
X148288411Y-130883373D01*
X148288413Y-130883374D01*
X148430996Y-130978645D01*
X148484955Y-131014699D01*
X148652101Y-131181845D01*
X148783427Y-131378389D01*
X148873885Y-131596774D01*
X148920000Y-131828609D01*
X148920000Y-132064991D01*
X148873885Y-132296826D01*
X148815071Y-132438816D01*
X148783426Y-132515213D01*
X148652101Y-132711755D01*
X148484955Y-132878901D01*
X148288413Y-133010226D01*
X148288412Y-133010227D01*
X148288411Y-133010227D01*
X148070026Y-133100685D01*
X147838191Y-133146800D01*
X147601809Y-133146800D01*
X147369974Y-133100685D01*
X147151589Y-133010227D01*
X147151588Y-133010227D01*
X147151587Y-133010226D01*
X146955045Y-132878901D01*
X146787899Y-132711755D01*
X146656574Y-132515213D01*
X146624929Y-132438816D01*
X146566115Y-132296826D01*
X146520000Y-132064991D01*
X146520000Y-131828609D01*
X146566115Y-131596774D01*
X146656573Y-131378389D01*
X146787899Y-131181845D01*
X146955045Y-131014699D01*
X147009004Y-130978645D01*
X147151587Y-130883374D01*
X147151589Y-130883373D01*
X147369974Y-130792915D01*
X147601809Y-130746800D01*
X147838191Y-130746800D01*
X148070026Y-130792915D01*
G37*
G36*
X170930026Y-130589715D02*
G01*
X171148411Y-130680173D01*
X171148413Y-130680174D01*
X171344955Y-130811499D01*
X171512101Y-130978645D01*
X171643427Y-131175189D01*
X171733885Y-131393574D01*
X171780000Y-131625409D01*
X171780000Y-131861791D01*
X171733885Y-132093626D01*
X171649717Y-132296826D01*
X171643426Y-132312013D01*
X171512101Y-132508555D01*
X171344955Y-132675701D01*
X171148413Y-132807026D01*
X171148412Y-132807027D01*
X171148411Y-132807027D01*
X170930026Y-132897485D01*
X170698191Y-132943600D01*
X170461809Y-132943600D01*
X170229974Y-132897485D01*
X170011589Y-132807027D01*
X170011588Y-132807027D01*
X170011587Y-132807026D01*
X169815045Y-132675701D01*
X169647899Y-132508555D01*
X169516574Y-132312013D01*
X169510283Y-132296826D01*
X169426115Y-132093626D01*
X169380000Y-131861791D01*
X169380000Y-131625409D01*
X169426115Y-131393574D01*
X169516573Y-131175189D01*
X169647899Y-130978645D01*
X169815045Y-130811499D01*
X170011587Y-130680174D01*
X170011589Y-130680173D01*
X170229974Y-130589715D01*
X170461809Y-130543600D01*
X170698191Y-130543600D01*
X170930026Y-130589715D01*
G37*
G36*
X143234837Y-129827958D02*
G01*
X143315638Y-129835916D01*
X143469034Y-129882449D01*
X143522992Y-129898817D01*
X143714084Y-130000957D01*
X143881581Y-130138419D01*
X144019043Y-130305916D01*
X144121183Y-130497008D01*
X144121184Y-130497012D01*
X144184084Y-130704362D01*
X144205322Y-130920000D01*
X144184084Y-131135638D01*
X144172086Y-131175189D01*
X144121183Y-131342992D01*
X144019043Y-131534084D01*
X143881581Y-131701581D01*
X143714084Y-131839043D01*
X143522992Y-131941183D01*
X143469034Y-131957551D01*
X143315638Y-132004084D01*
X143234837Y-132012042D01*
X143154038Y-132020000D01*
X142845962Y-132020000D01*
X142765163Y-132012042D01*
X142684362Y-132004084D01*
X142530966Y-131957551D01*
X142477008Y-131941183D01*
X142285916Y-131839043D01*
X142118419Y-131701581D01*
X141980957Y-131534084D01*
X141878817Y-131342992D01*
X141827914Y-131175189D01*
X141815916Y-131135638D01*
X141794678Y-130920000D01*
X141815916Y-130704362D01*
X141878816Y-130497012D01*
X141878817Y-130497008D01*
X141980957Y-130305916D01*
X142118419Y-130138419D01*
X142285916Y-130000957D01*
X142477008Y-129898817D01*
X142530966Y-129882449D01*
X142684362Y-129835916D01*
X142765163Y-129827958D01*
X142845962Y-129820000D01*
X143154038Y-129820000D01*
X143234837Y-129827958D01*
G37*
G36*
X135614837Y-129827958D02*
G01*
X135695638Y-129835916D01*
X135849034Y-129882449D01*
X135902992Y-129898817D01*
X136094084Y-130000957D01*
X136261581Y-130138419D01*
X136399043Y-130305916D01*
X136501183Y-130497008D01*
X136501184Y-130497012D01*
X136564084Y-130704362D01*
X136585322Y-130920000D01*
X136564084Y-131135638D01*
X136552086Y-131175189D01*
X136501183Y-131342992D01*
X136399043Y-131534084D01*
X136261581Y-131701581D01*
X136094084Y-131839043D01*
X135902992Y-131941183D01*
X135849034Y-131957551D01*
X135695638Y-132004084D01*
X135614837Y-132012042D01*
X135534038Y-132020000D01*
X135225962Y-132020000D01*
X135145163Y-132012042D01*
X135064362Y-132004084D01*
X134910966Y-131957551D01*
X134857008Y-131941183D01*
X134665916Y-131839043D01*
X134498419Y-131701581D01*
X134360957Y-131534084D01*
X134258817Y-131342992D01*
X134207914Y-131175189D01*
X134195916Y-131135638D01*
X134174678Y-130920000D01*
X134195916Y-130704362D01*
X134258816Y-130497012D01*
X134258817Y-130497008D01*
X134360957Y-130305916D01*
X134498419Y-130138419D01*
X134665916Y-130000957D01*
X134857008Y-129898817D01*
X134910966Y-129882449D01*
X135064362Y-129835916D01*
X135145163Y-129827958D01*
X135225962Y-129820000D01*
X135534038Y-129820000D01*
X135614837Y-129827958D01*
G37*
G36*
X176681870Y-123576859D02*
G01*
X176875068Y-123615288D01*
X177261122Y-123775197D01*
X177300936Y-123791688D01*
X177421033Y-123841434D01*
X177545143Y-123924362D01*
X177864072Y-124137463D01*
X177912389Y-124169748D01*
X178330252Y-124587611D01*
X178658566Y-125078967D01*
X178882945Y-125620665D01*
X178884712Y-125624933D01*
X178996432Y-126186584D01*
X179000000Y-126204526D01*
X179000000Y-126795474D01*
X178884712Y-127375068D01*
X178658566Y-127921033D01*
X178330252Y-128412389D01*
X177912389Y-128830252D01*
X177421033Y-129158566D01*
X177421032Y-129158567D01*
X177421031Y-129158567D01*
X177261122Y-129224803D01*
X176875068Y-129384712D01*
X176792262Y-129401183D01*
X176295476Y-129500000D01*
X175704524Y-129500000D01*
X175207738Y-129401183D01*
X175124932Y-129384712D01*
X174738878Y-129224803D01*
X174578969Y-129158567D01*
X174578968Y-129158567D01*
X174578967Y-129158566D01*
X174087611Y-128830252D01*
X173669748Y-128412389D01*
X173341434Y-127921033D01*
X173115288Y-127375068D01*
X173000000Y-126795474D01*
X173000000Y-126204526D01*
X173003569Y-126186584D01*
X173115288Y-125624933D01*
X173117056Y-125620665D01*
X173341434Y-125078967D01*
X173669748Y-124587611D01*
X174087611Y-124169748D01*
X174135929Y-124137463D01*
X174454857Y-123924362D01*
X174578967Y-123841434D01*
X174699065Y-123791688D01*
X174738878Y-123775197D01*
X175124932Y-123615288D01*
X175318130Y-123576859D01*
X175704524Y-123500000D01*
X176295476Y-123500000D01*
X176681870Y-123576859D01*
G37*
G36*
X167931870Y-123576859D02*
G01*
X168125068Y-123615288D01*
X168511122Y-123775197D01*
X168550936Y-123791688D01*
X168671033Y-123841434D01*
X168795143Y-123924362D01*
X169114072Y-124137463D01*
X169162389Y-124169748D01*
X169580252Y-124587611D01*
X169908566Y-125078967D01*
X170132945Y-125620665D01*
X170134712Y-125624933D01*
X170246432Y-126186584D01*
X170250000Y-126204526D01*
X170250000Y-126795474D01*
X170134712Y-127375068D01*
X169908566Y-127921033D01*
X169580252Y-128412389D01*
X169162389Y-128830252D01*
X168671033Y-129158566D01*
X168671032Y-129158567D01*
X168671031Y-129158567D01*
X168511122Y-129224803D01*
X168125068Y-129384712D01*
X168042262Y-129401183D01*
X167545476Y-129500000D01*
X166954524Y-129500000D01*
X166457738Y-129401183D01*
X166374932Y-129384712D01*
X165988878Y-129224803D01*
X165828969Y-129158567D01*
X165828968Y-129158567D01*
X165828967Y-129158566D01*
X165337611Y-128830252D01*
X164919748Y-128412389D01*
X164591434Y-127921033D01*
X164365288Y-127375068D01*
X164250000Y-126795474D01*
X164250000Y-126204526D01*
X164253569Y-126186584D01*
X164365288Y-125624933D01*
X164367056Y-125620665D01*
X164591434Y-125078967D01*
X164919748Y-124587611D01*
X165337611Y-124169748D01*
X165385929Y-124137463D01*
X165704857Y-123924362D01*
X165828967Y-123841434D01*
X165949065Y-123791688D01*
X165988878Y-123775197D01*
X166374932Y-123615288D01*
X166568130Y-123576859D01*
X166954524Y-123500000D01*
X167545476Y-123500000D01*
X167931870Y-123576859D01*
G37*
G36*
X143234837Y-127287958D02*
G01*
X143315638Y-127295916D01*
X143460961Y-127340000D01*
X143522992Y-127358817D01*
X143714084Y-127460957D01*
X143881581Y-127598419D01*
X144019043Y-127765916D01*
X144121183Y-127957008D01*
X144121184Y-127957012D01*
X144184084Y-128164362D01*
X144205322Y-128380000D01*
X144184084Y-128595638D01*
X144137551Y-128749034D01*
X144121183Y-128802992D01*
X144019043Y-128994084D01*
X143881581Y-129161581D01*
X143714084Y-129299043D01*
X143522992Y-129401183D01*
X143469034Y-129417551D01*
X143315638Y-129464084D01*
X143234837Y-129472042D01*
X143154038Y-129480000D01*
X142845962Y-129480000D01*
X142765163Y-129472042D01*
X142684362Y-129464084D01*
X142530966Y-129417551D01*
X142477008Y-129401183D01*
X142285916Y-129299043D01*
X142118419Y-129161581D01*
X141980957Y-128994084D01*
X141878817Y-128802992D01*
X141862449Y-128749034D01*
X141815916Y-128595638D01*
X141794678Y-128380000D01*
X141815916Y-128164362D01*
X141878816Y-127957012D01*
X141878817Y-127957008D01*
X141980957Y-127765916D01*
X142118419Y-127598419D01*
X142285916Y-127460957D01*
X142477008Y-127358817D01*
X142539039Y-127340000D01*
X142684362Y-127295916D01*
X142765163Y-127287958D01*
X142845962Y-127280000D01*
X143154038Y-127280000D01*
X143234837Y-127287958D01*
G37*
G36*
X135614837Y-127287958D02*
G01*
X135695638Y-127295916D01*
X135840961Y-127340000D01*
X135902992Y-127358817D01*
X136094084Y-127460957D01*
X136261581Y-127598419D01*
X136399043Y-127765916D01*
X136501183Y-127957008D01*
X136501184Y-127957012D01*
X136564084Y-128164362D01*
X136585322Y-128380000D01*
X136564084Y-128595638D01*
X136517551Y-128749034D01*
X136501183Y-128802992D01*
X136399043Y-128994084D01*
X136261581Y-129161581D01*
X136094084Y-129299043D01*
X135902992Y-129401183D01*
X135849034Y-129417551D01*
X135695638Y-129464084D01*
X135614837Y-129472042D01*
X135534038Y-129480000D01*
X135225962Y-129480000D01*
X135145163Y-129472042D01*
X135064362Y-129464084D01*
X134910966Y-129417551D01*
X134857008Y-129401183D01*
X134665916Y-129299043D01*
X134498419Y-129161581D01*
X134360957Y-128994084D01*
X134258817Y-128802992D01*
X134242449Y-128749034D01*
X134195916Y-128595638D01*
X134174678Y-128380000D01*
X134195916Y-128164362D01*
X134258816Y-127957012D01*
X134258817Y-127957008D01*
X134360957Y-127765916D01*
X134498419Y-127598419D01*
X134665916Y-127460957D01*
X134857008Y-127358817D01*
X134919039Y-127340000D01*
X135064362Y-127295916D01*
X135145163Y-127287958D01*
X135225962Y-127280000D01*
X135534038Y-127280000D01*
X135614837Y-127287958D01*
G37*
G36*
X181378687Y-125245027D02*
G01*
X181556274Y-125280350D01*
X181747362Y-125359502D01*
X181919336Y-125474411D01*
X182065589Y-125620664D01*
X182180498Y-125792638D01*
X182259650Y-125983726D01*
X182300000Y-126186584D01*
X182300000Y-126393416D01*
X182259650Y-126596274D01*
X182180498Y-126787362D01*
X182065589Y-126959336D01*
X181919336Y-127105589D01*
X181747362Y-127220498D01*
X181556274Y-127299650D01*
X181378687Y-127334973D01*
X181353417Y-127340000D01*
X181146583Y-127340000D01*
X181121313Y-127334973D01*
X180943726Y-127299650D01*
X180752638Y-127220498D01*
X180580664Y-127105589D01*
X180434411Y-126959336D01*
X180319502Y-126787362D01*
X180240350Y-126596274D01*
X180200000Y-126393416D01*
X180200000Y-126186584D01*
X180240350Y-125983726D01*
X180319502Y-125792638D01*
X180434411Y-125620664D01*
X180580664Y-125474411D01*
X180752638Y-125359502D01*
X180943726Y-125280350D01*
X181121313Y-125245027D01*
X181146583Y-125240000D01*
X181353417Y-125240000D01*
X181378687Y-125245027D01*
G37*
G36*
X139114837Y-123047958D02*
G01*
X139195638Y-123055916D01*
X139349034Y-123102449D01*
X139402992Y-123118817D01*
X139594084Y-123220957D01*
X139761581Y-123358419D01*
X139899043Y-123525916D01*
X140001183Y-123717008D01*
X140001184Y-123717012D01*
X140064084Y-123924362D01*
X140085322Y-124140000D01*
X140064084Y-124355638D01*
X140017551Y-124509034D01*
X140001183Y-124562992D01*
X139899043Y-124754084D01*
X139761581Y-124921581D01*
X139594084Y-125059043D01*
X139402992Y-125161183D01*
X139349034Y-125177551D01*
X139195638Y-125224084D01*
X139114837Y-125232042D01*
X139034038Y-125240000D01*
X138725962Y-125240000D01*
X138645163Y-125232042D01*
X138564362Y-125224084D01*
X138410966Y-125177551D01*
X138357008Y-125161183D01*
X138165916Y-125059043D01*
X137998419Y-124921581D01*
X137860957Y-124754084D01*
X137758817Y-124562992D01*
X137742449Y-124509034D01*
X137695916Y-124355638D01*
X137674678Y-124140000D01*
X137695916Y-123924362D01*
X137758816Y-123717012D01*
X137758817Y-123717008D01*
X137860957Y-123525916D01*
X137998419Y-123358419D01*
X138165916Y-123220957D01*
X138357008Y-123118817D01*
X138410966Y-123102449D01*
X138564362Y-123055916D01*
X138645163Y-123047958D01*
X138725962Y-123040000D01*
X139034038Y-123040000D01*
X139114837Y-123047958D01*
G37*
G36*
X154354837Y-123047958D02*
G01*
X154435638Y-123055916D01*
X154589034Y-123102449D01*
X154642992Y-123118817D01*
X154834084Y-123220957D01*
X155001581Y-123358419D01*
X155139043Y-123525916D01*
X155241183Y-123717008D01*
X155241184Y-123717012D01*
X155304084Y-123924362D01*
X155325322Y-124140000D01*
X155304084Y-124355638D01*
X155257551Y-124509034D01*
X155241183Y-124562992D01*
X155139043Y-124754084D01*
X155001581Y-124921581D01*
X154834084Y-125059043D01*
X154642992Y-125161183D01*
X154589034Y-125177551D01*
X154435638Y-125224084D01*
X154354837Y-125232042D01*
X154274038Y-125240000D01*
X153965962Y-125240000D01*
X153885163Y-125232042D01*
X153804362Y-125224084D01*
X153650966Y-125177551D01*
X153597008Y-125161183D01*
X153405916Y-125059043D01*
X153238419Y-124921581D01*
X153100957Y-124754084D01*
X152998817Y-124562992D01*
X152982449Y-124509034D01*
X152935916Y-124355638D01*
X152914678Y-124140000D01*
X152935916Y-123924362D01*
X152998816Y-123717012D01*
X152998817Y-123717008D01*
X153100957Y-123525916D01*
X153238419Y-123358419D01*
X153405916Y-123220957D01*
X153597008Y-123118817D01*
X153650966Y-123102449D01*
X153804362Y-123055916D01*
X153885163Y-123047958D01*
X153965962Y-123040000D01*
X154274038Y-123040000D01*
X154354837Y-123047958D01*
G37*
G36*
X182300000Y-124800000D02*
G01*
X180200000Y-124800000D01*
X180200000Y-122700000D01*
X182300000Y-122700000D01*
X182300000Y-124800000D01*
G37*
G36*
X135444223Y-122519042D02*
G01*
X135541689Y-122538429D01*
X135723678Y-122613811D01*
X135887463Y-122723249D01*
X136026751Y-122862537D01*
X136136189Y-123026322D01*
X136211571Y-123208311D01*
X136250000Y-123401509D01*
X136250000Y-123598491D01*
X136211571Y-123791689D01*
X136136189Y-123973678D01*
X136026751Y-124137463D01*
X135887463Y-124276751D01*
X135723678Y-124386189D01*
X135541689Y-124461571D01*
X135477290Y-124474381D01*
X135348493Y-124500000D01*
X135151507Y-124500000D01*
X135022710Y-124474381D01*
X134958311Y-124461571D01*
X134776322Y-124386189D01*
X134612537Y-124276751D01*
X134473249Y-124137463D01*
X134363811Y-123973678D01*
X134288429Y-123791689D01*
X134250000Y-123598491D01*
X134250000Y-123401509D01*
X134288429Y-123208311D01*
X134363811Y-123026322D01*
X134473249Y-122862537D01*
X134612537Y-122723249D01*
X134776322Y-122613811D01*
X134958311Y-122538429D01*
X135055777Y-122519042D01*
X135151507Y-122500000D01*
X135348493Y-122500000D01*
X135444223Y-122519042D01*
G37*
G36*
X172780604Y-121374968D02*
G01*
X172955678Y-121447486D01*
X172955679Y-121447487D01*
X173113237Y-121552763D01*
X173247237Y-121686763D01*
X173333346Y-121815636D01*
X173352514Y-121844322D01*
X173425032Y-122019396D01*
X173462000Y-122205250D01*
X173462000Y-122394750D01*
X173425032Y-122580604D01*
X173411277Y-122613811D01*
X173352514Y-122755678D01*
X173352513Y-122755679D01*
X173247237Y-122913237D01*
X173113237Y-123047237D01*
X173006109Y-123118817D01*
X172955678Y-123152514D01*
X172780604Y-123225032D01*
X172594750Y-123262000D01*
X172405250Y-123262000D01*
X172219396Y-123225032D01*
X172044322Y-123152514D01*
X171993891Y-123118817D01*
X171886763Y-123047237D01*
X171752763Y-122913237D01*
X171647487Y-122755679D01*
X171647486Y-122755678D01*
X171588723Y-122613811D01*
X171574968Y-122580604D01*
X171538000Y-122394750D01*
X171538000Y-122205250D01*
X171574968Y-122019396D01*
X171647486Y-121844322D01*
X171666654Y-121815636D01*
X171752763Y-121686763D01*
X171886763Y-121552763D01*
X172044321Y-121447487D01*
X172044322Y-121447486D01*
X172219396Y-121374968D01*
X172405250Y-121338000D01*
X172594750Y-121338000D01*
X172780604Y-121374968D01*
G37*
G36*
X160780604Y-121374968D02*
G01*
X160955678Y-121447486D01*
X160955679Y-121447487D01*
X161113237Y-121552763D01*
X161247237Y-121686763D01*
X161333346Y-121815636D01*
X161352514Y-121844322D01*
X161425032Y-122019396D01*
X161462000Y-122205250D01*
X161462000Y-122394750D01*
X161425032Y-122580604D01*
X161411277Y-122613811D01*
X161352514Y-122755678D01*
X161352513Y-122755679D01*
X161247237Y-122913237D01*
X161113237Y-123047237D01*
X161006109Y-123118817D01*
X160955678Y-123152514D01*
X160780604Y-123225032D01*
X160594750Y-123262000D01*
X160405250Y-123262000D01*
X160219396Y-123225032D01*
X160044322Y-123152514D01*
X159993891Y-123118817D01*
X159886763Y-123047237D01*
X159752763Y-122913237D01*
X159647487Y-122755679D01*
X159647486Y-122755678D01*
X159588723Y-122613811D01*
X159574968Y-122580604D01*
X159538000Y-122394750D01*
X159538000Y-122205250D01*
X159574968Y-122019396D01*
X159647486Y-121844322D01*
X159666654Y-121815636D01*
X159752763Y-121686763D01*
X159886763Y-121552763D01*
X160044321Y-121447487D01*
X160044322Y-121447486D01*
X160219396Y-121374968D01*
X160405250Y-121338000D01*
X160594750Y-121338000D01*
X160780604Y-121374968D01*
G37*
G36*
X154354837Y-120507958D02*
G01*
X154435638Y-120515916D01*
X154589034Y-120562449D01*
X154642992Y-120578817D01*
X154834084Y-120680957D01*
X155001581Y-120818419D01*
X155139043Y-120985916D01*
X155241183Y-121177008D01*
X155241184Y-121177012D01*
X155304084Y-121384362D01*
X155325322Y-121600000D01*
X155304084Y-121815638D01*
X155257551Y-121969034D01*
X155241183Y-122022992D01*
X155139043Y-122214084D01*
X155001581Y-122381581D01*
X154834084Y-122519043D01*
X154642992Y-122621183D01*
X154589034Y-122637551D01*
X154435638Y-122684084D01*
X154354837Y-122692042D01*
X154274038Y-122700000D01*
X153965962Y-122700000D01*
X153885163Y-122692042D01*
X153804362Y-122684084D01*
X153650966Y-122637551D01*
X153597008Y-122621183D01*
X153405916Y-122519043D01*
X153238419Y-122381581D01*
X153100957Y-122214084D01*
X152998817Y-122022992D01*
X152982449Y-121969034D01*
X152935916Y-121815638D01*
X152914678Y-121600000D01*
X152935916Y-121384362D01*
X152998816Y-121177012D01*
X152998817Y-121177008D01*
X153100957Y-120985916D01*
X153238419Y-120818419D01*
X153405916Y-120680957D01*
X153597008Y-120578817D01*
X153650966Y-120562449D01*
X153804362Y-120515916D01*
X153885163Y-120507958D01*
X153965962Y-120500000D01*
X154274038Y-120500000D01*
X154354837Y-120507958D01*
G37*
G36*
X139114837Y-120507958D02*
G01*
X139195638Y-120515916D01*
X139349034Y-120562449D01*
X139402992Y-120578817D01*
X139594084Y-120680957D01*
X139761581Y-120818419D01*
X139899043Y-120985916D01*
X140001183Y-121177008D01*
X140001184Y-121177012D01*
X140064084Y-121384362D01*
X140085322Y-121600000D01*
X140064084Y-121815638D01*
X140017551Y-121969034D01*
X140001183Y-122022992D01*
X139899043Y-122214084D01*
X139761581Y-122381581D01*
X139594084Y-122519043D01*
X139402992Y-122621183D01*
X139349034Y-122637551D01*
X139195638Y-122684084D01*
X139114837Y-122692042D01*
X139034038Y-122700000D01*
X138725962Y-122700000D01*
X138645163Y-122692042D01*
X138564362Y-122684084D01*
X138410966Y-122637551D01*
X138357008Y-122621183D01*
X138165916Y-122519043D01*
X137998419Y-122381581D01*
X137860957Y-122214084D01*
X137758817Y-122022992D01*
X137742449Y-121969034D01*
X137695916Y-121815638D01*
X137674678Y-121600000D01*
X137695916Y-121384362D01*
X137758816Y-121177012D01*
X137758817Y-121177008D01*
X137860957Y-120985916D01*
X137998419Y-120818419D01*
X138165916Y-120680957D01*
X138357008Y-120578817D01*
X138410966Y-120562449D01*
X138564362Y-120515916D01*
X138645163Y-120507958D01*
X138725962Y-120500000D01*
X139034038Y-120500000D01*
X139114837Y-120507958D01*
G37*
G36*
X181103687Y-118970027D02*
G01*
X181281274Y-119005350D01*
X181472362Y-119084502D01*
X181644336Y-119199411D01*
X181790589Y-119345664D01*
X181905498Y-119517638D01*
X181984650Y-119708726D01*
X182025000Y-119911584D01*
X182025000Y-120118416D01*
X181984650Y-120321274D01*
X181905498Y-120512362D01*
X181790589Y-120684336D01*
X181644336Y-120830589D01*
X181472362Y-120945498D01*
X181281274Y-121024650D01*
X181103687Y-121059973D01*
X181078417Y-121065000D01*
X180871583Y-121065000D01*
X180846313Y-121059973D01*
X180668726Y-121024650D01*
X180477638Y-120945498D01*
X180305664Y-120830589D01*
X180159411Y-120684336D01*
X180044502Y-120512362D01*
X179965350Y-120321274D01*
X179925000Y-120118416D01*
X179925000Y-119911584D01*
X179965350Y-119708726D01*
X180044502Y-119517638D01*
X180159411Y-119345664D01*
X180305664Y-119199411D01*
X180477638Y-119084502D01*
X180668726Y-119005350D01*
X180846313Y-118970027D01*
X180871583Y-118965000D01*
X181078417Y-118965000D01*
X181103687Y-118970027D01*
G37*
G36*
X154354837Y-117967958D02*
G01*
X154435638Y-117975916D01*
X154589034Y-118022449D01*
X154642992Y-118038817D01*
X154834084Y-118140957D01*
X155001581Y-118278419D01*
X155139043Y-118445916D01*
X155241183Y-118637008D01*
X155241184Y-118637012D01*
X155304084Y-118844362D01*
X155325322Y-119060000D01*
X155304084Y-119275638D01*
X155282841Y-119345664D01*
X155241183Y-119482992D01*
X155139043Y-119674084D01*
X155001581Y-119841581D01*
X154834084Y-119979043D01*
X154642992Y-120081183D01*
X154589034Y-120097551D01*
X154435638Y-120144084D01*
X154354837Y-120152042D01*
X154274038Y-120160000D01*
X153965962Y-120160000D01*
X153885163Y-120152042D01*
X153804362Y-120144084D01*
X153650966Y-120097551D01*
X153597008Y-120081183D01*
X153405916Y-119979043D01*
X153238419Y-119841581D01*
X153100957Y-119674084D01*
X152998817Y-119482992D01*
X152957159Y-119345664D01*
X152935916Y-119275638D01*
X152914678Y-119060000D01*
X152935916Y-118844362D01*
X152998816Y-118637012D01*
X152998817Y-118637008D01*
X153100957Y-118445916D01*
X153238419Y-118278419D01*
X153405916Y-118140957D01*
X153597008Y-118038817D01*
X153650966Y-118022449D01*
X153804362Y-117975916D01*
X153885163Y-117967958D01*
X153965962Y-117960000D01*
X154274038Y-117960000D01*
X154354837Y-117967958D01*
G37*
G36*
X139114837Y-117967958D02*
G01*
X139195638Y-117975916D01*
X139349034Y-118022449D01*
X139402992Y-118038817D01*
X139594084Y-118140957D01*
X139761581Y-118278419D01*
X139899043Y-118445916D01*
X140001183Y-118637008D01*
X140001184Y-118637012D01*
X140064084Y-118844362D01*
X140085322Y-119060000D01*
X140064084Y-119275638D01*
X140042841Y-119345664D01*
X140001183Y-119482992D01*
X139899043Y-119674084D01*
X139761581Y-119841581D01*
X139594084Y-119979043D01*
X139402992Y-120081183D01*
X139349034Y-120097551D01*
X139195638Y-120144084D01*
X139114837Y-120152042D01*
X139034038Y-120160000D01*
X138725962Y-120160000D01*
X138645163Y-120152042D01*
X138564362Y-120144084D01*
X138410966Y-120097551D01*
X138357008Y-120081183D01*
X138165916Y-119979043D01*
X137998419Y-119841581D01*
X137860957Y-119674084D01*
X137758817Y-119482992D01*
X137717159Y-119345664D01*
X137695916Y-119275638D01*
X137674678Y-119060000D01*
X137695916Y-118844362D01*
X137758816Y-118637012D01*
X137758817Y-118637008D01*
X137860957Y-118445916D01*
X137998419Y-118278419D01*
X138165916Y-118140957D01*
X138357008Y-118038817D01*
X138410966Y-118022449D01*
X138564362Y-117975916D01*
X138645163Y-117967958D01*
X138725962Y-117960000D01*
X139034038Y-117960000D01*
X139114837Y-117967958D01*
G37*
G36*
X181103687Y-116430027D02*
G01*
X181281274Y-116465350D01*
X181472362Y-116544502D01*
X181644336Y-116659411D01*
X181790589Y-116805664D01*
X181905498Y-116977638D01*
X181984650Y-117168726D01*
X182025000Y-117371584D01*
X182025000Y-117578416D01*
X181984650Y-117781274D01*
X181905498Y-117972362D01*
X181790589Y-118144336D01*
X181644336Y-118290589D01*
X181472362Y-118405498D01*
X181281274Y-118484650D01*
X181103687Y-118519973D01*
X181078417Y-118525000D01*
X180871583Y-118525000D01*
X180846313Y-118519973D01*
X180668726Y-118484650D01*
X180477638Y-118405498D01*
X180305664Y-118290589D01*
X180159411Y-118144336D01*
X180044502Y-117972362D01*
X179965350Y-117781274D01*
X179925000Y-117578416D01*
X179925000Y-117371584D01*
X179965350Y-117168726D01*
X180044502Y-116977638D01*
X180159411Y-116805664D01*
X180305664Y-116659411D01*
X180477638Y-116544502D01*
X180668726Y-116465350D01*
X180846313Y-116430027D01*
X180871583Y-116425000D01*
X181078417Y-116425000D01*
X181103687Y-116430027D01*
G37*
G36*
X139114837Y-115427958D02*
G01*
X139195638Y-115435916D01*
X139349034Y-115482449D01*
X139402992Y-115498817D01*
X139594084Y-115600957D01*
X139761581Y-115738419D01*
X139899043Y-115905916D01*
X140001183Y-116097008D01*
X140001184Y-116097012D01*
X140064084Y-116304362D01*
X140085322Y-116520000D01*
X140064084Y-116735638D01*
X140017551Y-116889034D01*
X140001183Y-116942992D01*
X139899043Y-117134084D01*
X139761581Y-117301581D01*
X139594084Y-117439043D01*
X139402992Y-117541183D01*
X139349034Y-117557551D01*
X139195638Y-117604084D01*
X139114837Y-117612042D01*
X139034038Y-117620000D01*
X138725962Y-117620000D01*
X138645163Y-117612042D01*
X138564362Y-117604084D01*
X138410966Y-117557551D01*
X138357008Y-117541183D01*
X138165916Y-117439043D01*
X137998419Y-117301581D01*
X137860957Y-117134084D01*
X137758817Y-116942992D01*
X137742449Y-116889034D01*
X137695916Y-116735638D01*
X137674678Y-116520000D01*
X137695916Y-116304362D01*
X137758816Y-116097012D01*
X137758817Y-116097008D01*
X137860957Y-115905916D01*
X137998419Y-115738419D01*
X138165916Y-115600957D01*
X138357008Y-115498817D01*
X138410966Y-115482449D01*
X138564362Y-115435916D01*
X138645163Y-115427958D01*
X138725962Y-115420000D01*
X139034038Y-115420000D01*
X139114837Y-115427958D01*
G37*
G36*
X154354837Y-115427958D02*
G01*
X154435638Y-115435916D01*
X154589034Y-115482449D01*
X154642992Y-115498817D01*
X154834084Y-115600957D01*
X155001581Y-115738419D01*
X155139043Y-115905916D01*
X155241183Y-116097008D01*
X155241184Y-116097012D01*
X155304084Y-116304362D01*
X155325322Y-116520000D01*
X155304084Y-116735638D01*
X155257551Y-116889034D01*
X155241183Y-116942992D01*
X155139043Y-117134084D01*
X155001581Y-117301581D01*
X154834084Y-117439043D01*
X154642992Y-117541183D01*
X154589034Y-117557551D01*
X154435638Y-117604084D01*
X154354837Y-117612042D01*
X154274038Y-117620000D01*
X153965962Y-117620000D01*
X153885163Y-117612042D01*
X153804362Y-117604084D01*
X153650966Y-117557551D01*
X153597008Y-117541183D01*
X153405916Y-117439043D01*
X153238419Y-117301581D01*
X153100957Y-117134084D01*
X152998817Y-116942992D01*
X152982449Y-116889034D01*
X152935916Y-116735638D01*
X152914678Y-116520000D01*
X152935916Y-116304362D01*
X152998816Y-116097012D01*
X152998817Y-116097008D01*
X153100957Y-115905916D01*
X153238419Y-115738419D01*
X153405916Y-115600957D01*
X153597008Y-115498817D01*
X153650966Y-115482449D01*
X153804362Y-115435916D01*
X153885163Y-115427958D01*
X153965962Y-115420000D01*
X154274038Y-115420000D01*
X154354837Y-115427958D01*
G37*
G36*
X135444223Y-114899042D02*
G01*
X135541689Y-114918429D01*
X135723678Y-114993811D01*
X135887463Y-115103249D01*
X136026751Y-115242537D01*
X136136189Y-115406322D01*
X136211571Y-115588311D01*
X136224381Y-115652710D01*
X136250000Y-115781507D01*
X136250000Y-115978493D01*
X136226426Y-116097008D01*
X136211571Y-116171689D01*
X136136189Y-116353678D01*
X136026751Y-116517463D01*
X135887463Y-116656751D01*
X135723678Y-116766189D01*
X135541689Y-116841571D01*
X135477290Y-116854381D01*
X135348493Y-116880000D01*
X135151507Y-116880000D01*
X135022710Y-116854381D01*
X134958311Y-116841571D01*
X134776322Y-116766189D01*
X134612537Y-116656751D01*
X134473249Y-116517463D01*
X134363811Y-116353678D01*
X134288429Y-116171689D01*
X134273574Y-116097008D01*
X134250000Y-115978493D01*
X134250000Y-115781507D01*
X134275619Y-115652710D01*
X134288429Y-115588311D01*
X134363811Y-115406322D01*
X134473249Y-115242537D01*
X134612537Y-115103249D01*
X134776322Y-114993811D01*
X134958311Y-114918429D01*
X135055777Y-114899042D01*
X135151507Y-114880000D01*
X135348493Y-114880000D01*
X135444223Y-114899042D01*
G37*
G36*
X181103687Y-113890027D02*
G01*
X181281274Y-113925350D01*
X181472362Y-114004502D01*
X181644336Y-114119411D01*
X181790589Y-114265664D01*
X181905498Y-114437638D01*
X181984650Y-114628726D01*
X182025000Y-114831584D01*
X182025000Y-115038416D01*
X181984650Y-115241274D01*
X181905498Y-115432362D01*
X181790589Y-115604336D01*
X181644336Y-115750589D01*
X181472362Y-115865498D01*
X181281274Y-115944650D01*
X181103687Y-115979973D01*
X181078417Y-115985000D01*
X180871583Y-115985000D01*
X180846313Y-115979973D01*
X180668726Y-115944650D01*
X180477638Y-115865498D01*
X180305664Y-115750589D01*
X180159411Y-115604336D01*
X180044502Y-115432362D01*
X179965350Y-115241274D01*
X179925000Y-115038416D01*
X179925000Y-114831584D01*
X179965350Y-114628726D01*
X180044502Y-114437638D01*
X180159411Y-114265664D01*
X180305664Y-114119411D01*
X180477638Y-114004502D01*
X180668726Y-113925350D01*
X180846313Y-113890027D01*
X180871583Y-113885000D01*
X181078417Y-113885000D01*
X181103687Y-113890027D01*
G37*
G36*
X139114837Y-112887958D02*
G01*
X139195638Y-112895916D01*
X139349034Y-112942449D01*
X139402992Y-112958817D01*
X139594084Y-113060957D01*
X139761581Y-113198419D01*
X139899043Y-113365916D01*
X140001183Y-113557008D01*
X140001184Y-113557012D01*
X140064084Y-113764362D01*
X140085322Y-113980000D01*
X140064084Y-114195638D01*
X140042841Y-114265664D01*
X140001183Y-114402992D01*
X139899043Y-114594084D01*
X139761581Y-114761581D01*
X139594084Y-114899043D01*
X139402992Y-115001183D01*
X139349034Y-115017551D01*
X139195638Y-115064084D01*
X139114837Y-115072042D01*
X139034038Y-115080000D01*
X138725962Y-115080000D01*
X138645163Y-115072042D01*
X138564362Y-115064084D01*
X138410966Y-115017551D01*
X138357008Y-115001183D01*
X138165916Y-114899043D01*
X137998419Y-114761581D01*
X137860957Y-114594084D01*
X137758817Y-114402992D01*
X137717159Y-114265664D01*
X137695916Y-114195638D01*
X137674678Y-113980000D01*
X137695916Y-113764362D01*
X137758816Y-113557012D01*
X137758817Y-113557008D01*
X137860957Y-113365916D01*
X137998419Y-113198419D01*
X138165916Y-113060957D01*
X138357008Y-112958817D01*
X138410966Y-112942449D01*
X138564362Y-112895916D01*
X138645163Y-112887958D01*
X138725962Y-112880000D01*
X139034038Y-112880000D01*
X139114837Y-112887958D01*
G37*
G36*
X154354837Y-112887958D02*
G01*
X154435638Y-112895916D01*
X154589034Y-112942449D01*
X154642992Y-112958817D01*
X154834084Y-113060957D01*
X155001581Y-113198419D01*
X155139043Y-113365916D01*
X155241183Y-113557008D01*
X155241184Y-113557012D01*
X155304084Y-113764362D01*
X155325322Y-113980000D01*
X155304084Y-114195638D01*
X155282841Y-114265664D01*
X155241183Y-114402992D01*
X155139043Y-114594084D01*
X155001581Y-114761581D01*
X154834084Y-114899043D01*
X154642992Y-115001183D01*
X154589034Y-115017551D01*
X154435638Y-115064084D01*
X154354837Y-115072042D01*
X154274038Y-115080000D01*
X153965962Y-115080000D01*
X153885163Y-115072042D01*
X153804362Y-115064084D01*
X153650966Y-115017551D01*
X153597008Y-115001183D01*
X153405916Y-114899043D01*
X153238419Y-114761581D01*
X153100957Y-114594084D01*
X152998817Y-114402992D01*
X152957159Y-114265664D01*
X152935916Y-114195638D01*
X152914678Y-113980000D01*
X152935916Y-113764362D01*
X152998816Y-113557012D01*
X152998817Y-113557008D01*
X153100957Y-113365916D01*
X153238419Y-113198419D01*
X153405916Y-113060957D01*
X153597008Y-112958817D01*
X153650966Y-112942449D01*
X153804362Y-112895916D01*
X153885163Y-112887958D01*
X153965962Y-112880000D01*
X154274038Y-112880000D01*
X154354837Y-112887958D01*
G37*
G36*
X181103687Y-111350027D02*
G01*
X181281274Y-111385350D01*
X181472362Y-111464502D01*
X181644336Y-111579411D01*
X181790589Y-111725664D01*
X181905498Y-111897638D01*
X181984650Y-112088726D01*
X182025000Y-112291584D01*
X182025000Y-112498416D01*
X181984650Y-112701274D01*
X181905498Y-112892362D01*
X181790589Y-113064336D01*
X181644336Y-113210589D01*
X181472362Y-113325498D01*
X181281274Y-113404650D01*
X181103687Y-113439973D01*
X181078417Y-113445000D01*
X180871583Y-113445000D01*
X180846313Y-113439973D01*
X180668726Y-113404650D01*
X180477638Y-113325498D01*
X180305664Y-113210589D01*
X180159411Y-113064336D01*
X180044502Y-112892362D01*
X179965350Y-112701274D01*
X179925000Y-112498416D01*
X179925000Y-112291584D01*
X179965350Y-112088726D01*
X180044502Y-111897638D01*
X180159411Y-111725664D01*
X180305664Y-111579411D01*
X180477638Y-111464502D01*
X180668726Y-111385350D01*
X180846313Y-111350027D01*
X180871583Y-111345000D01*
X181078417Y-111345000D01*
X181103687Y-111350027D01*
G37*
G36*
X139114837Y-110347958D02*
G01*
X139195638Y-110355916D01*
X139349034Y-110402449D01*
X139402992Y-110418817D01*
X139594084Y-110520957D01*
X139761581Y-110658419D01*
X139899043Y-110825916D01*
X140001183Y-111017008D01*
X140001184Y-111017012D01*
X140064084Y-111224362D01*
X140085322Y-111440000D01*
X140064084Y-111655638D01*
X140042841Y-111725664D01*
X140001183Y-111862992D01*
X139899043Y-112054084D01*
X139761581Y-112221581D01*
X139594084Y-112359043D01*
X139402992Y-112461183D01*
X139349034Y-112477551D01*
X139195638Y-112524084D01*
X139114837Y-112532042D01*
X139034038Y-112540000D01*
X138725962Y-112540000D01*
X138645163Y-112532042D01*
X138564362Y-112524084D01*
X138410966Y-112477551D01*
X138357008Y-112461183D01*
X138165916Y-112359043D01*
X137998419Y-112221581D01*
X137860957Y-112054084D01*
X137758817Y-111862992D01*
X137717159Y-111725664D01*
X137695916Y-111655638D01*
X137674678Y-111440000D01*
X137695916Y-111224362D01*
X137758816Y-111017012D01*
X137758817Y-111017008D01*
X137860957Y-110825916D01*
X137998419Y-110658419D01*
X138165916Y-110520957D01*
X138357008Y-110418817D01*
X138410966Y-110402449D01*
X138564362Y-110355916D01*
X138645163Y-110347958D01*
X138725962Y-110340000D01*
X139034038Y-110340000D01*
X139114837Y-110347958D01*
G37*
G36*
X154354837Y-110347958D02*
G01*
X154435638Y-110355916D01*
X154589034Y-110402449D01*
X154642992Y-110418817D01*
X154834084Y-110520957D01*
X155001581Y-110658419D01*
X155139043Y-110825916D01*
X155241183Y-111017008D01*
X155241184Y-111017012D01*
X155304084Y-111224362D01*
X155325322Y-111440000D01*
X155304084Y-111655638D01*
X155282841Y-111725664D01*
X155241183Y-111862992D01*
X155139043Y-112054084D01*
X155001581Y-112221581D01*
X154834084Y-112359043D01*
X154642992Y-112461183D01*
X154589034Y-112477551D01*
X154435638Y-112524084D01*
X154354837Y-112532042D01*
X154274038Y-112540000D01*
X153965962Y-112540000D01*
X153885163Y-112532042D01*
X153804362Y-112524084D01*
X153650966Y-112477551D01*
X153597008Y-112461183D01*
X153405916Y-112359043D01*
X153238419Y-112221581D01*
X153100957Y-112054084D01*
X152998817Y-111862992D01*
X152957159Y-111725664D01*
X152935916Y-111655638D01*
X152914678Y-111440000D01*
X152935916Y-111224362D01*
X152998816Y-111017012D01*
X152998817Y-111017008D01*
X153100957Y-110825916D01*
X153238419Y-110658419D01*
X153405916Y-110520957D01*
X153597008Y-110418817D01*
X153650966Y-110402449D01*
X153804362Y-110355916D01*
X153885163Y-110347958D01*
X153965962Y-110340000D01*
X154274038Y-110340000D01*
X154354837Y-110347958D01*
G37*
G36*
X181103687Y-108810027D02*
G01*
X181281274Y-108845350D01*
X181472362Y-108924502D01*
X181644336Y-109039411D01*
X181790589Y-109185664D01*
X181905498Y-109357638D01*
X181984650Y-109548726D01*
X182025000Y-109751584D01*
X182025000Y-109958416D01*
X181984650Y-110161274D01*
X181905498Y-110352362D01*
X181790589Y-110524336D01*
X181644336Y-110670589D01*
X181472362Y-110785498D01*
X181281274Y-110864650D01*
X181103687Y-110899973D01*
X181078417Y-110905000D01*
X180871583Y-110905000D01*
X180846313Y-110899973D01*
X180668726Y-110864650D01*
X180477638Y-110785498D01*
X180305664Y-110670589D01*
X180159411Y-110524336D01*
X180044502Y-110352362D01*
X179965350Y-110161274D01*
X179925000Y-109958416D01*
X179925000Y-109751584D01*
X179965350Y-109548726D01*
X180044502Y-109357638D01*
X180159411Y-109185664D01*
X180305664Y-109039411D01*
X180477638Y-108924502D01*
X180668726Y-108845350D01*
X180846313Y-108810027D01*
X180871583Y-108805000D01*
X181078417Y-108805000D01*
X181103687Y-108810027D01*
G37*
G36*
X154354837Y-107807958D02*
G01*
X154435638Y-107815916D01*
X154589034Y-107862449D01*
X154642992Y-107878817D01*
X154834084Y-107980957D01*
X155001581Y-108118419D01*
X155139043Y-108285916D01*
X155241183Y-108477008D01*
X155241184Y-108477012D01*
X155304084Y-108684362D01*
X155325322Y-108900000D01*
X155304084Y-109115638D01*
X155282841Y-109185664D01*
X155241183Y-109322992D01*
X155139043Y-109514084D01*
X155001581Y-109681581D01*
X154834084Y-109819043D01*
X154642992Y-109921183D01*
X154589034Y-109937551D01*
X154435638Y-109984084D01*
X154354837Y-109992042D01*
X154274038Y-110000000D01*
X153965962Y-110000000D01*
X153885163Y-109992042D01*
X153804362Y-109984084D01*
X153650966Y-109937551D01*
X153597008Y-109921183D01*
X153405916Y-109819043D01*
X153238419Y-109681581D01*
X153100957Y-109514084D01*
X152998817Y-109322992D01*
X152957159Y-109185664D01*
X152935916Y-109115638D01*
X152914678Y-108900000D01*
X152935916Y-108684362D01*
X152998816Y-108477012D01*
X152998817Y-108477008D01*
X153100957Y-108285916D01*
X153238419Y-108118419D01*
X153405916Y-107980957D01*
X153597008Y-107878817D01*
X153650966Y-107862449D01*
X153804362Y-107815916D01*
X153885163Y-107807958D01*
X153965962Y-107800000D01*
X154274038Y-107800000D01*
X154354837Y-107807958D01*
G37*
G36*
X139114837Y-107807958D02*
G01*
X139195638Y-107815916D01*
X139349034Y-107862449D01*
X139402992Y-107878817D01*
X139594084Y-107980957D01*
X139761581Y-108118419D01*
X139899043Y-108285916D01*
X140001183Y-108477008D01*
X140001184Y-108477012D01*
X140064084Y-108684362D01*
X140085322Y-108900000D01*
X140064084Y-109115638D01*
X140042841Y-109185664D01*
X140001183Y-109322992D01*
X139899043Y-109514084D01*
X139761581Y-109681581D01*
X139594084Y-109819043D01*
X139402992Y-109921183D01*
X139349034Y-109937551D01*
X139195638Y-109984084D01*
X139114837Y-109992042D01*
X139034038Y-110000000D01*
X138725962Y-110000000D01*
X138645163Y-109992042D01*
X138564362Y-109984084D01*
X138410966Y-109937551D01*
X138357008Y-109921183D01*
X138165916Y-109819043D01*
X137998419Y-109681581D01*
X137860957Y-109514084D01*
X137758817Y-109322992D01*
X137717159Y-109185664D01*
X137695916Y-109115638D01*
X137674678Y-108900000D01*
X137695916Y-108684362D01*
X137758816Y-108477012D01*
X137758817Y-108477008D01*
X137860957Y-108285916D01*
X137998419Y-108118419D01*
X138165916Y-107980957D01*
X138357008Y-107878817D01*
X138410966Y-107862449D01*
X138564362Y-107815916D01*
X138645163Y-107807958D01*
X138725962Y-107800000D01*
X139034038Y-107800000D01*
X139114837Y-107807958D01*
G37*
G36*
X182025000Y-108365000D02*
G01*
X179925000Y-108365000D01*
X179925000Y-106265000D01*
X182025000Y-106265000D01*
X182025000Y-108365000D01*
G37*
G36*
X140080000Y-107460000D02*
G01*
X137680000Y-107460000D01*
X137680000Y-105260000D01*
X140080000Y-105260000D01*
X140080000Y-107460000D01*
G37*
G36*
X154354837Y-105267958D02*
G01*
X154435638Y-105275916D01*
X154589034Y-105322449D01*
X154642992Y-105338817D01*
X154834084Y-105440957D01*
X155001581Y-105578419D01*
X155139043Y-105745916D01*
X155241183Y-105937008D01*
X155241184Y-105937012D01*
X155304084Y-106144362D01*
X155325322Y-106360000D01*
X155304084Y-106575638D01*
X155257551Y-106729034D01*
X155241183Y-106782992D01*
X155139043Y-106974084D01*
X155001581Y-107141581D01*
X154834084Y-107279043D01*
X154642992Y-107381183D01*
X154589034Y-107397551D01*
X154435638Y-107444084D01*
X154354837Y-107452042D01*
X154274038Y-107460000D01*
X153965962Y-107460000D01*
X153885163Y-107452042D01*
X153804362Y-107444084D01*
X153650966Y-107397551D01*
X153597008Y-107381183D01*
X153405916Y-107279043D01*
X153238419Y-107141581D01*
X153100957Y-106974084D01*
X152998817Y-106782992D01*
X152982449Y-106729034D01*
X152935916Y-106575638D01*
X152914678Y-106360000D01*
X152935916Y-106144362D01*
X152998816Y-105937012D01*
X152998817Y-105937008D01*
X153100957Y-105745916D01*
X153238419Y-105578419D01*
X153405916Y-105440957D01*
X153597008Y-105338817D01*
X153650966Y-105322449D01*
X153804362Y-105275916D01*
X153885163Y-105267958D01*
X153965962Y-105260000D01*
X154274038Y-105260000D01*
X154354837Y-105267958D01*
G37*
G36*
X148225026Y-95496115D02*
G01*
X148443411Y-95586573D01*
X148443413Y-95586574D01*
X148490731Y-95618191D01*
X148639955Y-95717899D01*
X148807101Y-95885045D01*
X148938427Y-96081589D01*
X149028885Y-96299974D01*
X149075000Y-96531809D01*
X149075000Y-96768191D01*
X149028885Y-97000026D01*
X148938427Y-97218411D01*
X148938426Y-97218413D01*
X148807101Y-97414955D01*
X148639955Y-97582101D01*
X148443413Y-97713426D01*
X148443412Y-97713427D01*
X148443411Y-97713427D01*
X148225026Y-97803885D01*
X147993191Y-97850000D01*
X147756809Y-97850000D01*
X147524974Y-97803885D01*
X147306589Y-97713427D01*
X147306588Y-97713427D01*
X147306587Y-97713426D01*
X147110045Y-97582101D01*
X146942899Y-97414955D01*
X146811574Y-97218413D01*
X146811573Y-97218411D01*
X146721115Y-97000026D01*
X146675000Y-96768191D01*
X146675000Y-96531809D01*
X146721115Y-96299974D01*
X146811573Y-96081589D01*
X146942899Y-95885045D01*
X147110045Y-95717899D01*
X147259269Y-95618191D01*
X147306587Y-95586574D01*
X147306589Y-95586573D01*
X147524974Y-95496115D01*
X147756809Y-95450000D01*
X147993191Y-95450000D01*
X148225026Y-95496115D01*
G37*
G36*
X145450026Y-95496115D02*
G01*
X145668411Y-95586573D01*
X145668413Y-95586574D01*
X145715731Y-95618191D01*
X145864955Y-95717899D01*
X146032101Y-95885045D01*
X146163427Y-96081589D01*
X146253885Y-96299974D01*
X146300000Y-96531809D01*
X146300000Y-96768191D01*
X146253885Y-97000026D01*
X146163427Y-97218411D01*
X146163426Y-97218413D01*
X146032101Y-97414955D01*
X145864955Y-97582101D01*
X145668413Y-97713426D01*
X145668412Y-97713427D01*
X145668411Y-97713427D01*
X145450026Y-97803885D01*
X145218191Y-97850000D01*
X144981809Y-97850000D01*
X144749974Y-97803885D01*
X144531589Y-97713427D01*
X144531588Y-97713427D01*
X144531587Y-97713426D01*
X144335045Y-97582101D01*
X144167899Y-97414955D01*
X144036574Y-97218413D01*
X144036573Y-97218411D01*
X143946115Y-97000026D01*
X143900000Y-96768191D01*
X143900000Y-96531809D01*
X143946115Y-96299974D01*
X144036573Y-96081589D01*
X144167899Y-95885045D01*
X144335045Y-95717899D01*
X144484269Y-95618191D01*
X144531587Y-95586574D01*
X144531589Y-95586573D01*
X144749974Y-95496115D01*
X144981809Y-95450000D01*
X145218191Y-95450000D01*
X145450026Y-95496115D01*
G37*
G36*
X135100026Y-94346115D02*
G01*
X135318411Y-94436573D01*
X135318413Y-94436574D01*
X135514955Y-94567899D01*
X135682101Y-94735045D01*
X135813427Y-94931589D01*
X135903885Y-95149974D01*
X135950000Y-95381809D01*
X135950000Y-95618191D01*
X135903885Y-95850026D01*
X135813427Y-96068411D01*
X135813426Y-96068413D01*
X135682101Y-96264955D01*
X135514955Y-96432101D01*
X135318413Y-96563426D01*
X135318412Y-96563427D01*
X135318411Y-96563427D01*
X135100026Y-96653885D01*
X134868191Y-96700000D01*
X134631809Y-96700000D01*
X134399974Y-96653885D01*
X134181589Y-96563427D01*
X134181588Y-96563427D01*
X134181587Y-96563426D01*
X133985045Y-96432101D01*
X133817899Y-96264955D01*
X133686574Y-96068413D01*
X133686573Y-96068411D01*
X133596115Y-95850026D01*
X133550000Y-95618191D01*
X133550000Y-95381809D01*
X133596115Y-95149974D01*
X133686573Y-94931589D01*
X133817899Y-94735045D01*
X133985045Y-94567899D01*
X134181587Y-94436574D01*
X134181589Y-94436573D01*
X134399974Y-94346115D01*
X134631809Y-94300000D01*
X134868191Y-94300000D01*
X135100026Y-94346115D01*
G37*
G36*
X182100026Y-94346115D02*
G01*
X182318411Y-94436573D01*
X182318413Y-94436574D01*
X182514955Y-94567899D01*
X182682101Y-94735045D01*
X182813427Y-94931589D01*
X182903885Y-95149974D01*
X182950000Y-95381809D01*
X182950000Y-95618191D01*
X182903885Y-95850026D01*
X182813427Y-96068411D01*
X182813426Y-96068413D01*
X182682101Y-96264955D01*
X182514955Y-96432101D01*
X182318413Y-96563426D01*
X182318412Y-96563427D01*
X182318411Y-96563427D01*
X182100026Y-96653885D01*
X181868191Y-96700000D01*
X181631809Y-96700000D01*
X181399974Y-96653885D01*
X181181589Y-96563427D01*
X181181588Y-96563427D01*
X181181587Y-96563426D01*
X180985045Y-96432101D01*
X180817899Y-96264955D01*
X180686574Y-96068413D01*
X180686573Y-96068411D01*
X180596115Y-95850026D01*
X180550000Y-95618191D01*
X180550000Y-95381809D01*
X180596115Y-95149974D01*
X180686573Y-94931589D01*
X180817899Y-94735045D01*
X180985045Y-94567899D01*
X181181587Y-94436574D01*
X181181589Y-94436573D01*
X181399974Y-94346115D01*
X181631809Y-94300000D01*
X181868191Y-94300000D01*
X182100026Y-94346115D01*
G37*
G36*
X139600026Y-94346115D02*
G01*
X139818411Y-94436573D01*
X139818413Y-94436574D01*
X140014955Y-94567899D01*
X140182101Y-94735045D01*
X140313427Y-94931589D01*
X140403885Y-95149974D01*
X140450000Y-95381809D01*
X140450000Y-95618191D01*
X140403885Y-95850026D01*
X140313427Y-96068411D01*
X140313426Y-96068413D01*
X140182101Y-96264955D01*
X140014955Y-96432101D01*
X139818413Y-96563426D01*
X139818412Y-96563427D01*
X139818411Y-96563427D01*
X139600026Y-96653885D01*
X139368191Y-96700000D01*
X139131809Y-96700000D01*
X138899974Y-96653885D01*
X138681589Y-96563427D01*
X138681588Y-96563427D01*
X138681587Y-96563426D01*
X138485045Y-96432101D01*
X138317899Y-96264955D01*
X138186574Y-96068413D01*
X138186573Y-96068411D01*
X138096115Y-95850026D01*
X138050000Y-95618191D01*
X138050000Y-95381809D01*
X138096115Y-95149974D01*
X138186573Y-94931589D01*
X138317899Y-94735045D01*
X138485045Y-94567899D01*
X138681587Y-94436574D01*
X138681589Y-94436573D01*
X138899974Y-94346115D01*
X139131809Y-94300000D01*
X139368191Y-94300000D01*
X139600026Y-94346115D01*
G37*
G36*
X177600026Y-94346115D02*
G01*
X177818411Y-94436573D01*
X177818413Y-94436574D01*
X178014955Y-94567899D01*
X178182101Y-94735045D01*
X178313427Y-94931589D01*
X178403885Y-95149974D01*
X178450000Y-95381809D01*
X178450000Y-95618191D01*
X178403885Y-95850026D01*
X178313427Y-96068411D01*
X178313426Y-96068413D01*
X178182101Y-96264955D01*
X178014955Y-96432101D01*
X177818413Y-96563426D01*
X177818412Y-96563427D01*
X177818411Y-96563427D01*
X177600026Y-96653885D01*
X177368191Y-96700000D01*
X177131809Y-96700000D01*
X176899974Y-96653885D01*
X176681589Y-96563427D01*
X176681588Y-96563427D01*
X176681587Y-96563426D01*
X176485045Y-96432101D01*
X176317899Y-96264955D01*
X176186574Y-96068413D01*
X176186573Y-96068411D01*
X176096115Y-95850026D01*
X176050000Y-95618191D01*
X176050000Y-95381809D01*
X176096115Y-95149974D01*
X176186573Y-94931589D01*
X176317899Y-94735045D01*
X176485045Y-94567899D01*
X176681587Y-94436574D01*
X176681589Y-94436573D01*
X176899974Y-94346115D01*
X177131809Y-94300000D01*
X177368191Y-94300000D01*
X177600026Y-94346115D01*
G37*
G36*
X172848687Y-90395027D02*
G01*
X173026274Y-90430350D01*
X173217362Y-90509502D01*
X173389336Y-90624411D01*
X173535589Y-90770664D01*
X173650498Y-90942638D01*
X173729650Y-91133726D01*
X173770000Y-91336584D01*
X173770000Y-91543416D01*
X173729650Y-91746274D01*
X173650498Y-91937362D01*
X173535589Y-92109336D01*
X173389336Y-92255589D01*
X173217362Y-92370498D01*
X173026274Y-92449650D01*
X172848687Y-92484973D01*
X172823417Y-92490000D01*
X172616583Y-92490000D01*
X172591313Y-92484973D01*
X172413726Y-92449650D01*
X172222638Y-92370498D01*
X172050664Y-92255589D01*
X171904411Y-92109336D01*
X171789502Y-91937362D01*
X171710350Y-91746274D01*
X171670000Y-91543416D01*
X171670000Y-91336584D01*
X171710350Y-91133726D01*
X171789502Y-90942638D01*
X171904411Y-90770664D01*
X172050664Y-90624411D01*
X172222638Y-90509502D01*
X172413726Y-90430350D01*
X172591313Y-90395027D01*
X172616583Y-90390000D01*
X172823417Y-90390000D01*
X172848687Y-90395027D01*
G37*
G36*
X171230000Y-92490000D02*
G01*
X169130000Y-92490000D01*
X169130000Y-90390000D01*
X171230000Y-90390000D01*
X171230000Y-92490000D01*
G37*
G36*
X177600026Y-87846115D02*
G01*
X177818411Y-87936573D01*
X177818413Y-87936574D01*
X178014955Y-88067899D01*
X178182101Y-88235045D01*
X178313427Y-88431589D01*
X178403885Y-88649974D01*
X178450000Y-88881809D01*
X178450000Y-89118191D01*
X178403885Y-89350026D01*
X178313427Y-89568411D01*
X178313426Y-89568413D01*
X178182101Y-89764955D01*
X178014955Y-89932101D01*
X177818413Y-90063426D01*
X177818412Y-90063427D01*
X177818411Y-90063427D01*
X177600026Y-90153885D01*
X177368191Y-90200000D01*
X177131809Y-90200000D01*
X176899974Y-90153885D01*
X176681589Y-90063427D01*
X176681588Y-90063427D01*
X176681587Y-90063426D01*
X176485045Y-89932101D01*
X176317899Y-89764955D01*
X176186574Y-89568413D01*
X176186573Y-89568411D01*
X176096115Y-89350026D01*
X176050000Y-89118191D01*
X176050000Y-88881809D01*
X176096115Y-88649974D01*
X176186573Y-88431589D01*
X176317899Y-88235045D01*
X176485045Y-88067899D01*
X176681587Y-87936574D01*
X176681589Y-87936573D01*
X176899974Y-87846115D01*
X177131809Y-87800000D01*
X177368191Y-87800000D01*
X177600026Y-87846115D01*
G37*
G36*
X182100026Y-87846115D02*
G01*
X182318411Y-87936573D01*
X182318413Y-87936574D01*
X182514955Y-88067899D01*
X182682101Y-88235045D01*
X182813427Y-88431589D01*
X182903885Y-88649974D01*
X182950000Y-88881809D01*
X182950000Y-89118191D01*
X182903885Y-89350026D01*
X182813427Y-89568411D01*
X182813426Y-89568413D01*
X182682101Y-89764955D01*
X182514955Y-89932101D01*
X182318413Y-90063426D01*
X182318412Y-90063427D01*
X182318411Y-90063427D01*
X182100026Y-90153885D01*
X181868191Y-90200000D01*
X181631809Y-90200000D01*
X181399974Y-90153885D01*
X181181589Y-90063427D01*
X181181588Y-90063427D01*
X181181587Y-90063426D01*
X180985045Y-89932101D01*
X180817899Y-89764955D01*
X180686574Y-89568413D01*
X180686573Y-89568411D01*
X180596115Y-89350026D01*
X180550000Y-89118191D01*
X180550000Y-88881809D01*
X180596115Y-88649974D01*
X180686573Y-88431589D01*
X180817899Y-88235045D01*
X180985045Y-88067899D01*
X181181587Y-87936574D01*
X181181589Y-87936573D01*
X181399974Y-87846115D01*
X181631809Y-87800000D01*
X181868191Y-87800000D01*
X182100026Y-87846115D01*
G37*
G36*
X135100026Y-87846115D02*
G01*
X135318411Y-87936573D01*
X135318413Y-87936574D01*
X135514955Y-88067899D01*
X135682101Y-88235045D01*
X135813427Y-88431589D01*
X135903885Y-88649974D01*
X135950000Y-88881809D01*
X135950000Y-89118191D01*
X135903885Y-89350026D01*
X135813427Y-89568411D01*
X135813426Y-89568413D01*
X135682101Y-89764955D01*
X135514955Y-89932101D01*
X135318413Y-90063426D01*
X135318412Y-90063427D01*
X135318411Y-90063427D01*
X135100026Y-90153885D01*
X134868191Y-90200000D01*
X134631809Y-90200000D01*
X134399974Y-90153885D01*
X134181589Y-90063427D01*
X134181588Y-90063427D01*
X134181587Y-90063426D01*
X133985045Y-89932101D01*
X133817899Y-89764955D01*
X133686574Y-89568413D01*
X133686573Y-89568411D01*
X133596115Y-89350026D01*
X133550000Y-89118191D01*
X133550000Y-88881809D01*
X133596115Y-88649974D01*
X133686573Y-88431589D01*
X133817899Y-88235045D01*
X133985045Y-88067899D01*
X134181587Y-87936574D01*
X134181589Y-87936573D01*
X134399974Y-87846115D01*
X134631809Y-87800000D01*
X134868191Y-87800000D01*
X135100026Y-87846115D01*
G37*
G36*
X139600026Y-87846115D02*
G01*
X139818411Y-87936573D01*
X139818413Y-87936574D01*
X140014955Y-88067899D01*
X140182101Y-88235045D01*
X140313427Y-88431589D01*
X140403885Y-88649974D01*
X140450000Y-88881809D01*
X140450000Y-89118191D01*
X140403885Y-89350026D01*
X140313427Y-89568411D01*
X140313426Y-89568413D01*
X140182101Y-89764955D01*
X140014955Y-89932101D01*
X139818413Y-90063426D01*
X139818412Y-90063427D01*
X139818411Y-90063427D01*
X139600026Y-90153885D01*
X139368191Y-90200000D01*
X139131809Y-90200000D01*
X138899974Y-90153885D01*
X138681589Y-90063427D01*
X138681588Y-90063427D01*
X138681587Y-90063426D01*
X138485045Y-89932101D01*
X138317899Y-89764955D01*
X138186574Y-89568413D01*
X138186573Y-89568411D01*
X138096115Y-89350026D01*
X138050000Y-89118191D01*
X138050000Y-88881809D01*
X138096115Y-88649974D01*
X138186573Y-88431589D01*
X138317899Y-88235045D01*
X138485045Y-88067899D01*
X138681587Y-87936574D01*
X138681589Y-87936573D01*
X138899974Y-87846115D01*
X139131809Y-87800000D01*
X139368191Y-87800000D01*
X139600026Y-87846115D01*
G37*
M02*
